G04 #@! TF.GenerationSoftware,KiCad,Pcbnew,(5.1.4)-1*
G04 #@! TF.CreationDate,2020-11-24T15:39:13-05:00*
G04 #@! TF.ProjectId,Menorah,4d656e6f-7261-4682-9e6b-696361645f70,rev?*
G04 #@! TF.SameCoordinates,Original*
G04 #@! TF.FileFunction,Soldermask,Bot*
G04 #@! TF.FilePolarity,Negative*
%FSLAX46Y46*%
G04 Gerber Fmt 4.6, Leading zero omitted, Abs format (unit mm)*
G04 Created by KiCad (PCBNEW (5.1.4)-1) date 2020-11-24 15:39:13*
%MOMM*%
%LPD*%
G04 APERTURE LIST*
%ADD10C,0.010000*%
%ADD11C,0.100000*%
G04 APERTURE END LIST*
D10*
G36*
X144041649Y-59507966D02*
G01*
X144065030Y-60423359D01*
X144097525Y-61195468D01*
X144141982Y-61850223D01*
X144201246Y-62413557D01*
X144278163Y-62911403D01*
X144375581Y-63369693D01*
X144496346Y-63814358D01*
X144524507Y-63907036D01*
X144715441Y-64391787D01*
X144975085Y-64866771D01*
X145273101Y-65285683D01*
X145579148Y-65602219D01*
X145689256Y-65684719D01*
X145926321Y-65831394D01*
X146153499Y-65942388D01*
X146399320Y-66022501D01*
X146692313Y-66076532D01*
X147061006Y-66109282D01*
X147533930Y-66125549D01*
X148139614Y-66130134D01*
X148336000Y-66129979D01*
X148928881Y-66126870D01*
X149384149Y-66118336D01*
X149733501Y-66101712D01*
X150008634Y-66074333D01*
X150241244Y-66033536D01*
X150463030Y-65976656D01*
X150579666Y-65941384D01*
X151218625Y-65677425D01*
X151728341Y-65318706D01*
X152130193Y-64847848D01*
X152315333Y-64530176D01*
X152429886Y-64300867D01*
X152511007Y-64111056D01*
X152565300Y-63923427D01*
X152599366Y-63700667D01*
X152619809Y-63405459D01*
X152633229Y-63000489D01*
X152640598Y-62691863D01*
X152669530Y-61434133D01*
X156718000Y-61434133D01*
X156717305Y-62386633D01*
X156680087Y-63535219D01*
X156567619Y-64543293D01*
X156376005Y-65423908D01*
X156101350Y-66190117D01*
X155739757Y-66854972D01*
X155287330Y-67431528D01*
X155177522Y-67545510D01*
X154601956Y-68014299D01*
X153887322Y-68414721D01*
X153051825Y-68741168D01*
X152113670Y-68988032D01*
X151091063Y-69149708D01*
X150002209Y-69220588D01*
X149729421Y-69223466D01*
X149036231Y-69259779D01*
X148473835Y-69376844D01*
X148018195Y-69586854D01*
X147645271Y-69901998D01*
X147331026Y-70334469D01*
X147248434Y-70481703D01*
X146949909Y-71181460D01*
X146752022Y-71949329D01*
X146653029Y-72754965D01*
X146651189Y-73568023D01*
X146744757Y-74358160D01*
X146931992Y-75095030D01*
X147211151Y-75748288D01*
X147580492Y-76287590D01*
X147581944Y-76289246D01*
X147896856Y-76590759D01*
X148248324Y-76801654D01*
X148670456Y-76933858D01*
X149197362Y-76999297D01*
X149648333Y-77011767D01*
X150438147Y-76995852D01*
X151326651Y-76950433D01*
X152246740Y-76880438D01*
X153131308Y-76790795D01*
X153754666Y-76710227D01*
X155303379Y-76425822D01*
X156758419Y-76037348D01*
X158110581Y-75549277D01*
X159350660Y-74966081D01*
X160469449Y-74292233D01*
X161457743Y-73532205D01*
X162306335Y-72690469D01*
X162501179Y-72460952D01*
X163260869Y-71418449D01*
X163899179Y-70293091D01*
X164418481Y-69076952D01*
X164821151Y-67762107D01*
X165109562Y-66340631D01*
X165286087Y-64804598D01*
X165353101Y-63146083D01*
X165353897Y-62936966D01*
X165354000Y-61434133D01*
X169443789Y-61434133D01*
X169384320Y-62973743D01*
X169314722Y-64293007D01*
X169210578Y-65476845D01*
X169066929Y-66556559D01*
X168878818Y-67563454D01*
X168641286Y-68528830D01*
X168356581Y-69462375D01*
X167812360Y-70879936D01*
X167163237Y-72168907D01*
X166403337Y-73335459D01*
X165526786Y-74385761D01*
X164527708Y-75325985D01*
X163400228Y-76162299D01*
X162138474Y-76900874D01*
X160736569Y-77547881D01*
X160609080Y-77599523D01*
X159353246Y-78052115D01*
X158014738Y-78434013D01*
X156579702Y-78747617D01*
X155034281Y-78995328D01*
X153364620Y-79179544D01*
X151556863Y-79302666D01*
X150537333Y-79343993D01*
X149991315Y-79364626D01*
X149484671Y-79389787D01*
X149048649Y-79417454D01*
X148714499Y-79445603D01*
X148513469Y-79472212D01*
X148495999Y-79476128D01*
X148145142Y-79634735D01*
X147782801Y-79919328D01*
X147446591Y-80293838D01*
X147174129Y-80722194D01*
X147153232Y-80763756D01*
X146879743Y-81485999D01*
X146709995Y-82299300D01*
X146644294Y-83160645D01*
X146682947Y-84027021D01*
X146826261Y-84855414D01*
X147074542Y-85602812D01*
X147118062Y-85699320D01*
X147454488Y-86245384D01*
X147890395Y-86679242D01*
X148402352Y-86982024D01*
X148886333Y-87123316D01*
X149088411Y-87137837D01*
X149434603Y-87142181D01*
X149900055Y-87137345D01*
X150459917Y-87124325D01*
X151089337Y-87104118D01*
X151763463Y-87077719D01*
X152457444Y-87046125D01*
X153146429Y-87010333D01*
X153805565Y-86971339D01*
X154410001Y-86930140D01*
X154934886Y-86887731D01*
X155067000Y-86875509D01*
X157410623Y-86596000D01*
X159617318Y-86218753D01*
X161689292Y-85742545D01*
X163628755Y-85166149D01*
X165437914Y-84488340D01*
X167118980Y-83707893D01*
X168674159Y-82823582D01*
X170105663Y-81834183D01*
X171415698Y-80738469D01*
X172606474Y-79535216D01*
X173680199Y-78223197D01*
X174639083Y-76801188D01*
X175286111Y-75658133D01*
X175969588Y-74199950D01*
X176562903Y-72613188D01*
X177062406Y-70914832D01*
X177464450Y-69121868D01*
X177765387Y-67251281D01*
X177961567Y-65320056D01*
X178049342Y-63345179D01*
X178054000Y-62771875D01*
X178054000Y-61434133D01*
X182143845Y-61434133D01*
X182085266Y-63275633D01*
X181994195Y-65228760D01*
X181848151Y-67040625D01*
X181644119Y-68731130D01*
X181379089Y-70320177D01*
X181050046Y-71827667D01*
X180653980Y-73273503D01*
X180495166Y-73780402D01*
X179820946Y-75630709D01*
X179036493Y-77354396D01*
X178138932Y-78955796D01*
X177125385Y-80439241D01*
X175992976Y-81809065D01*
X174738826Y-83069601D01*
X173778333Y-83896229D01*
X172306864Y-84979085D01*
X170700277Y-85960522D01*
X168959185Y-86840367D01*
X167084203Y-87618448D01*
X165075943Y-88294591D01*
X162935020Y-88868623D01*
X160662048Y-89340371D01*
X158257639Y-89709662D01*
X155722408Y-89976323D01*
X153056968Y-90140181D01*
X151468666Y-90187724D01*
X150635635Y-90206383D01*
X149957534Y-90228148D01*
X149419976Y-90253856D01*
X149008571Y-90284344D01*
X148708933Y-90320448D01*
X148520024Y-90359230D01*
X148033784Y-90578677D01*
X147609416Y-90944649D01*
X147253576Y-91443595D01*
X146972918Y-92061961D01*
X146774099Y-92786196D01*
X146663773Y-93602748D01*
X146642666Y-94182136D01*
X146695839Y-95063754D01*
X146851519Y-95853910D01*
X147103948Y-96540317D01*
X147447371Y-97110686D01*
X147876028Y-97552729D01*
X148357874Y-97843012D01*
X148487000Y-97897056D01*
X148609627Y-97939412D01*
X148746547Y-97971029D01*
X148918551Y-97992856D01*
X149146432Y-98005842D01*
X149450983Y-98010934D01*
X149852996Y-98009082D01*
X150373263Y-98001233D01*
X151032576Y-97988337D01*
X151384000Y-97981060D01*
X153078206Y-97934949D01*
X154642605Y-97868407D01*
X156115815Y-97778489D01*
X157536457Y-97662250D01*
X158943150Y-97516747D01*
X160374515Y-97339033D01*
X161078333Y-97241900D01*
X163763922Y-96799091D01*
X166316057Y-96252604D01*
X168735702Y-95601742D01*
X171023822Y-94845808D01*
X173181384Y-93984106D01*
X175209352Y-93015937D01*
X177108691Y-91940604D01*
X178880367Y-90757412D01*
X180525345Y-89465661D01*
X182044591Y-88064656D01*
X183439069Y-86553699D01*
X184709746Y-84932092D01*
X185857586Y-83199139D01*
X186883555Y-81354143D01*
X187788617Y-79396406D01*
X188546954Y-77403492D01*
X189200048Y-75283461D01*
X189737094Y-73060385D01*
X190158903Y-70729222D01*
X190466285Y-68284930D01*
X190660051Y-65722464D01*
X190729154Y-63825966D01*
X190779625Y-61434133D01*
X194818000Y-61434133D01*
X194818000Y-62641825D01*
X194802571Y-63897888D01*
X194758150Y-65236595D01*
X194687532Y-66618681D01*
X194593516Y-68004881D01*
X194478896Y-69355930D01*
X194346470Y-70632563D01*
X194199035Y-71795516D01*
X194135193Y-72228436D01*
X193672989Y-74768302D01*
X193089405Y-77192051D01*
X192384643Y-79499201D01*
X191558902Y-81689268D01*
X190612385Y-83761771D01*
X189545292Y-85716226D01*
X188357825Y-87552152D01*
X187050183Y-89269066D01*
X187023317Y-89301569D01*
X186647233Y-89735515D01*
X186178305Y-90245301D01*
X185651316Y-90795479D01*
X185101050Y-91350598D01*
X184562289Y-91875211D01*
X184069815Y-92333868D01*
X183896000Y-92488798D01*
X182261871Y-93812908D01*
X180491515Y-95038376D01*
X178586880Y-96164443D01*
X176549913Y-97190351D01*
X174382562Y-98115342D01*
X172086777Y-98938656D01*
X169664504Y-99659537D01*
X167117692Y-100277224D01*
X164448290Y-100790959D01*
X161658246Y-101199984D01*
X161459333Y-101224570D01*
X160388283Y-101348524D01*
X159322270Y-101457228D01*
X158237012Y-101552278D01*
X157108231Y-101635271D01*
X155911648Y-101707801D01*
X154622982Y-101771466D01*
X153217955Y-101827860D01*
X151672286Y-101878579D01*
X151377269Y-101887228D01*
X149296205Y-101947246D01*
X148883346Y-102202496D01*
X148539638Y-102471755D01*
X148282000Y-102822382D01*
X148233910Y-102910608D01*
X147997333Y-103363469D01*
X147997677Y-108200968D01*
X147999302Y-109488774D01*
X148004693Y-110626668D01*
X148014912Y-111634050D01*
X148031025Y-112530319D01*
X148054096Y-113334875D01*
X148085188Y-114067117D01*
X148125367Y-114746446D01*
X148175696Y-115392260D01*
X148237240Y-116023960D01*
X148311062Y-116660945D01*
X148398228Y-117322615D01*
X148499801Y-118028370D01*
X148557992Y-118414800D01*
X148920467Y-120520740D01*
X149364990Y-122635016D01*
X149884488Y-124735775D01*
X150471888Y-126801165D01*
X151120118Y-128809333D01*
X151822103Y-130738427D01*
X152570772Y-132566595D01*
X153359051Y-134271984D01*
X154179866Y-135832743D01*
X154217024Y-135898466D01*
X155102836Y-137358102D01*
X156010769Y-138652606D01*
X156940214Y-139781254D01*
X157890563Y-140743325D01*
X158861209Y-141538095D01*
X159104876Y-141709141D01*
X159332896Y-141847756D01*
X159685994Y-142041978D01*
X160135298Y-142276896D01*
X160651936Y-142537598D01*
X161207036Y-142809173D01*
X161567392Y-142980971D01*
X163321406Y-143833417D01*
X164912660Y-144659998D01*
X166345312Y-145463339D01*
X167623519Y-146246069D01*
X168751441Y-147010814D01*
X169733236Y-147760202D01*
X170573062Y-148496860D01*
X171041325Y-148966423D01*
X171419055Y-149390764D01*
X171696166Y-149751110D01*
X171864044Y-150034315D01*
X171914074Y-150227232D01*
X171899363Y-150275845D01*
X171797758Y-150356803D01*
X171603800Y-150463494D01*
X171545497Y-150490938D01*
X171508821Y-150503650D01*
X171453004Y-150515580D01*
X171372762Y-150526755D01*
X171262814Y-150537202D01*
X171117879Y-150546949D01*
X170932674Y-150556023D01*
X170701918Y-150564451D01*
X170420328Y-150572261D01*
X170082623Y-150579479D01*
X169683521Y-150586133D01*
X169217741Y-150592250D01*
X168679999Y-150597858D01*
X168065015Y-150602983D01*
X167367507Y-150607654D01*
X166582192Y-150611896D01*
X165703789Y-150615738D01*
X164727016Y-150619207D01*
X163646592Y-150622329D01*
X162457233Y-150625132D01*
X161153659Y-150627644D01*
X159730588Y-150629892D01*
X158182738Y-150631902D01*
X156504826Y-150633702D01*
X154691572Y-150635320D01*
X152737693Y-150636782D01*
X150637907Y-150638116D01*
X148386932Y-150639350D01*
X145979488Y-150640509D01*
X143410291Y-150641622D01*
X142240000Y-150642099D01*
X140030085Y-150642786D01*
X137861772Y-150643066D01*
X135741300Y-150642952D01*
X133674909Y-150642456D01*
X131668839Y-150641590D01*
X129729331Y-150640366D01*
X127862624Y-150638797D01*
X126074960Y-150636893D01*
X124372578Y-150634669D01*
X122761718Y-150632135D01*
X121248621Y-150629304D01*
X119839526Y-150626188D01*
X118540674Y-150622799D01*
X117358306Y-150619150D01*
X116298660Y-150615252D01*
X115367979Y-150611117D01*
X114572500Y-150606759D01*
X113918466Y-150602188D01*
X113412116Y-150597418D01*
X113059690Y-150592459D01*
X112867429Y-150587325D01*
X112834191Y-150584859D01*
X112458218Y-150490794D01*
X112196973Y-150361428D01*
X112070863Y-150209723D01*
X112072454Y-150101131D01*
X112225259Y-149814346D01*
X112496563Y-149451986D01*
X112865745Y-149035017D01*
X113312187Y-148584406D01*
X113815270Y-148121120D01*
X114354375Y-147666124D01*
X114825817Y-147301350D01*
X115759597Y-146638359D01*
X116754046Y-145988745D01*
X117827983Y-145341779D01*
X119000228Y-144686733D01*
X120243347Y-144037050D01*
X136906131Y-144037050D01*
X136907698Y-144721939D01*
X136912204Y-145362716D01*
X136919258Y-145937080D01*
X136928471Y-146422734D01*
X136939453Y-146797378D01*
X136951812Y-147038712D01*
X136959934Y-147111304D01*
X137056628Y-147349427D01*
X137225831Y-147590625D01*
X137262780Y-147629888D01*
X137511692Y-147878800D01*
X146460307Y-147878800D01*
X146709219Y-147629888D01*
X146885687Y-147400258D01*
X147001515Y-147153378D01*
X147012065Y-147111304D01*
X147025079Y-146963094D01*
X147036954Y-146667852D01*
X147047302Y-146247876D01*
X147055731Y-145725465D01*
X147061851Y-145122920D01*
X147065273Y-144462540D01*
X147065868Y-144037050D01*
X147064837Y-143208532D01*
X147059907Y-142532076D01*
X147048190Y-141990414D01*
X147026802Y-141566277D01*
X146992855Y-141242398D01*
X146943464Y-141001509D01*
X146875743Y-140826340D01*
X146786805Y-140699625D01*
X146673764Y-140604093D01*
X146533735Y-140522479D01*
X146473333Y-140491764D01*
X146394161Y-140457941D01*
X146293928Y-140429655D01*
X146157830Y-140406420D01*
X145971061Y-140387746D01*
X145718815Y-140373146D01*
X145386286Y-140362130D01*
X144958670Y-140354211D01*
X144421160Y-140348900D01*
X143758952Y-140345708D01*
X142957239Y-140344147D01*
X142001216Y-140343729D01*
X141986000Y-140343729D01*
X141027608Y-140344134D01*
X140223743Y-140345675D01*
X139559598Y-140348839D01*
X139020370Y-140354116D01*
X138591251Y-140361993D01*
X138257438Y-140372960D01*
X138004123Y-140387504D01*
X137816502Y-140406115D01*
X137679768Y-140429280D01*
X137579118Y-140457488D01*
X137499744Y-140491227D01*
X137498666Y-140491764D01*
X137347711Y-140572615D01*
X137224833Y-140660870D01*
X137127145Y-140773799D01*
X137051763Y-140928669D01*
X136995799Y-141142749D01*
X136956367Y-141433306D01*
X136930582Y-141817610D01*
X136915558Y-142312927D01*
X136908407Y-142936527D01*
X136906245Y-143705678D01*
X136906131Y-144037050D01*
X120243347Y-144037050D01*
X120289599Y-144012878D01*
X121714916Y-143309487D01*
X122404607Y-142980971D01*
X122969152Y-142710245D01*
X123513625Y-142440894D01*
X124009151Y-142187829D01*
X124426860Y-141965964D01*
X124737879Y-141790210D01*
X124867123Y-141709141D01*
X125842705Y-140955952D01*
X126798142Y-140035284D01*
X127732825Y-138947858D01*
X128646147Y-137694399D01*
X129537499Y-136275628D01*
X129754975Y-135898466D01*
X130577074Y-134344649D01*
X131366950Y-132645230D01*
X132117531Y-130822059D01*
X132821744Y-128896990D01*
X133472515Y-126891875D01*
X134062772Y-124828567D01*
X134585441Y-122728916D01*
X135033449Y-120614777D01*
X135399724Y-118508001D01*
X135414007Y-118414800D01*
X135523240Y-117680002D01*
X135617561Y-116999218D01*
X135698021Y-116353127D01*
X135765676Y-115722411D01*
X135821576Y-115087752D01*
X135866776Y-114429831D01*
X135902329Y-113729330D01*
X135929288Y-112966929D01*
X135948705Y-112123311D01*
X135961634Y-111179157D01*
X135969129Y-110115147D01*
X135972241Y-108911965D01*
X135972462Y-108170133D01*
X135971868Y-107134873D01*
X135970500Y-106255141D01*
X135967942Y-105517131D01*
X135963773Y-104907039D01*
X135957576Y-104411060D01*
X135948932Y-104015388D01*
X135937423Y-103706219D01*
X135922629Y-103469747D01*
X135904133Y-103292167D01*
X135881516Y-103159674D01*
X135854358Y-103058462D01*
X135822243Y-102974728D01*
X135814408Y-102957143D01*
X135556970Y-102569583D01*
X135188587Y-102244118D01*
X134766607Y-102028824D01*
X134674501Y-102001584D01*
X134494895Y-101975275D01*
X134173173Y-101948101D01*
X133736537Y-101921542D01*
X133212189Y-101897078D01*
X132627331Y-101876186D01*
X132122333Y-101862774D01*
X129196801Y-101762677D01*
X126419389Y-101595936D01*
X123781977Y-101361194D01*
X121276442Y-101057092D01*
X118894664Y-100682275D01*
X116628521Y-100235385D01*
X114469892Y-99715064D01*
X112410657Y-99119956D01*
X110442692Y-98448702D01*
X109474000Y-98077577D01*
X107277464Y-97124651D01*
X105211954Y-96065068D01*
X103276431Y-94897642D01*
X101469854Y-93621188D01*
X99791186Y-92234519D01*
X98239386Y-90736451D01*
X96813417Y-89125797D01*
X95512238Y-87401373D01*
X94334812Y-85561992D01*
X93280098Y-83606470D01*
X92347058Y-81533621D01*
X91534653Y-79342258D01*
X90841844Y-77031197D01*
X90761986Y-76727611D01*
X90295452Y-74710133D01*
X89905097Y-72562131D01*
X89593425Y-70305551D01*
X89362942Y-67962335D01*
X89216152Y-65554428D01*
X89155561Y-63103774D01*
X89154000Y-62641825D01*
X89154000Y-61434133D01*
X93192374Y-61434133D01*
X93242845Y-63825966D01*
X93362601Y-66551226D01*
X93604459Y-69159343D01*
X93968541Y-71650628D01*
X94454969Y-74025389D01*
X95063865Y-76283936D01*
X95795352Y-78426578D01*
X96649551Y-80453623D01*
X97626585Y-82365381D01*
X98726576Y-84162160D01*
X99949646Y-85844271D01*
X101295917Y-87412021D01*
X102765511Y-88865720D01*
X103335666Y-89370556D01*
X104883535Y-90605591D01*
X106539359Y-91741499D01*
X108306668Y-92779458D01*
X110188994Y-93720644D01*
X112189865Y-94566236D01*
X114312814Y-95317411D01*
X116561370Y-95975345D01*
X118939063Y-96541218D01*
X121449425Y-97016205D01*
X124095985Y-97401485D01*
X126882275Y-97698236D01*
X128735666Y-97841918D01*
X129359998Y-97878846D01*
X130047577Y-97911112D01*
X130776066Y-97938418D01*
X131523122Y-97960467D01*
X132266406Y-97976963D01*
X132983578Y-97987607D01*
X133652297Y-97992104D01*
X134250223Y-97990157D01*
X134755016Y-97981467D01*
X135144335Y-97965738D01*
X135395841Y-97942673D01*
X135453173Y-97931239D01*
X135920062Y-97717354D01*
X136333830Y-97356648D01*
X136686423Y-96865525D01*
X136969789Y-96260390D01*
X137175874Y-95557647D01*
X137296626Y-94773702D01*
X137326393Y-94115466D01*
X137273410Y-93209258D01*
X137117508Y-92402964D01*
X136863257Y-91706776D01*
X136515228Y-91130885D01*
X136077990Y-90685483D01*
X135675525Y-90434036D01*
X135563640Y-90387133D01*
X135429080Y-90348917D01*
X135251864Y-90317848D01*
X135012008Y-90292386D01*
X134689528Y-90270991D01*
X134264441Y-90252123D01*
X133716765Y-90234244D01*
X133026516Y-90215813D01*
X132757333Y-90209184D01*
X130221810Y-90110070D01*
X127831377Y-89938327D01*
X125577315Y-89692162D01*
X123450906Y-89369779D01*
X121443432Y-88969383D01*
X119546176Y-88489178D01*
X117750420Y-87927370D01*
X116047445Y-87282163D01*
X114428535Y-86551763D01*
X114030846Y-86353054D01*
X112361406Y-85416821D01*
X110822670Y-84375665D01*
X109412403Y-83226924D01*
X108128369Y-81967935D01*
X106968333Y-80596035D01*
X105930058Y-79108561D01*
X105011308Y-77502849D01*
X104209848Y-75776237D01*
X103523442Y-73926062D01*
X103476347Y-73781654D01*
X103055739Y-72351557D01*
X102703265Y-70868471D01*
X102415872Y-69312217D01*
X102190505Y-67662613D01*
X102024113Y-65899480D01*
X101913641Y-64002637D01*
X101886733Y-63275633D01*
X101828154Y-61434133D01*
X105918000Y-61434133D01*
X105918000Y-62771875D01*
X105959907Y-64422017D01*
X106082164Y-66091903D01*
X106279576Y-67743318D01*
X106546944Y-69338048D01*
X106879074Y-70837879D01*
X107146961Y-71809658D01*
X107762222Y-73597551D01*
X108495551Y-75268881D01*
X109348385Y-76824862D01*
X110322163Y-78266711D01*
X111418322Y-79595642D01*
X112638300Y-80812868D01*
X113983534Y-81919607D01*
X115455463Y-82917071D01*
X117055524Y-83806477D01*
X118785155Y-84589038D01*
X120645793Y-85265971D01*
X122638877Y-85838489D01*
X124163666Y-86188170D01*
X125524833Y-86442720D01*
X126951728Y-86655054D01*
X128467376Y-86827655D01*
X130094802Y-86963004D01*
X131857029Y-87063586D01*
X132552656Y-87092669D01*
X133331460Y-87120040D01*
X133962458Y-87135481D01*
X134466878Y-87137074D01*
X134865951Y-87122901D01*
X135180906Y-87091047D01*
X135432973Y-87039593D01*
X135643383Y-86966622D01*
X135833364Y-86870218D01*
X135971363Y-86783935D01*
X136384934Y-86414012D01*
X136725643Y-85916456D01*
X136991968Y-85317208D01*
X137182387Y-84642209D01*
X137295377Y-83917399D01*
X137329417Y-83168718D01*
X137282983Y-82422107D01*
X137154553Y-81703506D01*
X136942606Y-81038855D01*
X136645618Y-80454095D01*
X136364681Y-80081927D01*
X136166239Y-79879502D01*
X135963718Y-79720871D01*
X135732733Y-79599825D01*
X135448897Y-79510154D01*
X135087824Y-79445651D01*
X134625129Y-79400105D01*
X134036425Y-79367309D01*
X133477000Y-79346677D01*
X131366814Y-79236340D01*
X129402229Y-79044974D01*
X127579137Y-78770672D01*
X125893427Y-78411528D01*
X124340989Y-77965633D01*
X122917714Y-77431082D01*
X121619491Y-76805967D01*
X120442212Y-76088381D01*
X119381766Y-75276418D01*
X118434043Y-74368169D01*
X117594934Y-73361728D01*
X116860329Y-72255189D01*
X116409597Y-71427052D01*
X115899247Y-70282528D01*
X115475656Y-69055780D01*
X115135785Y-67732697D01*
X114876598Y-66299168D01*
X114695056Y-64741081D01*
X114588122Y-63044324D01*
X114584418Y-62948636D01*
X114527560Y-61434133D01*
X118618000Y-61434133D01*
X118618000Y-62937485D01*
X118676488Y-64660403D01*
X118852620Y-66262515D01*
X119147393Y-67745769D01*
X119561808Y-69112112D01*
X120096863Y-70363489D01*
X120753558Y-71501848D01*
X121532890Y-72529134D01*
X122435861Y-73447296D01*
X123463467Y-74258279D01*
X124616710Y-74964029D01*
X124854308Y-75088530D01*
X126078255Y-75635522D01*
X127432705Y-76096329D01*
X128900382Y-76467442D01*
X130464012Y-76745353D01*
X132106318Y-76926554D01*
X133810025Y-77007535D01*
X134323666Y-77011767D01*
X134764503Y-77006342D01*
X135082995Y-76986197D01*
X135325945Y-76944493D01*
X135540158Y-76874392D01*
X135678949Y-76813722D01*
X136171779Y-76492477D01*
X136582931Y-76032147D01*
X136907639Y-75444502D01*
X137141140Y-74741313D01*
X137278669Y-73934353D01*
X137315463Y-73035391D01*
X137307974Y-72788788D01*
X137213795Y-71868857D01*
X137018797Y-71084644D01*
X136722750Y-70435645D01*
X136325422Y-69921355D01*
X135826582Y-69541271D01*
X135813180Y-69533692D01*
X135630147Y-69435416D01*
X135463922Y-69364174D01*
X135280417Y-69313871D01*
X135045540Y-69278415D01*
X134725204Y-69251713D01*
X134285318Y-69227674D01*
X134035180Y-69215912D01*
X133549921Y-69190773D01*
X133097853Y-69162290D01*
X132718320Y-69133305D01*
X132450670Y-69106662D01*
X132376333Y-69096041D01*
X131322477Y-68865400D01*
X130405744Y-68560090D01*
X129619856Y-68171884D01*
X128958533Y-67692557D01*
X128415496Y-67113882D01*
X127984465Y-66427634D01*
X127659160Y-65625585D01*
X127433303Y-64699510D01*
X127300613Y-63641182D01*
X127254812Y-62442377D01*
X127254694Y-62386633D01*
X127254000Y-61434133D01*
X131302469Y-61434133D01*
X131331401Y-62685141D01*
X131344114Y-63174006D01*
X131360306Y-63531275D01*
X131386411Y-63794655D01*
X131428863Y-64001859D01*
X131494096Y-64190595D01*
X131588543Y-64398574D01*
X131642598Y-64509116D01*
X131987512Y-65056194D01*
X132430404Y-65480295D01*
X132990853Y-65797551D01*
X133378507Y-65939272D01*
X133611258Y-66005906D01*
X133837093Y-66054930D01*
X134087949Y-66089042D01*
X134395764Y-66110940D01*
X134792478Y-66123323D01*
X135310029Y-66128887D01*
X135636000Y-66129979D01*
X136283780Y-66127796D01*
X136790848Y-66115269D01*
X137185732Y-66087597D01*
X137496961Y-66039980D01*
X137753064Y-65967621D01*
X137982572Y-65865719D01*
X138214012Y-65729474D01*
X138282743Y-65684719D01*
X138584014Y-65418248D01*
X138888575Y-65032121D01*
X139166086Y-64572644D01*
X139386207Y-64086122D01*
X139447492Y-63907036D01*
X139573442Y-63461952D01*
X139675457Y-63008609D01*
X139756382Y-62521074D01*
X139819065Y-61973416D01*
X139866352Y-61339703D01*
X139901088Y-60594001D01*
X139926121Y-59710380D01*
X139930350Y-59507966D01*
X139976167Y-57200800D01*
X143995832Y-57200800D01*
X144041649Y-59507966D01*
X144041649Y-59507966D01*
G37*
X144041649Y-59507966D02*
X144065030Y-60423359D01*
X144097525Y-61195468D01*
X144141982Y-61850223D01*
X144201246Y-62413557D01*
X144278163Y-62911403D01*
X144375581Y-63369693D01*
X144496346Y-63814358D01*
X144524507Y-63907036D01*
X144715441Y-64391787D01*
X144975085Y-64866771D01*
X145273101Y-65285683D01*
X145579148Y-65602219D01*
X145689256Y-65684719D01*
X145926321Y-65831394D01*
X146153499Y-65942388D01*
X146399320Y-66022501D01*
X146692313Y-66076532D01*
X147061006Y-66109282D01*
X147533930Y-66125549D01*
X148139614Y-66130134D01*
X148336000Y-66129979D01*
X148928881Y-66126870D01*
X149384149Y-66118336D01*
X149733501Y-66101712D01*
X150008634Y-66074333D01*
X150241244Y-66033536D01*
X150463030Y-65976656D01*
X150579666Y-65941384D01*
X151218625Y-65677425D01*
X151728341Y-65318706D01*
X152130193Y-64847848D01*
X152315333Y-64530176D01*
X152429886Y-64300867D01*
X152511007Y-64111056D01*
X152565300Y-63923427D01*
X152599366Y-63700667D01*
X152619809Y-63405459D01*
X152633229Y-63000489D01*
X152640598Y-62691863D01*
X152669530Y-61434133D01*
X156718000Y-61434133D01*
X156717305Y-62386633D01*
X156680087Y-63535219D01*
X156567619Y-64543293D01*
X156376005Y-65423908D01*
X156101350Y-66190117D01*
X155739757Y-66854972D01*
X155287330Y-67431528D01*
X155177522Y-67545510D01*
X154601956Y-68014299D01*
X153887322Y-68414721D01*
X153051825Y-68741168D01*
X152113670Y-68988032D01*
X151091063Y-69149708D01*
X150002209Y-69220588D01*
X149729421Y-69223466D01*
X149036231Y-69259779D01*
X148473835Y-69376844D01*
X148018195Y-69586854D01*
X147645271Y-69901998D01*
X147331026Y-70334469D01*
X147248434Y-70481703D01*
X146949909Y-71181460D01*
X146752022Y-71949329D01*
X146653029Y-72754965D01*
X146651189Y-73568023D01*
X146744757Y-74358160D01*
X146931992Y-75095030D01*
X147211151Y-75748288D01*
X147580492Y-76287590D01*
X147581944Y-76289246D01*
X147896856Y-76590759D01*
X148248324Y-76801654D01*
X148670456Y-76933858D01*
X149197362Y-76999297D01*
X149648333Y-77011767D01*
X150438147Y-76995852D01*
X151326651Y-76950433D01*
X152246740Y-76880438D01*
X153131308Y-76790795D01*
X153754666Y-76710227D01*
X155303379Y-76425822D01*
X156758419Y-76037348D01*
X158110581Y-75549277D01*
X159350660Y-74966081D01*
X160469449Y-74292233D01*
X161457743Y-73532205D01*
X162306335Y-72690469D01*
X162501179Y-72460952D01*
X163260869Y-71418449D01*
X163899179Y-70293091D01*
X164418481Y-69076952D01*
X164821151Y-67762107D01*
X165109562Y-66340631D01*
X165286087Y-64804598D01*
X165353101Y-63146083D01*
X165353897Y-62936966D01*
X165354000Y-61434133D01*
X169443789Y-61434133D01*
X169384320Y-62973743D01*
X169314722Y-64293007D01*
X169210578Y-65476845D01*
X169066929Y-66556559D01*
X168878818Y-67563454D01*
X168641286Y-68528830D01*
X168356581Y-69462375D01*
X167812360Y-70879936D01*
X167163237Y-72168907D01*
X166403337Y-73335459D01*
X165526786Y-74385761D01*
X164527708Y-75325985D01*
X163400228Y-76162299D01*
X162138474Y-76900874D01*
X160736569Y-77547881D01*
X160609080Y-77599523D01*
X159353246Y-78052115D01*
X158014738Y-78434013D01*
X156579702Y-78747617D01*
X155034281Y-78995328D01*
X153364620Y-79179544D01*
X151556863Y-79302666D01*
X150537333Y-79343993D01*
X149991315Y-79364626D01*
X149484671Y-79389787D01*
X149048649Y-79417454D01*
X148714499Y-79445603D01*
X148513469Y-79472212D01*
X148495999Y-79476128D01*
X148145142Y-79634735D01*
X147782801Y-79919328D01*
X147446591Y-80293838D01*
X147174129Y-80722194D01*
X147153232Y-80763756D01*
X146879743Y-81485999D01*
X146709995Y-82299300D01*
X146644294Y-83160645D01*
X146682947Y-84027021D01*
X146826261Y-84855414D01*
X147074542Y-85602812D01*
X147118062Y-85699320D01*
X147454488Y-86245384D01*
X147890395Y-86679242D01*
X148402352Y-86982024D01*
X148886333Y-87123316D01*
X149088411Y-87137837D01*
X149434603Y-87142181D01*
X149900055Y-87137345D01*
X150459917Y-87124325D01*
X151089337Y-87104118D01*
X151763463Y-87077719D01*
X152457444Y-87046125D01*
X153146429Y-87010333D01*
X153805565Y-86971339D01*
X154410001Y-86930140D01*
X154934886Y-86887731D01*
X155067000Y-86875509D01*
X157410623Y-86596000D01*
X159617318Y-86218753D01*
X161689292Y-85742545D01*
X163628755Y-85166149D01*
X165437914Y-84488340D01*
X167118980Y-83707893D01*
X168674159Y-82823582D01*
X170105663Y-81834183D01*
X171415698Y-80738469D01*
X172606474Y-79535216D01*
X173680199Y-78223197D01*
X174639083Y-76801188D01*
X175286111Y-75658133D01*
X175969588Y-74199950D01*
X176562903Y-72613188D01*
X177062406Y-70914832D01*
X177464450Y-69121868D01*
X177765387Y-67251281D01*
X177961567Y-65320056D01*
X178049342Y-63345179D01*
X178054000Y-62771875D01*
X178054000Y-61434133D01*
X182143845Y-61434133D01*
X182085266Y-63275633D01*
X181994195Y-65228760D01*
X181848151Y-67040625D01*
X181644119Y-68731130D01*
X181379089Y-70320177D01*
X181050046Y-71827667D01*
X180653980Y-73273503D01*
X180495166Y-73780402D01*
X179820946Y-75630709D01*
X179036493Y-77354396D01*
X178138932Y-78955796D01*
X177125385Y-80439241D01*
X175992976Y-81809065D01*
X174738826Y-83069601D01*
X173778333Y-83896229D01*
X172306864Y-84979085D01*
X170700277Y-85960522D01*
X168959185Y-86840367D01*
X167084203Y-87618448D01*
X165075943Y-88294591D01*
X162935020Y-88868623D01*
X160662048Y-89340371D01*
X158257639Y-89709662D01*
X155722408Y-89976323D01*
X153056968Y-90140181D01*
X151468666Y-90187724D01*
X150635635Y-90206383D01*
X149957534Y-90228148D01*
X149419976Y-90253856D01*
X149008571Y-90284344D01*
X148708933Y-90320448D01*
X148520024Y-90359230D01*
X148033784Y-90578677D01*
X147609416Y-90944649D01*
X147253576Y-91443595D01*
X146972918Y-92061961D01*
X146774099Y-92786196D01*
X146663773Y-93602748D01*
X146642666Y-94182136D01*
X146695839Y-95063754D01*
X146851519Y-95853910D01*
X147103948Y-96540317D01*
X147447371Y-97110686D01*
X147876028Y-97552729D01*
X148357874Y-97843012D01*
X148487000Y-97897056D01*
X148609627Y-97939412D01*
X148746547Y-97971029D01*
X148918551Y-97992856D01*
X149146432Y-98005842D01*
X149450983Y-98010934D01*
X149852996Y-98009082D01*
X150373263Y-98001233D01*
X151032576Y-97988337D01*
X151384000Y-97981060D01*
X153078206Y-97934949D01*
X154642605Y-97868407D01*
X156115815Y-97778489D01*
X157536457Y-97662250D01*
X158943150Y-97516747D01*
X160374515Y-97339033D01*
X161078333Y-97241900D01*
X163763922Y-96799091D01*
X166316057Y-96252604D01*
X168735702Y-95601742D01*
X171023822Y-94845808D01*
X173181384Y-93984106D01*
X175209352Y-93015937D01*
X177108691Y-91940604D01*
X178880367Y-90757412D01*
X180525345Y-89465661D01*
X182044591Y-88064656D01*
X183439069Y-86553699D01*
X184709746Y-84932092D01*
X185857586Y-83199139D01*
X186883555Y-81354143D01*
X187788617Y-79396406D01*
X188546954Y-77403492D01*
X189200048Y-75283461D01*
X189737094Y-73060385D01*
X190158903Y-70729222D01*
X190466285Y-68284930D01*
X190660051Y-65722464D01*
X190729154Y-63825966D01*
X190779625Y-61434133D01*
X194818000Y-61434133D01*
X194818000Y-62641825D01*
X194802571Y-63897888D01*
X194758150Y-65236595D01*
X194687532Y-66618681D01*
X194593516Y-68004881D01*
X194478896Y-69355930D01*
X194346470Y-70632563D01*
X194199035Y-71795516D01*
X194135193Y-72228436D01*
X193672989Y-74768302D01*
X193089405Y-77192051D01*
X192384643Y-79499201D01*
X191558902Y-81689268D01*
X190612385Y-83761771D01*
X189545292Y-85716226D01*
X188357825Y-87552152D01*
X187050183Y-89269066D01*
X187023317Y-89301569D01*
X186647233Y-89735515D01*
X186178305Y-90245301D01*
X185651316Y-90795479D01*
X185101050Y-91350598D01*
X184562289Y-91875211D01*
X184069815Y-92333868D01*
X183896000Y-92488798D01*
X182261871Y-93812908D01*
X180491515Y-95038376D01*
X178586880Y-96164443D01*
X176549913Y-97190351D01*
X174382562Y-98115342D01*
X172086777Y-98938656D01*
X169664504Y-99659537D01*
X167117692Y-100277224D01*
X164448290Y-100790959D01*
X161658246Y-101199984D01*
X161459333Y-101224570D01*
X160388283Y-101348524D01*
X159322270Y-101457228D01*
X158237012Y-101552278D01*
X157108231Y-101635271D01*
X155911648Y-101707801D01*
X154622982Y-101771466D01*
X153217955Y-101827860D01*
X151672286Y-101878579D01*
X151377269Y-101887228D01*
X149296205Y-101947246D01*
X148883346Y-102202496D01*
X148539638Y-102471755D01*
X148282000Y-102822382D01*
X148233910Y-102910608D01*
X147997333Y-103363469D01*
X147997677Y-108200968D01*
X147999302Y-109488774D01*
X148004693Y-110626668D01*
X148014912Y-111634050D01*
X148031025Y-112530319D01*
X148054096Y-113334875D01*
X148085188Y-114067117D01*
X148125367Y-114746446D01*
X148175696Y-115392260D01*
X148237240Y-116023960D01*
X148311062Y-116660945D01*
X148398228Y-117322615D01*
X148499801Y-118028370D01*
X148557992Y-118414800D01*
X148920467Y-120520740D01*
X149364990Y-122635016D01*
X149884488Y-124735775D01*
X150471888Y-126801165D01*
X151120118Y-128809333D01*
X151822103Y-130738427D01*
X152570772Y-132566595D01*
X153359051Y-134271984D01*
X154179866Y-135832743D01*
X154217024Y-135898466D01*
X155102836Y-137358102D01*
X156010769Y-138652606D01*
X156940214Y-139781254D01*
X157890563Y-140743325D01*
X158861209Y-141538095D01*
X159104876Y-141709141D01*
X159332896Y-141847756D01*
X159685994Y-142041978D01*
X160135298Y-142276896D01*
X160651936Y-142537598D01*
X161207036Y-142809173D01*
X161567392Y-142980971D01*
X163321406Y-143833417D01*
X164912660Y-144659998D01*
X166345312Y-145463339D01*
X167623519Y-146246069D01*
X168751441Y-147010814D01*
X169733236Y-147760202D01*
X170573062Y-148496860D01*
X171041325Y-148966423D01*
X171419055Y-149390764D01*
X171696166Y-149751110D01*
X171864044Y-150034315D01*
X171914074Y-150227232D01*
X171899363Y-150275845D01*
X171797758Y-150356803D01*
X171603800Y-150463494D01*
X171545497Y-150490938D01*
X171508821Y-150503650D01*
X171453004Y-150515580D01*
X171372762Y-150526755D01*
X171262814Y-150537202D01*
X171117879Y-150546949D01*
X170932674Y-150556023D01*
X170701918Y-150564451D01*
X170420328Y-150572261D01*
X170082623Y-150579479D01*
X169683521Y-150586133D01*
X169217741Y-150592250D01*
X168679999Y-150597858D01*
X168065015Y-150602983D01*
X167367507Y-150607654D01*
X166582192Y-150611896D01*
X165703789Y-150615738D01*
X164727016Y-150619207D01*
X163646592Y-150622329D01*
X162457233Y-150625132D01*
X161153659Y-150627644D01*
X159730588Y-150629892D01*
X158182738Y-150631902D01*
X156504826Y-150633702D01*
X154691572Y-150635320D01*
X152737693Y-150636782D01*
X150637907Y-150638116D01*
X148386932Y-150639350D01*
X145979488Y-150640509D01*
X143410291Y-150641622D01*
X142240000Y-150642099D01*
X140030085Y-150642786D01*
X137861772Y-150643066D01*
X135741300Y-150642952D01*
X133674909Y-150642456D01*
X131668839Y-150641590D01*
X129729331Y-150640366D01*
X127862624Y-150638797D01*
X126074960Y-150636893D01*
X124372578Y-150634669D01*
X122761718Y-150632135D01*
X121248621Y-150629304D01*
X119839526Y-150626188D01*
X118540674Y-150622799D01*
X117358306Y-150619150D01*
X116298660Y-150615252D01*
X115367979Y-150611117D01*
X114572500Y-150606759D01*
X113918466Y-150602188D01*
X113412116Y-150597418D01*
X113059690Y-150592459D01*
X112867429Y-150587325D01*
X112834191Y-150584859D01*
X112458218Y-150490794D01*
X112196973Y-150361428D01*
X112070863Y-150209723D01*
X112072454Y-150101131D01*
X112225259Y-149814346D01*
X112496563Y-149451986D01*
X112865745Y-149035017D01*
X113312187Y-148584406D01*
X113815270Y-148121120D01*
X114354375Y-147666124D01*
X114825817Y-147301350D01*
X115759597Y-146638359D01*
X116754046Y-145988745D01*
X117827983Y-145341779D01*
X119000228Y-144686733D01*
X120243347Y-144037050D01*
X136906131Y-144037050D01*
X136907698Y-144721939D01*
X136912204Y-145362716D01*
X136919258Y-145937080D01*
X136928471Y-146422734D01*
X136939453Y-146797378D01*
X136951812Y-147038712D01*
X136959934Y-147111304D01*
X137056628Y-147349427D01*
X137225831Y-147590625D01*
X137262780Y-147629888D01*
X137511692Y-147878800D01*
X146460307Y-147878800D01*
X146709219Y-147629888D01*
X146885687Y-147400258D01*
X147001515Y-147153378D01*
X147012065Y-147111304D01*
X147025079Y-146963094D01*
X147036954Y-146667852D01*
X147047302Y-146247876D01*
X147055731Y-145725465D01*
X147061851Y-145122920D01*
X147065273Y-144462540D01*
X147065868Y-144037050D01*
X147064837Y-143208532D01*
X147059907Y-142532076D01*
X147048190Y-141990414D01*
X147026802Y-141566277D01*
X146992855Y-141242398D01*
X146943464Y-141001509D01*
X146875743Y-140826340D01*
X146786805Y-140699625D01*
X146673764Y-140604093D01*
X146533735Y-140522479D01*
X146473333Y-140491764D01*
X146394161Y-140457941D01*
X146293928Y-140429655D01*
X146157830Y-140406420D01*
X145971061Y-140387746D01*
X145718815Y-140373146D01*
X145386286Y-140362130D01*
X144958670Y-140354211D01*
X144421160Y-140348900D01*
X143758952Y-140345708D01*
X142957239Y-140344147D01*
X142001216Y-140343729D01*
X141986000Y-140343729D01*
X141027608Y-140344134D01*
X140223743Y-140345675D01*
X139559598Y-140348839D01*
X139020370Y-140354116D01*
X138591251Y-140361993D01*
X138257438Y-140372960D01*
X138004123Y-140387504D01*
X137816502Y-140406115D01*
X137679768Y-140429280D01*
X137579118Y-140457488D01*
X137499744Y-140491227D01*
X137498666Y-140491764D01*
X137347711Y-140572615D01*
X137224833Y-140660870D01*
X137127145Y-140773799D01*
X137051763Y-140928669D01*
X136995799Y-141142749D01*
X136956367Y-141433306D01*
X136930582Y-141817610D01*
X136915558Y-142312927D01*
X136908407Y-142936527D01*
X136906245Y-143705678D01*
X136906131Y-144037050D01*
X120243347Y-144037050D01*
X120289599Y-144012878D01*
X121714916Y-143309487D01*
X122404607Y-142980971D01*
X122969152Y-142710245D01*
X123513625Y-142440894D01*
X124009151Y-142187829D01*
X124426860Y-141965964D01*
X124737879Y-141790210D01*
X124867123Y-141709141D01*
X125842705Y-140955952D01*
X126798142Y-140035284D01*
X127732825Y-138947858D01*
X128646147Y-137694399D01*
X129537499Y-136275628D01*
X129754975Y-135898466D01*
X130577074Y-134344649D01*
X131366950Y-132645230D01*
X132117531Y-130822059D01*
X132821744Y-128896990D01*
X133472515Y-126891875D01*
X134062772Y-124828567D01*
X134585441Y-122728916D01*
X135033449Y-120614777D01*
X135399724Y-118508001D01*
X135414007Y-118414800D01*
X135523240Y-117680002D01*
X135617561Y-116999218D01*
X135698021Y-116353127D01*
X135765676Y-115722411D01*
X135821576Y-115087752D01*
X135866776Y-114429831D01*
X135902329Y-113729330D01*
X135929288Y-112966929D01*
X135948705Y-112123311D01*
X135961634Y-111179157D01*
X135969129Y-110115147D01*
X135972241Y-108911965D01*
X135972462Y-108170133D01*
X135971868Y-107134873D01*
X135970500Y-106255141D01*
X135967942Y-105517131D01*
X135963773Y-104907039D01*
X135957576Y-104411060D01*
X135948932Y-104015388D01*
X135937423Y-103706219D01*
X135922629Y-103469747D01*
X135904133Y-103292167D01*
X135881516Y-103159674D01*
X135854358Y-103058462D01*
X135822243Y-102974728D01*
X135814408Y-102957143D01*
X135556970Y-102569583D01*
X135188587Y-102244118D01*
X134766607Y-102028824D01*
X134674501Y-102001584D01*
X134494895Y-101975275D01*
X134173173Y-101948101D01*
X133736537Y-101921542D01*
X133212189Y-101897078D01*
X132627331Y-101876186D01*
X132122333Y-101862774D01*
X129196801Y-101762677D01*
X126419389Y-101595936D01*
X123781977Y-101361194D01*
X121276442Y-101057092D01*
X118894664Y-100682275D01*
X116628521Y-100235385D01*
X114469892Y-99715064D01*
X112410657Y-99119956D01*
X110442692Y-98448702D01*
X109474000Y-98077577D01*
X107277464Y-97124651D01*
X105211954Y-96065068D01*
X103276431Y-94897642D01*
X101469854Y-93621188D01*
X99791186Y-92234519D01*
X98239386Y-90736451D01*
X96813417Y-89125797D01*
X95512238Y-87401373D01*
X94334812Y-85561992D01*
X93280098Y-83606470D01*
X92347058Y-81533621D01*
X91534653Y-79342258D01*
X90841844Y-77031197D01*
X90761986Y-76727611D01*
X90295452Y-74710133D01*
X89905097Y-72562131D01*
X89593425Y-70305551D01*
X89362942Y-67962335D01*
X89216152Y-65554428D01*
X89155561Y-63103774D01*
X89154000Y-62641825D01*
X89154000Y-61434133D01*
X93192374Y-61434133D01*
X93242845Y-63825966D01*
X93362601Y-66551226D01*
X93604459Y-69159343D01*
X93968541Y-71650628D01*
X94454969Y-74025389D01*
X95063865Y-76283936D01*
X95795352Y-78426578D01*
X96649551Y-80453623D01*
X97626585Y-82365381D01*
X98726576Y-84162160D01*
X99949646Y-85844271D01*
X101295917Y-87412021D01*
X102765511Y-88865720D01*
X103335666Y-89370556D01*
X104883535Y-90605591D01*
X106539359Y-91741499D01*
X108306668Y-92779458D01*
X110188994Y-93720644D01*
X112189865Y-94566236D01*
X114312814Y-95317411D01*
X116561370Y-95975345D01*
X118939063Y-96541218D01*
X121449425Y-97016205D01*
X124095985Y-97401485D01*
X126882275Y-97698236D01*
X128735666Y-97841918D01*
X129359998Y-97878846D01*
X130047577Y-97911112D01*
X130776066Y-97938418D01*
X131523122Y-97960467D01*
X132266406Y-97976963D01*
X132983578Y-97987607D01*
X133652297Y-97992104D01*
X134250223Y-97990157D01*
X134755016Y-97981467D01*
X135144335Y-97965738D01*
X135395841Y-97942673D01*
X135453173Y-97931239D01*
X135920062Y-97717354D01*
X136333830Y-97356648D01*
X136686423Y-96865525D01*
X136969789Y-96260390D01*
X137175874Y-95557647D01*
X137296626Y-94773702D01*
X137326393Y-94115466D01*
X137273410Y-93209258D01*
X137117508Y-92402964D01*
X136863257Y-91706776D01*
X136515228Y-91130885D01*
X136077990Y-90685483D01*
X135675525Y-90434036D01*
X135563640Y-90387133D01*
X135429080Y-90348917D01*
X135251864Y-90317848D01*
X135012008Y-90292386D01*
X134689528Y-90270991D01*
X134264441Y-90252123D01*
X133716765Y-90234244D01*
X133026516Y-90215813D01*
X132757333Y-90209184D01*
X130221810Y-90110070D01*
X127831377Y-89938327D01*
X125577315Y-89692162D01*
X123450906Y-89369779D01*
X121443432Y-88969383D01*
X119546176Y-88489178D01*
X117750420Y-87927370D01*
X116047445Y-87282163D01*
X114428535Y-86551763D01*
X114030846Y-86353054D01*
X112361406Y-85416821D01*
X110822670Y-84375665D01*
X109412403Y-83226924D01*
X108128369Y-81967935D01*
X106968333Y-80596035D01*
X105930058Y-79108561D01*
X105011308Y-77502849D01*
X104209848Y-75776237D01*
X103523442Y-73926062D01*
X103476347Y-73781654D01*
X103055739Y-72351557D01*
X102703265Y-70868471D01*
X102415872Y-69312217D01*
X102190505Y-67662613D01*
X102024113Y-65899480D01*
X101913641Y-64002637D01*
X101886733Y-63275633D01*
X101828154Y-61434133D01*
X105918000Y-61434133D01*
X105918000Y-62771875D01*
X105959907Y-64422017D01*
X106082164Y-66091903D01*
X106279576Y-67743318D01*
X106546944Y-69338048D01*
X106879074Y-70837879D01*
X107146961Y-71809658D01*
X107762222Y-73597551D01*
X108495551Y-75268881D01*
X109348385Y-76824862D01*
X110322163Y-78266711D01*
X111418322Y-79595642D01*
X112638300Y-80812868D01*
X113983534Y-81919607D01*
X115455463Y-82917071D01*
X117055524Y-83806477D01*
X118785155Y-84589038D01*
X120645793Y-85265971D01*
X122638877Y-85838489D01*
X124163666Y-86188170D01*
X125524833Y-86442720D01*
X126951728Y-86655054D01*
X128467376Y-86827655D01*
X130094802Y-86963004D01*
X131857029Y-87063586D01*
X132552656Y-87092669D01*
X133331460Y-87120040D01*
X133962458Y-87135481D01*
X134466878Y-87137074D01*
X134865951Y-87122901D01*
X135180906Y-87091047D01*
X135432973Y-87039593D01*
X135643383Y-86966622D01*
X135833364Y-86870218D01*
X135971363Y-86783935D01*
X136384934Y-86414012D01*
X136725643Y-85916456D01*
X136991968Y-85317208D01*
X137182387Y-84642209D01*
X137295377Y-83917399D01*
X137329417Y-83168718D01*
X137282983Y-82422107D01*
X137154553Y-81703506D01*
X136942606Y-81038855D01*
X136645618Y-80454095D01*
X136364681Y-80081927D01*
X136166239Y-79879502D01*
X135963718Y-79720871D01*
X135732733Y-79599825D01*
X135448897Y-79510154D01*
X135087824Y-79445651D01*
X134625129Y-79400105D01*
X134036425Y-79367309D01*
X133477000Y-79346677D01*
X131366814Y-79236340D01*
X129402229Y-79044974D01*
X127579137Y-78770672D01*
X125893427Y-78411528D01*
X124340989Y-77965633D01*
X122917714Y-77431082D01*
X121619491Y-76805967D01*
X120442212Y-76088381D01*
X119381766Y-75276418D01*
X118434043Y-74368169D01*
X117594934Y-73361728D01*
X116860329Y-72255189D01*
X116409597Y-71427052D01*
X115899247Y-70282528D01*
X115475656Y-69055780D01*
X115135785Y-67732697D01*
X114876598Y-66299168D01*
X114695056Y-64741081D01*
X114588122Y-63044324D01*
X114584418Y-62948636D01*
X114527560Y-61434133D01*
X118618000Y-61434133D01*
X118618000Y-62937485D01*
X118676488Y-64660403D01*
X118852620Y-66262515D01*
X119147393Y-67745769D01*
X119561808Y-69112112D01*
X120096863Y-70363489D01*
X120753558Y-71501848D01*
X121532890Y-72529134D01*
X122435861Y-73447296D01*
X123463467Y-74258279D01*
X124616710Y-74964029D01*
X124854308Y-75088530D01*
X126078255Y-75635522D01*
X127432705Y-76096329D01*
X128900382Y-76467442D01*
X130464012Y-76745353D01*
X132106318Y-76926554D01*
X133810025Y-77007535D01*
X134323666Y-77011767D01*
X134764503Y-77006342D01*
X135082995Y-76986197D01*
X135325945Y-76944493D01*
X135540158Y-76874392D01*
X135678949Y-76813722D01*
X136171779Y-76492477D01*
X136582931Y-76032147D01*
X136907639Y-75444502D01*
X137141140Y-74741313D01*
X137278669Y-73934353D01*
X137315463Y-73035391D01*
X137307974Y-72788788D01*
X137213795Y-71868857D01*
X137018797Y-71084644D01*
X136722750Y-70435645D01*
X136325422Y-69921355D01*
X135826582Y-69541271D01*
X135813180Y-69533692D01*
X135630147Y-69435416D01*
X135463922Y-69364174D01*
X135280417Y-69313871D01*
X135045540Y-69278415D01*
X134725204Y-69251713D01*
X134285318Y-69227674D01*
X134035180Y-69215912D01*
X133549921Y-69190773D01*
X133097853Y-69162290D01*
X132718320Y-69133305D01*
X132450670Y-69106662D01*
X132376333Y-69096041D01*
X131322477Y-68865400D01*
X130405744Y-68560090D01*
X129619856Y-68171884D01*
X128958533Y-67692557D01*
X128415496Y-67113882D01*
X127984465Y-66427634D01*
X127659160Y-65625585D01*
X127433303Y-64699510D01*
X127300613Y-63641182D01*
X127254812Y-62442377D01*
X127254694Y-62386633D01*
X127254000Y-61434133D01*
X131302469Y-61434133D01*
X131331401Y-62685141D01*
X131344114Y-63174006D01*
X131360306Y-63531275D01*
X131386411Y-63794655D01*
X131428863Y-64001859D01*
X131494096Y-64190595D01*
X131588543Y-64398574D01*
X131642598Y-64509116D01*
X131987512Y-65056194D01*
X132430404Y-65480295D01*
X132990853Y-65797551D01*
X133378507Y-65939272D01*
X133611258Y-66005906D01*
X133837093Y-66054930D01*
X134087949Y-66089042D01*
X134395764Y-66110940D01*
X134792478Y-66123323D01*
X135310029Y-66128887D01*
X135636000Y-66129979D01*
X136283780Y-66127796D01*
X136790848Y-66115269D01*
X137185732Y-66087597D01*
X137496961Y-66039980D01*
X137753064Y-65967621D01*
X137982572Y-65865719D01*
X138214012Y-65729474D01*
X138282743Y-65684719D01*
X138584014Y-65418248D01*
X138888575Y-65032121D01*
X139166086Y-64572644D01*
X139386207Y-64086122D01*
X139447492Y-63907036D01*
X139573442Y-63461952D01*
X139675457Y-63008609D01*
X139756382Y-62521074D01*
X139819065Y-61973416D01*
X139866352Y-61339703D01*
X139901088Y-60594001D01*
X139926121Y-59710380D01*
X139930350Y-59507966D01*
X139976167Y-57200800D01*
X143995832Y-57200800D01*
X144041649Y-59507966D01*
D11*
G36*
X146387800Y-146670600D02*
G01*
X143485800Y-146670600D01*
X143485800Y-145568600D01*
X146387800Y-145568600D01*
X146387800Y-146670600D01*
X146387800Y-146670600D01*
G37*
G36*
X140587800Y-146670600D02*
G01*
X137685800Y-146670600D01*
X137685800Y-145568600D01*
X140587800Y-145568600D01*
X140587800Y-146670600D01*
X140587800Y-146670600D01*
G37*
G36*
X146387800Y-142670600D02*
G01*
X143485800Y-142670600D01*
X143485800Y-141568600D01*
X146387800Y-141568600D01*
X146387800Y-142670600D01*
X146387800Y-142670600D01*
G37*
G36*
X140587800Y-142670600D02*
G01*
X137685800Y-142670600D01*
X137685800Y-141568600D01*
X140587800Y-141568600D01*
X140587800Y-142670600D01*
X140587800Y-142670600D01*
G37*
G36*
X150579368Y-22950389D02*
G01*
X150598310Y-22965934D01*
X150619921Y-22977485D01*
X150643370Y-22984598D01*
X150667756Y-22987000D01*
X199891979Y-22987000D01*
X199891979Y-35179000D01*
X188078978Y-35179000D01*
X188054592Y-35181402D01*
X188031143Y-35188515D01*
X188009532Y-35200066D01*
X187990590Y-35215611D01*
X187975045Y-35234553D01*
X187963494Y-35256164D01*
X187956381Y-35279613D01*
X187953979Y-35303999D01*
X187953979Y-35941000D01*
X175507979Y-35941000D01*
X175290590Y-35723611D01*
X175271648Y-35708066D01*
X175250037Y-35696515D01*
X175226588Y-35689402D01*
X175202202Y-35687000D01*
X163621756Y-35687000D01*
X163597370Y-35689402D01*
X163573921Y-35696515D01*
X163552310Y-35708066D01*
X163533368Y-35723611D01*
X162553979Y-36703000D01*
X148329979Y-36703000D01*
X148329979Y-31747999D01*
X148327577Y-31723613D01*
X148320464Y-31700164D01*
X148308913Y-31678553D01*
X148293368Y-31659611D01*
X148274426Y-31644066D01*
X148252815Y-31632515D01*
X148229366Y-31625402D01*
X148204980Y-31623000D01*
X137278978Y-31623000D01*
X137254592Y-31625402D01*
X137231143Y-31632515D01*
X137209532Y-31644066D01*
X137190590Y-31659611D01*
X137175045Y-31678553D01*
X137163494Y-31700164D01*
X137156381Y-31723613D01*
X137153979Y-31747999D01*
X137153979Y-35941000D01*
X124961979Y-35941000D01*
X124236590Y-35215611D01*
X124217648Y-35200066D01*
X124196037Y-35188515D01*
X124172588Y-35181402D01*
X124148202Y-35179000D01*
X113075756Y-35179000D01*
X113051370Y-35181402D01*
X113027921Y-35188515D01*
X113006310Y-35200066D01*
X112987368Y-35215611D01*
X111499979Y-36703000D01*
X101085979Y-36703000D01*
X100360590Y-35977611D01*
X100341648Y-35962066D01*
X100320037Y-35950515D01*
X100296588Y-35943402D01*
X100272202Y-35941000D01*
X86353979Y-35941000D01*
X86353979Y-22733000D01*
X133292202Y-22733000D01*
X133316588Y-22730598D01*
X133340037Y-22723485D01*
X133361648Y-22711934D01*
X133380590Y-22696389D01*
X136391979Y-19685000D01*
X147313979Y-19685000D01*
X150579368Y-22950389D01*
X150579368Y-22950389D01*
G37*
M02*
