M48
; DRILL file {KiCad (5.1.4)-1} date 11/24/2020 3:39:31 PM
; FORMAT={-:-/ absolute / inch / decimal}
; #@! TF.CreationDate,2020-11-24T15:39:31-05:00
; #@! TF.GenerationSoftware,Kicad,Pcbnew,(5.1.4)-1
FMAT,2
INCH
T1C0.0157
%
G90
G05
T1
X3.429Y-2.1216
X3.7509Y-2.1215
X3.9288Y-2.1215
X4.2505Y-2.1215
X4.4284Y-2.1217
X4.7504Y-2.1216
X4.9282Y-2.1215
X5.2501Y-2.1217
X5.4279Y-1.9539
X5.472Y-5.752
X5.477Y-5.595
X5.705Y-5.594
X5.706Y-5.753
X5.7497Y-1.9538
X5.9273Y-2.1215
X6.2496Y-2.1217
X6.4274Y-2.1215
X6.7494Y-2.1215
X6.9272Y-2.1217
X7.249Y-2.1216
X7.427Y-2.1216
X7.7488Y-2.1215
T0
M30
