G04 #@! TF.GenerationSoftware,KiCad,Pcbnew,(5.1.4)-1*
G04 #@! TF.CreationDate,2020-11-24T15:39:13-05:00*
G04 #@! TF.ProjectId,Menorah,4d656e6f-7261-4682-9e6b-696361645f70,rev?*
G04 #@! TF.SameCoordinates,Original*
G04 #@! TF.FileFunction,Legend,Bot*
G04 #@! TF.FilePolarity,Positive*
%FSLAX46Y46*%
G04 Gerber Fmt 4.6, Leading zero omitted, Abs format (unit mm)*
G04 Created by KiCad (PCBNEW (5.1.4)-1) date 2020-11-24 15:39:13*
%MOMM*%
%LPD*%
G04 APERTURE LIST*
%ADD10C,0.120000*%
%ADD11C,0.150000*%
%ADD12C,0.254000*%
G04 APERTURE END LIST*
D10*
X145246800Y-146919600D02*
X145246800Y-147329600D01*
X145246800Y-147329600D02*
X138826800Y-147329600D01*
X138826800Y-147329600D02*
X138826800Y-147049600D01*
X138826800Y-145319600D02*
X138826800Y-142919600D01*
X138826800Y-141319600D02*
X138826800Y-140909600D01*
X138826800Y-140909600D02*
X145246800Y-140909600D01*
X145246800Y-140909600D02*
X145246800Y-141319600D01*
X145246800Y-142919600D02*
X145246800Y-145319600D01*
D11*
X143370133Y-144778361D02*
X143227276Y-144825980D01*
X142989180Y-144825980D01*
X142893942Y-144778361D01*
X142846323Y-144730742D01*
X142798704Y-144635504D01*
X142798704Y-144540266D01*
X142846323Y-144445028D01*
X142893942Y-144397409D01*
X142989180Y-144349790D01*
X143179657Y-144302171D01*
X143274895Y-144254552D01*
X143322514Y-144206933D01*
X143370133Y-144111695D01*
X143370133Y-144016457D01*
X143322514Y-143921219D01*
X143274895Y-143873600D01*
X143179657Y-143825980D01*
X142941561Y-143825980D01*
X142798704Y-143873600D01*
X142465371Y-143825980D02*
X142227276Y-144825980D01*
X142036800Y-144111695D01*
X141846323Y-144825980D01*
X141608228Y-143825980D01*
X140703466Y-144825980D02*
X141274895Y-144825980D01*
X140989180Y-144825980D02*
X140989180Y-143825980D01*
X141084419Y-143968838D01*
X141179657Y-144064076D01*
X141274895Y-144111695D01*
D12*
G36*
X157141086Y-36713583D02*
G01*
X157151795Y-36729649D01*
X157161714Y-36746263D01*
X157170815Y-36763399D01*
X157179073Y-36781031D01*
X157186459Y-36799130D01*
X157192948Y-36817671D01*
X157198512Y-36836626D01*
X157203125Y-36855969D01*
X157206760Y-36875673D01*
X157209389Y-36895711D01*
X157210986Y-36916056D01*
X157211525Y-36936680D01*
X157211525Y-52579300D01*
X157212057Y-52599705D01*
X157213637Y-52619832D01*
X157216238Y-52639656D01*
X157219834Y-52659149D01*
X157224397Y-52678285D01*
X157229901Y-52697037D01*
X157232688Y-52705000D01*
X152068902Y-52705000D01*
X152071688Y-52697037D01*
X152077192Y-52678285D01*
X152081754Y-52659149D01*
X152085349Y-52639656D01*
X152087949Y-52619832D01*
X152089529Y-52599705D01*
X152090062Y-52579300D01*
X152090062Y-36936680D01*
X152090600Y-36916056D01*
X152092197Y-36895711D01*
X152094826Y-36875673D01*
X152098461Y-36855969D01*
X152103074Y-36836626D01*
X152108638Y-36817671D01*
X152115127Y-36799130D01*
X152122514Y-36781031D01*
X152130772Y-36763399D01*
X152139874Y-36746263D01*
X152149793Y-36729649D01*
X152160503Y-36713583D01*
X152168342Y-36703000D01*
X157133247Y-36703000D01*
X157141086Y-36713583D01*
X157141086Y-36713583D01*
G37*
X157141086Y-36713583D02*
X157151795Y-36729649D01*
X157161714Y-36746263D01*
X157170815Y-36763399D01*
X157179073Y-36781031D01*
X157186459Y-36799130D01*
X157192948Y-36817671D01*
X157198512Y-36836626D01*
X157203125Y-36855969D01*
X157206760Y-36875673D01*
X157209389Y-36895711D01*
X157210986Y-36916056D01*
X157211525Y-36936680D01*
X157211525Y-52579300D01*
X157212057Y-52599705D01*
X157213637Y-52619832D01*
X157216238Y-52639656D01*
X157219834Y-52659149D01*
X157224397Y-52678285D01*
X157229901Y-52697037D01*
X157232688Y-52705000D01*
X152068902Y-52705000D01*
X152071688Y-52697037D01*
X152077192Y-52678285D01*
X152081754Y-52659149D01*
X152085349Y-52639656D01*
X152087949Y-52619832D01*
X152089529Y-52599705D01*
X152090062Y-52579300D01*
X152090062Y-36936680D01*
X152090600Y-36916056D01*
X152092197Y-36895711D01*
X152094826Y-36875673D01*
X152098461Y-36855969D01*
X152103074Y-36836626D01*
X152108638Y-36817671D01*
X152115127Y-36799130D01*
X152122514Y-36781031D01*
X152130772Y-36763399D01*
X152139874Y-36746263D01*
X152149793Y-36729649D01*
X152160503Y-36713583D01*
X152168342Y-36703000D01*
X157133247Y-36703000D01*
X157141086Y-36713583D01*
G36*
X169834317Y-35698126D02*
G01*
X169845026Y-35714192D01*
X169854945Y-35730806D01*
X169864047Y-35747942D01*
X169872304Y-35765574D01*
X169879691Y-35783673D01*
X169886180Y-35802214D01*
X169891744Y-35821169D01*
X169896357Y-35840512D01*
X169899992Y-35860216D01*
X169902621Y-35880254D01*
X169904218Y-35900599D01*
X169904757Y-35921223D01*
X169904757Y-52579300D01*
X169905289Y-52599705D01*
X169906869Y-52619832D01*
X169909470Y-52639656D01*
X169913066Y-52659149D01*
X169917629Y-52678285D01*
X169923133Y-52697037D01*
X169925920Y-52705000D01*
X164762131Y-52705000D01*
X164764917Y-52697037D01*
X164770421Y-52678285D01*
X164774983Y-52659149D01*
X164778578Y-52639656D01*
X164781178Y-52619832D01*
X164782758Y-52599705D01*
X164783291Y-52579300D01*
X164783291Y-35921223D01*
X164783829Y-35900599D01*
X164785426Y-35880254D01*
X164788055Y-35860216D01*
X164791690Y-35840512D01*
X164796303Y-35821169D01*
X164801867Y-35802214D01*
X164808356Y-35783673D01*
X164815743Y-35765574D01*
X164824001Y-35747942D01*
X164833103Y-35730806D01*
X164843022Y-35714192D01*
X164853732Y-35698126D01*
X164861973Y-35687000D01*
X169826076Y-35687000D01*
X169834317Y-35698126D01*
X169834317Y-35698126D01*
G37*
X169834317Y-35698126D02*
X169845026Y-35714192D01*
X169854945Y-35730806D01*
X169864047Y-35747942D01*
X169872304Y-35765574D01*
X169879691Y-35783673D01*
X169886180Y-35802214D01*
X169891744Y-35821169D01*
X169896357Y-35840512D01*
X169899992Y-35860216D01*
X169902621Y-35880254D01*
X169904218Y-35900599D01*
X169904757Y-35921223D01*
X169904757Y-52579300D01*
X169905289Y-52599705D01*
X169906869Y-52619832D01*
X169909470Y-52639656D01*
X169913066Y-52659149D01*
X169917629Y-52678285D01*
X169923133Y-52697037D01*
X169925920Y-52705000D01*
X164762131Y-52705000D01*
X164764917Y-52697037D01*
X164770421Y-52678285D01*
X164774983Y-52659149D01*
X164778578Y-52639656D01*
X164781178Y-52619832D01*
X164782758Y-52599705D01*
X164783291Y-52579300D01*
X164783291Y-35921223D01*
X164783829Y-35900599D01*
X164785426Y-35880254D01*
X164788055Y-35860216D01*
X164791690Y-35840512D01*
X164796303Y-35821169D01*
X164801867Y-35802214D01*
X164808356Y-35783673D01*
X164815743Y-35765574D01*
X164824001Y-35747942D01*
X164833103Y-35730806D01*
X164843022Y-35714192D01*
X164853732Y-35698126D01*
X164861973Y-35687000D01*
X169826076Y-35687000D01*
X169834317Y-35698126D01*
G36*
X182527316Y-35951990D02*
G01*
X182538025Y-35968056D01*
X182547944Y-35984670D01*
X182557046Y-36001806D01*
X182565303Y-36019438D01*
X182572690Y-36037537D01*
X182579179Y-36056078D01*
X182584743Y-36075033D01*
X182589356Y-36094376D01*
X182592991Y-36114080D01*
X182595620Y-36134118D01*
X182597217Y-36154463D01*
X182597756Y-36175087D01*
X182597756Y-52579300D01*
X182598288Y-52599705D01*
X182599868Y-52619832D01*
X182602469Y-52639656D01*
X182606065Y-52659149D01*
X182610628Y-52678285D01*
X182616132Y-52697037D01*
X182618919Y-52705000D01*
X177455163Y-52705000D01*
X177457950Y-52697037D01*
X177463454Y-52678285D01*
X177468017Y-52659149D01*
X177471613Y-52639656D01*
X177474214Y-52619832D01*
X177475794Y-52599705D01*
X177476327Y-52579300D01*
X177476327Y-36175087D01*
X177476865Y-36154463D01*
X177478462Y-36134118D01*
X177481091Y-36114080D01*
X177484726Y-36094376D01*
X177489339Y-36075033D01*
X177494903Y-36056078D01*
X177501392Y-36037537D01*
X177508779Y-36019438D01*
X177517036Y-36001806D01*
X177526138Y-35984670D01*
X177536057Y-35968056D01*
X177546766Y-35951990D01*
X177554906Y-35941000D01*
X182519176Y-35941000D01*
X182527316Y-35951990D01*
X182527316Y-35951990D01*
G37*
X182527316Y-35951990D02*
X182538025Y-35968056D01*
X182547944Y-35984670D01*
X182557046Y-36001806D01*
X182565303Y-36019438D01*
X182572690Y-36037537D01*
X182579179Y-36056078D01*
X182584743Y-36075033D01*
X182589356Y-36094376D01*
X182592991Y-36114080D01*
X182595620Y-36134118D01*
X182597217Y-36154463D01*
X182597756Y-36175087D01*
X182597756Y-52579300D01*
X182598288Y-52599705D01*
X182599868Y-52619832D01*
X182602469Y-52639656D01*
X182606065Y-52659149D01*
X182610628Y-52678285D01*
X182616132Y-52697037D01*
X182618919Y-52705000D01*
X177455163Y-52705000D01*
X177457950Y-52697037D01*
X177463454Y-52678285D01*
X177468017Y-52659149D01*
X177471613Y-52639656D01*
X177474214Y-52619832D01*
X177475794Y-52599705D01*
X177476327Y-52579300D01*
X177476327Y-36175087D01*
X177476865Y-36154463D01*
X177478462Y-36134118D01*
X177481091Y-36114080D01*
X177484726Y-36094376D01*
X177489339Y-36075033D01*
X177494903Y-36056078D01*
X177501392Y-36037537D01*
X177508779Y-36019438D01*
X177517036Y-36001806D01*
X177526138Y-35984670D01*
X177536057Y-35968056D01*
X177546766Y-35951990D01*
X177554906Y-35941000D01*
X182519176Y-35941000D01*
X182527316Y-35951990D01*
G36*
X195220770Y-35190398D02*
G01*
X195231479Y-35206464D01*
X195241398Y-35223078D01*
X195250500Y-35240214D01*
X195258757Y-35257846D01*
X195266144Y-35275945D01*
X195272633Y-35294486D01*
X195278197Y-35313441D01*
X195282810Y-35332784D01*
X195286445Y-35352488D01*
X195289074Y-35372526D01*
X195290671Y-35392871D01*
X195291210Y-35413495D01*
X195291210Y-52579301D01*
X195291742Y-52599706D01*
X195293322Y-52619833D01*
X195295923Y-52639657D01*
X195299519Y-52659150D01*
X195304082Y-52678286D01*
X195309586Y-52697038D01*
X195312372Y-52705000D01*
X190148553Y-52705000D01*
X190151339Y-52697037D01*
X190156843Y-52678285D01*
X190161405Y-52659149D01*
X190165000Y-52639656D01*
X190167600Y-52619832D01*
X190169180Y-52599705D01*
X190169713Y-52579300D01*
X190169713Y-35413495D01*
X190170251Y-35392871D01*
X190171848Y-35372526D01*
X190174477Y-35352488D01*
X190178112Y-35332784D01*
X190182725Y-35313441D01*
X190188289Y-35294486D01*
X190194778Y-35275945D01*
X190202165Y-35257846D01*
X190210423Y-35240214D01*
X190219525Y-35223078D01*
X190229444Y-35206464D01*
X190240154Y-35190398D01*
X190248596Y-35179000D01*
X195212328Y-35179000D01*
X195220770Y-35190398D01*
X195220770Y-35190398D01*
G37*
X195220770Y-35190398D02*
X195231479Y-35206464D01*
X195241398Y-35223078D01*
X195250500Y-35240214D01*
X195258757Y-35257846D01*
X195266144Y-35275945D01*
X195272633Y-35294486D01*
X195278197Y-35313441D01*
X195282810Y-35332784D01*
X195286445Y-35352488D01*
X195289074Y-35372526D01*
X195290671Y-35392871D01*
X195291210Y-35413495D01*
X195291210Y-52579301D01*
X195291742Y-52599706D01*
X195293322Y-52619833D01*
X195295923Y-52639657D01*
X195299519Y-52659150D01*
X195304082Y-52678286D01*
X195309586Y-52697038D01*
X195312372Y-52705000D01*
X190148553Y-52705000D01*
X190151339Y-52697037D01*
X190156843Y-52678285D01*
X190161405Y-52659149D01*
X190165000Y-52639656D01*
X190167600Y-52619832D01*
X190169180Y-52599705D01*
X190169713Y-52579300D01*
X190169713Y-35413495D01*
X190170251Y-35392871D01*
X190171848Y-35372526D01*
X190174477Y-35352488D01*
X190178112Y-35332784D01*
X190182725Y-35313441D01*
X190188289Y-35294486D01*
X190194778Y-35275945D01*
X190202165Y-35257846D01*
X190210423Y-35240214D01*
X190219525Y-35223078D01*
X190229444Y-35206464D01*
X190240154Y-35190398D01*
X190248596Y-35179000D01*
X195212328Y-35179000D01*
X195220770Y-35190398D01*
G36*
X93674644Y-35951990D02*
G01*
X93685354Y-35968056D01*
X93695273Y-35984670D01*
X93704375Y-36001806D01*
X93712633Y-36019438D01*
X93720020Y-36037537D01*
X93726509Y-36056078D01*
X93732073Y-36075033D01*
X93736686Y-36094376D01*
X93740321Y-36114080D01*
X93742950Y-36134118D01*
X93744547Y-36154463D01*
X93745085Y-36175087D01*
X93745085Y-52579300D01*
X93745618Y-52599705D01*
X93747198Y-52619832D01*
X93749798Y-52639656D01*
X93753393Y-52659149D01*
X93757955Y-52678285D01*
X93763459Y-52697037D01*
X93766245Y-52705000D01*
X88602457Y-52705000D01*
X88605244Y-52697037D01*
X88610748Y-52678285D01*
X88615311Y-52659149D01*
X88618907Y-52639656D01*
X88621508Y-52619832D01*
X88623088Y-52599705D01*
X88623620Y-52579300D01*
X88623620Y-36175087D01*
X88624159Y-36154463D01*
X88625756Y-36134118D01*
X88628385Y-36114080D01*
X88632020Y-36094376D01*
X88636633Y-36075033D01*
X88642197Y-36056078D01*
X88648686Y-36037537D01*
X88656073Y-36019438D01*
X88664330Y-36001806D01*
X88673432Y-35984670D01*
X88683351Y-35968056D01*
X88694060Y-35951990D01*
X88702200Y-35941000D01*
X93666504Y-35941000D01*
X93674644Y-35951990D01*
X93674644Y-35951990D01*
G37*
X93674644Y-35951990D02*
X93685354Y-35968056D01*
X93695273Y-35984670D01*
X93704375Y-36001806D01*
X93712633Y-36019438D01*
X93720020Y-36037537D01*
X93726509Y-36056078D01*
X93732073Y-36075033D01*
X93736686Y-36094376D01*
X93740321Y-36114080D01*
X93742950Y-36134118D01*
X93744547Y-36154463D01*
X93745085Y-36175087D01*
X93745085Y-52579300D01*
X93745618Y-52599705D01*
X93747198Y-52619832D01*
X93749798Y-52639656D01*
X93753393Y-52659149D01*
X93757955Y-52678285D01*
X93763459Y-52697037D01*
X93766245Y-52705000D01*
X88602457Y-52705000D01*
X88605244Y-52697037D01*
X88610748Y-52678285D01*
X88615311Y-52659149D01*
X88618907Y-52639656D01*
X88621508Y-52619832D01*
X88623088Y-52599705D01*
X88623620Y-52579300D01*
X88623620Y-36175087D01*
X88624159Y-36154463D01*
X88625756Y-36134118D01*
X88628385Y-36114080D01*
X88632020Y-36094376D01*
X88636633Y-36075033D01*
X88642197Y-36056078D01*
X88648686Y-36037537D01*
X88656073Y-36019438D01*
X88664330Y-36001806D01*
X88673432Y-35984670D01*
X88683351Y-35968056D01*
X88694060Y-35951990D01*
X88702200Y-35941000D01*
X93666504Y-35941000D01*
X93674644Y-35951990D01*
G36*
X106368033Y-36713583D02*
G01*
X106378742Y-36729649D01*
X106388661Y-36746263D01*
X106397763Y-36763399D01*
X106406020Y-36781031D01*
X106413407Y-36799130D01*
X106419896Y-36817671D01*
X106425460Y-36836626D01*
X106430073Y-36855969D01*
X106433708Y-36875673D01*
X106436337Y-36895711D01*
X106437934Y-36916056D01*
X106438473Y-36936680D01*
X106438473Y-52579300D01*
X106439005Y-52599705D01*
X106440585Y-52619832D01*
X106443186Y-52639656D01*
X106446782Y-52659149D01*
X106451345Y-52678285D01*
X106456849Y-52697037D01*
X106459636Y-52705000D01*
X101295881Y-52705000D01*
X101298668Y-52697037D01*
X101304172Y-52678285D01*
X101308735Y-52659149D01*
X101312331Y-52639656D01*
X101314932Y-52619832D01*
X101316512Y-52599705D01*
X101317045Y-52579300D01*
X101317045Y-36936680D01*
X101317583Y-36916056D01*
X101319180Y-36895711D01*
X101321809Y-36875673D01*
X101325444Y-36855969D01*
X101330057Y-36836626D01*
X101335621Y-36817671D01*
X101342110Y-36799130D01*
X101349497Y-36781031D01*
X101357754Y-36763399D01*
X101366856Y-36746263D01*
X101376775Y-36729649D01*
X101387484Y-36713583D01*
X101395323Y-36703000D01*
X106360194Y-36703000D01*
X106368033Y-36713583D01*
X106368033Y-36713583D01*
G37*
X106368033Y-36713583D02*
X106378742Y-36729649D01*
X106388661Y-36746263D01*
X106397763Y-36763399D01*
X106406020Y-36781031D01*
X106413407Y-36799130D01*
X106419896Y-36817671D01*
X106425460Y-36836626D01*
X106430073Y-36855969D01*
X106433708Y-36875673D01*
X106436337Y-36895711D01*
X106437934Y-36916056D01*
X106438473Y-36936680D01*
X106438473Y-52579300D01*
X106439005Y-52599705D01*
X106440585Y-52619832D01*
X106443186Y-52639656D01*
X106446782Y-52659149D01*
X106451345Y-52678285D01*
X106456849Y-52697037D01*
X106459636Y-52705000D01*
X101295881Y-52705000D01*
X101298668Y-52697037D01*
X101304172Y-52678285D01*
X101308735Y-52659149D01*
X101312331Y-52639656D01*
X101314932Y-52619832D01*
X101316512Y-52599705D01*
X101317045Y-52579300D01*
X101317045Y-36936680D01*
X101317583Y-36916056D01*
X101319180Y-36895711D01*
X101321809Y-36875673D01*
X101325444Y-36855969D01*
X101330057Y-36836626D01*
X101335621Y-36817671D01*
X101342110Y-36799130D01*
X101349497Y-36781031D01*
X101357754Y-36763399D01*
X101366856Y-36746263D01*
X101376775Y-36729649D01*
X101387484Y-36713583D01*
X101395323Y-36703000D01*
X106360194Y-36703000D01*
X106368033Y-36713583D01*
G36*
X119061066Y-35190398D02*
G01*
X119071776Y-35206464D01*
X119081695Y-35223078D01*
X119090797Y-35240214D01*
X119099055Y-35257846D01*
X119106442Y-35275945D01*
X119112931Y-35294486D01*
X119118495Y-35313441D01*
X119123108Y-35332784D01*
X119126743Y-35352488D01*
X119129372Y-35372526D01*
X119130969Y-35392871D01*
X119131508Y-35413495D01*
X119131508Y-52579300D01*
X119132040Y-52599705D01*
X119133620Y-52619832D01*
X119136220Y-52639656D01*
X119139815Y-52659149D01*
X119144378Y-52678285D01*
X119149881Y-52697037D01*
X119152667Y-52705000D01*
X113988880Y-52705000D01*
X113991667Y-52697037D01*
X113997171Y-52678285D01*
X114001734Y-52659149D01*
X114005330Y-52639656D01*
X114007931Y-52619832D01*
X114009511Y-52599705D01*
X114010044Y-52579300D01*
X114010044Y-35413495D01*
X114010582Y-35392871D01*
X114012179Y-35372526D01*
X114014808Y-35352488D01*
X114018443Y-35332784D01*
X114023056Y-35313441D01*
X114028620Y-35294486D01*
X114035109Y-35275945D01*
X114042496Y-35257846D01*
X114050753Y-35240214D01*
X114059855Y-35223078D01*
X114069774Y-35206464D01*
X114080483Y-35190398D01*
X114088925Y-35179000D01*
X119052624Y-35179000D01*
X119061066Y-35190398D01*
X119061066Y-35190398D01*
G37*
X119061066Y-35190398D02*
X119071776Y-35206464D01*
X119081695Y-35223078D01*
X119090797Y-35240214D01*
X119099055Y-35257846D01*
X119106442Y-35275945D01*
X119112931Y-35294486D01*
X119118495Y-35313441D01*
X119123108Y-35332784D01*
X119126743Y-35352488D01*
X119129372Y-35372526D01*
X119130969Y-35392871D01*
X119131508Y-35413495D01*
X119131508Y-52579300D01*
X119132040Y-52599705D01*
X119133620Y-52619832D01*
X119136220Y-52639656D01*
X119139815Y-52659149D01*
X119144378Y-52678285D01*
X119149881Y-52697037D01*
X119152667Y-52705000D01*
X113988880Y-52705000D01*
X113991667Y-52697037D01*
X113997171Y-52678285D01*
X114001734Y-52659149D01*
X114005330Y-52639656D01*
X114007931Y-52619832D01*
X114009511Y-52599705D01*
X114010044Y-52579300D01*
X114010044Y-35413495D01*
X114010582Y-35392871D01*
X114012179Y-35372526D01*
X114014808Y-35352488D01*
X114018443Y-35332784D01*
X114023056Y-35313441D01*
X114028620Y-35294486D01*
X114035109Y-35275945D01*
X114042496Y-35257846D01*
X114050753Y-35240214D01*
X114059855Y-35223078D01*
X114069774Y-35206464D01*
X114080483Y-35190398D01*
X114088925Y-35179000D01*
X119052624Y-35179000D01*
X119061066Y-35190398D01*
G36*
X131754275Y-35951990D02*
G01*
X131764985Y-35968056D01*
X131774904Y-35984670D01*
X131784006Y-36001806D01*
X131792264Y-36019438D01*
X131799651Y-36037537D01*
X131806140Y-36056078D01*
X131811704Y-36075033D01*
X131816317Y-36094376D01*
X131819952Y-36114080D01*
X131822581Y-36134118D01*
X131824178Y-36154463D01*
X131824717Y-36175087D01*
X131824717Y-52579300D01*
X131825249Y-52599705D01*
X131826829Y-52619832D01*
X131829429Y-52639656D01*
X131833024Y-52659149D01*
X131837587Y-52678285D01*
X131843090Y-52697037D01*
X131845876Y-52705000D01*
X126682090Y-52705000D01*
X126684877Y-52697037D01*
X126690381Y-52678285D01*
X126694944Y-52659149D01*
X126698540Y-52639656D01*
X126701141Y-52619832D01*
X126702721Y-52599705D01*
X126703254Y-52579300D01*
X126703254Y-36175087D01*
X126703792Y-36154463D01*
X126705389Y-36134118D01*
X126708018Y-36114080D01*
X126711653Y-36094376D01*
X126716266Y-36075033D01*
X126721830Y-36056078D01*
X126728319Y-36037537D01*
X126735706Y-36019438D01*
X126743963Y-36001806D01*
X126753065Y-35984670D01*
X126762984Y-35968056D01*
X126773693Y-35951990D01*
X126781833Y-35941000D01*
X131746134Y-35941000D01*
X131754275Y-35951990D01*
X131754275Y-35951990D01*
G37*
X131754275Y-35951990D02*
X131764985Y-35968056D01*
X131774904Y-35984670D01*
X131784006Y-36001806D01*
X131792264Y-36019438D01*
X131799651Y-36037537D01*
X131806140Y-36056078D01*
X131811704Y-36075033D01*
X131816317Y-36094376D01*
X131819952Y-36114080D01*
X131822581Y-36134118D01*
X131824178Y-36154463D01*
X131824717Y-36175087D01*
X131824717Y-52579300D01*
X131825249Y-52599705D01*
X131826829Y-52619832D01*
X131829429Y-52639656D01*
X131833024Y-52659149D01*
X131837587Y-52678285D01*
X131843090Y-52697037D01*
X131845876Y-52705000D01*
X126682090Y-52705000D01*
X126684877Y-52697037D01*
X126690381Y-52678285D01*
X126694944Y-52659149D01*
X126698540Y-52639656D01*
X126701141Y-52619832D01*
X126702721Y-52599705D01*
X126703254Y-52579300D01*
X126703254Y-36175087D01*
X126703792Y-36154463D01*
X126705389Y-36134118D01*
X126708018Y-36114080D01*
X126711653Y-36094376D01*
X126716266Y-36075033D01*
X126721830Y-36056078D01*
X126728319Y-36037537D01*
X126735706Y-36019438D01*
X126743963Y-36001806D01*
X126753065Y-35984670D01*
X126762984Y-35968056D01*
X126773693Y-35951990D01*
X126781833Y-35941000D01*
X131746134Y-35941000D01*
X131754275Y-35951990D01*
G36*
X144397458Y-31634016D02*
G01*
X144411061Y-31647618D01*
X144423980Y-31661876D01*
X144436189Y-31676764D01*
X144447662Y-31692254D01*
X144458371Y-31708320D01*
X144468290Y-31724934D01*
X144477392Y-31742070D01*
X144485649Y-31759702D01*
X144493036Y-31777801D01*
X144499525Y-31796342D01*
X144505089Y-31815297D01*
X144509702Y-31834640D01*
X144513337Y-31854344D01*
X144515966Y-31874382D01*
X144517563Y-31894727D01*
X144518102Y-31915351D01*
X144518102Y-48319600D01*
X144518634Y-48340005D01*
X144520214Y-48360132D01*
X144522815Y-48379955D01*
X144524115Y-48387000D01*
X139390660Y-48387000D01*
X139391960Y-48379955D01*
X139394561Y-48360132D01*
X139396141Y-48340005D01*
X139396674Y-48319600D01*
X139396674Y-31915351D01*
X139397212Y-31894727D01*
X139398809Y-31874382D01*
X139401438Y-31854344D01*
X139405073Y-31834640D01*
X139409686Y-31815297D01*
X139415250Y-31796342D01*
X139421739Y-31777801D01*
X139429126Y-31759702D01*
X139437383Y-31742070D01*
X139446485Y-31724934D01*
X139456404Y-31708320D01*
X139467113Y-31692254D01*
X139478586Y-31676764D01*
X139490795Y-31661876D01*
X139503714Y-31647618D01*
X139517317Y-31634016D01*
X139529474Y-31623000D01*
X144385301Y-31623000D01*
X144397458Y-31634016D01*
X144397458Y-31634016D01*
G37*
X144397458Y-31634016D02*
X144411061Y-31647618D01*
X144423980Y-31661876D01*
X144436189Y-31676764D01*
X144447662Y-31692254D01*
X144458371Y-31708320D01*
X144468290Y-31724934D01*
X144477392Y-31742070D01*
X144485649Y-31759702D01*
X144493036Y-31777801D01*
X144499525Y-31796342D01*
X144505089Y-31815297D01*
X144509702Y-31834640D01*
X144513337Y-31854344D01*
X144515966Y-31874382D01*
X144517563Y-31894727D01*
X144518102Y-31915351D01*
X144518102Y-48319600D01*
X144518634Y-48340005D01*
X144520214Y-48360132D01*
X144522815Y-48379955D01*
X144524115Y-48387000D01*
X139390660Y-48387000D01*
X139391960Y-48379955D01*
X139394561Y-48360132D01*
X139396141Y-48340005D01*
X139396674Y-48319600D01*
X139396674Y-31915351D01*
X139397212Y-31894727D01*
X139398809Y-31874382D01*
X139401438Y-31854344D01*
X139405073Y-31834640D01*
X139409686Y-31815297D01*
X139415250Y-31796342D01*
X139421739Y-31777801D01*
X139429126Y-31759702D01*
X139437383Y-31742070D01*
X139446485Y-31724934D01*
X139456404Y-31708320D01*
X139467113Y-31692254D01*
X139478586Y-31676764D01*
X139490795Y-31661876D01*
X139503714Y-31647618D01*
X139517317Y-31634016D01*
X139529474Y-31623000D01*
X144385301Y-31623000D01*
X144397458Y-31634016D01*
M02*
