G04 #@! TF.GenerationSoftware,KiCad,Pcbnew,(5.1.4)-1*
G04 #@! TF.CreationDate,2020-11-24T15:39:13-05:00*
G04 #@! TF.ProjectId,Menorah,4d656e6f-7261-4682-9e6b-696361645f70,rev?*
G04 #@! TF.SameCoordinates,Original*
G04 #@! TF.FileFunction,Paste,Top*
G04 #@! TF.FilePolarity,Positive*
%FSLAX46Y46*%
G04 Gerber Fmt 4.6, Leading zero omitted, Abs format (unit mm)*
G04 Created by KiCad (PCBNEW (5.1.4)-1) date 2020-11-24 15:39:13*
%MOMM*%
%LPD*%
G04 APERTURE LIST*
%ADD10C,0.100000*%
%ADD11C,0.975000*%
%ADD12R,1.000000X3.150000*%
%ADD13R,1.600000X1.600000*%
%ADD14R,1.100000X1.100000*%
%ADD15C,1.250000*%
%ADD16R,3.000000X0.650000*%
G04 APERTURE END LIST*
D10*
G36*
X140938439Y-84603936D02*
G01*
X140962100Y-84607446D01*
X140985304Y-84613258D01*
X141007826Y-84621316D01*
X141029450Y-84631544D01*
X141049967Y-84643841D01*
X141069180Y-84658091D01*
X141086904Y-84674155D01*
X141431619Y-85018870D01*
X141447683Y-85036594D01*
X141461933Y-85055807D01*
X141474230Y-85076324D01*
X141484458Y-85097948D01*
X141492516Y-85120470D01*
X141498328Y-85143674D01*
X141501838Y-85167335D01*
X141503012Y-85191227D01*
X141501838Y-85215119D01*
X141498328Y-85238780D01*
X141492516Y-85261984D01*
X141484458Y-85284506D01*
X141474230Y-85306130D01*
X141461933Y-85326647D01*
X141447683Y-85345860D01*
X141431619Y-85363584D01*
X140786384Y-86008819D01*
X140768660Y-86024883D01*
X140749447Y-86039133D01*
X140728930Y-86051430D01*
X140707306Y-86061658D01*
X140684784Y-86069716D01*
X140661580Y-86075528D01*
X140637919Y-86079038D01*
X140614027Y-86080212D01*
X140590135Y-86079038D01*
X140566474Y-86075528D01*
X140543270Y-86069716D01*
X140520748Y-86061658D01*
X140499124Y-86051430D01*
X140478607Y-86039133D01*
X140459394Y-86024883D01*
X140441670Y-86008819D01*
X140096955Y-85664104D01*
X140080891Y-85646380D01*
X140066641Y-85627167D01*
X140054344Y-85606650D01*
X140044116Y-85585026D01*
X140036058Y-85562504D01*
X140030246Y-85539300D01*
X140026736Y-85515639D01*
X140025562Y-85491747D01*
X140026736Y-85467855D01*
X140030246Y-85444194D01*
X140036058Y-85420990D01*
X140044116Y-85398468D01*
X140054344Y-85376844D01*
X140066641Y-85356327D01*
X140080891Y-85337114D01*
X140096955Y-85319390D01*
X140742190Y-84674155D01*
X140759914Y-84658091D01*
X140779127Y-84643841D01*
X140799644Y-84631544D01*
X140821268Y-84621316D01*
X140843790Y-84613258D01*
X140866994Y-84607446D01*
X140890655Y-84603936D01*
X140914547Y-84602762D01*
X140938439Y-84603936D01*
X140938439Y-84603936D01*
G37*
D11*
X140764287Y-85341487D03*
D10*
G36*
X142264265Y-85929762D02*
G01*
X142287926Y-85933272D01*
X142311130Y-85939084D01*
X142333652Y-85947142D01*
X142355276Y-85957370D01*
X142375793Y-85969667D01*
X142395006Y-85983917D01*
X142412730Y-85999981D01*
X142757445Y-86344696D01*
X142773509Y-86362420D01*
X142787759Y-86381633D01*
X142800056Y-86402150D01*
X142810284Y-86423774D01*
X142818342Y-86446296D01*
X142824154Y-86469500D01*
X142827664Y-86493161D01*
X142828838Y-86517053D01*
X142827664Y-86540945D01*
X142824154Y-86564606D01*
X142818342Y-86587810D01*
X142810284Y-86610332D01*
X142800056Y-86631956D01*
X142787759Y-86652473D01*
X142773509Y-86671686D01*
X142757445Y-86689410D01*
X142112210Y-87334645D01*
X142094486Y-87350709D01*
X142075273Y-87364959D01*
X142054756Y-87377256D01*
X142033132Y-87387484D01*
X142010610Y-87395542D01*
X141987406Y-87401354D01*
X141963745Y-87404864D01*
X141939853Y-87406038D01*
X141915961Y-87404864D01*
X141892300Y-87401354D01*
X141869096Y-87395542D01*
X141846574Y-87387484D01*
X141824950Y-87377256D01*
X141804433Y-87364959D01*
X141785220Y-87350709D01*
X141767496Y-87334645D01*
X141422781Y-86989930D01*
X141406717Y-86972206D01*
X141392467Y-86952993D01*
X141380170Y-86932476D01*
X141369942Y-86910852D01*
X141361884Y-86888330D01*
X141356072Y-86865126D01*
X141352562Y-86841465D01*
X141351388Y-86817573D01*
X141352562Y-86793681D01*
X141356072Y-86770020D01*
X141361884Y-86746816D01*
X141369942Y-86724294D01*
X141380170Y-86702670D01*
X141392467Y-86682153D01*
X141406717Y-86662940D01*
X141422781Y-86645216D01*
X142068016Y-85999981D01*
X142085740Y-85983917D01*
X142104953Y-85969667D01*
X142125470Y-85957370D01*
X142147094Y-85947142D01*
X142169616Y-85939084D01*
X142192820Y-85933272D01*
X142216481Y-85929762D01*
X142240373Y-85928588D01*
X142264265Y-85929762D01*
X142264265Y-85929762D01*
G37*
D11*
X142090113Y-86667313D03*
D10*
G36*
X146696342Y-88709174D02*
G01*
X146720003Y-88712684D01*
X146743207Y-88718496D01*
X146765729Y-88726554D01*
X146787353Y-88736782D01*
X146807870Y-88749079D01*
X146827083Y-88763329D01*
X146844807Y-88779393D01*
X146860871Y-88797117D01*
X146875121Y-88816330D01*
X146887418Y-88836847D01*
X146897646Y-88858471D01*
X146905704Y-88880993D01*
X146911516Y-88904197D01*
X146915026Y-88927858D01*
X146916200Y-88951750D01*
X146916200Y-89864250D01*
X146915026Y-89888142D01*
X146911516Y-89911803D01*
X146905704Y-89935007D01*
X146897646Y-89957529D01*
X146887418Y-89979153D01*
X146875121Y-89999670D01*
X146860871Y-90018883D01*
X146844807Y-90036607D01*
X146827083Y-90052671D01*
X146807870Y-90066921D01*
X146787353Y-90079218D01*
X146765729Y-90089446D01*
X146743207Y-90097504D01*
X146720003Y-90103316D01*
X146696342Y-90106826D01*
X146672450Y-90108000D01*
X146184950Y-90108000D01*
X146161058Y-90106826D01*
X146137397Y-90103316D01*
X146114193Y-90097504D01*
X146091671Y-90089446D01*
X146070047Y-90079218D01*
X146049530Y-90066921D01*
X146030317Y-90052671D01*
X146012593Y-90036607D01*
X145996529Y-90018883D01*
X145982279Y-89999670D01*
X145969982Y-89979153D01*
X145959754Y-89957529D01*
X145951696Y-89935007D01*
X145945884Y-89911803D01*
X145942374Y-89888142D01*
X145941200Y-89864250D01*
X145941200Y-88951750D01*
X145942374Y-88927858D01*
X145945884Y-88904197D01*
X145951696Y-88880993D01*
X145959754Y-88858471D01*
X145969982Y-88836847D01*
X145982279Y-88816330D01*
X145996529Y-88797117D01*
X146012593Y-88779393D01*
X146030317Y-88763329D01*
X146049530Y-88749079D01*
X146070047Y-88736782D01*
X146091671Y-88726554D01*
X146114193Y-88718496D01*
X146137397Y-88712684D01*
X146161058Y-88709174D01*
X146184950Y-88708000D01*
X146672450Y-88708000D01*
X146696342Y-88709174D01*
X146696342Y-88709174D01*
G37*
D11*
X146428700Y-89408000D03*
D10*
G36*
X144821342Y-88709174D02*
G01*
X144845003Y-88712684D01*
X144868207Y-88718496D01*
X144890729Y-88726554D01*
X144912353Y-88736782D01*
X144932870Y-88749079D01*
X144952083Y-88763329D01*
X144969807Y-88779393D01*
X144985871Y-88797117D01*
X145000121Y-88816330D01*
X145012418Y-88836847D01*
X145022646Y-88858471D01*
X145030704Y-88880993D01*
X145036516Y-88904197D01*
X145040026Y-88927858D01*
X145041200Y-88951750D01*
X145041200Y-89864250D01*
X145040026Y-89888142D01*
X145036516Y-89911803D01*
X145030704Y-89935007D01*
X145022646Y-89957529D01*
X145012418Y-89979153D01*
X145000121Y-89999670D01*
X144985871Y-90018883D01*
X144969807Y-90036607D01*
X144952083Y-90052671D01*
X144932870Y-90066921D01*
X144912353Y-90079218D01*
X144890729Y-90089446D01*
X144868207Y-90097504D01*
X144845003Y-90103316D01*
X144821342Y-90106826D01*
X144797450Y-90108000D01*
X144309950Y-90108000D01*
X144286058Y-90106826D01*
X144262397Y-90103316D01*
X144239193Y-90097504D01*
X144216671Y-90089446D01*
X144195047Y-90079218D01*
X144174530Y-90066921D01*
X144155317Y-90052671D01*
X144137593Y-90036607D01*
X144121529Y-90018883D01*
X144107279Y-89999670D01*
X144094982Y-89979153D01*
X144084754Y-89957529D01*
X144076696Y-89935007D01*
X144070884Y-89911803D01*
X144067374Y-89888142D01*
X144066200Y-89864250D01*
X144066200Y-88951750D01*
X144067374Y-88927858D01*
X144070884Y-88904197D01*
X144076696Y-88880993D01*
X144084754Y-88858471D01*
X144094982Y-88836847D01*
X144107279Y-88816330D01*
X144121529Y-88797117D01*
X144137593Y-88779393D01*
X144155317Y-88763329D01*
X144174530Y-88749079D01*
X144195047Y-88736782D01*
X144216671Y-88726554D01*
X144239193Y-88718496D01*
X144262397Y-88712684D01*
X144286058Y-88709174D01*
X144309950Y-88708000D01*
X144797450Y-88708000D01*
X144821342Y-88709174D01*
X144821342Y-88709174D01*
G37*
D11*
X144553700Y-89408000D03*
D10*
G36*
X138550839Y-87016936D02*
G01*
X138574500Y-87020446D01*
X138597704Y-87026258D01*
X138620226Y-87034316D01*
X138641850Y-87044544D01*
X138662367Y-87056841D01*
X138681580Y-87071091D01*
X138699304Y-87087155D01*
X139044019Y-87431870D01*
X139060083Y-87449594D01*
X139074333Y-87468807D01*
X139086630Y-87489324D01*
X139096858Y-87510948D01*
X139104916Y-87533470D01*
X139110728Y-87556674D01*
X139114238Y-87580335D01*
X139115412Y-87604227D01*
X139114238Y-87628119D01*
X139110728Y-87651780D01*
X139104916Y-87674984D01*
X139096858Y-87697506D01*
X139086630Y-87719130D01*
X139074333Y-87739647D01*
X139060083Y-87758860D01*
X139044019Y-87776584D01*
X138398784Y-88421819D01*
X138381060Y-88437883D01*
X138361847Y-88452133D01*
X138341330Y-88464430D01*
X138319706Y-88474658D01*
X138297184Y-88482716D01*
X138273980Y-88488528D01*
X138250319Y-88492038D01*
X138226427Y-88493212D01*
X138202535Y-88492038D01*
X138178874Y-88488528D01*
X138155670Y-88482716D01*
X138133148Y-88474658D01*
X138111524Y-88464430D01*
X138091007Y-88452133D01*
X138071794Y-88437883D01*
X138054070Y-88421819D01*
X137709355Y-88077104D01*
X137693291Y-88059380D01*
X137679041Y-88040167D01*
X137666744Y-88019650D01*
X137656516Y-87998026D01*
X137648458Y-87975504D01*
X137642646Y-87952300D01*
X137639136Y-87928639D01*
X137637962Y-87904747D01*
X137639136Y-87880855D01*
X137642646Y-87857194D01*
X137648458Y-87833990D01*
X137656516Y-87811468D01*
X137666744Y-87789844D01*
X137679041Y-87769327D01*
X137693291Y-87750114D01*
X137709355Y-87732390D01*
X138354590Y-87087155D01*
X138372314Y-87071091D01*
X138391527Y-87056841D01*
X138412044Y-87044544D01*
X138433668Y-87034316D01*
X138456190Y-87026258D01*
X138479394Y-87020446D01*
X138503055Y-87016936D01*
X138526947Y-87015762D01*
X138550839Y-87016936D01*
X138550839Y-87016936D01*
G37*
D11*
X138376687Y-87754487D03*
D10*
G36*
X139876665Y-88342762D02*
G01*
X139900326Y-88346272D01*
X139923530Y-88352084D01*
X139946052Y-88360142D01*
X139967676Y-88370370D01*
X139988193Y-88382667D01*
X140007406Y-88396917D01*
X140025130Y-88412981D01*
X140369845Y-88757696D01*
X140385909Y-88775420D01*
X140400159Y-88794633D01*
X140412456Y-88815150D01*
X140422684Y-88836774D01*
X140430742Y-88859296D01*
X140436554Y-88882500D01*
X140440064Y-88906161D01*
X140441238Y-88930053D01*
X140440064Y-88953945D01*
X140436554Y-88977606D01*
X140430742Y-89000810D01*
X140422684Y-89023332D01*
X140412456Y-89044956D01*
X140400159Y-89065473D01*
X140385909Y-89084686D01*
X140369845Y-89102410D01*
X139724610Y-89747645D01*
X139706886Y-89763709D01*
X139687673Y-89777959D01*
X139667156Y-89790256D01*
X139645532Y-89800484D01*
X139623010Y-89808542D01*
X139599806Y-89814354D01*
X139576145Y-89817864D01*
X139552253Y-89819038D01*
X139528361Y-89817864D01*
X139504700Y-89814354D01*
X139481496Y-89808542D01*
X139458974Y-89800484D01*
X139437350Y-89790256D01*
X139416833Y-89777959D01*
X139397620Y-89763709D01*
X139379896Y-89747645D01*
X139035181Y-89402930D01*
X139019117Y-89385206D01*
X139004867Y-89365993D01*
X138992570Y-89345476D01*
X138982342Y-89323852D01*
X138974284Y-89301330D01*
X138968472Y-89278126D01*
X138964962Y-89254465D01*
X138963788Y-89230573D01*
X138964962Y-89206681D01*
X138968472Y-89183020D01*
X138974284Y-89159816D01*
X138982342Y-89137294D01*
X138992570Y-89115670D01*
X139004867Y-89095153D01*
X139019117Y-89075940D01*
X139035181Y-89058216D01*
X139680416Y-88412981D01*
X139698140Y-88396917D01*
X139717353Y-88382667D01*
X139737870Y-88370370D01*
X139759494Y-88360142D01*
X139782016Y-88352084D01*
X139805220Y-88346272D01*
X139828881Y-88342762D01*
X139852773Y-88341588D01*
X139876665Y-88342762D01*
X139876665Y-88342762D01*
G37*
D11*
X139702513Y-89080313D03*
D10*
G36*
X137433239Y-75612336D02*
G01*
X137456900Y-75615846D01*
X137480104Y-75621658D01*
X137502626Y-75629716D01*
X137524250Y-75639944D01*
X137544767Y-75652241D01*
X137563980Y-75666491D01*
X137581704Y-75682555D01*
X137926419Y-76027270D01*
X137942483Y-76044994D01*
X137956733Y-76064207D01*
X137969030Y-76084724D01*
X137979258Y-76106348D01*
X137987316Y-76128870D01*
X137993128Y-76152074D01*
X137996638Y-76175735D01*
X137997812Y-76199627D01*
X137996638Y-76223519D01*
X137993128Y-76247180D01*
X137987316Y-76270384D01*
X137979258Y-76292906D01*
X137969030Y-76314530D01*
X137956733Y-76335047D01*
X137942483Y-76354260D01*
X137926419Y-76371984D01*
X137281184Y-77017219D01*
X137263460Y-77033283D01*
X137244247Y-77047533D01*
X137223730Y-77059830D01*
X137202106Y-77070058D01*
X137179584Y-77078116D01*
X137156380Y-77083928D01*
X137132719Y-77087438D01*
X137108827Y-77088612D01*
X137084935Y-77087438D01*
X137061274Y-77083928D01*
X137038070Y-77078116D01*
X137015548Y-77070058D01*
X136993924Y-77059830D01*
X136973407Y-77047533D01*
X136954194Y-77033283D01*
X136936470Y-77017219D01*
X136591755Y-76672504D01*
X136575691Y-76654780D01*
X136561441Y-76635567D01*
X136549144Y-76615050D01*
X136538916Y-76593426D01*
X136530858Y-76570904D01*
X136525046Y-76547700D01*
X136521536Y-76524039D01*
X136520362Y-76500147D01*
X136521536Y-76476255D01*
X136525046Y-76452594D01*
X136530858Y-76429390D01*
X136538916Y-76406868D01*
X136549144Y-76385244D01*
X136561441Y-76364727D01*
X136575691Y-76345514D01*
X136591755Y-76327790D01*
X137236990Y-75682555D01*
X137254714Y-75666491D01*
X137273927Y-75652241D01*
X137294444Y-75639944D01*
X137316068Y-75629716D01*
X137338590Y-75621658D01*
X137361794Y-75615846D01*
X137385455Y-75612336D01*
X137409347Y-75611162D01*
X137433239Y-75612336D01*
X137433239Y-75612336D01*
G37*
D11*
X137259087Y-76349887D03*
D10*
G36*
X138759065Y-76938162D02*
G01*
X138782726Y-76941672D01*
X138805930Y-76947484D01*
X138828452Y-76955542D01*
X138850076Y-76965770D01*
X138870593Y-76978067D01*
X138889806Y-76992317D01*
X138907530Y-77008381D01*
X139252245Y-77353096D01*
X139268309Y-77370820D01*
X139282559Y-77390033D01*
X139294856Y-77410550D01*
X139305084Y-77432174D01*
X139313142Y-77454696D01*
X139318954Y-77477900D01*
X139322464Y-77501561D01*
X139323638Y-77525453D01*
X139322464Y-77549345D01*
X139318954Y-77573006D01*
X139313142Y-77596210D01*
X139305084Y-77618732D01*
X139294856Y-77640356D01*
X139282559Y-77660873D01*
X139268309Y-77680086D01*
X139252245Y-77697810D01*
X138607010Y-78343045D01*
X138589286Y-78359109D01*
X138570073Y-78373359D01*
X138549556Y-78385656D01*
X138527932Y-78395884D01*
X138505410Y-78403942D01*
X138482206Y-78409754D01*
X138458545Y-78413264D01*
X138434653Y-78414438D01*
X138410761Y-78413264D01*
X138387100Y-78409754D01*
X138363896Y-78403942D01*
X138341374Y-78395884D01*
X138319750Y-78385656D01*
X138299233Y-78373359D01*
X138280020Y-78359109D01*
X138262296Y-78343045D01*
X137917581Y-77998330D01*
X137901517Y-77980606D01*
X137887267Y-77961393D01*
X137874970Y-77940876D01*
X137864742Y-77919252D01*
X137856684Y-77896730D01*
X137850872Y-77873526D01*
X137847362Y-77849865D01*
X137846188Y-77825973D01*
X137847362Y-77802081D01*
X137850872Y-77778420D01*
X137856684Y-77755216D01*
X137864742Y-77732694D01*
X137874970Y-77711070D01*
X137887267Y-77690553D01*
X137901517Y-77671340D01*
X137917581Y-77653616D01*
X138562816Y-77008381D01*
X138580540Y-76992317D01*
X138599753Y-76978067D01*
X138620270Y-76965770D01*
X138641894Y-76955542D01*
X138664416Y-76947484D01*
X138687620Y-76941672D01*
X138711281Y-76938162D01*
X138735173Y-76936988D01*
X138759065Y-76938162D01*
X138759065Y-76938162D01*
G37*
D11*
X138584913Y-77675713D03*
D10*
G36*
X146696342Y-76517174D02*
G01*
X146720003Y-76520684D01*
X146743207Y-76526496D01*
X146765729Y-76534554D01*
X146787353Y-76544782D01*
X146807870Y-76557079D01*
X146827083Y-76571329D01*
X146844807Y-76587393D01*
X146860871Y-76605117D01*
X146875121Y-76624330D01*
X146887418Y-76644847D01*
X146897646Y-76666471D01*
X146905704Y-76688993D01*
X146911516Y-76712197D01*
X146915026Y-76735858D01*
X146916200Y-76759750D01*
X146916200Y-77672250D01*
X146915026Y-77696142D01*
X146911516Y-77719803D01*
X146905704Y-77743007D01*
X146897646Y-77765529D01*
X146887418Y-77787153D01*
X146875121Y-77807670D01*
X146860871Y-77826883D01*
X146844807Y-77844607D01*
X146827083Y-77860671D01*
X146807870Y-77874921D01*
X146787353Y-77887218D01*
X146765729Y-77897446D01*
X146743207Y-77905504D01*
X146720003Y-77911316D01*
X146696342Y-77914826D01*
X146672450Y-77916000D01*
X146184950Y-77916000D01*
X146161058Y-77914826D01*
X146137397Y-77911316D01*
X146114193Y-77905504D01*
X146091671Y-77897446D01*
X146070047Y-77887218D01*
X146049530Y-77874921D01*
X146030317Y-77860671D01*
X146012593Y-77844607D01*
X145996529Y-77826883D01*
X145982279Y-77807670D01*
X145969982Y-77787153D01*
X145959754Y-77765529D01*
X145951696Y-77743007D01*
X145945884Y-77719803D01*
X145942374Y-77696142D01*
X145941200Y-77672250D01*
X145941200Y-76759750D01*
X145942374Y-76735858D01*
X145945884Y-76712197D01*
X145951696Y-76688993D01*
X145959754Y-76666471D01*
X145969982Y-76644847D01*
X145982279Y-76624330D01*
X145996529Y-76605117D01*
X146012593Y-76587393D01*
X146030317Y-76571329D01*
X146049530Y-76557079D01*
X146070047Y-76544782D01*
X146091671Y-76534554D01*
X146114193Y-76526496D01*
X146137397Y-76520684D01*
X146161058Y-76517174D01*
X146184950Y-76516000D01*
X146672450Y-76516000D01*
X146696342Y-76517174D01*
X146696342Y-76517174D01*
G37*
D11*
X146428700Y-77216000D03*
D10*
G36*
X144821342Y-76517174D02*
G01*
X144845003Y-76520684D01*
X144868207Y-76526496D01*
X144890729Y-76534554D01*
X144912353Y-76544782D01*
X144932870Y-76557079D01*
X144952083Y-76571329D01*
X144969807Y-76587393D01*
X144985871Y-76605117D01*
X145000121Y-76624330D01*
X145012418Y-76644847D01*
X145022646Y-76666471D01*
X145030704Y-76688993D01*
X145036516Y-76712197D01*
X145040026Y-76735858D01*
X145041200Y-76759750D01*
X145041200Y-77672250D01*
X145040026Y-77696142D01*
X145036516Y-77719803D01*
X145030704Y-77743007D01*
X145022646Y-77765529D01*
X145012418Y-77787153D01*
X145000121Y-77807670D01*
X144985871Y-77826883D01*
X144969807Y-77844607D01*
X144952083Y-77860671D01*
X144932870Y-77874921D01*
X144912353Y-77887218D01*
X144890729Y-77897446D01*
X144868207Y-77905504D01*
X144845003Y-77911316D01*
X144821342Y-77914826D01*
X144797450Y-77916000D01*
X144309950Y-77916000D01*
X144286058Y-77914826D01*
X144262397Y-77911316D01*
X144239193Y-77905504D01*
X144216671Y-77897446D01*
X144195047Y-77887218D01*
X144174530Y-77874921D01*
X144155317Y-77860671D01*
X144137593Y-77844607D01*
X144121529Y-77826883D01*
X144107279Y-77807670D01*
X144094982Y-77787153D01*
X144084754Y-77765529D01*
X144076696Y-77743007D01*
X144070884Y-77719803D01*
X144067374Y-77696142D01*
X144066200Y-77672250D01*
X144066200Y-76759750D01*
X144067374Y-76735858D01*
X144070884Y-76712197D01*
X144076696Y-76688993D01*
X144084754Y-76666471D01*
X144094982Y-76644847D01*
X144107279Y-76624330D01*
X144121529Y-76605117D01*
X144137593Y-76587393D01*
X144155317Y-76571329D01*
X144174530Y-76557079D01*
X144195047Y-76544782D01*
X144216671Y-76534554D01*
X144239193Y-76526496D01*
X144262397Y-76520684D01*
X144286058Y-76517174D01*
X144309950Y-76516000D01*
X144797450Y-76516000D01*
X144821342Y-76517174D01*
X144821342Y-76517174D01*
G37*
D11*
X144553700Y-77216000D03*
D10*
G36*
X140180142Y-68832574D02*
G01*
X140203803Y-68836084D01*
X140227007Y-68841896D01*
X140249529Y-68849954D01*
X140271153Y-68860182D01*
X140291670Y-68872479D01*
X140310883Y-68886729D01*
X140328607Y-68902793D01*
X140344671Y-68920517D01*
X140358921Y-68939730D01*
X140371218Y-68960247D01*
X140381446Y-68981871D01*
X140389504Y-69004393D01*
X140395316Y-69027597D01*
X140398826Y-69051258D01*
X140400000Y-69075150D01*
X140400000Y-69562650D01*
X140398826Y-69586542D01*
X140395316Y-69610203D01*
X140389504Y-69633407D01*
X140381446Y-69655929D01*
X140371218Y-69677553D01*
X140358921Y-69698070D01*
X140344671Y-69717283D01*
X140328607Y-69735007D01*
X140310883Y-69751071D01*
X140291670Y-69765321D01*
X140271153Y-69777618D01*
X140249529Y-69787846D01*
X140227007Y-69795904D01*
X140203803Y-69801716D01*
X140180142Y-69805226D01*
X140156250Y-69806400D01*
X139243750Y-69806400D01*
X139219858Y-69805226D01*
X139196197Y-69801716D01*
X139172993Y-69795904D01*
X139150471Y-69787846D01*
X139128847Y-69777618D01*
X139108330Y-69765321D01*
X139089117Y-69751071D01*
X139071393Y-69735007D01*
X139055329Y-69717283D01*
X139041079Y-69698070D01*
X139028782Y-69677553D01*
X139018554Y-69655929D01*
X139010496Y-69633407D01*
X139004684Y-69610203D01*
X139001174Y-69586542D01*
X139000000Y-69562650D01*
X139000000Y-69075150D01*
X139001174Y-69051258D01*
X139004684Y-69027597D01*
X139010496Y-69004393D01*
X139018554Y-68981871D01*
X139028782Y-68960247D01*
X139041079Y-68939730D01*
X139055329Y-68920517D01*
X139071393Y-68902793D01*
X139089117Y-68886729D01*
X139108330Y-68872479D01*
X139128847Y-68860182D01*
X139150471Y-68849954D01*
X139172993Y-68841896D01*
X139196197Y-68836084D01*
X139219858Y-68832574D01*
X139243750Y-68831400D01*
X140156250Y-68831400D01*
X140180142Y-68832574D01*
X140180142Y-68832574D01*
G37*
D11*
X139700000Y-69318900D03*
D10*
G36*
X140180142Y-70707574D02*
G01*
X140203803Y-70711084D01*
X140227007Y-70716896D01*
X140249529Y-70724954D01*
X140271153Y-70735182D01*
X140291670Y-70747479D01*
X140310883Y-70761729D01*
X140328607Y-70777793D01*
X140344671Y-70795517D01*
X140358921Y-70814730D01*
X140371218Y-70835247D01*
X140381446Y-70856871D01*
X140389504Y-70879393D01*
X140395316Y-70902597D01*
X140398826Y-70926258D01*
X140400000Y-70950150D01*
X140400000Y-71437650D01*
X140398826Y-71461542D01*
X140395316Y-71485203D01*
X140389504Y-71508407D01*
X140381446Y-71530929D01*
X140371218Y-71552553D01*
X140358921Y-71573070D01*
X140344671Y-71592283D01*
X140328607Y-71610007D01*
X140310883Y-71626071D01*
X140291670Y-71640321D01*
X140271153Y-71652618D01*
X140249529Y-71662846D01*
X140227007Y-71670904D01*
X140203803Y-71676716D01*
X140180142Y-71680226D01*
X140156250Y-71681400D01*
X139243750Y-71681400D01*
X139219858Y-71680226D01*
X139196197Y-71676716D01*
X139172993Y-71670904D01*
X139150471Y-71662846D01*
X139128847Y-71652618D01*
X139108330Y-71640321D01*
X139089117Y-71626071D01*
X139071393Y-71610007D01*
X139055329Y-71592283D01*
X139041079Y-71573070D01*
X139028782Y-71552553D01*
X139018554Y-71530929D01*
X139010496Y-71508407D01*
X139004684Y-71485203D01*
X139001174Y-71461542D01*
X139000000Y-71437650D01*
X139000000Y-70950150D01*
X139001174Y-70926258D01*
X139004684Y-70902597D01*
X139010496Y-70879393D01*
X139018554Y-70856871D01*
X139028782Y-70835247D01*
X139041079Y-70814730D01*
X139055329Y-70795517D01*
X139071393Y-70777793D01*
X139089117Y-70761729D01*
X139108330Y-70747479D01*
X139128847Y-70735182D01*
X139150471Y-70724954D01*
X139172993Y-70716896D01*
X139196197Y-70711084D01*
X139219858Y-70707574D01*
X139243750Y-70706400D01*
X140156250Y-70706400D01*
X140180142Y-70707574D01*
X140180142Y-70707574D01*
G37*
D11*
X139700000Y-71193900D03*
D10*
G36*
X144706945Y-65020536D02*
G01*
X144730606Y-65024046D01*
X144753810Y-65029858D01*
X144776332Y-65037916D01*
X144797956Y-65048144D01*
X144818473Y-65060441D01*
X144837686Y-65074691D01*
X144855410Y-65090755D01*
X145500645Y-65735990D01*
X145516709Y-65753714D01*
X145530959Y-65772927D01*
X145543256Y-65793444D01*
X145553484Y-65815068D01*
X145561542Y-65837590D01*
X145567354Y-65860794D01*
X145570864Y-65884455D01*
X145572038Y-65908347D01*
X145570864Y-65932239D01*
X145567354Y-65955900D01*
X145561542Y-65979104D01*
X145553484Y-66001626D01*
X145543256Y-66023250D01*
X145530959Y-66043767D01*
X145516709Y-66062980D01*
X145500645Y-66080704D01*
X145155930Y-66425419D01*
X145138206Y-66441483D01*
X145118993Y-66455733D01*
X145098476Y-66468030D01*
X145076852Y-66478258D01*
X145054330Y-66486316D01*
X145031126Y-66492128D01*
X145007465Y-66495638D01*
X144983573Y-66496812D01*
X144959681Y-66495638D01*
X144936020Y-66492128D01*
X144912816Y-66486316D01*
X144890294Y-66478258D01*
X144868670Y-66468030D01*
X144848153Y-66455733D01*
X144828940Y-66441483D01*
X144811216Y-66425419D01*
X144165981Y-65780184D01*
X144149917Y-65762460D01*
X144135667Y-65743247D01*
X144123370Y-65722730D01*
X144113142Y-65701106D01*
X144105084Y-65678584D01*
X144099272Y-65655380D01*
X144095762Y-65631719D01*
X144094588Y-65607827D01*
X144095762Y-65583935D01*
X144099272Y-65560274D01*
X144105084Y-65537070D01*
X144113142Y-65514548D01*
X144123370Y-65492924D01*
X144135667Y-65472407D01*
X144149917Y-65453194D01*
X144165981Y-65435470D01*
X144510696Y-65090755D01*
X144528420Y-65074691D01*
X144547633Y-65060441D01*
X144568150Y-65048144D01*
X144589774Y-65037916D01*
X144612296Y-65029858D01*
X144635500Y-65024046D01*
X144659161Y-65020536D01*
X144683053Y-65019362D01*
X144706945Y-65020536D01*
X144706945Y-65020536D01*
G37*
D11*
X144833313Y-65758087D03*
D10*
G36*
X143381119Y-66346362D02*
G01*
X143404780Y-66349872D01*
X143427984Y-66355684D01*
X143450506Y-66363742D01*
X143472130Y-66373970D01*
X143492647Y-66386267D01*
X143511860Y-66400517D01*
X143529584Y-66416581D01*
X144174819Y-67061816D01*
X144190883Y-67079540D01*
X144205133Y-67098753D01*
X144217430Y-67119270D01*
X144227658Y-67140894D01*
X144235716Y-67163416D01*
X144241528Y-67186620D01*
X144245038Y-67210281D01*
X144246212Y-67234173D01*
X144245038Y-67258065D01*
X144241528Y-67281726D01*
X144235716Y-67304930D01*
X144227658Y-67327452D01*
X144217430Y-67349076D01*
X144205133Y-67369593D01*
X144190883Y-67388806D01*
X144174819Y-67406530D01*
X143830104Y-67751245D01*
X143812380Y-67767309D01*
X143793167Y-67781559D01*
X143772650Y-67793856D01*
X143751026Y-67804084D01*
X143728504Y-67812142D01*
X143705300Y-67817954D01*
X143681639Y-67821464D01*
X143657747Y-67822638D01*
X143633855Y-67821464D01*
X143610194Y-67817954D01*
X143586990Y-67812142D01*
X143564468Y-67804084D01*
X143542844Y-67793856D01*
X143522327Y-67781559D01*
X143503114Y-67767309D01*
X143485390Y-67751245D01*
X142840155Y-67106010D01*
X142824091Y-67088286D01*
X142809841Y-67069073D01*
X142797544Y-67048556D01*
X142787316Y-67026932D01*
X142779258Y-67004410D01*
X142773446Y-66981206D01*
X142769936Y-66957545D01*
X142768762Y-66933653D01*
X142769936Y-66909761D01*
X142773446Y-66886100D01*
X142779258Y-66862896D01*
X142787316Y-66840374D01*
X142797544Y-66818750D01*
X142809841Y-66798233D01*
X142824091Y-66779020D01*
X142840155Y-66761296D01*
X143184870Y-66416581D01*
X143202594Y-66400517D01*
X143221807Y-66386267D01*
X143242324Y-66373970D01*
X143263948Y-66363742D01*
X143286470Y-66355684D01*
X143309674Y-66349872D01*
X143333335Y-66346362D01*
X143357227Y-66345188D01*
X143381119Y-66346362D01*
X143381119Y-66346362D01*
G37*
D11*
X143507487Y-67083913D03*
D10*
G36*
X144821342Y-84365774D02*
G01*
X144845003Y-84369284D01*
X144868207Y-84375096D01*
X144890729Y-84383154D01*
X144912353Y-84393382D01*
X144932870Y-84405679D01*
X144952083Y-84419929D01*
X144969807Y-84435993D01*
X144985871Y-84453717D01*
X145000121Y-84472930D01*
X145012418Y-84493447D01*
X145022646Y-84515071D01*
X145030704Y-84537593D01*
X145036516Y-84560797D01*
X145040026Y-84584458D01*
X145041200Y-84608350D01*
X145041200Y-85520850D01*
X145040026Y-85544742D01*
X145036516Y-85568403D01*
X145030704Y-85591607D01*
X145022646Y-85614129D01*
X145012418Y-85635753D01*
X145000121Y-85656270D01*
X144985871Y-85675483D01*
X144969807Y-85693207D01*
X144952083Y-85709271D01*
X144932870Y-85723521D01*
X144912353Y-85735818D01*
X144890729Y-85746046D01*
X144868207Y-85754104D01*
X144845003Y-85759916D01*
X144821342Y-85763426D01*
X144797450Y-85764600D01*
X144309950Y-85764600D01*
X144286058Y-85763426D01*
X144262397Y-85759916D01*
X144239193Y-85754104D01*
X144216671Y-85746046D01*
X144195047Y-85735818D01*
X144174530Y-85723521D01*
X144155317Y-85709271D01*
X144137593Y-85693207D01*
X144121529Y-85675483D01*
X144107279Y-85656270D01*
X144094982Y-85635753D01*
X144084754Y-85614129D01*
X144076696Y-85591607D01*
X144070884Y-85568403D01*
X144067374Y-85544742D01*
X144066200Y-85520850D01*
X144066200Y-84608350D01*
X144067374Y-84584458D01*
X144070884Y-84560797D01*
X144076696Y-84537593D01*
X144084754Y-84515071D01*
X144094982Y-84493447D01*
X144107279Y-84472930D01*
X144121529Y-84453717D01*
X144137593Y-84435993D01*
X144155317Y-84419929D01*
X144174530Y-84405679D01*
X144195047Y-84393382D01*
X144216671Y-84383154D01*
X144239193Y-84375096D01*
X144262397Y-84369284D01*
X144286058Y-84365774D01*
X144309950Y-84364600D01*
X144797450Y-84364600D01*
X144821342Y-84365774D01*
X144821342Y-84365774D01*
G37*
D11*
X144553700Y-85064600D03*
D10*
G36*
X146696342Y-84365774D02*
G01*
X146720003Y-84369284D01*
X146743207Y-84375096D01*
X146765729Y-84383154D01*
X146787353Y-84393382D01*
X146807870Y-84405679D01*
X146827083Y-84419929D01*
X146844807Y-84435993D01*
X146860871Y-84453717D01*
X146875121Y-84472930D01*
X146887418Y-84493447D01*
X146897646Y-84515071D01*
X146905704Y-84537593D01*
X146911516Y-84560797D01*
X146915026Y-84584458D01*
X146916200Y-84608350D01*
X146916200Y-85520850D01*
X146915026Y-85544742D01*
X146911516Y-85568403D01*
X146905704Y-85591607D01*
X146897646Y-85614129D01*
X146887418Y-85635753D01*
X146875121Y-85656270D01*
X146860871Y-85675483D01*
X146844807Y-85693207D01*
X146827083Y-85709271D01*
X146807870Y-85723521D01*
X146787353Y-85735818D01*
X146765729Y-85746046D01*
X146743207Y-85754104D01*
X146720003Y-85759916D01*
X146696342Y-85763426D01*
X146672450Y-85764600D01*
X146184950Y-85764600D01*
X146161058Y-85763426D01*
X146137397Y-85759916D01*
X146114193Y-85754104D01*
X146091671Y-85746046D01*
X146070047Y-85735818D01*
X146049530Y-85723521D01*
X146030317Y-85709271D01*
X146012593Y-85693207D01*
X145996529Y-85675483D01*
X145982279Y-85656270D01*
X145969982Y-85635753D01*
X145959754Y-85614129D01*
X145951696Y-85591607D01*
X145945884Y-85568403D01*
X145942374Y-85544742D01*
X145941200Y-85520850D01*
X145941200Y-84608350D01*
X145942374Y-84584458D01*
X145945884Y-84560797D01*
X145951696Y-84537593D01*
X145959754Y-84515071D01*
X145969982Y-84493447D01*
X145982279Y-84472930D01*
X145996529Y-84453717D01*
X146012593Y-84435993D01*
X146030317Y-84419929D01*
X146049530Y-84405679D01*
X146070047Y-84393382D01*
X146091671Y-84383154D01*
X146114193Y-84375096D01*
X146137397Y-84369284D01*
X146161058Y-84365774D01*
X146184950Y-84364600D01*
X146672450Y-84364600D01*
X146696342Y-84365774D01*
X146696342Y-84365774D01*
G37*
D11*
X146428700Y-85064600D03*
D10*
G36*
X137589342Y-101238374D02*
G01*
X137613003Y-101241884D01*
X137636207Y-101247696D01*
X137658729Y-101255754D01*
X137680353Y-101265982D01*
X137700870Y-101278279D01*
X137720083Y-101292529D01*
X137737807Y-101308593D01*
X137753871Y-101326317D01*
X137768121Y-101345530D01*
X137780418Y-101366047D01*
X137790646Y-101387671D01*
X137798704Y-101410193D01*
X137804516Y-101433397D01*
X137808026Y-101457058D01*
X137809200Y-101480950D01*
X137809200Y-101968450D01*
X137808026Y-101992342D01*
X137804516Y-102016003D01*
X137798704Y-102039207D01*
X137790646Y-102061729D01*
X137780418Y-102083353D01*
X137768121Y-102103870D01*
X137753871Y-102123083D01*
X137737807Y-102140807D01*
X137720083Y-102156871D01*
X137700870Y-102171121D01*
X137680353Y-102183418D01*
X137658729Y-102193646D01*
X137636207Y-102201704D01*
X137613003Y-102207516D01*
X137589342Y-102211026D01*
X137565450Y-102212200D01*
X136652950Y-102212200D01*
X136629058Y-102211026D01*
X136605397Y-102207516D01*
X136582193Y-102201704D01*
X136559671Y-102193646D01*
X136538047Y-102183418D01*
X136517530Y-102171121D01*
X136498317Y-102156871D01*
X136480593Y-102140807D01*
X136464529Y-102123083D01*
X136450279Y-102103870D01*
X136437982Y-102083353D01*
X136427754Y-102061729D01*
X136419696Y-102039207D01*
X136413884Y-102016003D01*
X136410374Y-101992342D01*
X136409200Y-101968450D01*
X136409200Y-101480950D01*
X136410374Y-101457058D01*
X136413884Y-101433397D01*
X136419696Y-101410193D01*
X136427754Y-101387671D01*
X136437982Y-101366047D01*
X136450279Y-101345530D01*
X136464529Y-101326317D01*
X136480593Y-101308593D01*
X136498317Y-101292529D01*
X136517530Y-101278279D01*
X136538047Y-101265982D01*
X136559671Y-101255754D01*
X136582193Y-101247696D01*
X136605397Y-101241884D01*
X136629058Y-101238374D01*
X136652950Y-101237200D01*
X137565450Y-101237200D01*
X137589342Y-101238374D01*
X137589342Y-101238374D01*
G37*
D11*
X137109200Y-101724700D03*
D10*
G36*
X137589342Y-99363374D02*
G01*
X137613003Y-99366884D01*
X137636207Y-99372696D01*
X137658729Y-99380754D01*
X137680353Y-99390982D01*
X137700870Y-99403279D01*
X137720083Y-99417529D01*
X137737807Y-99433593D01*
X137753871Y-99451317D01*
X137768121Y-99470530D01*
X137780418Y-99491047D01*
X137790646Y-99512671D01*
X137798704Y-99535193D01*
X137804516Y-99558397D01*
X137808026Y-99582058D01*
X137809200Y-99605950D01*
X137809200Y-100093450D01*
X137808026Y-100117342D01*
X137804516Y-100141003D01*
X137798704Y-100164207D01*
X137790646Y-100186729D01*
X137780418Y-100208353D01*
X137768121Y-100228870D01*
X137753871Y-100248083D01*
X137737807Y-100265807D01*
X137720083Y-100281871D01*
X137700870Y-100296121D01*
X137680353Y-100308418D01*
X137658729Y-100318646D01*
X137636207Y-100326704D01*
X137613003Y-100332516D01*
X137589342Y-100336026D01*
X137565450Y-100337200D01*
X136652950Y-100337200D01*
X136629058Y-100336026D01*
X136605397Y-100332516D01*
X136582193Y-100326704D01*
X136559671Y-100318646D01*
X136538047Y-100308418D01*
X136517530Y-100296121D01*
X136498317Y-100281871D01*
X136480593Y-100265807D01*
X136464529Y-100248083D01*
X136450279Y-100228870D01*
X136437982Y-100208353D01*
X136427754Y-100186729D01*
X136419696Y-100164207D01*
X136413884Y-100141003D01*
X136410374Y-100117342D01*
X136409200Y-100093450D01*
X136409200Y-99605950D01*
X136410374Y-99582058D01*
X136413884Y-99558397D01*
X136419696Y-99535193D01*
X136427754Y-99512671D01*
X136437982Y-99491047D01*
X136450279Y-99470530D01*
X136464529Y-99451317D01*
X136480593Y-99433593D01*
X136498317Y-99417529D01*
X136517530Y-99403279D01*
X136538047Y-99390982D01*
X136559671Y-99380754D01*
X136582193Y-99372696D01*
X136605397Y-99366884D01*
X136629058Y-99363374D01*
X136652950Y-99362200D01*
X137565450Y-99362200D01*
X137589342Y-99363374D01*
X137589342Y-99363374D01*
G37*
D11*
X137109200Y-99849700D03*
D12*
X144678400Y-123027200D03*
X144678400Y-128077200D03*
X142138400Y-123027200D03*
X142138400Y-128077200D03*
X139598400Y-123027200D03*
X139598400Y-128077200D03*
D13*
X138277600Y-114503200D03*
X145897600Y-106883200D03*
X138277600Y-111963200D03*
X145897600Y-109423200D03*
X138277600Y-109423200D03*
X145897600Y-111963200D03*
X138277600Y-106883200D03*
X145897600Y-114503200D03*
D10*
G36*
X138547542Y-119189174D02*
G01*
X138571203Y-119192684D01*
X138594407Y-119198496D01*
X138616929Y-119206554D01*
X138638553Y-119216782D01*
X138659070Y-119229079D01*
X138678283Y-119243329D01*
X138696007Y-119259393D01*
X138712071Y-119277117D01*
X138726321Y-119296330D01*
X138738618Y-119316847D01*
X138748846Y-119338471D01*
X138756904Y-119360993D01*
X138762716Y-119384197D01*
X138766226Y-119407858D01*
X138767400Y-119431750D01*
X138767400Y-120344250D01*
X138766226Y-120368142D01*
X138762716Y-120391803D01*
X138756904Y-120415007D01*
X138748846Y-120437529D01*
X138738618Y-120459153D01*
X138726321Y-120479670D01*
X138712071Y-120498883D01*
X138696007Y-120516607D01*
X138678283Y-120532671D01*
X138659070Y-120546921D01*
X138638553Y-120559218D01*
X138616929Y-120569446D01*
X138594407Y-120577504D01*
X138571203Y-120583316D01*
X138547542Y-120586826D01*
X138523650Y-120588000D01*
X138036150Y-120588000D01*
X138012258Y-120586826D01*
X137988597Y-120583316D01*
X137965393Y-120577504D01*
X137942871Y-120569446D01*
X137921247Y-120559218D01*
X137900730Y-120546921D01*
X137881517Y-120532671D01*
X137863793Y-120516607D01*
X137847729Y-120498883D01*
X137833479Y-120479670D01*
X137821182Y-120459153D01*
X137810954Y-120437529D01*
X137802896Y-120415007D01*
X137797084Y-120391803D01*
X137793574Y-120368142D01*
X137792400Y-120344250D01*
X137792400Y-119431750D01*
X137793574Y-119407858D01*
X137797084Y-119384197D01*
X137802896Y-119360993D01*
X137810954Y-119338471D01*
X137821182Y-119316847D01*
X137833479Y-119296330D01*
X137847729Y-119277117D01*
X137863793Y-119259393D01*
X137881517Y-119243329D01*
X137900730Y-119229079D01*
X137921247Y-119216782D01*
X137942871Y-119206554D01*
X137965393Y-119198496D01*
X137988597Y-119192684D01*
X138012258Y-119189174D01*
X138036150Y-119188000D01*
X138523650Y-119188000D01*
X138547542Y-119189174D01*
X138547542Y-119189174D01*
G37*
D11*
X138279900Y-119888000D03*
D10*
G36*
X140422542Y-119189174D02*
G01*
X140446203Y-119192684D01*
X140469407Y-119198496D01*
X140491929Y-119206554D01*
X140513553Y-119216782D01*
X140534070Y-119229079D01*
X140553283Y-119243329D01*
X140571007Y-119259393D01*
X140587071Y-119277117D01*
X140601321Y-119296330D01*
X140613618Y-119316847D01*
X140623846Y-119338471D01*
X140631904Y-119360993D01*
X140637716Y-119384197D01*
X140641226Y-119407858D01*
X140642400Y-119431750D01*
X140642400Y-120344250D01*
X140641226Y-120368142D01*
X140637716Y-120391803D01*
X140631904Y-120415007D01*
X140623846Y-120437529D01*
X140613618Y-120459153D01*
X140601321Y-120479670D01*
X140587071Y-120498883D01*
X140571007Y-120516607D01*
X140553283Y-120532671D01*
X140534070Y-120546921D01*
X140513553Y-120559218D01*
X140491929Y-120569446D01*
X140469407Y-120577504D01*
X140446203Y-120583316D01*
X140422542Y-120586826D01*
X140398650Y-120588000D01*
X139911150Y-120588000D01*
X139887258Y-120586826D01*
X139863597Y-120583316D01*
X139840393Y-120577504D01*
X139817871Y-120569446D01*
X139796247Y-120559218D01*
X139775730Y-120546921D01*
X139756517Y-120532671D01*
X139738793Y-120516607D01*
X139722729Y-120498883D01*
X139708479Y-120479670D01*
X139696182Y-120459153D01*
X139685954Y-120437529D01*
X139677896Y-120415007D01*
X139672084Y-120391803D01*
X139668574Y-120368142D01*
X139667400Y-120344250D01*
X139667400Y-119431750D01*
X139668574Y-119407858D01*
X139672084Y-119384197D01*
X139677896Y-119360993D01*
X139685954Y-119338471D01*
X139696182Y-119316847D01*
X139708479Y-119296330D01*
X139722729Y-119277117D01*
X139738793Y-119259393D01*
X139756517Y-119243329D01*
X139775730Y-119229079D01*
X139796247Y-119216782D01*
X139817871Y-119206554D01*
X139840393Y-119198496D01*
X139863597Y-119192684D01*
X139887258Y-119189174D01*
X139911150Y-119188000D01*
X140398650Y-119188000D01*
X140422542Y-119189174D01*
X140422542Y-119189174D01*
G37*
D11*
X140154900Y-119888000D03*
D10*
G36*
X147571542Y-101212974D02*
G01*
X147595203Y-101216484D01*
X147618407Y-101222296D01*
X147640929Y-101230354D01*
X147662553Y-101240582D01*
X147683070Y-101252879D01*
X147702283Y-101267129D01*
X147720007Y-101283193D01*
X147736071Y-101300917D01*
X147750321Y-101320130D01*
X147762618Y-101340647D01*
X147772846Y-101362271D01*
X147780904Y-101384793D01*
X147786716Y-101407997D01*
X147790226Y-101431658D01*
X147791400Y-101455550D01*
X147791400Y-101943050D01*
X147790226Y-101966942D01*
X147786716Y-101990603D01*
X147780904Y-102013807D01*
X147772846Y-102036329D01*
X147762618Y-102057953D01*
X147750321Y-102078470D01*
X147736071Y-102097683D01*
X147720007Y-102115407D01*
X147702283Y-102131471D01*
X147683070Y-102145721D01*
X147662553Y-102158018D01*
X147640929Y-102168246D01*
X147618407Y-102176304D01*
X147595203Y-102182116D01*
X147571542Y-102185626D01*
X147547650Y-102186800D01*
X146635150Y-102186800D01*
X146611258Y-102185626D01*
X146587597Y-102182116D01*
X146564393Y-102176304D01*
X146541871Y-102168246D01*
X146520247Y-102158018D01*
X146499730Y-102145721D01*
X146480517Y-102131471D01*
X146462793Y-102115407D01*
X146446729Y-102097683D01*
X146432479Y-102078470D01*
X146420182Y-102057953D01*
X146409954Y-102036329D01*
X146401896Y-102013807D01*
X146396084Y-101990603D01*
X146392574Y-101966942D01*
X146391400Y-101943050D01*
X146391400Y-101455550D01*
X146392574Y-101431658D01*
X146396084Y-101407997D01*
X146401896Y-101384793D01*
X146409954Y-101362271D01*
X146420182Y-101340647D01*
X146432479Y-101320130D01*
X146446729Y-101300917D01*
X146462793Y-101283193D01*
X146480517Y-101267129D01*
X146499730Y-101252879D01*
X146520247Y-101240582D01*
X146541871Y-101230354D01*
X146564393Y-101222296D01*
X146587597Y-101216484D01*
X146611258Y-101212974D01*
X146635150Y-101211800D01*
X147547650Y-101211800D01*
X147571542Y-101212974D01*
X147571542Y-101212974D01*
G37*
D11*
X147091400Y-101699300D03*
D10*
G36*
X147571542Y-99337974D02*
G01*
X147595203Y-99341484D01*
X147618407Y-99347296D01*
X147640929Y-99355354D01*
X147662553Y-99365582D01*
X147683070Y-99377879D01*
X147702283Y-99392129D01*
X147720007Y-99408193D01*
X147736071Y-99425917D01*
X147750321Y-99445130D01*
X147762618Y-99465647D01*
X147772846Y-99487271D01*
X147780904Y-99509793D01*
X147786716Y-99532997D01*
X147790226Y-99556658D01*
X147791400Y-99580550D01*
X147791400Y-100068050D01*
X147790226Y-100091942D01*
X147786716Y-100115603D01*
X147780904Y-100138807D01*
X147772846Y-100161329D01*
X147762618Y-100182953D01*
X147750321Y-100203470D01*
X147736071Y-100222683D01*
X147720007Y-100240407D01*
X147702283Y-100256471D01*
X147683070Y-100270721D01*
X147662553Y-100283018D01*
X147640929Y-100293246D01*
X147618407Y-100301304D01*
X147595203Y-100307116D01*
X147571542Y-100310626D01*
X147547650Y-100311800D01*
X146635150Y-100311800D01*
X146611258Y-100310626D01*
X146587597Y-100307116D01*
X146564393Y-100301304D01*
X146541871Y-100293246D01*
X146520247Y-100283018D01*
X146499730Y-100270721D01*
X146480517Y-100256471D01*
X146462793Y-100240407D01*
X146446729Y-100222683D01*
X146432479Y-100203470D01*
X146420182Y-100182953D01*
X146409954Y-100161329D01*
X146401896Y-100138807D01*
X146396084Y-100115603D01*
X146392574Y-100091942D01*
X146391400Y-100068050D01*
X146391400Y-99580550D01*
X146392574Y-99556658D01*
X146396084Y-99532997D01*
X146401896Y-99509793D01*
X146409954Y-99487271D01*
X146420182Y-99465647D01*
X146432479Y-99445130D01*
X146446729Y-99425917D01*
X146462793Y-99408193D01*
X146480517Y-99392129D01*
X146499730Y-99377879D01*
X146520247Y-99365582D01*
X146541871Y-99355354D01*
X146564393Y-99347296D01*
X146587597Y-99341484D01*
X146611258Y-99337974D01*
X146635150Y-99336800D01*
X147547650Y-99336800D01*
X147571542Y-99337974D01*
X147571542Y-99337974D01*
G37*
D11*
X147091400Y-99824300D03*
D10*
G36*
X144371142Y-101212974D02*
G01*
X144394803Y-101216484D01*
X144418007Y-101222296D01*
X144440529Y-101230354D01*
X144462153Y-101240582D01*
X144482670Y-101252879D01*
X144501883Y-101267129D01*
X144519607Y-101283193D01*
X144535671Y-101300917D01*
X144549921Y-101320130D01*
X144562218Y-101340647D01*
X144572446Y-101362271D01*
X144580504Y-101384793D01*
X144586316Y-101407997D01*
X144589826Y-101431658D01*
X144591000Y-101455550D01*
X144591000Y-101943050D01*
X144589826Y-101966942D01*
X144586316Y-101990603D01*
X144580504Y-102013807D01*
X144572446Y-102036329D01*
X144562218Y-102057953D01*
X144549921Y-102078470D01*
X144535671Y-102097683D01*
X144519607Y-102115407D01*
X144501883Y-102131471D01*
X144482670Y-102145721D01*
X144462153Y-102158018D01*
X144440529Y-102168246D01*
X144418007Y-102176304D01*
X144394803Y-102182116D01*
X144371142Y-102185626D01*
X144347250Y-102186800D01*
X143434750Y-102186800D01*
X143410858Y-102185626D01*
X143387197Y-102182116D01*
X143363993Y-102176304D01*
X143341471Y-102168246D01*
X143319847Y-102158018D01*
X143299330Y-102145721D01*
X143280117Y-102131471D01*
X143262393Y-102115407D01*
X143246329Y-102097683D01*
X143232079Y-102078470D01*
X143219782Y-102057953D01*
X143209554Y-102036329D01*
X143201496Y-102013807D01*
X143195684Y-101990603D01*
X143192174Y-101966942D01*
X143191000Y-101943050D01*
X143191000Y-101455550D01*
X143192174Y-101431658D01*
X143195684Y-101407997D01*
X143201496Y-101384793D01*
X143209554Y-101362271D01*
X143219782Y-101340647D01*
X143232079Y-101320130D01*
X143246329Y-101300917D01*
X143262393Y-101283193D01*
X143280117Y-101267129D01*
X143299330Y-101252879D01*
X143319847Y-101240582D01*
X143341471Y-101230354D01*
X143363993Y-101222296D01*
X143387197Y-101216484D01*
X143410858Y-101212974D01*
X143434750Y-101211800D01*
X144347250Y-101211800D01*
X144371142Y-101212974D01*
X144371142Y-101212974D01*
G37*
D11*
X143891000Y-101699300D03*
D10*
G36*
X144371142Y-99337974D02*
G01*
X144394803Y-99341484D01*
X144418007Y-99347296D01*
X144440529Y-99355354D01*
X144462153Y-99365582D01*
X144482670Y-99377879D01*
X144501883Y-99392129D01*
X144519607Y-99408193D01*
X144535671Y-99425917D01*
X144549921Y-99445130D01*
X144562218Y-99465647D01*
X144572446Y-99487271D01*
X144580504Y-99509793D01*
X144586316Y-99532997D01*
X144589826Y-99556658D01*
X144591000Y-99580550D01*
X144591000Y-100068050D01*
X144589826Y-100091942D01*
X144586316Y-100115603D01*
X144580504Y-100138807D01*
X144572446Y-100161329D01*
X144562218Y-100182953D01*
X144549921Y-100203470D01*
X144535671Y-100222683D01*
X144519607Y-100240407D01*
X144501883Y-100256471D01*
X144482670Y-100270721D01*
X144462153Y-100283018D01*
X144440529Y-100293246D01*
X144418007Y-100301304D01*
X144394803Y-100307116D01*
X144371142Y-100310626D01*
X144347250Y-100311800D01*
X143434750Y-100311800D01*
X143410858Y-100310626D01*
X143387197Y-100307116D01*
X143363993Y-100301304D01*
X143341471Y-100293246D01*
X143319847Y-100283018D01*
X143299330Y-100270721D01*
X143280117Y-100256471D01*
X143262393Y-100240407D01*
X143246329Y-100222683D01*
X143232079Y-100203470D01*
X143219782Y-100182953D01*
X143209554Y-100161329D01*
X143201496Y-100138807D01*
X143195684Y-100115603D01*
X143192174Y-100091942D01*
X143191000Y-100068050D01*
X143191000Y-99580550D01*
X143192174Y-99556658D01*
X143195684Y-99532997D01*
X143201496Y-99509793D01*
X143209554Y-99487271D01*
X143219782Y-99465647D01*
X143232079Y-99445130D01*
X143246329Y-99425917D01*
X143262393Y-99408193D01*
X143280117Y-99392129D01*
X143299330Y-99377879D01*
X143319847Y-99365582D01*
X143341471Y-99355354D01*
X143363993Y-99347296D01*
X143387197Y-99341484D01*
X143410858Y-99337974D01*
X143434750Y-99336800D01*
X144347250Y-99336800D01*
X144371142Y-99337974D01*
X144371142Y-99337974D01*
G37*
D11*
X143891000Y-99824300D03*
D10*
G36*
X141043742Y-102152774D02*
G01*
X141067403Y-102156284D01*
X141090607Y-102162096D01*
X141113129Y-102170154D01*
X141134753Y-102180382D01*
X141155270Y-102192679D01*
X141174483Y-102206929D01*
X141192207Y-102222993D01*
X141208271Y-102240717D01*
X141222521Y-102259930D01*
X141234818Y-102280447D01*
X141245046Y-102302071D01*
X141253104Y-102324593D01*
X141258916Y-102347797D01*
X141262426Y-102371458D01*
X141263600Y-102395350D01*
X141263600Y-102882850D01*
X141262426Y-102906742D01*
X141258916Y-102930403D01*
X141253104Y-102953607D01*
X141245046Y-102976129D01*
X141234818Y-102997753D01*
X141222521Y-103018270D01*
X141208271Y-103037483D01*
X141192207Y-103055207D01*
X141174483Y-103071271D01*
X141155270Y-103085521D01*
X141134753Y-103097818D01*
X141113129Y-103108046D01*
X141090607Y-103116104D01*
X141067403Y-103121916D01*
X141043742Y-103125426D01*
X141019850Y-103126600D01*
X140107350Y-103126600D01*
X140083458Y-103125426D01*
X140059797Y-103121916D01*
X140036593Y-103116104D01*
X140014071Y-103108046D01*
X139992447Y-103097818D01*
X139971930Y-103085521D01*
X139952717Y-103071271D01*
X139934993Y-103055207D01*
X139918929Y-103037483D01*
X139904679Y-103018270D01*
X139892382Y-102997753D01*
X139882154Y-102976129D01*
X139874096Y-102953607D01*
X139868284Y-102930403D01*
X139864774Y-102906742D01*
X139863600Y-102882850D01*
X139863600Y-102395350D01*
X139864774Y-102371458D01*
X139868284Y-102347797D01*
X139874096Y-102324593D01*
X139882154Y-102302071D01*
X139892382Y-102280447D01*
X139904679Y-102259930D01*
X139918929Y-102240717D01*
X139934993Y-102222993D01*
X139952717Y-102206929D01*
X139971930Y-102192679D01*
X139992447Y-102180382D01*
X140014071Y-102170154D01*
X140036593Y-102162096D01*
X140059797Y-102156284D01*
X140083458Y-102152774D01*
X140107350Y-102151600D01*
X141019850Y-102151600D01*
X141043742Y-102152774D01*
X141043742Y-102152774D01*
G37*
D11*
X140563600Y-102639100D03*
D10*
G36*
X141043742Y-100277774D02*
G01*
X141067403Y-100281284D01*
X141090607Y-100287096D01*
X141113129Y-100295154D01*
X141134753Y-100305382D01*
X141155270Y-100317679D01*
X141174483Y-100331929D01*
X141192207Y-100347993D01*
X141208271Y-100365717D01*
X141222521Y-100384930D01*
X141234818Y-100405447D01*
X141245046Y-100427071D01*
X141253104Y-100449593D01*
X141258916Y-100472797D01*
X141262426Y-100496458D01*
X141263600Y-100520350D01*
X141263600Y-101007850D01*
X141262426Y-101031742D01*
X141258916Y-101055403D01*
X141253104Y-101078607D01*
X141245046Y-101101129D01*
X141234818Y-101122753D01*
X141222521Y-101143270D01*
X141208271Y-101162483D01*
X141192207Y-101180207D01*
X141174483Y-101196271D01*
X141155270Y-101210521D01*
X141134753Y-101222818D01*
X141113129Y-101233046D01*
X141090607Y-101241104D01*
X141067403Y-101246916D01*
X141043742Y-101250426D01*
X141019850Y-101251600D01*
X140107350Y-101251600D01*
X140083458Y-101250426D01*
X140059797Y-101246916D01*
X140036593Y-101241104D01*
X140014071Y-101233046D01*
X139992447Y-101222818D01*
X139971930Y-101210521D01*
X139952717Y-101196271D01*
X139934993Y-101180207D01*
X139918929Y-101162483D01*
X139904679Y-101143270D01*
X139892382Y-101122753D01*
X139882154Y-101101129D01*
X139874096Y-101078607D01*
X139868284Y-101055403D01*
X139864774Y-101031742D01*
X139863600Y-101007850D01*
X139863600Y-100520350D01*
X139864774Y-100496458D01*
X139868284Y-100472797D01*
X139874096Y-100449593D01*
X139882154Y-100427071D01*
X139892382Y-100405447D01*
X139904679Y-100384930D01*
X139918929Y-100365717D01*
X139934993Y-100347993D01*
X139952717Y-100331929D01*
X139971930Y-100317679D01*
X139992447Y-100305382D01*
X140014071Y-100295154D01*
X140036593Y-100287096D01*
X140059797Y-100281284D01*
X140083458Y-100277774D01*
X140107350Y-100276600D01*
X141019850Y-100276600D01*
X141043742Y-100277774D01*
X141043742Y-100277774D01*
G37*
D11*
X140563600Y-100764100D03*
D14*
X138274600Y-117576600D03*
X141074600Y-117576600D03*
X146510200Y-79603600D03*
X143710200Y-79603600D03*
X143710200Y-82067400D03*
X146510200Y-82067400D03*
X142643400Y-70256400D03*
X145443400Y-70256400D03*
D10*
G36*
X194585504Y-30825404D02*
G01*
X194609773Y-30829004D01*
X194633571Y-30834965D01*
X194656671Y-30843230D01*
X194678849Y-30853720D01*
X194699893Y-30866333D01*
X194719598Y-30880947D01*
X194737777Y-30897423D01*
X194754253Y-30915602D01*
X194768867Y-30935307D01*
X194781480Y-30956351D01*
X194791970Y-30978529D01*
X194800235Y-31001629D01*
X194806196Y-31025427D01*
X194809796Y-31049696D01*
X194811000Y-31074200D01*
X194811000Y-32324200D01*
X194809796Y-32348704D01*
X194806196Y-32372973D01*
X194800235Y-32396771D01*
X194791970Y-32419871D01*
X194781480Y-32442049D01*
X194768867Y-32463093D01*
X194754253Y-32482798D01*
X194737777Y-32500977D01*
X194719598Y-32517453D01*
X194699893Y-32532067D01*
X194678849Y-32544680D01*
X194656671Y-32555170D01*
X194633571Y-32563435D01*
X194609773Y-32569396D01*
X194585504Y-32572996D01*
X194561000Y-32574200D01*
X193811000Y-32574200D01*
X193786496Y-32572996D01*
X193762227Y-32569396D01*
X193738429Y-32563435D01*
X193715329Y-32555170D01*
X193693151Y-32544680D01*
X193672107Y-32532067D01*
X193652402Y-32517453D01*
X193634223Y-32500977D01*
X193617747Y-32482798D01*
X193603133Y-32463093D01*
X193590520Y-32442049D01*
X193580030Y-32419871D01*
X193571765Y-32396771D01*
X193565804Y-32372973D01*
X193562204Y-32348704D01*
X193561000Y-32324200D01*
X193561000Y-31074200D01*
X193562204Y-31049696D01*
X193565804Y-31025427D01*
X193571765Y-31001629D01*
X193580030Y-30978529D01*
X193590520Y-30956351D01*
X193603133Y-30935307D01*
X193617747Y-30915602D01*
X193634223Y-30897423D01*
X193652402Y-30880947D01*
X193672107Y-30866333D01*
X193693151Y-30853720D01*
X193715329Y-30843230D01*
X193738429Y-30834965D01*
X193762227Y-30829004D01*
X193786496Y-30825404D01*
X193811000Y-30824200D01*
X194561000Y-30824200D01*
X194585504Y-30825404D01*
X194585504Y-30825404D01*
G37*
D15*
X194186000Y-31699200D03*
D10*
G36*
X191785504Y-30825404D02*
G01*
X191809773Y-30829004D01*
X191833571Y-30834965D01*
X191856671Y-30843230D01*
X191878849Y-30853720D01*
X191899893Y-30866333D01*
X191919598Y-30880947D01*
X191937777Y-30897423D01*
X191954253Y-30915602D01*
X191968867Y-30935307D01*
X191981480Y-30956351D01*
X191991970Y-30978529D01*
X192000235Y-31001629D01*
X192006196Y-31025427D01*
X192009796Y-31049696D01*
X192011000Y-31074200D01*
X192011000Y-32324200D01*
X192009796Y-32348704D01*
X192006196Y-32372973D01*
X192000235Y-32396771D01*
X191991970Y-32419871D01*
X191981480Y-32442049D01*
X191968867Y-32463093D01*
X191954253Y-32482798D01*
X191937777Y-32500977D01*
X191919598Y-32517453D01*
X191899893Y-32532067D01*
X191878849Y-32544680D01*
X191856671Y-32555170D01*
X191833571Y-32563435D01*
X191809773Y-32569396D01*
X191785504Y-32572996D01*
X191761000Y-32574200D01*
X191011000Y-32574200D01*
X190986496Y-32572996D01*
X190962227Y-32569396D01*
X190938429Y-32563435D01*
X190915329Y-32555170D01*
X190893151Y-32544680D01*
X190872107Y-32532067D01*
X190852402Y-32517453D01*
X190834223Y-32500977D01*
X190817747Y-32482798D01*
X190803133Y-32463093D01*
X190790520Y-32442049D01*
X190780030Y-32419871D01*
X190771765Y-32396771D01*
X190765804Y-32372973D01*
X190762204Y-32348704D01*
X190761000Y-32324200D01*
X190761000Y-31074200D01*
X190762204Y-31049696D01*
X190765804Y-31025427D01*
X190771765Y-31001629D01*
X190780030Y-30978529D01*
X190790520Y-30956351D01*
X190803133Y-30935307D01*
X190817747Y-30915602D01*
X190834223Y-30897423D01*
X190852402Y-30880947D01*
X190872107Y-30866333D01*
X190893151Y-30853720D01*
X190915329Y-30843230D01*
X190938429Y-30834965D01*
X190962227Y-30829004D01*
X190986496Y-30825404D01*
X191011000Y-30824200D01*
X191761000Y-30824200D01*
X191785504Y-30825404D01*
X191785504Y-30825404D01*
G37*
D15*
X191386000Y-31699200D03*
D10*
G36*
X181885504Y-31714404D02*
G01*
X181909773Y-31718004D01*
X181933571Y-31723965D01*
X181956671Y-31732230D01*
X181978849Y-31742720D01*
X181999893Y-31755333D01*
X182019598Y-31769947D01*
X182037777Y-31786423D01*
X182054253Y-31804602D01*
X182068867Y-31824307D01*
X182081480Y-31845351D01*
X182091970Y-31867529D01*
X182100235Y-31890629D01*
X182106196Y-31914427D01*
X182109796Y-31938696D01*
X182111000Y-31963200D01*
X182111000Y-33213200D01*
X182109796Y-33237704D01*
X182106196Y-33261973D01*
X182100235Y-33285771D01*
X182091970Y-33308871D01*
X182081480Y-33331049D01*
X182068867Y-33352093D01*
X182054253Y-33371798D01*
X182037777Y-33389977D01*
X182019598Y-33406453D01*
X181999893Y-33421067D01*
X181978849Y-33433680D01*
X181956671Y-33444170D01*
X181933571Y-33452435D01*
X181909773Y-33458396D01*
X181885504Y-33461996D01*
X181861000Y-33463200D01*
X181111000Y-33463200D01*
X181086496Y-33461996D01*
X181062227Y-33458396D01*
X181038429Y-33452435D01*
X181015329Y-33444170D01*
X180993151Y-33433680D01*
X180972107Y-33421067D01*
X180952402Y-33406453D01*
X180934223Y-33389977D01*
X180917747Y-33371798D01*
X180903133Y-33352093D01*
X180890520Y-33331049D01*
X180880030Y-33308871D01*
X180871765Y-33285771D01*
X180865804Y-33261973D01*
X180862204Y-33237704D01*
X180861000Y-33213200D01*
X180861000Y-31963200D01*
X180862204Y-31938696D01*
X180865804Y-31914427D01*
X180871765Y-31890629D01*
X180880030Y-31867529D01*
X180890520Y-31845351D01*
X180903133Y-31824307D01*
X180917747Y-31804602D01*
X180934223Y-31786423D01*
X180952402Y-31769947D01*
X180972107Y-31755333D01*
X180993151Y-31742720D01*
X181015329Y-31732230D01*
X181038429Y-31723965D01*
X181062227Y-31718004D01*
X181086496Y-31714404D01*
X181111000Y-31713200D01*
X181861000Y-31713200D01*
X181885504Y-31714404D01*
X181885504Y-31714404D01*
G37*
D15*
X181486000Y-32588200D03*
D10*
G36*
X179085504Y-31714404D02*
G01*
X179109773Y-31718004D01*
X179133571Y-31723965D01*
X179156671Y-31732230D01*
X179178849Y-31742720D01*
X179199893Y-31755333D01*
X179219598Y-31769947D01*
X179237777Y-31786423D01*
X179254253Y-31804602D01*
X179268867Y-31824307D01*
X179281480Y-31845351D01*
X179291970Y-31867529D01*
X179300235Y-31890629D01*
X179306196Y-31914427D01*
X179309796Y-31938696D01*
X179311000Y-31963200D01*
X179311000Y-33213200D01*
X179309796Y-33237704D01*
X179306196Y-33261973D01*
X179300235Y-33285771D01*
X179291970Y-33308871D01*
X179281480Y-33331049D01*
X179268867Y-33352093D01*
X179254253Y-33371798D01*
X179237777Y-33389977D01*
X179219598Y-33406453D01*
X179199893Y-33421067D01*
X179178849Y-33433680D01*
X179156671Y-33444170D01*
X179133571Y-33452435D01*
X179109773Y-33458396D01*
X179085504Y-33461996D01*
X179061000Y-33463200D01*
X178311000Y-33463200D01*
X178286496Y-33461996D01*
X178262227Y-33458396D01*
X178238429Y-33452435D01*
X178215329Y-33444170D01*
X178193151Y-33433680D01*
X178172107Y-33421067D01*
X178152402Y-33406453D01*
X178134223Y-33389977D01*
X178117747Y-33371798D01*
X178103133Y-33352093D01*
X178090520Y-33331049D01*
X178080030Y-33308871D01*
X178071765Y-33285771D01*
X178065804Y-33261973D01*
X178062204Y-33237704D01*
X178061000Y-33213200D01*
X178061000Y-31963200D01*
X178062204Y-31938696D01*
X178065804Y-31914427D01*
X178071765Y-31890629D01*
X178080030Y-31867529D01*
X178090520Y-31845351D01*
X178103133Y-31824307D01*
X178117747Y-31804602D01*
X178134223Y-31786423D01*
X178152402Y-31769947D01*
X178172107Y-31755333D01*
X178193151Y-31742720D01*
X178215329Y-31732230D01*
X178238429Y-31723965D01*
X178262227Y-31718004D01*
X178286496Y-31714404D01*
X178311000Y-31713200D01*
X179061000Y-31713200D01*
X179085504Y-31714404D01*
X179085504Y-31714404D01*
G37*
D15*
X178686000Y-32588200D03*
D10*
G36*
X169261704Y-31257204D02*
G01*
X169285973Y-31260804D01*
X169309771Y-31266765D01*
X169332871Y-31275030D01*
X169355049Y-31285520D01*
X169376093Y-31298133D01*
X169395798Y-31312747D01*
X169413977Y-31329223D01*
X169430453Y-31347402D01*
X169445067Y-31367107D01*
X169457680Y-31388151D01*
X169468170Y-31410329D01*
X169476435Y-31433429D01*
X169482396Y-31457227D01*
X169485996Y-31481496D01*
X169487200Y-31506000D01*
X169487200Y-32756000D01*
X169485996Y-32780504D01*
X169482396Y-32804773D01*
X169476435Y-32828571D01*
X169468170Y-32851671D01*
X169457680Y-32873849D01*
X169445067Y-32894893D01*
X169430453Y-32914598D01*
X169413977Y-32932777D01*
X169395798Y-32949253D01*
X169376093Y-32963867D01*
X169355049Y-32976480D01*
X169332871Y-32986970D01*
X169309771Y-32995235D01*
X169285973Y-33001196D01*
X169261704Y-33004796D01*
X169237200Y-33006000D01*
X168487200Y-33006000D01*
X168462696Y-33004796D01*
X168438427Y-33001196D01*
X168414629Y-32995235D01*
X168391529Y-32986970D01*
X168369351Y-32976480D01*
X168348307Y-32963867D01*
X168328602Y-32949253D01*
X168310423Y-32932777D01*
X168293947Y-32914598D01*
X168279333Y-32894893D01*
X168266720Y-32873849D01*
X168256230Y-32851671D01*
X168247965Y-32828571D01*
X168242004Y-32804773D01*
X168238404Y-32780504D01*
X168237200Y-32756000D01*
X168237200Y-31506000D01*
X168238404Y-31481496D01*
X168242004Y-31457227D01*
X168247965Y-31433429D01*
X168256230Y-31410329D01*
X168266720Y-31388151D01*
X168279333Y-31367107D01*
X168293947Y-31347402D01*
X168310423Y-31329223D01*
X168328602Y-31312747D01*
X168348307Y-31298133D01*
X168369351Y-31285520D01*
X168391529Y-31275030D01*
X168414629Y-31266765D01*
X168438427Y-31260804D01*
X168462696Y-31257204D01*
X168487200Y-31256000D01*
X169237200Y-31256000D01*
X169261704Y-31257204D01*
X169261704Y-31257204D01*
G37*
D15*
X168862200Y-32131000D03*
D10*
G36*
X166461704Y-31257204D02*
G01*
X166485973Y-31260804D01*
X166509771Y-31266765D01*
X166532871Y-31275030D01*
X166555049Y-31285520D01*
X166576093Y-31298133D01*
X166595798Y-31312747D01*
X166613977Y-31329223D01*
X166630453Y-31347402D01*
X166645067Y-31367107D01*
X166657680Y-31388151D01*
X166668170Y-31410329D01*
X166676435Y-31433429D01*
X166682396Y-31457227D01*
X166685996Y-31481496D01*
X166687200Y-31506000D01*
X166687200Y-32756000D01*
X166685996Y-32780504D01*
X166682396Y-32804773D01*
X166676435Y-32828571D01*
X166668170Y-32851671D01*
X166657680Y-32873849D01*
X166645067Y-32894893D01*
X166630453Y-32914598D01*
X166613977Y-32932777D01*
X166595798Y-32949253D01*
X166576093Y-32963867D01*
X166555049Y-32976480D01*
X166532871Y-32986970D01*
X166509771Y-32995235D01*
X166485973Y-33001196D01*
X166461704Y-33004796D01*
X166437200Y-33006000D01*
X165687200Y-33006000D01*
X165662696Y-33004796D01*
X165638427Y-33001196D01*
X165614629Y-32995235D01*
X165591529Y-32986970D01*
X165569351Y-32976480D01*
X165548307Y-32963867D01*
X165528602Y-32949253D01*
X165510423Y-32932777D01*
X165493947Y-32914598D01*
X165479333Y-32894893D01*
X165466720Y-32873849D01*
X165456230Y-32851671D01*
X165447965Y-32828571D01*
X165442004Y-32804773D01*
X165438404Y-32780504D01*
X165437200Y-32756000D01*
X165437200Y-31506000D01*
X165438404Y-31481496D01*
X165442004Y-31457227D01*
X165447965Y-31433429D01*
X165456230Y-31410329D01*
X165466720Y-31388151D01*
X165479333Y-31367107D01*
X165493947Y-31347402D01*
X165510423Y-31329223D01*
X165528602Y-31312747D01*
X165548307Y-31298133D01*
X165569351Y-31285520D01*
X165591529Y-31275030D01*
X165614629Y-31266765D01*
X165638427Y-31260804D01*
X165662696Y-31257204D01*
X165687200Y-31256000D01*
X166437200Y-31256000D01*
X166461704Y-31257204D01*
X166461704Y-31257204D01*
G37*
D15*
X166062200Y-32131000D03*
D10*
G36*
X156434704Y-32400204D02*
G01*
X156458973Y-32403804D01*
X156482771Y-32409765D01*
X156505871Y-32418030D01*
X156528049Y-32428520D01*
X156549093Y-32441133D01*
X156568798Y-32455747D01*
X156586977Y-32472223D01*
X156603453Y-32490402D01*
X156618067Y-32510107D01*
X156630680Y-32531151D01*
X156641170Y-32553329D01*
X156649435Y-32576429D01*
X156655396Y-32600227D01*
X156658996Y-32624496D01*
X156660200Y-32649000D01*
X156660200Y-33899000D01*
X156658996Y-33923504D01*
X156655396Y-33947773D01*
X156649435Y-33971571D01*
X156641170Y-33994671D01*
X156630680Y-34016849D01*
X156618067Y-34037893D01*
X156603453Y-34057598D01*
X156586977Y-34075777D01*
X156568798Y-34092253D01*
X156549093Y-34106867D01*
X156528049Y-34119480D01*
X156505871Y-34129970D01*
X156482771Y-34138235D01*
X156458973Y-34144196D01*
X156434704Y-34147796D01*
X156410200Y-34149000D01*
X155660200Y-34149000D01*
X155635696Y-34147796D01*
X155611427Y-34144196D01*
X155587629Y-34138235D01*
X155564529Y-34129970D01*
X155542351Y-34119480D01*
X155521307Y-34106867D01*
X155501602Y-34092253D01*
X155483423Y-34075777D01*
X155466947Y-34057598D01*
X155452333Y-34037893D01*
X155439720Y-34016849D01*
X155429230Y-33994671D01*
X155420965Y-33971571D01*
X155415004Y-33947773D01*
X155411404Y-33923504D01*
X155410200Y-33899000D01*
X155410200Y-32649000D01*
X155411404Y-32624496D01*
X155415004Y-32600227D01*
X155420965Y-32576429D01*
X155429230Y-32553329D01*
X155439720Y-32531151D01*
X155452333Y-32510107D01*
X155466947Y-32490402D01*
X155483423Y-32472223D01*
X155501602Y-32455747D01*
X155521307Y-32441133D01*
X155542351Y-32428520D01*
X155564529Y-32418030D01*
X155587629Y-32409765D01*
X155611427Y-32403804D01*
X155635696Y-32400204D01*
X155660200Y-32399000D01*
X156410200Y-32399000D01*
X156434704Y-32400204D01*
X156434704Y-32400204D01*
G37*
D15*
X156035200Y-33274000D03*
D10*
G36*
X153634704Y-32400204D02*
G01*
X153658973Y-32403804D01*
X153682771Y-32409765D01*
X153705871Y-32418030D01*
X153728049Y-32428520D01*
X153749093Y-32441133D01*
X153768798Y-32455747D01*
X153786977Y-32472223D01*
X153803453Y-32490402D01*
X153818067Y-32510107D01*
X153830680Y-32531151D01*
X153841170Y-32553329D01*
X153849435Y-32576429D01*
X153855396Y-32600227D01*
X153858996Y-32624496D01*
X153860200Y-32649000D01*
X153860200Y-33899000D01*
X153858996Y-33923504D01*
X153855396Y-33947773D01*
X153849435Y-33971571D01*
X153841170Y-33994671D01*
X153830680Y-34016849D01*
X153818067Y-34037893D01*
X153803453Y-34057598D01*
X153786977Y-34075777D01*
X153768798Y-34092253D01*
X153749093Y-34106867D01*
X153728049Y-34119480D01*
X153705871Y-34129970D01*
X153682771Y-34138235D01*
X153658973Y-34144196D01*
X153634704Y-34147796D01*
X153610200Y-34149000D01*
X152860200Y-34149000D01*
X152835696Y-34147796D01*
X152811427Y-34144196D01*
X152787629Y-34138235D01*
X152764529Y-34129970D01*
X152742351Y-34119480D01*
X152721307Y-34106867D01*
X152701602Y-34092253D01*
X152683423Y-34075777D01*
X152666947Y-34057598D01*
X152652333Y-34037893D01*
X152639720Y-34016849D01*
X152629230Y-33994671D01*
X152620965Y-33971571D01*
X152615004Y-33947773D01*
X152611404Y-33923504D01*
X152610200Y-33899000D01*
X152610200Y-32649000D01*
X152611404Y-32624496D01*
X152615004Y-32600227D01*
X152620965Y-32576429D01*
X152629230Y-32553329D01*
X152639720Y-32531151D01*
X152652333Y-32510107D01*
X152666947Y-32490402D01*
X152683423Y-32472223D01*
X152701602Y-32455747D01*
X152721307Y-32441133D01*
X152742351Y-32428520D01*
X152764529Y-32418030D01*
X152787629Y-32409765D01*
X152811427Y-32403804D01*
X152835696Y-32400204D01*
X152860200Y-32399000D01*
X153610200Y-32399000D01*
X153634704Y-32400204D01*
X153634704Y-32400204D01*
G37*
D15*
X153235200Y-33274000D03*
D10*
G36*
X143709304Y-27371004D02*
G01*
X143733573Y-27374604D01*
X143757371Y-27380565D01*
X143780471Y-27388830D01*
X143802649Y-27399320D01*
X143823693Y-27411933D01*
X143843398Y-27426547D01*
X143861577Y-27443023D01*
X143878053Y-27461202D01*
X143892667Y-27480907D01*
X143905280Y-27501951D01*
X143915770Y-27524129D01*
X143924035Y-27547229D01*
X143929996Y-27571027D01*
X143933596Y-27595296D01*
X143934800Y-27619800D01*
X143934800Y-28869800D01*
X143933596Y-28894304D01*
X143929996Y-28918573D01*
X143924035Y-28942371D01*
X143915770Y-28965471D01*
X143905280Y-28987649D01*
X143892667Y-29008693D01*
X143878053Y-29028398D01*
X143861577Y-29046577D01*
X143843398Y-29063053D01*
X143823693Y-29077667D01*
X143802649Y-29090280D01*
X143780471Y-29100770D01*
X143757371Y-29109035D01*
X143733573Y-29114996D01*
X143709304Y-29118596D01*
X143684800Y-29119800D01*
X142934800Y-29119800D01*
X142910296Y-29118596D01*
X142886027Y-29114996D01*
X142862229Y-29109035D01*
X142839129Y-29100770D01*
X142816951Y-29090280D01*
X142795907Y-29077667D01*
X142776202Y-29063053D01*
X142758023Y-29046577D01*
X142741547Y-29028398D01*
X142726933Y-29008693D01*
X142714320Y-28987649D01*
X142703830Y-28965471D01*
X142695565Y-28942371D01*
X142689604Y-28918573D01*
X142686004Y-28894304D01*
X142684800Y-28869800D01*
X142684800Y-27619800D01*
X142686004Y-27595296D01*
X142689604Y-27571027D01*
X142695565Y-27547229D01*
X142703830Y-27524129D01*
X142714320Y-27501951D01*
X142726933Y-27480907D01*
X142741547Y-27461202D01*
X142758023Y-27443023D01*
X142776202Y-27426547D01*
X142795907Y-27411933D01*
X142816951Y-27399320D01*
X142839129Y-27388830D01*
X142862229Y-27380565D01*
X142886027Y-27374604D01*
X142910296Y-27371004D01*
X142934800Y-27369800D01*
X143684800Y-27369800D01*
X143709304Y-27371004D01*
X143709304Y-27371004D01*
G37*
D15*
X143309800Y-28244800D03*
D10*
G36*
X140909304Y-27371004D02*
G01*
X140933573Y-27374604D01*
X140957371Y-27380565D01*
X140980471Y-27388830D01*
X141002649Y-27399320D01*
X141023693Y-27411933D01*
X141043398Y-27426547D01*
X141061577Y-27443023D01*
X141078053Y-27461202D01*
X141092667Y-27480907D01*
X141105280Y-27501951D01*
X141115770Y-27524129D01*
X141124035Y-27547229D01*
X141129996Y-27571027D01*
X141133596Y-27595296D01*
X141134800Y-27619800D01*
X141134800Y-28869800D01*
X141133596Y-28894304D01*
X141129996Y-28918573D01*
X141124035Y-28942371D01*
X141115770Y-28965471D01*
X141105280Y-28987649D01*
X141092667Y-29008693D01*
X141078053Y-29028398D01*
X141061577Y-29046577D01*
X141043398Y-29063053D01*
X141023693Y-29077667D01*
X141002649Y-29090280D01*
X140980471Y-29100770D01*
X140957371Y-29109035D01*
X140933573Y-29114996D01*
X140909304Y-29118596D01*
X140884800Y-29119800D01*
X140134800Y-29119800D01*
X140110296Y-29118596D01*
X140086027Y-29114996D01*
X140062229Y-29109035D01*
X140039129Y-29100770D01*
X140016951Y-29090280D01*
X139995907Y-29077667D01*
X139976202Y-29063053D01*
X139958023Y-29046577D01*
X139941547Y-29028398D01*
X139926933Y-29008693D01*
X139914320Y-28987649D01*
X139903830Y-28965471D01*
X139895565Y-28942371D01*
X139889604Y-28918573D01*
X139886004Y-28894304D01*
X139884800Y-28869800D01*
X139884800Y-27619800D01*
X139886004Y-27595296D01*
X139889604Y-27571027D01*
X139895565Y-27547229D01*
X139903830Y-27524129D01*
X139914320Y-27501951D01*
X139926933Y-27480907D01*
X139941547Y-27461202D01*
X139958023Y-27443023D01*
X139976202Y-27426547D01*
X139995907Y-27411933D01*
X140016951Y-27399320D01*
X140039129Y-27388830D01*
X140062229Y-27380565D01*
X140086027Y-27374604D01*
X140110296Y-27371004D01*
X140134800Y-27369800D01*
X140884800Y-27369800D01*
X140909304Y-27371004D01*
X140909304Y-27371004D01*
G37*
D15*
X140509800Y-28244800D03*
D10*
G36*
X131085504Y-31866804D02*
G01*
X131109773Y-31870404D01*
X131133571Y-31876365D01*
X131156671Y-31884630D01*
X131178849Y-31895120D01*
X131199893Y-31907733D01*
X131219598Y-31922347D01*
X131237777Y-31938823D01*
X131254253Y-31957002D01*
X131268867Y-31976707D01*
X131281480Y-31997751D01*
X131291970Y-32019929D01*
X131300235Y-32043029D01*
X131306196Y-32066827D01*
X131309796Y-32091096D01*
X131311000Y-32115600D01*
X131311000Y-33365600D01*
X131309796Y-33390104D01*
X131306196Y-33414373D01*
X131300235Y-33438171D01*
X131291970Y-33461271D01*
X131281480Y-33483449D01*
X131268867Y-33504493D01*
X131254253Y-33524198D01*
X131237777Y-33542377D01*
X131219598Y-33558853D01*
X131199893Y-33573467D01*
X131178849Y-33586080D01*
X131156671Y-33596570D01*
X131133571Y-33604835D01*
X131109773Y-33610796D01*
X131085504Y-33614396D01*
X131061000Y-33615600D01*
X130311000Y-33615600D01*
X130286496Y-33614396D01*
X130262227Y-33610796D01*
X130238429Y-33604835D01*
X130215329Y-33596570D01*
X130193151Y-33586080D01*
X130172107Y-33573467D01*
X130152402Y-33558853D01*
X130134223Y-33542377D01*
X130117747Y-33524198D01*
X130103133Y-33504493D01*
X130090520Y-33483449D01*
X130080030Y-33461271D01*
X130071765Y-33438171D01*
X130065804Y-33414373D01*
X130062204Y-33390104D01*
X130061000Y-33365600D01*
X130061000Y-32115600D01*
X130062204Y-32091096D01*
X130065804Y-32066827D01*
X130071765Y-32043029D01*
X130080030Y-32019929D01*
X130090520Y-31997751D01*
X130103133Y-31976707D01*
X130117747Y-31957002D01*
X130134223Y-31938823D01*
X130152402Y-31922347D01*
X130172107Y-31907733D01*
X130193151Y-31895120D01*
X130215329Y-31884630D01*
X130238429Y-31876365D01*
X130262227Y-31870404D01*
X130286496Y-31866804D01*
X130311000Y-31865600D01*
X131061000Y-31865600D01*
X131085504Y-31866804D01*
X131085504Y-31866804D01*
G37*
D15*
X130686000Y-32740600D03*
D10*
G36*
X128285504Y-31866804D02*
G01*
X128309773Y-31870404D01*
X128333571Y-31876365D01*
X128356671Y-31884630D01*
X128378849Y-31895120D01*
X128399893Y-31907733D01*
X128419598Y-31922347D01*
X128437777Y-31938823D01*
X128454253Y-31957002D01*
X128468867Y-31976707D01*
X128481480Y-31997751D01*
X128491970Y-32019929D01*
X128500235Y-32043029D01*
X128506196Y-32066827D01*
X128509796Y-32091096D01*
X128511000Y-32115600D01*
X128511000Y-33365600D01*
X128509796Y-33390104D01*
X128506196Y-33414373D01*
X128500235Y-33438171D01*
X128491970Y-33461271D01*
X128481480Y-33483449D01*
X128468867Y-33504493D01*
X128454253Y-33524198D01*
X128437777Y-33542377D01*
X128419598Y-33558853D01*
X128399893Y-33573467D01*
X128378849Y-33586080D01*
X128356671Y-33596570D01*
X128333571Y-33604835D01*
X128309773Y-33610796D01*
X128285504Y-33614396D01*
X128261000Y-33615600D01*
X127511000Y-33615600D01*
X127486496Y-33614396D01*
X127462227Y-33610796D01*
X127438429Y-33604835D01*
X127415329Y-33596570D01*
X127393151Y-33586080D01*
X127372107Y-33573467D01*
X127352402Y-33558853D01*
X127334223Y-33542377D01*
X127317747Y-33524198D01*
X127303133Y-33504493D01*
X127290520Y-33483449D01*
X127280030Y-33461271D01*
X127271765Y-33438171D01*
X127265804Y-33414373D01*
X127262204Y-33390104D01*
X127261000Y-33365600D01*
X127261000Y-32115600D01*
X127262204Y-32091096D01*
X127265804Y-32066827D01*
X127271765Y-32043029D01*
X127280030Y-32019929D01*
X127290520Y-31997751D01*
X127303133Y-31976707D01*
X127317747Y-31957002D01*
X127334223Y-31938823D01*
X127352402Y-31922347D01*
X127372107Y-31907733D01*
X127393151Y-31895120D01*
X127415329Y-31884630D01*
X127438429Y-31876365D01*
X127462227Y-31870404D01*
X127486496Y-31866804D01*
X127511000Y-31865600D01*
X128261000Y-31865600D01*
X128285504Y-31866804D01*
X128285504Y-31866804D01*
G37*
D15*
X127886000Y-32740600D03*
D10*
G36*
X118309304Y-30977804D02*
G01*
X118333573Y-30981404D01*
X118357371Y-30987365D01*
X118380471Y-30995630D01*
X118402649Y-31006120D01*
X118423693Y-31018733D01*
X118443398Y-31033347D01*
X118461577Y-31049823D01*
X118478053Y-31068002D01*
X118492667Y-31087707D01*
X118505280Y-31108751D01*
X118515770Y-31130929D01*
X118524035Y-31154029D01*
X118529996Y-31177827D01*
X118533596Y-31202096D01*
X118534800Y-31226600D01*
X118534800Y-32476600D01*
X118533596Y-32501104D01*
X118529996Y-32525373D01*
X118524035Y-32549171D01*
X118515770Y-32572271D01*
X118505280Y-32594449D01*
X118492667Y-32615493D01*
X118478053Y-32635198D01*
X118461577Y-32653377D01*
X118443398Y-32669853D01*
X118423693Y-32684467D01*
X118402649Y-32697080D01*
X118380471Y-32707570D01*
X118357371Y-32715835D01*
X118333573Y-32721796D01*
X118309304Y-32725396D01*
X118284800Y-32726600D01*
X117534800Y-32726600D01*
X117510296Y-32725396D01*
X117486027Y-32721796D01*
X117462229Y-32715835D01*
X117439129Y-32707570D01*
X117416951Y-32697080D01*
X117395907Y-32684467D01*
X117376202Y-32669853D01*
X117358023Y-32653377D01*
X117341547Y-32635198D01*
X117326933Y-32615493D01*
X117314320Y-32594449D01*
X117303830Y-32572271D01*
X117295565Y-32549171D01*
X117289604Y-32525373D01*
X117286004Y-32501104D01*
X117284800Y-32476600D01*
X117284800Y-31226600D01*
X117286004Y-31202096D01*
X117289604Y-31177827D01*
X117295565Y-31154029D01*
X117303830Y-31130929D01*
X117314320Y-31108751D01*
X117326933Y-31087707D01*
X117341547Y-31068002D01*
X117358023Y-31049823D01*
X117376202Y-31033347D01*
X117395907Y-31018733D01*
X117416951Y-31006120D01*
X117439129Y-30995630D01*
X117462229Y-30987365D01*
X117486027Y-30981404D01*
X117510296Y-30977804D01*
X117534800Y-30976600D01*
X118284800Y-30976600D01*
X118309304Y-30977804D01*
X118309304Y-30977804D01*
G37*
D15*
X117909800Y-31851600D03*
D10*
G36*
X115509304Y-30977804D02*
G01*
X115533573Y-30981404D01*
X115557371Y-30987365D01*
X115580471Y-30995630D01*
X115602649Y-31006120D01*
X115623693Y-31018733D01*
X115643398Y-31033347D01*
X115661577Y-31049823D01*
X115678053Y-31068002D01*
X115692667Y-31087707D01*
X115705280Y-31108751D01*
X115715770Y-31130929D01*
X115724035Y-31154029D01*
X115729996Y-31177827D01*
X115733596Y-31202096D01*
X115734800Y-31226600D01*
X115734800Y-32476600D01*
X115733596Y-32501104D01*
X115729996Y-32525373D01*
X115724035Y-32549171D01*
X115715770Y-32572271D01*
X115705280Y-32594449D01*
X115692667Y-32615493D01*
X115678053Y-32635198D01*
X115661577Y-32653377D01*
X115643398Y-32669853D01*
X115623693Y-32684467D01*
X115602649Y-32697080D01*
X115580471Y-32707570D01*
X115557371Y-32715835D01*
X115533573Y-32721796D01*
X115509304Y-32725396D01*
X115484800Y-32726600D01*
X114734800Y-32726600D01*
X114710296Y-32725396D01*
X114686027Y-32721796D01*
X114662229Y-32715835D01*
X114639129Y-32707570D01*
X114616951Y-32697080D01*
X114595907Y-32684467D01*
X114576202Y-32669853D01*
X114558023Y-32653377D01*
X114541547Y-32635198D01*
X114526933Y-32615493D01*
X114514320Y-32594449D01*
X114503830Y-32572271D01*
X114495565Y-32549171D01*
X114489604Y-32525373D01*
X114486004Y-32501104D01*
X114484800Y-32476600D01*
X114484800Y-31226600D01*
X114486004Y-31202096D01*
X114489604Y-31177827D01*
X114495565Y-31154029D01*
X114503830Y-31130929D01*
X114514320Y-31108751D01*
X114526933Y-31087707D01*
X114541547Y-31068002D01*
X114558023Y-31049823D01*
X114576202Y-31033347D01*
X114595907Y-31018733D01*
X114616951Y-31006120D01*
X114639129Y-30995630D01*
X114662229Y-30987365D01*
X114686027Y-30981404D01*
X114710296Y-30977804D01*
X114734800Y-30976600D01*
X115484800Y-30976600D01*
X115509304Y-30977804D01*
X115509304Y-30977804D01*
G37*
D15*
X115109800Y-31851600D03*
D10*
G36*
X105710904Y-32349404D02*
G01*
X105735173Y-32353004D01*
X105758971Y-32358965D01*
X105782071Y-32367230D01*
X105804249Y-32377720D01*
X105825293Y-32390333D01*
X105844998Y-32404947D01*
X105863177Y-32421423D01*
X105879653Y-32439602D01*
X105894267Y-32459307D01*
X105906880Y-32480351D01*
X105917370Y-32502529D01*
X105925635Y-32525629D01*
X105931596Y-32549427D01*
X105935196Y-32573696D01*
X105936400Y-32598200D01*
X105936400Y-33848200D01*
X105935196Y-33872704D01*
X105931596Y-33896973D01*
X105925635Y-33920771D01*
X105917370Y-33943871D01*
X105906880Y-33966049D01*
X105894267Y-33987093D01*
X105879653Y-34006798D01*
X105863177Y-34024977D01*
X105844998Y-34041453D01*
X105825293Y-34056067D01*
X105804249Y-34068680D01*
X105782071Y-34079170D01*
X105758971Y-34087435D01*
X105735173Y-34093396D01*
X105710904Y-34096996D01*
X105686400Y-34098200D01*
X104936400Y-34098200D01*
X104911896Y-34096996D01*
X104887627Y-34093396D01*
X104863829Y-34087435D01*
X104840729Y-34079170D01*
X104818551Y-34068680D01*
X104797507Y-34056067D01*
X104777802Y-34041453D01*
X104759623Y-34024977D01*
X104743147Y-34006798D01*
X104728533Y-33987093D01*
X104715920Y-33966049D01*
X104705430Y-33943871D01*
X104697165Y-33920771D01*
X104691204Y-33896973D01*
X104687604Y-33872704D01*
X104686400Y-33848200D01*
X104686400Y-32598200D01*
X104687604Y-32573696D01*
X104691204Y-32549427D01*
X104697165Y-32525629D01*
X104705430Y-32502529D01*
X104715920Y-32480351D01*
X104728533Y-32459307D01*
X104743147Y-32439602D01*
X104759623Y-32421423D01*
X104777802Y-32404947D01*
X104797507Y-32390333D01*
X104818551Y-32377720D01*
X104840729Y-32367230D01*
X104863829Y-32358965D01*
X104887627Y-32353004D01*
X104911896Y-32349404D01*
X104936400Y-32348200D01*
X105686400Y-32348200D01*
X105710904Y-32349404D01*
X105710904Y-32349404D01*
G37*
D15*
X105311400Y-33223200D03*
D10*
G36*
X102910904Y-32349404D02*
G01*
X102935173Y-32353004D01*
X102958971Y-32358965D01*
X102982071Y-32367230D01*
X103004249Y-32377720D01*
X103025293Y-32390333D01*
X103044998Y-32404947D01*
X103063177Y-32421423D01*
X103079653Y-32439602D01*
X103094267Y-32459307D01*
X103106880Y-32480351D01*
X103117370Y-32502529D01*
X103125635Y-32525629D01*
X103131596Y-32549427D01*
X103135196Y-32573696D01*
X103136400Y-32598200D01*
X103136400Y-33848200D01*
X103135196Y-33872704D01*
X103131596Y-33896973D01*
X103125635Y-33920771D01*
X103117370Y-33943871D01*
X103106880Y-33966049D01*
X103094267Y-33987093D01*
X103079653Y-34006798D01*
X103063177Y-34024977D01*
X103044998Y-34041453D01*
X103025293Y-34056067D01*
X103004249Y-34068680D01*
X102982071Y-34079170D01*
X102958971Y-34087435D01*
X102935173Y-34093396D01*
X102910904Y-34096996D01*
X102886400Y-34098200D01*
X102136400Y-34098200D01*
X102111896Y-34096996D01*
X102087627Y-34093396D01*
X102063829Y-34087435D01*
X102040729Y-34079170D01*
X102018551Y-34068680D01*
X101997507Y-34056067D01*
X101977802Y-34041453D01*
X101959623Y-34024977D01*
X101943147Y-34006798D01*
X101928533Y-33987093D01*
X101915920Y-33966049D01*
X101905430Y-33943871D01*
X101897165Y-33920771D01*
X101891204Y-33896973D01*
X101887604Y-33872704D01*
X101886400Y-33848200D01*
X101886400Y-32598200D01*
X101887604Y-32573696D01*
X101891204Y-32549427D01*
X101897165Y-32525629D01*
X101905430Y-32502529D01*
X101915920Y-32480351D01*
X101928533Y-32459307D01*
X101943147Y-32439602D01*
X101959623Y-32421423D01*
X101977802Y-32404947D01*
X101997507Y-32390333D01*
X102018551Y-32377720D01*
X102040729Y-32367230D01*
X102063829Y-32358965D01*
X102087627Y-32353004D01*
X102111896Y-32349404D01*
X102136400Y-32348200D01*
X102886400Y-32348200D01*
X102910904Y-32349404D01*
X102910904Y-32349404D01*
G37*
D15*
X102511400Y-33223200D03*
D10*
G36*
X93036304Y-31714404D02*
G01*
X93060573Y-31718004D01*
X93084371Y-31723965D01*
X93107471Y-31732230D01*
X93129649Y-31742720D01*
X93150693Y-31755333D01*
X93170398Y-31769947D01*
X93188577Y-31786423D01*
X93205053Y-31804602D01*
X93219667Y-31824307D01*
X93232280Y-31845351D01*
X93242770Y-31867529D01*
X93251035Y-31890629D01*
X93256996Y-31914427D01*
X93260596Y-31938696D01*
X93261800Y-31963200D01*
X93261800Y-33213200D01*
X93260596Y-33237704D01*
X93256996Y-33261973D01*
X93251035Y-33285771D01*
X93242770Y-33308871D01*
X93232280Y-33331049D01*
X93219667Y-33352093D01*
X93205053Y-33371798D01*
X93188577Y-33389977D01*
X93170398Y-33406453D01*
X93150693Y-33421067D01*
X93129649Y-33433680D01*
X93107471Y-33444170D01*
X93084371Y-33452435D01*
X93060573Y-33458396D01*
X93036304Y-33461996D01*
X93011800Y-33463200D01*
X92261800Y-33463200D01*
X92237296Y-33461996D01*
X92213027Y-33458396D01*
X92189229Y-33452435D01*
X92166129Y-33444170D01*
X92143951Y-33433680D01*
X92122907Y-33421067D01*
X92103202Y-33406453D01*
X92085023Y-33389977D01*
X92068547Y-33371798D01*
X92053933Y-33352093D01*
X92041320Y-33331049D01*
X92030830Y-33308871D01*
X92022565Y-33285771D01*
X92016604Y-33261973D01*
X92013004Y-33237704D01*
X92011800Y-33213200D01*
X92011800Y-31963200D01*
X92013004Y-31938696D01*
X92016604Y-31914427D01*
X92022565Y-31890629D01*
X92030830Y-31867529D01*
X92041320Y-31845351D01*
X92053933Y-31824307D01*
X92068547Y-31804602D01*
X92085023Y-31786423D01*
X92103202Y-31769947D01*
X92122907Y-31755333D01*
X92143951Y-31742720D01*
X92166129Y-31732230D01*
X92189229Y-31723965D01*
X92213027Y-31718004D01*
X92237296Y-31714404D01*
X92261800Y-31713200D01*
X93011800Y-31713200D01*
X93036304Y-31714404D01*
X93036304Y-31714404D01*
G37*
D15*
X92636800Y-32588200D03*
D10*
G36*
X90236304Y-31714404D02*
G01*
X90260573Y-31718004D01*
X90284371Y-31723965D01*
X90307471Y-31732230D01*
X90329649Y-31742720D01*
X90350693Y-31755333D01*
X90370398Y-31769947D01*
X90388577Y-31786423D01*
X90405053Y-31804602D01*
X90419667Y-31824307D01*
X90432280Y-31845351D01*
X90442770Y-31867529D01*
X90451035Y-31890629D01*
X90456996Y-31914427D01*
X90460596Y-31938696D01*
X90461800Y-31963200D01*
X90461800Y-33213200D01*
X90460596Y-33237704D01*
X90456996Y-33261973D01*
X90451035Y-33285771D01*
X90442770Y-33308871D01*
X90432280Y-33331049D01*
X90419667Y-33352093D01*
X90405053Y-33371798D01*
X90388577Y-33389977D01*
X90370398Y-33406453D01*
X90350693Y-33421067D01*
X90329649Y-33433680D01*
X90307471Y-33444170D01*
X90284371Y-33452435D01*
X90260573Y-33458396D01*
X90236304Y-33461996D01*
X90211800Y-33463200D01*
X89461800Y-33463200D01*
X89437296Y-33461996D01*
X89413027Y-33458396D01*
X89389229Y-33452435D01*
X89366129Y-33444170D01*
X89343951Y-33433680D01*
X89322907Y-33421067D01*
X89303202Y-33406453D01*
X89285023Y-33389977D01*
X89268547Y-33371798D01*
X89253933Y-33352093D01*
X89241320Y-33331049D01*
X89230830Y-33308871D01*
X89222565Y-33285771D01*
X89216604Y-33261973D01*
X89213004Y-33237704D01*
X89211800Y-33213200D01*
X89211800Y-31963200D01*
X89213004Y-31938696D01*
X89216604Y-31914427D01*
X89222565Y-31890629D01*
X89230830Y-31867529D01*
X89241320Y-31845351D01*
X89253933Y-31824307D01*
X89268547Y-31804602D01*
X89285023Y-31786423D01*
X89303202Y-31769947D01*
X89322907Y-31755333D01*
X89343951Y-31742720D01*
X89366129Y-31732230D01*
X89389229Y-31723965D01*
X89413027Y-31718004D01*
X89437296Y-31714404D01*
X89461800Y-31713200D01*
X90211800Y-31713200D01*
X90236304Y-31714404D01*
X90236304Y-31714404D01*
G37*
D15*
X89836800Y-32588200D03*
D16*
X146711800Y-118846600D03*
X143711800Y-117576600D03*
M02*
