G04 #@! TF.GenerationSoftware,KiCad,Pcbnew,(5.1.4)-1*
G04 #@! TF.CreationDate,2020-11-24T15:39:13-05:00*
G04 #@! TF.ProjectId,Menorah,4d656e6f-7261-4682-9e6b-696361645f70,rev?*
G04 #@! TF.SameCoordinates,Original*
G04 #@! TF.FileFunction,Soldermask,Top*
G04 #@! TF.FilePolarity,Negative*
%FSLAX46Y46*%
G04 Gerber Fmt 4.6, Leading zero omitted, Abs format (unit mm)*
G04 Created by KiCad (PCBNEW (5.1.4)-1) date 2020-11-24 15:39:13*
%MOMM*%
%LPD*%
G04 APERTURE LIST*
%ADD10C,0.100000*%
G04 APERTURE END LIST*
D10*
G36*
X140149400Y-129703200D02*
G01*
X139047400Y-129703200D01*
X139047400Y-126451200D01*
X140149400Y-126451200D01*
X140149400Y-129703200D01*
X140149400Y-129703200D01*
G37*
G36*
X142689400Y-129703200D02*
G01*
X141587400Y-129703200D01*
X141587400Y-126451200D01*
X142689400Y-126451200D01*
X142689400Y-129703200D01*
X142689400Y-129703200D01*
G37*
G36*
X145229400Y-129703200D02*
G01*
X144127400Y-129703200D01*
X144127400Y-126451200D01*
X145229400Y-126451200D01*
X145229400Y-129703200D01*
X145229400Y-129703200D01*
G37*
G36*
X142689400Y-124653200D02*
G01*
X141587400Y-124653200D01*
X141587400Y-121401200D01*
X142689400Y-121401200D01*
X142689400Y-124653200D01*
X142689400Y-124653200D01*
G37*
G36*
X140149400Y-124653200D02*
G01*
X139047400Y-124653200D01*
X139047400Y-121401200D01*
X140149400Y-121401200D01*
X140149400Y-124653200D01*
X140149400Y-124653200D01*
G37*
G36*
X145229400Y-124653200D02*
G01*
X144127400Y-124653200D01*
X144127400Y-121401200D01*
X145229400Y-121401200D01*
X145229400Y-124653200D01*
X145229400Y-124653200D01*
G37*
G36*
X140526868Y-119141565D02*
G01*
X140565538Y-119153296D01*
X140601177Y-119172346D01*
X140632417Y-119197983D01*
X140658054Y-119229223D01*
X140677104Y-119264862D01*
X140688835Y-119303532D01*
X140693400Y-119349888D01*
X140693400Y-120426112D01*
X140688835Y-120472468D01*
X140677104Y-120511138D01*
X140658054Y-120546777D01*
X140632417Y-120578017D01*
X140601177Y-120603654D01*
X140565538Y-120622704D01*
X140526868Y-120634435D01*
X140480512Y-120639000D01*
X139829288Y-120639000D01*
X139782932Y-120634435D01*
X139744262Y-120622704D01*
X139708623Y-120603654D01*
X139677383Y-120578017D01*
X139651746Y-120546777D01*
X139632696Y-120511138D01*
X139620965Y-120472468D01*
X139616400Y-120426112D01*
X139616400Y-119349888D01*
X139620965Y-119303532D01*
X139632696Y-119264862D01*
X139651746Y-119229223D01*
X139677383Y-119197983D01*
X139708623Y-119172346D01*
X139744262Y-119153296D01*
X139782932Y-119141565D01*
X139829288Y-119137000D01*
X140480512Y-119137000D01*
X140526868Y-119141565D01*
X140526868Y-119141565D01*
G37*
G36*
X138651868Y-119141565D02*
G01*
X138690538Y-119153296D01*
X138726177Y-119172346D01*
X138757417Y-119197983D01*
X138783054Y-119229223D01*
X138802104Y-119264862D01*
X138813835Y-119303532D01*
X138818400Y-119349888D01*
X138818400Y-120426112D01*
X138813835Y-120472468D01*
X138802104Y-120511138D01*
X138783054Y-120546777D01*
X138757417Y-120578017D01*
X138726177Y-120603654D01*
X138690538Y-120622704D01*
X138651868Y-120634435D01*
X138605512Y-120639000D01*
X137954288Y-120639000D01*
X137907932Y-120634435D01*
X137869262Y-120622704D01*
X137833623Y-120603654D01*
X137802383Y-120578017D01*
X137776746Y-120546777D01*
X137757696Y-120511138D01*
X137745965Y-120472468D01*
X137741400Y-120426112D01*
X137741400Y-119349888D01*
X137745965Y-119303532D01*
X137757696Y-119264862D01*
X137776746Y-119229223D01*
X137802383Y-119197983D01*
X137833623Y-119172346D01*
X137869262Y-119153296D01*
X137907932Y-119141565D01*
X137954288Y-119137000D01*
X138605512Y-119137000D01*
X138651868Y-119141565D01*
X138651868Y-119141565D01*
G37*
G36*
X148262800Y-119222600D02*
G01*
X145160800Y-119222600D01*
X145160800Y-118470600D01*
X148262800Y-118470600D01*
X148262800Y-119222600D01*
X148262800Y-119222600D01*
G37*
G36*
X138875600Y-118177600D02*
G01*
X137673600Y-118177600D01*
X137673600Y-116975600D01*
X138875600Y-116975600D01*
X138875600Y-118177600D01*
X138875600Y-118177600D01*
G37*
G36*
X141675600Y-118177600D02*
G01*
X140473600Y-118177600D01*
X140473600Y-116975600D01*
X141675600Y-116975600D01*
X141675600Y-118177600D01*
X141675600Y-118177600D01*
G37*
G36*
X145262800Y-117952600D02*
G01*
X142160800Y-117952600D01*
X142160800Y-117200600D01*
X145262800Y-117200600D01*
X145262800Y-117952600D01*
X145262800Y-117952600D01*
G37*
G36*
X139128600Y-115354200D02*
G01*
X137426600Y-115354200D01*
X137426600Y-113652200D01*
X139128600Y-113652200D01*
X139128600Y-115354200D01*
X139128600Y-115354200D01*
G37*
G36*
X146748600Y-115354200D02*
G01*
X145046600Y-115354200D01*
X145046600Y-113652200D01*
X146748600Y-113652200D01*
X146748600Y-115354200D01*
X146748600Y-115354200D01*
G37*
G36*
X146748600Y-112814200D02*
G01*
X145046600Y-112814200D01*
X145046600Y-111112200D01*
X146748600Y-111112200D01*
X146748600Y-112814200D01*
X146748600Y-112814200D01*
G37*
G36*
X139128600Y-112814200D02*
G01*
X137426600Y-112814200D01*
X137426600Y-111112200D01*
X139128600Y-111112200D01*
X139128600Y-112814200D01*
X139128600Y-112814200D01*
G37*
G36*
X146748600Y-110274200D02*
G01*
X145046600Y-110274200D01*
X145046600Y-108572200D01*
X146748600Y-108572200D01*
X146748600Y-110274200D01*
X146748600Y-110274200D01*
G37*
G36*
X139128600Y-110274200D02*
G01*
X137426600Y-110274200D01*
X137426600Y-108572200D01*
X139128600Y-108572200D01*
X139128600Y-110274200D01*
X139128600Y-110274200D01*
G37*
G36*
X146748600Y-107734200D02*
G01*
X145046600Y-107734200D01*
X145046600Y-106032200D01*
X146748600Y-106032200D01*
X146748600Y-107734200D01*
X146748600Y-107734200D01*
G37*
G36*
X139128600Y-107734200D02*
G01*
X137426600Y-107734200D01*
X137426600Y-106032200D01*
X139128600Y-106032200D01*
X139128600Y-107734200D01*
X139128600Y-107734200D01*
G37*
G36*
X141148068Y-102105165D02*
G01*
X141186738Y-102116896D01*
X141222377Y-102135946D01*
X141253617Y-102161583D01*
X141279254Y-102192823D01*
X141298304Y-102228462D01*
X141310035Y-102267132D01*
X141314600Y-102313488D01*
X141314600Y-102964712D01*
X141310035Y-103011068D01*
X141298304Y-103049738D01*
X141279254Y-103085377D01*
X141253617Y-103116617D01*
X141222377Y-103142254D01*
X141186738Y-103161304D01*
X141148068Y-103173035D01*
X141101712Y-103177600D01*
X140025488Y-103177600D01*
X139979132Y-103173035D01*
X139940462Y-103161304D01*
X139904823Y-103142254D01*
X139873583Y-103116617D01*
X139847946Y-103085377D01*
X139828896Y-103049738D01*
X139817165Y-103011068D01*
X139812600Y-102964712D01*
X139812600Y-102313488D01*
X139817165Y-102267132D01*
X139828896Y-102228462D01*
X139847946Y-102192823D01*
X139873583Y-102161583D01*
X139904823Y-102135946D01*
X139940462Y-102116896D01*
X139979132Y-102105165D01*
X140025488Y-102100600D01*
X141101712Y-102100600D01*
X141148068Y-102105165D01*
X141148068Y-102105165D01*
G37*
G36*
X137693668Y-101190765D02*
G01*
X137732338Y-101202496D01*
X137767977Y-101221546D01*
X137799217Y-101247183D01*
X137824854Y-101278423D01*
X137843904Y-101314062D01*
X137855635Y-101352732D01*
X137860200Y-101399088D01*
X137860200Y-102050312D01*
X137855635Y-102096668D01*
X137843904Y-102135338D01*
X137824854Y-102170977D01*
X137799217Y-102202217D01*
X137767977Y-102227854D01*
X137732338Y-102246904D01*
X137693668Y-102258635D01*
X137647312Y-102263200D01*
X136571088Y-102263200D01*
X136524732Y-102258635D01*
X136486062Y-102246904D01*
X136450423Y-102227854D01*
X136419183Y-102202217D01*
X136393546Y-102170977D01*
X136374496Y-102135338D01*
X136362765Y-102096668D01*
X136358200Y-102050312D01*
X136358200Y-101399088D01*
X136362765Y-101352732D01*
X136374496Y-101314062D01*
X136393546Y-101278423D01*
X136419183Y-101247183D01*
X136450423Y-101221546D01*
X136486062Y-101202496D01*
X136524732Y-101190765D01*
X136571088Y-101186200D01*
X137647312Y-101186200D01*
X137693668Y-101190765D01*
X137693668Y-101190765D01*
G37*
G36*
X147675868Y-101165365D02*
G01*
X147714538Y-101177096D01*
X147750177Y-101196146D01*
X147781417Y-101221783D01*
X147807054Y-101253023D01*
X147826104Y-101288662D01*
X147837835Y-101327332D01*
X147842400Y-101373688D01*
X147842400Y-102024912D01*
X147837835Y-102071268D01*
X147826104Y-102109938D01*
X147807054Y-102145577D01*
X147781417Y-102176817D01*
X147750177Y-102202454D01*
X147714538Y-102221504D01*
X147675868Y-102233235D01*
X147629512Y-102237800D01*
X146553288Y-102237800D01*
X146506932Y-102233235D01*
X146468262Y-102221504D01*
X146432623Y-102202454D01*
X146401383Y-102176817D01*
X146375746Y-102145577D01*
X146356696Y-102109938D01*
X146344965Y-102071268D01*
X146340400Y-102024912D01*
X146340400Y-101373688D01*
X146344965Y-101327332D01*
X146356696Y-101288662D01*
X146375746Y-101253023D01*
X146401383Y-101221783D01*
X146432623Y-101196146D01*
X146468262Y-101177096D01*
X146506932Y-101165365D01*
X146553288Y-101160800D01*
X147629512Y-101160800D01*
X147675868Y-101165365D01*
X147675868Y-101165365D01*
G37*
G36*
X144475468Y-101165365D02*
G01*
X144514138Y-101177096D01*
X144549777Y-101196146D01*
X144581017Y-101221783D01*
X144606654Y-101253023D01*
X144625704Y-101288662D01*
X144637435Y-101327332D01*
X144642000Y-101373688D01*
X144642000Y-102024912D01*
X144637435Y-102071268D01*
X144625704Y-102109938D01*
X144606654Y-102145577D01*
X144581017Y-102176817D01*
X144549777Y-102202454D01*
X144514138Y-102221504D01*
X144475468Y-102233235D01*
X144429112Y-102237800D01*
X143352888Y-102237800D01*
X143306532Y-102233235D01*
X143267862Y-102221504D01*
X143232223Y-102202454D01*
X143200983Y-102176817D01*
X143175346Y-102145577D01*
X143156296Y-102109938D01*
X143144565Y-102071268D01*
X143140000Y-102024912D01*
X143140000Y-101373688D01*
X143144565Y-101327332D01*
X143156296Y-101288662D01*
X143175346Y-101253023D01*
X143200983Y-101221783D01*
X143232223Y-101196146D01*
X143267862Y-101177096D01*
X143306532Y-101165365D01*
X143352888Y-101160800D01*
X144429112Y-101160800D01*
X144475468Y-101165365D01*
X144475468Y-101165365D01*
G37*
G36*
X141148068Y-100230165D02*
G01*
X141186738Y-100241896D01*
X141222377Y-100260946D01*
X141253617Y-100286583D01*
X141279254Y-100317823D01*
X141298304Y-100353462D01*
X141310035Y-100392132D01*
X141314600Y-100438488D01*
X141314600Y-101089712D01*
X141310035Y-101136068D01*
X141298304Y-101174738D01*
X141279254Y-101210377D01*
X141253617Y-101241617D01*
X141222377Y-101267254D01*
X141186738Y-101286304D01*
X141148068Y-101298035D01*
X141101712Y-101302600D01*
X140025488Y-101302600D01*
X139979132Y-101298035D01*
X139940462Y-101286304D01*
X139904823Y-101267254D01*
X139873583Y-101241617D01*
X139847946Y-101210377D01*
X139828896Y-101174738D01*
X139817165Y-101136068D01*
X139812600Y-101089712D01*
X139812600Y-100438488D01*
X139817165Y-100392132D01*
X139828896Y-100353462D01*
X139847946Y-100317823D01*
X139873583Y-100286583D01*
X139904823Y-100260946D01*
X139940462Y-100241896D01*
X139979132Y-100230165D01*
X140025488Y-100225600D01*
X141101712Y-100225600D01*
X141148068Y-100230165D01*
X141148068Y-100230165D01*
G37*
G36*
X137693668Y-99315765D02*
G01*
X137732338Y-99327496D01*
X137767977Y-99346546D01*
X137799217Y-99372183D01*
X137824854Y-99403423D01*
X137843904Y-99439062D01*
X137855635Y-99477732D01*
X137860200Y-99524088D01*
X137860200Y-100175312D01*
X137855635Y-100221668D01*
X137843904Y-100260338D01*
X137824854Y-100295977D01*
X137799217Y-100327217D01*
X137767977Y-100352854D01*
X137732338Y-100371904D01*
X137693668Y-100383635D01*
X137647312Y-100388200D01*
X136571088Y-100388200D01*
X136524732Y-100383635D01*
X136486062Y-100371904D01*
X136450423Y-100352854D01*
X136419183Y-100327217D01*
X136393546Y-100295977D01*
X136374496Y-100260338D01*
X136362765Y-100221668D01*
X136358200Y-100175312D01*
X136358200Y-99524088D01*
X136362765Y-99477732D01*
X136374496Y-99439062D01*
X136393546Y-99403423D01*
X136419183Y-99372183D01*
X136450423Y-99346546D01*
X136486062Y-99327496D01*
X136524732Y-99315765D01*
X136571088Y-99311200D01*
X137647312Y-99311200D01*
X137693668Y-99315765D01*
X137693668Y-99315765D01*
G37*
G36*
X144475468Y-99290365D02*
G01*
X144514138Y-99302096D01*
X144549777Y-99321146D01*
X144581017Y-99346783D01*
X144606654Y-99378023D01*
X144625704Y-99413662D01*
X144637435Y-99452332D01*
X144642000Y-99498688D01*
X144642000Y-100149912D01*
X144637435Y-100196268D01*
X144625704Y-100234938D01*
X144606654Y-100270577D01*
X144581017Y-100301817D01*
X144549777Y-100327454D01*
X144514138Y-100346504D01*
X144475468Y-100358235D01*
X144429112Y-100362800D01*
X143352888Y-100362800D01*
X143306532Y-100358235D01*
X143267862Y-100346504D01*
X143232223Y-100327454D01*
X143200983Y-100301817D01*
X143175346Y-100270577D01*
X143156296Y-100234938D01*
X143144565Y-100196268D01*
X143140000Y-100149912D01*
X143140000Y-99498688D01*
X143144565Y-99452332D01*
X143156296Y-99413662D01*
X143175346Y-99378023D01*
X143200983Y-99346783D01*
X143232223Y-99321146D01*
X143267862Y-99302096D01*
X143306532Y-99290365D01*
X143352888Y-99285800D01*
X144429112Y-99285800D01*
X144475468Y-99290365D01*
X144475468Y-99290365D01*
G37*
G36*
X147675868Y-99290365D02*
G01*
X147714538Y-99302096D01*
X147750177Y-99321146D01*
X147781417Y-99346783D01*
X147807054Y-99378023D01*
X147826104Y-99413662D01*
X147837835Y-99452332D01*
X147842400Y-99498688D01*
X147842400Y-100149912D01*
X147837835Y-100196268D01*
X147826104Y-100234938D01*
X147807054Y-100270577D01*
X147781417Y-100301817D01*
X147750177Y-100327454D01*
X147714538Y-100346504D01*
X147675868Y-100358235D01*
X147629512Y-100362800D01*
X146553288Y-100362800D01*
X146506932Y-100358235D01*
X146468262Y-100346504D01*
X146432623Y-100327454D01*
X146401383Y-100301817D01*
X146375746Y-100270577D01*
X146356696Y-100234938D01*
X146344965Y-100196268D01*
X146340400Y-100149912D01*
X146340400Y-99498688D01*
X146344965Y-99452332D01*
X146356696Y-99413662D01*
X146375746Y-99378023D01*
X146401383Y-99346783D01*
X146432623Y-99321146D01*
X146468262Y-99302096D01*
X146506932Y-99290365D01*
X146553288Y-99285800D01*
X147629512Y-99285800D01*
X147675868Y-99290365D01*
X147675868Y-99290365D01*
G37*
G36*
X146800668Y-88661565D02*
G01*
X146839338Y-88673296D01*
X146874977Y-88692346D01*
X146906217Y-88717983D01*
X146931854Y-88749223D01*
X146950904Y-88784862D01*
X146962635Y-88823532D01*
X146967200Y-88869888D01*
X146967200Y-89946112D01*
X146962635Y-89992468D01*
X146950904Y-90031138D01*
X146931854Y-90066777D01*
X146906217Y-90098017D01*
X146874977Y-90123654D01*
X146839338Y-90142704D01*
X146800668Y-90154435D01*
X146754312Y-90159000D01*
X146103088Y-90159000D01*
X146056732Y-90154435D01*
X146018062Y-90142704D01*
X145982423Y-90123654D01*
X145951183Y-90098017D01*
X145925546Y-90066777D01*
X145906496Y-90031138D01*
X145894765Y-89992468D01*
X145890200Y-89946112D01*
X145890200Y-88869888D01*
X145894765Y-88823532D01*
X145906496Y-88784862D01*
X145925546Y-88749223D01*
X145951183Y-88717983D01*
X145982423Y-88692346D01*
X146018062Y-88673296D01*
X146056732Y-88661565D01*
X146103088Y-88657000D01*
X146754312Y-88657000D01*
X146800668Y-88661565D01*
X146800668Y-88661565D01*
G37*
G36*
X144925668Y-88661565D02*
G01*
X144964338Y-88673296D01*
X144999977Y-88692346D01*
X145031217Y-88717983D01*
X145056854Y-88749223D01*
X145075904Y-88784862D01*
X145087635Y-88823532D01*
X145092200Y-88869888D01*
X145092200Y-89946112D01*
X145087635Y-89992468D01*
X145075904Y-90031138D01*
X145056854Y-90066777D01*
X145031217Y-90098017D01*
X144999977Y-90123654D01*
X144964338Y-90142704D01*
X144925668Y-90154435D01*
X144879312Y-90159000D01*
X144228088Y-90159000D01*
X144181732Y-90154435D01*
X144143062Y-90142704D01*
X144107423Y-90123654D01*
X144076183Y-90098017D01*
X144050546Y-90066777D01*
X144031496Y-90031138D01*
X144019765Y-89992468D01*
X144015200Y-89946112D01*
X144015200Y-88869888D01*
X144019765Y-88823532D01*
X144031496Y-88784862D01*
X144050546Y-88749223D01*
X144076183Y-88717983D01*
X144107423Y-88692346D01*
X144143062Y-88673296D01*
X144181732Y-88661565D01*
X144228088Y-88657000D01*
X144879312Y-88657000D01*
X144925668Y-88661565D01*
X144925668Y-88661565D01*
G37*
G36*
X139892991Y-88258702D02*
G01*
X139931661Y-88270433D01*
X139967300Y-88289483D01*
X140003306Y-88319032D01*
X140043156Y-88358882D01*
X140043162Y-88358887D01*
X140423939Y-88739664D01*
X140423944Y-88739670D01*
X140463794Y-88779520D01*
X140493343Y-88815526D01*
X140512393Y-88851165D01*
X140524124Y-88889835D01*
X140528084Y-88930053D01*
X140524124Y-88970271D01*
X140512393Y-89008941D01*
X140493343Y-89044580D01*
X140463794Y-89080586D01*
X140423944Y-89120436D01*
X140423939Y-89120442D01*
X139742642Y-89801739D01*
X139742636Y-89801744D01*
X139702786Y-89841594D01*
X139666780Y-89871143D01*
X139631141Y-89890193D01*
X139592471Y-89901924D01*
X139552253Y-89905884D01*
X139512035Y-89901924D01*
X139473365Y-89890193D01*
X139437726Y-89871143D01*
X139401720Y-89841594D01*
X139361870Y-89801744D01*
X139361864Y-89801739D01*
X138981087Y-89420962D01*
X138981082Y-89420956D01*
X138941232Y-89381106D01*
X138911683Y-89345100D01*
X138892633Y-89309461D01*
X138880902Y-89270791D01*
X138876942Y-89230573D01*
X138880902Y-89190355D01*
X138892633Y-89151685D01*
X138911683Y-89116046D01*
X138941232Y-89080040D01*
X138981082Y-89040190D01*
X138981087Y-89040184D01*
X139662384Y-88358887D01*
X139662390Y-88358882D01*
X139702240Y-88319032D01*
X139738246Y-88289483D01*
X139773885Y-88270433D01*
X139812555Y-88258702D01*
X139852773Y-88254742D01*
X139892991Y-88258702D01*
X139892991Y-88258702D01*
G37*
G36*
X138567165Y-86932876D02*
G01*
X138605835Y-86944607D01*
X138641474Y-86963657D01*
X138677480Y-86993206D01*
X138717330Y-87033056D01*
X138717336Y-87033061D01*
X139098113Y-87413838D01*
X139098118Y-87413844D01*
X139137968Y-87453694D01*
X139167517Y-87489700D01*
X139186567Y-87525339D01*
X139198298Y-87564009D01*
X139202258Y-87604227D01*
X139198298Y-87644445D01*
X139186567Y-87683115D01*
X139167517Y-87718754D01*
X139137968Y-87754760D01*
X139098118Y-87794610D01*
X139098113Y-87794616D01*
X138416816Y-88475913D01*
X138416810Y-88475918D01*
X138376960Y-88515768D01*
X138340954Y-88545317D01*
X138305315Y-88564367D01*
X138266645Y-88576098D01*
X138226427Y-88580058D01*
X138186209Y-88576098D01*
X138147539Y-88564367D01*
X138111900Y-88545317D01*
X138075894Y-88515768D01*
X138036044Y-88475918D01*
X138036038Y-88475913D01*
X137655261Y-88095136D01*
X137655256Y-88095130D01*
X137615406Y-88055280D01*
X137585857Y-88019274D01*
X137566807Y-87983635D01*
X137555076Y-87944965D01*
X137551116Y-87904747D01*
X137555076Y-87864529D01*
X137566807Y-87825859D01*
X137585857Y-87790220D01*
X137615406Y-87754214D01*
X137655256Y-87714364D01*
X137655261Y-87714358D01*
X138336558Y-87033061D01*
X138336564Y-87033056D01*
X138376414Y-86993206D01*
X138412420Y-86963657D01*
X138448059Y-86944607D01*
X138486729Y-86932876D01*
X138526947Y-86928916D01*
X138567165Y-86932876D01*
X138567165Y-86932876D01*
G37*
G36*
X142280591Y-85845702D02*
G01*
X142319261Y-85857433D01*
X142354900Y-85876483D01*
X142390906Y-85906032D01*
X142430756Y-85945882D01*
X142430762Y-85945887D01*
X142811539Y-86326664D01*
X142811544Y-86326670D01*
X142851394Y-86366520D01*
X142880943Y-86402526D01*
X142899993Y-86438165D01*
X142911724Y-86476835D01*
X142915684Y-86517053D01*
X142911724Y-86557271D01*
X142899993Y-86595941D01*
X142880943Y-86631580D01*
X142851394Y-86667586D01*
X142811544Y-86707436D01*
X142811539Y-86707442D01*
X142130242Y-87388739D01*
X142130236Y-87388744D01*
X142090386Y-87428594D01*
X142054380Y-87458143D01*
X142018741Y-87477193D01*
X141980071Y-87488924D01*
X141939853Y-87492884D01*
X141899635Y-87488924D01*
X141860965Y-87477193D01*
X141825326Y-87458143D01*
X141789320Y-87428594D01*
X141749470Y-87388744D01*
X141749464Y-87388739D01*
X141368687Y-87007962D01*
X141368682Y-87007956D01*
X141328832Y-86968106D01*
X141299283Y-86932100D01*
X141280233Y-86896461D01*
X141268502Y-86857791D01*
X141264542Y-86817573D01*
X141268502Y-86777355D01*
X141280233Y-86738685D01*
X141299283Y-86703046D01*
X141328832Y-86667040D01*
X141368682Y-86627190D01*
X141368687Y-86627184D01*
X142049984Y-85945887D01*
X142049990Y-85945882D01*
X142089840Y-85906032D01*
X142125846Y-85876483D01*
X142161485Y-85857433D01*
X142200155Y-85845702D01*
X142240373Y-85841742D01*
X142280591Y-85845702D01*
X142280591Y-85845702D01*
G37*
G36*
X140954765Y-84519876D02*
G01*
X140993435Y-84531607D01*
X141029074Y-84550657D01*
X141065080Y-84580206D01*
X141104930Y-84620056D01*
X141104936Y-84620061D01*
X141485713Y-85000838D01*
X141485718Y-85000844D01*
X141525568Y-85040694D01*
X141555117Y-85076700D01*
X141574167Y-85112339D01*
X141585898Y-85151009D01*
X141589858Y-85191227D01*
X141585898Y-85231445D01*
X141574167Y-85270115D01*
X141555117Y-85305754D01*
X141525568Y-85341760D01*
X141485718Y-85381610D01*
X141485713Y-85381616D01*
X140804416Y-86062913D01*
X140804410Y-86062918D01*
X140764560Y-86102768D01*
X140728554Y-86132317D01*
X140692915Y-86151367D01*
X140654245Y-86163098D01*
X140614027Y-86167058D01*
X140573809Y-86163098D01*
X140535139Y-86151367D01*
X140499500Y-86132317D01*
X140463494Y-86102768D01*
X140423644Y-86062918D01*
X140423638Y-86062913D01*
X140042861Y-85682136D01*
X140042856Y-85682130D01*
X140003006Y-85642280D01*
X139973457Y-85606274D01*
X139954407Y-85570635D01*
X139942676Y-85531965D01*
X139938716Y-85491747D01*
X139942676Y-85451529D01*
X139954407Y-85412859D01*
X139973457Y-85377220D01*
X140003006Y-85341214D01*
X140042856Y-85301364D01*
X140042861Y-85301358D01*
X140724158Y-84620061D01*
X140724164Y-84620056D01*
X140764014Y-84580206D01*
X140800020Y-84550657D01*
X140835659Y-84531607D01*
X140874329Y-84519876D01*
X140914547Y-84515916D01*
X140954765Y-84519876D01*
X140954765Y-84519876D01*
G37*
G36*
X144925668Y-84318165D02*
G01*
X144964338Y-84329896D01*
X144999977Y-84348946D01*
X145031217Y-84374583D01*
X145056854Y-84405823D01*
X145075904Y-84441462D01*
X145087635Y-84480132D01*
X145092200Y-84526488D01*
X145092200Y-85602712D01*
X145087635Y-85649068D01*
X145075904Y-85687738D01*
X145056854Y-85723377D01*
X145031217Y-85754617D01*
X144999977Y-85780254D01*
X144964338Y-85799304D01*
X144925668Y-85811035D01*
X144879312Y-85815600D01*
X144228088Y-85815600D01*
X144181732Y-85811035D01*
X144143062Y-85799304D01*
X144107423Y-85780254D01*
X144076183Y-85754617D01*
X144050546Y-85723377D01*
X144031496Y-85687738D01*
X144019765Y-85649068D01*
X144015200Y-85602712D01*
X144015200Y-84526488D01*
X144019765Y-84480132D01*
X144031496Y-84441462D01*
X144050546Y-84405823D01*
X144076183Y-84374583D01*
X144107423Y-84348946D01*
X144143062Y-84329896D01*
X144181732Y-84318165D01*
X144228088Y-84313600D01*
X144879312Y-84313600D01*
X144925668Y-84318165D01*
X144925668Y-84318165D01*
G37*
G36*
X146800668Y-84318165D02*
G01*
X146839338Y-84329896D01*
X146874977Y-84348946D01*
X146906217Y-84374583D01*
X146931854Y-84405823D01*
X146950904Y-84441462D01*
X146962635Y-84480132D01*
X146967200Y-84526488D01*
X146967200Y-85602712D01*
X146962635Y-85649068D01*
X146950904Y-85687738D01*
X146931854Y-85723377D01*
X146906217Y-85754617D01*
X146874977Y-85780254D01*
X146839338Y-85799304D01*
X146800668Y-85811035D01*
X146754312Y-85815600D01*
X146103088Y-85815600D01*
X146056732Y-85811035D01*
X146018062Y-85799304D01*
X145982423Y-85780254D01*
X145951183Y-85754617D01*
X145925546Y-85723377D01*
X145906496Y-85687738D01*
X145894765Y-85649068D01*
X145890200Y-85602712D01*
X145890200Y-84526488D01*
X145894765Y-84480132D01*
X145906496Y-84441462D01*
X145925546Y-84405823D01*
X145951183Y-84374583D01*
X145982423Y-84348946D01*
X146018062Y-84329896D01*
X146056732Y-84318165D01*
X146103088Y-84313600D01*
X146754312Y-84313600D01*
X146800668Y-84318165D01*
X146800668Y-84318165D01*
G37*
G36*
X144311200Y-82668400D02*
G01*
X143109200Y-82668400D01*
X143109200Y-81466400D01*
X144311200Y-81466400D01*
X144311200Y-82668400D01*
X144311200Y-82668400D01*
G37*
G36*
X147111200Y-82668400D02*
G01*
X145909200Y-82668400D01*
X145909200Y-81466400D01*
X147111200Y-81466400D01*
X147111200Y-82668400D01*
X147111200Y-82668400D01*
G37*
G36*
X147111200Y-80204600D02*
G01*
X145909200Y-80204600D01*
X145909200Y-79002600D01*
X147111200Y-79002600D01*
X147111200Y-80204600D01*
X147111200Y-80204600D01*
G37*
G36*
X144311200Y-80204600D02*
G01*
X143109200Y-80204600D01*
X143109200Y-79002600D01*
X144311200Y-79002600D01*
X144311200Y-80204600D01*
X144311200Y-80204600D01*
G37*
G36*
X138775391Y-76854102D02*
G01*
X138814061Y-76865833D01*
X138849700Y-76884883D01*
X138885706Y-76914432D01*
X138925556Y-76954282D01*
X138925562Y-76954287D01*
X139306339Y-77335064D01*
X139306344Y-77335070D01*
X139346194Y-77374920D01*
X139375743Y-77410926D01*
X139394793Y-77446565D01*
X139406524Y-77485235D01*
X139410484Y-77525453D01*
X139406524Y-77565671D01*
X139394793Y-77604341D01*
X139375743Y-77639980D01*
X139346194Y-77675986D01*
X139306344Y-77715836D01*
X139306339Y-77715842D01*
X138625042Y-78397139D01*
X138625036Y-78397144D01*
X138585186Y-78436994D01*
X138549180Y-78466543D01*
X138513541Y-78485593D01*
X138474871Y-78497324D01*
X138434653Y-78501284D01*
X138394435Y-78497324D01*
X138355765Y-78485593D01*
X138320126Y-78466543D01*
X138284120Y-78436994D01*
X138244270Y-78397144D01*
X138244264Y-78397139D01*
X137863487Y-78016362D01*
X137863482Y-78016356D01*
X137823632Y-77976506D01*
X137794083Y-77940500D01*
X137775033Y-77904861D01*
X137763302Y-77866191D01*
X137759342Y-77825973D01*
X137763302Y-77785755D01*
X137775033Y-77747085D01*
X137794083Y-77711446D01*
X137823632Y-77675440D01*
X137863482Y-77635590D01*
X137863487Y-77635584D01*
X138544784Y-76954287D01*
X138544790Y-76954282D01*
X138584640Y-76914432D01*
X138620646Y-76884883D01*
X138656285Y-76865833D01*
X138694955Y-76854102D01*
X138735173Y-76850142D01*
X138775391Y-76854102D01*
X138775391Y-76854102D01*
G37*
G36*
X144925668Y-76469565D02*
G01*
X144964338Y-76481296D01*
X144999977Y-76500346D01*
X145031217Y-76525983D01*
X145056854Y-76557223D01*
X145075904Y-76592862D01*
X145087635Y-76631532D01*
X145092200Y-76677888D01*
X145092200Y-77754112D01*
X145087635Y-77800468D01*
X145075904Y-77839138D01*
X145056854Y-77874777D01*
X145031217Y-77906017D01*
X144999977Y-77931654D01*
X144964338Y-77950704D01*
X144925668Y-77962435D01*
X144879312Y-77967000D01*
X144228088Y-77967000D01*
X144181732Y-77962435D01*
X144143062Y-77950704D01*
X144107423Y-77931654D01*
X144076183Y-77906017D01*
X144050546Y-77874777D01*
X144031496Y-77839138D01*
X144019765Y-77800468D01*
X144015200Y-77754112D01*
X144015200Y-76677888D01*
X144019765Y-76631532D01*
X144031496Y-76592862D01*
X144050546Y-76557223D01*
X144076183Y-76525983D01*
X144107423Y-76500346D01*
X144143062Y-76481296D01*
X144181732Y-76469565D01*
X144228088Y-76465000D01*
X144879312Y-76465000D01*
X144925668Y-76469565D01*
X144925668Y-76469565D01*
G37*
G36*
X146800668Y-76469565D02*
G01*
X146839338Y-76481296D01*
X146874977Y-76500346D01*
X146906217Y-76525983D01*
X146931854Y-76557223D01*
X146950904Y-76592862D01*
X146962635Y-76631532D01*
X146967200Y-76677888D01*
X146967200Y-77754112D01*
X146962635Y-77800468D01*
X146950904Y-77839138D01*
X146931854Y-77874777D01*
X146906217Y-77906017D01*
X146874977Y-77931654D01*
X146839338Y-77950704D01*
X146800668Y-77962435D01*
X146754312Y-77967000D01*
X146103088Y-77967000D01*
X146056732Y-77962435D01*
X146018062Y-77950704D01*
X145982423Y-77931654D01*
X145951183Y-77906017D01*
X145925546Y-77874777D01*
X145906496Y-77839138D01*
X145894765Y-77800468D01*
X145890200Y-77754112D01*
X145890200Y-76677888D01*
X145894765Y-76631532D01*
X145906496Y-76592862D01*
X145925546Y-76557223D01*
X145951183Y-76525983D01*
X145982423Y-76500346D01*
X146018062Y-76481296D01*
X146056732Y-76469565D01*
X146103088Y-76465000D01*
X146754312Y-76465000D01*
X146800668Y-76469565D01*
X146800668Y-76469565D01*
G37*
G36*
X137449565Y-75528276D02*
G01*
X137488235Y-75540007D01*
X137523874Y-75559057D01*
X137559880Y-75588606D01*
X137599730Y-75628456D01*
X137599736Y-75628461D01*
X137980513Y-76009238D01*
X137980518Y-76009244D01*
X138020368Y-76049094D01*
X138049917Y-76085100D01*
X138068967Y-76120739D01*
X138080698Y-76159409D01*
X138084658Y-76199627D01*
X138080698Y-76239845D01*
X138068967Y-76278515D01*
X138049917Y-76314154D01*
X138020368Y-76350160D01*
X137980518Y-76390010D01*
X137980513Y-76390016D01*
X137299216Y-77071313D01*
X137299210Y-77071318D01*
X137259360Y-77111168D01*
X137223354Y-77140717D01*
X137187715Y-77159767D01*
X137149045Y-77171498D01*
X137108827Y-77175458D01*
X137068609Y-77171498D01*
X137029939Y-77159767D01*
X136994300Y-77140717D01*
X136958294Y-77111168D01*
X136918444Y-77071318D01*
X136918438Y-77071313D01*
X136537661Y-76690536D01*
X136537656Y-76690530D01*
X136497806Y-76650680D01*
X136468257Y-76614674D01*
X136449207Y-76579035D01*
X136437476Y-76540365D01*
X136433516Y-76500147D01*
X136437476Y-76459929D01*
X136449207Y-76421259D01*
X136468257Y-76385620D01*
X136497806Y-76349614D01*
X136537656Y-76309764D01*
X136537661Y-76309758D01*
X137218958Y-75628461D01*
X137218964Y-75628456D01*
X137258814Y-75588606D01*
X137294820Y-75559057D01*
X137330459Y-75540007D01*
X137369129Y-75528276D01*
X137409347Y-75524316D01*
X137449565Y-75528276D01*
X137449565Y-75528276D01*
G37*
G36*
X140284468Y-70659965D02*
G01*
X140323138Y-70671696D01*
X140358777Y-70690746D01*
X140390017Y-70716383D01*
X140415654Y-70747623D01*
X140434704Y-70783262D01*
X140446435Y-70821932D01*
X140451000Y-70868288D01*
X140451000Y-71519512D01*
X140446435Y-71565868D01*
X140434704Y-71604538D01*
X140415654Y-71640177D01*
X140390017Y-71671417D01*
X140358777Y-71697054D01*
X140323138Y-71716104D01*
X140284468Y-71727835D01*
X140238112Y-71732400D01*
X139161888Y-71732400D01*
X139115532Y-71727835D01*
X139076862Y-71716104D01*
X139041223Y-71697054D01*
X139009983Y-71671417D01*
X138984346Y-71640177D01*
X138965296Y-71604538D01*
X138953565Y-71565868D01*
X138949000Y-71519512D01*
X138949000Y-70868288D01*
X138953565Y-70821932D01*
X138965296Y-70783262D01*
X138984346Y-70747623D01*
X139009983Y-70716383D01*
X139041223Y-70690746D01*
X139076862Y-70671696D01*
X139115532Y-70659965D01*
X139161888Y-70655400D01*
X140238112Y-70655400D01*
X140284468Y-70659965D01*
X140284468Y-70659965D01*
G37*
G36*
X146044400Y-70857400D02*
G01*
X144842400Y-70857400D01*
X144842400Y-69655400D01*
X146044400Y-69655400D01*
X146044400Y-70857400D01*
X146044400Y-70857400D01*
G37*
G36*
X143244400Y-70857400D02*
G01*
X142042400Y-70857400D01*
X142042400Y-69655400D01*
X143244400Y-69655400D01*
X143244400Y-70857400D01*
X143244400Y-70857400D01*
G37*
G36*
X140284468Y-68784965D02*
G01*
X140323138Y-68796696D01*
X140358777Y-68815746D01*
X140390017Y-68841383D01*
X140415654Y-68872623D01*
X140434704Y-68908262D01*
X140446435Y-68946932D01*
X140451000Y-68993288D01*
X140451000Y-69644512D01*
X140446435Y-69690868D01*
X140434704Y-69729538D01*
X140415654Y-69765177D01*
X140390017Y-69796417D01*
X140358777Y-69822054D01*
X140323138Y-69841104D01*
X140284468Y-69852835D01*
X140238112Y-69857400D01*
X139161888Y-69857400D01*
X139115532Y-69852835D01*
X139076862Y-69841104D01*
X139041223Y-69822054D01*
X139009983Y-69796417D01*
X138984346Y-69765177D01*
X138965296Y-69729538D01*
X138953565Y-69690868D01*
X138949000Y-69644512D01*
X138949000Y-68993288D01*
X138953565Y-68946932D01*
X138965296Y-68908262D01*
X138984346Y-68872623D01*
X139009983Y-68841383D01*
X139041223Y-68815746D01*
X139076862Y-68796696D01*
X139115532Y-68784965D01*
X139161888Y-68780400D01*
X140238112Y-68780400D01*
X140284468Y-68784965D01*
X140284468Y-68784965D01*
G37*
G36*
X143397445Y-66262302D02*
G01*
X143436115Y-66274033D01*
X143471754Y-66293083D01*
X143507760Y-66322632D01*
X143547610Y-66362482D01*
X143547616Y-66362487D01*
X144228913Y-67043784D01*
X144228918Y-67043790D01*
X144268768Y-67083640D01*
X144298317Y-67119646D01*
X144317367Y-67155285D01*
X144329098Y-67193955D01*
X144333058Y-67234173D01*
X144329098Y-67274391D01*
X144317367Y-67313061D01*
X144298317Y-67348700D01*
X144268768Y-67384706D01*
X144228918Y-67424556D01*
X144228913Y-67424562D01*
X143848136Y-67805339D01*
X143848130Y-67805344D01*
X143808280Y-67845194D01*
X143772274Y-67874743D01*
X143736635Y-67893793D01*
X143697965Y-67905524D01*
X143657747Y-67909484D01*
X143617529Y-67905524D01*
X143578859Y-67893793D01*
X143543220Y-67874743D01*
X143507214Y-67845194D01*
X143467364Y-67805344D01*
X143467358Y-67805339D01*
X142786061Y-67124042D01*
X142786056Y-67124036D01*
X142746206Y-67084186D01*
X142716657Y-67048180D01*
X142697607Y-67012541D01*
X142685876Y-66973871D01*
X142681916Y-66933653D01*
X142685876Y-66893435D01*
X142697607Y-66854765D01*
X142716657Y-66819126D01*
X142746206Y-66783120D01*
X142786056Y-66743270D01*
X142786061Y-66743264D01*
X143166838Y-66362487D01*
X143166844Y-66362482D01*
X143206694Y-66322632D01*
X143242700Y-66293083D01*
X143278339Y-66274033D01*
X143317009Y-66262302D01*
X143357227Y-66258342D01*
X143397445Y-66262302D01*
X143397445Y-66262302D01*
G37*
G36*
X144723271Y-64936476D02*
G01*
X144761941Y-64948207D01*
X144797580Y-64967257D01*
X144833586Y-64996806D01*
X144873436Y-65036656D01*
X144873442Y-65036661D01*
X145554739Y-65717958D01*
X145554744Y-65717964D01*
X145594594Y-65757814D01*
X145624143Y-65793820D01*
X145643193Y-65829459D01*
X145654924Y-65868129D01*
X145658884Y-65908347D01*
X145654924Y-65948565D01*
X145643193Y-65987235D01*
X145624143Y-66022874D01*
X145594594Y-66058880D01*
X145554744Y-66098730D01*
X145554739Y-66098736D01*
X145173962Y-66479513D01*
X145173956Y-66479518D01*
X145134106Y-66519368D01*
X145098100Y-66548917D01*
X145062461Y-66567967D01*
X145023791Y-66579698D01*
X144983573Y-66583658D01*
X144943355Y-66579698D01*
X144904685Y-66567967D01*
X144869046Y-66548917D01*
X144833040Y-66519368D01*
X144793190Y-66479518D01*
X144793184Y-66479513D01*
X144111887Y-65798216D01*
X144111882Y-65798210D01*
X144072032Y-65758360D01*
X144042483Y-65722354D01*
X144023433Y-65686715D01*
X144011702Y-65648045D01*
X144007742Y-65607827D01*
X144011702Y-65567609D01*
X144023433Y-65528939D01*
X144042483Y-65493300D01*
X144072032Y-65457294D01*
X144111882Y-65417444D01*
X144111887Y-65417438D01*
X144492664Y-65036661D01*
X144492670Y-65036656D01*
X144532520Y-64996806D01*
X144568526Y-64967257D01*
X144604165Y-64948207D01*
X144642835Y-64936476D01*
X144683053Y-64932516D01*
X144723271Y-64936476D01*
X144723271Y-64936476D01*
G37*
G36*
X156870400Y-34340800D02*
G01*
X152400000Y-34340800D01*
X152400000Y-32181800D01*
X156870400Y-32181800D01*
X156870400Y-34340800D01*
X156870400Y-34340800D01*
G37*
G36*
X101707914Y-32131036D02*
G01*
X101707915Y-32131036D01*
X104000611Y-32144137D01*
X106146600Y-32156400D01*
X106146600Y-34290000D01*
X101701600Y-34290000D01*
X101701600Y-32131000D01*
X101707914Y-32131036D01*
X101707914Y-32131036D01*
G37*
G36*
X131521200Y-33807400D02*
G01*
X127076200Y-33807400D01*
X127076200Y-31673800D01*
X131521200Y-31673800D01*
X131521200Y-33807400D01*
X131521200Y-33807400D01*
G37*
G36*
X182321200Y-33655000D02*
G01*
X177850800Y-33655000D01*
X177850800Y-31496000D01*
X182321200Y-31496000D01*
X182321200Y-33655000D01*
X182321200Y-33655000D01*
G37*
G36*
X93472000Y-33655000D02*
G01*
X89027000Y-33655000D01*
X89027000Y-31521400D01*
X93472000Y-31521400D01*
X93472000Y-33655000D01*
X93472000Y-33655000D01*
G37*
G36*
X169722800Y-33223200D02*
G01*
X165252400Y-33223200D01*
X165252400Y-31064200D01*
X169722800Y-31064200D01*
X169722800Y-33223200D01*
X169722800Y-33223200D01*
G37*
G36*
X118745000Y-32918400D02*
G01*
X114300000Y-32918400D01*
X114300000Y-30784800D01*
X118745000Y-30784800D01*
X118745000Y-32918400D01*
X118745000Y-32918400D01*
G37*
G36*
X195021200Y-32791400D02*
G01*
X190550800Y-32791400D01*
X190550800Y-30607000D01*
X195021200Y-30607000D01*
X195021200Y-32791400D01*
X195021200Y-32791400D01*
G37*
G36*
X144145000Y-29311600D02*
G01*
X139674600Y-29311600D01*
X139674600Y-27152600D01*
X144145000Y-27152600D01*
X144145000Y-29311600D01*
X144145000Y-29311600D01*
G37*
M02*
