999
dxfrw 0.6.3
  0
SECTION
  2
HEADER
  9
$ACADVER
  1
AC1021
  9
$DWGCODEPAGE
  3
ANSI_1252
  9
$INSBASE
 10
0
 20
0
 30
0
  9
$EXTMIN
 10
10000000000
 20
10000000000
 30
0
  9
$EXTMAX
 10
-10000000000
 20
-10000000000
 30
0
  9
$LIMMIN
 10
0
 20
0
  9
$LIMMAX
 10
12
 20
9
  9
$ORTHOMODE
 70
    0
  9
$REGENMODE
 70
    1
  9
$FILLMODE
 70
    1
  9
$QTEXTMODE
 70
    0
  9
$MIRRTEXT
 70
    1
  9
$LTSCALE
 40
1
  9
$ATTMODE
 70
    1
  9
$TEXTSIZE
 40
0.2
  9
$TRACEWID
 40
0.05
  9
$TEXTSTYLE
  7
Standard
  9
$CLAYER
  8
0
  9
$CELTYPE
  6
ByLayer
  9
$CECOLOR
 62
  256
  9
$CELTSCALE
 40
1
  9
$DISPSILH
 70
    0
  9
$DIMSCALE
 40
1
  9
$DIMASZ
 40
0.18
  9
$DIMEXO
 40
0.0625
  9
$DIMDLI
 40
0.38
  9
$DIMRND
 40
0
  9
$DIMDLE
 40
0
  9
$DIMEXE
 40
0.18
  9
$DIMTP
 40
0
  9
$DIMTM
 40
0
  9
$DIMTXT
 40
0.18
  9
$DIMCEN
 40
0.09
  9
$DIMTSZ
 40
0
  9
$DIMTOL
 70
    0
  9
$DIMLIM
 70
    0
  9
$DIMTIH
 70
    1
  9
$DIMTOH
 70
    1
  9
$DIMSE1
 70
    0
  9
$DIMSE2
 70
    0
  9
$DIMTAD
 70
    0
  9
$DIMZIN
 70
    0
  9
$DIMBLK
  1

  9
$DIMASO
 70
    1
  9
$DIMSHO
 70
    1
  9
$DIMPOST
  1

  9
$DIMAPOST
  1

  9
$DIMALT
 70
    0
  9
$DIMALTD
 70
    2
  9
$DIMALTF
 40
25.4
  9
$DIMLFAC
 40
1
  9
$DIMTOFL
 70
    0
  9
$DIMTVP
 40
0
  9
$DIMTIX
 70
    0
  9
$DIMSOXD
 70
    0
  9
$DIMSAH
 70
    0
  9
$DIMBLK1
  1

  9
$DIMBLK2
  1

  9
$DIMSTYLE
  2
Standard
  9
$DIMCLRD
 70
    0
  9
$DIMCLRE
 70
    0
  9
$DIMCLRT
 70
    0
  9
$DIMTFAC
 40
1
  9
$DIMGAP
 40
0.09
  9
$DIMJUST
 70
    0
  9
$DIMSD1
 70
    0
  9
$DIMSD2
 70
    0
  9
$DIMTOLJ
 70
    1
  9
$DIMTZIN
 70
    0
  9
$DIMALTZ
 70
    0
  9
$DIMALTTZ
 70
    0
  9
$DIMUPT
 70
    0
  9
$DIMDEC
 70
    4
  9
$DIMTDEC
 70
    4
  9
$DIMALTU
 70
    2
  9
$DIMALTTD
 70
    2
  9
$DIMTXSTY
  7
Standard
  9
$DIMAUNIT
 70
    0
  9
$DIMADEC
 70
    0
  9
$DIMALTRND
 40
0
  9
$DIMAZIN
 70
    0
  9
$DIMDSEP
 70
   46
  9
$DIMATFIT
 70
    3
  9
$DIMFRAC
 70
    0
  9
$DIMLDRBLK
  1

  9
$DIMLUNIT
 70
    2
  9
$DIMLWD
 70
   -2
  9
$DIMLWE
 70
   -2
  9
$DIMTMOVE
 70
    0
  9
$DIMFXL
 40
1
  9
$DIMFXLON
 70
    0
  9
$DIMJOGANG
 40
0.7853981633974483
  9
$DIMTFILL
 70
    0
  9
$DIMTFILLCLR
 70
    0
  9
$DIMARCSYM
 70
    0
  9
$DIMLTYPE
  6

  9
$DIMLTEX1
  6

  9
$DIMLTEX2
  6

  9
$LUNITS
 70
    2
  9
$LUPREC
 70
    4
  9
$SKETCHINC
 40
0.1
  9
$FILLETRAD
 40
0.5
  9
$AUNITS
 70
    0
  9
$AUPREC
 70
    0
  9
$MENU
  1
.
  9
$ELEVATION
 40
0
  9
$PELEVATION
 40
0
  9
$THICKNESS
 40
0
  9
$LIMCHECK
 70
    0
  9
$CHAMFERA
 40
0
  9
$CHAMFERB
 40
0
  9
$CHAMFERC
 40
0
  9
$CHAMFERD
 40
0
  9
$SKPOLY
 70
    0
  9
$USRTIMER
 70
    1
  9
$ANGBASE
 50
0
  9
$ANGDIR
 70
    0
  9
$PDMODE
 70
    0
  9
$PDSIZE
 40
0
  9
$PLINEWID
 40
0
  9
$SPLFRAME
 70
    0
  9
$SPLINETYPE
 70
    6
  9
$SPLINESEGS
 70
    8
  9
$HANDSEED
  5
20000
  9
$SURFTAB1
 70
    6
  9
$SURFTAB2
 70
    6
  9
$SURFTYPE
 70
    6
  9
$SURFU
 70
    6
  9
$SURFV
 70
    6
  9
$UCSBASE
  2

  9
$UCSNAME
  2

  9
$UCSORG
 10
0
 20
0
 30
0
  9
$UCSXDIR
 10
1
 20
0
 30
0
  9
$UCSYDIR
 10
0
 20
1
 30
0
  9
$UCSORTHOREF
  2

  9
$UCSORTHOVIEW
 70
    0
  9
$UCSORGTOP
 10
0
 20
0
 30
0
  9
$UCSORGBOTTOM
 10
0
 20
0
 30
0
  9
$UCSORGLEFT
 10
0
 20
0
 30
0
  9
$UCSORGRIGHT
 10
0
 20
0
 30
0
  9
$UCSORGFRONT
 10
0
 20
0
 30
0
  9
$UCSORGBACK
 10
0
 20
0
 30
0
  9
$PUCSBASE
  2

  9
$PUCSNAME
  2

  9
$PUCSORG
 10
0
 20
0
 30
0
  9
$PUCSXDIR
 10
1
 20
0
 30
0
  9
$PUCSYDIR
 10
0
 20
1
 30
0
  9
$PUCSORTHOREF
  2

  9
$PUCSORTHOVIEW
 70
    0
  9
$PUCSORGTOP
 10
0
 20
0
 30
0
  9
$PUCSORGBOTTOM
 10
0
 20
0
 30
0
  9
$PUCSORGLEFT
 10
0
 20
0
 30
0
  9
$PUCSORGRIGHT
 10
0
 20
0
 30
0
  9
$PUCSORGFRONT
 10
0
 20
0
 30
0
  9
$PUCSORGBACK
 10
0
 20
0
 30
0
  9
$USERI1
 70
    0
  9
$USERI2
 70
    0
  9
$USERI3
 70
    0
  9
$USERI4
 70
    0
  9
$USERI5
 70
    0
  9
$USERR1
 40
0
  9
$USERR2
 40
0
  9
$USERR3
 40
0
  9
$USERR4
 40
0
  9
$USERR5
 40
0
  9
$WORLDVIEW
 70
    1
  9
$SHADEDGE
 70
    3
  9
$SHADEDIF
 70
   70
  9
$TILEMODE
 70
    1
  9
$MAXACTVP
 70
   64
  9
$PINSBASE
 10
0
 20
0
 30
0
  9
$PLIMCHECK
 70
    0
  9
$PEXTMIN
 10
1e+020
 20
1e+020
 30
1e+020
  9
$PEXTMAX
 10
-1e+020
 20
-1e+020
 30
-1e+020
  9
$GRIDMODE
 70
    0
  9
$SNAPSTYLE
 70
    0
  9
$PLIMMIN
 10
0
 20
0
  9
$PLIMMAX
 10
12
 20
9
  9
$UNITMODE
 70
    0
  9
$VISRETAIN
 70
    1
  9
$PLINEGEN
 70
    0
  9
$PSLTSCALE
 70
    1
  9
$TREEDEPTH
 70
 3020
  9
$CMLSTYLE
  2
Standard
  9
$CMLJUST
 70
    0
  9
$CMLSCALE
 40
1
  9
$PROXYGRAPHICS
 70
    1
  9
$MEASUREMENT
 70
    0
  9
$CELWEIGHT
370
   -1
  9
$ENDCAPS
280
    0
  9
$JOINSTYLE
280
    0
  9
$LWDISPLAY
290
    0
  9
$INSUNITS
 70
    4
  9
$HYPERLINKBASE
  1

  9
$STYLESHEET
  1

  9
$XEDIT
290
    1
  9
$CEPSNTYPE
380
    0
  9
$PSTYLEMODE
290
    1
  9
$EXTNAMES
290
    1
  9
$PSVPSCALE
 40
0
  9
$OLESTARTUP
290
    0
  9
$SORTENTS
280
  127
  9
$INDEXCTL
280
    0
  9
$HIDETEXT
280
    1
  9
$XCLIPFRAME
290
    0
  9
$HALOGAP
280
    0
  9
$OBSCOLOR
 70
  257
  9
$OBSLTYPE
280
    0
  9
$INTERSECTIONDISPLAY
280
    0
  9
$INTERSECTIONCOLOR
 70
  257
  9
$DIMASSOC
280
    2
  9
$PROJECTNAME
  1

  9
$CAMERADISPLAY
290
    0
  9
$LENSLENGTH
 40
50
  9
$CAMERAHEIGHT
 40
0
  9
$STEPSPERSEC
 40
2
  9
$STEPSIZE
 40
6
  9
$3DDWFPREC
 40
2
  9
$PSOLWIDTH
 40
0.25
  9
$PSOLHEIGHT
 40
4
  9
$LOFTANG1
 40
1.570796326794897
  9
$LOFTANG2
 40
1.570796326794897
  9
$LOFTMAG1
 40
0
  9
$LOFTMAG2
 40
0
  9
$LOFTPARAM
 70
    7
  9
$LOFTNORMALS
280
    1
  9
$LATITUDE
 40
37.795
  9
$LONGITUDE
 40
-122.394
  9
$NORTHDIRECTION
 40
0
  9
$TIMEZONE
 70
-8000
  9
$LIGHTGLYPHDISPLAY
280
    1
  9
$TILEMODELIGHTSYNCH
280
    1
  9
$SOLIDHIST
280
    0
  9
$SHOWHIST
280
    1
  9
$DWFFRAME
280
    2
  9
$DGNFRAME
280
    2
  9
$REALWORLDSCALE
290
    1
  9
$INTERFERECOLOR
 62
  256
  9
$CSHADOW
280
    0
  9
$SHADOWPLANELOCATION
 40
0
  0
ENDSEC
  0
SECTION
  2
CLASSES
  0
ENDSEC
  0
SECTION
  2
TABLES
  0
TABLE
  2
VPORT
  5
8
330
0
100
AcDbSymbolTable
 70
    1
  0
VPORT
  5
31
330
2
100
AcDbSymbolTableRecord
100
AcDbViewportTableRecord
  2
*ACTIVE
 70
    0
 10
0
 20
0
 11
1
 21
1
 12
80.42887607522277
 22
35.81055145135999
 13
0
 23
0
 14
10
 24
10
 15
10
 25
10
 16
0
 26
0
 36
1
 17
0
 27
0
 37
0
 40
141.0788930964042
 41
1.865826944140197
 42
50
 43
0
 44
0
 50
0
 51
0
 71
    0
 72
  100
 73
    1
 74
    3
 75
    0
 76
    0
 77
    0
 78
    0
281
    0
 65
    1
110
0
120
0
130
0
111
1
121
0
131
0
112
0
122
1
132
0
 79
    0
146
0
348
10020
 60
    7
 61
    5
292
1
282
    1
141
0
142
0
 63
  250
421
3358443
  0
ENDTAB
  0
TABLE
  2
LTYPE
  5
5
330
0
100
AcDbSymbolTable
 70
    4
  0
LTYPE
  5
14
330
5
100
AcDbSymbolTableRecord
100
AcDbLinetypeTableRecord
  2
ByBlock
 70
    0
  3

 72
   65
 73
    0
 40
0
  0
LTYPE
  5
15
330
5
100
AcDbSymbolTableRecord
100
AcDbLinetypeTableRecord
  2
ByLayer
 70
    0
  3

 72
   65
 73
    0
 40
0
  0
LTYPE
  5
16
330
5
100
AcDbSymbolTableRecord
100
AcDbLinetypeTableRecord
  2
Continuous
 70
    0
  3
Solid line
 72
   65
 73
    0
 40
0
  0
LTYPE
  5
32
330
5
100
AcDbSymbolTableRecord
100
AcDbLinetypeTableRecord
  2
DOT
 70
    0
  3
Dot . . . . . . . . . . . . . . . . . . . . . .
 72
   65
 73
    2
 40
6.35
 49
0
 74
    0
 49
-6.35
 74
    0
  0
LTYPE
  5
33
330
5
100
AcDbSymbolTableRecord
100
AcDbLinetypeTableRecord
  2
DOTTINY
 70
    0
  3
Dot (.15x) .....................................
 72
   65
 73
    2
 40
0.9525
 49
0
 74
    0
 49
-0.9525
 74
    0
  0
LTYPE
  5
34
330
5
100
AcDbSymbolTableRecord
100
AcDbLinetypeTableRecord
  2
DOT2
 70
    0
  3
Dot (.5x) .....................................
 72
   65
 73
    2
 40
3.175
 49
0
 74
    0
 49
-3.175
 74
    0
  0
LTYPE
  5
35
330
5
100
AcDbSymbolTableRecord
100
AcDbLinetypeTableRecord
  2
DOTX2
 70
    0
  3
Dot (2x) .  .  .  .  .  .  .  .  .  .  .  .  .
 72
   65
 73
    2
 40
12.7
 49
0
 74
    0
 49
-12.7
 74
    0
  0
LTYPE
  5
36
330
5
100
AcDbSymbolTableRecord
100
AcDbLinetypeTableRecord
  2
DASHED
 70
    0
  3
Dashed _ _ _ _ _ _ _ _ _ _ _ _ _ _ _ _ _
 72
   65
 73
    2
 40
19.05
 49
12.7
 74
    0
 49
-6.35
 74
    0
  0
LTYPE
  5
37
330
5
100
AcDbSymbolTableRecord
100
AcDbLinetypeTableRecord
  2
DASHEDTINY
 70
    0
  3
Dashed (.15x) _ _ _ _ _ _ _ _ _ _ _ _ _ _ _ _ _
 72
   65
 73
    2
 40
2.8575
 49
1.905
 74
    0
 49
-0.9525
 74
    0
  0
LTYPE
  5
38
330
5
100
AcDbSymbolTableRecord
100
AcDbLinetypeTableRecord
  2
DASHED2
 70
    0
  3
Dashed (.5x) _ _ _ _ _ _ _ _ _ _ _ _ _ _ _ _ _
 72
   65
 73
    2
 40
9.524999999999999
 49
6.35
 74
    0
 49
-3.175
 74
    0
  0
LTYPE
  5
39
330
5
100
AcDbSymbolTableRecord
100
AcDbLinetypeTableRecord
  2
DASHEDX2
 70
    0
  3
Dashed (2x) ____  ____  ____  ____  ____  ___
 72
   65
 73
    2
 40
38.09999999999999
 49
25.4
 74
    0
 49
-12.7
 74
    0
  0
LTYPE
  5
3A
330
5
100
AcDbSymbolTableRecord
100
AcDbLinetypeTableRecord
  2
DASHDOT
 70
    0
  3
Dash dot __ . __ . __ . __ . __ . __ . __ . __
 72
   65
 73
    4
 40
25.4
 49
12.7
 74
    0
 49
-6.35
 74
    0
 49
0
 74
    0
 49
-6.35
 74
    0
  0
LTYPE
  5
3B
330
5
100
AcDbSymbolTableRecord
100
AcDbLinetypeTableRecord
  2
DASHDOTTINY
 70
    0
  3
Dash dot (.15x) _._._._._._._._._._._._._._._.
 72
   65
 73
    4
 40
3.81
 49
1.905
 74
    0
 49
-0.9525
 74
    0
 49
0
 74
    0
 49
-0.9525
 74
    0
  0
LTYPE
  5
3C
330
5
100
AcDbSymbolTableRecord
100
AcDbLinetypeTableRecord
  2
DASHDOT2
 70
    0
  3
Dash dot (.5x) _._._._._._._._._._._._._._._.
 72
   65
 73
    4
 40
12.7
 49
6.35
 74
    0
 49
-3.175
 74
    0
 49
0
 74
    0
 49
-3.175
 74
    0
  0
LTYPE
  5
3D
330
5
100
AcDbSymbolTableRecord
100
AcDbLinetypeTableRecord
  2
DASHDOTX2
 70
    0
  3
Dash dot (2x) ____  .  ____  .  ____  .  ___
 72
   65
 73
    4
 40
50.8
 49
25.4
 74
    0
 49
-12.7
 74
    0
 49
0
 74
    0
 49
-12.7
 74
    0
  0
LTYPE
  5
3E
330
5
100
AcDbSymbolTableRecord
100
AcDbLinetypeTableRecord
  2
DIVIDE
 70
    0
  3
Divide ____ . . ____ . . ____ . . ____ . . ____
 72
   65
 73
    6
 40
31.75
 49
12.7
 74
    0
 49
-6.35
 74
    0
 49
0
 74
    0
 49
-6.35
 74
    0
 49
0
 74
    0
 49
-6.35
 74
    0
  0
LTYPE
  5
3F
330
5
100
AcDbSymbolTableRecord
100
AcDbLinetypeTableRecord
  2
DIVIDETINY
 70
    0
  3
Divide (.15x) __..__..__..__..__..__..__..__.._
 72
   65
 73
    6
 40
4.7625
 49
1.905
 74
    0
 49
-0.9525
 74
    0
 49
0
 74
    0
 49
-0.9525
 74
    0
 49
0
 74
    0
 49
-0.9525
 74
    0
  0
LTYPE
  5
40
330
5
100
AcDbSymbolTableRecord
100
AcDbLinetypeTableRecord
  2
DIVIDE2
 70
    0
  3
Divide (.5x) __..__..__..__..__..__..__..__.._
 72
   65
 73
    6
 40
15.875
 49
6.35
 74
    0
 49
-3.175
 74
    0
 49
0
 74
    0
 49
-3.175
 74
    0
 49
0
 74
    0
 49
-3.175
 74
    0
  0
LTYPE
  5
41
330
5
100
AcDbSymbolTableRecord
100
AcDbLinetypeTableRecord
  2
DIVIDEX2
 70
    0
  3
Divide (2x) ________  .  .  ________  .  .  _
 72
   65
 73
    6
 40
63.5
 49
25.4
 74
    0
 49
-12.7
 74
    0
 49
0
 74
    0
 49
-12.7
 74
    0
 49
0
 74
    0
 49
-12.7
 74
    0
  0
LTYPE
  5
42
330
5
100
AcDbSymbolTableRecord
100
AcDbLinetypeTableRecord
  2
BORDER
 70
    0
  3
Border __ __ . __ __ . __ __ . __ __ . __ __ .
 72
   65
 73
    6
 40
44.45
 49
12.7
 74
    0
 49
-6.35
 74
    0
 49
12.7
 74
    0
 49
-6.35
 74
    0
 49
0
 74
    0
 49
-6.35
 74
    0
  0
LTYPE
  5
43
330
5
100
AcDbSymbolTableRecord
100
AcDbLinetypeTableRecord
  2
BORDERTINY
 70
    0
  3
Border (.15x) __.__.__.__.__.__.__.__.__.__.__.
 72
   65
 73
    6
 40
6.6675
 49
1.905
 74
    0
 49
-0.9525
 74
    0
 49
1.905
 74
    0
 49
-0.9525
 74
    0
 49
0
 74
    0
 49
-0.9525
 74
    0
  0
LTYPE
  5
44
330
5
100
AcDbSymbolTableRecord
100
AcDbLinetypeTableRecord
  2
BORDER2
 70
    0
  3
Border (.5x) __.__.__.__.__.__.__.__.__.__.__.
 72
   65
 73
    6
 40
22.225
 49
6.35
 74
    0
 49
-3.175
 74
    0
 49
6.35
 74
    0
 49
-3.175
 74
    0
 49
0
 74
    0
 49
-3.175
 74
    0
  0
LTYPE
  5
45
330
5
100
AcDbSymbolTableRecord
100
AcDbLinetypeTableRecord
  2
BORDERX2
 70
    0
  3
Border (2x) ____  ____  .  ____  ____  .  ___
 72
   65
 73
    6
 40
88.89999999999999
 49
25.4
 74
    0
 49
-12.7
 74
    0
 49
25.4
 74
    0
 49
-12.7
 74
    0
 49
0
 74
    0
 49
-12.7
 74
    0
  0
LTYPE
  5
46
330
5
100
AcDbSymbolTableRecord
100
AcDbLinetypeTableRecord
  2
CENTER
 70
    0
  3
Center ____ _ ____ _ ____ _ ____ _ ____ _ ____
 72
   65
 73
    4
 40
50.8
 49
31.75
 74
    0
 49
-6.35
 74
    0
 49
6.35
 74
    0
 49
-6.35
 74
    0
  0
LTYPE
  5
47
330
5
100
AcDbSymbolTableRecord
100
AcDbLinetypeTableRecord
  2
CENTERTINY
 70
    0
  3
Center (.15x) ___ _ ___ _ ___ _ ___ _ ___ _ ___
 72
   65
 73
    4
 40
7.62
 49
4.7625
 74
    0
 49
-0.9525
 74
    0
 49
0.9525
 74
    0
 49
-0.9525
 74
    0
  0
LTYPE
  5
48
330
5
100
AcDbSymbolTableRecord
100
AcDbLinetypeTableRecord
  2
CENTER2
 70
    0
  3
Center (.5x) ___ _ ___ _ ___ _ ___ _ ___ _ ___
 72
   65
 73
    4
 40
28.575
 49
19.05
 74
    0
 49
-3.175
 74
    0
 49
3.175
 74
    0
 49
-3.175
 74
    0
  0
LTYPE
  5
49
330
5
100
AcDbSymbolTableRecord
100
AcDbLinetypeTableRecord
  2
CENTERX2
 70
    0
  3
Center (2x) ________  __  ________  __  _____
 72
   65
 73
    4
 40
101.6
 49
63.5
 74
    0
 49
-12.7
 74
    0
 49
12.7
 74
    0
 49
-12.7
 74
    0
  0
ENDTAB
  0
TABLE
  2
LAYER
  5
2
330
0
100
AcDbSymbolTable
 70
    1
  0
LAYER
  5
10
330
2
100
AcDbSymbolTableRecord
100
AcDbLayerTableRecord
  2
0
 70
    0
 62
    7
  6
CONTINUOUS
370
   -3
390
F
  0
LAYER
  5
4A
330
2
100
AcDbSymbolTableRecord
100
AcDbLayerTableRecord
  2
Guides
 70
    0
 62
  256
  6
CONTINUOUS
290
0
370
   -3
390
F
  0
LAYER
  5
4B
330
2
100
AcDbSymbolTableRecord
100
AcDbLayerTableRecord
  2
Layer 1
 70
    0
 62
    7
  6
CONTINUOUS
370
   -3
390
F
  0
LAYER
  5
4C
330
2
100
AcDbSymbolTableRecord
100
AcDbLayerTableRecord
  2
Master Guides
 70
    0
 62
    7
  6
CONTINUOUS
290
0
370
   -3
390
F
  0
ENDTAB
  0
TABLE
  2
STYLE
  5
3
330
0
100
AcDbSymbolTable
 70
    3
  0
STYLE
  5
4D
330
2
100
AcDbSymbolTableRecord
100
AcDbTextStyleTableRecord
  2
Standard
 70
    0
 40
0
 41
1
 50
0
 71
    0
 42
1
  3
txt
  4

  0
ENDTAB
  0
TABLE
  2
VIEW
  5
6
330
0
100
AcDbSymbolTable
 70
    0
  0
ENDTAB
  0
TABLE
  2
UCS
  5
7
330
0
100
AcDbSymbolTable
 70
    0
  0
ENDTAB
  0
TABLE
  2
APPID
  5
9
330
0
100
AcDbSymbolTable
 70
    1
  0
APPID
  5
12
330
9
100
AcDbSymbolTableRecord
100
AcDbRegAppTableRecord
  2
ACAD
 70
    0
  0
APPID
  5
4E
330
9
100
AcDbSymbolTableRecord
100
AcDbRegAppTableRecord
  2
LibreCad
 70
    0
  0
ENDTAB
  0
TABLE
  2
DIMSTYLE
  5
A
330
0
100
AcDbSymbolTable
 70
    1
100
AcDbDimStyleTable
 71
    1
  0
DIMSTYLE
105
4F
330
A
100
AcDbSymbolTableRecord
100
AcDbDimStyleTableRecord
  2
Standard
 70
    0
 40
1
 41
0.18
 42
0.0625
 43
0.38
 44
0.18
 45
0
 46
0
 47
0
 48
0
 49
1
140
0.18
141
0.09
142
0
143
25.4
144
1
145
0
146
1
147
0.09
148
0
 71
    0
 72
    0
 73
    1
 74
    1
 75
    0
 76
    0
 77
    0
 78
    0
 79
    0
170
    0
171
    2
172
    0
173
    0
174
    0
175
    0
176
    0
177
    0
178
    0
179
    0
271
    4
272
    4
273
    2
274
    2
275
    0
276
    0
277
    2
278
   46
279
    0
280
    0
281
    0
282
    0
283
    1
284
    0
285
    0
286
    0
288
    0
289
    3
340
Standard
341

371
   -2
372
   -2
  0
ENDTAB
  0
TABLE
  2
BLOCK_RECORD
  5
1
330
0
100
AcDbSymbolTable
 70
    2
  0
BLOCK_RECORD
  5
1F
330
1
100
AcDbSymbolTableRecord
100
AcDbBlockTableRecord
  2
*Model_Space
 70
    0
280
    1
281
    0
  0
BLOCK_RECORD
  5
1E
330
1
100
AcDbSymbolTableRecord
100
AcDbBlockTableRecord
  2
*Paper_Space
 70
    0
280
    1
281
    0
  0
ENDTAB
  0
ENDSEC
  0
SECTION
  2
BLOCKS
  0
BLOCK
  5
20
330
1F
100
AcDbEntity
  8
0
100
AcDbBlockBegin
  2
*Model_Space
 70
    0
 10
0
 20
0
 30
0
  3
*Model_Space
  1

  0
ENDBLK
  5
21
330
1F
100
AcDbEntity
  8
0
100
AcDbBlockEnd
  0
BLOCK
  5
1C
330
1B
100
AcDbEntity
  8
0
100
AcDbBlockBegin
  2
*Paper_Space
 70
    0
 10
0
 20
0
 30
0
  3
*Paper_Space
  1

  0
ENDBLK
  5
1D
330
1F
100
AcDbEntity
  8
0
100
AcDbBlockEnd
  0
ENDSEC
  0
SECTION
  2
ENTITIES
  0
SPLINE
  5
50
100
AcDbEntity
  8
Layer 1
  6
ByLayer
 62
  256
370
    9
100
AcDbSpline
210
0
220
0
230
0
 70
   11
 71
    3
 72
 1212
 73
 1208
 74
    0
 42
1e-007
 43
1e-007
 40
0
 40
0
 40
0
 40
0
 40
0.0033003300330033
 40
0.0033003300330033
 40
0.0033003300330033
 40
0.0033003300330033
 40
0.0066006600660066
 40
0.0066006600660066
 40
0.0066006600660066
 40
0.0066006600660066
 40
0.009900990099009899
 40
0.009900990099009899
 40
0.009900990099009899
 40
0.009900990099009899
 40
0.0132013201320132
 40
0.0132013201320132
 40
0.0132013201320132
 40
0.0132013201320132
 40
0.0165016501650165
 40
0.0165016501650165
 40
0.0165016501650165
 40
0.0165016501650165
 40
0.0198019801980198
 40
0.0198019801980198
 40
0.0198019801980198
 40
0.0198019801980198
 40
0.0231023102310231
 40
0.0231023102310231
 40
0.0231023102310231
 40
0.0231023102310231
 40
0.0264026402640264
 40
0.0264026402640264
 40
0.0264026402640264
 40
0.0264026402640264
 40
0.0297029702970297
 40
0.0297029702970297
 40
0.0297029702970297
 40
0.0297029702970297
 40
0.033003300330033
 40
0.033003300330033
 40
0.033003300330033
 40
0.033003300330033
 40
0.0363036303630363
 40
0.0363036303630363
 40
0.0363036303630363
 40
0.0363036303630363
 40
0.0396039603960396
 40
0.0396039603960396
 40
0.0396039603960396
 40
0.0396039603960396
 40
0.0429042904290429
 40
0.0429042904290429
 40
0.0429042904290429
 40
0.0429042904290429
 40
0.0462046204620462
 40
0.0462046204620462
 40
0.0462046204620462
 40
0.0462046204620462
 40
0.0495049504950495
 40
0.0495049504950495
 40
0.0495049504950495
 40
0.0495049504950495
 40
0.0528052805280528
 40
0.0528052805280528
 40
0.0528052805280528
 40
0.0528052805280528
 40
0.0561056105610561
 40
0.0561056105610561
 40
0.0561056105610561
 40
0.0561056105610561
 40
0.0594059405940594
 40
0.0594059405940594
 40
0.0594059405940594
 40
0.0594059405940594
 40
0.0627062706270627
 40
0.0627062706270627
 40
0.0627062706270627
 40
0.0627062706270627
 40
0.066006600660066
 40
0.066006600660066
 40
0.066006600660066
 40
0.066006600660066
 40
0.0693069306930693
 40
0.0693069306930693
 40
0.0693069306930693
 40
0.0693069306930693
 40
0.0726072607260726
 40
0.0726072607260726
 40
0.0726072607260726
 40
0.0726072607260726
 40
0.0759075907590759
 40
0.0759075907590759
 40
0.0759075907590759
 40
0.0759075907590759
 40
0.0792079207920792
 40
0.0792079207920792
 40
0.0792079207920792
 40
0.0792079207920792
 40
0.08250825082508249
 40
0.08250825082508249
 40
0.08250825082508249
 40
0.08250825082508249
 40
0.08580858085808581
 40
0.08580858085808581
 40
0.08580858085808581
 40
0.08580858085808581
 40
0.0891089108910891
 40
0.0891089108910891
 40
0.0891089108910891
 40
0.0891089108910891
 40
0.0924092409240924
 40
0.0924092409240924
 40
0.0924092409240924
 40
0.0924092409240924
 40
0.0957095709570957
 40
0.0957095709570957
 40
0.0957095709570957
 40
0.0957095709570957
 40
0.099009900990099
 40
0.099009900990099
 40
0.099009900990099
 40
0.099009900990099
 40
0.1023102310231023
 40
0.1023102310231023
 40
0.1023102310231023
 40
0.1023102310231023
 40
0.1056105610561056
 40
0.1056105610561056
 40
0.1056105610561056
 40
0.1056105610561056
 40
0.1089108910891089
 40
0.1089108910891089
 40
0.1089108910891089
 40
0.1089108910891089
 40
0.1122112211221122
 40
0.1122112211221122
 40
0.1122112211221122
 40
0.1122112211221122
 40
0.1155115511551155
 40
0.1155115511551155
 40
0.1155115511551155
 40
0.1155115511551155
 40
0.1188118811881188
 40
0.1188118811881188
 40
0.1188118811881188
 40
0.1188118811881188
 40
0.1221122112211221
 40
0.1221122112211221
 40
0.1221122112211221
 40
0.1221122112211221
 40
0.1254125412541254
 40
0.1254125412541254
 40
0.1254125412541254
 40
0.1254125412541254
 40
0.1287128712871287
 40
0.1287128712871287
 40
0.1287128712871287
 40
0.1287128712871287
 40
0.132013201320132
 40
0.132013201320132
 40
0.132013201320132
 40
0.132013201320132
 40
0.1353135313531353
 40
0.1353135313531353
 40
0.1353135313531353
 40
0.1353135313531353
 40
0.1386138613861386
 40
0.1386138613861386
 40
0.1386138613861386
 40
0.1386138613861386
 40
0.1419141914191419
 40
0.1419141914191419
 40
0.1419141914191419
 40
0.1419141914191419
 40
0.1452145214521452
 40
0.1452145214521452
 40
0.1452145214521452
 40
0.1452145214521452
 40
0.1485148514851485
 40
0.1485148514851485
 40
0.1485148514851485
 40
0.1485148514851485
 40
0.1518151815181518
 40
0.1518151815181518
 40
0.1518151815181518
 40
0.1518151815181518
 40
0.1551155115511551
 40
0.1551155115511551
 40
0.1551155115511551
 40
0.1551155115511551
 40
0.1584158415841584
 40
0.1584158415841584
 40
0.1584158415841584
 40
0.1584158415841584
 40
0.1617161716171617
 40
0.1617161716171617
 40
0.1617161716171617
 40
0.1617161716171617
 40
0.165016501650165
 40
0.165016501650165
 40
0.165016501650165
 40
0.165016501650165
 40
0.1683168316831683
 40
0.1683168316831683
 40
0.1683168316831683
 40
0.1683168316831683
 40
0.1716171617161716
 40
0.1716171617161716
 40
0.1716171617161716
 40
0.1716171617161716
 40
0.1749174917491749
 40
0.1749174917491749
 40
0.1749174917491749
 40
0.1749174917491749
 40
0.1782178217821782
 40
0.1782178217821782
 40
0.1782178217821782
 40
0.1782178217821782
 40
0.1815181518151815
 40
0.1815181518151815
 40
0.1815181518151815
 40
0.1815181518151815
 40
0.1848184818481848
 40
0.1848184818481848
 40
0.1848184818481848
 40
0.1848184818481848
 40
0.1881188118811881
 40
0.1881188118811881
 40
0.1881188118811881
 40
0.1881188118811881
 40
0.1914191419141914
 40
0.1914191419141914
 40
0.1914191419141914
 40
0.1914191419141914
 40
0.1947194719471947
 40
0.1947194719471947
 40
0.1947194719471947
 40
0.1947194719471947
 40
0.198019801980198
 40
0.198019801980198
 40
0.198019801980198
 40
0.198019801980198
 40
0.2013201320132013
 40
0.2013201320132013
 40
0.2013201320132013
 40
0.2013201320132013
 40
0.2046204620462046
 40
0.2046204620462046
 40
0.2046204620462046
 40
0.2046204620462046
 40
0.2079207920792079
 40
0.2079207920792079
 40
0.2079207920792079
 40
0.2079207920792079
 40
0.2112211221122112
 40
0.2112211221122112
 40
0.2112211221122112
 40
0.2112211221122112
 40
0.2145214521452145
 40
0.2145214521452145
 40
0.2145214521452145
 40
0.2145214521452145
 40
0.2178217821782178
 40
0.2178217821782178
 40
0.2178217821782178
 40
0.2178217821782178
 40
0.2211221122112211
 40
0.2211221122112211
 40
0.2211221122112211
 40
0.2211221122112211
 40
0.2244224422442244
 40
0.2244224422442244
 40
0.2244224422442244
 40
0.2244224422442244
 40
0.2277227722772277
 40
0.2277227722772277
 40
0.2277227722772277
 40
0.2277227722772277
 40
0.231023102310231
 40
0.231023102310231
 40
0.231023102310231
 40
0.231023102310231
 40
0.2343234323432343
 40
0.2343234323432343
 40
0.2343234323432343
 40
0.2343234323432343
 40
0.2376237623762376
 40
0.2376237623762376
 40
0.2376237623762376
 40
0.2376237623762376
 40
0.2409240924092409
 40
0.2409240924092409
 40
0.2409240924092409
 40
0.2409240924092409
 40
0.2442244224422442
 40
0.2442244224422442
 40
0.2442244224422442
 40
0.2442244224422442
 40
0.2475247524752475
 40
0.2475247524752475
 40
0.2475247524752475
 40
0.2475247524752475
 40
0.2508250825082508
 40
0.2508250825082508
 40
0.2508250825082508
 40
0.2508250825082508
 40
0.2541254125412541
 40
0.2541254125412541
 40
0.2541254125412541
 40
0.2541254125412541
 40
0.2574257425742574
 40
0.2574257425742574
 40
0.2574257425742574
 40
0.2574257425742574
 40
0.2607260726072607
 40
0.2607260726072607
 40
0.2607260726072607
 40
0.2607260726072607
 40
0.264026402640264
 40
0.264026402640264
 40
0.264026402640264
 40
0.264026402640264
 40
0.2673267326732673
 40
0.2673267326732673
 40
0.2673267326732673
 40
0.2673267326732673
 40
0.2706270627062706
 40
0.2706270627062706
 40
0.2706270627062706
 40
0.2706270627062706
 40
0.2739273927392739
 40
0.2739273927392739
 40
0.2739273927392739
 40
0.2739273927392739
 40
0.2772277227722773
 40
0.2772277227722773
 40
0.2772277227722773
 40
0.2772277227722773
 40
0.2805280528052805
 40
0.2805280528052805
 40
0.2805280528052805
 40
0.2805280528052805
 40
0.2838283828382838
 40
0.2838283828382838
 40
0.2838283828382838
 40
0.2838283828382838
 40
0.2871287128712871
 40
0.2871287128712871
 40
0.2871287128712871
 40
0.2871287128712871
 40
0.2904290429042904
 40
0.2904290429042904
 40
0.2904290429042904
 40
0.2904290429042904
 40
0.2937293729372937
 40
0.2937293729372937
 40
0.2937293729372937
 40
0.2937293729372937
 40
0.297029702970297
 40
0.297029702970297
 40
0.297029702970297
 40
0.297029702970297
 40
0.3003300330033004
 40
0.3003300330033004
 40
0.3003300330033004
 40
0.3003300330033004
 40
0.3036303630363036
 40
0.3036303630363036
 40
0.3036303630363036
 40
0.3036303630363036
 40
0.3069306930693069
 40
0.3069306930693069
 40
0.3069306930693069
 40
0.3069306930693069
 40
0.3102310231023102
 40
0.3102310231023102
 40
0.3102310231023102
 40
0.3102310231023102
 40
0.3135313531353136
 40
0.3135313531353136
 40
0.3135313531353136
 40
0.3135313531353136
 40
0.3168316831683168
 40
0.3168316831683168
 40
0.3168316831683168
 40
0.3168316831683168
 40
0.3201320132013201
 40
0.3201320132013201
 40
0.3201320132013201
 40
0.3201320132013201
 40
0.3234323432343234
 40
0.3234323432343234
 40
0.3234323432343234
 40
0.3234323432343234
 40
0.3267326732673267
 40
0.3267326732673267
 40
0.3267326732673267
 40
0.3267326732673267
 40
0.33003300330033
 40
0.33003300330033
 40
0.33003300330033
 40
0.33003300330033
 40
0.3333333333333333
 40
0.3333333333333333
 40
0.3333333333333333
 40
0.3333333333333333
 40
0.3366336633663367
 40
0.3366336633663367
 40
0.3366336633663367
 40
0.3366336633663367
 40
0.3399339933993399
 40
0.3399339933993399
 40
0.3399339933993399
 40
0.3399339933993399
 40
0.3432343234323432
 40
0.3432343234323432
 40
0.3432343234323432
 40
0.3432343234323432
 40
0.3465346534653465
 40
0.3465346534653465
 40
0.3465346534653465
 40
0.3465346534653465
 40
0.3498349834983498
 40
0.3498349834983498
 40
0.3498349834983498
 40
0.3498349834983498
 40
0.3531353135313531
 40
0.3531353135313531
 40
0.3531353135313531
 40
0.3531353135313531
 40
0.3564356435643564
 40
0.3564356435643564
 40
0.3564356435643564
 40
0.3564356435643564
 40
0.3597359735973598
 40
0.3597359735973598
 40
0.3597359735973598
 40
0.3597359735973598
 40
0.363036303630363
 40
0.363036303630363
 40
0.363036303630363
 40
0.363036303630363
 40
0.3663366336633663
 40
0.3663366336633663
 40
0.3663366336633663
 40
0.3663366336633663
 40
0.3696369636963696
 40
0.3696369636963696
 40
0.3696369636963696
 40
0.3696369636963696
 40
0.372937293729373
 40
0.372937293729373
 40
0.372937293729373
 40
0.372937293729373
 40
0.3762376237623762
 40
0.3762376237623762
 40
0.3762376237623762
 40
0.3762376237623762
 40
0.3795379537953795
 40
0.3795379537953795
 40
0.3795379537953795
 40
0.3795379537953795
 40
0.3828382838283829
 40
0.3828382838283829
 40
0.3828382838283829
 40
0.3828382838283829
 40
0.3861386138613861
 40
0.3861386138613861
 40
0.3861386138613861
 40
0.3861386138613861
 40
0.3894389438943894
 40
0.3894389438943894
 40
0.3894389438943894
 40
0.3894389438943894
 40
0.3927392739273927
 40
0.3927392739273927
 40
0.3927392739273927
 40
0.3927392739273927
 40
0.3960396039603961
 40
0.3960396039603961
 40
0.3960396039603961
 40
0.3960396039603961
 40
0.3993399339933993
 40
0.3993399339933993
 40
0.3993399339933993
 40
0.3993399339933993
 40
0.4026402640264026
 40
0.4026402640264026
 40
0.4026402640264026
 40
0.4026402640264026
 40
0.405940594059406
 40
0.405940594059406
 40
0.405940594059406
 40
0.405940594059406
 40
0.4092409240924093
 40
0.4092409240924093
 40
0.4092409240924093
 40
0.4092409240924093
 40
0.4125412541254125
 40
0.4125412541254125
 40
0.4125412541254125
 40
0.4125412541254125
 40
0.4158415841584158
 40
0.4158415841584158
 40
0.4158415841584158
 40
0.4158415841584158
 40
0.4191419141914192
 40
0.4191419141914192
 40
0.4191419141914192
 40
0.4191419141914192
 40
0.4224422442244224
 40
0.4224422442244224
 40
0.4224422442244224
 40
0.4224422442244224
 40
0.4257425742574257
 40
0.4257425742574257
 40
0.4257425742574257
 40
0.4257425742574257
 40
0.429042904290429
 40
0.429042904290429
 40
0.429042904290429
 40
0.429042904290429
 40
0.4323432343234324
 40
0.4323432343234324
 40
0.4323432343234324
 40
0.4323432343234324
 40
0.4356435643564356
 40
0.4356435643564356
 40
0.4356435643564356
 40
0.4356435643564356
 40
0.4389438943894389
 40
0.4389438943894389
 40
0.4389438943894389
 40
0.4389438943894389
 40
0.4422442244224423
 40
0.4422442244224423
 40
0.4422442244224423
 40
0.4422442244224423
 40
0.4455445544554456
 40
0.4455445544554456
 40
0.4455445544554456
 40
0.4455445544554456
 40
0.4488448844884488
 40
0.4488448844884488
 40
0.4488448844884488
 40
0.4488448844884488
 40
0.4521452145214521
 40
0.4521452145214521
 40
0.4521452145214521
 40
0.4521452145214521
 40
0.4554455445544555
 40
0.4554455445544555
 40
0.4554455445544555
 40
0.4554455445544555
 40
0.4587458745874587
 40
0.4587458745874587
 40
0.4587458745874587
 40
0.4587458745874587
 40
0.462046204620462
 40
0.462046204620462
 40
0.462046204620462
 40
0.462046204620462
 40
0.4653465346534654
 40
0.4653465346534654
 40
0.4653465346534654
 40
0.4653465346534654
 40
0.4686468646864687
 40
0.4686468646864687
 40
0.4686468646864687
 40
0.4686468646864687
 40
0.4719471947194719
 40
0.4719471947194719
 40
0.4719471947194719
 40
0.4719471947194719
 40
0.4752475247524752
 40
0.4752475247524752
 40
0.4752475247524752
 40
0.4752475247524752
 40
0.4785478547854786
 40
0.4785478547854786
 40
0.4785478547854786
 40
0.4785478547854786
 40
0.4818481848184819
 40
0.4818481848184819
 40
0.4818481848184819
 40
0.4818481848184819
 40
0.4851485148514851
 40
0.4851485148514851
 40
0.4851485148514851
 40
0.4851485148514851
 40
0.4884488448844885
 40
0.4884488448844885
 40
0.4884488448844885
 40
0.4884488448844885
 40
0.4917491749174918
 40
0.4917491749174918
 40
0.4917491749174918
 40
0.4917491749174918
 40
0.495049504950495
 40
0.495049504950495
 40
0.495049504950495
 40
0.495049504950495
 40
0.4983498349834983
 40
0.4983498349834983
 40
0.4983498349834983
 40
0.4983498349834983
 40
0.5016501650165016
 40
0.5016501650165016
 40
0.5016501650165016
 40
0.5016501650165016
 40
0.504950495049505
 40
0.504950495049505
 40
0.504950495049505
 40
0.504950495049505
 40
0.5082508250825083
 40
0.5082508250825083
 40
0.5082508250825083
 40
0.5082508250825083
 40
0.5115511551155115
 40
0.5115511551155115
 40
0.5115511551155115
 40
0.5115511551155115
 40
0.5148514851485149
 40
0.5148514851485149
 40
0.5148514851485149
 40
0.5148514851485149
 40
0.5181518151815182
 40
0.5181518151815182
 40
0.5181518151815182
 40
0.5181518151815182
 40
0.5214521452145214
 40
0.5214521452145214
 40
0.5214521452145214
 40
0.5214521452145214
 40
0.5247524752475248
 40
0.5247524752475248
 40
0.5247524752475248
 40
0.5247524752475248
 40
0.528052805280528
 40
0.528052805280528
 40
0.528052805280528
 40
0.528052805280528
 40
0.5313531353135313
 40
0.5313531353135313
 40
0.5313531353135313
 40
0.5313531353135313
 40
0.5346534653465347
 40
0.5346534653465347
 40
0.5346534653465347
 40
0.5346534653465347
 40
0.5379537953795379
 40
0.5379537953795379
 40
0.5379537953795379
 40
0.5379537953795379
 40
0.5412541254125413
 40
0.5412541254125413
 40
0.5412541254125413
 40
0.5412541254125413
 40
0.5445544554455446
 40
0.5445544554455446
 40
0.5445544554455446
 40
0.5445544554455446
 40
0.5478547854785478
 40
0.5478547854785478
 40
0.5478547854785478
 40
0.5478547854785478
 40
0.5511551155115512
 40
0.5511551155115512
 40
0.5511551155115512
 40
0.5511551155115512
 40
0.5544554455445545
 40
0.5544554455445545
 40
0.5544554455445545
 40
0.5544554455445545
 40
0.5577557755775577
 40
0.5577557755775577
 40
0.5577557755775577
 40
0.5577557755775577
 40
0.5610561056105611
 40
0.5610561056105611
 40
0.5610561056105611
 40
0.5610561056105611
 40
0.5643564356435643
 40
0.5643564356435643
 40
0.5643564356435643
 40
0.5643564356435643
 40
0.5676567656765676
 40
0.5676567656765676
 40
0.5676567656765676
 40
0.5676567656765676
 40
0.570957095709571
 40
0.570957095709571
 40
0.570957095709571
 40
0.570957095709571
 40
0.5742574257425742
 40
0.5742574257425742
 40
0.5742574257425742
 40
0.5742574257425742
 40
0.5775577557755776
 40
0.5775577557755776
 40
0.5775577557755776
 40
0.5775577557755776
 40
0.5808580858085809
 40
0.5808580858085809
 40
0.5808580858085809
 40
0.5808580858085809
 40
0.5841584158415841
 40
0.5841584158415841
 40
0.5841584158415841
 40
0.5841584158415841
 40
0.5874587458745875
 40
0.5874587458745875
 40
0.5874587458745875
 40
0.5874587458745875
 40
0.5907590759075908
 40
0.5907590759075908
 40
0.5907590759075908
 40
0.5907590759075908
 40
0.594059405940594
 40
0.594059405940594
 40
0.594059405940594
 40
0.594059405940594
 40
0.5973597359735974
 40
0.5973597359735974
 40
0.5973597359735974
 40
0.5973597359735974
 40
0.6006600660066007
 40
0.6006600660066007
 40
0.6006600660066007
 40
0.6006600660066007
 40
0.6039603960396039
 40
0.6039603960396039
 40
0.6039603960396039
 40
0.6039603960396039
 40
0.6072607260726073
 40
0.6072607260726073
 40
0.6072607260726073
 40
0.6072607260726073
 40
0.6105610561056105
 40
0.6105610561056105
 40
0.6105610561056105
 40
0.6105610561056105
 40
0.6138613861386139
 40
0.6138613861386139
 40
0.6138613861386139
 40
0.6138613861386139
 40
0.6171617161716172
 40
0.6171617161716172
 40
0.6171617161716172
 40
0.6171617161716172
 40
0.6204620462046204
 40
0.6204620462046204
 40
0.6204620462046204
 40
0.6204620462046204
 40
0.6237623762376238
 40
0.6237623762376238
 40
0.6237623762376238
 40
0.6237623762376238
 40
0.6270627062706271
 40
0.6270627062706271
 40
0.6270627062706271
 40
0.6270627062706271
 40
0.6303630363036303
 40
0.6303630363036303
 40
0.6303630363036303
 40
0.6303630363036303
 40
0.6336633663366337
 40
0.6336633663366337
 40
0.6336633663366337
 40
0.6336633663366337
 40
0.636963696369637
 40
0.636963696369637
 40
0.636963696369637
 40
0.636963696369637
 40
0.6402640264026402
 40
0.6402640264026402
 40
0.6402640264026402
 40
0.6402640264026402
 40
0.6435643564356436
 40
0.6435643564356436
 40
0.6435643564356436
 40
0.6435643564356436
 40
0.6468646864686468
 40
0.6468646864686468
 40
0.6468646864686468
 40
0.6468646864686468
 40
0.6501650165016502
 40
0.6501650165016502
 40
0.6501650165016502
 40
0.6501650165016502
 40
0.6534653465346535
 40
0.6534653465346535
 40
0.6534653465346535
 40
0.6534653465346535
 40
0.6567656765676567
 40
0.6567656765676567
 40
0.6567656765676567
 40
0.6567656765676567
 40
0.6600660066006601
 40
0.6600660066006601
 40
0.6600660066006601
 40
0.6600660066006601
 40
0.6633663366336634
 40
0.6633663366336634
 40
0.6633663366336634
 40
0.6633663366336634
 40
0.6666666666666666
 40
0.6666666666666666
 40
0.6666666666666666
 40
0.6666666666666666
 40
0.66996699669967
 40
0.66996699669967
 40
0.66996699669967
 40
0.66996699669967
 40
0.6732673267326733
 40
0.6732673267326733
 40
0.6732673267326733
 40
0.6732673267326733
 40
0.6765676567656765
 40
0.6765676567656765
 40
0.6765676567656765
 40
0.6765676567656765
 40
0.6798679867986799
 40
0.6798679867986799
 40
0.6798679867986799
 40
0.6798679867986799
 40
0.6831683168316832
 40
0.6831683168316832
 40
0.6831683168316832
 40
0.6831683168316832
 40
0.6864686468646864
 40
0.6864686468646864
 40
0.6864686468646864
 40
0.6864686468646864
 40
0.6897689768976898
 40
0.6897689768976898
 40
0.6897689768976898
 40
0.6897689768976898
 40
0.693069306930693
 40
0.693069306930693
 40
0.693069306930693
 40
0.693069306930693
 40
0.6963696369636964
 40
0.6963696369636964
 40
0.6963696369636964
 40
0.6963696369636964
 40
0.6996699669966997
 40
0.6996699669966997
 40
0.6996699669966997
 40
0.6996699669966997
 40
0.7029702970297029
 40
0.7029702970297029
 40
0.7029702970297029
 40
0.7029702970297029
 40
0.7062706270627063
 40
0.7062706270627063
 40
0.7062706270627063
 40
0.7062706270627063
 40
0.7095709570957096
 40
0.7095709570957096
 40
0.7095709570957096
 40
0.7095709570957096
 40
0.7128712871287128
 40
0.7128712871287128
 40
0.7128712871287128
 40
0.7128712871287128
 40
0.7161716171617162
 40
0.7161716171617162
 40
0.7161716171617162
 40
0.7161716171617162
 40
0.7194719471947195
 40
0.7194719471947195
 40
0.7194719471947195
 40
0.7194719471947195
 40
0.7227722772277227
 40
0.7227722772277227
 40
0.7227722772277227
 40
0.7227722772277227
 40
0.7260726072607261
 40
0.7260726072607261
 40
0.7260726072607261
 40
0.7260726072607261
 40
0.7293729372937293
 40
0.7293729372937293
 40
0.7293729372937293
 40
0.7293729372937293
 40
0.7326732673267327
 40
0.7326732673267327
 40
0.7326732673267327
 40
0.7326732673267327
 40
0.735973597359736
 40
0.735973597359736
 40
0.735973597359736
 40
0.735973597359736
 40
0.7392739273927392
 40
0.7392739273927392
 40
0.7392739273927392
 40
0.7392739273927392
 40
0.7425742574257426
 40
0.7425742574257426
 40
0.7425742574257426
 40
0.7425742574257426
 40
0.7458745874587459
 40
0.7458745874587459
 40
0.7458745874587459
 40
0.7458745874587459
 40
0.7491749174917491
 40
0.7491749174917491
 40
0.7491749174917491
 40
0.7491749174917491
 40
0.7524752475247525
 40
0.7524752475247525
 40
0.7524752475247525
 40
0.7524752475247525
 40
0.7557755775577558
 40
0.7557755775577558
 40
0.7557755775577558
 40
0.7557755775577558
 40
0.759075907590759
 40
0.759075907590759
 40
0.759075907590759
 40
0.759075907590759
 40
0.7623762376237624
 40
0.7623762376237624
 40
0.7623762376237624
 40
0.7623762376237624
 40
0.7656765676567657
 40
0.7656765676567657
 40
0.7656765676567657
 40
0.7656765676567657
 40
0.768976897689769
 40
0.768976897689769
 40
0.768976897689769
 40
0.768976897689769
 40
0.7722772277227723
 40
0.7722772277227723
 40
0.7722772277227723
 40
0.7722772277227723
 40
0.7755775577557755
 40
0.7755775577557755
 40
0.7755775577557755
 40
0.7755775577557755
 40
0.7788778877887789
 40
0.7788778877887789
 40
0.7788778877887789
 40
0.7788778877887789
 40
0.7821782178217822
 40
0.7821782178217822
 40
0.7821782178217822
 40
0.7821782178217822
 40
0.7854785478547854
 40
0.7854785478547854
 40
0.7854785478547854
 40
0.7854785478547854
 40
0.7887788778877888
 40
0.7887788778877888
 40
0.7887788778877888
 40
0.7887788778877888
 40
0.7920792079207921
 40
0.7920792079207921
 40
0.7920792079207921
 40
0.7920792079207921
 40
0.7953795379537953
 40
0.7953795379537953
 40
0.7953795379537953
 40
0.7953795379537953
 40
0.7986798679867987
 40
0.7986798679867987
 40
0.7986798679867987
 40
0.7986798679867987
 40
0.801980198019802
 40
0.801980198019802
 40
0.801980198019802
 40
0.801980198019802
 40
0.8052805280528053
 40
0.8052805280528053
 40
0.8052805280528053
 40
0.8052805280528053
 40
0.8085808580858086
 40
0.8085808580858086
 40
0.8085808580858086
 40
0.8085808580858086
 40
0.8118811881188119
 40
0.8118811881188119
 40
0.8118811881188119
 40
0.8118811881188119
 40
0.8151815181518152
 40
0.8151815181518152
 40
0.8151815181518152
 40
0.8151815181518152
 40
0.8184818481848185
 40
0.8184818481848185
 40
0.8184818481848185
 40
0.8184818481848185
 40
0.8217821782178217
 40
0.8217821782178217
 40
0.8217821782178217
 40
0.8217821782178217
 40
0.8250825082508251
 40
0.8250825082508251
 40
0.8250825082508251
 40
0.8250825082508251
 40
0.8283828382838284
 40
0.8283828382838284
 40
0.8283828382838284
 40
0.8283828382838284
 40
0.8316831683168316
 40
0.8316831683168316
 40
0.8316831683168316
 40
0.8316831683168316
 40
0.834983498349835
 40
0.834983498349835
 40
0.834983498349835
 40
0.834983498349835
 40
0.8382838283828383
 40
0.8382838283828383
 40
0.8382838283828383
 40
0.8382838283828383
 40
0.8415841584158416
 40
0.8415841584158416
 40
0.8415841584158416
 40
0.8415841584158416
 40
0.8448844884488449
 40
0.8448844884488449
 40
0.8448844884488449
 40
0.8448844884488449
 40
0.8481848184818482
 40
0.8481848184818482
 40
0.8481848184818482
 40
0.8481848184818482
 40
0.8514851485148515
 40
0.8514851485148515
 40
0.8514851485148515
 40
0.8514851485148515
 40
0.8547854785478548
 40
0.8547854785478548
 40
0.8547854785478548
 40
0.8547854785478548
 40
0.858085808580858
 40
0.858085808580858
 40
0.858085808580858
 40
0.858085808580858
 40
0.8613861386138614
 40
0.8613861386138614
 40
0.8613861386138614
 40
0.8613861386138614
 40
0.8646864686468647
 40
0.8646864686468647
 40
0.8646864686468647
 40
0.8646864686468647
 40
0.8679867986798679
 40
0.8679867986798679
 40
0.8679867986798679
 40
0.8679867986798679
 40
0.8712871287128713
 40
0.8712871287128713
 40
0.8712871287128713
 40
0.8712871287128713
 40
0.8745874587458746
 40
0.8745874587458746
 40
0.8745874587458746
 40
0.8745874587458746
 40
0.8778877887788779
 40
0.8778877887788779
 40
0.8778877887788779
 40
0.8778877887788779
 40
0.8811881188118812
 40
0.8811881188118812
 40
0.8811881188118812
 40
0.8811881188118812
 40
0.8844884488448845
 40
0.8844884488448845
 40
0.8844884488448845
 40
0.8844884488448845
 40
0.8877887788778878
 40
0.8877887788778878
 40
0.8877887788778878
 40
0.8877887788778878
 40
0.8910891089108911
 40
0.8910891089108911
 40
0.8910891089108911
 40
0.8910891089108911
 40
0.8943894389438944
 40
0.8943894389438944
 40
0.8943894389438944
 40
0.8943894389438944
 40
0.8976897689768977
 40
0.8976897689768977
 40
0.8976897689768977
 40
0.8976897689768977
 40
0.900990099009901
 40
0.900990099009901
 40
0.900990099009901
 40
0.900990099009901
 40
0.9042904290429042
 40
0.9042904290429042
 40
0.9042904290429042
 40
0.9042904290429042
 40
0.9075907590759076
 40
0.9075907590759076
 40
0.9075907590759076
 40
0.9075907590759076
 40
0.9108910891089109
 40
0.9108910891089109
 40
0.9108910891089109
 40
0.9108910891089109
 40
0.9141914191419142
 40
0.9141914191419142
 40
0.9141914191419142
 40
0.9141914191419142
 40
0.9174917491749175
 40
0.9174917491749175
 40
0.9174917491749175
 40
0.9174917491749175
 40
0.9207920792079208
 40
0.9207920792079208
 40
0.9207920792079208
 40
0.9207920792079208
 40
0.9240924092409241
 40
0.9240924092409241
 40
0.9240924092409241
 40
0.9240924092409241
 40
0.9273927392739274
 40
0.9273927392739274
 40
0.9273927392739274
 40
0.9273927392739274
 40
0.9306930693069307
 40
0.9306930693069307
 40
0.9306930693069307
 40
0.9306930693069307
 40
0.933993399339934
 40
0.933993399339934
 40
0.933993399339934
 40
0.933993399339934
 40
0.9372937293729373
 40
0.9372937293729373
 40
0.9372937293729373
 40
0.9372937293729373
 40
0.9405940594059405
 40
0.9405940594059405
 40
0.9405940594059405
 40
0.9405940594059405
 40
0.9438943894389439
 40
0.9438943894389439
 40
0.9438943894389439
 40
0.9438943894389439
 40
0.9471947194719472
 40
0.9471947194719472
 40
0.9471947194719472
 40
0.9471947194719472
 40
0.9504950495049505
 40
0.9504950495049505
 40
0.9504950495049505
 40
0.9504950495049505
 40
0.9537953795379538
 40
0.9537953795379538
 40
0.9537953795379538
 40
0.9537953795379538
 40
0.9570957095709571
 40
0.9570957095709571
 40
0.9570957095709571
 40
0.9570957095709571
 40
0.9603960396039604
 40
0.9603960396039604
 40
0.9603960396039604
 40
0.9603960396039604
 40
0.9636963696369637
 40
0.9636963696369637
 40
0.9636963696369637
 40
0.9636963696369637
 40
0.966996699669967
 40
0.966996699669967
 40
0.966996699669967
 40
0.966996699669967
 40
0.9702970297029703
 40
0.9702970297029703
 40
0.9702970297029703
 40
0.9702970297029703
 40
0.9735973597359736
 40
0.9735973597359736
 40
0.9735973597359736
 40
0.9735973597359736
 40
0.976897689768977
 40
0.976897689768977
 40
0.976897689768977
 40
0.976897689768977
 40
0.9801980198019802
 40
0.9801980198019802
 40
0.9801980198019802
 40
0.9801980198019802
 40
0.9834983498349835
 40
0.9834983498349835
 40
0.9834983498349835
 40
0.9834983498349835
 40
0.9867986798679867
 40
0.9867986798679867
 40
0.9867986798679867
 40
0.9867986798679867
 40
0.9900990099009901
 40
0.9900990099009901
 40
0.9900990099009901
 40
0.9900990099009901
 40
0.9933993399339934
 40
0.9933993399339934
 40
0.9933993399339934
 40
0.9933993399339934
 40
1
 40
1
 40
1
 40
1
 10
48.6267
 20
51.6125
 30
0
 10
48.4121
 20
51.6125
 30
0
 10
48.2381
 20
51.4385
 30
0
 10
48.2381
 20
51.2239
 30
0
 10
48.2381
 20
51.2239
 30
0
 10
48.2381
 20
51.2239
 30
0
 10
48.2381
 20
43.7885
 30
0
 10
48.2381
 20
43.7885
 30
0
 10
48.2381
 20
43.7885
 30
0
 10
48.2381
 20
43.7885
 30
0
 10
48.2381
 20
34.0489
 30
0
 10
48.2381
 20
34.0489
 30
0
 10
48.2381
 20
34.0489
 30
0
 10
48.2381
 20
33.8366
 30
0
 10
48.066
 20
33.6645
 30
0
 10
47.8537
 20
33.6645
 30
0
 10
47.8537
 20
33.6645
 30
0
 10
47.8537
 20
33.6645
 30
0
 10
46.1484
 20
33.6665
 30
0
 10
46.1484
 20
33.6665
 30
0
 10
46.1484
 20
33.6665
 30
0
 10
45.9574
 20
33.6665
 30
0
 10
45.8025
 20
33.5116
 30
0
 10
45.8025
 20
33.3206
 30
0
 10
45.8025
 20
33.3206
 30
0
 10
45.8025
 20
32.5403
 30
0
 10
45.7001
 20
32.6641
 30
0
 10
45.9136
 20
31.9143
 30
0
 10
45.9136
 20
31.9143
 30
0
 10
46.2258
 20
30.818
 30
0
 10
46.0552
 20
30.8748
 30
0
 10
45.8392
 20
29.8267
 30
0
 10
45.8392
 20
29.8267
 30
0
 10
45.6575
 20
28.9447
 30
0
 10
45.8227
 20
28.9758
 30
0
 10
45.8227
 20
28.075
 30
0
 10
45.8227
 20
28.075
 30
0
 10
45.8227
 20
26.8515
 30
0
 10
47.6252
 20
26.6039
 30
0
 10
47.6252
 20
25.1893
 30
0
 10
47.6252
 20
25.1893
 30
0
 10
47.6252
 20
25.1893
 30
0
 10
47.6252
 20
23.7175
 30
0
 10
47.6252
 20
23.7175
 30
0
 10
47.6252
 20
23.7175
 30
0
 10
47.6252
 20
23.7175
 30
0
 10
47.6252
 20
24.4795
 30
0
 10
47.6252
 20
24.4795
 30
0
 10
47.6252
 20
24.4795
 30
0
 10
47.6252
 20
-1.6539
 30
0
 10
32.477
 20
-10.1909
 30
0
 10
7.1442
 20
-10.1909
 30
0
 10
7.1442
 20
-10.1909
 30
0
 10
5.3478
 20
-10.1909
 30
0
 10
5.3478
 20
-4.7499
 30
0
 10
7.144
 20
-4.7499
 30
0
 10
7.144
 20
-4.7499
 30
0
 10
28.5012
 20
-4.7499
 30
0
 10
41.275
 20
2.4474
 30
0
 10
41.275
 20
24.4795
 30
0
 10
41.275
 20
24.4795
 30
0
 10
41.275
 20
24.4795
 30
0
 10
41.275
 20
23.7175
 30
0
 10
41.275
 20
23.7175
 30
0
 10
41.275
 20
23.7175
 30
0
 10
41.275
 20
23.7175
 30
0
 10
41.275
 20
25.1893
 30
0
 10
41.275
 20
25.1893
 30
0
 10
41.275
 20
25.1893
 30
0
 10
41.275
 20
26.6039
 30
0
 10
43.0775
 20
26.8515
 30
0
 10
43.0775
 20
28.075
 30
0
 10
43.0775
 20
28.075
 30
0
 10
43.0775
 20
28.9758
 30
0
 10
43.2427
 20
28.9447
 30
0
 10
43.061
 20
29.8267
 30
0
 10
43.061
 20
29.8267
 30
0
 10
42.845
 20
30.8748
 30
0
 10
42.6744
 20
30.818
 30
0
 10
42.9866
 20
31.9143
 30
0
 10
42.9866
 20
31.9143
 30
0
 10
43.2001
 20
32.6641
 30
0
 10
43.0977
 20
32.5403
 30
0
 10
43.0977
 20
33.3206
 30
0
 10
43.0977
 20
33.3206
 30
0
 10
43.0977
 20
33.5116
 30
0
 10
42.9428
 20
33.6665
 30
0
 10
42.7518
 20
33.6665
 30
0
 10
42.7518
 20
33.6665
 30
0
 10
42.7518
 20
33.6665
 30
0
 10
41.0465
 20
33.6645
 30
0
 10
41.0465
 20
33.6645
 30
0
 10
41.0465
 20
33.6645
 30
0
 10
40.8342
 20
33.6645
 30
0
 10
40.6621
 20
33.8366
 30
0
 10
40.6621
 20
34.0489
 30
0
 10
40.6621
 20
34.0489
 30
0
 10
40.6621
 20
34.0489
 30
0
 10
40.6621
 20
43.7885
 30
0
 10
40.6621
 20
43.7885
 30
0
 10
40.6621
 20
43.7885
 30
0
 10
40.6621
 20
43.7885
 30
0
 10
40.6621
 20
50.4619
 30
0
 10
40.6621
 20
50.4619
 30
0
 10
40.6621
 20
50.4619
 30
0
 10
40.6621
 20
50.6765
 30
0
 10
40.4881
 20
50.8505
 30
0
 10
40.2735
 20
50.8505
 30
0
 10
40.2735
 20
50.8505
 30
0
 10
39.8838
 20
50.8505
 30
0
 10
39.85
 20
51.126
 30
0
 10
40.2131
 20
51.4867
 30
0
 10
40.2131
 20
51.4867
 30
0
 10
41.5074
 20
52.7729
 30
0
 10
41.3116
 20
55.7281
 30
0
 10
39.7458
 20
56.7827
 30
0
 10
39.7458
 20
56.7827
 30
0
 10
38.6355
 20
57.5305
 30
0
 10
37.9593
 20
60.4182
 30
0
 10
37.5929
 20
60.6746
 30
0
 10
37.5929
 20
60.6746
 30
0
 10
37.2265
 20
60.931
 30
0
 10
37.9493
 20
59.6291
 30
0
 10
36.0897
 20
56.9627
 30
0
 10
36.0897
 20
56.9627
 30
0
 10
34.6624
 20
54.9162
 30
0
 10
35.0329
 20
52.3129
 30
0
 10
36.235
 20
51.4972
 30
0
 10
36.235
 20
51.4972
 30
0
 10
36.5632
 20
51.2838
 30
0
 10
36.418
 20
50.8505
 30
0
 10
35.9265
 20
50.8505
 30
0
 10
35.9265
 20
50.8505
 30
0
 10
35.7119
 20
50.8505
 30
0
 10
35.5379
 20
50.6765
 30
0
 10
35.5379
 20
50.4619
 30
0
 10
35.5379
 20
50.4619
 30
0
 10
35.5379
 20
50.4619
 30
0
 10
35.5379
 20
43.7885
 30
0
 10
35.5379
 20
43.7885
 30
0
 10
35.5379
 20
43.7885
 30
0
 10
35.5379
 20
43.7885
 30
0
 10
35.5379
 20
34.0489
 30
0
 10
35.5379
 20
34.0489
 30
0
 10
35.5379
 20
34.0489
 30
0
 10
35.5379
 20
33.8366
 30
0
 10
35.3658
 20
33.6645
 30
0
 10
35.1535
 20
33.6645
 30
0
 10
35.1535
 20
33.6645
 30
0
 10
35.1535
 20
33.6645
 30
0
 10
33.4482
 20
33.6665
 30
0
 10
33.4482
 20
33.6665
 30
0
 10
33.4482
 20
33.6665
 30
0
 10
33.2572
 20
33.6665
 30
0
 10
33.1023
 20
33.5116
 30
0
 10
33.1023
 20
33.3206
 30
0
 10
33.1023
 20
33.3206
 30
0
 10
33.1023
 20
32.5403
 30
0
 10
32.9999
 20
32.6641
 30
0
 10
33.2134
 20
31.9143
 30
0
 10
33.2134
 20
31.9143
 30
0
 10
33.5256
 20
30.818
 30
0
 10
33.355
 20
30.8748
 30
0
 10
33.139
 20
29.8267
 30
0
 10
33.139
 20
29.8267
 30
0
 10
32.9573
 20
28.9447
 30
0
 10
33.1225
 20
28.9758
 30
0
 10
33.1225
 20
28.075
 30
0
 10
33.1225
 20
28.075
 30
0
 10
33.1225
 20
26.8515
 30
0
 10
34.925
 20
26.6039
 30
0
 10
34.925
 20
25.1893
 30
0
 10
34.925
 20
25.1893
 30
0
 10
34.925
 20
25.1893
 30
0
 10
34.925
 20
23.7175
 30
0
 10
34.925
 20
23.7175
 30
0
 10
34.925
 20
23.7175
 30
0
 10
34.925
 20
23.7175
 30
0
 10
34.925
 20
24.4795
 30
0
 10
34.925
 20
24.4795
 30
0
 10
34.925
 20
24.4795
 30
0
 10
34.925
 20
6.5487
 30
0
 10
24.5443
 20
0.6913
 30
0
 10
7.1628
 20
0.6913
 30
0
 10
7.1628
 20
0.6913
 30
0
 10
5.3478
 20
0.6913
 30
0
 10
5.3478
 20
6.1323
 30
0
 10
7.163
 20
6.1323
 30
0
 10
7.163
 20
6.1323
 30
0
 10
20.5689
 20
6.1323
 30
0
 10
28.5752
 20
10.65
 30
0
 10
28.5752
 20
24.4795
 30
0
 10
28.5752
 20
24.4795
 30
0
 10
28.5752
 20
24.4795
 30
0
 10
28.5752
 20
23.7175
 30
0
 10
28.5752
 20
23.7175
 30
0
 10
28.5752
 20
23.7175
 30
0
 10
28.5752
 20
23.7175
 30
0
 10
28.5752
 20
25.1893
 30
0
 10
28.5752
 20
25.1893
 30
0
 10
28.5752
 20
25.1893
 30
0
 10
28.5752
 20
26.6039
 30
0
 10
30.3777
 20
26.8515
 30
0
 10
30.3777
 20
28.075
 30
0
 10
30.3777
 20
28.075
 30
0
 10
30.3777
 20
28.9758
 30
0
 10
30.5429
 20
28.9447
 30
0
 10
30.3612
 20
29.8267
 30
0
 10
30.3612
 20
29.8267
 30
0
 10
30.1452
 20
30.8748
 30
0
 10
29.9746
 20
30.818
 30
0
 10
30.2868
 20
31.9143
 30
0
 10
30.2868
 20
31.9143
 30
0
 10
30.5003
 20
32.6641
 30
0
 10
30.3979
 20
32.5403
 30
0
 10
30.3979
 20
33.3206
 30
0
 10
30.3979
 20
33.3206
 30
0
 10
30.3979
 20
33.5116
 30
0
 10
30.243
 20
33.6665
 30
0
 10
30.052
 20
33.6665
 30
0
 10
30.052
 20
33.6665
 30
0
 10
30.052
 20
33.6665
 30
0
 10
28.3467
 20
33.6645
 30
0
 10
28.3467
 20
33.6645
 30
0
 10
28.3467
 20
33.6645
 30
0
 10
28.1344
 20
33.6645
 30
0
 10
27.9623
 20
33.8366
 30
0
 10
27.9623
 20
34.0489
 30
0
 10
27.9623
 20
34.0489
 30
0
 10
27.9623
 20
34.0489
 30
0
 10
27.9623
 20
43.7885
 30
0
 10
27.9623
 20
43.7885
 30
0
 10
27.9623
 20
43.7885
 30
0
 10
27.9623
 20
43.7885
 30
0
 10
27.9623
 20
50.7159
 30
0
 10
27.9623
 20
50.7159
 30
0
 10
27.9623
 20
50.7159
 30
0
 10
27.9623
 20
50.9305
 30
0
 10
27.7883
 20
51.1045
 30
0
 10
27.5737
 20
51.1045
 30
0
 10
27.5737
 20
51.1045
 30
0
 10
27.184
 20
51.1045
 30
0
 10
27.1503
 20
51.38
 30
0
 10
27.5133
 20
51.7407
 30
0
 10
27.5133
 20
51.7407
 30
0
 10
28.8076
 20
53.0268
 30
0
 10
28.2874
 20
56.46
 30
0
 10
27.1783
 20
57.4557
 30
0
 10
27.1783
 20
57.4557
 30
0
 10
25.3912
 20
59.0601
 30
0
 10
26.9352
 20
61.7029
 30
0
 10
26.7232
 20
61.7223
 30
0
 10
26.7232
 20
61.7223
 30
0
 10
26.5112
 20
61.7417
 30
0
 10
25.2495
 20
60.1698
 30
0
 10
23.3899
 20
57.5034
 30
0
 10
23.3899
 20
57.5034
 30
0
 10
21.9626
 20
55.4569
 30
0
 10
22.3331
 20
52.5669
 30
0
 10
23.5352
 20
51.7512
 30
0
 10
23.5352
 20
51.7512
 30
0
 10
23.8634
 20
51.5378
 30
0
 10
23.7182
 20
51.1045
 30
0
 10
23.2267
 20
51.1045
 30
0
 10
23.2267
 20
51.1045
 30
0
 10
23.0121
 20
51.1045
 30
0
 10
22.8381
 20
50.9305
 30
0
 10
22.8381
 20
50.7159
 30
0
 10
22.8381
 20
50.7159
 30
0
 10
22.8381
 20
50.7159
 30
0
 10
22.8381
 20
43.7885
 30
0
 10
22.8381
 20
43.7885
 30
0
 10
22.8381
 20
43.7885
 30
0
 10
22.8381
 20
43.7885
 30
0
 10
22.8381
 20
34.0489
 30
0
 10
22.8381
 20
34.0489
 30
0
 10
22.8381
 20
34.0489
 30
0
 10
22.8381
 20
33.8366
 30
0
 10
22.666
 20
33.6645
 30
0
 10
22.4537
 20
33.6645
 30
0
 10
22.4537
 20
33.6645
 30
0
 10
22.4537
 20
33.6645
 30
0
 10
20.7484
 20
33.6665
 30
0
 10
20.7484
 20
33.6665
 30
0
 10
20.7484
 20
33.6665
 30
0
 10
20.5574
 20
33.6665
 30
0
 10
20.4025
 20
33.5116
 30
0
 10
20.4025
 20
33.3206
 30
0
 10
20.4025
 20
33.3206
 30
0
 10
20.4025
 20
32.5403
 30
0
 10
20.3001
 20
32.6641
 30
0
 10
20.5136
 20
31.9143
 30
0
 10
20.5136
 20
31.9143
 30
0
 10
20.8258
 20
30.818
 30
0
 10
20.6552
 20
30.8748
 30
0
 10
20.4392
 20
29.8267
 30
0
 10
20.4392
 20
29.8267
 30
0
 10
20.2575
 20
28.9447
 30
0
 10
20.4227
 20
28.9758
 30
0
 10
20.4227
 20
28.075
 30
0
 10
20.4227
 20
28.075
 30
0
 10
20.4227
 20
26.8515
 30
0
 10
22.2252
 20
26.6039
 30
0
 10
22.2252
 20
25.1893
 30
0
 10
22.2252
 20
25.1893
 30
0
 10
22.2252
 20
25.1893
 30
0
 10
22.2252
 20
23.7175
 30
0
 10
22.2252
 20
23.7175
 30
0
 10
22.2252
 20
23.7175
 30
0
 10
22.2252
 20
13.9892
 30
0
 10
16.5932
 20
10.8113
 30
0
 10
7.163
 20
10.8113
 30
0
 10
7.163
 20
10.8113
 30
0
 10
5.3478
 20
10.8113
 30
0
 10
5.3478
 20
16.2523
 30
0
 10
7.163
 20
16.2523
 30
0
 10
7.163
 20
16.2523
 30
0
 10
12.6176
 20
16.2523
 30
0
 10
15.8752
 20
18.0905
 30
0
 10
15.8752
 20
23.7175
 30
0
 10
15.8752
 20
23.7175
 30
0
 10
15.8752
 20
23.7175
 30
0
 10
15.8752
 20
25.1893
 30
0
 10
15.8752
 20
25.1893
 30
0
 10
15.8752
 20
25.1893
 30
0
 10
15.8752
 20
26.6039
 30
0
 10
17.6777
 20
26.8515
 30
0
 10
17.6777
 20
28.075
 30
0
 10
17.6777
 20
28.075
 30
0
 10
17.6777
 20
28.9758
 30
0
 10
17.8429
 20
28.9447
 30
0
 10
17.6612
 20
29.8267
 30
0
 10
17.6612
 20
29.8267
 30
0
 10
17.4452
 20
30.8748
 30
0
 10
17.2746
 20
30.818
 30
0
 10
17.5868
 20
31.9143
 30
0
 10
17.5868
 20
31.9143
 30
0
 10
17.8003
 20
32.6641
 30
0
 10
17.6979
 20
32.5403
 30
0
 10
17.6979
 20
33.3206
 30
0
 10
17.6979
 20
33.3206
 30
0
 10
17.6979
 20
33.5116
 30
0
 10
17.543
 20
33.6665
 30
0
 10
17.352
 20
33.6665
 30
0
 10
17.352
 20
33.6665
 30
0
 10
17.352
 20
33.6665
 30
0
 10
15.6467
 20
33.6645
 30
0
 10
15.6467
 20
33.6645
 30
0
 10
15.6467
 20
33.6645
 30
0
 10
15.4344
 20
33.6645
 30
0
 10
15.2623
 20
33.8366
 30
0
 10
15.2623
 20
34.0489
 30
0
 10
15.2623
 20
34.0489
 30
0
 10
15.2623
 20
34.0489
 30
0
 10
15.2623
 20
43.7885
 30
0
 10
15.2623
 20
43.7885
 30
0
 10
15.2623
 20
43.7885
 30
0
 10
15.2623
 20
43.7885
 30
0
 10
15.2623
 20
49.6999
 30
0
 10
15.2623
 20
49.6999
 30
0
 10
15.2623
 20
49.6999
 30
0
 10
15.2623
 20
49.9145
 30
0
 10
15.0883
 20
50.0885
 30
0
 10
14.8737
 20
50.0885
 30
0
 10
14.8737
 20
50.0885
 30
0
 10
14.484
 20
50.0885
 30
0
 10
14.3578
 20
50.4912
 30
0
 10
14.8133
 20
50.7247
 30
0
 10
14.8133
 20
50.7247
 30
0
 10
16.0966
 20
51.3825
 30
0
 10
15.8746
 20
54.9129
 30
0
 10
14.346
 20
56.0207
 30
0
 10
14.346
 20
56.0207
 30
0
 10
12.9491
 20
57.0331
 30
0
 10
12.4492
 20
60.1413
 30
0
 10
12.149
 20
60.3095
 30
0
 10
12.149
 20
60.3095
 30
0
 10
11.8488
 20
60.4777
 30
0
 10
12.2187
 20
58.9333
 30
0
 10
10.3591
 20
56.2669
 30
0
 10
10.3591
 20
56.2669
 30
0
 10
8.931800000000001
 20
54.2204
 30
0
 10
9.633100000000001
 20
51.5509
 30
0
 10
10.8352
 20
50.7352
 30
0
 10
10.8352
 20
50.7352
 30
0
 10
11.1634
 20
50.5218
 30
0
 10
11.0182
 20
50.0885
 30
0
 10
10.5267
 20
50.0885
 30
0
 10
10.5267
 20
50.0885
 30
0
 10
10.3121
 20
50.0885
 30
0
 10
10.1381
 20
49.9145
 30
0
 10
10.1381
 20
49.6999
 30
0
 10
10.1381
 20
49.6999
 30
0
 10
10.1381
 20
49.6999
 30
0
 10
10.1381
 20
43.7885
 30
0
 10
10.1381
 20
43.7885
 30
0
 10
10.1381
 20
43.7885
 30
0
 10
10.1381
 20
43.7885
 30
0
 10
10.1381
 20
34.0489
 30
0
 10
10.1381
 20
34.0489
 30
0
 10
10.1381
 20
34.0489
 30
0
 10
10.1381
 20
33.8366
 30
0
 10
9.965999999999999
 20
33.6645
 30
0
 10
9.7537
 20
33.6645
 30
0
 10
9.7537
 20
33.6645
 30
0
 10
9.7537
 20
33.6645
 30
0
 10
8.048400000000001
 20
33.6665
 30
0
 10
8.048400000000001
 20
33.6665
 30
0
 10
8.048400000000001
 20
33.6665
 30
0
 10
7.8574
 20
33.6665
 30
0
 10
7.7025
 20
33.5116
 30
0
 10
7.7025
 20
33.3206
 30
0
 10
7.7025
 20
33.3206
 30
0
 10
7.7025
 20
32.5403
 30
0
 10
7.6001
 20
32.6641
 30
0
 10
7.8136
 20
31.9143
 30
0
 10
7.8136
 20
31.9143
 30
0
 10
8.1258
 20
30.818
 30
0
 10
7.9552
 20
30.8748
 30
0
 10
7.7392
 20
29.8267
 30
0
 10
7.7392
 20
29.8267
 30
0
 10
7.5575
 20
28.9447
 30
0
 10
7.7227
 20
28.9758
 30
0
 10
7.7227
 20
28.075
 30
0
 10
7.7227
 20
28.075
 30
0
 10
7.7227
 20
26.8515
 30
0
 10
9.5252
 20
26.6039
 30
0
 10
9.5252
 20
25.1893
 30
0
 10
9.5252
 20
25.1893
 30
0
 10
9.5252
 20
25.1893
 30
0
 10
9.5252
 20
23.7175
 30
0
 10
9.5252
 20
23.7175
 30
0
 10
9.5252
 20
23.7175
 30
0
 10
9.5252
 20
22.1919
 30
0
 10
8.6419
 20
21.6935
 30
0
 10
7.163
 20
21.6935
 30
0
 10
7.163
 20
21.6935
 30
0
 10
7.163
 20
21.6935
 30
0
 10
5.1758
 20
21.6935
 30
0
 10
5.1758
 20
21.6935
 30
0
 10
5.1758
 20
21.6935
 30
0
 10
4.1087
 20
21.6935
 30
0
 10
3.175
 20
22.4442
 30
0
 10
3.175
 20
27.9795
 30
0
 10
3.175
 20
27.9795
 30
0
 10
3.175
 20
27.9795
 30
0
 10
3.175
 20
29.4513
 30
0
 10
3.175
 20
29.4513
 30
0
 10
3.175
 20
29.4513
 30
0
 10
3.175
 20
30.8659
 30
0
 10
4.9775
 20
31.1135
 30
0
 10
4.9775
 20
32.337
 30
0
 10
4.9775
 20
32.337
 30
0
 10
4.9775
 20
33.2378
 30
0
 10
5.1427
 20
33.2067
 30
0
 10
4.961
 20
34.0887
 30
0
 10
4.961
 20
34.0887
 30
0
 10
4.745
 20
35.1368
 30
0
 10
4.5744
 20
35.08
 30
0
 10
4.8866
 20
36.1763
 30
0
 10
4.8866
 20
36.1763
 30
0
 10
5.1001
 20
36.9261
 30
0
 10
4.9977
 20
36.8023
 30
0
 10
4.9977
 20
37.5826
 30
0
 10
4.9977
 20
37.5826
 30
0
 10
4.9977
 20
37.7736
 30
0
 10
4.8428
 20
37.9285
 30
0
 10
4.6518
 20
37.9285
 30
0
 10
4.6518
 20
37.9285
 30
0
 10
4.6518
 20
37.9285
 30
0
 10
2.9465
 20
37.9265
 30
0
 10
2.9465
 20
37.9265
 30
0
 10
2.9465
 20
37.9265
 30
0
 10
2.7342
 20
37.9265
 30
0
 10
2.5621
 20
38.0986
 30
0
 10
2.5621
 20
38.3109
 30
0
 10
2.5621
 20
38.3109
 30
0
 10
2.5621
 20
38.3109
 30
0
 10
2.5621
 20
45.2228
 30
0
 10
2.5621
 20
45.2228
 30
0
 10
2.5621
 20
45.2228
 30
0
 10
2.5621
 20
45.2228
 30
0
 10
2.5621
 20
54.7239
 30
0
 10
2.5621
 20
54.7239
 30
0
 10
2.5621
 20
54.7239
 30
0
 10
2.5621
 20
54.9385
 30
0
 10
2.3881
 20
55.1125
 30
0
 10
2.1735
 20
55.1125
 30
0
 10
2.1735
 20
55.1125
 30
0
 10
1.7838
 20
55.1125
 30
0
 10
1.7501
 20
55.388
 30
0
 10
2.1131
 20
55.7487
 30
0
 10
2.1131
 20
55.7487
 30
0
 10
3.4074
 20
57.0348
 30
0
 10
2.7006
 20
60.354
 30
0
 10
1.6128
 20
61.2322
 30
0
 10
1.6128
 20
61.2322
 30
0
 10
0.5931
 20
62.0554
 30
0
 10
0.2121
 20
65.1433
 30
0
 10
0
 20
65.1571
 30
0
 10
0
 20
65.1571
 30
0
 10
-0.2121
 20
65.1709
 30
0
 10
-0.08450000000000001
 20
64.03449999999999
 30
0
 10
-1.9441
 20
61.3681
 30
0
 10
-1.9441
 20
61.3681
 30
0
 10
-3.3714
 20
59.3216
 30
0
 10
-3.0671
 20
56.5749
 30
0
 10
-1.865
 20
55.7592
 30
0
 10
-1.865
 20
55.7592
 30
0
 10
-1.5368
 20
55.5458
 30
0
 10
-1.682
 20
55.1125
 30
0
 10
-2.1735
 20
55.1125
 30
0
 10
-2.1735
 20
55.1125
 30
0
 10
-2.3881
 20
55.1125
 30
0
 10
-2.5621
 20
54.9385
 30
0
 10
-2.5621
 20
54.7239
 30
0
 10
-2.5621
 20
54.7239
 30
0
 10
-2.5621
 20
54.7239
 30
0
 10
-2.5621
 20
45.2228
 30
0
 10
-2.5621
 20
45.2228
 30
0
 10
-2.5621
 20
45.2228
 30
0
 10
-2.5621
 20
45.2228
 30
0
 10
-2.5621
 20
38.3109
 30
0
 10
-2.5621
 20
38.3109
 30
0
 10
-2.5621
 20
38.3109
 30
0
 10
-2.5621
 20
38.0986
 30
0
 10
-2.7342
 20
37.9265
 30
0
 10
-2.9465
 20
37.9265
 30
0
 10
-2.9465
 20
37.9265
 30
0
 10
-2.9465
 20
37.9265
 30
0
 10
-4.6518
 20
37.9285
 30
0
 10
-4.6518
 20
37.9285
 30
0
 10
-4.6518
 20
37.9285
 30
0
 10
-4.8428
 20
37.9285
 30
0
 10
-4.9977
 20
37.7736
 30
0
 10
-4.9977
 20
37.5826
 30
0
 10
-4.9977
 20
37.5826
 30
0
 10
-4.9977
 20
36.8023
 30
0
 10
-5.1001
 20
36.9261
 30
0
 10
-4.8866
 20
36.1763
 30
0
 10
-4.8866
 20
36.1763
 30
0
 10
-4.5744
 20
35.08
 30
0
 10
-4.745
 20
35.1368
 30
0
 10
-4.961
 20
34.0887
 30
0
 10
-4.961
 20
34.0887
 30
0
 10
-5.1427
 20
33.2067
 30
0
 10
-4.9775
 20
33.2378
 30
0
 10
-4.9775
 20
32.337
 30
0
 10
-4.9775
 20
32.337
 30
0
 10
-4.9775
 20
31.1135
 30
0
 10
-3.175
 20
30.8659
 30
0
 10
-3.175
 20
29.4513
 30
0
 10
-3.175
 20
29.4513
 30
0
 10
-3.175
 20
29.4513
 30
0
 10
-3.175
 20
27.9795
 30
0
 10
-3.175
 20
27.9795
 30
0
 10
-3.175
 20
27.9795
 30
0
 10
-3.175
 20
22.4442
 30
0
 10
-4.1087
 20
21.6935
 30
0
 10
-5.1758
 20
21.6935
 30
0
 10
-5.1758
 20
21.6935
 30
0
 10
-5.1758
 20
21.6935
 30
0
 10
-7.163
 20
21.6935
 30
0
 10
-7.163
 20
21.6935
 30
0
 10
-7.163
 20
21.6935
 30
0
 10
-7.4559
 20
21.6935
 30
0
 10
-7.7255
 20
21.7132
 30
0
 10
-7.9694
 20
21.7563
 30
0
 10
-7.9694
 20
21.7563
 30
0
 10
-8.957000000000001
 20
21.9312
 30
0
 10
-9.5252
 20
22.4941
 30
0
 10
-9.5252
 20
23.7175
 30
0
 10
-9.5252
 20
23.7175
 30
0
 10
-9.5252
 20
23.7175
 30
0
 10
-9.5252
 20
25.1893
 30
0
 10
-9.5252
 20
25.1893
 30
0
 10
-9.5252
 20
25.1893
 30
0
 10
-9.5252
 20
26.6039
 30
0
 10
-7.7227
 20
26.8515
 30
0
 10
-7.7227
 20
28.075
 30
0
 10
-7.7227
 20
28.075
 30
0
 10
-7.7227
 20
28.9758
 30
0
 10
-7.5575
 20
28.9447
 30
0
 10
-7.7392
 20
29.8267
 30
0
 10
-7.7392
 20
29.8267
 30
0
 10
-7.9552
 20
30.8748
 30
0
 10
-8.1258
 20
30.818
 30
0
 10
-7.8136
 20
31.9143
 30
0
 10
-7.8136
 20
31.9143
 30
0
 10
-7.6001
 20
32.6641
 30
0
 10
-7.7025
 20
32.5403
 30
0
 10
-7.7025
 20
33.3206
 30
0
 10
-7.7025
 20
33.3206
 30
0
 10
-7.7025
 20
33.5116
 30
0
 10
-7.8574
 20
33.6665
 30
0
 10
-8.048400000000001
 20
33.6665
 30
0
 10
-8.048400000000001
 20
33.6665
 30
0
 10
-8.048400000000001
 20
33.6665
 30
0
 10
-8.879099999999999
 20
33.6655
 30
0
 10
-8.879099999999999
 20
33.6655
 30
0
 10
-8.879099999999999
 20
33.6655
 30
0
 10
-8.879099999999999
 20
33.6655
 30
0
 10
-9.7537
 20
33.6645
 30
0
 10
-9.7537
 20
33.6645
 30
0
 10
-9.7537
 20
33.6645
 30
0
 10
-9.965999999999999
 20
33.6645
 30
0
 10
-10.1381
 20
33.8366
 30
0
 10
-10.1381
 20
34.0489
 30
0
 10
-10.1381
 20
34.0489
 30
0
 10
-10.1381
 20
34.0489
 30
0
 10
-10.1381
 20
36.2103
 30
0
 10
-10.1381
 20
36.2103
 30
0
 10
-10.1381
 20
36.2103
 30
0
 10
-10.1381
 20
36.2103
 30
0
 10
-10.1381
 20
41.7299
 30
0
 10
-10.1381
 20
41.7299
 30
0
 10
-10.1381
 20
41.7299
 30
0
 10
-10.1381
 20
41.7299
 30
0
 10
-10.1381
 20
43.7885
 30
0
 10
-10.1381
 20
43.7885
 30
0
 10
-10.1381
 20
43.7885
 30
0
 10
-10.1381
 20
43.7885
 30
0
 10
-10.1381
 20
50.4619
 30
0
 10
-10.1381
 20
50.4619
 30
0
 10
-10.1381
 20
50.4619
 30
0
 10
-10.1381
 20
50.6765
 30
0
 10
-10.3121
 20
50.8505
 30
0
 10
-10.5267
 20
50.8505
 30
0
 10
-10.5267
 20
50.8505
 30
0
 10
-10.9164
 20
50.8505
 30
0
 10
-10.9555
 20
51.2518
 30
0
 10
-10.5926
 20
51.6125
 30
0
 10
-10.5926
 20
51.6125
 30
0
 10
-9.298299999999999
 20
52.8985
 30
0
 10
-9.460900000000001
 20
55.2248
 30
0
 10
-10.9662
 20
56.3638
 30
0
 10
-10.9662
 20
56.3638
 30
0
 10
-12.2749
 20
57.3541
 30
0
 10
-13.1937
 20
59.8891
 30
0
 10
-13.957
 20
60.2337
 30
0
 10
-13.957
 20
60.2337
 30
0
 10
-14.7203
 20
60.5783
 30
0
 10
-13.1376
 20
58.9015
 30
0
 10
-14.9972
 20
56.2351
 30
0
 10
-14.9972
 20
56.2351
 30
0
 10
-16.4245
 20
54.1886
 30
0
 10
-15.7673
 20
52.3129
 30
0
 10
-14.5652
 20
51.4972
 30
0
 10
-14.5652
 20
51.4972
 30
0
 10
-14.237
 20
51.2838
 30
0
 10
-14.3822
 20
50.8505
 30
0
 10
-14.8737
 20
50.8505
 30
0
 10
-14.8737
 20
50.8505
 30
0
 10
-15.0883
 20
50.8505
 30
0
 10
-15.2623
 20
50.6765
 30
0
 10
-15.2623
 20
50.4619
 30
0
 10
-15.2623
 20
50.4619
 30
0
 10
-15.2623
 20
50.4619
 30
0
 10
-15.2623
 20
43.7885
 30
0
 10
-15.2623
 20
43.7885
 30
0
 10
-15.2623
 20
43.7885
 30
0
 10
-15.2623
 20
43.7885
 30
0
 10
-15.2623
 20
34.0489
 30
0
 10
-15.2623
 20
34.0489
 30
0
 10
-15.2623
 20
34.0489
 30
0
 10
-15.2623
 20
33.8366
 30
0
 10
-15.4344
 20
33.6645
 30
0
 10
-15.6467
 20
33.6645
 30
0
 10
-15.6467
 20
33.6645
 30
0
 10
-15.6467
 20
33.6645
 30
0
 10
-17.352
 20
33.6665
 30
0
 10
-17.352
 20
33.6665
 30
0
 10
-17.352
 20
33.6665
 30
0
 10
-17.543
 20
33.6665
 30
0
 10
-17.6979
 20
33.5116
 30
0
 10
-17.6979
 20
33.3206
 30
0
 10
-17.6979
 20
33.3206
 30
0
 10
-17.6979
 20
32.5403
 30
0
 10
-17.8003
 20
32.6641
 30
0
 10
-17.5868
 20
31.9143
 30
0
 10
-17.5868
 20
31.9143
 30
0
 10
-17.2746
 20
30.818
 30
0
 10
-17.4452
 20
30.8748
 30
0
 10
-17.6612
 20
29.8267
 30
0
 10
-17.6612
 20
29.8267
 30
0
 10
-17.8429
 20
28.9447
 30
0
 10
-17.6777
 20
28.9758
 30
0
 10
-17.6777
 20
28.075
 30
0
 10
-17.6777
 20
28.075
 30
0
 10
-17.6777
 20
26.8515
 30
0
 10
-15.8752
 20
26.6039
 30
0
 10
-15.8752
 20
25.1893
 30
0
 10
-15.8752
 20
25.1893
 30
0
 10
-15.8752
 20
25.1893
 30
0
 10
-15.8752
 20
23.7175
 30
0
 10
-15.8752
 20
23.7175
 30
0
 10
-15.8752
 20
23.7175
 30
0
 10
-15.8752
 20
18.0905
 30
0
 10
-12.6176
 20
16.2523
 30
0
 10
-7.163
 20
16.2523
 30
0
 10
-7.163
 20
16.2523
 30
0
 10
-5.3478
 20
16.2523
 30
0
 10
-5.3478
 20
10.8113
 30
0
 10
-7.163
 20
10.8113
 30
0
 10
-7.163
 20
10.8113
 30
0
 10
-16.5932
 20
10.8113
 30
0
 10
-22.2252
 20
13.9892
 30
0
 10
-22.2252
 20
23.7175
 30
0
 10
-22.2252
 20
23.7175
 30
0
 10
-22.2252
 20
23.7175
 30
0
 10
-22.2252
 20
25.1893
 30
0
 10
-22.2252
 20
25.1893
 30
0
 10
-22.2252
 20
25.1893
 30
0
 10
-22.2252
 20
26.6039
 30
0
 10
-20.4227
 20
26.8515
 30
0
 10
-20.4227
 20
28.075
 30
0
 10
-20.4227
 20
28.075
 30
0
 10
-20.4227
 20
28.9758
 30
0
 10
-20.2575
 20
28.9447
 30
0
 10
-20.4392
 20
29.8267
 30
0
 10
-20.4392
 20
29.8267
 30
0
 10
-20.6552
 20
30.8748
 30
0
 10
-20.8258
 20
30.818
 30
0
 10
-20.5136
 20
31.9143
 30
0
 10
-20.5136
 20
31.9143
 30
0
 10
-20.3001
 20
32.6641
 30
0
 10
-20.4025
 20
32.5403
 30
0
 10
-20.4025
 20
33.3206
 30
0
 10
-20.4025
 20
33.3206
 30
0
 10
-20.4025
 20
33.5116
 30
0
 10
-20.5574
 20
33.6665
 30
0
 10
-20.7484
 20
33.6665
 30
0
 10
-20.7484
 20
33.6665
 30
0
 10
-20.7484
 20
33.6665
 30
0
 10
-22.4537
 20
33.6645
 30
0
 10
-22.4537
 20
33.6645
 30
0
 10
-22.4537
 20
33.6645
 30
0
 10
-22.666
 20
33.6645
 30
0
 10
-22.8381
 20
33.8366
 30
0
 10
-22.8381
 20
34.0489
 30
0
 10
-22.8381
 20
34.0489
 30
0
 10
-22.8381
 20
34.0489
 30
0
 10
-22.8381
 20
43.7885
 30
0
 10
-22.8381
 20
43.7885
 30
0
 10
-22.8381
 20
43.7885
 30
0
 10
-22.8381
 20
43.7885
 30
0
 10
-22.8381
 20
51.2239
 30
0
 10
-22.8381
 20
51.2239
 30
0
 10
-22.8381
 20
51.2239
 30
0
 10
-22.8381
 20
51.4385
 30
0
 10
-23.0121
 20
51.6125
 30
0
 10
-23.2267
 20
51.6125
 30
0
 10
-23.2267
 20
51.6125
 30
0
 10
-23.6164
 20
51.6125
 30
0
 10
-23.6527
 20
51.9734
 30
0
 10
-23.2898
 20
52.3341
 30
0
 10
-23.2898
 20
52.3341
 30
0
 10
-21.9955
 20
53.6201
 30
0
 10
-22.8049
 20
56.2969
 30
0
 10
-23.578
 20
57.0707
 30
0
 10
-23.578
 20
57.0707
 30
0
 10
-25.2754
 20
58.7699
 30
0
 10
-25.8887
 20
60.8257
 30
0
 10
-26.4696
 20
61.4035
 30
0
 10
-26.4696
 20
61.4035
 30
0
 10
-27.0505
 20
61.9813
 30
0
 10
-26.1182
 20
59.7912
 30
0
 10
-27.4105
 20
58.0114
 30
0
 10
-27.4105
 20
58.0114
 30
0
 10
-28.8766
 20
55.9923
 30
0
 10
-28.4673
 20
53.0749
 30
0
 10
-27.2652
 20
52.2592
 30
0
 10
-27.2652
 20
52.2592
 30
0
 10
-26.937
 20
52.0458
 30
0
 10
-27.0822
 20
51.6125
 30
0
 10
-27.5737
 20
51.6125
 30
0
 10
-27.5737
 20
51.6125
 30
0
 10
-27.7883
 20
51.6125
 30
0
 10
-27.9623
 20
51.4385
 30
0
 10
-27.9623
 20
51.2239
 30
0
 10
-27.9623
 20
51.2239
 30
0
 10
-27.9623
 20
51.2239
 30
0
 10
-27.9623
 20
43.7885
 30
0
 10
-27.9623
 20
43.7885
 30
0
 10
-27.9623
 20
43.7885
 30
0
 10
-27.9623
 20
43.7885
 30
0
 10
-27.9623
 20
34.0489
 30
0
 10
-27.9623
 20
34.0489
 30
0
 10
-27.9623
 20
34.0489
 30
0
 10
-27.9623
 20
33.8366
 30
0
 10
-28.1344
 20
33.6645
 30
0
 10
-28.3467
 20
33.6645
 30
0
 10
-28.3467
 20
33.6645
 30
0
 10
-28.3467
 20
33.6645
 30
0
 10
-30.052
 20
33.6665
 30
0
 10
-30.052
 20
33.6665
 30
0
 10
-30.052
 20
33.6665
 30
0
 10
-30.243
 20
33.6665
 30
0
 10
-30.3979
 20
33.5116
 30
0
 10
-30.3979
 20
33.3206
 30
0
 10
-30.3979
 20
33.3206
 30
0
 10
-30.3979
 20
32.5403
 30
0
 10
-30.5003
 20
32.6641
 30
0
 10
-30.2868
 20
31.9143
 30
0
 10
-30.2868
 20
31.9143
 30
0
 10
-29.9746
 20
30.818
 30
0
 10
-30.1452
 20
30.8748
 30
0
 10
-30.3612
 20
29.8267
 30
0
 10
-30.3612
 20
29.8267
 30
0
 10
-30.5429
 20
28.9447
 30
0
 10
-30.3777
 20
28.9758
 30
0
 10
-30.3777
 20
28.075
 30
0
 10
-30.3777
 20
28.075
 30
0
 10
-30.3777
 20
26.8515
 30
0
 10
-28.5752
 20
26.6039
 30
0
 10
-28.5752
 20
25.1893
 30
0
 10
-28.5752
 20
25.1893
 30
0
 10
-28.5752
 20
25.1893
 30
0
 10
-28.5752
 20
23.7175
 30
0
 10
-28.5752
 20
23.7175
 30
0
 10
-28.5752
 20
23.7175
 30
0
 10
-28.5752
 20
23.7175
 30
0
 10
-28.5752
 20
24.4795
 30
0
 10
-28.5752
 20
24.4795
 30
0
 10
-28.5752
 20
24.4795
 30
0
 10
-28.5752
 20
10.65
 30
0
 10
-20.5689
 20
6.1323
 30
0
 10
-7.163
 20
6.1323
 30
0
 10
-7.163
 20
6.1323
 30
0
 10
-5.3478
 20
6.1323
 30
0
 10
-5.3478
 20
0.6913
 30
0
 10
-7.1628
 20
0.6913
 30
0
 10
-7.1628
 20
0.6913
 30
0
 10
-24.5443
 20
0.6913
 30
0
 10
-34.925
 20
6.5487
 30
0
 10
-34.925
 20
24.4795
 30
0
 10
-34.925
 20
24.4795
 30
0
 10
-34.925
 20
24.4795
 30
0
 10
-34.925
 20
23.7175
 30
0
 10
-34.925
 20
23.7175
 30
0
 10
-34.925
 20
23.7175
 30
0
 10
-34.925
 20
23.7175
 30
0
 10
-34.925
 20
25.1893
 30
0
 10
-34.925
 20
25.1893
 30
0
 10
-34.925
 20
25.1893
 30
0
 10
-34.925
 20
26.6039
 30
0
 10
-33.1225
 20
26.8515
 30
0
 10
-33.1225
 20
28.075
 30
0
 10
-33.1225
 20
28.075
 30
0
 10
-33.1225
 20
28.9758
 30
0
 10
-32.9573
 20
28.9447
 30
0
 10
-33.139
 20
29.8267
 30
0
 10
-33.139
 20
29.8267
 30
0
 10
-33.355
 20
30.8748
 30
0
 10
-33.5256
 20
30.818
 30
0
 10
-33.2134
 20
31.9143
 30
0
 10
-33.2134
 20
31.9143
 30
0
 10
-32.9999
 20
32.6641
 30
0
 10
-33.1023
 20
32.5403
 30
0
 10
-33.1023
 20
33.3206
 30
0
 10
-33.1023
 20
33.3206
 30
0
 10
-33.1023
 20
33.5116
 30
0
 10
-33.2572
 20
33.6665
 30
0
 10
-33.4482
 20
33.6665
 30
0
 10
-33.4482
 20
33.6665
 30
0
 10
-33.4482
 20
33.6665
 30
0
 10
-35.1535
 20
33.6645
 30
0
 10
-35.1535
 20
33.6645
 30
0
 10
-35.1535
 20
33.6645
 30
0
 10
-35.3658
 20
33.6645
 30
0
 10
-35.5379
 20
33.8366
 30
0
 10
-35.5379
 20
34.0489
 30
0
 10
-35.5379
 20
34.0489
 30
0
 10
-35.5379
 20
34.0489
 30
0
 10
-35.5379
 20
43.7885
 30
0
 10
-35.5379
 20
43.7885
 30
0
 10
-35.5379
 20
43.7885
 30
0
 10
-35.5379
 20
43.7885
 30
0
 10
-35.5379
 20
49.6999
 30
0
 10
-35.5379
 20
49.6999
 30
0
 10
-35.5379
 20
49.6999
 30
0
 10
-35.5379
 20
49.9145
 30
0
 10
-35.7119
 20
50.0885
 30
0
 10
-35.9265
 20
50.0885
 30
0
 10
-35.9265
 20
50.0885
 30
0
 10
-36.3162
 20
50.0885
 30
0
 10
-36.3499
 20
50.364
 30
0
 10
-35.9869
 20
50.7247
 30
0
 10
-35.9869
 20
50.7247
 30
0
 10
-34.6926
 20
52.0108
 30
0
 10
-34.9481
 20
54.5397
 30
0
 10
-36.4101
 20
55.7341
 30
0
 10
-36.4101
 20
55.7341
 30
0
 10
-38.2702
 20
57.2536
 30
0
 10
-37.2595
 20
60.5327
 30
0
 10
-37.7307
 20
59.863
 30
0
 10
-37.7307
 20
59.863
 30
0
 10
-38.2019
 20
59.1933
 30
0
 10
-38.3719
 20
59.1098
 30
0
 10
-40.2316
 20
56.4433
 30
0
 10
-40.2316
 20
56.4433
 30
0
 10
-41.659
 20
54.3967
 30
0
 10
-41.1671
 20
51.5509
 30
0
 10
-39.965
 20
50.7352
 30
0
 10
-39.965
 20
50.7352
 30
0
 10
-39.6368
 20
50.5218
 30
0
 10
-39.782
 20
50.0885
 30
0
 10
-40.2735
 20
50.0885
 30
0
 10
-40.2735
 20
50.0885
 30
0
 10
-40.4881
 20
50.0885
 30
0
 10
-40.6621
 20
49.9145
 30
0
 10
-40.6621
 20
49.6999
 30
0
 10
-40.6621
 20
49.6999
 30
0
 10
-40.6621
 20
49.6999
 30
0
 10
-40.6621
 20
43.7885
 30
0
 10
-40.6621
 20
43.7885
 30
0
 10
-40.6621
 20
43.7885
 30
0
 10
-40.6621
 20
43.7885
 30
0
 10
-40.6621
 20
34.0489
 30
0
 10
-40.6621
 20
34.0489
 30
0
 10
-40.6621
 20
34.0489
 30
0
 10
-40.6621
 20
33.8366
 30
0
 10
-40.8342
 20
33.6645
 30
0
 10
-41.0465
 20
33.6645
 30
0
 10
-41.0465
 20
33.6645
 30
0
 10
-41.0465
 20
33.6645
 30
0
 10
-42.7518
 20
33.6665
 30
0
 10
-42.7518
 20
33.6665
 30
0
 10
-42.7518
 20
33.6665
 30
0
 10
-42.9428
 20
33.6665
 30
0
 10
-43.0977
 20
33.5116
 30
0
 10
-43.0977
 20
33.3206
 30
0
 10
-43.0977
 20
33.3206
 30
0
 10
-43.0977
 20
32.5403
 30
0
 10
-43.2001
 20
32.6641
 30
0
 10
-42.9866
 20
31.9143
 30
0
 10
-42.9866
 20
31.9143
 30
0
 10
-42.6744
 20
30.818
 30
0
 10
-42.845
 20
30.8748
 30
0
 10
-43.061
 20
29.8267
 30
0
 10
-43.061
 20
29.8267
 30
0
 10
-43.2427
 20
28.9447
 30
0
 10
-43.0775
 20
28.9758
 30
0
 10
-43.0775
 20
28.075
 30
0
 10
-43.0775
 20
28.075
 30
0
 10
-43.0775
 20
26.8515
 30
0
 10
-41.275
 20
26.6039
 30
0
 10
-41.275
 20
25.1893
 30
0
 10
-41.275
 20
25.1893
 30
0
 10
-41.275
 20
25.1893
 30
0
 10
-41.275
 20
23.7175
 30
0
 10
-41.275
 20
23.7175
 30
0
 10
-41.275
 20
23.7175
 30
0
 10
-41.275
 20
23.7175
 30
0
 10
-41.275
 20
24.4795
 30
0
 10
-41.275
 20
24.4795
 30
0
 10
-41.275
 20
24.4795
 30
0
 10
-41.275
 20
2.4474
 30
0
 10
-28.5012
 20
-4.7499
 30
0
 10
-7.144
 20
-4.7499
 30
0
 10
-7.144
 20
-4.7499
 30
0
 10
-5.3478
 20
-4.7499
 30
0
 10
-5.3478
 20
-10.1909
 30
0
 10
-7.1442
 20
-10.1909
 30
0
 10
-7.1442
 20
-10.1909
 30
0
 10
-32.477
 20
-10.1909
 30
0
 10
-47.6252
 20
-1.6539
 30
0
 10
-47.6252
 20
24.4795
 30
0
 10
-47.6252
 20
24.4795
 30
0
 10
-47.6252
 20
24.4795
 30
0
 10
-47.6252
 20
23.7175
 30
0
 10
-47.6252
 20
23.7175
 30
0
 10
-47.6252
 20
23.7175
 30
0
 10
-47.6252
 20
23.7175
 30
0
 10
-47.6252
 20
25.1893
 30
0
 10
-47.6252
 20
25.1893
 30
0
 10
-47.6252
 20
25.1893
 30
0
 10
-47.6252
 20
26.6039
 30
0
 10
-45.8227
 20
26.8515
 30
0
 10
-45.8227
 20
28.075
 30
0
 10
-45.8227
 20
28.075
 30
0
 10
-45.8227
 20
28.9758
 30
0
 10
-45.6575
 20
28.9447
 30
0
 10
-45.8392
 20
29.8267
 30
0
 10
-45.8392
 20
29.8267
 30
0
 10
-46.0552
 20
30.8748
 30
0
 10
-46.2258
 20
30.818
 30
0
 10
-45.9136
 20
31.9143
 30
0
 10
-45.9136
 20
31.9143
 30
0
 10
-45.7001
 20
32.6641
 30
0
 10
-45.8025
 20
32.5403
 30
0
 10
-45.8025
 20
33.3206
 30
0
 10
-45.8025
 20
33.3206
 30
0
 10
-45.8025
 20
33.5116
 30
0
 10
-45.9574
 20
33.6665
 30
0
 10
-46.1484
 20
33.6665
 30
0
 10
-46.1484
 20
33.6665
 30
0
 10
-46.1484
 20
33.6665
 30
0
 10
-47.8537
 20
33.6645
 30
0
 10
-47.8537
 20
33.6645
 30
0
 10
-47.8537
 20
33.6645
 30
0
 10
-48.066
 20
33.6645
 30
0
 10
-48.2381
 20
33.8366
 30
0
 10
-48.2381
 20
34.0489
 30
0
 10
-48.2381
 20
34.0489
 30
0
 10
-48.2381
 20
34.0489
 30
0
 10
-48.2381
 20
43.7885
 30
0
 10
-48.2381
 20
43.7885
 30
0
 10
-48.2381
 20
43.7885
 30
0
 10
-48.2381
 20
43.7885
 30
0
 10
-48.2381
 20
50.4619
 30
0
 10
-48.2381
 20
50.4619
 30
0
 10
-48.2381
 20
50.4619
 30
0
 10
-48.2381
 20
50.6765
 30
0
 10
-48.4121
 20
50.8505
 30
0
 10
-48.6267
 20
50.8505
 30
0
 10
-48.6267
 20
50.8505
 30
0
 10
-49.0164
 20
50.8505
 30
0
 10
-49.0502
 20
51.126
 30
0
 10
-48.6871
 20
51.4867
 30
0
 10
-48.6871
 20
51.4867
 30
0
 10
-47.3928
 20
52.7729
 30
0
 10
-47.6924
 20
55.5883
 30
0
 10
-49.1544
 20
56.7827
 30
0
 10
-49.1544
 20
56.7827
 30
0
 10
-51.0145
 20
58.3022
 30
0
 10
-50.7645
 20
61.8073
 30
0
 10
-50.8884
 20
60.9392
 30
0
 10
-50.8884
 20
60.9392
 30
0
 10
-51.0123
 20
60.0711
 30
0
 10
-50.9508
 20
59.9159
 30
0
 10
-52.8105
 20
57.2494
 30
0
 10
-52.8105
 20
57.2494
 30
0
 10
-54.2379
 20
55.2028
 30
0
 10
-53.8673
 20
52.3129
 30
0
 10
-52.6652
 20
51.4972
 30
0
 10
-52.6652
 20
51.4972
 30
0
 10
-52.337
 20
51.2838
 30
0
 10
-52.4822
 20
50.8505
 30
0
 10
-52.9737
 20
50.8505
 30
0
 10
-52.9737
 20
50.8505
 30
0
 10
-53.1883
 20
50.8505
 30
0
 10
-53.3623
 20
50.6765
 30
0
 10
-53.3623
 20
50.4619
 30
0
 10
-53.3623
 20
50.4619
 30
0
 10
-53.3623
 20
50.4619
 30
0
 10
-53.3623
 20
43.7885
 30
0
 10
-53.3623
 20
43.7885
 30
0
 10
-53.3623
 20
43.7885
 30
0
 10
-53.3623
 20
43.7885
 30
0
 10
-53.3623
 20
34.0489
 30
0
 10
-53.3623
 20
34.0489
 30
0
 10
-53.3623
 20
34.0489
 30
0
 10
-53.3623
 20
33.8366
 30
0
 10
-53.5344
 20
33.6645
 30
0
 10
-53.7467
 20
33.6645
 30
0
 10
-53.7467
 20
33.6645
 30
0
 10
-53.7467
 20
33.6645
 30
0
 10
-55.452
 20
33.6665
 30
0
 10
-55.452
 20
33.6665
 30
0
 10
-55.452
 20
33.6665
 30
0
 10
-55.643
 20
33.6665
 30
0
 10
-55.7979
 20
33.5116
 30
0
 10
-55.7979
 20
33.3206
 30
0
 10
-55.7979
 20
33.3206
 30
0
 10
-55.7979
 20
32.5403
 30
0
 10
-55.9003
 20
32.6641
 30
0
 10
-55.6868
 20
31.9143
 30
0
 10
-55.6868
 20
31.9143
 30
0
 10
-55.3746
 20
30.818
 30
0
 10
-55.5452
 20
30.8748
 30
0
 10
-55.7612
 20
29.8267
 30
0
 10
-55.7612
 20
29.8267
 30
0
 10
-55.9429
 20
28.9447
 30
0
 10
-55.7777
 20
28.9758
 30
0
 10
-55.7777
 20
28.075
 30
0
 10
-55.7777
 20
28.075
 30
0
 10
-55.7777
 20
26.8515
 30
0
 10
-53.9752
 20
26.6039
 30
0
 10
-53.9752
 20
25.1893
 30
0
 10
-53.9752
 20
25.1893
 30
0
 10
-53.9752
 20
25.1893
 30
0
 10
-53.9752
 20
23.7175
 30
0
 10
-53.9752
 20
23.7175
 30
0
 10
-53.9752
 20
23.7175
 30
0
 10
-53.9752
 20
-6.6682
 30
0
 10
-35.9063
 20
-16.3834
 30
0
 10
-7.9597
 20
-16.3834
 30
0
 10
-7.9597
 20
-16.3834
 30
0
 10
-7.9597
 20
-16.3834
 30
0
 10
-7.9725
 20
-16.3834
 30
0
 10
-7.9725
 20
-16.3834
 30
0
 10
-7.9725
 20
-16.3834
 30
0
 10
-7.5296
 20
-16.3834
 30
0
 10
-7.1705
 20
-16.7388
 30
0
 10
-7.1705
 20
-17.1772
 30
0
 10
-7.1705
 20
-17.1772
 30
0
 10
-7.1705
 20
-17.1772
 30
0
 10
-7.1724
 20
-24.9536
 30
0
 10
-7.1724
 20
-24.9536
 30
0
 10
-7.1724
 20
-24.9536
 30
0
 10
-7.1724
 20
-35.3452
 30
0
 10
-12.1741
 20
-51.6995
 30
0
 10
-18.8515
 20
-54.6962
 30
0
 10
-18.8515
 20
-54.6962
 30
0
 10
-31.2166
 20
-60.2453
 30
0
 10
-34.237
 20
-65.16370000000001
 30
0
 10
-27.7815
 20
-65.16370000000001
 30
0
 10
-27.7815
 20
-65.16370000000001
 30
0
 10
-27.7815
 20
-65.16370000000001
 30
0
 10
0
 20
-65.16370000000001
 30
0
 10
0
 20
-65.16370000000001
 30
0
 10
0
 20
-65.16370000000001
 30
0
 10
0
 20
-65.16370000000001
 30
0
 10
27.7815
 20
-65.16370000000001
 30
0
 10
27.7815
 20
-65.16370000000001
 30
0
 10
27.7815
 20
-65.16370000000001
 30
0
 10
34.237
 20
-65.16370000000001
 30
0
 10
31.2166
 20
-60.2453
 30
0
 10
18.8515
 20
-54.6962
 30
0
 10
18.8515
 20
-54.6962
 30
0
 10
12.1741
 20
-51.6995
 30
0
 10
7.1724
 20
-35.3452
 30
0
 10
7.1724
 20
-24.9536
 30
0
 10
7.1724
 20
-24.9536
 30
0
 10
7.1724
 20
-24.9536
 30
0
 10
7.1705
 20
-17.1772
 30
0
 10
7.1705
 20
-17.1772
 30
0
 10
7.1705
 20
-17.1772
 30
0
 10
7.1705
 20
-16.7388
 30
0
 10
7.5296
 20
-16.3834
 30
0
 10
7.9725
 20
-16.3834
 30
0
 10
7.9725
 20
-16.3834
 30
0
 10
7.9725
 20
-16.3834
 30
0
 10
7.9597
 20
-16.3834
 30
0
 10
7.9597
 20
-16.3834
 30
0
 10
7.9597
 20
-16.3834
 30
0
 10
35.9063
 20
-16.3834
 30
0
 10
53.9752
 20
-6.6682
 30
0
 10
53.9752
 20
23.7175
 30
0
 10
53.9752
 20
23.7175
 30
0
 10
53.9752
 20
23.7175
 30
0
 10
53.9752
 20
25.1893
 30
0
 10
53.9752
 20
25.1893
 30
0
 10
53.9752
 20
25.1893
 30
0
 10
53.9752
 20
26.6039
 30
0
 10
55.7777
 20
26.8515
 30
0
 10
55.7777
 20
28.075
 30
0
 10
55.7777
 20
28.075
 30
0
 10
55.7777
 20
28.9758
 30
0
 10
55.9429
 20
28.9447
 30
0
 10
55.7612
 20
29.8267
 30
0
 10
55.7612
 20
29.8267
 30
0
 10
55.5452
 20
30.8748
 30
0
 10
55.3746
 20
30.818
 30
0
 10
55.6868
 20
31.9143
 30
0
 10
55.6868
 20
31.9143
 30
0
 10
55.9003
 20
32.6641
 30
0
 10
55.7979
 20
32.5403
 30
0
 10
55.7979
 20
33.3206
 30
0
 10
55.7979
 20
33.3206
 30
0
 10
55.7979
 20
33.5116
 30
0
 10
55.643
 20
33.6665
 30
0
 10
55.452
 20
33.6665
 30
0
 10
55.452
 20
33.6665
 30
0
 10
55.452
 20
33.6665
 30
0
 10
53.7467
 20
33.6645
 30
0
 10
53.7467
 20
33.6645
 30
0
 10
53.7467
 20
33.6645
 30
0
 10
53.5344
 20
33.6645
 30
0
 10
53.3623
 20
33.8366
 30
0
 10
53.3623
 20
34.0489
 30
0
 10
53.3623
 20
34.0489
 30
0
 10
53.3623
 20
34.0489
 30
0
 10
53.3623
 20
43.7885
 30
0
 10
53.3623
 20
43.7885
 30
0
 10
53.3623
 20
43.7885
 30
0
 10
53.3623
 20
43.7885
 30
0
 10
53.3623
 20
51.2239
 30
0
 10
53.3623
 20
51.2239
 30
0
 10
53.3623
 20
51.2239
 30
0
 10
53.3623
 20
51.4385
 30
0
 10
53.1883
 20
51.6125
 30
0
 10
52.9737
 20
51.6125
 30
0
 10
52.9737
 20
51.6125
 30
0
 10
52.584
 20
51.6125
 30
0
 10
52.4621
 20
52.0071
 30
0
 10
52.9133
 20
52.2487
 30
0
 10
52.9133
 20
52.2487
 30
0
 10
54.0698
 20
52.8679
 30
0
 10
53.9691
 20
56.4293
 30
0
 10
52.446
 20
57.5447
 30
0
 10
52.446
 20
57.5447
 30
0
 10
50.597
 20
58.8988
 30
0
 10
51.0233
 20
61.7536
 30
0
 10
50.8884
 20
61.5524
 30
0
 10
50.8884
 20
61.5524
 30
0
 10
50.7535
 20
61.3512
 30
0
 10
49.5858
 20
58.7832
 30
0
 10
48.6576
 20
57.7357
 30
0
 10
48.6576
 20
57.7357
 30
0
 10
47.1121
 20
55.9916
 30
0
 10
47.7331
 20
53.0749
 30
0
 10
48.9352
 20
52.2592
 30
0
 10
48.9352
 20
52.2592
 30
0
 10
49.2634
 20
52.0458
 30
0
 10
49.1182
 20
51.6125
 30
0
 10
48.6267
 20
51.6125
 30
0
  0
SPLINE
  5
51
100
AcDbEntity
  8
Guides
  6
ByLayer
 62
  256
370
   18
100
AcDbSpline
210
0
220
0
230
0
 70
    8
 71
    3
 72
   16
 73
   12
 74
    0
 42
1e-007
 43
1e-007
 40
0
 40
0
 40
0
 40
0
 40
0.25
 40
0.25
 40
0.25
 40
0.25
 40
0.5
 40
0.5
 40
0.5
 40
0.5
 40
1
 40
1
 40
1
 40
1
 10
0
 20
-63.5
 30
0
 10
0
 20
-63.5
 30
0
 10
-35.4832
 20
-63.5
 30
0
 10
-35.4832
 20
-63.5
 30
0
 10
-35.4832
 20
-63.5
 30
0
 10
-45.7752
 20
-63.5
 30
0
 10
-52.9279
 20
-55.5547
 30
0
 10
-19.05
 20
-44.3674
 30
0
 10
-19.05
 20
-44.3674
 30
0
 10
-12.8578
 20
-42.3226
 30
0
 10
-7.1724
 20
-32.9195
 30
0
 10
-7.1724
 20
-22.5279
 30
0
  0
SPLINE
  5
52
100
AcDbEntity
  8
Guides
  6
ByLayer
 62
  256
370
   18
100
AcDbSpline
210
0
220
0
230
0
 70
    8
 71
    3
 72
    8
 73
    4
 74
    0
 42
1e-007
 43
1e-007
 40
0
 40
0
 40
0
 40
0
 40
1
 40
1
 40
1
 40
1
 10
-7.1724
 20
-3.377
 30
0
 10
-36.475
 20
-3.377
 30
0
 10
-53.9752
 20
6.4978
 30
0
 10
-53.9752
 20
36.7264
 30
0
  0
ENDSEC
  0
SECTION
  2
OBJECTS
  0
DICTIONARY
  5
C
330
0
100
AcDbDictionary
281
    1
  3
ACAD_GROUP
350
D
  0
DICTIONARY
  5
D
330
C
100
AcDbDictionary
281
    1
  0
ENDSEC
  0
EOF
