<?xml version="1.0" encoding="UTF-8" standalone="no"?>
<svg
   xmlns:dc="http://purl.org/dc/elements/1.1/"
   xmlns:cc="http://creativecommons.org/ns#"
   xmlns:rdf="http://www.w3.org/1999/02/22-rdf-syntax-ns#"
   xmlns:svg="http://www.w3.org/2000/svg"
   xmlns="http://www.w3.org/2000/svg"
   xmlns:sodipodi="http://sodipodi.sourceforge.net/DTD/sodipodi-0.dtd"
   xmlns:inkscape="http://www.inkscape.org/namespaces/inkscape"
   version="1.1"
   width="316.58401"
   height="369.43201"
   id="svg849"
   viewBox="0 0 316.58401 369.43201"
   sodipodi:docname="menorah-inkscape.svg"
   inkscape:version="0.92.4 (5da689c313, 2019-01-14)">
  <metadata
     id="metadata855">
    <rdf:RDF>
      <cc:Work
         rdf:about="">
        <dc:format>image/svg+xml</dc:format>
        <dc:type
           rdf:resource="http://purl.org/dc/dcmitype/StillImage" />
        <dc:title></dc:title>
      </cc:Work>
    </rdf:RDF>
  </metadata>
  <defs
     id="defs853" />
  <sodipodi:namedview
     pagecolor="#ffffff"
     bordercolor="#666666"
     borderopacity="1"
     objecttolerance="10"
     gridtolerance="10"
     guidetolerance="10"
     inkscape:pageopacity="0"
     inkscape:pageshadow="2"
     inkscape:window-width="3840"
     inkscape:window-height="2066"
     id="namedview851"
     showgrid="false"
     inkscape:zoom="3.6137031"
     inkscape:cx="230.85019"
     inkscape:cy="166.87704"
     inkscape:window-x="-11"
     inkscape:window-y="-11"
     inkscape:window-maximized="1"
     inkscape:current-layer="svg849" />
  <path
     d="m 296.13149,38.4129 c -0.6084,0 -1.1016,0.4932 -1.1016,1.1015 v 21.0767 27.6083 c 0,0.6018 -0.4878,1.0897 -1.0896,1.0897 l -4.8339,-0.0057 c -0.5415,0 -0.9805,0.4391 -0.9805,0.9805 0,2.2119 -0.2903,1.861 0.3149,3.9864 0.885,3.1076 0.4014,2.9466 -0.2109,5.9176 -0.5151,2.5001 -0.0468,2.412 -0.0468,4.9654 0,3.4682 5.1095,4.1701 5.1095,8.18 v 2.012 c 0,74.0789 -42.9398,98.2783 -114.7493,98.2783 -5.0922,0 -5.0922,-15.4233 -6e-4,-15.4233 60.5401,0 96.7493,-20.4018 96.7493,-82.855 v -2.012 c 0,-4.0099 5.1094,-4.7118 5.1094,-8.18 0,-2.5534 0.4683,-2.4653 -0.0467,-4.9654 -0.6123,-2.971 -1.0959,-2.81 -0.2109,-5.9176 0.6052,-2.1254 0.3149,-1.7745 0.3149,-3.9864 0,-0.5414 -0.4391,-0.9805 -0.9805,-0.9805 l -4.8339,0.0057 c -0.6018,0 -1.0897,-0.4879 -1.0897,-1.0897 V 60.5911 41.6744 c 0,-0.6083 -0.4932,-1.1015 -1.1015,-1.1015 -1.1047,0 -1.2005,-0.781 -0.1712,-1.8035 3.6689,-3.6459 3.1138,-12.0228 -1.3246,-15.0122 -3.1473,-2.1198 -5.0641,-10.3054 -6.1027,-11.0322 -1.0387,-0.7268 1.0102,2.9636 -4.2611,10.5219 -4.0459,5.8011 -2.9956,13.1806 0.4119,15.4928 0.9303,0.6049 0.5187,1.8332 -0.8745,1.8332 -0.6083,0 -1.1015,0.4932 -1.1015,1.1015 v 18.9167 27.6083 c 0,0.6018 -0.4879,1.0897 -1.0897,1.0897 l -4.8339,-0.0057 c -0.5414,0 -0.9805,0.4391 -0.9805,0.9805 0,2.2119 -0.2903,1.861 0.3149,3.9864 0.885,3.1076 0.4014,2.9466 -0.2109,5.9176 -0.515,2.5001 -0.0467,2.412 -0.0467,4.9654 0,3.4682 5.1094,4.1701 5.1094,8.18 v 2.012 c 0,50.8275 -29.4256,67.4311 -78.696,67.4311 -5.1449,0 -5.1449,-15.4233 6e-4,-15.4233 38.0009,0 60.696,-12.8061 60.696,-52.0078 v -2.012 c 0,-4.0099 5.1094,-4.7118 5.1094,-8.18 0,-2.5534 0.4683,-2.4653 -0.0468,-4.9654 -0.6122,-2.971 -1.0958,-2.81 -0.2109,-5.9176 0.6052,-2.1254 0.315,-1.7745 0.315,-3.9864 0,-0.5414 -0.4391,-0.9805 -0.9805,-0.9805 l -4.8339,0.0057 c -0.6018,0 -1.0897,-0.4879 -1.0897,-1.0897 V 60.5911 40.9544 c 0,-0.6083 -0.4932,-1.1015 -1.1015,-1.1015 -1.1047,0 -1.2002,-0.781 -0.1712,-1.8035 3.6688,-3.6456 2.1943,-13.3775 -0.9496,-16.2 -5.0658,-4.5479 -0.6892,-12.0393005 -1.2901,-12.0943005 -0.6009,-0.0549 -4.1774,4.4008005 -9.4487,11.9591005 -4.0459,5.8011 -2.9957,13.9933 0.4119,16.3055 0.9303,0.6049 0.5187,1.8332 -0.8745,1.8332 -0.6084,0 -1.1016,0.4932 -1.1016,1.1015 v 19.6367 27.6083 c 0,0.6018 -0.4878,1.0897 -1.0896,1.0897 l -4.8339,-0.0057 c -0.5415,0 -0.9805,0.4391 -0.9805,0.9805 0,2.2119 -0.2903,1.861 0.3149,3.9864 0.885,3.1076 0.4014,2.9466 -0.2109,5.9176 -0.5151,2.5001 -0.0468,2.412 -0.0468,4.9654 0,3.4682 5.1095,4.1701 5.1095,8.18 v 4.172 c 0,27.5763 -15.9648,36.5845 -42.696,36.5845 -5.1455,0 -5.1455,-15.4233 0,-15.4233 15.4618,0 24.696,-5.2107 24.696,-21.1612 v -4.172 c 0,-4.0099 5.1094,-4.7118 5.1094,-8.18 0,-2.5534 0.4683,-2.4653 -0.0468,-4.9654 -0.6122,-2.971 -1.0958,-2.81 -0.2109,-5.9176 0.6052,-2.1254 0.315,-1.7745 0.315,-3.9864 0,-0.5414 -0.4391,-0.9805 -0.9805,-0.9805 l -4.8339,0.0057 c -0.6018,0 -1.0897,-0.4879 -1.0897,-1.0897 V 60.5911 43.8344 c 0,-0.6083 -0.4932,-1.1015 -1.1015,-1.1015 -1.1047,0 -1.4624,-1.1416 -0.1712,-1.8035 3.6377,-1.8646 3.0084,-11.872 -1.3247,-15.0122 -3.9597,-2.8698 -5.3767,-11.6805 -6.2277,-12.1573 -0.851,-0.4768 0.1976,3.9011 -5.0737,11.4594 -4.0459,5.8011 -2.058,13.3682 1.3496,15.6804 0.9303,0.6049 0.5187,1.8332 -0.8745,1.8332 -0.6084,0 -1.1016,0.4932 -1.1016,1.1015 v 16.7567 27.6083 c 0,0.6018 -0.4878,1.0897 -1.0896,1.0897 l -4.8339,-0.0057 c -0.5415,0 -0.9805,0.4391 -0.9805,0.9805 0,2.2119 -0.2903,1.861 0.3149,3.9864 0.885,3.1076 0.4014,2.9466 -0.2109,5.9176 -0.5151,2.5001 -0.0468,2.412 -0.0468,4.9654 0,3.4682 5.1095,4.1701 5.1095,8.18 v 4.172 c 0,4.3245 -2.5039,5.7373 -6.696,5.7373 h -5.633 c -3.0249,0 -5.6716,-2.128 -5.6716,-17.8186 v -4.172 c 0,-4.0099 5.1094,-4.7117 5.1094,-8.1799 0,-2.5535 0.4683,-2.4653 -0.0467,-4.9655 -0.6123,-2.971 -1.0959,-2.81 -0.2109,-5.9176 0.6052,-2.1254 0.3149,-1.7745 0.3149,-3.9864 0,-0.5414 -0.4391,-0.9805 -0.9805,-0.9805 l -4.8339,0.0057 c -0.6018,0 -1.0897,-0.4878 -1.0897,-1.0896 V 56.5254 29.5931 c 0,-0.6083 -0.4932,-1.1015 -1.1015,-1.1015 -1.1047,0 -1.2002,-0.781 -0.1712,-1.8034 3.6689,-3.6456 1.6653,-13.0544 -1.4182,-15.5438 -2.8905,-2.3335001 -3.9705,-11.08659998 -4.5717,-11.12569998 -0.6012,-0.0391 -0.2395,3.18219988 -5.5108,10.74049998 -4.0459,5.8011 -3.1833,13.587 0.2242,15.8992 0.9303,0.6049 0.5187,1.8332 -0.8745,1.8332 -0.6083,0 -1.1015,0.4932 -1.1015,1.1015 v 26.9323 19.5928 c 0,0.6018 -0.4879,1.0896 -1.0897,1.0896 l -4.8339,-0.0057 c -0.5414,0 -0.9805,0.4391 -0.9805,0.9805 0,2.2119 -0.2903,1.861 0.3149,3.9864 0.885,3.1076 0.4014,2.9466 -0.2109,5.9176 -0.515,2.5002 -0.0467,2.412 -0.0467,4.9655 0,3.4682 5.1094,4.17 5.1094,8.1799 v 4.172 c 0,15.6906 -2.6467,17.8186 -5.6716,17.8186 h -5.633 c -0.8302,0 -1.5945,-0.0558 -2.2858,-0.178 -2.7995,-0.4958 -4.4102,-2.0914 -4.4102,-5.5593 v -4.172 c 0,-4.0099 5.1095,-4.7118 5.1095,-8.18 0,-2.5534 0.4683,-2.4653 -0.0468,-4.9654 -0.6123,-2.971 -1.0959,-2.81 -0.2109,-5.9176 0.6052,-2.1254 0.3149,-1.7745 0.3149,-3.9864 0,-0.5414 -0.439,-0.9805 -0.9805,-0.9805 l -2.3547,0.0028 -2.4792,0.0029 c -0.6018,0 -1.0896,-0.4879 -1.0896,-1.0897 V 82.0726 66.4265 60.5911 41.6744 c 0,-0.6083 -0.4932,-1.1015 -1.1016,-1.1015 -1.1046,0 -1.2155,-1.1376 -0.1868,-2.16 3.6689,-3.6454 3.208,-10.2396 -1.059,-13.4683 -3.7097,-2.8072 -6.3142,-9.993 -8.4778,-10.9698 -2.1637,-0.9768 2.3227,3.7763 -2.9486,11.3346 -4.0459,5.8011 -2.183,11.1181 1.2245,13.4303 0.9303,0.6049 0.5188,1.8332 -0.8745,1.8332 -0.6083,0 -1.1015,0.4932 -1.1015,1.1015 v 18.9167 27.6083 c 0,0.6018 -0.4879,1.0897 -1.0897,1.0897 l -4.8339,-0.0057 c -0.5414,0 -0.9805,0.4391 -0.9805,0.9805 0,2.2119 -0.2902,1.861 0.315,3.9864 0.8849,3.1076 0.4013,2.9466 -0.2109,5.9176 -0.5151,2.5001 -0.0468,2.412 -0.0468,4.9654 0,3.4682 5.1094,4.1701 5.1094,8.18 v 4.172 c 0,15.9505 9.2342,21.1612 24.696,21.1612 5.1455,0 5.1455,15.4233 0,15.4233 -26.7312,0 -42.695989,-9.0082 -42.695989,-36.5845 v -4.172 c 0,-4.0099 5.109499,-4.7118 5.109499,-8.18 0,-2.5534 0.4683,-2.4653 -0.0468,-4.9654 -0.612299,-2.971 -1.095899,-2.81 -0.2109,-5.9176 0.6052,-2.1254 0.3149,-1.7745 0.3149,-3.9864 0,-0.5414 -0.439,-0.9805 -0.980499,-0.9805 l -4.8339,0.0057 c -0.6018,0 -1.0896,-0.4879 -1.0896,-1.0897 V 60.5911 39.5144 c 0,-0.6083 -0.4932,-1.1015 -1.1016,-1.1015 -1.1046,0 -1.2075,-1.0231 -0.1788,-2.0455 3.6689,-3.6454 1.3745,-11.2332 -0.817,-13.4266 -4.8115,-4.8166 -6.55,-10.6441 -8.1966,-12.282 -1.6467,-1.6378001 0.9961,4.5703 -2.6672,9.6154 -4.1558,5.7235 -2.9956,13.9933 0.4119,16.3055 0.9303,0.6049 0.5188,1.8332 -0.8745,1.8332 -0.6083,0 -1.1015,0.4932 -1.1015,1.1015 v 21.0767 27.6083 c 0,0.6018 -0.4879,1.0897 -1.0897,1.0897 l -4.8339,-0.0057 c -0.5414,0 -0.9805,0.4391 -0.9805,0.9805 0,2.2119 -0.2902,1.861 0.315,3.9864 0.8849,3.1076 0.4013,2.9466 -0.2109,5.9176 -0.5151,2.5001 -0.0468,2.412 -0.0468,4.9654 0,3.4682 5.1094,4.1701 5.1094,8.18 v 2.012 c 0,39.2017 22.6951,52.0078 60.695989,52.0078 5.1455,0 5.1455,15.4233 6e-4,15.4233 -49.270389,0 -78.695989,-16.6036 -78.695989,-67.4311 v -2.012 c 0,-4.0099 5.1094,-4.7118 5.1094,-8.18 0,-2.5534 0.4683,-2.4653 -0.0467,-4.9654 -0.6123,-2.971 -1.0959,-2.81 -0.2109,-5.9176 0.6052,-2.1254 0.3149,-1.7745 0.3149,-3.9864 0,-0.5414 -0.4391,-0.9805 -0.9805,-0.9805 l -4.8339,0.0057 c -0.6018,0 -1.0897,-0.4879 -1.0897,-1.0897 V 60.5911 43.8344 c 0,-0.6083 -0.4932,-1.1015 -1.1015,-1.1015 -1.1047,0 -1.2002,-0.781 -0.1712,-1.8035 3.6689,-3.6456 2.9446,-10.8141 -1.1996,-14.1998 -5.2728,-4.3073 -2.4078,-13.6024 -3.7435,-11.704 -1.3357,1.8984 -1.8175,2.1351 -7.0891,9.6936 -4.0462,5.8014 -2.6518,13.8683 0.7557,16.1805 0.9303,0.6049 0.5187,1.8332 -0.8745,1.8332 -0.6083,0 -1.1015,0.4932 -1.1015,1.1015 v 16.7567 27.6083 c 0,0.6018 -0.4879,1.0897 -1.0897,1.0897 l -4.8339,-0.0057 c -0.5414,0 -0.9805,0.4391 -0.9805,0.9805 0,2.2119 -0.2903,1.861 0.3149,3.9864 0.885,3.1076 0.4014,2.9466 -0.2109,5.9176 -0.515,2.5001 -0.0467,2.412 -0.0467,4.9654 0,3.4682 5.1094,4.1701 5.1094,8.18 v 2.012 c 0,62.4532 36.2092,82.855 96.749289,82.855 5.0916,0 5.0916,15.4233 -6e-4,15.4233 -71.809489,0 -114.749289,-24.1994 -114.749289,-98.2783 v -2.012 c 0,-4.0099 5.1095,-4.7118 5.1095,-8.18 0,-2.5534 0.4683,-2.4653 -0.0468,-4.9654 -0.6123,-2.971 -1.0959,-2.81 -0.2109,-5.9176 0.6052,-2.1254 0.3149,-1.7745 0.3149,-3.9864 0,-0.5414 -0.439,-0.9805 -0.9805,-0.9805 l -4.8339,0.0057 c -0.6018,0 -1.0896,-0.4879 -1.0896,-1.0897 V 60.5911 41.6744 c 0,-0.6083 -0.4932,-1.1015 -1.1016,-1.1015 -1.1046,0 -1.2004,-0.781 -0.1712,-1.8035 3.6689,-3.6459 2.8196,-11.6265 -1.3246,-15.0122 -5.2727,-4.3073 -3.8608,-13.1494 -4.9153,-11.7822 -1.0545,1.3671 -0.1769,2.9007 -5.4485003,10.4592 -4.0461,5.8014 -2.9956,13.9933 0.4119,16.3055 0.9303,0.6049 0.5188,1.8332 -0.8745,1.8332 -0.6083,0 -1.1015,0.4932 -1.1015,1.1015 v 18.9167 27.6083 c 0,0.6018 -0.4879,1.0897 -1.0897,1.0897 l -4.8339,-0.0057 c -0.5414,0 -0.9805,0.4391 -0.9805,0.9805 0,2.2119 -0.2902,1.861 0.315,3.9864 0.8849,3.1076 0.4013,2.9466 -0.2109,5.9176 -0.5151,2.5001 -0.0468,2.412 -0.0468,4.9654 0,3.4682 5.1094,4.1701 5.1094,8.18 v 4.172 c 0,86.1327 51.2190003,113.6718 130.4376893,113.6718 h -0.0363 c 1.2555,0 2.2734,1.0075 2.2734,2.2502 l -0.005,22.0433 c 0,29.4565 -14.1781,75.8152 -33.1061,84.3097 -35.051089,15.7298 -43.612889,29.6717 -25.313789,29.6717 h 78.750689 78.7507 c 18.2991,0 9.7373,-13.9419 -25.3134,-29.6717 -18.928,-8.4945 -33.1061,-54.8532 -33.1061,-84.3097 l -0.005,-22.0433 c 0,-1.2427 1.0179,-2.2502 2.2734,-2.2502 h -0.0363 c 79.2187,0 130.4377,-27.5391 130.4377,-113.6718 v -4.172 c 0,-4.0099 5.1094,-4.7118 5.1094,-8.18 0,-2.5534 0.4683,-2.4653 -0.0468,-4.9654 -0.6122,-2.971 -1.0958,-2.81 -0.2109,-5.9176 0.6052,-2.1254 0.315,-1.7745 0.315,-3.9864 0,-0.5414 -0.4391,-0.9805 -0.9805,-0.9805 l -4.8339,0.0057 c -0.6018,0 -1.0897,-0.4879 -1.0897,-1.0897 V 60.5911 39.5144 c 0,-0.6083 -0.4932,-1.1015 -1.1015,-1.1015 -1.1047,0 -1.4502,-1.1186 -0.1712,-1.8035 3.2782,-1.7552 2.9928,-11.8505 -1.3247,-15.0122 -5.2412,-3.8384 -4.0328,-11.9308001 -4.4152,-11.3604 -0.3824,0.5703 -3.6924,7.8497 -6.3235,10.8189 -4.381,4.944 -2.6207,13.2118 0.7869,15.524 0.9303,0.6049 0.5187,1.8332 -0.8745,1.8332 z"
     style="fill:none;stroke:#000000;stroke-width:0.21600001;stroke-linecap:butt;stroke-linejoin:miter;stroke-dasharray:none"
     id="path827"
     inkscape:connector-curvature="0" />
</svg>
