  0
SECTION
  2
HEADER
  9
$ACADVER
  1
AC1009
  9
$DWGCODEPAGE
  3
ansi_1252
  9
$INSBASE
 10
0.0
 20
0.0
 30
0.0
  9
$EXTMIN
 10
-52.8319
 20
-64.0079
 30
0.0
  9
$EXTMAX
 10
52.8319
 20
29.5486
 30
0.0
  9
$LIMMIN
 10
0.0
 20
0.0
  9
$LIMMAX
 10
12.0
 20
9.0
  9
$ORTHOMODE
 70
     0
  9
$REGENMODE
 70
     1
  9
$FILLMODE
 70
     1
  9
$QTEXTMODE
 70
     0
  9
$MIRRTEXT
 70
     1
  9
$DRAGMODE
 70
     2
  9
$LTSCALE
 40
1.0
  9
$OSMODE
 70
    37
  9
$ATTMODE
 70
     1
  9
$TEXTSIZE
 40
0.2
  9
$TRACEWID
 40
0.05
  9
$TEXTSTYLE
  7
STANDARD
  9
$CLAYER
  8
0
  9
$CELTYPE
  6
BYLAYER
  9
$CECOLOR
 62
   256
  9
$DIMSCALE
 40
1.0
  9
$DIMASZ
 40
0.18
  9
$DIMEXO
 40
0.0625
  9
$DIMDLI
 40
0.38
  9
$DIMRND
 40
0.0
  9
$DIMDLE
 40
0.0
  9
$DIMEXE
 40
0.18
  9
$DIMTP
 40
0.0
  9
$DIMTM
 40
0.0
  9
$DIMTXT
 40
0.18
  9
$DIMCEN
 40
0.09
  9
$DIMTSZ
 40
0.0
  9
$DIMTOL
 70
     0
  9
$DIMLIM
 70
     0
  9
$DIMTIH
 70
     1
  9
$DIMTOH
 70
     1
  9
$DIMSE1
 70
     0
  9
$DIMSE2
 70
     0
  9
$DIMTAD
 70
     0
  9
$DIMZIN
 70
     0
  9
$DIMBLK
  1

  9
$DIMASO
 70
     1
  9
$DIMSHO
 70
     1
  9
$DIMPOST
  1

  9
$DIMAPOST
  1

  9
$DIMALT
 70
     0
  9
$DIMALTD
 70
     2
  9
$DIMALTF
 40
25.4
  9
$DIMLFAC
 40
1.0
  9
$DIMTOFL
 70
     0
  9
$DIMTVP
 40
0.0
  9
$DIMTIX
 70
     0
  9
$DIMSOXD
 70
     0
  9
$DIMSAH
 70
     0
  9
$DIMBLK1
  1

  9
$DIMBLK2
  1

  9
$DIMSTYLE
  2
STANDARD
  9
$DIMCLRD
 70
     0
  9
$DIMCLRE
 70
     0
  9
$DIMCLRT
 70
     0
  9
$DIMTFAC
 40
1.0
  9
$DIMGAP
 40
0.09
  9
$LUNITS
 70
     2
  9
$LUPREC
 70
     4
  9
$SKETCHINC
 40
0.1
  9
$FILLETRAD
 40
0.5
  9
$AUNITS
 70
     0
  9
$AUPREC
 70
     0
  9
$MENU
  1
.
  9
$ELEVATION
 40
0.0
  9
$PELEVATION
 40
0.0
  9
$THICKNESS
 40
0.0
  9
$LIMCHECK
 70
     0
  9
$CHAMFERA
 40
0.0
  9
$CHAMFERB
 40
0.0
  9
$SKPOLY
 70
     0
  9
$TDCREATE
 40
2459177.459811053
  9
$TDUPDATE
 40
2459177.459811227
  9
$TDINDWG
 40
0.0000000116
  9
$TDUSRTIMER
 40
0.0000000116
  9
$USRTIMER
 70
     1
  9
$ANGBASE
 50
0.0
  9
$ANGDIR
 70
     0
  9
$PDMODE
 70
     0
  9
$PDSIZE
 40
0.0
  9
$PLINEWID
 40
0.0
  9
$COORDS
 70
     1
  9
$SPLFRAME
 70
     0
  9
$SPLINETYPE
 70
     6
  9
$SPLINESEGS
 70
     8
  9
$ATTDIA
 70
     0
  9
$ATTREQ
 70
     1
  9
$HANDLING
 70
     1
  9
$HANDSEED
  5
276
  9
$SURFTAB1
 70
     6
  9
$SURFTAB2
 70
     6
  9
$SURFTYPE
 70
     6
  9
$SURFU
 70
     6
  9
$SURFV
 70
     6
  9
$UCSNAME
  2

  9
$UCSORG
 10
0.0
 20
0.0
 30
0.0
  9
$UCSXDIR
 10
1.0
 20
0.0
 30
0.0
  9
$UCSYDIR
 10
0.0
 20
1.0
 30
0.0
  9
$PUCSNAME
  2

  9
$PUCSORG
 10
0.0
 20
0.0
 30
0.0
  9
$PUCSXDIR
 10
1.0
 20
0.0
 30
0.0
  9
$PUCSYDIR
 10
0.0
 20
1.0
 30
0.0
  9
$USERI1
 70
     0
  9
$USERI2
 70
     0
  9
$USERI3
 70
     0
  9
$USERI4
 70
     0
  9
$USERI5
 70
     0
  9
$USERR1
 40
0.0
  9
$USERR2
 40
0.0
  9
$USERR3
 40
0.0
  9
$USERR4
 40
0.0
  9
$USERR5
 40
0.0
  9
$WORLDVIEW
 70
     1
  9
$SHADEDGE
 70
     3
  9
$SHADEDIF
 70
    70
  9
$TILEMODE
 70
     1
  9
$MAXACTVP
 70
    64
  9
$PLIMCHECK
 70
     0
  9
$PEXTMIN
 10
1.000000000000000E+20
 20
1.000000000000000E+20
 30
1.000000000000000E+20
  9
$PEXTMAX
 10
-1.000000000000000E+20
 20
-1.000000000000000E+20
 30
-1.000000000000000E+20
  9
$PLIMMIN
 10
0.0
 20
0.0
  9
$PLIMMAX
 10
12.0
 20
9.0
  9
$UNITMODE
 70
     0
  9
$VISRETAIN
 70
     1
  9
$PLINEGEN
 70
     0
  9
$PSLTSCALE
 70
     1
  0
ENDSEC
  0
SECTION
  2
TABLES
  0
TABLE
  2
VPORT
 70
     1
  0
VPORT
  2
*ACTIVE
 70
     0
 10
0.0
 20
0.0
 11
1.0
 21
1.0
 12
10.42990654205607
 22
4.5
 13
0.0
 23
0.0
 14
0.5
 24
0.5
 15
0.5
 25
0.5
 16
0.0
 26
0.0
 36
1.0
 17
0.0
 27
0.0
 37
0.0
 40
9.0
 41
1.972972972850329
 42
50.0
 43
0.0
 44
0.0
 50
0.0
 51
0.0
 71
     0
 72
   100
 73
     1
 74
     3
 75
     0
 76
     0
 77
     0
 78
     0
  0
ENDTAB
  0
TABLE
  2
LTYPE
 70
     1
  0
LTYPE
  2
CONTINUOUS
 70
     0
  3
Solid line
 72
    65
 73
     0
 40
0.0
  0
ENDTAB
  0
TABLE
  2
LAYER
 70
     2
  0
LAYER
  2
0
 70
     0
 62
     7
  6
CONTINUOUS
  0
LAYER
  2
LAYER_1
 70
     0
 62
     7
  6
CONTINUOUS
  0
ENDTAB
  0
TABLE
  2
STYLE
 70
     1
  0
STYLE
  2
STANDARD
 70
     0
 40
0.0
 41
1.0
 50
0.0
 71
     0
 42
0.2
  3
txt
  4

  0
ENDTAB
  0
TABLE
  2
VIEW
 70
     0
  0
ENDTAB
  0
TABLE
  2
UCS
 70
     0
  0
ENDTAB
  0
TABLE
  2
APPID
 70
     2
  0
APPID
  2
ACAD
 70
     0
  0
APPID
  2
ODA
 70
     0
  0
ENDTAB
  0
TABLE
  2
DIMSTYLE
 70
     1
  0
DIMSTYLE
  2
STANDARD
 70
     0
  3

  4

  5

  6

  7

 40
1.0
 41
0.18
 42
0.0625
 43
0.38
 44
0.18
 45
0.0
 46
0.0
 47
0.0
 48
0.0
140
0.18
141
0.09
142
0.0
143
25.4
144
1.0
145
0.0
146
1.0
147
0.09
 71
     0
 72
     0
 73
     1
 74
     1
 75
     0
 76
     0
 77
     0
 78
     0
170
     0
171
     2
172
     0
173
     0
174
     0
175
     0
176
     0
177
     0
178
     0
  0
ENDTAB
  0
ENDSEC
  0
SECTION
  2
BLOCKS
  0
BLOCK
  8
0
  2
$MODEL_SPACE
 70
     0
 10
0.0
 20
0.0
 30
0.0
  3
$MODEL_SPACE
  1

  0
ENDBLK
  5
21
  8
0
  0
BLOCK
 67
     1
  8
0
  2
$PAPER_SPACE
 70
     0
 10
0.0
 20
0.0
 30
0.0
  3
$PAPER_SPACE
  1

  0
ENDBLK
  5
1D
 67
     1
  8
0
  0
ENDSEC
  0
SECTION
  2
ENTITIES
  0
POLYLINE
  5
70
  8
LAYER_1
 66
     1
 10
0.0
 20
0.0
 30
0.0
 70
     1
  0
VERTEX
  5
7D
  8
LAYER_1
 10
48.8256
 20
25.1893
 30
0.0
  0
VERTEX
  5
7E
  8
LAYER_1
 10
52.7748
 20
25.1893
 30
0.0
  0
VERTEX
  5
7F
  8
LAYER_1
 10
52.7748
 20
23.7175
 30
0.0
  0
VERTEX
  5
80
  8
LAYER_1
 10
51.9703
 20
13.5361
 30
0.0
  0
VERTEX
  5
81
  8
LAYER_1
 10
49.6164
 20
5.1349
 30
0.0
  0
VERTEX
  5
82
  8
LAYER_1
 10
45.8024
 20
-1.6163
 30
0.0
  0
VERTEX
  5
83
  8
LAYER_1
 10
40.6178
 20
-6.8478
 30
0.0
  0
VERTEX
  5
84
  8
LAYER_1
 10
34.1518
 20
-10.6899
 30
0.0
  0
VERTEX
  5
85
  8
LAYER_1
 10
26.4939
 20
-13.2729
 30
0.0
  0
VERTEX
  5
86
  8
LAYER_1
 10
17.7334
 20
-14.7272
 30
0.0
  0
VERTEX
  5
87
  8
LAYER_1
 10
7.9597
 20
-15.183
 30
0.0
  0
VERTEX
  5
88
  8
LAYER_1
 10
6.7593
 20
-15.183
 30
0.0
  0
VERTEX
  5
89
  8
LAYER_1
 10
6.5526
 20
-15.2246
 30
0.0
  0
VERTEX
  5
8A
  8
LAYER_1
 10
6.3821
 20
-15.3398
 30
0.0
  0
VERTEX
  5
8B
  8
LAYER_1
 10
6.2451
 20
-15.5141
 30
0.0
  0
VERTEX
  5
8C
  8
LAYER_1
 10
6.139
 20
-15.7332
 30
0.0
  0
VERTEX
  5
8D
  8
LAYER_1
 10
6.0611
 20
-15.9827
 30
0.0
  0
VERTEX
  5
8E
  8
LAYER_1
 10
6.0088
 20
-16.2482
 30
0.0
  0
VERTEX
  5
8F
  8
LAYER_1
 10
5.9793
 20
-16.5153
 30
0.0
  0
VERTEX
  5
90
  8
LAYER_1
 10
5.9701
 20
-16.7696
 30
0.0
  0
VERTEX
  5
91
  8
LAYER_1
 10
5.972
 20
-24.9539
 30
0.0
  0
VERTEX
  5
92
  8
LAYER_1
 10
6.0068
 20
-26.5661
 30
0.0
  0
VERTEX
  5
93
  8
LAYER_1
 10
6.1071
 20
-28.1959
 30
0.0
  0
VERTEX
  5
94
  8
LAYER_1
 10
6.2678
 20
-29.8352
 30
0.0
  0
VERTEX
  5
95
  8
LAYER_1
 10
6.4839
 20
-31.4757
 30
0.0
  0
VERTEX
  5
96
  8
LAYER_1
 10
6.7502
 20
-33.1095
 30
0.0
  0
VERTEX
  5
97
  8
LAYER_1
 10
7.0616
 20
-34.7284
 30
0.0
  0
VERTEX
  5
98
  8
LAYER_1
 10
7.4131
 20
-36.3243
 30
0.0
  0
VERTEX
  5
99
  8
LAYER_1
 10
7.7996
 20
-37.8891
 30
0.0
  0
VERTEX
  5
9A
  8
LAYER_1
 10
8.4349
 20
-40.1414
 30
0.0
  0
VERTEX
  5
9B
  8
LAYER_1
 10
9.2635
 20
-42.6623
 30
0.0
  0
VERTEX
  5
9C
  8
LAYER_1
 10
10.2865
 20
-45.3153
 30
0.0
  0
VERTEX
  5
9D
  8
LAYER_1
 10
11.5051
 20
-47.9642
 30
0.0
  0
VERTEX
  5
9E
  8
LAYER_1
 10
12.9206
 20
-50.4726
 30
0.0
  0
VERTEX
  5
9F
  8
LAYER_1
 10
14.5341
 20
-52.7042
 30
0.0
  0
VERTEX
  5
A0
  8
LAYER_1
 10
16.3468
 20
-54.5226
 30
0.0
  0
VERTEX
  5
A1
  8
LAYER_1
 10
18.36
 20
-55.7914
 30
0.0
  0
VERTEX
  5
A2
  8
LAYER_1
 10
19.5105
 20
-56.3168
 30
0.0
  0
VERTEX
  5
A3
  8
LAYER_1
 10
20.6797
 20
-56.8726
 30
0.0
  0
VERTEX
  5
A4
  8
LAYER_1
 10
21.8553
 20
-57.4589
 30
0.0
  0
VERTEX
  5
A5
  8
LAYER_1
 10
23.0252
 20
-58.076
 30
0.0
  0
VERTEX
  5
A6
  8
LAYER_1
 10
24.1772
 20
-58.7242
 30
0.0
  0
VERTEX
  5
A7
  8
LAYER_1
 10
25.2992
 20
-59.4038
 30
0.0
  0
VERTEX
  5
A8
  8
LAYER_1
 10
26.379
 20
-60.1149
 30
0.0
  0
VERTEX
  5
A9
  8
LAYER_1
 10
27.4044
 20
-60.8578
 30
0.0
  0
VERTEX
  5
AA
  8
LAYER_1
 10
27.9464
 20
-61.2857
 30
0.0
  0
VERTEX
  5
AB
  8
LAYER_1
 10
28.4875
 20
-61.7522
 30
0.0
  0
VERTEX
  5
AC
  8
LAYER_1
 10
28.7483
 20
-61.9978
 30
0.0
  0
VERTEX
  5
AD
  8
LAYER_1
 10
28.9978
 20
-62.2506
 30
0.0
  0
VERTEX
  5
AE
  8
LAYER_1
 10
29.232
 20
-62.5098
 30
0.0
  0
VERTEX
  5
AF
  8
LAYER_1
 10
29.4472
 20
-62.7745
 30
0.0
  0
VERTEX
  5
B0
  8
LAYER_1
 10
29.5765
 20
-62.9349
 30
0.0
  0
VERTEX
  5
B1
  8
LAYER_1
 10
29.747
 20
-63.1638
 30
0.0
  0
VERTEX
  5
B2
  8
LAYER_1
 10
29.8221
 20
-63.2853
 30
0.0
  0
VERTEX
  5
B3
  8
LAYER_1
 10
29.877
 20
-63.4016
 30
0.0
  0
VERTEX
  5
B4
  8
LAYER_1
 10
29.9012
 20
-63.5052
 30
0.0
  0
VERTEX
  5
B5
  8
LAYER_1
 10
29.8847
 20
-63.5887
 30
0.0
  0
VERTEX
  5
B6
  8
LAYER_1
 10
29.7463
 20
-63.716
 30
0.0
  0
VERTEX
  5
B7
  8
LAYER_1
 10
29.5153
 20
-63.8107
 30
0.0
  0
VERTEX
  5
B8
  8
LAYER_1
 10
29.2201
 20
-63.8775
 30
0.0
  0
VERTEX
  5
B9
  8
LAYER_1
 10
28.8894
 20
-63.9213
 30
0.0
  0
VERTEX
  5
BA
  8
LAYER_1
 10
28.2354
 20
-63.9592
 30
0.0
  0
VERTEX
  5
BB
  8
LAYER_1
 10
27.7815
 20
-63.9633
 30
0.0
  0
VERTEX
  5
BC
  8
LAYER_1
 10
-27.7815
 20
-63.9633
 30
0.0
  0
VERTEX
  5
BD
  8
LAYER_1
 10
-28.2354
 20
-63.9592
 30
0.0
  0
VERTEX
  5
BE
  8
LAYER_1
 10
-28.8894
 20
-63.9213
 30
0.0
  0
VERTEX
  5
BF
  8
LAYER_1
 10
-29.2201
 20
-63.8775
 30
0.0
  0
VERTEX
  5
C0
  8
LAYER_1
 10
-29.5153
 20
-63.8107
 30
0.0
  0
VERTEX
  5
C1
  8
LAYER_1
 10
-29.7463
 20
-63.716
 30
0.0
  0
VERTEX
  5
C2
  8
LAYER_1
 10
-29.8847
 20
-63.5887
 30
0.0
  0
VERTEX
  5
C3
  8
LAYER_1
 10
-29.9012
 20
-63.5052
 30
0.0
  0
VERTEX
  5
C4
  8
LAYER_1
 10
-29.877
 20
-63.4016
 30
0.0
  0
VERTEX
  5
C5
  8
LAYER_1
 10
-29.8221
 20
-63.2853
 30
0.0
  0
VERTEX
  5
C6
  8
LAYER_1
 10
-29.747
 20
-63.1638
 30
0.0
  0
VERTEX
  5
C7
  8
LAYER_1
 10
-29.5765
 20
-62.9349
 30
0.0
  0
VERTEX
  5
C8
  8
LAYER_1
 10
-29.4472
 20
-62.7745
 30
0.0
  0
VERTEX
  5
C9
  8
LAYER_1
 10
-29.232
 20
-62.5098
 30
0.0
  0
VERTEX
  5
CA
  8
LAYER_1
 10
-28.9978
 20
-62.2506
 30
0.0
  0
VERTEX
  5
CB
  8
LAYER_1
 10
-28.7483
 20
-61.9978
 30
0.0
  0
VERTEX
  5
CC
  8
LAYER_1
 10
-28.4875
 20
-61.7522
 30
0.0
  0
VERTEX
  5
CD
  8
LAYER_1
 10
-27.9464
 20
-61.2857
 30
0.0
  0
VERTEX
  5
CE
  8
LAYER_1
 10
-27.4044
 20
-60.8578
 30
0.0
  0
VERTEX
  5
CF
  8
LAYER_1
 10
-26.379
 20
-60.1149
 30
0.0
  0
VERTEX
  5
D0
  8
LAYER_1
 10
-25.2992
 20
-59.4038
 30
0.0
  0
VERTEX
  5
D1
  8
LAYER_1
 10
-24.1772
 20
-58.7242
 30
0.0
  0
VERTEX
  5
D2
  8
LAYER_1
 10
-23.0252
 20
-58.076
 30
0.0
  0
VERTEX
  5
D3
  8
LAYER_1
 10
-21.8553
 20
-57.4589
 30
0.0
  0
VERTEX
  5
D4
  8
LAYER_1
 10
-20.6797
 20
-56.8726
 30
0.0
  0
VERTEX
  5
D5
  8
LAYER_1
 10
-19.5105
 20
-56.3168
 30
0.0
  0
VERTEX
  5
D6
  8
LAYER_1
 10
-18.36
 20
-55.7914
 30
0.0
  0
VERTEX
  5
D7
  8
LAYER_1
 10
-16.3468
 20
-54.5226
 30
0.0
  0
VERTEX
  5
D8
  8
LAYER_1
 10
-14.5341
 20
-52.7042
 30
0.0
  0
VERTEX
  5
D9
  8
LAYER_1
 10
-12.9206
 20
-50.4726
 30
0.0
  0
VERTEX
  5
DA
  8
LAYER_1
 10
-11.5051
 20
-47.9642
 30
0.0
  0
VERTEX
  5
DB
  8
LAYER_1
 10
-10.2865
 20
-45.3153
 30
0.0
  0
VERTEX
  5
DC
  8
LAYER_1
 10
-9.2635
 20
-42.6623
 30
0.0
  0
VERTEX
  5
DD
  8
LAYER_1
 10
-8.4349
 20
-40.1414
 30
0.0
  0
VERTEX
  5
DE
  8
LAYER_1
 10
-7.7996
 20
-37.8891
 30
0.0
  0
VERTEX
  5
DF
  8
LAYER_1
 10
-7.4131
 20
-36.3243
 30
0.0
  0
VERTEX
  5
E0
  8
LAYER_1
 10
-7.0616
 20
-34.7284
 30
0.0
  0
VERTEX
  5
E1
  8
LAYER_1
 10
-6.7502
 20
-33.1095
 30
0.0
  0
VERTEX
  5
E2
  8
LAYER_1
 10
-6.4839
 20
-31.4757
 30
0.0
  0
VERTEX
  5
E3
  8
LAYER_1
 10
-6.2678
 20
-29.8352
 30
0.0
  0
VERTEX
  5
E4
  8
LAYER_1
 10
-6.1071
 20
-28.1959
 30
0.0
  0
VERTEX
  5
E5
  8
LAYER_1
 10
-6.0068
 20
-26.5661
 30
0.0
  0
VERTEX
  5
E6
  8
LAYER_1
 10
-5.972
 20
-24.9539
 30
0.0
  0
VERTEX
  5
E7
  8
LAYER_1
 10
-5.9701
 20
-16.7696
 30
0.0
  0
VERTEX
  5
E8
  8
LAYER_1
 10
-5.9793
 20
-16.5153
 30
0.0
  0
VERTEX
  5
E9
  8
LAYER_1
 10
-6.0087
 20
-16.2482
 30
0.0
  0
VERTEX
  5
EA
  8
LAYER_1
 10
-6.0611
 20
-15.9827
 30
0.0
  0
VERTEX
  5
EB
  8
LAYER_1
 10
-6.139
 20
-15.7332
 30
0.0
  0
VERTEX
  5
EC
  8
LAYER_1
 10
-6.2451
 20
-15.5141
 30
0.0
  0
VERTEX
  5
ED
  8
LAYER_1
 10
-6.3821
 20
-15.3398
 30
0.0
  0
VERTEX
  5
EE
  8
LAYER_1
 10
-6.5526
 20
-15.2246
 30
0.0
  0
VERTEX
  5
EF
  8
LAYER_1
 10
-6.7593
 20
-15.183
 30
0.0
  0
VERTEX
  5
F0
  8
LAYER_1
 10
-7.9597
 20
-15.183
 30
0.0
  0
VERTEX
  5
F1
  8
LAYER_1
 10
-17.7334
 20
-14.7272
 30
0.0
  0
VERTEX
  5
F2
  8
LAYER_1
 10
-26.4939
 20
-13.2729
 30
0.0
  0
VERTEX
  5
F3
  8
LAYER_1
 10
-34.1518
 20
-10.6899
 30
0.0
  0
VERTEX
  5
F4
  8
LAYER_1
 10
-40.6178
 20
-6.8478
 30
0.0
  0
VERTEX
  5
F5
  8
LAYER_1
 10
-45.8024
 20
-1.6163
 30
0.0
  0
VERTEX
  5
F6
  8
LAYER_1
 10
-49.6164
 20
5.1349
 30
0.0
  0
VERTEX
  5
F7
  8
LAYER_1
 10
-51.9703
 20
13.5361
 30
0.0
  0
VERTEX
  5
F8
  8
LAYER_1
 10
-52.7748
 20
23.7175
 30
0.0
  0
VERTEX
  5
F9
  8
LAYER_1
 10
-52.7748
 20
25.1893
 30
0.0
  0
VERTEX
  5
FA
  8
LAYER_1
 10
-48.8256
 20
25.1893
 30
0.0
  0
VERTEX
  5
FB
  8
LAYER_1
 10
-48.8256
 20
24.4795
 30
0.0
  0
VERTEX
  5
FC
  8
LAYER_1
 10
-48.0689
 20
15.0621
 30
0.0
  0
VERTEX
  5
FD
  8
LAYER_1
 10
-45.859
 20
7.3017
 30
0.0
  0
VERTEX
  5
FE
  8
LAYER_1
 10
-42.2862
 20
1.0745
 30
0.0
  0
VERTEX
  5
FF
  8
LAYER_1
 10
-37.4411
 20
-3.743
 30
0.0
  0
VERTEX
  5
100
  8
LAYER_1
 10
-31.4139
 20
-7.2747
 30
0.0
  0
VERTEX
  5
101
  8
LAYER_1
 10
-24.2951
 20
-9.6442
 30
0.0
  0
VERTEX
  5
102
  8
LAYER_1
 10
-16.1751
 20
-10.9751
 30
0.0
  0
VERTEX
  5
103
  8
LAYER_1
 10
-7.1442
 20
-11.3913
 30
0.0
  0
VERTEX
  5
104
  8
LAYER_1
 10
-6.4714
 20
-11.2869
 30
0.0
  0
VERTEX
  5
105
  8
LAYER_1
 10
-5.9184
 20
-10.9983
 30
0.0
  0
VERTEX
  5
106
  8
LAYER_1
 10
-5.4758
 20
-10.5625
 30
0.0
  0
VERTEX
  5
107
  8
LAYER_1
 10
-5.1346
 20
-10.0165
 30
0.0
  0
VERTEX
  5
108
  8
LAYER_1
 10
-4.8853
 20
-9.3974
 30
0.0
  0
VERTEX
  5
109
  8
LAYER_1
 10
-4.7187
 20
-8.742
 30
0.0
  0
VERTEX
  5
10A
  8
LAYER_1
 10
-4.6255
 20
-8.0874
 30
0.0
  0
VERTEX
  5
10B
  8
LAYER_1
 10
-4.5965
 20
-7.4705
 30
0.0
  0
VERTEX
  5
10C
  8
LAYER_1
 10
-4.6162
 20
-6.9394
 30
0.0
  0
VERTEX
  5
10D
  8
LAYER_1
 10
-4.6805
 20
-6.3801
 30
0.0
  0
VERTEX
  5
10E
  8
LAYER_1
 10
-4.797
 20
-5.815
 30
0.0
  0
VERTEX
  5
10F
  8
LAYER_1
 10
-4.9734
 20
-5.2661
 30
0.0
  0
VERTEX
  5
110
  8
LAYER_1
 10
-5.2174
 20
-4.7557
 30
0.0
  0
VERTEX
  5
111
  8
LAYER_1
 10
-5.5364
 20
-4.3061
 30
0.0
  0
VERTEX
  5
112
  8
LAYER_1
 10
-5.9383
 20
-3.9394
 30
0.0
  0
VERTEX
  5
113
  8
LAYER_1
 10
-6.4306
 20
-3.6778
 30
0.0
  0
VERTEX
  5
114
  8
LAYER_1
 10
-6.6042
 20
-3.6218
 30
0.0
  0
VERTEX
  5
115
  8
LAYER_1
 10
-6.7815
 20
-3.5817
 30
0.0
  0
VERTEX
  5
116
  8
LAYER_1
 10
-6.9617
 20
-3.5576
 30
0.0
  0
VERTEX
  5
117
  8
LAYER_1
 10
-7.144
 20
-3.5495
 30
0.0
  0
VERTEX
  5
118
  8
LAYER_1
 10
-10.4792
 20
-3.4886
 30
0.0
  0
VERTEX
  5
119
  8
LAYER_1
 10
-13.925
 20
-3.2743
 30
0.0
  0
VERTEX
  5
11A
  8
LAYER_1
 10
-17.4119
 20
-2.8592
 30
0.0
  0
VERTEX
  5
11B
  8
LAYER_1
 10
-20.8704
 20
-2.1961
 30
0.0
  0
VERTEX
  5
11C
  8
LAYER_1
 10
-24.2309
 20
-1.2376
 30
0.0
  0
VERTEX
  5
11D
  8
LAYER_1
 10
-27.4238
 20
0.0636
 30
0.0
  0
VERTEX
  5
11E
  8
LAYER_1
 10
-30.3798
 20
1.7548
 30
0.0
  0
VERTEX
  5
11F
  8
LAYER_1
 10
-33.0291
 20
3.8834
 30
0.0
  0
VERTEX
  5
120
  8
LAYER_1
 10
-34.9372
 20
5.9976
 30
0.0
  0
VERTEX
  5
121
  8
LAYER_1
 10
-36.4888
 20
8.3103
 30
0.0
  0
VERTEX
  5
122
  8
LAYER_1
 10
-37.7155
 20
10.7882
 30
0.0
  0
VERTEX
  5
123
  8
LAYER_1
 10
-38.6486
 20
13.3976
 30
0.0
  0
VERTEX
  5
124
  8
LAYER_1
 10
-39.3196
 20
16.105
 30
0.0
  0
VERTEX
  5
125
  8
LAYER_1
 10
-39.76
 20
18.8768
 30
0.0
  0
VERTEX
  5
126
  8
LAYER_1
 10
-40.0012
 20
21.6795
 30
0.0
  0
VERTEX
  5
127
  8
LAYER_1
 10
-40.0746
 20
24.4795
 30
0.0
  0
VERTEX
  5
128
  8
LAYER_1
 10
-40.0746
 20
25.1893
 30
0.0
  0
VERTEX
  5
129
  8
LAYER_1
 10
-36.1254
 20
25.1893
 30
0.0
  0
VERTEX
  5
12A
  8
LAYER_1
 10
-36.1254
 20
24.4795
 30
0.0
  0
VERTEX
  5
12B
  8
LAYER_1
 10
-35.5992
 20
17.9397
 30
0.0
  0
VERTEX
  5
12C
  8
LAYER_1
 10
-34.0628
 20
12.5432
 30
0.0
  0
VERTEX
  5
12D
  8
LAYER_1
 10
-31.5793
 20
8.2065
 30
0.0
  0
VERTEX
  5
12E
  8
LAYER_1
 10
-28.2117
 20
4.8458
 30
0.0
  0
VERTEX
  5
12F
  8
LAYER_1
 10
-24.0232
 20
2.3776
 30
0.0
  0
VERTEX
  5
130
  8
LAYER_1
 10
-19.0768
 20
0.7181
 30
0.0
  0
VERTEX
  5
131
  8
LAYER_1
 10
-13.4356
 20
-0.2162
 30
0.0
  0
VERTEX
  5
132
  8
LAYER_1
 10
-7.1628
 20
-0.5091
 30
0.0
  0
VERTEX
  5
133
  8
LAYER_1
 10
-6.4886
 20
-0.405
 30
0.0
  0
VERTEX
  5
134
  8
LAYER_1
 10
-5.9336
 20
-0.117
 30
0.0
  0
VERTEX
  5
135
  8
LAYER_1
 10
-5.4888
 20
0.318
 30
0.0
  0
VERTEX
  5
136
  8
LAYER_1
 10
-5.1451
 20
0.8632
 30
0.0
  0
VERTEX
  5
137
  8
LAYER_1
 10
-4.8936
 20
1.482
 30
0.0
  0
VERTEX
  5
138
  8
LAYER_1
 10
-4.7251
 20
2.1375
 30
0.0
  0
VERTEX
  5
139
  8
LAYER_1
 10
-4.6306
 20
2.7931
 30
0.0
  0
VERTEX
  5
13A
  8
LAYER_1
 10
-4.6012
 20
3.4119
 30
0.0
  0
VERTEX
  5
13B
  8
LAYER_1
 10
-4.6211
 20
3.9429
 30
0.0
  0
VERTEX
  5
13C
  8
LAYER_1
 10
-4.6859
 20
4.5013
 30
0.0
  0
VERTEX
  5
13D
  8
LAYER_1
 10
-4.8029
 20
5.0651
 30
0.0
  0
VERTEX
  5
13E
  8
LAYER_1
 10
-4.9798
 20
5.6124
 30
0.0
  0
VERTEX
  5
13F
  8
LAYER_1
 10
-5.224
 20
6.1215
 30
0.0
  0
VERTEX
  5
140
  8
LAYER_1
 10
-5.543
 20
6.5704
 30
0.0
  0
VERTEX
  5
141
  8
LAYER_1
 10
-5.9442
 20
6.9372
 30
0.0
  0
VERTEX
  5
142
  8
LAYER_1
 10
-6.4352
 20
7.2002
 30
0.0
  0
VERTEX
  5
143
  8
LAYER_1
 10
-6.6122
 20
7.2581
 30
0.0
  0
VERTEX
  5
144
  8
LAYER_1
 10
-6.7931
 20
7.2995
 30
0.0
  0
VERTEX
  5
145
  8
LAYER_1
 10
-6.977
 20
7.3244
 30
0.0
  0
VERTEX
  5
146
  8
LAYER_1
 10
-7.163
 20
7.3327
 30
0.0
  0
VERTEX
  5
147
  8
LAYER_1
 10
-9.2077
 20
7.3694
 30
0.0
  0
VERTEX
  5
148
  8
LAYER_1
 10
-11.3259
 20
7.4989
 30
0.0
  0
VERTEX
  5
149
  8
LAYER_1
 10
-13.4733
 20
7.7507
 30
0.0
  0
VERTEX
  5
14A
  8
LAYER_1
 10
-15.6053
 20
8.1541
 30
0.0
  0
VERTEX
  5
14B
  8
LAYER_1
 10
-17.6775
 20
8.7383
 30
0.0
  0
VERTEX
  5
14C
  8
LAYER_1
 10
-19.6455
 20
9.5329
 30
0.0
  0
VERTEX
  5
14D
  8
LAYER_1
 10
-21.4648
 20
10.5671
 30
0.0
  0
VERTEX
  5
14E
  8
LAYER_1
 10
-23.091
 20
11.8702
 30
0.0
  0
VERTEX
  5
14F
  8
LAYER_1
 10
-24.2555
 20
13.1628
 30
0.0
  0
VERTEX
  5
150
  8
LAYER_1
 10
-25.201
 20
14.5792
 30
0.0
  0
VERTEX
  5
151
  8
LAYER_1
 10
-25.9472
 20
16.098
 30
0.0
  0
VERTEX
  5
152
  8
LAYER_1
 10
-26.5135
 20
17.6978
 30
0.0
  0
VERTEX
  5
153
  8
LAYER_1
 10
-26.9198
 20
19.3572
 30
0.0
  0
VERTEX
  5
154
  8
LAYER_1
 10
-27.1857
 20
21.0549
 30
0.0
  0
VERTEX
  5
155
  8
LAYER_1
 10
-27.3308
 20
22.7695
 30
0.0
  0
VERTEX
  5
156
  8
LAYER_1
 10
-27.3748
 20
24.4795
 30
0.0
  0
VERTEX
  5
157
  8
LAYER_1
 10
-27.3748
 20
25.1893
 30
0.0
  0
VERTEX
  5
158
  8
LAYER_1
 10
-23.4256
 20
25.1893
 30
0.0
  0
VERTEX
  5
159
  8
LAYER_1
 10
-23.4256
 20
23.7175
 30
0.0
  0
VERTEX
  5
15A
  8
LAYER_1
 10
-23.1291
 20
20.0548
 30
0.0
  0
VERTEX
  5
15B
  8
LAYER_1
 10
-22.2637
 20
17.022
 30
0.0
  0
VERTEX
  5
15C
  8
LAYER_1
 10
-20.8659
 20
14.5756
 30
0.0
  0
VERTEX
  5
15D
  8
LAYER_1
 10
-18.972
 20
12.6719
 30
0.0
  0
VERTEX
  5
15E
  8
LAYER_1
 10
-16.6184
 20
11.2672
 30
0.0
  0
VERTEX
  5
15F
  8
LAYER_1
 10
-13.8415
 20
10.3179
 30
0.0
  0
VERTEX
  5
160
  8
LAYER_1
 10
-10.6776
 20
9.7804
 30
0.0
  0
VERTEX
  5
161
  8
LAYER_1
 10
-7.163
 20
9.6109
 30
0.0
  0
VERTEX
  5
162
  8
LAYER_1
 10
-6.4888
 20
9.715
 30
0.0
  0
VERTEX
  5
163
  8
LAYER_1
 10
-5.9338
 20
10.003
 30
0.0
  0
VERTEX
  5
164
  8
LAYER_1
 10
-5.4889
 20
10.4379
 30
0.0
  0
VERTEX
  5
165
  8
LAYER_1
 10
-5.1453
 20
10.9832
 30
0.0
  0
VERTEX
  5
166
  8
LAYER_1
 10
-4.8937
 20
11.6019
 30
0.0
  0
VERTEX
  5
167
  8
LAYER_1
 10
-4.7252
 20
12.2574
 30
0.0
  0
VERTEX
  5
168
  8
LAYER_1
 10
-4.6307
 20
12.913
 30
0.0
  0
VERTEX
  5
169
  8
LAYER_1
 10
-4.6012
 20
13.5318
 30
0.0
  0
VERTEX
  5
16A
  8
LAYER_1
 10
-4.6211
 20
14.0629
 30
0.0
  0
VERTEX
  5
16B
  8
LAYER_1
 10
-4.6859
 20
14.6213
 30
0.0
  0
VERTEX
  5
16C
  8
LAYER_1
 10
-4.8029
 20
15.1851
 30
0.0
  0
VERTEX
  5
16D
  8
LAYER_1
 10
-4.9798
 20
15.7324
 30
0.0
  0
VERTEX
  5
16E
  8
LAYER_1
 10
-5.224
 20
16.2415
 30
0.0
  0
VERTEX
  5
16F
  8
LAYER_1
 10
-5.5429
 20
16.6904
 30
0.0
  0
VERTEX
  5
170
  8
LAYER_1
 10
-5.9441
 20
17.0572
 30
0.0
  0
VERTEX
  5
171
  8
LAYER_1
 10
-6.4351
 20
17.3202
 30
0.0
  0
VERTEX
  5
172
  8
LAYER_1
 10
-6.6121
 20
17.3781
 30
0.0
  0
VERTEX
  5
173
  8
LAYER_1
 10
-6.7931
 20
17.4195
 30
0.0
  0
VERTEX
  5
174
  8
LAYER_1
 10
-6.977
 20
17.4444
 30
0.0
  0
VERTEX
  5
175
  8
LAYER_1
 10
-7.163
 20
17.4527
 30
0.0
  0
VERTEX
  5
176
  8
LAYER_1
 10
-7.9189
 20
17.4653
 30
0.0
  0
VERTEX
  5
177
  8
LAYER_1
 10
-8.7118
 20
17.5106
 30
0.0
  0
VERTEX
  5
178
  8
LAYER_1
 10
-9.5223
 20
17.5998
 30
0.0
  0
VERTEX
  5
179
  8
LAYER_1
 10
-10.3306
 20
17.7444
 30
0.0
  0
VERTEX
  5
17A
  8
LAYER_1
 10
-11.1174
 20
17.9556
 30
0.0
  0
VERTEX
  5
17B
  8
LAYER_1
 10
-11.8629
 20
18.2446
 30
0.0
  0
VERTEX
  5
17C
  8
LAYER_1
 10
-12.5476
 20
18.6229
 30
0.0
  0
VERTEX
  5
17D
  8
LAYER_1
 10
-13.1519
 20
19.1017
 30
0.0
  0
VERTEX
  5
17E
  8
LAYER_1
 10
-13.5721
 20
19.572
 30
0.0
  0
VERTEX
  5
17F
  8
LAYER_1
 10
-13.9112
 20
20.0913
 30
0.0
  0
VERTEX
  5
180
  8
LAYER_1
 10
-14.1768
 20
20.6503
 30
0.0
  0
VERTEX
  5
181
  8
LAYER_1
 10
-14.3768
 20
21.2397
 30
0.0
  0
VERTEX
  5
182
  8
LAYER_1
 10
-14.5188
 20
21.8504
 30
0.0
  0
VERTEX
  5
183
  8
LAYER_1
 10
-14.6106
 20
22.473
 30
0.0
  0
VERTEX
  5
184
  8
LAYER_1
 10
-14.6601
 20
23.0985
 30
0.0
  0
VERTEX
  5
185
  8
LAYER_1
 10
-14.6748
 20
23.7175
 30
0.0
  0
VERTEX
  5
186
  8
LAYER_1
 10
-14.6748
 20
25.1893
 30
0.0
  0
VERTEX
  5
187
  8
LAYER_1
 10
-10.7256
 20
25.1893
 30
0.0
  0
VERTEX
  5
188
  8
LAYER_1
 10
-10.7256
 20
23.7175
 30
0.0
  0
VERTEX
  5
189
  8
LAYER_1
 10
-10.6849
 20
23.1098
 30
0.0
  0
VERTEX
  5
18A
  8
LAYER_1
 10
-10.5632
 20
22.5557
 30
0.0
  0
VERTEX
  5
18B
  8
LAYER_1
 10
-10.3614
 20
22.0591
 30
0.0
  0
VERTEX
  5
18C
  8
LAYER_1
 10
-10.0803
 20
21.6239
 30
0.0
  0
VERTEX
  5
18D
  8
LAYER_1
 10
-9.7207
 20
21.2539
 30
0.0
  0
VERTEX
  5
18E
  8
LAYER_1
 10
-9.2833
 20
20.9531
 30
0.0
  0
VERTEX
  5
18F
  8
LAYER_1
 10
-8.769
 20
20.7252
 30
0.0
  0
VERTEX
  5
190
  8
LAYER_1
 10
-8.1786
 20
20.5743
 30
0.0
  0
VERTEX
  5
191
  8
LAYER_1
 10
-7.163
 20
20.4931
 30
0.0
  0
VERTEX
  5
192
  8
LAYER_1
 10
-5.1758
 20
20.4931
 30
0.0
  0
VERTEX
  5
193
  8
LAYER_1
 10
-4.6416
 20
20.5398
 30
0.0
  0
VERTEX
  5
194
  8
LAYER_1
 10
-4.2381
 20
20.6491
 30
0.0
  0
VERTEX
  5
195
  8
LAYER_1
 10
-3.8797
 20
20.815
 30
0.0
  0
VERTEX
  5
196
  8
LAYER_1
 10
-3.5639
 20
21.0317
 30
0.0
  0
VERTEX
  5
197
  8
LAYER_1
 10
-3.2879
 20
21.2932
 30
0.0
  0
VERTEX
  5
198
  8
LAYER_1
 10
-3.0491
 20
21.5936
 30
0.0
  0
VERTEX
  5
199
  8
LAYER_1
 10
-2.8449
 20
21.927
 30
0.0
  0
VERTEX
  5
19A
  8
LAYER_1
 10
-2.6726
 20
22.2874
 30
0.0
  0
VERTEX
  5
19B
  8
LAYER_1
 10
-2.5296
 20
22.6689
 30
0.0
  0
VERTEX
  5
19C
  8
LAYER_1
 10
-2.3588
 20
23.2745
 30
0.0
  0
VERTEX
  5
19D
  8
LAYER_1
 10
-2.2269
 20
23.9234
 30
0.0
  0
VERTEX
  5
19E
  8
LAYER_1
 10
-2.129
 20
24.6025
 30
0.0
  0
VERTEX
  5
19F
  8
LAYER_1
 10
-2.0601
 20
25.2981
 30
0.0
  0
VERTEX
  5
1A0
  8
LAYER_1
 10
-2.0152
 20
25.9971
 30
0.0
  0
VERTEX
  5
1A1
  8
LAYER_1
 10
-1.9893
 20
26.6859
 30
0.0
  0
VERTEX
  5
1A2
  8
LAYER_1
 10
-1.9775
 20
27.3511
 30
0.0
  0
VERTEX
  5
1A3
  8
LAYER_1
 10
-1.9746
 20
27.9795
 30
0.0
  0
VERTEX
  5
1A4
  8
LAYER_1
 10
-1.9746
 20
29.4513
 30
0.0
  0
VERTEX
  5
1A5
  8
LAYER_1
 10
1.9746
 20
29.4513
 30
0.0
  0
VERTEX
  5
1A6
  8
LAYER_1
 10
1.9746
 20
27.9795
 30
0.0
  0
VERTEX
  5
1A7
  8
LAYER_1
 10
1.9775
 20
27.3511
 30
0.0
  0
VERTEX
  5
1A8
  8
LAYER_1
 10
1.9893
 20
26.6859
 30
0.0
  0
VERTEX
  5
1A9
  8
LAYER_1
 10
2.0152
 20
25.9971
 30
0.0
  0
VERTEX
  5
1AA
  8
LAYER_1
 10
2.0601
 20
25.2981
 30
0.0
  0
VERTEX
  5
1AB
  8
LAYER_1
 10
2.129
 20
24.6025
 30
0.0
  0
VERTEX
  5
1AC
  8
LAYER_1
 10
2.2269
 20
23.9234
 30
0.0
  0
VERTEX
  5
1AD
  8
LAYER_1
 10
2.3588
 20
23.2745
 30
0.0
  0
VERTEX
  5
1AE
  8
LAYER_1
 10
2.5296
 20
22.6689
 30
0.0
  0
VERTEX
  5
1AF
  8
LAYER_1
 10
2.6726
 20
22.2874
 30
0.0
  0
VERTEX
  5
1B0
  8
LAYER_1
 10
2.8449
 20
21.927
 30
0.0
  0
VERTEX
  5
1B1
  8
LAYER_1
 10
3.0491
 20
21.5936
 30
0.0
  0
VERTEX
  5
1B2
  8
LAYER_1
 10
3.2879
 20
21.2932
 30
0.0
  0
VERTEX
  5
1B3
  8
LAYER_1
 10
3.5639
 20
21.0317
 30
0.0
  0
VERTEX
  5
1B4
  8
LAYER_1
 10
3.8797
 20
20.815
 30
0.0
  0
VERTEX
  5
1B5
  8
LAYER_1
 10
4.2381
 20
20.6491
 30
0.0
  0
VERTEX
  5
1B6
  8
LAYER_1
 10
4.6416
 20
20.5398
 30
0.0
  0
VERTEX
  5
1B7
  8
LAYER_1
 10
5.1758
 20
20.4931
 30
0.0
  0
VERTEX
  5
1B8
  8
LAYER_1
 10
7.163
 20
20.4931
 30
0.0
  0
VERTEX
  5
1B9
  8
LAYER_1
 10
7.9196
 20
20.5396
 30
0.0
  0
VERTEX
  5
1BA
  8
LAYER_1
 10
8.6064
 20
20.6813
 30
0.0
  0
VERTEX
  5
1BB
  8
LAYER_1
 10
9.2139
 20
20.9216
 30
0.0
  0
VERTEX
  5
1BC
  8
LAYER_1
 10
9.7325
 20
21.2637
 30
0.0
  0
VERTEX
  5
1BD
  8
LAYER_1
 10
10.1526
 20
21.711
 30
0.0
  0
VERTEX
  5
1BE
  8
LAYER_1
 10
10.4645
 20
22.2669
 30
0.0
  0
VERTEX
  5
1BF
  8
LAYER_1
 10
10.6587
 20
22.9346
 30
0.0
  0
VERTEX
  5
1C0
  8
LAYER_1
 10
10.7256
 20
23.7175
 30
0.0
  0
VERTEX
  5
1C1
  8
LAYER_1
 10
10.7256
 20
25.1893
 30
0.0
  0
VERTEX
  5
1C2
  8
LAYER_1
 10
14.6748
 20
25.1893
 30
0.0
  0
VERTEX
  5
1C3
  8
LAYER_1
 10
14.6748
 20
23.7175
 30
0.0
  0
VERTEX
  5
1C4
  8
LAYER_1
 10
14.6601
 20
23.0985
 30
0.0
  0
VERTEX
  5
1C5
  8
LAYER_1
 10
14.6106
 20
22.473
 30
0.0
  0
VERTEX
  5
1C6
  8
LAYER_1
 10
14.5188
 20
21.8504
 30
0.0
  0
VERTEX
  5
1C7
  8
LAYER_1
 10
14.3768
 20
21.2397
 30
0.0
  0
VERTEX
  5
1C8
  8
LAYER_1
 10
14.1768
 20
20.6503
 30
0.0
  0
VERTEX
  5
1C9
  8
LAYER_1
 10
13.9112
 20
20.0913
 30
0.0
  0
VERTEX
  5
1CA
  8
LAYER_1
 10
13.5721
 20
19.572
 30
0.0
  0
VERTEX
  5
1CB
  8
LAYER_1
 10
13.1519
 20
19.1017
 30
0.0
  0
VERTEX
  5
1CC
  8
LAYER_1
 10
12.5476
 20
18.6229
 30
0.0
  0
VERTEX
  5
1CD
  8
LAYER_1
 10
11.8629
 20
18.2446
 30
0.0
  0
VERTEX
  5
1CE
  8
LAYER_1
 10
11.1174
 20
17.9556
 30
0.0
  0
VERTEX
  5
1CF
  8
LAYER_1
 10
10.3306
 20
17.7444
 30
0.0
  0
VERTEX
  5
1D0
  8
LAYER_1
 10
9.5223
 20
17.5998
 30
0.0
  0
VERTEX
  5
1D1
  8
LAYER_1
 10
8.7118
 20
17.5106
 30
0.0
  0
VERTEX
  5
1D2
  8
LAYER_1
 10
7.9189
 20
17.4653
 30
0.0
  0
VERTEX
  5
1D3
  8
LAYER_1
 10
7.163
 20
17.4527
 30
0.0
  0
VERTEX
  5
1D4
  8
LAYER_1
 10
6.4888
 20
17.3486
 30
0.0
  0
VERTEX
  5
1D5
  8
LAYER_1
 10
5.9338
 20
17.0606
 30
0.0
  0
VERTEX
  5
1D6
  8
LAYER_1
 10
5.4889
 20
16.6257
 30
0.0
  0
VERTEX
  5
1D7
  8
LAYER_1
 10
5.1453
 20
16.0804
 30
0.0
  0
VERTEX
  5
1D8
  8
LAYER_1
 10
4.8937
 20
15.4617
 30
0.0
  0
VERTEX
  5
1D9
  8
LAYER_1
 10
4.7252
 20
14.8062
 30
0.0
  0
VERTEX
  5
1DA
  8
LAYER_1
 10
4.6307
 20
14.1506
 30
0.0
  0
VERTEX
  5
1DB
  8
LAYER_1
 10
4.6012
 20
13.5318
 30
0.0
  0
VERTEX
  5
1DC
  8
LAYER_1
 10
4.6211
 20
13.0007
 30
0.0
  0
VERTEX
  5
1DD
  8
LAYER_1
 10
4.6859
 20
12.4423
 30
0.0
  0
VERTEX
  5
1DE
  8
LAYER_1
 10
4.8029
 20
11.8785
 30
0.0
  0
VERTEX
  5
1DF
  8
LAYER_1
 10
4.9798
 20
11.3312
 30
0.0
  0
VERTEX
  5
1E0
  8
LAYER_1
 10
5.224
 20
10.8221
 30
0.0
  0
VERTEX
  5
1E1
  8
LAYER_1
 10
5.5429
 20
10.3732
 30
0.0
  0
VERTEX
  5
1E2
  8
LAYER_1
 10
5.9441
 20
10.0064
 30
0.0
  0
VERTEX
  5
1E3
  8
LAYER_1
 10
6.4351
 20
9.7434
 30
0.0
  0
VERTEX
  5
1E4
  8
LAYER_1
 10
6.6121
 20
9.6855
 30
0.0
  0
VERTEX
  5
1E5
  8
LAYER_1
 10
6.7931
 20
9.6441
 30
0.0
  0
VERTEX
  5
1E6
  8
LAYER_1
 10
6.977
 20
9.6192
 30
0.0
  0
VERTEX
  5
1E7
  8
LAYER_1
 10
7.163
 20
9.6109
 30
0.0
  0
VERTEX
  5
1E8
  8
LAYER_1
 10
10.6776
 20
9.7804
 30
0.0
  0
VERTEX
  5
1E9
  8
LAYER_1
 10
13.8415
 20
10.3179
 30
0.0
  0
VERTEX
  5
1EA
  8
LAYER_1
 10
16.6184
 20
11.2672
 30
0.0
  0
VERTEX
  5
1EB
  8
LAYER_1
 10
18.972
 20
12.6719
 30
0.0
  0
VERTEX
  5
1EC
  8
LAYER_1
 10
20.8659
 20
14.5756
 30
0.0
  0
VERTEX
  5
1ED
  8
LAYER_1
 10
22.2637
 20
17.022
 30
0.0
  0
VERTEX
  5
1EE
  8
LAYER_1
 10
23.1291
 20
20.0548
 30
0.0
  0
VERTEX
  5
1EF
  8
LAYER_1
 10
23.4256
 20
23.7175
 30
0.0
  0
VERTEX
  5
1F0
  8
LAYER_1
 10
23.4256
 20
25.1893
 30
0.0
  0
VERTEX
  5
1F1
  8
LAYER_1
 10
27.3748
 20
25.1893
 30
0.0
  0
VERTEX
  5
1F2
  8
LAYER_1
 10
27.3748
 20
24.4795
 30
0.0
  0
VERTEX
  5
1F3
  8
LAYER_1
 10
27.3308
 20
22.7695
 30
0.0
  0
VERTEX
  5
1F4
  8
LAYER_1
 10
27.1857
 20
21.0549
 30
0.0
  0
VERTEX
  5
1F5
  8
LAYER_1
 10
26.9198
 20
19.3572
 30
0.0
  0
VERTEX
  5
1F6
  8
LAYER_1
 10
26.5135
 20
17.6978
 30
0.0
  0
VERTEX
  5
1F7
  8
LAYER_1
 10
25.9472
 20
16.098
 30
0.0
  0
VERTEX
  5
1F8
  8
LAYER_1
 10
25.201
 20
14.5792
 30
0.0
  0
VERTEX
  5
1F9
  8
LAYER_1
 10
24.2555
 20
13.1628
 30
0.0
  0
VERTEX
  5
1FA
  8
LAYER_1
 10
23.091
 20
11.8702
 30
0.0
  0
VERTEX
  5
1FB
  8
LAYER_1
 10
21.4648
 20
10.5671
 30
0.0
  0
VERTEX
  5
1FC
  8
LAYER_1
 10
19.6455
 20
9.5329
 30
0.0
  0
VERTEX
  5
1FD
  8
LAYER_1
 10
17.6775
 20
8.7383
 30
0.0
  0
VERTEX
  5
1FE
  8
LAYER_1
 10
15.6053
 20
8.1541
 30
0.0
  0
VERTEX
  5
1FF
  8
LAYER_1
 10
13.4733
 20
7.7507
 30
0.0
  0
VERTEX
  5
200
  8
LAYER_1
 10
11.3259
 20
7.4989
 30
0.0
  0
VERTEX
  5
201
  8
LAYER_1
 10
9.2077
 20
7.3694
 30
0.0
  0
VERTEX
  5
202
  8
LAYER_1
 10
7.163
 20
7.3327
 30
0.0
  0
VERTEX
  5
203
  8
LAYER_1
 10
6.4888
 20
7.2286
 30
0.0
  0
VERTEX
  5
204
  8
LAYER_1
 10
5.9338
 20
6.9406
 30
0.0
  0
VERTEX
  5
205
  8
LAYER_1
 10
5.4889
 20
6.5057
 30
0.0
  0
VERTEX
  5
206
  8
LAYER_1
 10
5.1453
 20
5.9605
 30
0.0
  0
VERTEX
  5
207
  8
LAYER_1
 10
4.8937
 20
5.3417
 30
0.0
  0
VERTEX
  5
208
  8
LAYER_1
 10
4.7252
 20
4.6862
 30
0.0
  0
VERTEX
  5
209
  8
LAYER_1
 10
4.6307
 20
4.0307
 30
0.0
  0
VERTEX
  5
20A
  8
LAYER_1
 10
4.6012
 20
3.4119
 30
0.0
  0
VERTEX
  5
20B
  8
LAYER_1
 10
4.6211
 20
2.8808
 30
0.0
  0
VERTEX
  5
20C
  8
LAYER_1
 10
4.6858
 20
2.3224
 30
0.0
  0
VERTEX
  5
20D
  8
LAYER_1
 10
4.8028
 20
1.7586
 30
0.0
  0
VERTEX
  5
20E
  8
LAYER_1
 10
4.9797
 20
1.2112
 30
0.0
  0
VERTEX
  5
20F
  8
LAYER_1
 10
5.2238
 20
0.7021
 30
0.0
  0
VERTEX
  5
210
  8
LAYER_1
 10
5.5428
 20
0.2532
 30
0.0
  0
VERTEX
  5
211
  8
LAYER_1
 10
5.9441
 20
-0.1137
 30
0.0
  0
VERTEX
  5
212
  8
LAYER_1
 10
6.4351
 20
-0.3766
 30
0.0
  0
VERTEX
  5
213
  8
LAYER_1
 10
6.6121
 20
-0.4345
 30
0.0
  0
VERTEX
  5
214
  8
LAYER_1
 10
6.793
 20
-0.4759
 30
0.0
  0
VERTEX
  5
215
  8
LAYER_1
 10
6.9768
 20
-0.5008
 30
0.0
  0
VERTEX
  5
216
  8
LAYER_1
 10
7.1628
 20
-0.5091
 30
0.0
  0
VERTEX
  5
217
  8
LAYER_1
 10
13.4356
 20
-0.2162
 30
0.0
  0
VERTEX
  5
218
  8
LAYER_1
 10
19.0768
 20
0.7181
 30
0.0
  0
VERTEX
  5
219
  8
LAYER_1
 10
24.0232
 20
2.3776
 30
0.0
  0
VERTEX
  5
21A
  8
LAYER_1
 10
28.2117
 20
4.8458
 30
0.0
  0
VERTEX
  5
21B
  8
LAYER_1
 10
31.5793
 20
8.2065
 30
0.0
  0
VERTEX
  5
21C
  8
LAYER_1
 10
34.0628
 20
12.5432
 30
0.0
  0
VERTEX
  5
21D
  8
LAYER_1
 10
35.5992
 20
17.9397
 30
0.0
  0
VERTEX
  5
21E
  8
LAYER_1
 10
36.1254
 20
24.4795
 30
0.0
  0
VERTEX
  5
21F
  8
LAYER_1
 10
36.1254
 20
25.1893
 30
0.0
  0
VERTEX
  5
220
  8
LAYER_1
 10
40.0746
 20
25.1893
 30
0.0
  0
VERTEX
  5
221
  8
LAYER_1
 10
40.0746
 20
24.4795
 30
0.0
  0
VERTEX
  5
222
  8
LAYER_1
 10
40.0012
 20
21.6795
 30
0.0
  0
VERTEX
  5
223
  8
LAYER_1
 10
39.76
 20
18.8768
 30
0.0
  0
VERTEX
  5
224
  8
LAYER_1
 10
39.3196
 20
16.105
 30
0.0
  0
VERTEX
  5
225
  8
LAYER_1
 10
38.6486
 20
13.3976
 30
0.0
  0
VERTEX
  5
226
  8
LAYER_1
 10
37.7155
 20
10.7882
 30
0.0
  0
VERTEX
  5
227
  8
LAYER_1
 10
36.4888
 20
8.3103
 30
0.0
  0
VERTEX
  5
228
  8
LAYER_1
 10
34.9372
 20
5.9976
 30
0.0
  0
VERTEX
  5
229
  8
LAYER_1
 10
33.0291
 20
3.8834
 30
0.0
  0
VERTEX
  5
22A
  8
LAYER_1
 10
30.3798
 20
1.7548
 30
0.0
  0
VERTEX
  5
22B
  8
LAYER_1
 10
27.4238
 20
0.0636
 30
0.0
  0
VERTEX
  5
22C
  8
LAYER_1
 10
24.2309
 20
-1.2376
 30
0.0
  0
VERTEX
  5
22D
  8
LAYER_1
 10
20.8704
 20
-2.1961
 30
0.0
  0
VERTEX
  5
22E
  8
LAYER_1
 10
17.4119
 20
-2.8592
 30
0.0
  0
VERTEX
  5
22F
  8
LAYER_1
 10
13.925
 20
-3.2743
 30
0.0
  0
VERTEX
  5
230
  8
LAYER_1
 10
10.4792
 20
-3.4886
 30
0.0
  0
VERTEX
  5
231
  8
LAYER_1
 10
7.144
 20
-3.5495
 30
0.0
  0
VERTEX
  5
232
  8
LAYER_1
 10
6.4712
 20
-3.6539
 30
0.0
  0
VERTEX
  5
233
  8
LAYER_1
 10
5.9182
 20
-3.9425
 30
0.0
  0
VERTEX
  5
234
  8
LAYER_1
 10
5.4757
 20
-4.3784
 30
0.0
  0
VERTEX
  5
235
  8
LAYER_1
 10
5.1344
 20
-4.9244
 30
0.0
  0
VERTEX
  5
236
  8
LAYER_1
 10
4.8852
 20
-5.5436
 30
0.0
  0
VERTEX
  5
237
  8
LAYER_1
 10
4.7186
 20
-6.199
 30
0.0
  0
VERTEX
  5
238
  8
LAYER_1
 10
4.6255
 20
-6.8536
 30
0.0
  0
VERTEX
  5
239
  8
LAYER_1
 10
4.5965
 20
-7.4705
 30
0.0
  0
VERTEX
  5
23A
  8
LAYER_1
 10
4.6162
 20
-8.0016
 30
0.0
  0
VERTEX
  5
23B
  8
LAYER_1
 10
4.6806
 20
-8.5608
 30
0.0
  0
VERTEX
  5
23C
  8
LAYER_1
 10
4.7971
 20
-9.1259
 30
0.0
  0
VERTEX
  5
23D
  8
LAYER_1
 10
4.9735
 20
-9.6747
 30
0.0
  0
VERTEX
  5
23E
  8
LAYER_1
 10
5.2174
 20
-10.1851
 30
0.0
  0
VERTEX
  5
23F
  8
LAYER_1
 10
5.5365
 20
-10.6347
 30
0.0
  0
VERTEX
  5
240
  8
LAYER_1
 10
5.9383
 20
-11.0014
 30
0.0
  0
VERTEX
  5
241
  8
LAYER_1
 10
6.4306
 20
-11.263
 30
0.0
  0
VERTEX
  5
242
  8
LAYER_1
 10
6.6043
 20
-11.319
 30
0.0
  0
VERTEX
  5
243
  8
LAYER_1
 10
6.7817
 20
-11.3591
 30
0.0
  0
VERTEX
  5
244
  8
LAYER_1
 10
6.9619
 20
-11.3832
 30
0.0
  0
VERTEX
  5
245
  8
LAYER_1
 10
7.1442
 20
-11.3913
 30
0.0
  0
VERTEX
  5
246
  8
LAYER_1
 10
16.1751
 20
-10.9751
 30
0.0
  0
VERTEX
  5
247
  8
LAYER_1
 10
24.2951
 20
-9.6442
 30
0.0
  0
VERTEX
  5
248
  8
LAYER_1
 10
31.4139
 20
-7.2747
 30
0.0
  0
VERTEX
  5
249
  8
LAYER_1
 10
37.4411
 20
-3.743
 30
0.0
  0
VERTEX
  5
24A
  8
LAYER_1
 10
42.2862
 20
1.0745
 30
0.0
  0
VERTEX
  5
24B
  8
LAYER_1
 10
45.859
 20
7.3017
 30
0.0
  0
VERTEX
  5
24C
  8
LAYER_1
 10
48.0689
 20
15.0621
 30
0.0
  0
VERTEX
  5
24D
  8
LAYER_1
 10
48.8256
 20
24.4795
 30
0.0
  0
VERTEX
  5
24E
  8
LAYER_1
 10
48.8256
 20
25.1893
 30
0.0
  0
SEQEND
  5
274
  8
LAYER_1
  0
POLYLINE
  5
71
  8
LAYER_1
 66
     1
 10
0.0
 20
0.0
 30
0.0
 70
     1
  0
VERTEX
  5
24F
  8
LAYER_1
 10
-4.064
 20
-53.6659
 30
0.0
  0
VERTEX
  5
250
  8
LAYER_1
 10
4.064
 20
-53.6659
 30
0.0
  0
VERTEX
  5
251
  8
LAYER_1
 10
4.2681
 20
-53.6866
 30
0.0
  0
VERTEX
  5
252
  8
LAYER_1
 10
4.4585
 20
-53.7461
 30
0.0
  0
VERTEX
  5
253
  8
LAYER_1
 10
4.631
 20
-53.84
 30
0.0
  0
VERTEX
  5
254
  8
LAYER_1
 10
4.7815
 20
-53.9644
 30
0.0
  0
VERTEX
  5
255
  8
LAYER_1
 10
4.9058
 20
-54.1149
 30
0.0
  0
VERTEX
  5
256
  8
LAYER_1
 10
4.9998
 20
-54.2874
 30
0.0
  0
VERTEX
  5
257
  8
LAYER_1
 10
5.0593
 20
-54.4779
 30
0.0
  0
VERTEX
  5
258
  8
LAYER_1
 10
5.08
 20
-54.682
 30
0.0
  0
VERTEX
  5
259
  8
LAYER_1
 10
5.08
 20
-60.2698
 30
0.0
  0
VERTEX
  5
25A
  8
LAYER_1
 10
5.0593
 20
-60.4739
 30
0.0
  0
VERTEX
  5
25B
  8
LAYER_1
 10
4.9998
 20
-60.6644
 30
0.0
  0
VERTEX
  5
25C
  8
LAYER_1
 10
4.9058
 20
-60.8369
 30
0.0
  0
VERTEX
  5
25D
  8
LAYER_1
 10
4.7815
 20
-60.9874
 30
0.0
  0
VERTEX
  5
25E
  8
LAYER_1
 10
4.631
 20
-61.1118
 30
0.0
  0
VERTEX
  5
25F
  8
LAYER_1
 10
4.4585
 20
-61.2057
 30
0.0
  0
VERTEX
  5
260
  8
LAYER_1
 10
4.2681
 20
-61.2652
 30
0.0
  0
VERTEX
  5
261
  8
LAYER_1
 10
4.064
 20
-61.2859
 30
0.0
  0
VERTEX
  5
262
  8
LAYER_1
 10
-4.064
 20
-61.2859
 30
0.0
  0
VERTEX
  5
263
  8
LAYER_1
 10
-4.2681
 20
-61.2652
 30
0.0
  0
VERTEX
  5
264
  8
LAYER_1
 10
-4.4585
 20
-61.2057
 30
0.0
  0
VERTEX
  5
265
  8
LAYER_1
 10
-4.631
 20
-61.1118
 30
0.0
  0
VERTEX
  5
266
  8
LAYER_1
 10
-4.7815
 20
-60.9874
 30
0.0
  0
VERTEX
  5
267
  8
LAYER_1
 10
-4.9058
 20
-60.8369
 30
0.0
  0
VERTEX
  5
268
  8
LAYER_1
 10
-4.9998
 20
-60.6644
 30
0.0
  0
VERTEX
  5
269
  8
LAYER_1
 10
-5.0593
 20
-60.4739
 30
0.0
  0
VERTEX
  5
26A
  8
LAYER_1
 10
-5.08
 20
-60.2698
 30
0.0
  0
VERTEX
  5
26B
  8
LAYER_1
 10
-5.08
 20
-54.682
 30
0.0
  0
VERTEX
  5
26C
  8
LAYER_1
 10
-5.0593
 20
-54.4779
 30
0.0
  0
VERTEX
  5
26D
  8
LAYER_1
 10
-4.9998
 20
-54.2874
 30
0.0
  0
VERTEX
  5
26E
  8
LAYER_1
 10
-4.9058
 20
-54.1149
 30
0.0
  0
VERTEX
  5
26F
  8
LAYER_1
 10
-4.7815
 20
-53.9644
 30
0.0
  0
VERTEX
  5
270
  8
LAYER_1
 10
-4.631
 20
-53.84
 30
0.0
  0
VERTEX
  5
271
  8
LAYER_1
 10
-4.4585
 20
-53.7461
 30
0.0
  0
VERTEX
  5
272
  8
LAYER_1
 10
-4.2681
 20
-53.6866
 30
0.0
  0
VERTEX
  5
273
  8
LAYER_1
 10
-4.064
 20
-53.6659
 30
0.0
  0
SEQEND
  5
275
  8
LAYER_1
  0
ENDSEC
  0
EOF
