  0
SECTION
  2
HEADER
  9
$ACADVER
  1
AC1014
  9
$HANDSEED
  5
FFFF
  9
$MEASUREMENT
 70
     1
  0
ENDSEC
  0
SECTION
  2
TABLES
  0
TABLE
  2
VPORT
  5
8
330
0
100
AcDbSymbolTable
 70
     4
  0
VPORT
  5
2E
330
8
100
AcDbSymbolTableRecord
100
AcDbViewportTableRecord
  2
*ACTIVE
 70
     0
 10
0.0
 20
0.0
 11
1.0
 21
1.0
 12
210.0
 22
148.5
 13
0.0
 23
0.0
 14
10.0
 24
10.0
 15
10.0
 25
10.0
 16
0.0
 26
0.0
 36
1.0
 17
0.0
 27
0.0
 37
0.0
 40
341.0
 41
1.24
 42
50.0
 43
0.0
 44
0.0
 50
0.0
 51
0.0
 71
     0
 72
   100
 73
     1
 74
     3
 75
     0
 76
     0
 77
     0
 78
     0
  0
ENDTAB
  0
TABLE
  2
LTYPE
  5
5
330
0
100
AcDbSymbolTable
 70
     1
  0
LTYPE
  5
14
330
5
100
AcDbSymbolTableRecord
100
AcDbLinetypeTableRecord
  2
BYBLOCK
 70
     0
  3

 72
    65
 73
     0
 40
0.0
  0
LTYPE
  5
15
330
5
100
AcDbSymbolTableRecord
100
AcDbLinetypeTableRecord
  2
BYLAYER
 70
     0
  3

 72
    65
 73
     0
 40
0.0
  0
LTYPE
  5
16
330
5
100
AcDbSymbolTableRecord
100
AcDbLinetypeTableRecord
  2
CONTINUOUS
 70
     0
  3
Solid line
 72
    65
 73
     0
 40
0.0
  0
ENDTAB
  0
TABLE
  2
LAYER
  5
2
100
AcDbSymbolTable
 70
1
  0
LAYER
  5
50
100
AcDbSymbolTableRecord
100
AcDbLayerTableRecord
  2
0
 70
0
  6
CONTINUOUS
  0
ENDTAB
  0
TABLE
  2
STYLE
  5
3
330
0
100
AcDbSymbolTable
 70
     1
  0
STYLE
  5
11
330
3
100
AcDbSymbolTableRecord
100
AcDbTextStyleTableRecord
  2
STANDARD
 70
     0
 40
0.0
 41
1.0
 50
0.0
 71
     0
 42
2.5
  3
txt
  4

  0
ENDTAB
  0
TABLE
  2
VIEW
  5
6
330
0
100
AcDbSymbolTable
 70
     0
  0
ENDTAB
  0
TABLE
  2
UCS
  5
7
330
0
100
AcDbSymbolTable
 70
     0
  0
ENDTAB
  0
TABLE
  2
APPID
  5
9
330
0
100
AcDbSymbolTable
 70
     2
  0
APPID
  5
12
330
9
100
AcDbSymbolTableRecord
100
AcDbRegAppTableRecord
  2
ACAD
 70
     0
  0
ENDTAB
  0
TABLE
  2
DIMSTYLE
  5
A
330
0
100
AcDbSymbolTable
 70
     1
  0
DIMSTYLE
105
27
330
A
100
AcDbSymbolTableRecord
100
AcDbDimStyleTableRecord
  2
ISO-25
 70
     0
  3

  4

  5

  6

  7

 40
1.0
 41
2.5
 42
0.625
 43
3.75
 44
1.25
 45
0.0
 46
0.0
 47
0.0
 48
0.0
140
2.5
141
2.5
142
0.0
143
0.03937007874016
144
1.0
145
0.0
146
1.0
147
0.625
 71
     0
 72
     0
 73
     0
 74
     0
 75
     0
 76
     0
 77
     1
 78
     8
170
     0
171
     3
172
     1
173
     0
174
     0
175
     0
176
     0
177
     0
178
     0
270
     2
271
     2
272
     2
273
     2
274
     3
340
11
275
     0
280
     0
281
     0
282
     0
283
     0
284
     8
285
     0
286
     0
287
     3
288
     0
  0
ENDTAB
  0
TABLE
  2
BLOCK_RECORD
  5
1
330
0
100
AcDbSymbolTable
 70
     1
  0
BLOCK_RECORD
  5
1F
330
1
100
AcDbSymbolTableRecord
100
AcDbBlockTableRecord
  2
*MODEL_SPACE
  0
BLOCK_RECORD
  5
1B
330
1
100
AcDbSymbolTableRecord
100
AcDbBlockTableRecord
  2
*PAPER_SPACE
  0
ENDTAB
  0
ENDSEC
  0
SECTION
  2
BLOCKS
  0
BLOCK
  5
20
330
1F
100
AcDbEntity
  8
0
100
AcDbBlockBegin
  2
*MODEL_SPACE
 70
     0
 10
0.0
 20
0.0
 30
0.0
  3
*MODEL_SPACE
  1

  0
ENDBLK
  5
21
330
1F
100
AcDbEntity
  8
0
100
AcDbBlockEnd
  0
BLOCK
  5
1C
330
1B
100
AcDbEntity
 67
     1
  8
0
100
AcDbBlockBegin
  2
*PAPER_SPACE
  1

  0
ENDBLK
  5
1D
330
1B
100
AcDbEntity
 67
     1
  8
0
100
AcDbBlockEnd
  0
ENDSEC
  0
SECTION
  2
ENTITIES
  0
SPLINE
  5
100
100
AcDbEntity
  8
0
 62
7
100
AcDbSpline
 70
8
 71
3
 72
8
 73
4
 74
0
 40
0
 40
0
 40
0
 40
0
 40
1
 40
1
 40
1
 40
1
 10
90.482124
 20
100.458482
 30
0.0
 10
90.267610
 20
100.458482
 30
0.0
 10
90.093713
 20
100.284585
 30
0.0
 10
90.093713
 20
100.070105
 30
0.0
  0
SPLINE
  5
101
100
AcDbEntity
  8
0
 62
7
100
AcDbSpline
 70
8
 71
3
 72
8
 73
4
 74
0
 40
0
 40
0
 40
0
 40
0
 40
1
 40
1
 40
1
 40
1
 10
90.093713
 20
82.904300
 30
0.0
 10
90.093713
 20
82.692112
 30
0.0
 10
89.921720
 20
82.520083
 30
0.0
 10
89.709530
 20
82.520083
 30
0.0
  0
LWPOLYLINE
  5
102
100
AcDbEntity
  8
0
 62
7
100
AcDbPolyline
 90
3
 70
0
 10
90.093713
 20
100.070105
 30
0.0
 10
90.093713
 20
92.638688
 30
0.0
 10
90.093713
 20
82.904300
 30
0.0
  0
SPLINE
  5
103
100
AcDbEntity
  8
0
 62
7
100
AcDbSpline
 70
8
 71
3
 72
8
 73
4
 74
0
 40
0
 40
0
 40
0
 40
0
 40
1
 40
1
 40
1
 40
1
 10
88.005150
 20
82.522094
 30
0.0
 10
87.814224
 20
82.522094
 30
0.0
 10
87.659438
 20
82.367272
 30
0.0
 10
87.659438
 20
82.176381
 30
0.0
  0
SPLINE
  5
104
100
AcDbEntity
  8
0
 62
7
100
AcDbSpline
 70
8
 71
3
 72
8
 73
4
 74
0
 40
0
 40
0
 40
0
 40
0
 40
1
 40
1
 40
1
 40
1
 10
87.659438
 20
82.176381
 30
0.0
 10
87.659438
 20
81.396488
 30
0.0
 10
87.557081
 20
81.520212
 30
0.0
 10
87.770467
 20
80.770819
 30
0.0
  0
SPLINE
  5
105
100
AcDbEntity
  8
0
 62
7
100
AcDbSpline
 70
8
 71
3
 72
8
 73
4
 74
0
 40
0
 40
0
 40
0
 40
0
 40
1
 40
1
 40
1
 40
1
 10
87.770467
 20
80.770819
 30
0.0
 10
88.082509
 20
79.675113
 30
0.0
 10
87.911996
 20
79.731880
 30
0.0
 10
87.696106
 20
78.684337
 30
0.0
  0
SPLINE
  5
106
100
AcDbEntity
  8
0
 62
7
100
AcDbSpline
 70
8
 71
3
 72
8
 73
4
 74
0
 40
0
 40
0
 40
0
 40
0
 40
1
 40
1
 40
1
 40
1
 10
87.696106
 20
78.684337
 30
0.0
 10
87.514486
 20
77.802829
 30
0.0
 10
87.679596
 20
77.833892
 30
0.0
 10
87.679596
 20
76.933591
 30
0.0
  0
SPLINE
  5
107
100
AcDbEntity
  8
0
 62
7
100
AcDbSpline
 70
8
 71
3
 72
8
 73
4
 74
0
 40
0
 40
0
 40
0
 40
0
 40
1
 40
1
 40
1
 40
1
 10
87.679596
 20
76.933591
 30
0.0
 10
87.679596
 20
75.710741
 30
0.0
 10
89.481152
 20
75.463258
 30
0.0
 10
89.481152
 20
74.049411
 30
0.0
  0
LWPOLYLINE
  5
108
100
AcDbEntity
  8
0
 62
7
100
AcDbPolyline
 90
2
 70
0
 10
89.709530
 20
82.520083
 30
0.0
 10
88.005150
 20
82.522094
 30
0.0
  0
SPLINE
  5
109
100
AcDbEntity
  8
0
 62
7
100
AcDbSpline
 70
8
 71
3
 72
8
 73
4
 74
0
 40
0
 40
0
 40
0
 40
0
 40
1
 40
1
 40
1
 40
1
 10
89.481152
 20
73.340001
 30
0.0
 10
89.481152
 20
47.220579
 30
0.0
 10
74.341040
 20
38.688132
 30
0.0
 10
49.021786
 20
38.688132
 30
0.0
  0
SPLINE
  5
10a
100
AcDbEntity
  8
0
 62
7
100
AcDbSpline
 70
8
 71
3
 72
8
 73
4
 74
0
 40
0
 40
0
 40
0
 40
0
 40
1
 40
1
 40
1
 40
1
 10
49.021786
 20
38.688132
 30
0.0
 10
47.226331
 20
38.688132
 30
0.0
 10
47.226331
 20
44.126221
 30
0.0
 10
49.021574
 20
44.126221
 30
0.0
  0
SPLINE
  5
10b
100
AcDbEntity
  8
0
 62
7
100
AcDbSpline
 70
8
 71
3
 72
8
 73
4
 74
0
 40
0
 40
0
 40
0
 40
0
 40
1
 40
1
 40
1
 40
1
 10
49.021574
 20
44.126221
 30
0.0
 10
70.367361
 20
44.126221
 30
0.0
 10
83.134335
 20
51.319676
 30
0.0
 10
83.134335
 20
73.340001
 30
0.0
  0
LWPOLYLINE
  5
10c
100
AcDbEntity
  8
0
 62
7
100
AcDbPolyline
 90
2
 70
0
 10
89.481152
 20
74.049411
 30
0.0
 10
89.481152
 20
73.340001
 30
0.0
  0
SPLINE
  5
10d
100
AcDbEntity
  8
0
 62
7
100
AcDbSpline
 70
8
 71
3
 72
8
 73
4
 74
0
 40
0
 40
0
 40
0
 40
0
 40
1
 40
1
 40
1
 40
1
 10
83.134335
 20
74.049411
 30
0.0
 10
83.134335
 20
75.463258
 30
0.0
 10
84.935854
 20
75.710741
 30
0.0
 10
84.935854
 20
76.933591
 30
0.0
  0
SPLINE
  5
10e
100
AcDbEntity
  8
0
 62
7
100
AcDbSpline
 70
8
 71
3
 72
8
 73
4
 74
0
 40
0
 40
0
 40
0
 40
0
 40
1
 40
1
 40
1
 40
1
 10
84.935854
 20
76.933591
 30
0.0
 10
84.935854
 20
77.833892
 30
0.0
 10
85.100970
 20
77.802829
 30
0.0
 10
84.919397
 20
78.684337
 30
0.0
  0
SPLINE
  5
10f
100
AcDbEntity
  8
0
 62
7
100
AcDbSpline
 70
8
 71
3
 72
8
 73
4
 74
0
 40
0
 40
0
 40
0
 40
0
 40
1
 40
1
 40
1
 40
1
 10
84.919397
 20
78.684337
 30
0.0
 10
84.703507
 20
79.731880
 30
0.0
 10
84.532994
 20
79.675113
 30
0.0
 10
84.845036
 20
80.770819
 30
0.0
  0
SPLINE
  5
110
100
AcDbEntity
  8
0
 62
7
100
AcDbSpline
 70
8
 71
3
 72
8
 73
4
 74
0
 40
0
 40
0
 40
0
 40
0
 40
1
 40
1
 40
1
 40
1
 10
84.845036
 20
80.770819
 30
0.0
 10
85.058425
 20
81.520212
 30
0.0
 10
84.956068
 20
81.396488
 30
0.0
 10
84.956068
 20
82.176381
 30
0.0
  0
SPLINE
  5
111
100
AcDbEntity
  8
0
 62
7
100
AcDbSpline
 70
8
 71
3
 72
8
 73
4
 74
0
 40
0
 40
0
 40
0
 40
0
 40
1
 40
1
 40
1
 40
1
 10
84.956068
 20
82.176381
 30
0.0
 10
84.956068
 20
82.367272
 30
0.0
 10
84.801244
 20
82.522094
 30
0.0
 10
84.610353
 20
82.522094
 30
0.0
  0
LWPOLYLINE
  5
112
100
AcDbEntity
  8
0
 62
7
100
AcDbPolyline
 90
2
 70
0
 10
83.134335
 20
73.340001
 30
0.0
 10
83.134335
 20
74.049411
 30
0.0
  0
SPLINE
  5
113
100
AcDbEntity
  8
0
 62
7
100
AcDbSpline
 70
8
 71
3
 72
8
 73
4
 74
0
 40
0
 40
0
 40
0
 40
0
 40
1
 40
1
 40
1
 40
1
 10
82.905973
 20
82.520083
 30
0.0
 10
82.693785
 20
82.520083
 30
0.0
 10
82.521756
 20
82.692112
 30
0.0
 10
82.521756
 20
82.904300
 30
0.0
  0
LWPOLYLINE
  5
114
100
AcDbEntity
  8
0
 62
7
100
AcDbPolyline
 90
2
 70
0
 10
84.610353
 20
82.522094
 30
0.0
 10
82.905973
 20
82.520083
 30
0.0
  0
SPLINE
  5
115
100
AcDbEntity
  8
0
 62
7
100
AcDbSpline
 70
8
 71
3
 72
8
 73
4
 74
0
 40
0
 40
0
 40
0
 40
0
 40
1
 40
1
 40
1
 40
1
 10
82.521756
 20
99.308513
 30
0.0
 10
82.521756
 20
99.522993
 30
0.0
 10
82.347858
 20
99.696890
 30
0.0
 10
82.133379
 20
99.696890
 30
0.0
  0
SPLINE
  5
116
100
AcDbEntity
  8
0
 62
7
100
AcDbSpline
 70
8
 71
3
 72
8
 73
4
 74
0
 40
0
 40
0
 40
0
 40
0
 40
1
 40
1
 40
1
 40
1
 10
82.133379
 20
99.696890
 30
0.0
 10
81.743873
 20
99.696890
 30
0.0
 10
81.710096
 20
99.972262
 30
0.0
 10
82.073014
 20
100.332784
 30
0.0
  0
SPLINE
  5
117
100
AcDbEntity
  8
0
 62
7
100
AcDbSpline
 70
8
 71
3
 72
8
 73
4
 74
0
 40
0
 40
0
 40
0
 40
0
 40
1
 40
1
 40
1
 40
1
 10
82.073014
 20
100.332784
 30
0.0
 10
83.366631
 20
101.618289
 30
0.0
 10
83.170908
 20
104.571894
 30
0.0
 10
81.605975
 20
105.625924
 30
0.0
  0
SPLINE
  5
118
100
AcDbEntity
  8
0
 62
7
100
AcDbSpline
 70
8
 71
3
 72
8
 73
4
 74
0
 40
0
 40
0
 40
0
 40
0
 40
1
 40
1
 40
1
 40
1
 10
81.605975
 20
105.625924
 30
0.0
 10
80.496272
 20
106.373343
 30
0.0
 10
79.820429
 20
109.259497
 30
0.0
 10
79.454229
 20
109.515759
 30
0.0
  0
SPLINE
  5
119
100
AcDbEntity
  8
0
 62
7
100
AcDbSpline
 70
8
 71
3
 72
8
 73
4
 74
0
 40
0
 40
0
 40
0
 40
0
 40
1
 40
1
 40
1
 40
1
 10
79.454229
 20
109.515759
 30
0.0
 10
79.087996
 20
109.772021
 30
0.0
 10
79.810414
 20
108.470825
 30
0.0
 10
77.951812
 20
105.805850
 30
0.0
  0
SPLINE
  5
11a
100
AcDbEntity
  8
0
 62
7
100
AcDbSpline
 70
8
 71
3
 72
8
 73
4
 74
0
 40
0
 40
0
 40
0
 40
0
 40
1
 40
1
 40
1
 40
1
 10
77.951812
 20
105.805850
 30
0.0
 10
76.525271
 20
103.760445
 30
0.0
 10
76.895595
 20
101.158513
 30
0.0
 10
78.097044
 20
100.343256
 30
0.0
  0
SPLINE
  5
11b
100
AcDbEntity
  8
0
 62
7
100
AcDbSpline
 70
8
 71
3
 72
8
 73
4
 74
0
 40
0
 40
0
 40
0
 40
0
 40
1
 40
1
 40
1
 40
1
 10
78.097044
 20
100.343256
 30
0.0
 10
78.425056
 20
100.129975
 30
0.0
 10
78.279932
 20
99.696890
 30
0.0
 10
77.788704
 20
99.696890
 30
0.0
  0
SPLINE
  5
11c
100
AcDbEntity
  8
0
 62
7
100
AcDbSpline
 70
8
 71
3
 72
8
 73
4
 74
0
 40
0
 40
0
 40
0
 40
0
 40
1
 40
1
 40
1
 40
1
 10
77.788704
 20
99.696890
 30
0.0
 10
77.574225
 20
99.696890
 30
0.0
 10
77.400327
 20
99.522993
 30
0.0
 10
77.400327
 20
99.308513
 30
0.0
  0
LWPOLYLINE
  5
11d
100
AcDbEntity
  8
0
 62
7
100
AcDbPolyline
 90
3
 70
0
 10
82.521756
 20
82.904300
 30
0.0
 10
82.521756
 20
92.638688
 30
0.0
 10
82.521756
 20
99.308513
 30
0.0
  0
SPLINE
  5
11e
100
AcDbEntity
  8
0
 62
7
100
AcDbSpline
 70
8
 71
3
 72
8
 73
4
 74
0
 40
0
 40
0
 40
0
 40
0
 40
1
 40
1
 40
1
 40
1
 10
77.400327
 20
82.904300
 30
0.0
 10
77.400327
 20
82.692112
 30
0.0
 10
77.228298
 20
82.520083
 30
0.0
 10
77.016110
 20
82.520083
 30
0.0
  0
LWPOLYLINE
  5
11f
100
AcDbEntity
  8
0
 62
7
100
AcDbPolyline
 90
3
 70
0
 10
77.400327
 20
99.308513
 30
0.0
 10
77.400327
 20
92.638688
 30
0.0
 10
77.400327
 20
82.904300
 30
0.0
  0
SPLINE
  5
120
100
AcDbEntity
  8
0
 62
7
100
AcDbSpline
 70
8
 71
3
 72
8
 73
4
 74
0
 40
0
 40
0
 40
0
 40
0
 40
1
 40
1
 40
1
 40
1
 10
75.311730
 20
82.522094
 30
0.0
 10
75.120839
 20
82.522094
 30
0.0
 10
74.966015
 20
82.367272
 30
0.0
 10
74.966015
 20
82.176381
 30
0.0
  0
SPLINE
  5
121
100
AcDbEntity
  8
0
 62
7
100
AcDbSpline
 70
8
 71
3
 72
8
 73
4
 74
0
 40
0
 40
0
 40
0
 40
0
 40
1
 40
1
 40
1
 40
1
 10
74.966015
 20
82.176381
 30
0.0
 10
74.966015
 20
81.396488
 30
0.0
 10
74.863658
 20
81.520212
 30
0.0
 10
75.077047
 20
80.770819
 30
0.0
  0
SPLINE
  5
122
100
AcDbEntity
  8
0
 62
7
100
AcDbSpline
 70
8
 71
3
 72
8
 73
4
 74
0
 40
0
 40
0
 40
0
 40
0
 40
1
 40
1
 40
1
 40
1
 10
75.077047
 20
80.770819
 30
0.0
 10
75.389086
 20
79.675113
 30
0.0
 10
75.218576
 20
79.731880
 30
0.0
 10
75.002686
 20
78.684337
 30
0.0
  0
SPLINE
  5
123
100
AcDbEntity
  8
0
 62
7
100
AcDbSpline
 70
8
 71
3
 72
8
 73
4
 74
0
 40
0
 40
0
 40
0
 40
0
 40
1
 40
1
 40
1
 40
1
 10
75.002686
 20
78.684337
 30
0.0
 10
74.821103
 20
77.802829
 30
0.0
 10
74.986229
 20
77.833892
 30
0.0
 10
74.986229
 20
76.933591
 30
0.0
  0
SPLINE
  5
124
100
AcDbEntity
  8
0
 62
7
100
AcDbSpline
 70
8
 71
3
 72
8
 73
4
 74
0
 40
0
 40
0
 40
0
 40
0
 40
1
 40
1
 40
1
 40
1
 10
74.986229
 20
76.933591
 30
0.0
 10
74.986229
 20
75.710741
 30
0.0
 10
76.787748
 20
75.463258
 30
0.0
 10
76.787748
 20
74.049411
 30
0.0
  0
LWPOLYLINE
  5
125
100
AcDbEntity
  8
0
 62
7
100
AcDbPolyline
 90
2
 70
0
 10
77.016110
 20
82.520083
 30
0.0
 10
75.311730
 20
82.522094
 30
0.0
  0
SPLINE
  5
126
100
AcDbEntity
  8
0
 62
7
100
AcDbSpline
 70
8
 71
3
 72
8
 73
4
 74
0
 40
0
 40
0
 40
0
 40
0
 40
1
 40
1
 40
1
 40
1
 10
76.787748
 20
73.340001
 30
0.0
 10
76.787748
 20
55.418773
 30
0.0
 10
66.412599
 20
49.564523
 30
0.0
 10
49.040389
 20
49.564523
 30
0.0
  0
SPLINE
  5
127
100
AcDbEntity
  8
0
 62
7
100
AcDbSpline
 70
8
 71
3
 72
8
 73
4
 74
0
 40
0
 40
0
 40
0
 40
0
 40
1
 40
1
 40
1
 40
1
 10
49.040389
 20
49.564523
 30
0.0
 10
47.226352
 20
49.564523
 30
0.0
 10
47.226352
 20
55.002610
 30
0.0
 10
49.040600
 20
55.002610
 30
0.0
  0
SPLINE
  5
128
100
AcDbEntity
  8
0
 62
7
100
AcDbSpline
 70
8
 71
3
 72
8
 73
4
 74
0
 40
0
 40
0
 40
0
 40
0
 40
1
 40
1
 40
1
 40
1
 10
49.040600
 20
55.002610
 30
0.0
 10
62.439307
 20
55.002610
 30
0.0
 10
70.441354
 20
59.517904
 30
0.0
 10
70.441354
 20
73.340001
 30
0.0
  0
LWPOLYLINE
  5
129
100
AcDbEntity
  8
0
 62
7
100
AcDbPolyline
 90
2
 70
0
 10
76.787748
 20
74.049411
 30
0.0
 10
76.787748
 20
73.340001
 30
0.0
  0
SPLINE
  5
12a
100
AcDbEntity
  8
0
 62
7
100
AcDbSpline
 70
8
 71
3
 72
8
 73
4
 74
0
 40
0
 40
0
 40
0
 40
0
 40
1
 40
1
 40
1
 40
1
 10
70.441354
 20
74.049411
 30
0.0
 10
70.441354
 20
75.463258
 30
0.0
 10
72.242873
 20
75.710741
 30
0.0
 10
72.242873
 20
76.933591
 30
0.0
  0
SPLINE
  5
12b
100
AcDbEntity
  8
0
 62
7
100
AcDbSpline
 70
8
 71
3
 72
8
 73
4
 74
0
 40
0
 40
0
 40
0
 40
0
 40
1
 40
1
 40
1
 40
1
 10
72.242873
 20
76.933591
 30
0.0
 10
72.242873
 20
77.833892
 30
0.0
 10
72.407992
 20
77.802829
 30
0.0
 10
72.226363
 20
78.684337
 30
0.0
  0
SPLINE
  5
12c
100
AcDbEntity
  8
0
 62
7
100
AcDbSpline
 70
8
 71
3
 72
8
 73
4
 74
0
 40
0
 40
0
 40
0
 40
0
 40
1
 40
1
 40
1
 40
1
 10
72.226363
 20
78.684337
 30
0.0
 10
72.010508
 20
79.731880
 30
0.0
 10
71.839995
 20
79.675113
 30
0.0
 10
72.152002
 20
80.770819
 30
0.0
  0
SPLINE
  5
12d
100
AcDbEntity
  8
0
 62
7
100
AcDbSpline
 70
8
 71
3
 72
8
 73
4
 74
0
 40
0
 40
0
 40
0
 40
0
 40
1
 40
1
 40
1
 40
1
 10
72.152002
 20
80.770819
 30
0.0
 10
72.365388
 20
81.520212
 30
0.0
 10
72.263066
 20
81.396488
 30
0.0
 10
72.263066
 20
82.176381
 30
0.0
  0
SPLINE
  5
12e
100
AcDbEntity
  8
0
 62
7
100
AcDbSpline
 70
8
 71
3
 72
8
 73
4
 74
0
 40
0
 40
0
 40
0
 40
0
 40
1
 40
1
 40
1
 40
1
 10
72.263066
 20
82.176381
 30
0.0
 10
72.263066
 20
82.367272
 30
0.0
 10
72.108245
 20
82.522094
 30
0.0
 10
71.917354
 20
82.522094
 30
0.0
  0
LWPOLYLINE
  5
12f
100
AcDbEntity
  8
0
 62
7
100
AcDbPolyline
 90
2
 70
0
 10
70.441354
 20
73.340001
 30
0.0
 10
70.441354
 20
74.049411
 30
0.0
  0
SPLINE
  5
130
100
AcDbEntity
  8
0
 62
7
100
AcDbSpline
 70
8
 71
3
 72
8
 73
4
 74
0
 40
0
 40
0
 40
0
 40
0
 40
1
 40
1
 40
1
 40
1
 10
70.212971
 20
82.520083
 30
0.0
 10
70.000783
 20
82.520083
 30
0.0
 10
69.828757
 20
82.692112
 30
0.0
 10
69.828757
 20
82.904300
 30
0.0
  0
LWPOLYLINE
  5
131
100
AcDbEntity
  8
0
 62
7
100
AcDbPolyline
 90
2
 70
0
 10
71.917354
 20
82.522094
 30
0.0
 10
70.212971
 20
82.520083
 30
0.0
  0
SPLINE
  5
132
100
AcDbEntity
  8
0
 62
7
100
AcDbSpline
 70
8
 71
3
 72
8
 73
4
 74
0
 40
0
 40
0
 40
0
 40
0
 40
1
 40
1
 40
1
 40
1
 10
69.828757
 20
99.562377
 30
0.0
 10
69.828757
 20
99.776857
 30
0.0
 10
69.654859
 20
99.950754
 30
0.0
 10
69.440380
 20
99.950754
 30
0.0
  0
SPLINE
  5
133
100
AcDbEntity
  8
0
 62
7
100
AcDbSpline
 70
8
 71
3
 72
8
 73
4
 74
0
 40
0
 40
0
 40
0
 40
0
 40
1
 40
1
 40
1
 40
1
 10
69.440380
 20
99.950754
 30
0.0
 10
69.050874
 20
99.950754
 30
0.0
 10
69.017200
 20
100.226126
 30
0.0
 10
69.380015
 20
100.586649
 30
0.0
  0
SPLINE
  5
134
100
AcDbEntity
  8
0
 62
7
100
AcDbSpline
 70
8
 71
3
 72
8
 73
4
 74
0
 40
0
 40
0
 40
0
 40
0
 40
1
 40
1
 40
1
 40
1
 10
69.380015
 20
100.586649
 30
0.0
 10
70.673595
 20
101.872048
 30
0.0
 10
70.153702
 20
105.303411
 30
0.0
 10
69.045196
 20
106.298594
 30
0.0
  0
SPLINE
  5
135
100
AcDbEntity
  8
0
 62
7
100
AcDbSpline
 70
8
 71
3
 72
8
 73
4
 74
0
 40
0
 40
0
 40
0
 40
0
 40
1
 40
1
 40
1
 40
1
 10
69.045196
 20
106.298594
 30
0.0
 10
67.259049
 20
107.902134
 30
0.0
 10
68.802192
 20
110.543521
 30
0.0
 10
68.590321
 20
110.562914
 30
0.0
  0
SPLINE
  5
136
100
AcDbEntity
  8
0
 62
7
100
AcDbSpline
 70
8
 71
3
 72
8
 73
4
 74
0
 40
0
 40
0
 40
0
 40
0
 40
1
 40
1
 40
1
 40
1
 10
68.590321
 20
110.562914
 30
0.0
 10
68.378451
 20
110.582271
 30
0.0
 10
67.117415
 20
109.011239
 30
0.0
 10
65.258812
 20
106.346264
 30
0.0
  0
SPLINE
  5
137
100
AcDbEntity
  8
0
 62
7
100
AcDbSpline
 70
8
 71
3
 72
8
 73
4
 74
0
 40
0
 40
0
 40
0
 40
0
 40
1
 40
1
 40
1
 40
1
 10
65.258812
 20
106.346264
 30
0.0
 10
63.832272
 20
104.300858
 30
0.0
 10
64.202561
 20
101.412377
 30
0.0
 10
65.404042
 20
100.597120
 30
0.0
  0
SPLINE
  5
138
100
AcDbEntity
  8
0
 62
7
100
AcDbSpline
 70
8
 71
3
 72
8
 73
4
 74
0
 40
0
 40
0
 40
0
 40
0
 40
1
 40
1
 40
1
 40
1
 10
65.404042
 20
100.597120
 30
0.0
 10
65.732057
 20
100.383839
 30
0.0
 10
65.586930
 20
99.950754
 30
0.0
 10
65.095705
 20
99.950754
 30
0.0
  0
SPLINE
  5
139
100
AcDbEntity
  8
0
 62
7
100
AcDbSpline
 70
8
 71
3
 72
8
 73
4
 74
0
 40
0
 40
0
 40
0
 40
0
 40
1
 40
1
 40
1
 40
1
 10
65.095705
 20
99.950754
 30
0.0
 10
64.881188
 20
99.950754
 30
0.0
 10
64.707291
 20
99.776857
 30
0.0
 10
64.707291
 20
99.562377
 30
0.0
  0
LWPOLYLINE
  5
13a
100
AcDbEntity
  8
0
 62
7
100
AcDbPolyline
 90
3
 70
0
 10
69.828757
 20
82.904300
 30
0.0
 10
69.828757
 20
92.638688
 30
0.0
 10
69.828757
 20
99.562377
 30
0.0
  0
SPLINE
  5
13b
100
AcDbEntity
  8
0
 62
7
100
AcDbSpline
 70
8
 71
3
 72
8
 73
4
 74
0
 40
0
 40
0
 40
0
 40
0
 40
1
 40
1
 40
1
 40
1
 10
64.707291
 20
82.904300
 30
0.0
 10
64.707291
 20
82.692112
 30
0.0
 10
64.535299
 20
82.520083
 30
0.0
 10
64.323111
 20
82.520083
 30
0.0
  0
LWPOLYLINE
  5
13c
100
AcDbEntity
  8
0
 62
7
100
AcDbPolyline
 90
3
 70
0
 10
64.707291
 20
99.562377
 30
0.0
 10
64.707291
 20
92.638688
 30
0.0
 10
64.707291
 20
82.904300
 30
0.0
  0
SPLINE
  5
13d
100
AcDbEntity
  8
0
 62
7
100
AcDbSpline
 70
8
 71
3
 72
8
 73
4
 74
0
 40
0
 40
0
 40
0
 40
0
 40
1
 40
1
 40
1
 40
1
 10
62.618728
 20
82.522094
 30
0.0
 10
62.427802
 20
82.522094
 30
0.0
 10
62.273016
 20
82.367272
 30
0.0
 10
62.273016
 20
82.176381
 30
0.0
  0
SPLINE
  5
13e
100
AcDbEntity
  8
0
 62
7
100
AcDbSpline
 70
8
 71
3
 72
8
 73
4
 74
0
 40
0
 40
0
 40
0
 40
0
 40
1
 40
1
 40
1
 40
1
 10
62.273016
 20
82.176381
 30
0.0
 10
62.273016
 20
81.396488
 30
0.0
 10
62.170659
 20
81.520212
 30
0.0
 10
62.384046
 20
80.770819
 30
0.0
  0
SPLINE
  5
13f
100
AcDbEntity
  8
0
 62
7
100
AcDbSpline
 70
8
 71
3
 72
8
 73
4
 74
0
 40
0
 40
0
 40
0
 40
0
 40
1
 40
1
 40
1
 40
1
 10
62.384046
 20
80.770819
 30
0.0
 10
62.696087
 20
79.675113
 30
0.0
 10
62.525577
 20
79.731880
 30
0.0
 10
62.309685
 20
78.684337
 30
0.0
  0
SPLINE
  5
140
100
AcDbEntity
  8
0
 62
7
100
AcDbSpline
 70
8
 71
3
 72
8
 73
4
 74
0
 40
0
 40
0
 40
0
 40
0
 40
1
 40
1
 40
1
 40
1
 10
62.309685
 20
78.684337
 30
0.0
 10
62.128067
 20
77.802829
 30
0.0
 10
62.293175
 20
77.833892
 30
0.0
 10
62.293175
 20
76.933591
 30
0.0
  0
SPLINE
  5
141
100
AcDbEntity
  8
0
 62
7
100
AcDbSpline
 70
8
 71
3
 72
8
 73
4
 74
0
 40
0
 40
0
 40
0
 40
0
 40
1
 40
1
 40
1
 40
1
 10
62.293175
 20
76.933591
 30
0.0
 10
62.293175
 20
75.710741
 30
0.0
 10
64.094728
 20
75.463258
 30
0.0
 10
64.094728
 20
74.049411
 30
0.0
  0
LWPOLYLINE
  5
142
100
AcDbEntity
  8
0
 62
7
100
AcDbPolyline
 90
2
 70
0
 10
64.323111
 20
82.520083
 30
0.0
 10
62.618728
 20
82.522094
 30
0.0
  0
SPLINE
  5
143
100
AcDbEntity
  8
0
 62
7
100
AcDbSpline
 70
8
 71
3
 72
8
 73
4
 74
0
 40
0
 40
0
 40
0
 40
0
 40
1
 40
1
 40
1
 40
1
 10
64.094728
 20
72.578409
 30
0.0
 10
64.094728
 20
62.855303
 30
0.0
 10
58.465712
 20
59.679107
 30
0.0
 10
49.040579
 20
59.679107
 30
0.0
  0
SPLINE
  5
144
100
AcDbEntity
  8
0
 62
7
100
AcDbSpline
 70
8
 71
3
 72
8
 73
4
 74
0
 40
0
 40
0
 40
0
 40
0
 40
1
 40
1
 40
1
 40
1
 10
49.040579
 20
59.679107
 30
0.0
 10
47.226331
 20
59.679107
 30
0.0
 10
47.226331
 20
65.117197
 30
0.0
 10
49.040579
 20
65.117197
 30
0.0
  0
SPLINE
  5
145
100
AcDbEntity
  8
0
 62
7
100
AcDbSpline
 70
8
 71
3
 72
8
 73
4
 74
0
 40
0
 40
0
 40
0
 40
0
 40
1
 40
1
 40
1
 40
1
 10
49.040579
 20
65.117197
 30
0.0
 10
54.492242
 20
65.117197
 30
0.0
 10
57.748122
 20
66.954434
 30
0.0
 10
57.748122
 20
72.578409
 30
0.0
  0
LWPOLYLINE
  5
146
100
AcDbEntity
  8
0
 62
7
100
AcDbPolyline
 90
2
 70
0
 10
64.094728
 20
74.049411
 30
0.0
 10
64.094728
 20
72.578409
 30
0.0
  0
SPLINE
  5
147
100
AcDbEntity
  8
0
 62
7
100
AcDbSpline
 70
8
 71
3
 72
8
 73
4
 74
0
 40
0
 40
0
 40
0
 40
0
 40
1
 40
1
 40
1
 40
1
 10
57.748122
 20
74.049411
 30
0.0
 10
57.748122
 20
75.463258
 30
0.0
 10
59.549641
 20
75.710741
 30
0.0
 10
59.549641
 20
76.933591
 30
0.0
  0
SPLINE
  5
148
100
AcDbEntity
  8
0
 62
7
100
AcDbSpline
 70
8
 71
3
 72
8
 73
4
 74
0
 40
0
 40
0
 40
0
 40
0
 40
1
 40
1
 40
1
 40
1
 10
59.549641
 20
76.933591
 30
0.0
 10
59.549641
 20
77.833892
 30
0.0
 10
59.714760
 20
77.802829
 30
0.0
 10
59.533131
 20
78.684337
 30
0.0
  0
SPLINE
  5
149
100
AcDbEntity
  8
0
 62
7
100
AcDbSpline
 70
8
 71
3
 72
8
 73
4
 74
0
 40
0
 40
0
 40
0
 40
0
 40
1
 40
1
 40
1
 40
1
 10
59.533131
 20
78.684337
 30
0.0
 10
59.317276
 20
79.731880
 30
0.0
 10
59.146765
 20
79.675113
 30
0.0
 10
59.458773
 20
80.770819
 30
0.0
  0
SPLINE
  5
14a
100
AcDbEntity
  8
0
 62
7
100
AcDbSpline
 70
8
 71
3
 72
8
 73
4
 74
0
 40
0
 40
0
 40
0
 40
0
 40
1
 40
1
 40
1
 40
1
 10
59.458773
 20
80.770819
 30
0.0
 10
59.672159
 20
81.520212
 30
0.0
 10
59.569837
 20
81.396488
 30
0.0
 10
59.569837
 20
82.176381
 30
0.0
  0
SPLINE
  5
14b
100
AcDbEntity
  8
0
 62
7
100
AcDbSpline
 70
8
 71
3
 72
8
 73
4
 74
0
 40
0
 40
0
 40
0
 40
0
 40
1
 40
1
 40
1
 40
1
 10
59.569837
 20
82.176381
 30
0.0
 10
59.569837
 20
82.367272
 30
0.0
 10
59.415016
 20
82.522094
 30
0.0
 10
59.224124
 20
82.522094
 30
0.0
  0
LWPOLYLINE
  5
14c
100
AcDbEntity
  8
0
 62
7
100
AcDbPolyline
 90
2
 70
0
 10
57.748122
 20
72.578409
 30
0.0
 10
57.748122
 20
74.049411
 30
0.0
  0
SPLINE
  5
14d
100
AcDbEntity
  8
0
 62
7
100
AcDbSpline
 70
8
 71
3
 72
8
 73
4
 74
0
 40
0
 40
0
 40
0
 40
0
 40
1
 40
1
 40
1
 40
1
 10
57.519742
 20
82.520083
 30
0.0
 10
57.307554
 20
82.520083
 30
0.0
 10
57.135525
 20
82.692112
 30
0.0
 10
57.135525
 20
82.904300
 30
0.0
  0
LWPOLYLINE
  5
14e
100
AcDbEntity
  8
0
 62
7
100
AcDbPolyline
 90
2
 70
0
 10
59.224124
 20
82.522094
 30
0.0
 10
57.519742
 20
82.520083
 30
0.0
  0
SPLINE
  5
14f
100
AcDbEntity
  8
0
 62
7
100
AcDbSpline
 70
8
 71
3
 72
8
 73
4
 74
0
 40
0
 40
0
 40
0
 40
0
 40
1
 40
1
 40
1
 40
1
 10
57.135525
 20
98.546920
 30
0.0
 10
57.135525
 20
98.761400
 30
0.0
 10
56.961630
 20
98.935297
 30
0.0
 10
56.747148
 20
98.935297
 30
0.0
  0
SPLINE
  5
150
100
AcDbEntity
  8
0
 62
7
100
AcDbSpline
 70
8
 71
3
 72
8
 73
4
 74
0
 40
0
 40
0
 40
0
 40
0
 40
1
 40
1
 40
1
 40
1
 10
56.747148
 20
98.935297
 30
0.0
 10
56.357644
 20
98.935297
 30
0.0
 10
56.231523
 20
99.337813
 30
0.0
 10
56.686786
 20
99.571192
 30
0.0
  0
SPLINE
  5
151
100
AcDbEntity
  8
0
 62
7
100
AcDbSpline
 70
8
 71
3
 72
8
 73
4
 74
0
 40
0
 40
0
 40
0
 40
0
 40
1
 40
1
 40
1
 40
1
 10
56.686786
 20
99.571192
 30
0.0
 10
57.969399
 20
100.228630
 30
0.0
 10
57.747514
 20
103.757131
 30
0.0
 10
56.219712
 20
104.864332
 30
0.0
  0
SPLINE
  5
152
100
AcDbEntity
  8
0
 62
7
100
AcDbSpline
 70
8
 71
3
 72
8
 73
4
 74
0
 40
0
 40
0
 40
0
 40
0
 40
1
 40
1
 40
1
 40
1
 10
56.219712
 20
104.864332
 30
0.0
 10
54.823564
 20
105.876192
 30
0.0
 10
54.323943
 20
108.982750
 30
0.0
 10
54.023890
 20
109.150864
 30
0.0
  0
SPLINE
  5
153
100
AcDbEntity
  8
0
 62
7
100
AcDbSpline
 70
8
 71
3
 72
8
 73
4
 74
0
 40
0
 40
0
 40
0
 40
0
 40
1
 40
1
 40
1
 40
1
 10
54.023890
 20
109.150864
 30
0.0
 10
53.723836
 20
109.318979
 30
0.0
 10
54.093562
 20
107.775378
 30
0.0
 10
52.234960
 20
105.110403
 30
0.0
  0
SPLINE
  5
154
100
AcDbEntity
  8
0
 62
7
100
AcDbSpline
 70
8
 71
3
 72
8
 73
4
 74
0
 40
0
 40
0
 40
0
 40
0
 40
1
 40
1
 40
1
 40
1
 10
52.234960
 20
105.110403
 30
0.0
 10
50.808419
 20
103.064998
 30
0.0
 10
51.509329
 20
100.396920
 30
0.0
 10
52.710813
 20
99.581664
 30
0.0
  0
SPLINE
  5
155
100
AcDbEntity
  8
0
 62
7
100
AcDbSpline
 70
8
 71
3
 72
8
 73
4
 74
0
 40
0
 40
0
 40
0
 40
0
 40
1
 40
1
 40
1
 40
1
 10
52.710813
 20
99.581664
 30
0.0
 10
53.038827
 20
99.368382
 30
0.0
 10
52.893701
 20
98.935297
 30
0.0
 10
52.402473
 20
98.935297
 30
0.0
  0
SPLINE
  5
156
100
AcDbEntity
  8
0
 62
7
100
AcDbSpline
 70
8
 71
3
 72
8
 73
4
 74
0
 40
0
 40
0
 40
0
 40
0
 40
1
 40
1
 40
1
 40
1
 10
52.402473
 20
98.935297
 30
0.0
 10
52.187959
 20
98.935297
 30
0.0
 10
52.014062
 20
98.761400
 30
0.0
 10
52.014062
 20
98.546920
 30
0.0
  0
LWPOLYLINE
  5
157
100
AcDbEntity
  8
0
 62
7
100
AcDbPolyline
 90
3
 70
0
 10
57.135525
 20
82.904300
 30
0.0
 10
57.135525
 20
92.638688
 30
0.0
 10
57.135525
 20
98.546920
 30
0.0
  0
SPLINE
  5
158
100
AcDbEntity
  8
0
 62
7
100
AcDbSpline
 70
8
 71
3
 72
8
 73
4
 74
0
 40
0
 40
0
 40
0
 40
0
 40
1
 40
1
 40
1
 40
1
 10
52.014062
 20
82.904300
 30
0.0
 10
52.014062
 20
82.692112
 30
0.0
 10
51.842069
 20
82.520083
 30
0.0
 10
51.629881
 20
82.520083
 30
0.0
  0
LWPOLYLINE
  5
159
100
AcDbEntity
  8
0
 62
7
100
AcDbPolyline
 90
3
 70
0
 10
52.014062
 20
98.546920
 30
0.0
 10
52.014062
 20
92.638688
 30
0.0
 10
52.014062
 20
82.904300
 30
0.0
  0
SPLINE
  5
15a
100
AcDbEntity
  8
0
 62
7
100
AcDbSpline
 70
8
 71
3
 72
8
 73
4
 74
0
 40
0
 40
0
 40
0
 40
0
 40
1
 40
1
 40
1
 40
1
 10
49.925499
 20
82.522094
 30
0.0
 10
49.734573
 20
82.522094
 30
0.0
 10
49.579787
 20
82.367272
 30
0.0
 10
49.579787
 20
82.176381
 30
0.0
  0
SPLINE
  5
15b
100
AcDbEntity
  8
0
 62
7
100
AcDbSpline
 70
8
 71
3
 72
8
 73
4
 74
0
 40
0
 40
0
 40
0
 40
0
 40
1
 40
1
 40
1
 40
1
 10
49.579787
 20
82.176381
 30
0.0
 10
49.579787
 20
81.396488
 30
0.0
 10
49.477430
 20
81.520212
 30
0.0
 10
49.690816
 20
80.770819
 30
0.0
  0
SPLINE
  5
15c
100
AcDbEntity
  8
0
 62
7
100
AcDbSpline
 70
8
 71
3
 72
8
 73
4
 74
0
 40
0
 40
0
 40
0
 40
0
 40
1
 40
1
 40
1
 40
1
 10
49.690816
 20
80.770819
 30
0.0
 10
50.002858
 20
79.675113
 30
0.0
 10
49.832345
 20
79.731880
 30
0.0
 10
49.616455
 20
78.684337
 30
0.0
  0
SPLINE
  5
15d
100
AcDbEntity
  8
0
 62
7
100
AcDbSpline
 70
8
 71
3
 72
8
 73
4
 74
0
 40
0
 40
0
 40
0
 40
0
 40
1
 40
1
 40
1
 40
1
 10
49.616455
 20
78.684337
 30
0.0
 10
49.434837
 20
77.802829
 30
0.0
 10
49.599945
 20
77.833892
 30
0.0
 10
49.599945
 20
76.933591
 30
0.0
  0
SPLINE
  5
15e
100
AcDbEntity
  8
0
 62
7
100
AcDbSpline
 70
8
 71
3
 72
8
 73
4
 74
0
 40
0
 40
0
 40
0
 40
0
 40
1
 40
1
 40
1
 40
1
 10
49.599945
 20
76.933591
 30
0.0
 10
49.599945
 20
75.710741
 30
0.0
 10
51.401501
 20
75.463258
 30
0.0
 10
51.401501
 20
74.049411
 30
0.0
  0
LWPOLYLINE
  5
15f
100
AcDbEntity
  8
0
 62
7
100
AcDbPolyline
 90
2
 70
0
 10
51.629881
 20
82.520083
 30
0.0
 10
49.925499
 20
82.522094
 30
0.0
  0
SPLINE
  5
160
100
AcDbEntity
  8
0
 62
7
100
AcDbSpline
 70
8
 71
3
 72
8
 73
4
 74
0
 40
0
 40
0
 40
0
 40
0
 40
1
 40
1
 40
1
 40
1
 10
51.401501
 20
72.578409
 30
0.0
 10
51.401501
 20
71.053635
 30
0.0
 10
50.518653
 20
70.555498
 30
0.0
 10
49.040563
 20
70.555498
 30
0.0
  0
LWPOLYLINE
  5
161
100
AcDbEntity
  8
0
 62
7
100
AcDbPolyline
 90
2
 70
0
 10
51.401501
 20
74.049411
 30
0.0
 10
51.401501
 20
72.578409
 30
0.0
  0
SPLINE
  5
162
100
AcDbEntity
  8
0
 62
7
100
AcDbSpline
 70
8
 71
3
 72
8
 73
4
 74
0
 40
0
 40
0
 40
0
 40
0
 40
1
 40
1
 40
1
 40
1
 10
47.054429
 20
70.555498
 30
0.0
 10
45.987880
 20
70.555498
 30
0.0
 10
45.054684
 20
71.305808
 30
0.0
 10
45.054684
 20
76.838145
 30
0.0
  0
LWPOLYLINE
  5
163
100
AcDbEntity
  8
0
 62
7
100
AcDbPolyline
 90
2
 70
0
 10
49.040563
 20
70.555498
 30
0.0
 10
47.054429
 20
70.555498
 30
0.0
  0
SPLINE
  5
164
100
AcDbEntity
  8
0
 62
7
100
AcDbSpline
 70
8
 71
3
 72
8
 73
4
 74
0
 40
0
 40
0
 40
0
 40
0
 40
1
 40
1
 40
1
 40
1
 10
45.054684
 20
78.309147
 30
0.0
 10
45.054684
 20
79.722994
 30
0.0
 10
46.856203
 20
79.970441
 30
0.0
 10
46.856203
 20
81.193291
 30
0.0
  0
SPLINE
  5
165
100
AcDbEntity
  8
0
 62
7
100
AcDbSpline
 70
8
 71
3
 72
8
 73
4
 74
0
 40
0
 40
0
 40
0
 40
0
 40
1
 40
1
 40
1
 40
1
 10
46.856203
 20
81.193291
 30
0.0
 10
46.856203
 20
82.093628
 30
0.0
 10
47.021321
 20
82.062530
 30
0.0
 10
46.839746
 20
82.944073
 30
0.0
  0
SPLINE
  5
166
100
AcDbEntity
  8
0
 62
7
100
AcDbSpline
 70
8
 71
3
 72
8
 73
4
 74
0
 40
0
 40
0
 40
0
 40
0
 40
1
 40
1
 40
1
 40
1
 10
46.839746
 20
82.944073
 30
0.0
 10
46.623854
 20
83.991616
 30
0.0
 10
46.453343
 20
83.934849
 30
0.0
 10
46.765385
 20
85.030555
 30
0.0
  0
SPLINE
  5
167
100
AcDbEntity
  8
0
 62
7
100
AcDbSpline
 70
8
 71
3
 72
8
 73
4
 74
0
 40
0
 40
0
 40
0
 40
0
 40
1
 40
1
 40
1
 40
1
 10
46.765385
 20
85.030555
 30
0.0
 10
46.978771
 20
85.779948
 30
0.0
 10
46.876414
 20
85.656224
 30
0.0
 10
46.876414
 20
86.436116
 30
0.0
  0
SPLINE
  5
168
100
AcDbEntity
  8
0
 62
7
100
AcDbSpline
 70
8
 71
3
 72
8
 73
4
 74
0
 40
0
 40
0
 40
0
 40
0
 40
1
 40
1
 40
1
 40
1
 10
46.876414
 20
86.436116
 30
0.0
 10
46.876414
 20
86.627008
 30
0.0
 10
46.721591
 20
86.781830
 30
0.0
 10
46.530699
 20
86.781830
 30
0.0
  0
LWPOLYLINE
  5
169
100
AcDbEntity
  8
0
 62
7
100
AcDbPolyline
 90
2
 70
0
 10
45.054684
 20
76.838145
 30
0.0
 10
45.054684
 20
78.309147
 30
0.0
  0
SPLINE
  5
16a
100
AcDbEntity
  8
0
 62
7
100
AcDbSpline
 70
8
 71
3
 72
8
 73
4
 74
0
 40
0
 40
0
 40
0
 40
0
 40
1
 40
1
 40
1
 40
1
 10
44.826320
 20
86.779819
 30
0.0
 10
44.614132
 20
86.779819
 30
0.0
 10
44.442102
 20
86.951812
 30
0.0
 10
44.442102
 20
87.164000
 30
0.0
  0
LWPOLYLINE
  5
16b
100
AcDbEntity
  8
0
 62
7
100
AcDbPolyline
 90
2
 70
0
 10
46.530699
 20
86.781830
 30
0.0
 10
44.826320
 20
86.779819
 30
0.0
  0
SPLINE
  5
16c
100
AcDbEntity
  8
0
 62
7
100
AcDbSpline
 70
8
 71
3
 72
8
 73
4
 74
0
 40
0
 40
0
 40
0
 40
0
 40
1
 40
1
 40
1
 40
1
 10
44.442102
 20
103.568249
 30
0.0
 10
44.442102
 20
103.782729
 30
0.0
 10
44.268205
 20
103.956626
 30
0.0
 10
44.053726
 20
103.956626
 30
0.0
  0
SPLINE
  5
16d
100
AcDbEntity
  8
0
 62
7
100
AcDbSpline
 70
8
 71
3
 72
8
 73
4
 74
0
 40
0
 40
0
 40
0
 40
0
 40
1
 40
1
 40
1
 40
1
 10
44.053726
 20
103.956626
 30
0.0
 10
43.664219
 20
103.956626
 30
0.0
 10
43.630548
 20
104.231998
 30
0.0
 10
43.993364
 20
104.592485
 30
0.0
  0
SPLINE
  5
16e
100
AcDbEntity
  8
0
 62
7
100
AcDbSpline
 70
8
 71
3
 72
8
 73
4
 74
0
 40
0
 40
0
 40
0
 40
0
 40
1
 40
1
 40
1
 40
1
 10
43.993364
 20
104.592485
 30
0.0
 10
45.286978
 20
105.877884
 30
0.0
 10
44.580530
 20
109.195326
 30
0.0
 10
43.493320
 20
110.073061
 30
0.0
  0
SPLINE
  5
16f
100
AcDbEntity
  8
0
 62
7
100
AcDbSpline
 70
8
 71
3
 72
8
 73
4
 74
0
 40
0
 40
0
 40
0
 40
0
 40
1
 40
1
 40
1
 40
1
 10
43.493320
 20
110.073061
 30
0.0
 10
42.474160
 20
110.895828
 30
0.0
 10
42.093364
 20
113.982077
 30
0.0
 10
41.881388
 20
113.995863
 30
0.0
  0
SPLINE
  5
170
100
AcDbEntity
  8
0
 62
7
100
AcDbSpline
 70
8
 71
3
 72
8
 73
4
 74
0
 40
0
 40
0
 40
0
 40
0
 40
1
 40
1
 40
1
 40
1
 10
41.881388
 20
113.995863
 30
0.0
 10
41.669412
 20
114.009650
 30
0.0
 10
41.796944
 20
112.873854
 30
0.0
 10
39.938341
 20
110.208879
 30
0.0
  0
SPLINE
  5
171
100
AcDbEntity
  8
0
 62
7
100
AcDbSpline
 70
8
 71
3
 72
8
 73
4
 74
0
 40
0
 40
0
 40
0
 40
0
 40
1
 40
1
 40
1
 40
1
 10
39.938341
 20
110.208879
 30
0.0
 10
38.511800
 20
108.163473
 30
0.0
 10
38.815941
 20
105.418249
 30
0.0
 10
40.017390
 20
104.602992
 30
0.0
  0
SPLINE
  5
172
100
AcDbEntity
  8
0
 62
7
100
AcDbSpline
 70
8
 71
3
 72
8
 73
4
 74
0
 40
0
 40
0
 40
0
 40
0
 40
1
 40
1
 40
1
 40
1
 10
40.017390
 20
104.602992
 30
0.0
 10
40.345405
 20
104.389711
 30
0.0
 10
40.200278
 20
103.956626
 30
0.0
 10
39.709050
 20
103.956626
 30
0.0
  0
SPLINE
  5
173
100
AcDbEntity
  8
0
 62
7
100
AcDbSpline
 70
8
 71
3
 72
8
 73
4
 74
0
 40
0
 40
0
 40
0
 40
0
 40
1
 40
1
 40
1
 40
1
 10
39.709050
 20
103.956626
 30
0.0
 10
39.494571
 20
103.956626
 30
0.0
 10
39.320674
 20
103.782729
 30
0.0
 10
39.320674
 20
103.568249
 30
0.0
  0
LWPOLYLINE
  5
174
100
AcDbEntity
  8
0
 62
7
100
AcDbPolyline
 90
3
 70
0
 10
44.442102
 20
87.164000
 30
0.0
 10
44.442102
 20
94.072210
 30
0.0
 10
44.442102
 20
103.568249
 30
0.0
  0
SPLINE
  5
175
100
AcDbEntity
  8
0
 62
7
100
AcDbSpline
 70
8
 71
3
 72
8
 73
4
 74
0
 40
0
 40
0
 40
0
 40
0
 40
1
 40
1
 40
1
 40
1
 10
39.320674
 20
87.164000
 30
0.0
 10
39.320674
 20
86.951812
 30
0.0
 10
39.148647
 20
86.779819
 30
0.0
 10
38.936456
 20
86.779819
 30
0.0
  0
LWPOLYLINE
  5
176
100
AcDbEntity
  8
0
 62
7
100
AcDbPolyline
 90
3
 70
0
 10
39.320674
 20
103.568249
 30
0.0
 10
39.320674
 20
94.072210
 30
0.0
 10
39.320674
 20
87.164000
 30
0.0
  0
SPLINE
  5
177
100
AcDbEntity
  8
0
 62
7
100
AcDbSpline
 70
8
 71
3
 72
8
 73
4
 74
0
 40
0
 40
0
 40
0
 40
0
 40
1
 40
1
 40
1
 40
1
 10
37.232077
 20
86.781830
 30
0.0
 10
37.041185
 20
86.781830
 30
0.0
 10
36.886364
 20
86.627008
 30
0.0
 10
36.886364
 20
86.436116
 30
0.0
  0
SPLINE
  5
178
100
AcDbEntity
  8
0
 62
7
100
AcDbSpline
 70
8
 71
3
 72
8
 73
4
 74
0
 40
0
 40
0
 40
0
 40
0
 40
1
 40
1
 40
1
 40
1
 10
36.886364
 20
86.436116
 30
0.0
 10
36.886364
 20
85.656224
 30
0.0
 10
36.784007
 20
85.779948
 30
0.0
 10
36.997394
 20
85.030555
 30
0.0
  0
SPLINE
  5
179
100
AcDbEntity
  8
0
 62
7
100
AcDbSpline
 70
8
 71
3
 72
8
 73
4
 74
0
 40
0
 40
0
 40
0
 40
0
 40
1
 40
1
 40
1
 40
1
 10
36.997394
 20
85.030555
 30
0.0
 10
37.309436
 20
83.934849
 30
0.0
 10
37.138922
 20
83.991616
 30
0.0
 10
36.923033
 20
82.944073
 30
0.0
  0
SPLINE
  5
17a
100
AcDbEntity
  8
0
 62
7
100
AcDbSpline
 70
8
 71
3
 72
8
 73
4
 74
0
 40
0
 40
0
 40
0
 40
0
 40
1
 40
1
 40
1
 40
1
 10
36.923033
 20
82.944073
 30
0.0
 10
36.741449
 20
82.062530
 30
0.0
 10
36.906576
 20
82.093628
 30
0.0
 10
36.906576
 20
81.193291
 30
0.0
  0
SPLINE
  5
17b
100
AcDbEntity
  8
0
 62
7
100
AcDbSpline
 70
8
 71
3
 72
8
 73
4
 74
0
 40
0
 40
0
 40
0
 40
0
 40
1
 40
1
 40
1
 40
1
 10
36.906576
 20
81.193291
 30
0.0
 10
36.906576
 20
79.970441
 30
0.0
 10
38.708097
 20
79.722994
 30
0.0
 10
38.708097
 20
78.309147
 30
0.0
  0
LWPOLYLINE
  5
17c
100
AcDbEntity
  8
0
 62
7
100
AcDbPolyline
 90
2
 70
0
 10
38.936456
 20
86.779819
 30
0.0
 10
37.232077
 20
86.781830
 30
0.0
  0
SPLINE
  5
17d
100
AcDbEntity
  8
0
 62
7
100
AcDbSpline
 70
8
 71
3
 72
8
 73
4
 74
0
 40
0
 40
0
 40
0
 40
0
 40
1
 40
1
 40
1
 40
1
 10
38.708097
 20
76.838145
 30
0.0
 10
38.708097
 20
71.305808
 30
0.0
 10
37.774899
 20
70.555498
 30
0.0
 10
36.708350
 20
70.555498
 30
0.0
  0
LWPOLYLINE
  5
17e
100
AcDbEntity
  8
0
 62
7
100
AcDbPolyline
 90
2
 70
0
 10
38.708097
 20
78.309147
 30
0.0
 10
38.708097
 20
76.838145
 30
0.0
  0
SPLINE
  5
17f
100
AcDbEntity
  8
0
 62
7
100
AcDbSpline
 70
8
 71
3
 72
8
 73
4
 74
0
 40
0
 40
0
 40
0
 40
0
 40
1
 40
1
 40
1
 40
1
 10
34.722215
 20
70.555498
 30
0.0
 10
34.429496
 20
70.555498
 30
0.0
 10
34.160013
 20
70.575183
 30
0.0
 10
33.916268
 20
70.618257
 30
0.0
  0
SPLINE
  5
180
100
AcDbEntity
  8
0
 62
7
100
AcDbSpline
 70
8
 71
3
 72
8
 73
4
 74
0
 40
0
 40
0
 40
0
 40
0
 40
1
 40
1
 40
1
 40
1
 10
33.916268
 20
70.618257
 30
0.0
 10
32.929195
 20
70.793073
 30
0.0
 10
32.361280
 20
71.355664
 30
0.0
 10
32.361280
 20
72.578409
 30
0.0
  0
LWPOLYLINE
  5
181
100
AcDbEntity
  8
0
 62
7
100
AcDbPolyline
 90
2
 70
0
 10
36.708350
 20
70.555498
 30
0.0
 10
34.722215
 20
70.555498
 30
0.0
  0
SPLINE
  5
182
100
AcDbEntity
  8
0
 62
7
100
AcDbSpline
 70
8
 71
3
 72
8
 73
4
 74
0
 40
0
 40
0
 40
0
 40
0
 40
1
 40
1
 40
1
 40
1
 10
32.361280
 20
74.049411
 30
0.0
 10
32.361280
 20
75.463258
 30
0.0
 10
34.162833
 20
75.710741
 30
0.0
 10
34.162833
 20
76.933591
 30
0.0
  0
SPLINE
  5
183
100
AcDbEntity
  8
0
 62
7
100
AcDbSpline
 70
8
 71
3
 72
8
 73
4
 74
0
 40
0
 40
0
 40
0
 40
0
 40
1
 40
1
 40
1
 40
1
 10
34.162833
 20
76.933591
 30
0.0
 10
34.162833
 20
77.833892
 30
0.0
 10
34.327952
 20
77.802829
 30
0.0
 10
34.146323
 20
78.684337
 30
0.0
  0
SPLINE
  5
184
100
AcDbEntity
  8
0
 62
7
100
AcDbSpline
 70
8
 71
3
 72
8
 73
4
 74
0
 40
0
 40
0
 40
0
 40
0
 40
1
 40
1
 40
1
 40
1
 10
34.146323
 20
78.684337
 30
0.0
 10
33.930434
 20
79.731880
 30
0.0
 10
33.759921
 20
79.675113
 30
0.0
 10
34.071962
 20
80.770819
 30
0.0
  0
SPLINE
  5
185
100
AcDbEntity
  8
0
 62
7
100
AcDbSpline
 70
8
 71
3
 72
8
 73
4
 74
0
 40
0
 40
0
 40
0
 40
0
 40
1
 40
1
 40
1
 40
1
 10
34.071962
 20
80.770819
 30
0.0
 10
34.285351
 20
81.520212
 30
0.0
 10
34.182995
 20
81.396488
 30
0.0
 10
34.182995
 20
82.176381
 30
0.0
  0
SPLINE
  5
186
100
AcDbEntity
  8
0
 62
7
100
AcDbSpline
 70
8
 71
3
 72
8
 73
4
 74
0
 40
0
 40
0
 40
0
 40
0
 40
1
 40
1
 40
1
 40
1
 10
34.182995
 20
82.176381
 30
0.0
 10
34.182995
 20
82.367272
 30
0.0
 10
34.028208
 20
82.522094
 30
0.0
 10
33.837279
 20
82.522094
 30
0.0
  0
LWPOLYLINE
  5
187
100
AcDbEntity
  8
0
 62
7
100
AcDbPolyline
 90
2
 70
0
 10
32.361280
 20
72.578409
 30
0.0
 10
32.361280
 20
74.049411
 30
0.0
  0
SPLINE
  5
188
100
AcDbEntity
  8
0
 62
7
100
AcDbSpline
 70
8
 71
3
 72
8
 73
4
 74
0
 40
0
 40
0
 40
0
 40
0
 40
1
 40
1
 40
1
 40
1
 10
32.132900
 20
82.520083
 30
0.0
 10
31.920712
 20
82.520083
 30
0.0
 10
31.748717
 20
82.692112
 30
0.0
 10
31.748717
 20
82.904300
 30
0.0
  0
LWPOLYLINE
  5
189
100
AcDbEntity
  8
0
 62
7
100
AcDbPolyline
 90
3
 70
0
 10
33.837279
 20
82.522094
 30
0.0
 10
33.007038
 20
82.521115
 30
0.0
 10
32.132900
 20
82.520083
 30
0.0
  0
SPLINE
  5
18a
100
AcDbEntity
  8
0
 62
7
100
AcDbSpline
 70
8
 71
3
 72
8
 73
4
 74
0
 40
0
 40
0
 40
0
 40
0
 40
1
 40
1
 40
1
 40
1
 10
31.748717
 20
99.308513
 30
0.0
 10
31.748717
 20
99.522993
 30
0.0
 10
31.574819
 20
99.696890
 30
0.0
 10
31.360306
 20
99.696890
 30
0.0
  0
SPLINE
  5
18b
100
AcDbEntity
  8
0
 62
7
100
AcDbSpline
 70
8
 71
3
 72
8
 73
4
 74
0
 40
0
 40
0
 40
0
 40
0
 40
1
 40
1
 40
1
 40
1
 10
31.360306
 20
99.696890
 30
0.0
 10
30.970836
 20
99.696890
 30
0.0
 10
30.931734
 20
100.097995
 30
0.0
 10
31.294440
 20
100.458482
 30
0.0
  0
SPLINE
  5
18c
100
AcDbEntity
  8
0
 62
7
100
AcDbSpline
 70
8
 71
3
 72
8
 73
4
 74
0
 40
0
 40
0
 40
0
 40
0
 40
1
 40
1
 40
1
 40
1
 10
31.294440
 20
100.458482
 30
0.0
 10
32.588057
 20
101.743811
 30
0.0
 10
32.425547
 20
104.068855
 30
0.0
 10
30.921050
 20
105.207260
 30
0.0
  0
SPLINE
  5
18d
100
AcDbEntity
  8
0
 62
7
100
AcDbSpline
 70
8
 71
3
 72
8
 73
4
 74
0
 40
0
 40
0
 40
0
 40
0
 40
1
 40
1
 40
1
 40
1
 10
30.921050
 20
105.207260
 30
0.0
 10
29.613050
 20
106.197048
 30
0.0
 10
28.694732
 20
108.730684
 30
0.0
 10
27.931869
 20
109.075093
 30
0.0
  0
SPLINE
  5
18e
100
AcDbEntity
  8
0
 62
7
100
AcDbSpline
 70
8
 71
3
 72
8
 73
4
 74
0
 40
0
 40
0
 40
0
 40
0
 40
1
 40
1
 40
1
 40
1
 10
27.931869
 20
109.075093
 30
0.0
 10
27.168972
 20
109.419502
 30
0.0
 10
28.750829
 20
107.743610
 30
0.0
 10
26.892224
 20
105.078635
 30
0.0
  0
SPLINE
  5
18f
100
AcDbEntity
  8
0
 62
7
100
AcDbSpline
 70
8
 71
3
 72
8
 73
4
 74
0
 40
0
 40
0
 40
0
 40
0
 40
1
 40
1
 40
1
 40
1
 10
26.892224
 20
105.078635
 30
0.0
 10
25.465684
 20
103.033230
 30
0.0
 10
26.122522
 20
101.158513
 30
0.0
 10
27.323971
 20
100.343256
 30
0.0
  0
SPLINE
  5
190
100
AcDbEntity
  8
0
 62
7
100
AcDbSpline
 70
8
 71
3
 72
8
 73
4
 74
0
 40
0
 40
0
 40
0
 40
0
 40
1
 40
1
 40
1
 40
1
 10
27.323971
 20
100.343256
 30
0.0
 10
27.651983
 20
100.129975
 30
0.0
 10
27.506893
 20
99.696890
 30
0.0
 10
27.015630
 20
99.696890
 30
0.0
  0
SPLINE
  5
191
100
AcDbEntity
  8
0
 62
7
100
AcDbSpline
 70
8
 71
3
 72
8
 73
4
 74
0
 40
0
 40
0
 40
0
 40
0
 40
1
 40
1
 40
1
 40
1
 10
27.015630
 20
99.696890
 30
0.0
 10
26.801151
 20
99.696890
 30
0.0
 10
26.627254
 20
99.522993
 30
0.0
 10
26.627254
 20
99.308513
 30
0.0
  0
LWPOLYLINE
  5
192
100
AcDbEntity
  8
0
 62
7
100
AcDbPolyline
 90
5
 70
0
 10
31.748717
 20
82.904300
 30
0.0
 10
31.748717
 20
85.064543
 30
0.0
 10
31.748717
 20
90.581189
 30
0.0
 10
31.748717
 20
92.638688
 30
0.0
 10
31.748717
 20
99.308513
 30
0.0
  0
SPLINE
  5
193
100
AcDbEntity
  8
0
 62
7
100
AcDbSpline
 70
8
 71
3
 72
8
 73
4
 74
0
 40
0
 40
0
 40
0
 40
0
 40
1
 40
1
 40
1
 40
1
 10
26.627254
 20
82.904300
 30
0.0
 10
26.627254
 20
82.692112
 30
0.0
 10
26.455225
 20
82.520083
 30
0.0
 10
26.243037
 20
82.520083
 30
0.0
  0
LWPOLYLINE
  5
194
100
AcDbEntity
  8
0
 62
7
100
AcDbPolyline
 90
3
 70
0
 10
26.627254
 20
99.308513
 30
0.0
 10
26.627254
 20
92.638688
 30
0.0
 10
26.627254
 20
82.904300
 30
0.0
  0
SPLINE
  5
195
100
AcDbEntity
  8
0
 62
7
100
AcDbSpline
 70
8
 71
3
 72
8
 73
4
 74
0
 40
0
 40
0
 40
0
 40
0
 40
1
 40
1
 40
1
 40
1
 10
24.538656
 20
82.522094
 30
0.0
 10
24.347765
 20
82.522094
 30
0.0
 10
24.192943
 20
82.367272
 30
0.0
 10
24.192943
 20
82.176381
 30
0.0
  0
SPLINE
  5
196
100
AcDbEntity
  8
0
 62
7
100
AcDbSpline
 70
8
 71
3
 72
8
 73
4
 74
0
 40
0
 40
0
 40
0
 40
0
 40
1
 40
1
 40
1
 40
1
 10
24.192943
 20
82.176381
 30
0.0
 10
24.192943
 20
81.396488
 30
0.0
 10
24.090621
 20
81.520212
 30
0.0
 10
24.304008
 20
80.770819
 30
0.0
  0
SPLINE
  5
197
100
AcDbEntity
  8
0
 62
7
100
AcDbSpline
 70
8
 71
3
 72
8
 73
4
 74
0
 40
0
 40
0
 40
0
 40
0
 40
1
 40
1
 40
1
 40
1
 10
24.304008
 20
80.770819
 30
0.0
 10
24.616014
 20
79.675113
 30
0.0
 10
24.445502
 20
79.731880
 30
0.0
 10
24.229647
 20
78.684337
 30
0.0
  0
SPLINE
  5
198
100
AcDbEntity
  8
0
 62
7
100
AcDbSpline
 70
8
 71
3
 72
8
 73
4
 74
0
 40
0
 40
0
 40
0
 40
0
 40
1
 40
1
 40
1
 40
1
 10
24.229647
 20
78.684337
 30
0.0
 10
24.048028
 20
77.802829
 30
0.0
 10
24.213145
 20
77.833892
 30
0.0
 10
24.213145
 20
76.933591
 30
0.0
  0
SPLINE
  5
199
100
AcDbEntity
  8
0
 62
7
100
AcDbSpline
 70
8
 71
3
 72
8
 73
4
 74
0
 40
0
 40
0
 40
0
 40
0
 40
1
 40
1
 40
1
 40
1
 10
24.213145
 20
76.933591
 30
0.0
 10
24.213145
 20
75.710741
 30
0.0
 10
26.014664
 20
75.463258
 30
0.0
 10
26.014664
 20
74.049411
 30
0.0
  0
LWPOLYLINE
  5
19a
100
AcDbEntity
  8
0
 62
7
100
AcDbPolyline
 90
2
 70
0
 10
26.243037
 20
82.520083
 30
0.0
 10
24.538656
 20
82.522094
 30
0.0
  0
SPLINE
  5
19b
100
AcDbEntity
  8
0
 62
7
100
AcDbSpline
 70
8
 71
3
 72
8
 73
4
 74
0
 40
0
 40
0
 40
0
 40
0
 40
1
 40
1
 40
1
 40
1
 10
26.014664
 20
72.578409
 30
0.0
 10
26.014664
 20
66.954434
 30
0.0
 10
29.270545
 20
65.117197
 30
0.0
 10
34.722207
 20
65.117197
 30
0.0
  0
SPLINE
  5
19c
100
AcDbEntity
  8
0
 62
7
100
AcDbSpline
 70
8
 71
3
 72
8
 73
4
 74
0
 40
0
 40
0
 40
0
 40
0
 40
1
 40
1
 40
1
 40
1
 10
34.722207
 20
65.117197
 30
0.0
 10
36.536455
 20
65.117197
 30
0.0
 10
36.536455
 20
59.679107
 30
0.0
 10
34.722207
 20
59.679107
 30
0.0
  0
SPLINE
  5
19d
100
AcDbEntity
  8
0
 62
7
100
AcDbSpline
 70
8
 71
3
 72
8
 73
4
 74
0
 40
0
 40
0
 40
0
 40
0
 40
1
 40
1
 40
1
 40
1
 10
34.722207
 20
59.679107
 30
0.0
 10
25.297075
 20
59.679107
 30
0.0
 10
19.668062
 20
62.855303
 30
0.0
 10
19.668062
 20
72.578409
 30
0.0
  0
LWPOLYLINE
  5
19e
100
AcDbEntity
  8
0
 62
7
100
AcDbPolyline
 90
2
 70
0
 10
26.014664
 20
74.049411
 30
0.0
 10
26.014664
 20
72.578409
 30
0.0
  0
SPLINE
  5
19f
100
AcDbEntity
  8
0
 62
7
100
AcDbSpline
 70
8
 71
3
 72
8
 73
4
 74
0
 40
0
 40
0
 40
0
 40
0
 40
1
 40
1
 40
1
 40
1
 10
19.668062
 20
74.049411
 30
0.0
 10
19.668062
 20
75.463258
 30
0.0
 10
21.469617
 20
75.710741
 30
0.0
 10
21.469617
 20
76.933591
 30
0.0
  0
SPLINE
  5
1a0
100
AcDbEntity
  8
0
 62
7
100
AcDbSpline
 70
8
 71
3
 72
8
 73
4
 74
0
 40
0
 40
0
 40
0
 40
0
 40
1
 40
1
 40
1
 40
1
 10
21.469617
 20
76.933591
 30
0.0
 10
21.469617
 20
77.833892
 30
0.0
 10
21.634734
 20
77.802829
 30
0.0
 10
21.453115
 20
78.684337
 30
0.0
  0
SPLINE
  5
1a1
100
AcDbEntity
  8
0
 62
7
100
AcDbSpline
 70
8
 71
3
 72
8
 73
4
 74
0
 40
0
 40
0
 40
0
 40
0
 40
1
 40
1
 40
1
 40
1
 10
21.453115
 20
78.684337
 30
0.0
 10
21.237225
 20
79.731880
 30
0.0
 10
21.066713
 20
79.675113
 30
0.0
 10
21.378754
 20
80.770819
 30
0.0
  0
SPLINE
  5
1a2
100
AcDbEntity
  8
0
 62
7
100
AcDbSpline
 70
8
 71
3
 72
8
 73
4
 74
0
 40
0
 40
0
 40
0
 40
0
 40
1
 40
1
 40
1
 40
1
 10
21.378754
 20
80.770819
 30
0.0
 10
21.592141
 20
81.520212
 30
0.0
 10
21.489784
 20
81.396488
 30
0.0
 10
21.489784
 20
82.176381
 30
0.0
  0
SPLINE
  5
1a3
100
AcDbEntity
  8
0
 62
7
100
AcDbSpline
 70
8
 71
3
 72
8
 73
4
 74
0
 40
0
 40
0
 40
0
 40
0
 40
1
 40
1
 40
1
 40
1
 10
21.489784
 20
82.176381
 30
0.0
 10
21.489784
 20
82.367272
 30
0.0
 10
21.334997
 20
82.522094
 30
0.0
 10
21.144071
 20
82.522094
 30
0.0
  0
LWPOLYLINE
  5
1a4
100
AcDbEntity
  8
0
 62
7
100
AcDbPolyline
 90
2
 70
0
 10
19.668062
 20
72.578409
 30
0.0
 10
19.668062
 20
74.049411
 30
0.0
  0
SPLINE
  5
1a5
100
AcDbEntity
  8
0
 62
7
100
AcDbSpline
 70
8
 71
3
 72
8
 73
4
 74
0
 40
0
 40
0
 40
0
 40
0
 40
1
 40
1
 40
1
 40
1
 10
19.439690
 20
82.520083
 30
0.0
 10
19.227502
 20
82.520083
 30
0.0
 10
19.055508
 20
82.692112
 30
0.0
 10
19.055508
 20
82.904300
 30
0.0
  0
LWPOLYLINE
  5
1a6
100
AcDbEntity
  8
0
 62
7
100
AcDbPolyline
 90
2
 70
0
 10
21.144071
 20
82.522094
 30
0.0
 10
19.439690
 20
82.520083
 30
0.0
  0
SPLINE
  5
1a7
100
AcDbEntity
  8
0
 62
7
100
AcDbSpline
 70
8
 71
3
 72
8
 73
4
 74
0
 40
0
 40
0
 40
0
 40
0
 40
1
 40
1
 40
1
 40
1
 10
19.055508
 20
100.070105
 30
0.0
 10
19.055508
 20
100.284585
 30
0.0
 10
18.881611
 20
100.458482
 30
0.0
 10
18.667096
 20
100.458482
 30
0.0
  0
SPLINE
  5
1a8
100
AcDbEntity
  8
0
 62
7
100
AcDbSpline
 70
8
 71
3
 72
8
 73
4
 74
0
 40
0
 40
0
 40
0
 40
0
 40
1
 40
1
 40
1
 40
1
 10
18.667096
 20
100.458482
 30
0.0
 10
18.277626
 20
100.458482
 30
0.0
 10
18.241345
 20
100.819216
 30
0.0
 10
18.604053
 20
101.179704
 30
0.0
  0
SPLINE
  5
1a9
100
AcDbEntity
  8
0
 62
7
100
AcDbSpline
 70
8
 71
3
 72
8
 73
4
 74
0
 40
0
 40
0
 40
0
 40
0
 40
1
 40
1
 40
1
 40
1
 10
18.604053
 20
101.179704
 30
0.0
 10
19.897668
 20
102.465032
 30
0.0
 10
19.088687
 20
105.140409
 30
0.0
 10
18.315988
 20
105.913778
 30
0.0
  0
SPLINE
  5
1aa
100
AcDbEntity
  8
0
 62
7
100
AcDbSpline
 70
8
 71
3
 72
8
 73
4
 74
0
 40
0
 40
0
 40
0
 40
0
 40
1
 40
1
 40
1
 40
1
 10
18.315988
 20
105.913778
 30
0.0
 10
16.619505
 20
107.612059
 30
0.0
 10
16.006529
 20
109.666773
 30
0.0
 10
15.425955
 20
110.244279
 30
0.0
  0
SPLINE
  5
1ab
100
AcDbEntity
  8
0
 62
7
100
AcDbSpline
 70
8
 71
3
 72
8
 73
4
 74
0
 40
0
 40
0
 40
0
 40
0
 40
1
 40
1
 40
1
 40
1
 10
15.425955
 20
110.244279
 30
0.0
 10
14.845346
 20
110.821749
 30
0.0
 10
15.777169
 20
108.632840
 30
0.0
 10
14.485529
 20
106.853992
 30
0.0
  0
SPLINE
  5
1ac
100
AcDbEntity
  8
0
 62
7
100
AcDbSpline
 70
8
 71
3
 72
8
 73
4
 74
0
 40
0
 40
0
 40
0
 40
0
 40
1
 40
1
 40
1
 40
1
 10
14.485529
 20
106.853992
 30
0.0
 10
13.020239
 20
104.835948
 30
0.0
 10
13.429313
 20
101.920106
 30
0.0
 10
14.630761
 20
101.104849
 30
0.0
  0
SPLINE
  5
1ad
100
AcDbEntity
  8
0
 62
7
100
AcDbSpline
 70
8
 71
3
 72
8
 73
4
 74
0
 40
0
 40
0
 40
0
 40
0
 40
1
 40
1
 40
1
 40
1
 10
14.630761
 20
101.104849
 30
0.0
 10
14.958774
 20
100.891568
 30
0.0
 10
14.813684
 20
100.458482
 30
0.0
 10
14.322422
 20
100.458482
 30
0.0
  0
SPLINE
  5
1ae
100
AcDbEntity
  8
0
 62
7
100
AcDbSpline
 70
8
 71
3
 72
8
 73
4
 74
0
 40
0
 40
0
 40
0
 40
0
 40
1
 40
1
 40
1
 40
1
 10
14.322422
 20
100.458482
 30
0.0
 10
14.107941
 20
100.458482
 30
0.0
 10
13.934044
 20
100.284585
 30
0.0
 10
13.934044
 20
100.070105
 30
0.0
  0
LWPOLYLINE
  5
1af
100
AcDbEntity
  8
0
 62
7
100
AcDbPolyline
 90
3
 70
0
 10
19.055508
 20
82.904300
 30
0.0
 10
19.055508
 20
92.638688
 30
0.0
 10
19.055508
 20
100.070105
 30
0.0
  0
SPLINE
  5
1b0
100
AcDbEntity
  8
0
 62
7
100
AcDbSpline
 70
8
 71
3
 72
8
 73
4
 74
0
 40
0
 40
0
 40
0
 40
0
 40
1
 40
1
 40
1
 40
1
 10
13.934044
 20
82.904300
 30
0.0
 10
13.934044
 20
82.692112
 30
0.0
 10
13.762016
 20
82.520083
 30
0.0
 10
13.549828
 20
82.520083
 30
0.0
  0
LWPOLYLINE
  5
1b1
100
AcDbEntity
  8
0
 62
7
100
AcDbPolyline
 90
3
 70
0
 10
13.934044
 20
100.070105
 30
0.0
 10
13.934044
 20
92.638688
 30
0.0
 10
13.934044
 20
82.904300
 30
0.0
  0
SPLINE
  5
1b2
100
AcDbEntity
  8
0
 62
7
100
AcDbSpline
 70
8
 71
3
 72
8
 73
4
 74
0
 40
0
 40
0
 40
0
 40
0
 40
1
 40
1
 40
1
 40
1
 10
11.845447
 20
82.522094
 30
0.0
 10
11.654555
 20
82.522094
 30
0.0
 10
11.499733
 20
82.367272
 30
0.0
 10
11.499733
 20
82.176381
 30
0.0
  0
SPLINE
  5
1b3
100
AcDbEntity
  8
0
 62
7
100
AcDbSpline
 70
8
 71
3
 72
8
 73
4
 74
0
 40
0
 40
0
 40
0
 40
0
 40
1
 40
1
 40
1
 40
1
 10
11.499733
 20
82.176381
 30
0.0
 10
11.499733
 20
81.396488
 30
0.0
 10
11.397412
 20
81.520212
 30
0.0
 10
11.610799
 20
80.770819
 30
0.0
  0
SPLINE
  5
1b4
100
AcDbEntity
  8
0
 62
7
100
AcDbSpline
 70
8
 71
3
 72
8
 73
4
 74
0
 40
0
 40
0
 40
0
 40
0
 40
1
 40
1
 40
1
 40
1
 10
11.610799
 20
80.770819
 30
0.0
 10
11.922805
 20
79.675113
 30
0.0
 10
11.752293
 20
79.731880
 30
0.0
 10
11.536438
 20
78.684337
 30
0.0
  0
SPLINE
  5
1b5
100
AcDbEntity
  8
0
 62
7
100
AcDbSpline
 70
8
 71
3
 72
8
 73
4
 74
0
 40
0
 40
0
 40
0
 40
0
 40
1
 40
1
 40
1
 40
1
 10
11.536438
 20
78.684337
 30
0.0
 10
11.354819
 20
77.802829
 30
0.0
 10
11.519936
 20
77.833892
 30
0.0
 10
11.519936
 20
76.933591
 30
0.0
  0
SPLINE
  5
1b6
100
AcDbEntity
  8
0
 62
7
100
AcDbSpline
 70
8
 71
3
 72
8
 73
4
 74
0
 40
0
 40
0
 40
0
 40
0
 40
1
 40
1
 40
1
 40
1
 10
11.519936
 20
76.933591
 30
0.0
 10
11.519936
 20
75.710741
 30
0.0
 10
13.321455
 20
75.463258
 30
0.0
 10
13.321455
 20
74.049411
 30
0.0
  0
LWPOLYLINE
  5
1b7
100
AcDbEntity
  8
0
 62
7
100
AcDbPolyline
 90
2
 70
0
 10
13.549828
 20
82.520083
 30
0.0
 10
11.845447
 20
82.522094
 30
0.0
  0
SPLINE
  5
1b8
100
AcDbEntity
  8
0
 62
7
100
AcDbSpline
 70
8
 71
3
 72
8
 73
4
 74
0
 40
0
 40
0
 40
0
 40
0
 40
1
 40
1
 40
1
 40
1
 10
13.321455
 20
73.340001
 30
0.0
 10
13.321455
 20
59.517904
 30
0.0
 10
21.323502
 20
55.002610
 30
0.0
 10
34.722205
 20
55.002610
 30
0.0
  0
SPLINE
  5
1b9
100
AcDbEntity
  8
0
 62
7
100
AcDbSpline
 70
8
 71
3
 72
8
 73
4
 74
0
 40
0
 40
0
 40
0
 40
0
 40
1
 40
1
 40
1
 40
1
 10
34.722205
 20
55.002610
 30
0.0
 10
36.536453
 20
55.002610
 30
0.0
 10
36.536453
 20
49.564523
 30
0.0
 10
34.722416
 20
49.564523
 30
0.0
  0
SPLINE
  5
1ba
100
AcDbEntity
  8
0
 62
7
100
AcDbSpline
 70
8
 71
3
 72
8
 73
4
 74
0
 40
0
 40
0
 40
0
 40
0
 40
1
 40
1
 40
1
 40
1
 10
34.722416
 20
49.564523
 30
0.0
 10
17.350210
 20
49.564523
 30
0.0
 10
6.975061
 20
55.418773
 30
0.0
 10
6.975061
 20
73.340001
 30
0.0
  0
LWPOLYLINE
  5
1bb
100
AcDbEntity
  8
0
 62
7
100
AcDbPolyline
 90
2
 70
0
 10
13.321455
 20
74.049411
 30
0.0
 10
13.321455
 20
73.340001
 30
0.0
  0
SPLINE
  5
1bc
100
AcDbEntity
  8
0
 62
7
100
AcDbSpline
 70
8
 71
3
 72
8
 73
4
 74
0
 40
0
 40
0
 40
0
 40
0
 40
1
 40
1
 40
1
 40
1
 10
6.975061
 20
74.049411
 30
0.0
 10
6.975061
 20
75.463258
 30
0.0
 10
8.776580
 20
75.710741
 30
0.0
 10
8.776580
 20
76.933591
 30
0.0
  0
SPLINE
  5
1bd
100
AcDbEntity
  8
0
 62
7
100
AcDbSpline
 70
8
 71
3
 72
8
 73
4
 74
0
 40
0
 40
0
 40
0
 40
0
 40
1
 40
1
 40
1
 40
1
 10
8.776580
 20
76.933591
 30
0.0
 10
8.776580
 20
77.833892
 30
0.0
 10
8.941698
 20
77.802829
 30
0.0
 10
8.760115
 20
78.684337
 30
0.0
  0
SPLINE
  5
1be
100
AcDbEntity
  8
0
 62
7
100
AcDbSpline
 70
8
 71
3
 72
8
 73
4
 74
0
 40
0
 40
0
 40
0
 40
0
 40
1
 40
1
 40
1
 40
1
 10
8.760115
 20
78.684337
 30
0.0
 10
8.544225
 20
79.731880
 30
0.0
 10
8.373713
 20
79.675113
 30
0.0
 10
8.685754
 20
80.770819
 30
0.0
  0
SPLINE
  5
1bf
100
AcDbEntity
  8
0
 62
7
100
AcDbSpline
 70
8
 71
3
 72
8
 73
4
 74
0
 40
0
 40
0
 40
0
 40
0
 40
1
 40
1
 40
1
 40
1
 10
8.685754
 20
80.770819
 30
0.0
 10
8.899141
 20
81.520212
 30
0.0
 10
8.796784
 20
81.396488
 30
0.0
 10
8.796784
 20
82.176381
 30
0.0
  0
SPLINE
  5
1c0
100
AcDbEntity
  8
0
 62
7
100
AcDbSpline
 70
8
 71
3
 72
8
 73
4
 74
0
 40
0
 40
0
 40
0
 40
0
 40
1
 40
1
 40
1
 40
1
 10
8.796784
 20
82.176381
 30
0.0
 10
8.796784
 20
82.367272
 30
0.0
 10
8.641962
 20
82.522094
 30
0.0
 10
8.451071
 20
82.522094
 30
0.0
  0
LWPOLYLINE
  5
1c1
100
AcDbEntity
  8
0
 62
7
100
AcDbPolyline
 90
2
 70
0
 10
6.975061
 20
73.340001
 30
0.0
 10
6.975061
 20
74.049411
 30
0.0
  0
SPLINE
  5
1c2
100
AcDbEntity
  8
0
 62
7
100
AcDbSpline
 70
8
 71
3
 72
8
 73
4
 74
0
 40
0
 40
0
 40
0
 40
0
 40
1
 40
1
 40
1
 40
1
 10
6.746690
 20
82.520083
 30
0.0
 10
6.534502
 20
82.520083
 30
0.0
 10
6.362473
 20
82.692112
 30
0.0
 10
6.362473
 20
82.904300
 30
0.0
  0
LWPOLYLINE
  5
1c3
100
AcDbEntity
  8
0
 62
7
100
AcDbPolyline
 90
2
 70
0
 10
8.451071
 20
82.522094
 30
0.0
 10
6.746690
 20
82.520083
 30
0.0
  0
SPLINE
  5
1c4
100
AcDbEntity
  8
0
 62
7
100
AcDbSpline
 70
8
 71
3
 72
8
 73
4
 74
0
 40
0
 40
0
 40
0
 40
0
 40
1
 40
1
 40
1
 40
1
 10
6.362473
 20
98.546920
 30
0.0
 10
6.362473
 20
98.761400
 30
0.0
 10
6.188576
 20
98.935297
 30
0.0
 10
5.974096
 20
98.935297
 30
0.0
  0
SPLINE
  5
1c5
100
AcDbEntity
  8
0
 62
7
100
AcDbSpline
 70
8
 71
3
 72
8
 73
4
 74
0
 40
0
 40
0
 40
0
 40
0
 40
1
 40
1
 40
1
 40
1
 10
5.974096
 20
98.935297
 30
0.0
 10
5.584591
 20
98.935297
 30
0.0
 10
5.550919
 20
99.210669
 30
0.0
 10
5.913733
 20
99.571192
 30
0.0
  0
SPLINE
  5
1c6
100
AcDbEntity
  8
0
 62
7
100
AcDbSpline
 70
8
 71
3
 72
8
 73
4
 74
0
 40
0
 40
0
 40
0
 40
0
 40
1
 40
1
 40
1
 40
1
 10
5.913733
 20
99.571192
 30
0.0
 10
7.207348
 20
100.856591
 30
0.0
 10
6.951967
 20
103.384127
 30
0.0
 10
5.490767
 20
104.577888
 30
0.0
  0
SPLINE
  5
1c7
100
AcDbEntity
  8
0
 62
7
100
AcDbSpline
 70
8
 71
3
 72
8
 73
4
 74
0
 40
0
 40
0
 40
0
 40
0
 40
1
 40
1
 40
1
 40
1
 10
5.490767
 20
104.577888
 30
0.0
 10
3.631635
 20
106.096595
 30
0.0
 10
4.641803
 20
109.373947
 30
0.0
 10
4.170849
 20
108.704592
 30
0.0
  0
SPLINE
  5
1c8
100
AcDbEntity
  8
0
 62
7
100
AcDbSpline
 70
8
 71
3
 72
8
 73
4
 74
0
 40
0
 40
0
 40
0
 40
0
 40
1
 40
1
 40
1
 40
1
 10
4.170849
 20
108.704592
 30
0.0
 10
3.699896
 20
108.035237
 30
0.0
 10
3.530018
 20
107.951779
 30
0.0
 10
1.671309
 20
105.286733
 30
0.0
  0
SPLINE
  5
1c9
100
AcDbEntity
  8
0
 62
7
100
AcDbSpline
 70
8
 71
3
 72
8
 73
4
 74
0
 40
0
 40
0
 40
0
 40
0
 40
1
 40
1
 40
1
 40
1
 10
1.671309
 20
105.286733
 30
0.0
 10
0.244663
 20
103.241222
 30
0.0
 10
0.736313
 20
100.396920
 30
0.0
 10
1.937761
 20
99.581664
 30
0.0
  0
SPLINE
  5
1ca
100
AcDbEntity
  8
0
 62
7
100
AcDbSpline
 70
8
 71
3
 72
8
 73
4
 74
0
 40
0
 40
0
 40
0
 40
0
 40
1
 40
1
 40
1
 40
1
 10
1.937761
 20
99.581664
 30
0.0
 10
2.265775
 20
99.368382
 30
0.0
 10
2.120649
 20
98.935297
 30
0.0
 10
1.629422
 20
98.935297
 30
0.0
  0
SPLINE
  5
1cb
100
AcDbEntity
  8
0
 62
7
100
AcDbSpline
 70
8
 71
3
 72
8
 73
4
 74
0
 40
0
 40
0
 40
0
 40
0
 40
1
 40
1
 40
1
 40
1
 10
1.629422
 20
98.935297
 30
0.0
 10
1.414942
 20
98.935297
 30
0.0
 10
1.241045
 20
98.761400
 30
0.0
 10
1.241045
 20
98.546920
 30
0.0
  0
LWPOLYLINE
  5
1cc
100
AcDbEntity
  8
0
 62
7
100
AcDbPolyline
 90
3
 70
0
 10
6.362473
 20
82.904300
 30
0.0
 10
6.362473
 20
92.638688
 30
0.0
 10
6.362473
 20
98.546920
 30
0.0
  0
SPLINE
  5
1cd
100
AcDbEntity
  8
0
 62
7
100
AcDbSpline
 70
8
 71
3
 72
8
 73
4
 74
0
 40
0
 40
0
 40
0
 40
0
 40
1
 40
1
 40
1
 40
1
 10
1.241045
 20
82.904300
 30
0.0
 10
1.241045
 20
82.692112
 30
0.0
 10
1.069016
 20
82.520083
 30
0.0
 10
0.856828
 20
82.520083
 30
0.0
  0
LWPOLYLINE
  5
1ce
100
AcDbEntity
  8
0
 62
7
100
AcDbPolyline
 90
3
 70
0
 10
1.241045
 20
98.546920
 30
0.0
 10
1.241045
 20
92.638688
 30
0.0
 10
1.241045
 20
82.904300
 30
0.0
  0
SPLINE
  5
1cf
100
AcDbEntity
  8
0
 62
7
100
AcDbSpline
 70
8
 71
3
 72
8
 73
4
 74
0
 40
0
 40
0
 40
0
 40
0
 40
1
 40
1
 40
1
 40
1
 10
-0.847553
 20
82.522094
 30
0.0
 10
-1.038445
 20
82.522094
 30
0.0
 10
-1.193267
 20
82.367272
 30
0.0
 10
-1.193267
 20
82.176381
 30
0.0
  0
SPLINE
  5
1d0
100
AcDbEntity
  8
0
 62
7
100
AcDbSpline
 70
8
 71
3
 72
8
 73
4
 74
0
 40
0
 40
0
 40
0
 40
0
 40
1
 40
1
 40
1
 40
1
 10
-1.193267
 20
82.176381
 30
0.0
 10
-1.193267
 20
81.396488
 30
0.0
 10
-1.295623
 20
81.520212
 30
0.0
 10
-1.082236
 20
80.770819
 30
0.0
  0
SPLINE
  5
1d1
100
AcDbEntity
  8
0
 62
7
100
AcDbSpline
 70
8
 71
3
 72
8
 73
4
 74
0
 40
0
 40
0
 40
0
 40
0
 40
1
 40
1
 40
1
 40
1
 10
-1.082236
 20
80.770819
 30
0.0
 10
-0.770195
 20
79.675113
 30
0.0
 10
-0.940707
 20
79.731880
 30
0.0
 10
-1.156597
 20
78.684337
 30
0.0
  0
SPLINE
  5
1d2
100
AcDbEntity
  8
0
 62
7
100
AcDbSpline
 70
8
 71
3
 72
8
 73
4
 74
0
 40
0
 40
0
 40
0
 40
0
 40
1
 40
1
 40
1
 40
1
 10
-1.156597
 20
78.684337
 30
0.0
 10
-1.338181
 20
77.802829
 30
0.0
 10
-1.173063
 20
77.833892
 30
0.0
 10
-1.173063
 20
76.933591
 30
0.0
  0
SPLINE
  5
1d3
100
AcDbEntity
  8
0
 62
7
100
AcDbSpline
 70
8
 71
3
 72
8
 73
4
 74
0
 40
0
 40
0
 40
0
 40
0
 40
1
 40
1
 40
1
 40
1
 10
-1.173063
 20
76.933591
 30
0.0
 10
-1.173063
 20
75.710741
 30
0.0
 10
0.628456
 20
75.463258
 30
0.0
 10
0.628456
 20
74.049411
 30
0.0
  0
LWPOLYLINE
  5
1d4
100
AcDbEntity
  8
0
 62
7
100
AcDbPolyline
 90
2
 70
0
 10
0.856828
 20
82.520083
 30
0.0
 10
-0.847553
 20
82.522094
 30
0.0
  0
SPLINE
  5
1d5
100
AcDbEntity
  8
0
 62
7
100
AcDbSpline
 70
8
 71
3
 72
8
 73
4
 74
0
 40
0
 40
0
 40
0
 40
0
 40
1
 40
1
 40
1
 40
1
 10
0.628456
 20
73.340001
 30
0.0
 10
0.628456
 20
51.319676
 30
0.0
 10
13.395429
 20
44.126221
 30
0.0
 10
34.741210
 20
44.126221
 30
0.0
  0
SPLINE
  5
1d6
100
AcDbEntity
  8
0
 62
7
100
AcDbSpline
 70
8
 71
3
 72
8
 73
4
 74
0
 40
0
 40
0
 40
0
 40
0
 40
1
 40
1
 40
1
 40
1
 10
34.741210
 20
44.126221
 30
0.0
 10
36.536453
 20
44.126221
 30
0.0
 10
36.536453
 20
38.688132
 30
0.0
 10
34.740998
 20
38.688132
 30
0.0
  0
SPLINE
  5
1d7
100
AcDbEntity
  8
0
 62
7
100
AcDbSpline
 70
8
 71
3
 72
8
 73
4
 74
0
 40
0
 40
0
 40
0
 40
0
 40
1
 40
1
 40
1
 40
1
 10
34.740998
 20
38.688132
 30
0.0
 10
9.421749
 20
38.688132
 30
0.0
 10
-5.718361
 20
47.220579
 30
0.0
 10
-5.718361
 20
73.340001
 30
0.0
  0
LWPOLYLINE
  5
1d8
100
AcDbEntity
  8
0
 62
7
100
AcDbPolyline
 90
2
 70
0
 10
0.628456
 20
74.049411
 30
0.0
 10
0.628456
 20
73.340001
 30
0.0
  0
SPLINE
  5
1d9
100
AcDbEntity
  8
0
 62
7
100
AcDbSpline
 70
8
 71
3
 72
8
 73
4
 74
0
 40
0
 40
0
 40
0
 40
0
 40
1
 40
1
 40
1
 40
1
 10
-5.718361
 20
74.049411
 30
0.0
 10
-5.718361
 20
75.463258
 30
0.0
 10
-3.916807
 20
75.710741
 30
0.0
 10
-3.916807
 20
76.933591
 30
0.0
  0
SPLINE
  5
1da
100
AcDbEntity
  8
0
 62
7
100
AcDbSpline
 70
8
 71
3
 72
8
 73
4
 74
0
 40
0
 40
0
 40
0
 40
0
 40
1
 40
1
 40
1
 40
1
 10
-3.916807
 20
76.933591
 30
0.0
 10
-3.916807
 20
77.833892
 30
0.0
 10
-3.751689
 20
77.802829
 30
0.0
 10
-3.933309
 20
78.684337
 30
0.0
  0
SPLINE
  5
1db
100
AcDbEntity
  8
0
 62
7
100
AcDbSpline
 70
8
 71
3
 72
8
 73
4
 74
0
 40
0
 40
0
 40
0
 40
0
 40
1
 40
1
 40
1
 40
1
 10
-3.933309
 20
78.684337
 30
0.0
 10
-4.149199
 20
79.731880
 30
0.0
 10
-4.319711
 20
79.675113
 30
0.0
 10
-4.007670
 20
80.770819
 30
0.0
  0
SPLINE
  5
1dc
100
AcDbEntity
  8
0
 62
7
100
AcDbSpline
 70
8
 71
3
 72
8
 73
4
 74
0
 40
0
 40
0
 40
0
 40
0
 40
1
 40
1
 40
1
 40
1
 10
-4.007670
 20
80.770819
 30
0.0
 10
-3.794283
 20
81.520212
 30
0.0
 10
-3.896639
 20
81.396488
 30
0.0
 10
-3.896639
 20
82.176381
 30
0.0
  0
SPLINE
  5
1dd
100
AcDbEntity
  8
0
 62
7
100
AcDbSpline
 70
8
 71
3
 72
8
 73
4
 74
0
 40
0
 40
0
 40
0
 40
0
 40
1
 40
1
 40
1
 40
1
 10
-3.896639
 20
82.176381
 30
0.0
 10
-3.896639
 20
82.367272
 30
0.0
 10
-4.051426
 20
82.522094
 30
0.0
 10
-4.242353
 20
82.522094
 30
0.0
  0
LWPOLYLINE
  5
1de
100
AcDbEntity
  8
0
 62
7
100
AcDbPolyline
 90
2
 70
0
 10
-5.718361
 20
73.340001
 30
0.0
 10
-5.718361
 20
74.049411
 30
0.0
  0
SPLINE
  5
1df
100
AcDbEntity
  8
0
 62
7
100
AcDbSpline
 70
8
 71
3
 72
8
 73
4
 74
0
 40
0
 40
0
 40
0
 40
0
 40
1
 40
1
 40
1
 40
1
 10
-5.946734
 20
82.520083
 30
0.0
 10
-6.158922
 20
82.520083
 30
0.0
 10
-6.330915
 20
82.692112
 30
0.0
 10
-6.330915
 20
82.904300
 30
0.0
  0
LWPOLYLINE
  5
1e0
100
AcDbEntity
  8
0
 62
7
100
AcDbPolyline
 90
2
 70
0
 10
-4.242353
 20
82.522094
 30
0.0
 10
-5.946734
 20
82.520083
 30
0.0
  0
SPLINE
  5
1e1
100
AcDbEntity
  8
0
 62
7
100
AcDbSpline
 70
8
 71
3
 72
8
 73
4
 74
0
 40
0
 40
0
 40
0
 40
0
 40
1
 40
1
 40
1
 40
1
 10
-6.330915
 20
99.308513
 30
0.0
 10
-6.330915
 20
99.522993
 30
0.0
 10
-6.504812
 20
99.696890
 30
0.0
 10
-6.719328
 20
99.696890
 30
0.0
  0
SPLINE
  5
1e2
100
AcDbEntity
  8
0
 62
7
100
AcDbSpline
 70
8
 71
3
 72
8
 73
4
 74
0
 40
0
 40
0
 40
0
 40
0
 40
1
 40
1
 40
1
 40
1
 10
-6.719328
 20
99.696890
 30
0.0
 10
-7.108798
 20
99.696890
 30
0.0
 10
-7.142576
 20
99.972262
 30
0.0
 10
-6.779691
 20
100.332784
 30
0.0
  0
SPLINE
  5
1e3
100
AcDbEntity
  8
0
 62
7
100
AcDbSpline
 70
8
 71
3
 72
8
 73
4
 74
0
 40
0
 40
0
 40
0
 40
0
 40
1
 40
1
 40
1
 40
1
 10
-6.779691
 20
100.332784
 30
0.0
 10
-5.486076
 20
101.618289
 30
0.0
 10
-5.785530
 20
104.432163
 30
0.0
 10
-7.246731
 20
105.625924
 30
0.0
  0
SPLINE
  5
1e4
100
AcDbEntity
  8
0
 62
7
100
AcDbSpline
 70
8
 71
3
 72
8
 73
4
 74
0
 40
0
 40
0
 40
0
 40
0
 40
1
 40
1
 40
1
 40
1
 10
-7.246731
 20
105.625924
 30
0.0
 10
-9.105828
 20
107.144632
 30
0.0
 10
-8.608007
 20
110.262261
 30
0.0
 10
-8.979812
 20
109.780201
 30
0.0
  0
SPLINE
  5
1e5
100
AcDbEntity
  8
0
 62
7
100
AcDbSpline
 70
8
 71
3
 72
8
 73
4
 74
0
 40
0
 40
0
 40
0
 40
0
 40
1
 40
1
 40
1
 40
1
 10
-8.979812
 20
109.780201
 30
0.0
 10
-9.351617
 20
109.298176
 30
0.0
 10
-9.042185
 20
108.757445
 30
0.0
 10
-10.900895
 20
106.092400
 30
0.0
  0
SPLINE
  5
1e6
100
AcDbEntity
  8
0
 62
7
100
AcDbSpline
 70
8
 71
3
 72
8
 73
4
 74
0
 40
0
 40
0
 40
0
 40
0
 40
1
 40
1
 40
1
 40
1
 10
-10.900895
 20
106.092400
 30
0.0
 10
-12.327506
 20
104.046889
 30
0.0
 10
-11.957111
 20
101.158513
 30
0.0
 10
-10.755663
 20
100.343256
 30
0.0
  0
SPLINE
  5
1e7
100
AcDbEntity
  8
0
 62
7
100
AcDbSpline
 70
8
 71
3
 72
8
 73
4
 74
0
 40
0
 40
0
 40
0
 40
0
 40
1
 40
1
 40
1
 40
1
 10
-10.755663
 20
100.343256
 30
0.0
 10
-10.427649
 20
100.129975
 30
0.0
 10
-10.572740
 20
99.696890
 30
0.0
 10
-11.064002
 20
99.696890
 30
0.0
  0
SPLINE
  5
1e8
100
AcDbEntity
  8
0
 62
7
100
AcDbSpline
 70
8
 71
3
 72
8
 73
4
 74
0
 40
0
 40
0
 40
0
 40
0
 40
1
 40
1
 40
1
 40
1
 10
-11.064002
 20
99.696890
 30
0.0
 10
-11.278482
 20
99.696890
 30
0.0
 10
-11.452380
 20
99.522993
 30
0.0
 10
-11.452380
 20
99.308513
 30
0.0
  0
LWPOLYLINE
  5
1e9
100
AcDbEntity
  8
0
 62
7
100
AcDbPolyline
 90
3
 70
0
 10
-6.330915
 20
82.904300
 30
0.0
 10
-6.330915
 20
92.638688
 30
0.0
 10
-6.330915
 20
99.308513
 30
0.0
  0
SPLINE
  5
1ea
100
AcDbEntity
  8
0
 62
7
100
AcDbSpline
 70
8
 71
3
 72
8
 73
4
 74
0
 40
0
 40
0
 40
0
 40
0
 40
1
 40
1
 40
1
 40
1
 10
-11.452380
 20
82.904300
 30
0.0
 10
-11.452380
 20
82.692112
 30
0.0
 10
-11.624408
 20
82.520083
 30
0.0
 10
-11.836596
 20
82.520083
 30
0.0
  0
LWPOLYLINE
  5
1eb
100
AcDbEntity
  8
0
 62
7
100
AcDbPolyline
 90
3
 70
0
 10
-11.452380
 20
99.308513
 30
0.0
 10
-11.452380
 20
92.638688
 30
0.0
 10
-11.452380
 20
82.904300
 30
0.0
  0
SPLINE
  5
1ec
100
AcDbEntity
  8
0
 62
7
100
AcDbSpline
 70
8
 71
3
 72
8
 73
4
 74
0
 40
0
 40
0
 40
0
 40
0
 40
1
 40
1
 40
1
 40
1
 10
-13.540977
 20
82.522094
 30
0.0
 10
-13.731869
 20
82.522094
 30
0.0
 10
-13.886691
 20
82.367272
 30
0.0
 10
-13.886691
 20
82.176381
 30
0.0
  0
SPLINE
  5
1ed
100
AcDbEntity
  8
0
 62
7
100
AcDbSpline
 70
8
 71
3
 72
8
 73
4
 74
0
 40
0
 40
0
 40
0
 40
0
 40
1
 40
1
 40
1
 40
1
 10
-13.886691
 20
82.176381
 30
0.0
 10
-13.886691
 20
81.396488
 30
0.0
 10
-13.989012
 20
81.520212
 30
0.0
 10
-13.775625
 20
80.770819
 30
0.0
  0
SPLINE
  5
1ee
100
AcDbEntity
  8
0
 62
7
100
AcDbSpline
 70
8
 71
3
 72
8
 73
4
 74
0
 40
0
 40
0
 40
0
 40
0
 40
1
 40
1
 40
1
 40
1
 10
-13.775625
 20
80.770819
 30
0.0
 10
-13.463619
 20
79.675113
 30
0.0
 10
-13.634131
 20
79.731880
 30
0.0
 10
-13.849986
 20
78.684337
 30
0.0
  0
SPLINE
  5
1ef
100
AcDbEntity
  8
0
 62
7
100
AcDbSpline
 70
8
 71
3
 72
8
 73
4
 74
0
 40
0
 40
0
 40
0
 40
0
 40
1
 40
1
 40
1
 40
1
 10
-13.849986
 20
78.684337
 30
0.0
 10
-14.031605
 20
77.802829
 30
0.0
 10
-13.866488
 20
77.833892
 30
0.0
 10
-13.866488
 20
76.933591
 30
0.0
  0
SPLINE
  5
1f0
100
AcDbEntity
  8
0
 62
7
100
AcDbSpline
 70
8
 71
3
 72
8
 73
4
 74
0
 40
0
 40
0
 40
0
 40
0
 40
1
 40
1
 40
1
 40
1
 10
-13.866488
 20
76.933591
 30
0.0
 10
-13.866488
 20
75.710741
 30
0.0
 10
-12.064969
 20
75.463258
 30
0.0
 10
-12.064969
 20
74.049411
 30
0.0
  0
LWPOLYLINE
  5
1f1
100
AcDbEntity
  8
0
 62
7
100
AcDbPolyline
 90
2
 70
0
 10
-11.836596
 20
82.520083
 30
0.0
 10
-13.540977
 20
82.522094
 30
0.0
  0
SPLINE
  5
1f2
100
AcDbEntity
  8
0
 62
7
100
AcDbSpline
 70
8
 71
3
 72
8
 73
4
 74
0
 40
0
 40
0
 40
0
 40
0
 40
1
 40
1
 40
1
 40
1
 10
-12.064969
 20
72.578409
 30
0.0
 10
-12.064969
 20
42.208947
 30
0.0
 10
5.994298
 20
32.498959
 30
0.0
 10
33.925954
 20
32.498959
 30
0.0
  0
LWPOLYLINE
  5
1f3
100
AcDbEntity
  8
0
 62
7
100
AcDbPolyline
 90
2
 70
0
 10
-12.064969
 20
74.049411
 30
0.0
 10
-12.064969
 20
72.578409
 30
0.0
  0
SPLINE
  5
1f4
100
AcDbEntity
  8
0
 62
7
100
AcDbSpline
 70
8
 71
3
 72
8
 73
4
 74
0
 40
0
 40
0
 40
0
 40
0
 40
1
 40
1
 40
1
 40
1
 10
33.913149
 20
32.498959
 30
0.0
 10
34.355826
 20
32.498959
 30
0.0
 10
34.714725
 20
32.143724
 30
0.0
 10
34.714725
 20
31.705561
 30
0.0
  0
LWPOLYLINE
  5
1f5
100
AcDbEntity
  8
0
 62
7
100
AcDbPolyline
 90
2
 70
0
 10
33.925954
 20
32.498959
 30
0.0
 10
33.913149
 20
32.498959
 30
0.0
  0
SPLINE
  5
1f6
100
AcDbEntity
  8
0
 62
7
100
AcDbSpline
 70
8
 71
3
 72
8
 73
4
 74
0
 40
0
 40
0
 40
0
 40
0
 40
1
 40
1
 40
1
 40
1
 10
34.712873
 20
23.933333
 30
0.0
 10
34.712873
 20
13.547288
 30
0.0
 10
29.713828
 20
-2.798289
 30
0.0
 10
23.040018
 20
-5.793359
 30
0.0
  0
SPLINE
  5
1f7
100
AcDbEntity
  8
0
 62
7
100
AcDbSpline
 70
8
 71
3
 72
8
 73
4
 74
0
 40
0
 40
0
 40
0
 40
0
 40
1
 40
1
 40
1
 40
1
 10
23.040018
 20
-5.793359
 30
0.0
 10
10.681383
 20
-11.339515
 30
0.0
 10
7.662584
 20
-16.255280
 30
0.0
 10
14.114650
 20
-16.255280
 30
0.0
  0
LWPOLYLINE
  5
1f8
100
AcDbEntity
  8
0
 62
7
100
AcDbPolyline
 90
2
 70
0
 10
34.714725
 20
31.705561
 30
0.0
 10
34.712873
 20
23.933333
 30
0.0
  0
SPLINE
  5
1f9
100
AcDbEntity
  8
0
 62
7
100
AcDbSpline
 70
8
 71
3
 72
8
 73
4
 74
0
 40
0
 40
0
 40
0
 40
0
 40
1
 40
1
 40
1
 40
1
 10
69.648051
 20
-16.255280
 30
0.0
 10
76.100117
 20
-16.255280
 30
0.0
 10
73.081319
 20
-11.339515
 30
0.0
 10
60.722820
 20
-5.793359
 30
0.0
  0
SPLINE
  5
1fa
100
AcDbEntity
  8
0
 62
7
100
AcDbSpline
 70
8
 71
3
 72
8
 73
4
 74
0
 40
0
 40
0
 40
0
 40
0
 40
1
 40
1
 40
1
 40
1
 10
60.722820
 20
-5.793359
 30
0.0
 10
54.049012
 20
-2.798289
 30
0.0
 10
49.049966
 20
13.547288
 30
0.0
 10
49.049966
 20
23.933333
 30
0.0
  0
LWPOLYLINE
  5
1fb
100
AcDbEntity
  8
0
 62
7
100
AcDbPolyline
 90
3
 70
0
 10
14.114650
 20
-16.255280
 30
0.0
 10
41.881404
 20
-16.255280
 30
0.0
 10
69.648051
 20
-16.255280
 30
0.0
  0
SPLINE
  5
1fc
100
AcDbEntity
  8
0
 62
7
100
AcDbSpline
 70
8
 71
3
 72
8
 73
4
 74
0
 40
0
 40
0
 40
0
 40
0
 40
1
 40
1
 40
1
 40
1
 10
49.048114
 20
31.705561
 30
0.0
 10
49.048114
 20
32.143724
 30
0.0
 10
49.407014
 20
32.498959
 30
0.0
 10
49.849688
 20
32.498959
 30
0.0
  0
LWPOLYLINE
  5
1fd
100
AcDbEntity
  8
0
 62
7
100
AcDbPolyline
 90
2
 70
0
 10
49.049966
 20
23.933333
 30
0.0
 10
49.048114
 20
31.705561
 30
0.0
  0
SPLINE
  5
1fe
100
AcDbEntity
  8
0
 62
7
100
AcDbSpline
 70
8
 71
3
 72
8
 73
4
 74
0
 40
0
 40
0
 40
0
 40
0
 40
1
 40
1
 40
1
 40
1
 10
49.836882
 20
32.498959
 30
0.0
 10
77.768540
 20
32.498959
 30
0.0
 10
95.827808
 20
42.208947
 30
0.0
 10
95.827808
 20
72.578408
 30
0.0
  0
LWPOLYLINE
  5
1ff
100
AcDbEntity
  8
0
 62
7
100
AcDbPolyline
 90
2
 70
0
 10
49.849688
 20
32.498959
 30
0.0
 10
49.836882
 20
32.498959
 30
0.0
  0
SPLINE
  5
200
100
AcDbEntity
  8
0
 62
7
100
AcDbSpline
 70
8
 71
3
 72
8
 73
4
 74
0
 40
0
 40
0
 40
0
 40
0
 40
1
 40
1
 40
1
 40
1
 10
95.827808
 20
74.049410
 30
0.0
 10
95.827808
 20
75.463257
 30
0.0
 10
97.629326
 20
75.710740
 30
0.0
 10
97.629326
 20
76.933590
 30
0.0
  0
SPLINE
  5
201
100
AcDbEntity
  8
0
 62
7
100
AcDbSpline
 70
8
 71
3
 72
8
 73
4
 74
0
 40
0
 40
0
 40
0
 40
0
 40
1
 40
1
 40
1
 40
1
 10
97.629326
 20
76.933590
 30
0.0
 10
97.629326
 20
77.833891
 30
0.0
 10
97.794445
 20
77.802828
 30
0.0
 10
97.612816
 20
78.684336
 30
0.0
  0
SPLINE
  5
202
100
AcDbEntity
  8
0
 62
7
100
AcDbSpline
 70
8
 71
3
 72
8
 73
4
 74
0
 40
0
 40
0
 40
0
 40
0
 40
1
 40
1
 40
1
 40
1
 10
97.612816
 20
78.684336
 30
0.0
 10
97.396961
 20
79.731878
 30
0.0
 10
97.226448
 20
79.675112
 30
0.0
 10
97.538455
 20
80.770818
 30
0.0
  0
SPLINE
  5
203
100
AcDbEntity
  8
0
 62
7
100
AcDbSpline
 70
8
 71
3
 72
8
 73
4
 74
0
 40
0
 40
0
 40
0
 40
0
 40
1
 40
1
 40
1
 40
1
 10
97.538455
 20
80.770818
 30
0.0
 10
97.751842
 20
81.520211
 30
0.0
 10
97.649519
 20
81.396487
 30
0.0
 10
97.649519
 20
82.176379
 30
0.0
  0
SPLINE
  5
204
100
AcDbEntity
  8
0
 62
7
100
AcDbSpline
 70
8
 71
3
 72
8
 73
4
 74
0
 40
0
 40
0
 40
0
 40
0
 40
1
 40
1
 40
1
 40
1
 10
97.649519
 20
82.176379
 30
0.0
 10
97.649519
 20
82.367271
 30
0.0
 10
97.494699
 20
82.522093
 30
0.0
 10
97.303807
 20
82.522093
 30
0.0
  0
LWPOLYLINE
  5
205
100
AcDbEntity
  8
0
 62
7
100
AcDbPolyline
 90
2
 70
0
 10
95.827808
 20
72.578408
 30
0.0
 10
95.827808
 20
74.049410
 30
0.0
  0
SPLINE
  5
206
100
AcDbEntity
  8
0
 62
7
100
AcDbSpline
 70
8
 71
3
 72
8
 73
4
 74
0
 40
0
 40
0
 40
0
 40
0
 40
1
 40
1
 40
1
 40
1
 10
95.599425
 20
82.520082
 30
0.0
 10
95.387237
 20
82.520082
 30
0.0
 10
95.215210
 20
82.692111
 30
0.0
 10
95.215210
 20
82.904299
 30
0.0
  0
LWPOLYLINE
  5
207
100
AcDbEntity
  8
0
 62
7
100
AcDbPolyline
 90
2
 70
0
 10
97.303807
 20
82.522093
 30
0.0
 10
95.599425
 20
82.520082
 30
0.0
  0
SPLINE
  5
208
100
AcDbEntity
  8
0
 62
7
100
AcDbSpline
 70
8
 71
3
 72
8
 73
4
 74
0
 40
0
 40
0
 40
0
 40
0
 40
1
 40
1
 40
1
 40
1
 10
95.215210
 20
100.070105
 30
0.0
 10
95.215210
 20
100.284585
 30
0.0
 10
95.041313
 20
100.458482
 30
0.0
 10
94.826831
 20
100.458482
 30
0.0
  0
SPLINE
  5
209
100
AcDbEntity
  8
0
 62
7
100
AcDbSpline
 70
8
 71
3
 72
8
 73
4
 74
0
 40
0
 40
0
 40
0
 40
0
 40
1
 40
1
 40
1
 40
1
 10
94.826831
 20
100.458482
 30
0.0
 10
94.437327
 20
100.458482
 30
0.0
 10
94.315508
 20
100.852889
 30
0.0
 10
94.766469
 20
101.094377
 30
0.0
  0
SPLINE
  5
20a
100
AcDbEntity
  8
0
 62
7
100
AcDbSpline
 70
8
 71
3
 72
8
 73
4
 74
0
 40
0
 40
0
 40
0
 40
0
 40
1
 40
1
 40
1
 40
1
 10
94.766469
 20
101.094377
 30
0.0
 10
95.922327
 20
101.713242
 30
0.0
 10
95.821698
 20
105.272735
 30
0.0
 10
94.299394
 20
106.387517
 30
0.0
  0
SPLINE
  5
20b
100
AcDbEntity
  8
0
 62
7
100
AcDbSpline
 70
8
 71
3
 72
8
 73
4
 74
0
 40
0
 40
0
 40
0
 40
0
 40
1
 40
1
 40
1
 40
1
 10
94.299394
 20
106.387517
 30
0.0
 10
92.451404
 20
107.740895
 30
0.0
 10
92.877471
 20
110.594188
 30
0.0
 10
92.742642
 20
110.393071
 30
0.0
  0
SPLINE
  5
20c
100
AcDbEntity
  8
0
 62
7
100
AcDbSpline
 70
8
 71
3
 72
8
 73
4
 74
0
 40
0
 40
0
 40
0
 40
0
 40
1
 40
1
 40
1
 40
1
 10
92.742642
 20
110.393071
 30
0.0
 10
92.607813
 20
110.191989
 30
0.0
 10
91.440741
 20
107.625352
 30
0.0
 10
90.513043
 20
106.578444
 30
0.0
  0
SPLINE
  5
20d
100
AcDbEntity
  8
0
 62
7
100
AcDbSpline
 70
8
 71
3
 72
8
 73
4
 74
0
 40
0
 40
0
 40
0
 40
0
 40
1
 40
1
 40
1
 40
1
 10
90.513043
 20
106.578444
 30
0.0
 10
88.968350
 20
104.835243
 30
0.0
 10
89.589012
 20
101.920106
 30
0.0
 10
90.790496
 20
101.104849
 30
0.0
  0
SPLINE
  5
20e
100
AcDbEntity
  8
0
 62
7
100
AcDbSpline
 70
8
 71
3
 72
8
 73
4
 74
0
 40
0
 40
0
 40
0
 40
0
 40
1
 40
1
 40
1
 40
1
 10
90.790496
 20
101.104849
 30
0.0
 10
91.118510
 20
100.891568
 30
0.0
 10
90.973383
 20
100.458482
 30
0.0
 10
90.482158
 20
100.458482
 30
0.0
  0
LWPOLYLINE
  5
20f
100
AcDbEntity
  8
0
 62
7
100
AcDbPolyline
 90
3
 70
0
 10
95.215210
 20
82.904299
 30
0.0
 10
95.215210
 20
92.638688
 30
0.0
 10
95.215210
 20
100.070105
 30
0.0
  0
LWPOLYLINE
  5
210
100
AcDbEntity
  8
0
 62
7
100
AcDbPolyline
 90
1
 70
1
 10
90.482158
 20
100.458482
 30
0.0
  0
ENDSEC
  0
SECTION
  2
OBJECTS
  0
DICTIONARY
  5
C
330
0
100
AcDbDictionary
  3
ACAD_GROUP
350
D
  3
ACAD_MLINESTYLE
350
17
  0
DICTIONARY
  5
D
330
C
100
AcDbDictionary
  0
DICTIONARY
  5
1A
330
C
100
AcDbDictionary
  0
DICTIONARY
  5
17
330
C
100
AcDbDictionary
  3
STANDARD
350
18
  0
DICTIONARY
  5
19
330
C
100
AcDbDictionary
  0
ENDSEC
  0
EOF
