999
dxfrw 0.6.3
  0
SECTION
  2
HEADER
  9
$ACADVER
  1
AC1009
  9
$DWGCODEPAGE
  3
ANSI_1252
  9
$INSBASE
 10
0
 20
0
 30
0
  9
$EXTMIN
 10
10000000000
 20
10000000000
 30
0
  9
$EXTMAX
 10
-10000000000
 20
-10000000000
 30
0
  9
$LIMMIN
 10
0
 20
0
  9
$LIMMAX
 10
420
 20
297
  9
$ORTHOMODE
 70
    0
  9
$REGENMODE
 70
    1
  9
$FILLMODE
 70
    1
  9
$QTEXTMODE
 70
    0
  9
$MIRRTEXT
 70
    0
  9
$DRAGMODE
 70
    2
  9
$LTSCALE
 40
1
  9
$OSMODE
 70
    0
  9
$ATTMODE
 70
    0
  9
$TEXTSIZE
 40
2.5
  9
$TRACEWID
 40
15.68
  9
$TEXTSTYLE
  7
STANDARD
  9
$CLAYER
  8
0
  9
$CELTYPE
  6
BYLAYER
  9
$CECOLOR
 62
  256
  9
$DIMSCALE
 40
2.5
  9
$DIMASZ
 40
2.5
  9
$DIMEXO
 40
0.625
  9
$DIMDLI
 40
3.75
  9
$DIMRND
 40
0
  9
$DIMDLE
 40
0
  9
$DIMEXE
 40
1.25
  9
$DIMTP
 40
0
  9
$DIMTM
 40
0
  9
$DIMTXT
 40
2.5
  9
$DIMCEN
 40
2.5
  9
$DIMTSZ
 40
0
  9
$DIMTOL
 70
    0
  9
$DIMLIM
 70
    0
  9
$DIMTIH
 70
    0
  9
$DIMTOH
 70
    0
  9
$DIMSE1
 70
    0
  9
$DIMSE2
 70
    0
  9
$DIMTAD
 70
    1
  9
$DIMZIN
 70
    8
  9
$DIMBLK
  1

  9
$DIMASO
 70
    1
  9
$DIMSHO
 70
    1
  9
$DIMPOST
  1

  9
$DIMAPOST
  1

  9
$DIMALT
 70
    0
  9
$DIMALTD
 70
    3
  9
$DIMALTF
 40
0.03937
  9
$DIMLFAC
 40
1
  9
$DIMTOFL
 70
    1
  9
$DIMTVP
 40
0
  9
$DIMTIX
 70
    0
  9
$DIMSOXD
 70
    0
  9
$DIMSAH
 70
    0
  9
$DIMBLK1
  1

  9
$DIMBLK2
  1

  9
$DIMSTYLE
  2
STANDARD
  9
$DIMCLRD
 70
    0
  9
$DIMCLRE
 70
    0
  9
$DIMCLRT
 70
    0
  9
$DIMTFAC
 40
1
  9
$DIMGAP
 40
0.625
  9
$LUNITS
 70
    2
  9
$LUPREC
 70
    4
  9
$SKETCHINC
 40
1
  9
$FILLETRAD
 40
0
  9
$AUNITS
 70
    0
  9
$AUPREC
 70
    2
  9
$MENU
  1
.
  9
$ELEVATION
 40
0
  9
$PELEVATION
 40
0
  9
$THICKNESS
 40
0
  9
$LIMCHECK
 70
    0
  9
$BLIPMODE
 70
    0
  9
$CHAMFERA
 40
0
  9
$CHAMFERB
 40
0
  9
$SKPOLY
 70
    0
  9
$USRTIMER
 70
    1
  9
$ANGBASE
 50
0
  9
$ANGDIR
 70
    0
  9
$PDMODE
 70
   34
  9
$PDSIZE
 40
0
  9
$PLINEWID
 40
0
  9
$COORDS
 70
    2
  9
$SPLFRAME
 70
    0
  9
$SPLINETYPE
 70
    2
  9
$SPLINESEGS
 70
    8
  9
$ATTDIA
 70
    1
  9
$ATTREQ
 70
    1
  9
$HANDLING
 70
    1
  9
$HANDSEED
  5
20000
  9
$SURFTAB1
 70
    6
  9
$SURFTAB2
 70
    6
  9
$SURFTYPE
 70
    6
  9
$SURFU
 70
    6
  9
$SURFV
 70
    6
  9
$UCSNAME
  2

  9
$UCSORG
 10
0
 20
0
 30
0
  9
$UCSXDIR
 10
1
 20
0
 30
0
  9
$UCSYDIR
 10
0
 20
1
 30
0
  9
$PUCSNAME
  2

  9
$PUCSORG
 10
0
 20
0
 30
0
  9
$PUCSXDIR
 10
1
 20
0
 30
0
  9
$PUCSYDIR
 10
0
 20
1
 30
0
  9
$USERI1
 70
    0
  9
$USERI2
 70
    0
  9
$USERI3
 70
    0
  9
$USERI4
 70
    0
  9
$USERI5
 70
    0
  9
$USERR1
 40
0
  9
$USERR2
 40
0
  9
$USERR3
 40
0
  9
$USERR4
 40
0
  9
$USERR5
 40
0
  9
$WORLDVIEW
 70
    1
  9
$SHADEDGE
 70
    3
  9
$SHADEDIF
 70
   70
  9
$TILEMODE
 70
    1
  9
$MAXACTVP
 70
   64
  9
$PLIMCHECK
 70
    0
  9
$PEXTMIN
 10
0
 20
0
 30
0
  9
$PEXTMAX
 10
0
 20
0
 30
0
  9
$GRIDMODE
 70
    0
  9
$SNAPSTYLE
 70
    0
  9
$PLIMMIN
 10
0
 20
0
  9
$PLIMMAX
 10
210
 20
297
  9
$UNITMODE
 70
    0
  9
$VISRETAIN
 70
    1
  9
$PLINEGEN
 70
    0
  9
$PSLTSCALE
 70
    1
  0
ENDSEC
  0
SECTION
  2
TABLES
  0
TABLE
  2
VPORT
 70
    1
  0
VPORT
  2
*ACTIVE
 70
    0
 10
0
 20
0
 11
1
 21
1
 12
105.8772248096597
 22
75.09314972615134
 13
0
 23
0
 14
10
 24
10
 15
10
 25
10
 16
0
 26
0
 36
1
 17
0
 27
0
 37
0
 40
107.3767356303464
 41
1.865826944140197
 42
50
 43
0
 44
0
 50
0
 51
0
 71
    0
 72
  100
 73
    1
 74
    3
 75
    0
 76
    0
 77
    0
 78
    0
  0
ENDTAB
  0
TABLE
  2
LTYPE
 70
    4
  0
LTYPE
  2
BYBLOCK
 70
    0
  3

 72
   65
 73
    0
 40
0
  0
LTYPE
  2
BYLAYER
 70
    0
  3

 72
   65
 73
    0
 40
0
  0
LTYPE
  2
CONTINUOUS
 70
    0
  3
Solid line
 72
   65
 73
    0
 40
0
  0
LTYPE
  2
DOT
 70
    0
  3
Dot . . . . . . . . . . . . . . . . . . . . . .
 72
   65
 73
    2
 40
6.35
 49
0
 49
-6.35
  0
LTYPE
  2
DOTTINY
 70
    0
  3
Dot (.15x) .....................................
 72
   65
 73
    2
 40
0.9525
 49
0
 49
-0.9525
  0
LTYPE
  2
DOT2
 70
    0
  3
Dot (.5x) .....................................
 72
   65
 73
    2
 40
3.175
 49
0
 49
-3.175
  0
LTYPE
  2
DOTX2
 70
    0
  3
Dot (2x) .  .  .  .  .  .  .  .  .  .  .  .  .
 72
   65
 73
    2
 40
12.7
 49
0
 49
-12.7
  0
LTYPE
  2
DASHED
 70
    0
  3
Dashed _ _ _ _ _ _ _ _ _ _ _ _ _ _ _ _ _
 72
   65
 73
    2
 40
19.05
 49
12.7
 49
-6.35
  0
LTYPE
  2
DASHEDTINY
 70
    0
  3
Dashed (.15x) _ _ _ _ _ _ _ _ _ _ _ _ _ _ _ _ _
 72
   65
 73
    2
 40
2.8575
 49
1.905
 49
-0.9525
  0
LTYPE
  2
DASHED2
 70
    0
  3
Dashed (.5x) _ _ _ _ _ _ _ _ _ _ _ _ _ _ _ _ _
 72
   65
 73
    2
 40
9.524999999999999
 49
6.35
 49
-3.175
  0
LTYPE
  2
DASHEDX2
 70
    0
  3
Dashed (2x) ____  ____  ____  ____  ____  ___
 72
   65
 73
    2
 40
38.09999999999999
 49
25.4
 49
-12.7
  0
LTYPE
  2
DASHDOT
 70
    0
  3
Dash dot __ . __ . __ . __ . __ . __ . __ . __
 72
   65
 73
    4
 40
25.4
 49
12.7
 49
-6.35
 49
0
 49
-6.35
  0
LTYPE
  2
DASHDOTTINY
 70
    0
  3
Dash dot (.15x) _._._._._._._._._._._._._._._.
 72
   65
 73
    4
 40
3.81
 49
1.905
 49
-0.9525
 49
0
 49
-0.9525
  0
LTYPE
  2
DASHDOT2
 70
    0
  3
Dash dot (.5x) _._._._._._._._._._._._._._._.
 72
   65
 73
    4
 40
12.7
 49
6.35
 49
-3.175
 49
0
 49
-3.175
  0
LTYPE
  2
DASHDOTX2
 70
    0
  3
Dash dot (2x) ____  .  ____  .  ____  .  ___
 72
   65
 73
    4
 40
50.8
 49
25.4
 49
-12.7
 49
0
 49
-12.7
  0
LTYPE
  2
DIVIDE
 70
    0
  3
Divide ____ . . ____ . . ____ . . ____ . . ____
 72
   65
 73
    6
 40
31.75
 49
12.7
 49
-6.35
 49
0
 49
-6.35
 49
0
 49
-6.35
  0
LTYPE
  2
DIVIDETINY
 70
    0
  3
Divide (.15x) __..__..__..__..__..__..__..__.._
 72
   65
 73
    6
 40
4.7625
 49
1.905
 49
-0.9525
 49
0
 49
-0.9525
 49
0
 49
-0.9525
  0
LTYPE
  2
DIVIDE2
 70
    0
  3
Divide (.5x) __..__..__..__..__..__..__..__.._
 72
   65
 73
    6
 40
15.875
 49
6.35
 49
-3.175
 49
0
 49
-3.175
 49
0
 49
-3.175
  0
LTYPE
  2
DIVIDEX2
 70
    0
  3
Divide (2x) ________  .  .  ________  .  .  _
 72
   65
 73
    6
 40
63.5
 49
25.4
 49
-12.7
 49
0
 49
-12.7
 49
0
 49
-12.7
  0
LTYPE
  2
BORDER
 70
    0
  3
Border __ __ . __ __ . __ __ . __ __ . __ __ .
 72
   65
 73
    6
 40
44.45
 49
12.7
 49
-6.35
 49
12.7
 49
-6.35
 49
0
 49
-6.35
  0
LTYPE
  2
BORDERTINY
 70
    0
  3
Border (.15x) __.__.__.__.__.__.__.__.__.__.__.
 72
   65
 73
    6
 40
6.6675
 49
1.905
 49
-0.9525
 49
1.905
 49
-0.9525
 49
0
 49
-0.9525
  0
LTYPE
  2
BORDER2
 70
    0
  3
Border (.5x) __.__.__.__.__.__.__.__.__.__.__.
 72
   65
 73
    6
 40
22.225
 49
6.35
 49
-3.175
 49
6.35
 49
-3.175
 49
0
 49
-3.175
  0
LTYPE
  2
BORDERX2
 70
    0
  3
Border (2x) ____  ____  .  ____  ____  .  ___
 72
   65
 73
    6
 40
88.89999999999999
 49
25.4
 49
-12.7
 49
25.4
 49
-12.7
 49
0
 49
-12.7
  0
LTYPE
  2
CENTER
 70
    0
  3
Center ____ _ ____ _ ____ _ ____ _ ____ _ ____
 72
   65
 73
    4
 40
50.8
 49
31.75
 49
-6.35
 49
6.35
 49
-6.35
  0
LTYPE
  2
CENTERTINY
 70
    0
  3
Center (.15x) ___ _ ___ _ ___ _ ___ _ ___ _ ___
 72
   65
 73
    4
 40
7.62
 49
4.7625
 49
-0.9525
 49
0.9525
 49
-0.9525
  0
LTYPE
  2
CENTER2
 70
    0
  3
Center (.5x) ___ _ ___ _ ___ _ ___ _ ___ _ ___
 72
   65
 73
    4
 40
28.575
 49
19.05
 49
-3.175
 49
3.175
 49
-3.175
  0
LTYPE
  2
CENTERX2
 70
    0
  3
Center (2x) ________  __  ________  __  _____
 72
   65
 73
    4
 40
101.6
 49
63.5
 49
-12.7
 49
12.7
 49
-12.7
  0
ENDTAB
  0
TABLE
  2
LAYER
 70
    1
  0
LAYER
  2
0
 70
    0
 62
    7
  6
CONTINUOUS
  0
LAYER
  2
LAYER_1
 70
    0
 62
    7
  6
CONTINUOUS
  0
ENDTAB
  0
TABLE
  2
STYLE
 70
    3
  0
STYLE
  2
STANDARD
 70
    0
 40
0
 41
1
 50
0
 71
    0
 42
1
  3
TXT
  4

  0
ENDTAB
  0
TABLE
  2
VIEW
 70
    0
  0
ENDTAB
  0
TABLE
  2
UCS
 70
    0
  0
ENDTAB
  0
TABLE
  2
APPID
 70
    1
  0
APPID
  2
ACAD
 70
    0
  0
APPID
  2
LIBRECAD
 70
    0
  0
ENDTAB
  0
TABLE
  2
DIMSTYLE
 70
    1
  0
DIMSTYLE
  2
STANDARD
 70
    0
  3

  4

  5

  6

  7

 40
1
 41
2.5
 42
0.625
 43
0.38
 44
1.25
 45
0
 46
0
 47
0
 48
0
 49
1
140
2.5
141
0.09
142
2.5
143
25.4
144
1
145
0
146
1
147
0.625
 71
    0
 72
    0
 73
    0
 74
    1
 75
    0
 76
    0
 77
    0
 78
    1
170
    0
171
    2
172
    0
173
    0
174
    0
175
    0
176
    0
177
    0
178
    0
  0
ENDTAB
  0
ENDSEC
  0
SECTION
  2
BLOCKS
  0
BLOCK
  8
0
  2
$MODEL_SPACE
 70
    0
 10
0
 20
0
 30
0
  3
$MODEL_SPACE
  1

  0
ENDBLK
  8
0
  0
BLOCK
  8
0
  2
$PAPER_SPACE
 70
    0
 10
0
 20
0
 30
0
  3
$PAPER_SPACE
  1

  0
ENDBLK
  8
0
  0
ENDSEC
  0
SECTION
  2
ENTITIES
  0
POLYLINE
  5
31
  8
LAYER_1
  6
BYLAYER
 62
    7
 66
    1
 10
0
 20
0
 30
0
 70
    0
  0
VERTEX
  5
32
  8
LAYER_1
  6
BYLAYER
 62
    7
 10
159.37715
 20
121.797322
 30
0
  0
VERTEX
  5
33
  8
LAYER_1
  6
BYLAYER
 62
    7
 10
159.3242603756168
 20
119.0870636431472
 30
0
  0
VERTEX
  5
34
  8
LAYER_1
  6
BYLAYER
 62
    7
 10
159.1666278020207
 20
116.496328389715
 30
0
  0
VERTEX
  5
35
  8
LAYER_1
  6
BYLAYER
 62
    7
 10
158.9058067285422
 20
114.0230372557148
 30
0
  0
VERTEX
  5
36
  8
LAYER_1
  6
BYLAYER
 62
    7
 10
158.5433516045114
 20
111.6651112571582
 30
0
  0
VERTEX
  5
37
  8
LAYER_1
  6
BYLAYER
 62
    7
 10
158.0808168792588
 20
109.4204714100567
 30
0
  0
VERTEX
  5
38
  8
LAYER_1
  6
BYLAYER
 62
    7
 10
157.5197570021147
 20
107.287038730422
 30
0
  0
VERTEX
  5
39
  8
LAYER_1
  6
BYLAYER
 62
    7
 10
156.8617264224094
 20
105.2627342342654
 30
0
  0
VERTEX
  5
3A
  8
LAYER_1
  6
BYLAYER
 62
    7
 10
156.1082795894733
 20
103.3454789375986
 30
0
  0
VERTEX
  5
3B
  8
LAYER_1
  6
BYLAYER
 62
    7
 10
155.2609709526367
 20
101.5331938564331
 30
0
  0
VERTEX
  5
3C
  8
LAYER_1
  6
BYLAYER
 62
    7
 10
154.3213549612299
 20
99.82380000678059
 30
0
  0
VERTEX
  5
3D
  8
LAYER_1
  6
BYLAYER
 62
    7
 10
153.2909860645833
 20
98.21521840465242
 30
0
  0
VERTEX
  5
3E
  8
LAYER_1
  6
BYLAYER
 62
    7
 10
152.1714187120271
 20
96.70537006606023
 30
0
  0
VERTEX
  5
3F
  8
LAYER_1
  6
BYLAYER
 62
    7
 10
150.9642073528918
 20
95.29217600701556
 30
0
  0
VERTEX
  5
40
  8
LAYER_1
  6
BYLAYER
 62
    7
 10
149.6709064365077
 20
93.97355724352992
 30
0
  0
VERTEX
  5
41
  8
LAYER_1
  6
BYLAYER
 62
    7
 10
148.293070412205
 20
92.74743479161492
 30
0
  0
VERTEX
  5
42
  8
LAYER_1
  6
BYLAYER
 62
    7
 10
146.8322537293142
 20
91.61172966728208
 30
0
  0
VERTEX
  5
43
  8
LAYER_1
  6
BYLAYER
 62
    7
 10
145.2900108371656
 20
90.56436288654292
 30
0
  0
VERTEX
  5
44
  8
LAYER_1
  6
BYLAYER
 62
    7
 10
143.6678961850895
 20
89.60325546540903
 30
0
  0
VERTEX
  5
45
  8
LAYER_1
  6
BYLAYER
 62
    7
 10
141.9674642224162
 20
88.72632841989193
 30
0
  0
VERTEX
  5
46
  8
LAYER_1
  6
BYLAYER
 62
    7
 10
140.1902693984761
 20
87.93150276600315
 30
0
  0
VERTEX
  5
47
  8
LAYER_1
  6
BYLAYER
 62
    7
 10
138.3378661625995
 20
87.2166995197543
 30
0
  0
VERTEX
  5
48
  8
LAYER_1
  6
BYLAYER
 62
    7
 10
136.4118089641167
 20
86.57983969715687
 30
0
  0
VERTEX
  5
49
  8
LAYER_1
  6
BYLAYER
 62
    7
 10
134.4136522523581
 20
86.01884431422242
 30
0
  0
VERTEX
  5
4A
  8
LAYER_1
  6
BYLAYER
 62
    7
 10
132.344950476654
 20
85.53163438696251
 30
0
  0
VERTEX
  5
4B
  8
LAYER_1
  6
BYLAYER
 62
    7
 10
130.2072580863348
 20
85.11613093138868
 30
0
  0
VERTEX
  5
4C
  8
LAYER_1
  6
BYLAYER
 62
    7
 10
128.0021295307308
 20
84.77025496351247
 30
0
  0
VERTEX
  5
4D
  8
LAYER_1
  6
BYLAYER
 62
    7
 10
125.7311192591723
 20
84.49192749934545
 30
0
  0
VERTEX
  5
4E
  8
LAYER_1
  6
BYLAYER
 62
    7
 10
123.3957817209896
 20
84.27906955489914
 30
0
  0
VERTEX
  5
4F
  8
LAYER_1
  6
BYLAYER
 62
    7
 10
120.9976713655131
 20
84.12960214618508
 30
0
  0
VERTEX
  5
50
  8
LAYER_1
  6
BYLAYER
 62
    7
 10
118.5383426420732
 20
84.04144628921486
 30
0
  0
VERTEX
  5
51
  8
LAYER_1
  6
BYLAYER
 62
    7
 10
116.01935
 20
84.012523
 30
0
  0
SEQEND
  5
52
  8
LAYER_1
  6
BYLAYER
 62
    7
  0
POLYLINE
  5
53
  8
LAYER_1
  6
BYLAYER
 62
    7
 66
    1
 10
0
 20
0
 30
0
 70
    0
  0
VERTEX
  5
54
  8
LAYER_1
  6
BYLAYER
 62
    7
 10
157.85315
 20
121.797322
 30
0
  0
VERTEX
  5
55
  8
LAYER_1
  6
BYLAYER
 62
    7
 10
157.8021193263066
 20
119.1823228523044
 30
0
  0
VERTEX
  5
56
  8
LAYER_1
  6
BYLAYER
 62
    7
 10
157.650027191098
 20
116.6826461836796
 30
0
  0
VERTEX
  5
57
  8
LAYER_1
  6
BYLAYER
 62
    7
 10
157.3983734231815
 20
114.2962860590447
 30
0
  0
VERTEX
  5
58
  8
LAYER_1
  6
BYLAYER
 62
    7
 10
157.0486578513645
 20
112.0212365433185
 30
0
  0
VERTEX
  5
59
  8
LAYER_1
  6
BYLAYER
 62
    7
 10
156.6023803044543
 20
109.8554917014199
 30
0
  0
VERTEX
  5
5A
  8
LAYER_1
  6
BYLAYER
 62
    7
 10
156.0610406112584
 20
107.797045598268
 30
0
  0
VERTEX
  5
5B
  8
LAYER_1
  6
BYLAYER
 62
    7
 10
155.4261386005841
 20
105.8438922987815
 30
0
  0
VERTEX
  5
5C
  8
LAYER_1
  6
BYLAYER
 62
    7
 10
154.6991741012386
 20
103.9940258678796
 30
0
  0
VERTEX
  5
5D
  8
LAYER_1
  6
BYLAYER
 62
    7
 10
153.8816469420294
 20
102.245440370481
 30
0
  0
VERTEX
  5
5E
  8
LAYER_1
  6
BYLAYER
 62
    7
 10
152.9750569517639
 20
100.5961298715048
 30
0
  0
VERTEX
  5
5F
  8
LAYER_1
  6
BYLAYER
 62
    7
 10
151.9809039592494
 20
99.0440884358699
 30
0
  0
VERTEX
  5
60
  8
LAYER_1
  6
BYLAYER
 62
    7
 10
150.9006877932933
 20
97.58731012849518
 30
0
  0
VERTEX
  5
61
  8
LAYER_1
  6
BYLAYER
 62
    7
 10
149.7359082827029
 20
96.22378901429961
 30
0
  0
VERTEX
  5
62
  8
LAYER_1
  6
BYLAYER
 62
    7
 10
148.4880652562855
 20
94.95151915820215
 30
0
  0
VERTEX
  5
63
  8
LAYER_1
  6
BYLAYER
 62
    7
 10
147.1586585428485
 20
93.76849462512169
 30
0
  0
VERTEX
  5
64
  8
LAYER_1
  6
BYLAYER
 62
    7
 10
145.7491879711994
 20
92.67270947997719
 30
0
  0
VERTEX
  5
65
  8
LAYER_1
  6
BYLAYER
 62
    7
 10
144.2611533701454
 20
91.66215778768756
 30
0
  0
VERTEX
  5
66
  8
LAYER_1
  6
BYLAYER
 62
    7
 10
142.6960545684939
 20
90.73483361317177
 30
0
  0
VERTEX
  5
67
  8
LAYER_1
  6
BYLAYER
 62
    7
 10
141.0553913950522
 20
89.88873102134875
 30
0
  0
VERTEX
  5
68
  8
LAYER_1
  6
BYLAYER
 62
    7
 10
139.3406636786278
 20
89.1218440771374
 30
0
  0
VERTEX
  5
69
  8
LAYER_1
  6
BYLAYER
 62
    7
 10
137.553371248028
 20
88.43216684545669
 30
0
  0
VERTEX
  5
6A
  8
LAYER_1
  6
BYLAYER
 62
    7
 10
135.69501393206
 20
87.81769339122555
 30
0
  0
VERTEX
  5
6B
  8
LAYER_1
  6
BYLAYER
 62
    7
 10
133.7670915595314
 20
87.2764177793629
 30
0
  0
VERTEX
  5
6C
  8
LAYER_1
  6
BYLAYER
 62
    7
 10
131.7711039592495
 20
86.80633407478769
 30
0
  0
VERTEX
  5
6D
  8
LAYER_1
  6
BYLAYER
 62
    7
 10
129.7085509600215
 20
86.40543634241885
 30
0
  0
VERTEX
  5
6E
  8
LAYER_1
  6
BYLAYER
 62
    7
 10
127.5809323906549
 20
86.07171864717532
 30
0
  0
VERTEX
  5
6F
  8
LAYER_1
  6
BYLAYER
 62
    7
 10
125.3897480799571
 20
85.80317505397603
 30
0
  0
VERTEX
  5
70
  8
LAYER_1
  6
BYLAYER
 62
    7
 10
123.1364978567353
 20
85.59779962773992
 30
0
  0
VERTEX
  5
71
  8
LAYER_1
  6
BYLAYER
 62
    7
 10
120.822681549797
 20
85.45358643338591
 30
0
  0
VERTEX
  5
72
  8
LAYER_1
  6
BYLAYER
 62
    7
 10
118.4497989879494
 20
85.36852953583296
 30
0
  0
VERTEX
  5
73
  8
LAYER_1
  6
BYLAYER
 62
    7
 10
116.01935
 20
85.34062299999999
 30
0
  0
SEQEND
  5
74
  8
LAYER_1
  6
BYLAYER
 62
    7
  0
POLYLINE
  5
75
  8
LAYER_1
  6
BYLAYER
 62
    7
 66
    1
 10
0
 20
0
 30
0
 70
    0
  0
VERTEX
  5
76
  8
LAYER_1
  6
BYLAYER
 62
    7
 10
145.16785
 20
122.559322
 30
0
  0
VERTEX
  5
77
  8
LAYER_1
  6
BYLAYER
 62
    7
 10
145.1326899681112
 20
120.7134598772112
 30
0
  0
VERTEX
  5
78
  8
LAYER_1
  6
BYLAYER
 62
    7
 10
145.0277077136719
 20
118.9481919271592
 30
0
  0
VERTEX
  5
79
  8
LAYER_1
  6
BYLAYER
 62
    7
 10
144.853649998523
 20
117.2621570676379
 30
0
  0
VERTEX
  5
7A
  8
LAYER_1
  6
BYLAYER
 62
    7
 10
144.6112635845054
 20
115.6539942164412
 30
0
  0
VERTEX
  5
7B
  8
LAYER_1
  6
BYLAYER
 62
    7
 10
144.3012952334597
 20
114.1223422913632
 30
0
  0
VERTEX
  5
7C
  8
LAYER_1
  6
BYLAYER
 62
    7
 10
143.924491707227
 20
112.6658402101977
 30
0
  0
VERTEX
  5
7D
  8
LAYER_1
  6
BYLAYER
 62
    7
 10
143.4815997676479
 20
111.2831268907388
 30
0
  0
VERTEX
  5
7E
  8
LAYER_1
  6
BYLAYER
 62
    7
 10
142.9733661765634
 20
109.9728412507804
 30
0
  0
VERTEX
  5
7F
  8
LAYER_1
  6
BYLAYER
 62
    7
 10
142.4005376958141
 20
108.7336222081165
 30
0
  0
VERTEX
  5
80
  8
LAYER_1
  6
BYLAYER
 62
    7
 10
141.7638610872411
 20
107.5641086805411
 30
0
  0
VERTEX
  5
81
  8
LAYER_1
  6
BYLAYER
 62
    7
 10
141.064083112685
 20
106.4629395858481
 30
0
  0
VERTEX
  5
82
  8
LAYER_1
  6
BYLAYER
 62
    7
 10
140.3019505339868
 20
105.4287538418314
 30
0
  0
VERTEX
  5
83
  8
LAYER_1
  6
BYLAYER
 62
    7
 10
139.4782101129871
 20
104.4601903662851
 30
0
  0
VERTEX
  5
84
  8
LAYER_1
  6
BYLAYER
 62
    7
 10
138.5936086115269
 20
103.5558880770031
 30
0
  0
VERTEX
  5
85
  8
LAYER_1
  6
BYLAYER
 62
    7
 10
137.6488927914471
 20
102.7144858917794
 30
0
  0
VERTEX
  5
86
  8
LAYER_1
  6
BYLAYER
 62
    7
 10
136.6448094145883
 20
101.9346227284079
 30
0
  0
VERTEX
  5
87
  8
LAYER_1
  6
BYLAYER
 62
    7
 10
135.5821052427914
 20
101.2149375046826
 30
0
  0
VERTEX
  5
88
  8
LAYER_1
  6
BYLAYER
 62
    7
 10
134.4615270378974
 20
100.5540691383975
 30
0
  0
VERTEX
  5
89
  8
LAYER_1
  6
BYLAYER
 62
    7
 10
133.2838215617468
 20
99.95065654734653
 30
0
  0
VERTEX
  5
8A
  8
LAYER_1
  6
BYLAYER
 62
    7
 10
132.0497355761808
 20
99.40333864932363
 30
0
  0
VERTEX
  5
8B
  8
LAYER_1
  6
BYLAYER
 62
    7
 10
130.7600158430398
 20
98.9107543621228
 30
0
  0
VERTEX
  5
8C
  8
LAYER_1
  6
BYLAYER
 62
    7
 10
129.415409124165
 20
98.47154260353801
 30
0
  0
VERTEX
  5
8D
  8
LAYER_1
  6
BYLAYER
 62
    7
 10
128.0166621813971
 20
98.08434229136319
 30
0
  0
VERTEX
  5
8E
  8
LAYER_1
  6
BYLAYER
 62
    7
 10
126.5645217765768
 20
97.74779234339232
 30
0
  0
VERTEX
  5
8F
  8
LAYER_1
  6
BYLAYER
 62
    7
 10
125.0597346715451
 20
97.46053167741937
 30
0
  0
VERTEX
  5
90
  8
LAYER_1
  6
BYLAYER
 62
    7
 10
123.5030476281428
 20
97.2211992112383
 30
0
  0
VERTEX
  5
91
  8
LAYER_1
  6
BYLAYER
 62
    7
 10
121.8952074082106
 20
97.0284338626431
 30
0
  0
VERTEX
  5
92
  8
LAYER_1
  6
BYLAYER
 62
    7
 10
120.2369607735894
 20
96.88087454942769
 30
0
  0
VERTEX
  5
93
  8
LAYER_1
  6
BYLAYER
 62
    7
 10
118.52905448612
 20
96.77716018938605
 30
0
  0
VERTEX
  5
94
  8
LAYER_1
  6
BYLAYER
 62
    7
 10
116.7722353076433
 20
96.71592970031217
 30
0
  0
VERTEX
  5
95
  8
LAYER_1
  6
BYLAYER
 62
    7
 10
114.96725
 20
96.69582200000001
 30
0
  0
SEQEND
  5
96
  8
LAYER_1
  6
BYLAYER
 62
    7
  0
POLYLINE
  5
97
  8
LAYER_1
  6
BYLAYER
 62
    7
 66
    1
 10
0
 20
0
 30
0
 70
    0
  0
VERTEX
  5
98
  8
LAYER_1
  6
BYLAYER
 62
    7
 10
146.69185
 20
122.559322
 30
0
  0
VERTEX
  5
99
  8
LAYER_1
  6
BYLAYER
 62
    7
 10
146.6549156097479
 20
120.620319196838
 30
0
  0
VERTEX
  5
9A
  8
LAYER_1
  6
BYLAYER
 62
    7
 10
146.544635414924
 20
118.7659769815716
 30
0
  0
VERTEX
  5
9B
  8
LAYER_1
  6
BYLAYER
 62
    7
 10
146.3617938794267
 20
116.9948656132725
 30
0
  0
VERTEX
  5
9C
  8
LAYER_1
  6
BYLAYER
 62
    7
 10
146.1071754671545
 20
115.3055553510121
 30
0
  0
VERTEX
  5
9D
  8
LAYER_1
  6
BYLAYER
 62
    7
 10
145.7815646420059
 20
113.6966164538619
 30
0
  0
VERTEX
  5
9E
  8
LAYER_1
  6
BYLAYER
 62
    7
 10
145.3857458678796
 20
112.1666191808936
 30
0
  0
VERTEX
  5
9F
  8
LAYER_1
  6
BYLAYER
 62
    7
 10
144.9205036086738
 20
110.7141337911786
 30
0
  0
VERTEX
  5
A0
  8
LAYER_1
  6
BYLAYER
 62
    7
 10
144.386622328287
 20
109.3377305437884
 30
0
  0
VERTEX
  5
A1
  8
LAYER_1
  6
BYLAYER
 62
    7
 10
143.7848864906179
 20
108.0359796977946
 30
0
  0
VERTEX
  5
A2
  8
LAYER_1
  6
BYLAYER
 62
    7
 10
143.116080559565
 20
106.8074515122688
 30
0
  0
VERTEX
  5
A3
  8
LAYER_1
  6
BYLAYER
 62
    7
 10
142.3809889990265
 20
105.6507162462824
 30
0
  0
VERTEX
  5
A4
  8
LAYER_1
  6
BYLAYER
 62
    7
 10
141.5803962729012
 20
104.5643441589071
 30
0
  0
VERTEX
  5
A5
  8
LAYER_1
  6
BYLAYER
 62
    7
 10
140.7150868450874
 20
103.5469055092142
 30
0
  0
VERTEX
  5
A6
  8
LAYER_1
  6
BYLAYER
 62
    7
 10
139.7858451794837
 20
102.5969705562754
 30
0
  0
VERTEX
  5
A7
  8
LAYER_1
  6
BYLAYER
 62
    7
 10
138.7934557399886
 20
101.7131095591622
 30
0
  0
VERTEX
  5
A8
  8
LAYER_1
  6
BYLAYER
 62
    7
 10
137.7387029905005
 20
100.8938927769461
 30
0
  0
VERTEX
  5
A9
  8
LAYER_1
  6
BYLAYER
 62
    7
 10
136.6223713949179
 20
100.1378904686986
 30
0
  0
VERTEX
  5
AA
  8
LAYER_1
  6
BYLAYER
 62
    7
 10
135.4452454171394
 20
99.44367289349134
 30
0
  0
VERTEX
  5
AB
  8
LAYER_1
  6
BYLAYER
 62
    7
 10
134.2081095210634
 20
98.80981031039576
 30
0
  0
VERTEX
  5
AC
  8
LAYER_1
  6
BYLAYER
 62
    7
 10
132.9117481705885
 20
98.23487297848344
 30
0
  0
VERTEX
  5
AD
  8
LAYER_1
  6
BYLAYER
 62
    7
 10
131.556945829613
 20
97.7174311568259
 30
0
  0
VERTEX
  5
AE
  8
LAYER_1
  6
BYLAYER
 62
    7
 10
130.1444869620356
 20
97.25605510449466
 30
0
  0
VERTEX
  5
AF
  8
LAYER_1
  6
BYLAYER
 62
    7
 10
128.6751560317546
 20
96.84931508056124
 30
0
  0
VERTEX
  5
B0
  8
LAYER_1
  6
BYLAYER
 62
    7
 10
127.1497375026686
 20
96.49578134409722
 30
0
  0
VERTEX
  5
B1
  8
LAYER_1
  6
BYLAYER
 62
    7
 10
125.5690158386761
 20
96.19402415417409
 30
0
  0
VERTEX
  5
B2
  8
LAYER_1
  6
BYLAYER
 62
    7
 10
123.9337755036756
 20
95.94261376986337
 30
0
  0
VERTEX
  5
B3
  8
LAYER_1
  6
BYLAYER
 62
    7
 10
122.2448009615656
 20
95.74012045023665
 30
0
  0
VERTEX
  5
B4
  8
LAYER_1
  6
BYLAYER
 62
    7
 10
120.5028766762445
 20
95.58511445436541
 30
0
  0
VERTEX
  5
B5
  8
LAYER_1
  6
BYLAYER
 62
    7
 10
118.7087871116109
 20
95.47616604132119
 30
0
  0
VERTEX
  5
B6
  8
LAYER_1
  6
BYLAYER
 62
    7
 10
116.8633167315633
 20
95.41184547017555
 30
0
  0
VERTEX
  5
B7
  8
LAYER_1
  6
BYLAYER
 62
    7
 10
114.96725
 20
95.39072299999999
 30
0
  0
SEQEND
  5
B8
  8
LAYER_1
  6
BYLAYER
 62
    7
  0
POLYLINE
  5
B9
  8
LAYER_1
  6
BYLAYER
 62
    7
 66
    1
 10
0
 20
0
 30
0
 70
    0
  0
VERTEX
  5
BA
  8
LAYER_1
  6
BYLAYER
 62
    7
 10
133.98545
 20
122.559322
 30
0
  0
VERTEX
  5
BB
  8
LAYER_1
  6
BYLAYER
 62
    7
 10
133.9633504330166
 20
121.3974563026081
 30
0
  0
VERTEX
  5
BC
  8
LAYER_1
  6
BYLAYER
 62
    7
 10
133.8973623090866
 20
120.2863201232587
 30
0
  0
VERTEX
  5
BD
  8
LAYER_1
  6
BYLAYER
 62
    7
 10
133.7879514937397
 20
119.2250567344164
 30
0
  0
VERTEX
  5
BE
  8
LAYER_1
  6
BYLAYER
 62
    7
 10
133.6355838525058
 20
118.2128094085462
 30
0
  0
VERTEX
  5
BF
  8
LAYER_1
  6
BYLAYER
 62
    7
 10
133.4407252509147
 20
117.2487214181129
 30
0
  0
VERTEX
  5
C0
  8
LAYER_1
  6
BYLAYER
 62
    7
 10
133.2038415544963
 20
116.3319360355813
 30
0
  0
VERTEX
  5
C1
  8
LAYER_1
  6
BYLAYER
 62
    7
 10
132.9253986287805
 20
115.4615965334161
 30
0
  0
VERTEX
  5
C2
  8
LAYER_1
  6
BYLAYER
 62
    7
 10
132.6058623392971
 20
114.6368461840824
 30
0
  0
VERTEX
  5
C3
  8
LAYER_1
  6
BYLAYER
 62
    7
 10
132.2456985515759
 20
113.856828260045
 30
0
  0
VERTEX
  5
C4
  8
LAYER_1
  6
BYLAYER
 62
    7
 10
131.845373131147
 20
113.1206860337686
 30
0
  0
VERTEX
  5
C5
  8
LAYER_1
  6
BYLAYER
 62
    7
 10
131.40535194354
 20
112.4275627777181
 30
0
  0
VERTEX
  5
C6
  8
LAYER_1
  6
BYLAYER
 62
    7
 10
130.9261008542848
 20
111.7766017643584
 30
0
  0
VERTEX
  5
C7
  8
LAYER_1
  6
BYLAYER
 62
    7
 10
130.4080857289114
 20
111.1669462661542
 30
0
  0
VERTEX
  5
C8
  8
LAYER_1
  6
BYLAYER
 62
    7
 10
129.8517724329495
 20
110.5977395555705
 30
0
  0
VERTEX
  5
C9
  8
LAYER_1
  6
BYLAYER
 62
    7
 10
129.2576268319291
 20
110.068124905072
 30
0
  0
VERTEX
  5
CA
  8
LAYER_1
  6
BYLAYER
 62
    7
 10
128.6261147913799
 20
109.5772455871236
 30
0
  0
VERTEX
  5
CB
  8
LAYER_1
  6
BYLAYER
 62
    7
 10
127.9577021768319
 20
109.1242448741902
 30
0
  0
VERTEX
  5
CC
  8
LAYER_1
  6
BYLAYER
 62
    7
 10
127.2528548538149
 20
108.7082660387365
 30
0
  0
VERTEX
  5
CD
  8
LAYER_1
  6
BYLAYER
 62
    7
 10
126.5120386878588
 20
108.3284523532275
 30
0
  0
VERTEX
  5
CE
  8
LAYER_1
  6
BYLAYER
 62
    7
 10
125.7357195444933
 20
107.9839470901279
 30
0
  0
VERTEX
  5
CF
  8
LAYER_1
  6
BYLAYER
 62
    7
 10
124.9243632892484
 20
107.6738935219026
 30
0
  0
VERTEX
  5
D0
  8
LAYER_1
  6
BYLAYER
 62
    7
 10
124.078435787654
 20
107.3974349210164
 30
0
  0
VERTEX
  5
D1
  8
LAYER_1
  6
BYLAYER
 62
    7
 10
123.1984029052398
 20
107.1537145599342
 30
0
  0
VERTEX
  5
D2
  8
LAYER_1
  6
BYLAYER
 62
    7
 10
122.2847305075358
 20
106.9418757111208
 30
0
  0
VERTEX
  5
D3
  8
LAYER_1
  6
BYLAYER
 62
    7
 10
121.3378844600718
 20
106.7610616470411
 30
0
  0
VERTEX
  5
D4
  8
LAYER_1
  6
BYLAYER
 62
    7
 10
120.3583306283777
 20
106.6104156401598
 30
0
  0
VERTEX
  5
D5
  8
LAYER_1
  6
BYLAYER
 62
    7
 10
119.3465348779833
 20
106.4890809629418
 30
0
  0
VERTEX
  5
D6
  8
LAYER_1
  6
BYLAYER
 62
    7
 10
118.3029630744185
 20
106.396200887852
 30
0
  0
VERTEX
  5
D7
  8
LAYER_1
  6
BYLAYER
 62
    7
 10
117.2280810832131
 20
106.3309186873552
 30
0
  0
VERTEX
  5
D8
  8
LAYER_1
  6
BYLAYER
 62
    7
 10
116.122354769897
 20
106.2923776339163
 30
0
  0
VERTEX
  5
D9
  8
LAYER_1
  6
BYLAYER
 62
    7
 10
114.98625
 20
106.279721
 30
0
  0
SEQEND
  5
DA
  8
LAYER_1
  6
BYLAYER
 62
    7
  0
POLYLINE
  5
DB
  8
LAYER_1
  6
BYLAYER
 62
    7
 66
    1
 10
0
 20
0
 30
0
 70
    0
  0
VERTEX
  5
DC
  8
LAYER_1
  6
BYLAYER
 62
    7
 10
132.46145
 20
122.559322
 30
0
  0
VERTEX
  5
DD
  8
LAYER_1
  6
BYLAYER
 62
    7
 10
132.4411232899198
 20
121.4906538116209
 30
0
  0
VERTEX
  5
DE
  8
LAYER_1
  6
BYLAYER
 62
    7
 10
132.3804288021886
 20
120.4686462806888
 30
0
  0
VERTEX
  5
DF
  8
LAYER_1
  6
BYLAYER
 62
    7
 10
132.2797950005707
 20
119.4925113778658
 30
0
  0
VERTEX
  5
E0
  8
LAYER_1
  6
BYLAYER
 62
    7
 10
132.1396503488302
 20
118.5614610738142
 30
0
  0
VERTEX
  5
E1
  8
LAYER_1
  6
BYLAYER
 62
    7
 10
131.9604233107314
 20
117.6747073391964
 30
0
  0
VERTEX
  5
E2
  8
LAYER_1
  6
BYLAYER
 62
    7
 10
131.7425423500386
 20
116.8314621446746
 30
0
  0
VERTEX
  5
E3
  8
LAYER_1
  6
BYLAYER
 62
    7
 10
131.4864359305159
 20
116.030937460911
 30
0
  0
VERTEX
  5
E4
  8
LAYER_1
  6
BYLAYER
 62
    7
 10
131.1925325159276
 20
115.272345258568
 30
0
  0
VERTEX
  5
E5
  8
LAYER_1
  6
BYLAYER
 62
    7
 10
130.8612605700379
 20
114.5548975083078
 30
0
  0
VERTEX
  5
E6
  8
LAYER_1
  6
BYLAYER
 62
    7
 10
130.4930485566111
 20
113.8778061807929
 30
0
  0
VERTEX
  5
E7
  8
LAYER_1
  6
BYLAYER
 62
    7
 10
130.0883249394113
 20
113.2402832466852
 30
0
  0
VERTEX
  5
E8
  8
LAYER_1
  6
BYLAYER
 62
    7
 10
129.6475181822027
 20
112.6415406766473
 30
0
  0
VERTEX
  5
E9
  8
LAYER_1
  6
BYLAYER
 62
    7
 10
129.1710567487496
 20
112.0807904413413
 30
0
  0
VERTEX
  5
EA
  8
LAYER_1
  6
BYLAYER
 62
    7
 10
128.6593691028163
 20
111.5572445114296
 30
0
  0
VERTEX
  5
EB
  8
LAYER_1
  6
BYLAYER
 62
    7
 10
128.1128837081669
 20
111.0701148575744
 30
0
  0
VERTEX
  5
EC
  8
LAYER_1
  6
BYLAYER
 62
    7
 10
127.5320290285657
 20
110.6186134504381
 30
0
  0
VERTEX
  5
ED
  8
LAYER_1
  6
BYLAYER
 62
    7
 10
126.9172335277768
 20
110.2019522606828
 30
0
  0
VERTEX
  5
EE
  8
LAYER_1
  6
BYLAYER
 62
    7
 10
126.2689256695647
 20
109.8193432589708
 30
0
  0
VERTEX
  5
EF
  8
LAYER_1
  6
BYLAYER
 62
    7
 10
125.5875339176933
 20
109.4699984159646
 30
0
  0
VERTEX
  5
F0
  8
LAYER_1
  6
BYLAYER
 62
    7
 10
124.873486735927
 20
109.1531297023262
 30
0
  0
VERTEX
  5
F1
  8
LAYER_1
  6
BYLAYER
 62
    7
 10
124.1272125880299
 20
108.8679490887181
 30
0
  0
VERTEX
  5
F2
  8
LAYER_1
  6
BYLAYER
 62
    7
 10
123.3491399377665
 20
108.6136685458024
 30
0
  0
VERTEX
  5
F3
  8
LAYER_1
  6
BYLAYER
 62
    7
 10
122.5396972489007
 20
108.3895000442416
 30
0
  0
VERTEX
  5
F4
  8
LAYER_1
  6
BYLAYER
 62
    7
 10
121.6993129851969
 20
108.1946555546977
 30
0
  0
VERTEX
  5
F5
  8
LAYER_1
  6
BYLAYER
 62
    7
 10
120.8284156104193
 20
108.0283470478333
 30
0
  0
VERTEX
  5
F6
  8
LAYER_1
  6
BYLAYER
 62
    7
 10
119.9274335883321
 20
107.8897864943104
 30
0
  0
VERTEX
  5
F7
  8
LAYER_1
  6
BYLAYER
 62
    7
 10
118.9967953826995
 20
107.7781858647914
 30
0
  0
VERTEX
  5
F8
  8
LAYER_1
  6
BYLAYER
 62
    7
 10
118.0369294572858
 20
107.6927571299386
 30
0
  0
VERTEX
  5
F9
  8
LAYER_1
  6
BYLAYER
 62
    7
 10
117.0482642758551
 20
107.6327122604142
 30
0
  0
VERTEX
  5
FA
  8
LAYER_1
  6
BYLAYER
 62
    7
 10
116.0312283021718
 20
107.5972632268806
 30
0
  0
VERTEX
  5
FB
  8
LAYER_1
  6
BYLAYER
 62
    7
 10
114.98625
 20
107.585622
 30
0
  0
SEQEND
  5
FC
  8
LAYER_1
  6
BYLAYER
 62
    7
  0
POLYLINE
  5
FD
  8
LAYER_1
  6
BYLAYER
 62
    7
 66
    1
 10
0
 20
0
 30
0
 70
    0
  0
VERTEX
  5
FE
  8
LAYER_1
  6
BYLAYER
 62
    7
 10
121.28545
 20
121.797322
 30
0
  0
VERTEX
  5
FF
  8
LAYER_1
  6
BYLAYER
 62
    7
 10
121.2781230824746
 20
121.4121004770233
 30
0
  0
VERTEX
  5
100
  8
LAYER_1
  6
BYLAYER
 62
    7
 10
121.2562452737404
 20
121.043698355208
 30
0
  0
VERTEX
  5
101
  8
LAYER_1
  6
BYLAYER
 62
    7
 10
121.2199709895606
 20
120.691831595549
 30
0
  0
VERTEX
  5
102
  8
LAYER_1
  6
BYLAYER
 62
    7
 10
121.1694546456984
 20
120.3562161590413
 30
0
  0
VERTEX
  5
103
  8
LAYER_1
  6
BYLAYER
 62
    7
 10
121.1048506579168
 20
120.0365680066799
 30
0
  0
VERTEX
  5
104
  8
LAYER_1
  6
BYLAYER
 62
    7
 10
121.0263134419791
 20
119.7326030994596
 30
0
  0
VERTEX
  5
105
  8
LAYER_1
  6
BYLAYER
 62
    7
 10
120.9339974136484
 20
119.4440373983754
 30
0
  0
VERTEX
  5
106
  8
LAYER_1
  6
BYLAYER
 62
    7
 10
120.8280569886879
 20
119.1705868644221
 30
0
  0
VERTEX
  5
107
  8
LAYER_1
  6
BYLAYER
 62
    7
 10
120.7086465828606
 20
118.9119674585949
 30
0
  0
VERTEX
  5
108
  8
LAYER_1
  6
BYLAYER
 62
    7
 10
120.5759206119298
 20
118.6678951418885
 30
0
  0
VERTEX
  5
109
  8
LAYER_1
  6
BYLAYER
 62
    7
 10
120.4300334916585
 20
118.4380858752979
 30
0
  0
VERTEX
  5
10A
  8
LAYER_1
  6
BYLAYER
 62
    7
 10
120.2711396378101
 20
118.2222556198181
 30
0
  0
VERTEX
  5
10B
  8
LAYER_1
  6
BYLAYER
 62
    7
 10
120.0993934661475
 20
118.0201203364439
 30
0
  0
VERTEX
  5
10C
  8
LAYER_1
  6
BYLAYER
 62
    7
 10
119.914949392434
 20
117.8313959861703
 30
0
  0
VERTEX
  5
10D
  8
LAYER_1
  6
BYLAYER
 62
    7
 10
119.7179618324326
 20
117.6557985299923
 30
0
  0
VERTEX
  5
10E
  8
LAYER_1
  6
BYLAYER
 62
    7
 10
119.5085852019066
 20
117.4930439289047
 30
0
  0
VERTEX
  5
10F
  8
LAYER_1
  6
BYLAYER
 62
    7
 10
119.2869739166191
 20
117.3428481439025
 30
0
  0
VERTEX
  5
110
  8
LAYER_1
  6
BYLAYER
 62
    7
 10
119.0532823923333
 20
117.2049271359807
 30
0
  0
VERTEX
  5
111
  8
LAYER_1
  6
BYLAYER
 62
    7
 10
118.8076650448122
 20
117.0789968661341
 30
0
  0
VERTEX
  5
112
  8
LAYER_1
  6
BYLAYER
 62
    7
 10
118.5502762898191
 20
116.9647732953576
 30
0
  0
VERTEX
  5
113
  8
LAYER_1
  6
BYLAYER
 62
    7
 10
118.281270543117
 20
116.8619723846464
 30
0
  0
VERTEX
  5
114
  8
LAYER_1
  6
BYLAYER
 62
    7
 10
118.0008022204693
 20
116.7703100949951
 30
0
  0
VERTEX
  5
115
  8
LAYER_1
  6
BYLAYER
 62
    7
 10
117.7090257376389
 20
116.6895023873989
 30
0
  0
VERTEX
  5
116
  8
LAYER_1
  6
BYLAYER
 62
    7
 10
117.4060955103891
 20
116.6192652228525
 30
0
  0
VERTEX
  5
117
  8
LAYER_1
  6
BYLAYER
 62
    7
 10
117.0921659544829
 20
116.559314562351
 30
0
  0
VERTEX
  5
118
  8
LAYER_1
  6
BYLAYER
 62
    7
 10
116.7673914856836
 20
116.5093663668893
 30
0
  0
VERTEX
  5
119
  8
LAYER_1
  6
BYLAYER
 62
    7
 10
116.4319265197543
 20
116.4691365974623
 30
0
  0
VERTEX
  5
11A
  8
LAYER_1
  6
BYLAYER
 62
    7
 10
116.0859254724581
 20
116.438341215065
 30
0
  0
VERTEX
  5
11B
  8
LAYER_1
  6
BYLAYER
 62
    7
 10
115.7295427595582
 20
116.4166961806922
 30
0
  0
VERTEX
  5
11C
  8
LAYER_1
  6
BYLAYER
 62
    7
 10
115.3629327968178
 20
116.4039174553389
 30
0
  0
VERTEX
  5
11D
  8
LAYER_1
  6
BYLAYER
 62
    7
 10
114.98625
 20
116.399721
 30
0
  0
SEQEND
  5
11E
  8
LAYER_1
  6
BYLAYER
 62
    7
  0
POLYLINE
  5
11F
  8
LAYER_1
  6
BYLAYER
 62
    7
 66
    1
 10
0
 20
0
 30
0
 70
    0
  0
VERTEX
  5
120
  8
LAYER_1
  6
BYLAYER
 62
    7
 10
119.76145
 20
121.797322
 30
0
  0
VERTEX
  5
121
  8
LAYER_1
  6
BYLAYER
 62
    7
 10
119.755895637273
 20
121.5052980797221
 30
0
  0
VERTEX
  5
122
  8
LAYER_1
  6
BYLAYER
 62
    7
 10
119.7393105987043
 20
121.226024693968
 30
0
  0
VERTEX
  5
123
  8
LAYER_1
  6
BYLAYER
 62
    7
 10
119.7118119587124
 20
120.9592865021315
 30
0
  0
VERTEX
  5
124
  8
LAYER_1
  6
BYLAYER
 62
    7
 10
119.6735167917156
 20
120.7048681636065
 30
0
  0
VERTEX
  5
125
  8
LAYER_1
  6
BYLAYER
 62
    7
 10
119.6245421721325
 20
120.4625543377866
 30
0
  0
VERTEX
  5
126
  8
LAYER_1
  6
BYLAYER
 62
    7
 10
119.5650051743816
 20
120.2321296840657
 30
0
  0
VERTEX
  5
127
  8
LAYER_1
  6
BYLAYER
 62
    7
 10
119.4950228728811
 20
120.0133788618375
 30
0
  0
VERTEX
  5
128
  8
LAYER_1
  6
BYLAYER
 62
    7
 10
119.4147123420496
 20
119.8060865304958
 30
0
  0
VERTEX
  5
129
  8
LAYER_1
  6
BYLAYER
 62
    7
 10
119.3241906563056
 20
119.6100373494344
 30
0
  0
VERTEX
  5
12A
  8
LAYER_1
  6
BYLAYER
 62
    7
 10
119.2235748900675
 20
119.4250159780471
 30
0
  0
VERTEX
  5
12B
  8
LAYER_1
  6
BYLAYER
 62
    7
 10
119.1129821177537
 20
119.2508070757276
 30
0
  0
VERTEX
  5
12C
  8
LAYER_1
  6
BYLAYER
 62
    7
 10
118.9925294137827
 20
119.0871953018697
 30
0
  0
VERTEX
  5
12D
  8
LAYER_1
  6
BYLAYER
 62
    7
 10
118.8623338525729
 20
118.9339653158672
 30
0
  0
VERTEX
  5
12E
  8
LAYER_1
  6
BYLAYER
 62
    7
 10
118.7225125085428
 20
118.7909017771139
 30
0
  0
VERTEX
  5
12F
  8
LAYER_1
  6
BYLAYER
 62
    7
 10
118.5731824561109
 20
118.6577893450035
 30
0
  0
VERTEX
  5
130
  8
LAYER_1
  6
BYLAYER
 62
    7
 10
118.4144607696955
 20
118.5344126789299
 30
0
  0
VERTEX
  5
131
  8
LAYER_1
  6
BYLAYER
 62
    7
 10
118.2464645237152
 20
118.4205564382867
 30
0
  0
VERTEX
  5
132
  8
LAYER_1
  6
BYLAYER
 62
    7
 10
118.0693107925884
 20
118.3160052824679
 30
0
  0
VERTEX
  5
133
  8
LAYER_1
  6
BYLAYER
 62
    7
 10
117.8831166507335
 20
118.220543870867
 30
0
  0
VERTEX
  5
134
  8
LAYER_1
  6
BYLAYER
 62
    7
 10
117.6879991725689
 20
118.1339568628781
 30
0
  0
VERTEX
  5
135
  8
LAYER_1
  6
BYLAYER
 62
    7
 10
117.4840754325132
 20
118.0560289178947
 30
0
  0
VERTEX
  5
136
  8
LAYER_1
  6
BYLAYER
 62
    7
 10
117.2714625049847
 20
117.9865446953107
 30
0
  0
VERTEX
  5
137
  8
LAYER_1
  6
BYLAYER
 62
    7
 10
117.050277464402
 20
117.9252888545198
 30
0
  0
VERTEX
  5
138
  8
LAYER_1
  6
BYLAYER
 62
    7
 10
116.8206373851835
 20
117.8720460549159
 30
0
  0
VERTEX
  5
139
  8
LAYER_1
  6
BYLAYER
 62
    7
 10
116.5826593417475
 20
117.8266009558927
 30
0
  0
VERTEX
  5
13A
  8
LAYER_1
  6
BYLAYER
 62
    7
 10
116.3364604085126
 20
117.788738216844
 30
0
  0
VERTEX
  5
13B
  8
LAYER_1
  6
BYLAYER
 62
    7
 10
116.0821576598973
 20
117.7582424971636
 30
0
  0
VERTEX
  5
13C
  8
LAYER_1
  6
BYLAYER
 62
    7
 10
115.8198681703199
 20
117.7348984562452
 30
0
  0
VERTEX
  5
13D
  8
LAYER_1
  6
BYLAYER
 62
    7
 10
115.5497090141989
 20
117.7184907534826
 30
0
  0
VERTEX
  5
13E
  8
LAYER_1
  6
BYLAYER
 62
    7
 10
115.2717972659528
 20
117.7088040482696
 30
0
  0
VERTEX
  5
13F
  8
LAYER_1
  6
BYLAYER
 62
    7
 10
114.98625
 20
117.705623
 30
0
  0
SEQEND
  5
140
  8
LAYER_1
  6
BYLAYER
 62
    7
  0
POLYLINE
  5
141
  8
LAYER_1
  6
BYLAYER
 62
    7
 66
    1
 10
0
 20
0
 30
0
 70
    0
  0
VERTEX
  5
142
  8
LAYER_1
  6
BYLAYER
 62
    7
 10
56.268951
 20
121.797322
 30
0
  0
VERTEX
  5
143
  8
LAYER_1
  6
BYLAYER
 62
    7
 10
56.3218406243832
 20
119.0870636431472
 30
0
  0
VERTEX
  5
144
  8
LAYER_1
  6
BYLAYER
 62
    7
 10
56.47947319797926
 20
116.496328389715
 30
0
  0
VERTEX
  5
145
  8
LAYER_1
  6
BYLAYER
 62
    7
 10
56.74029427145782
 20
114.0230372557148
 30
0
  0
VERTEX
  5
146
  8
LAYER_1
  6
BYLAYER
 62
    7
 10
57.10274939548858
 20
111.6651112571582
 30
0
  0
VERTEX
  5
147
  8
LAYER_1
  6
BYLAYER
 62
    7
 10
57.56528412074117
 20
109.4204714100567
 30
0
  0
VERTEX
  5
148
  8
LAYER_1
  6
BYLAYER
 62
    7
 10
58.12634399788528
 20
107.287038730422
 30
0
  0
VERTEX
  5
149
  8
LAYER_1
  6
BYLAYER
 62
    7
 10
58.78437457759055
 20
105.2627342342654
 30
0
  0
VERTEX
  5
14A
  8
LAYER_1
  6
BYLAYER
 62
    7
 10
59.53782141052667
 20
103.3454789375986
 30
0
  0
VERTEX
  5
14B
  8
LAYER_1
  6
BYLAYER
 62
    7
 10
60.3851300473633
 20
101.5331938564331
 30
0
  0
VERTEX
  5
14C
  8
LAYER_1
  6
BYLAYER
 62
    7
 10
61.32474603877011
 20
99.82380000678059
 30
0
  0
VERTEX
  5
14D
  8
LAYER_1
  6
BYLAYER
 62
    7
 10
62.35511493541674
 20
98.21521840465242
 30
0
  0
VERTEX
  5
14E
  8
LAYER_1
  6
BYLAYER
 62
    7
 10
63.47468228797288
 20
96.70537006606023
 30
0
  0
VERTEX
  5
14F
  8
LAYER_1
  6
BYLAYER
 62
    7
 10
64.68189364710818
 20
95.29217600701556
 30
0
  0
VERTEX
  5
150
  8
LAYER_1
  6
BYLAYER
 62
    7
 10
65.97519456349232
 20
93.97355724352992
 30
0
  0
VERTEX
  5
151
  8
LAYER_1
  6
BYLAYER
 62
    7
 10
67.35303058779496
 20
92.74743479161492
 30
0
  0
VERTEX
  5
152
  8
LAYER_1
  6
BYLAYER
 62
    7
 10
68.81384727068577
 20
91.61172966728208
 30
0
  0
VERTEX
  5
153
  8
LAYER_1
  6
BYLAYER
 62
    7
 10
70.35609016283439
 20
90.56436288654292
 30
0
  0
VERTEX
  5
154
  8
LAYER_1
  6
BYLAYER
 62
    7
 10
71.97820481491053
 20
89.60325546540903
 30
0
  0
VERTEX
  5
155
  8
LAYER_1
  6
BYLAYER
 62
    7
 10
73.67863677758382
 20
88.72632841989193
 30
0
  0
VERTEX
  5
156
  8
LAYER_1
  6
BYLAYER
 62
    7
 10
75.45583160152393
 20
87.93150276600315
 30
0
  0
VERTEX
  5
157
  8
LAYER_1
  6
BYLAYER
 62
    7
 10
77.30823483740053
 20
87.2166995197543
 30
0
  0
VERTEX
  5
158
  8
LAYER_1
  6
BYLAYER
 62
    7
 10
79.2342920358833
 20
86.57983969715687
 30
0
  0
VERTEX
  5
159
  8
LAYER_1
  6
BYLAYER
 62
    7
 10
81.23244874764188
 20
86.01884431422242
 30
0
  0
VERTEX
  5
15A
  8
LAYER_1
  6
BYLAYER
 62
    7
 10
83.30115052334594
 20
85.53163438696251
 30
0
  0
VERTEX
  5
15B
  8
LAYER_1
  6
BYLAYER
 62
    7
 10
85.43884291366517
 20
85.11613093138868
 30
0
  0
VERTEX
  5
15C
  8
LAYER_1
  6
BYLAYER
 62
    7
 10
87.64397146926919
 20
84.77025496351247
 30
0
  0
VERTEX
  5
15D
  8
LAYER_1
  6
BYLAYER
 62
    7
 10
89.91498174082774
 20
84.49192749934545
 30
0
  0
VERTEX
  5
15E
  8
LAYER_1
  6
BYLAYER
 62
    7
 10
92.2503192790104
 20
84.27906955489914
 30
0
  0
VERTEX
  5
15F
  8
LAYER_1
  6
BYLAYER
 62
    7
 10
94.64842963448687
 20
84.12960214618508
 30
0
  0
VERTEX
  5
160
  8
LAYER_1
  6
BYLAYER
 62
    7
 10
97.10775835792684
 20
84.04144628921486
 30
0
  0
VERTEX
  5
161
  8
LAYER_1
  6
BYLAYER
 62
    7
 10
99.626751
 20
84.012523
 30
0
  0
SEQEND
  5
162
  8
LAYER_1
  6
BYLAYER
 62
    7
  0
POLYLINE
  5
163
  8
LAYER_1
  6
BYLAYER
 62
    7
 66
    1
 10
0
 20
0
 30
0
 70
    0
  0
VERTEX
  5
164
  8
LAYER_1
  6
BYLAYER
 62
    7
 10
57.792951
 20
121.797322
 30
0
  0
VERTEX
  5
165
  8
LAYER_1
  6
BYLAYER
 62
    7
 10
57.84398167067235
 20
119.1823228523044
 30
0
  0
VERTEX
  5
166
  8
LAYER_1
  6
BYLAYER
 62
    7
 10
57.99607379722065
 20
116.6826461836796
 30
0
  0
VERTEX
  5
167
  8
LAYER_1
  6
BYLAYER
 62
    7
 10
58.24772755144171
 20
114.2962860590447
 30
0
  0
VERTEX
  5
168
  8
LAYER_1
  6
BYLAYER
 62
    7
 10
58.59744310513243
 20
112.0212365433185
 30
0
  0
VERTEX
  5
169
  8
LAYER_1
  6
BYLAYER
 62
    7
 10
59.04372063008963
 20
109.8554917014199
 30
0
  0
VERTEX
  5
16A
  8
LAYER_1
  6
BYLAYER
 62
    7
 10
59.58506029811017
 20
107.797045598268
 30
0
  0
VERTEX
  5
16B
  8
LAYER_1
  6
BYLAYER
 62
    7
 10
60.21996228099091
 20
105.8438922987815
 30
0
  0
VERTEX
  5
16C
  8
LAYER_1
  6
BYLAYER
 62
    7
 10
60.94692675052868
 20
103.9940258678796
 30
0
  0
VERTEX
  5
16D
  8
LAYER_1
  6
BYLAYER
 62
    7
 10
61.76445387852035
 20
102.245440370481
 30
0
  0
VERTEX
  5
16E
  8
LAYER_1
  6
BYLAYER
 62
    7
 10
62.67104383676278
 20
100.5961298715048
 30
0
  0
VERTEX
  5
16F
  8
LAYER_1
  6
BYLAYER
 62
    7
 10
63.66519679705279
 20
99.0440884358699
 30
0
  0
VERTEX
  5
170
  8
LAYER_1
  6
BYLAYER
 62
    7
 10
64.74541293118726
 20
97.58731012849518
 30
0
  0
VERTEX
  5
171
  8
LAYER_1
  6
BYLAYER
 62
    7
 10
65.91019241096303
 20
96.22378901429961
 30
0
  0
VERTEX
  5
172
  8
LAYER_1
  6
BYLAYER
 62
    7
 10
67.15803540817696
 20
94.95151915820215
 30
0
  0
VERTEX
  5
173
  8
LAYER_1
  6
BYLAYER
 62
    7
 10
68.48744209462589
 20
93.76849462512169
 30
0
  0
VERTEX
  5
174
  8
LAYER_1
  6
BYLAYER
 62
    7
 10
69.89691264210666
 20
92.67270947997719
 30
0
  0
VERTEX
  5
175
  8
LAYER_1
  6
BYLAYER
 62
    7
 10
71.38494722241614
 20
91.66215778768756
 30
0
  0
VERTEX
  5
176
  8
LAYER_1
  6
BYLAYER
 62
    7
 10
72.9500460073512
 20
90.73483361317177
 30
0
  0
VERTEX
  5
177
  8
LAYER_1
  6
BYLAYER
 62
    7
 10
74.59070916870866
 20
89.88873102134875
 30
0
  0
VERTEX
  5
178
  8
LAYER_1
  6
BYLAYER
 62
    7
 10
76.30543687828536
 20
89.1218440771374
 30
0
  0
VERTEX
  5
179
  8
LAYER_1
  6
BYLAYER
 62
    7
 10
78.09272930787819
 20
88.43216684545669
 30
0
  0
VERTEX
  5
17A
  8
LAYER_1
  6
BYLAYER
 62
    7
 10
79.95108662928399
 20
87.81769339122555
 30
0
  0
VERTEX
  5
17B
  8
LAYER_1
  6
BYLAYER
 62
    7
 10
81.8790090142996
 20
87.2764177793629
 30
0
  0
VERTEX
  5
17C
  8
LAYER_1
  6
BYLAYER
 62
    7
 10
83.87499663472187
 20
86.80633407478769
 30
0
  0
VERTEX
  5
17D
  8
LAYER_1
  6
BYLAYER
 62
    7
 10
85.93754966234766
 20
86.40543634241885
 30
0
  0
VERTEX
  5
17E
  8
LAYER_1
  6
BYLAYER
 62
    7
 10
88.06516826897381
 20
86.07171864717532
 30
0
  0
VERTEX
  5
17F
  8
LAYER_1
  6
BYLAYER
 62
    7
 10
90.2563526263972
 20
85.80317505397603
 30
0
  0
VERTEX
  5
180
  8
LAYER_1
  6
BYLAYER
 62
    7
 10
92.50960290641464
 20
85.59779962773992
 30
0
  0
VERTEX
  5
181
  8
LAYER_1
  6
BYLAYER
 62
    7
 10
94.82341928082302
 20
85.45358643338591
 30
0
  0
VERTEX
  5
182
  8
LAYER_1
  6
BYLAYER
 62
    7
 10
97.19630192141918
 20
85.36852953583296
 30
0
  0
VERTEX
  5
183
  8
LAYER_1
  6
BYLAYER
 62
    7
 10
99.626751
 20
85.34062299999999
 30
0
  0
SEQEND
  5
184
  8
LAYER_1
  6
BYLAYER
 62
    7
  0
POLYLINE
  5
185
  8
LAYER_1
  6
BYLAYER
 62
    7
 66
    1
 10
0
 20
0
 30
0
 70
    0
  0
VERTEX
  5
186
  8
LAYER_1
  6
BYLAYER
 62
    7
 10
70.47825
 20
122.559322
 30
0
  0
VERTEX
  5
187
  8
LAYER_1
  6
BYLAYER
 62
    7
 10
70.51341004095197
 20
120.7134598772112
 30
0
  0
VERTEX
  5
188
  8
LAYER_1
  6
BYLAYER
 62
    7
 10
70.61839232137223
 20
118.9481919271592
 30
0
  0
VERTEX
  5
189
  8
LAYER_1
  6
BYLAYER
 62
    7
 10
70.79245007760734
 20
117.2621570676379
 30
0
  0
VERTEX
  5
18A
  8
LAYER_1
  6
BYLAYER
 62
    7
 10
71.03483654600385
 20
115.6539942164412
 30
0
  0
VERTEX
  5
18B
  8
LAYER_1
  6
BYLAYER
 62
    7
 10
71.34480496290826
 20
114.1223422913632
 30
0
  0
VERTEX
  5
18C
  8
LAYER_1
  6
BYLAYER
 62
    7
 10
71.72160856466719
 20
112.6658402101977
 30
0
  0
VERTEX
  5
18D
  8
LAYER_1
  6
BYLAYER
 62
    7
 10
72.16450058762715
 20
111.2831268907388
 30
0
  0
VERTEX
  5
18E
  8
LAYER_1
  6
BYLAYER
 62
    7
 10
72.67273426813466
 20
109.9728412507804
 30
0
  0
VERTEX
  5
18F
  8
LAYER_1
  6
BYLAYER
 62
    7
 10
73.24556284253633
 20
108.7336222081165
 30
0
  0
VERTEX
  5
190
  8
LAYER_1
  6
BYLAYER
 62
    7
 10
73.88223954717867
 20
107.5641086805411
 30
0
  0
VERTEX
  5
191
  8
LAYER_1
  6
BYLAYER
 62
    7
 10
74.58201761840824
 20
106.4629395858481
 30
0
  0
VERTEX
  5
192
  8
LAYER_1
  6
BYLAYER
 62
    7
 10
75.34415029257158
 20
105.4287538418314
 30
0
  0
VERTEX
  5
193
  8
LAYER_1
  6
BYLAYER
 62
    7
 10
76.16789080601524
 20
104.4601903662851
 30
0
  0
VERTEX
  5
194
  8
LAYER_1
  6
BYLAYER
 62
    7
 10
77.05249239508575
 20
103.5558880770031
 30
0
  0
VERTEX
  5
195
  8
LAYER_1
  6
BYLAYER
 62
    7
 10
77.99720829612971
 20
102.7144858917794
 30
0
  0
VERTEX
  5
196
  8
LAYER_1
  6
BYLAYER
 62
    7
 10
79.0012917454936
 20
101.9346227284079
 30
0
  0
VERTEX
  5
197
  8
LAYER_1
  6
BYLAYER
 62
    7
 10
80.06399597952401
 20
101.2149375046826
 30
0
  0
VERTEX
  5
198
  8
LAYER_1
  6
BYLAYER
 62
    7
 10
81.18457423456748
 20
100.5540691383975
 30
0
  0
VERTEX
  5
199
  8
LAYER_1
  6
BYLAYER
 62
    7
 10
82.36227974697056
 20
99.95065654734653
 30
0
  0
VERTEX
  5
19A
  8
LAYER_1
  6
BYLAYER
 62
    7
 10
83.59636575307978
 20
99.40333864932363
 30
0
  0
VERTEX
  5
19B
  8
LAYER_1
  6
BYLAYER
 62
    7
 10
84.88608548924169
 20
98.9107543621228
 30
0
  0
VERTEX
  5
19C
  8
LAYER_1
  6
BYLAYER
 62
    7
 10
86.23069219180287
 20
98.47154260353801
 30
0
  0
VERTEX
  5
19D
  8
LAYER_1
  6
BYLAYER
 62
    7
 10
87.62943909710984
 20
98.08434229136319
 30
0
  0
VERTEX
  5
19E
  8
LAYER_1
  6
BYLAYER
 62
    7
 10
89.08157944150916
 20
97.74779234339232
 30
0
  0
VERTEX
  5
19F
  8
LAYER_1
  6
BYLAYER
 62
    7
 10
90.58636646134735
 20
97.46053167741937
 30
0
  0
VERTEX
  5
1A0
  8
LAYER_1
  6
BYLAYER
 62
    7
 10
92.143053392971
 20
97.2211992112383
 30
0
  0
VERTEX
  5
1A1
  8
LAYER_1
  6
BYLAYER
 62
    7
 10
93.75089347272663
 20
97.0284338626431
 30
0
  0
VERTEX
  5
1A2
  8
LAYER_1
  6
BYLAYER
 62
    7
 10
95.4091399369608
 20
96.88087454942769
 30
0
  0
VERTEX
  5
1A3
  8
LAYER_1
  6
BYLAYER
 62
    7
 10
97.11704602202003
 20
96.77716018938605
 30
0
  0
VERTEX
  5
1A4
  8
LAYER_1
  6
BYLAYER
 62
    7
 10
98.87386496425091
 20
96.71592970031217
 30
0
  0
VERTEX
  5
1A5
  8
LAYER_1
  6
BYLAYER
 62
    7
 10
100.67885
 20
96.69582200000001
 30
0
  0
SEQEND
  5
1A6
  8
LAYER_1
  6
BYLAYER
 62
    7
  0
POLYLINE
  5
1A7
  8
LAYER_1
  6
BYLAYER
 62
    7
 66
    1
 10
0
 20
0
 30
0
 70
    0
  0
VERTEX
  5
1A8
  8
LAYER_1
  6
BYLAYER
 62
    7
 10
68.95425
 20
122.559322
 30
0
  0
VERTEX
  5
1A9
  8
LAYER_1
  6
BYLAYER
 62
    7
 10
68.99118439931523
 20
120.620319196838
 30
0
  0
VERTEX
  5
1AA
  8
LAYER_1
  6
BYLAYER
 62
    7
 10
69.10146462012018
 20
118.7659769815716
 30
0
  0
VERTEX
  5
1AB
  8
LAYER_1
  6
BYLAYER
 62
    7
 10
69.28430619670371
 20
116.9948656132725
 30
0
  0
VERTEX
  5
1AC
  8
LAYER_1
  6
BYLAYER
 62
    7
 10
69.53892466335472
 20
115.3055553510121
 30
0
  0
VERTEX
  5
1AD
  8
LAYER_1
  6
BYLAYER
 62
    7
 10
69.86453555436206
 20
113.6966164538619
 30
0
  0
VERTEX
  5
1AE
  8
LAYER_1
  6
BYLAYER
 62
    7
 10
70.26035440401465
 20
112.1666191808936
 30
0
  0
VERTEX
  5
1AF
  8
LAYER_1
  6
BYLAYER
 62
    7
 10
70.72559674660133
 20
110.7141337911786
 30
0
  0
VERTEX
  5
1B0
  8
LAYER_1
  6
BYLAYER
 62
    7
 10
71.25947811641099
 20
109.3377305437884
 30
0
  0
VERTEX
  5
1B1
  8
LAYER_1
  6
BYLAYER
 62
    7
 10
71.86121404773253
 20
108.0359796977946
 30
0
  0
VERTEX
  5
1B2
  8
LAYER_1
  6
BYLAYER
 62
    7
 10
72.5300200748548
 20
106.8074515122688
 30
0
  0
VERTEX
  5
1B3
  8
LAYER_1
  6
BYLAYER
 62
    7
 10
73.26511173206673
 20
105.6507162462824
 30
0
  0
VERTEX
  5
1B4
  8
LAYER_1
  6
BYLAYER
 62
    7
 10
74.06570455365714
 20
104.5643441589071
 30
0
  0
VERTEX
  5
1B5
  8
LAYER_1
  6
BYLAYER
 62
    7
 10
74.93101407391494
 20
103.5469055092142
 30
0
  0
VERTEX
  5
1B6
  8
LAYER_1
  6
BYLAYER
 62
    7
 10
75.86025582712898
 20
102.5969705562754
 30
0
  0
VERTEX
  5
1B7
  8
LAYER_1
  6
BYLAYER
 62
    7
 10
76.85264534758818
 20
101.7131095591622
 30
0
  0
VERTEX
  5
1B8
  8
LAYER_1
  6
BYLAYER
 62
    7
 10
77.9073981695814
 20
100.8938927769461
 30
0
  0
VERTEX
  5
1B9
  8
LAYER_1
  6
BYLAYER
 62
    7
 10
79.02372982739752
 20
100.1378904686986
 30
0
  0
VERTEX
  5
1BA
  8
LAYER_1
  6
BYLAYER
 62
    7
 10
80.20085585532543
 20
99.44367289349134
 30
0
  0
VERTEX
  5
1BB
  8
LAYER_1
  6
BYLAYER
 62
    7
 10
81.43799178765397
 20
98.80981031039576
 30
0
  0
VERTEX
  5
1BC
  8
LAYER_1
  6
BYLAYER
 62
    7
 10
82.73435315867206
 20
98.23487297848344
 30
0
  0
VERTEX
  5
1BD
  8
LAYER_1
  6
BYLAYER
 62
    7
 10
84.08915550266858
 20
97.7174311568259
 30
0
  0
VERTEX
  5
1BE
  8
LAYER_1
  6
BYLAYER
 62
    7
 10
85.50161435393238
 20
97.25605510449466
 30
0
  0
VERTEX
  5
1BF
  8
LAYER_1
  6
BYLAYER
 62
    7
 10
86.97094524675236
 20
96.84931508056124
 30
0
  0
VERTEX
  5
1C0
  8
LAYER_1
  6
BYLAYER
 62
    7
 10
88.49636371541739
 20
96.49578134409722
 30
0
  0
VERTEX
  5
1C1
  8
LAYER_1
  6
BYLAYER
 62
    7
 10
90.07708529421635
 20
96.19402415417409
 30
0
  0
VERTEX
  5
1C2
  8
LAYER_1
  6
BYLAYER
 62
    7
 10
91.71232551743812
 20
95.94261376986337
 30
0
  0
VERTEX
  5
1C3
  8
LAYER_1
  6
BYLAYER
 62
    7
 10
93.4012999193716
 20
95.74012045023665
 30
0
  0
VERTEX
  5
1C4
  8
LAYER_1
  6
BYLAYER
 62
    7
 10
95.14322403430563
 20
95.58511445436541
 30
0
  0
VERTEX
  5
1C5
  8
LAYER_1
  6
BYLAYER
 62
    7
 10
96.93731339652911
 20
95.47616604132119
 30
0
  0
VERTEX
  5
1C6
  8
LAYER_1
  6
BYLAYER
 62
    7
 10
98.78278354033094
 20
95.41184547017555
 30
0
  0
VERTEX
  5
1C7
  8
LAYER_1
  6
BYLAYER
 62
    7
 10
100.67885
 20
95.39072299999999
 30
0
  0
SEQEND
  5
1C8
  8
LAYER_1
  6
BYLAYER
 62
    7
  0
POLYLINE
  5
1C9
  8
LAYER_1
  6
BYLAYER
 62
    7
 66
    1
 10
0
 20
0
 30
0
 70
    0
  0
VERTEX
  5
1CA
  8
LAYER_1
  6
BYLAYER
 62
    7
 10
81.660651
 20
122.559322
 30
0
  0
VERTEX
  5
1CB
  8
LAYER_1
  6
BYLAYER
 62
    7
 10
81.68275056396227
 20
121.3974563026081
 30
0
  0
VERTEX
  5
1CC
  8
LAYER_1
  6
BYLAYER
 62
    7
 10
81.74873867923201
 20
120.2863201232587
 30
0
  0
VERTEX
  5
1CD
  8
LAYER_1
  6
BYLAYER
 62
    7
 10
81.85814948088348
 20
119.2250567344164
 30
0
  0
VERTEX
  5
1CE
  8
LAYER_1
  6
BYLAYER
 62
    7
 10
82.01051710399113
 20
118.2128094085462
 30
0
  0
VERTEX
  5
1CF
  8
LAYER_1
  6
BYLAYER
 62
    7
 10
82.20537568362928
 20
117.2487214181129
 30
0
  0
VERTEX
  5
1D0
  8
LAYER_1
  6
BYLAYER
 62
    7
 10
82.44225935487228
 20
116.3319360355813
 30
0
  0
VERTEX
  5
1D1
  8
LAYER_1
  6
BYLAYER
 62
    7
 10
82.72070225279447
 20
115.4615965334161
 30
0
  0
VERTEX
  5
1D2
  8
LAYER_1
  6
BYLAYER
 62
    7
 10
83.04023851247021
 20
114.6368461840824
 30
0
  0
VERTEX
  5
1D3
  8
LAYER_1
  6
BYLAYER
 62
    7
 10
83.40040226897385
 20
113.856828260045
 30
0
  0
VERTEX
  5
1D4
  8
LAYER_1
  6
BYLAYER
 62
    7
 10
83.80072765737975
 20
113.1206860337686
 30
0
  0
VERTEX
  5
1D5
  8
LAYER_1
  6
BYLAYER
 62
    7
 10
84.24074881276223
 20
112.4275627777181
 30
0
  0
VERTEX
  5
1D6
  8
LAYER_1
  6
BYLAYER
 62
    7
 10
84.71999987019569
 20
111.7766017643584
 30
0
  0
VERTEX
  5
1D7
  8
LAYER_1
  6
BYLAYER
 62
    7
 10
85.23801496475446
 20
111.1669462661542
 30
0
  0
VERTEX
  5
1D8
  8
LAYER_1
  6
BYLAYER
 62
    7
 10
85.79432823151286
 20
110.5977395555705
 30
0
  0
VERTEX
  5
1D9
  8
LAYER_1
  6
BYLAYER
 62
    7
 10
86.3884738055453
 20
110.068124905072
 30
0
  0
VERTEX
  5
1DA
  8
LAYER_1
  6
BYLAYER
 62
    7
 10
87.01998582192608
 20
109.5772455871236
 30
0
  0
VERTEX
  5
1DB
  8
LAYER_1
  6
BYLAYER
 62
    7
 10
87.68839841572958
 20
109.1242448741902
 30
0
  0
VERTEX
  5
1DC
  8
LAYER_1
  6
BYLAYER
 62
    7
 10
88.39324572203013
 20
108.7082660387365
 30
0
  0
VERTEX
  5
1DD
  8
LAYER_1
  6
BYLAYER
 62
    7
 10
89.13406187590212
 20
108.3284523532275
 30
0
  0
VERTEX
  5
1DE
  8
LAYER_1
  6
BYLAYER
 62
    7
 10
89.91038101241985
 20
107.9839470901279
 30
0
  0
VERTEX
  5
1DF
  8
LAYER_1
  6
BYLAYER
 62
    7
 10
90.72173726665771
 20
107.6738935219026
 30
0
  0
VERTEX
  5
1E0
  8
LAYER_1
  6
BYLAYER
 62
    7
 10
91.56766477369004
 20
107.3974349210164
 30
0
  0
VERTEX
  5
1E1
  8
LAYER_1
  6
BYLAYER
 62
    7
 10
92.44769766859119
 20
107.1537145599342
 30
0
  0
VERTEX
  5
1E2
  8
LAYER_1
  6
BYLAYER
 62
    7
 10
93.3613700864355
 20
106.9418757111208
 30
0
  0
VERTEX
  5
1E3
  8
LAYER_1
  6
BYLAYER
 62
    7
 10
94.30821616229733
 20
106.7610616470411
 30
0
  0
VERTEX
  5
1E4
  8
LAYER_1
  6
BYLAYER
 62
    7
 10
95.28777003125103
 20
106.6104156401598
 30
0
  0
VERTEX
  5
1E5
  8
LAYER_1
  6
BYLAYER
 62
    7
 10
96.29956582837097
 20
106.4890809629418
 30
0
  0
VERTEX
  5
1E6
  8
LAYER_1
  6
BYLAYER
 62
    7
 10
97.34313768873149
 20
106.396200887852
 30
0
  0
VERTEX
  5
1E7
  8
LAYER_1
  6
BYLAYER
 62
    7
 10
98.4180197474069
 20
106.3309186873552
 30
0
  0
VERTEX
  5
1E8
  8
LAYER_1
  6
BYLAYER
 62
    7
 10
99.52374613947163
 20
106.2923776339163
 30
0
  0
VERTEX
  5
1E9
  8
LAYER_1
  6
BYLAYER
 62
    7
 10
100.659851
 20
106.279721
 30
0
  0
SEQEND
  5
1EA
  8
LAYER_1
  6
BYLAYER
 62
    7
  0
POLYLINE
  5
1EB
  8
LAYER_1
  6
BYLAYER
 62
    7
 66
    1
 10
0
 20
0
 30
0
 70
    0
  0
VERTEX
  5
1EC
  8
LAYER_1
  6
BYLAYER
 62
    7
 10
83.184651
 20
122.559322
 30
0
  0
VERTEX
  5
1ED
  8
LAYER_1
  6
BYLAYER
 62
    7
 10
83.20497771612231
 20
121.4906538116209
 30
0
  0
VERTEX
  5
1EE
  8
LAYER_1
  6
BYLAYER
 62
    7
 10
83.26567222117419
 20
120.4686462806888
 30
0
  0
VERTEX
  5
1EF
  8
LAYER_1
  6
BYLAYER
 62
    7
 10
83.36630605018293
 20
119.4925113778658
 30
0
  0
VERTEX
  5
1F0
  8
LAYER_1
  6
BYLAYER
 62
    7
 10
83.50645073817597
 20
118.5614610738142
 30
0
  0
VERTEX
  5
1F1
  8
LAYER_1
  6
BYLAYER
 62
    7
 10
83.6856778201806
 20
117.6747073391964
 30
0
  0
VERTEX
  5
1F2
  8
LAYER_1
  6
BYLAYER
 62
    7
 10
83.9035588312242
 20
116.8314621446746
 30
0
  0
VERTEX
  5
1F3
  8
LAYER_1
  6
BYLAYER
 62
    7
 10
84.15966530633412
 20
116.030937460911
 30
0
  0
VERTEX
  5
1F4
  8
LAYER_1
  6
BYLAYER
 62
    7
 10
84.45356878053775
 20
115.272345258568
 30
0
  0
VERTEX
  5
1F5
  8
LAYER_1
  6
BYLAYER
 62
    7
 10
84.78484078886241
 20
114.5548975083078
 30
0
  0
VERTEX
  5
1F6
  8
LAYER_1
  6
BYLAYER
 62
    7
 10
85.15305286633549
 20
113.8778061807929
 30
0
  0
VERTEX
  5
1F7
  8
LAYER_1
  6
BYLAYER
 62
    7
 10
85.55777654798429
 20
113.2402832466852
 30
0
  0
VERTEX
  5
1F8
  8
LAYER_1
  6
BYLAYER
 62
    7
 10
85.99858336883622
 20
112.6415406766473
 30
0
  0
VERTEX
  5
1F9
  8
LAYER_1
  6
BYLAYER
 62
    7
 10
86.47504486391863
 20
112.0807904413413
 30
0
  0
VERTEX
  5
1FA
  8
LAYER_1
  6
BYLAYER
 62
    7
 10
86.98673256825887
 20
111.5572445114296
 30
0
  0
VERTEX
  5
1FB
  8
LAYER_1
  6
BYLAYER
 62
    7
 10
87.53321801688431
 20
111.0701148575744
 30
0
  0
VERTEX
  5
1FC
  8
LAYER_1
  6
BYLAYER
 62
    7
 10
88.11407274482225
 20
110.6186134504381
 30
0
  0
VERTEX
  5
1FD
  8
LAYER_1
  6
BYLAYER
 62
    7
 10
88.72886828710013
 20
110.2019522606828
 30
0
  0
VERTEX
  5
1FE
  8
LAYER_1
  6
BYLAYER
 62
    7
 10
89.37717617874526
 20
109.8193432589708
 30
0
  0
VERTEX
  5
1FF
  8
LAYER_1
  6
BYLAYER
 62
    7
 10
90.058567954785
 20
109.4699984159646
 30
0
  0
VERTEX
  5
200
  8
LAYER_1
  6
BYLAYER
 62
    7
 10
90.77261515024671
 20
109.1531297023262
 30
0
  0
VERTEX
  5
201
  8
LAYER_1
  6
BYLAYER
 62
    7
 10
91.51888930015775
 20
108.8679490887181
 30
0
  0
VERTEX
  5
202
  8
LAYER_1
  6
BYLAYER
 62
    7
 10
92.2969619395455
 20
108.6136685458024
 30
0
  0
VERTEX
  5
203
  8
LAYER_1
  6
BYLAYER
 62
    7
 10
93.10640460343728
 20
108.3895000442416
 30
0
  0
VERTEX
  5
204
  8
LAYER_1
  6
BYLAYER
 62
    7
 10
93.94678882686046
 20
108.1946555546977
 30
0
  0
VERTEX
  5
205
  8
LAYER_1
  6
BYLAYER
 62
    7
 10
94.81768614484238
 20
108.0283470478333
 30
0
  0
VERTEX
  5
206
  8
LAYER_1
  6
BYLAYER
 62
    7
 10
95.71866809241044
 20
107.8897864943104
 30
0
  0
VERTEX
  5
207
  8
LAYER_1
  6
BYLAYER
 62
    7
 10
96.64930620459198
 20
107.7781858647914
 30
0
  0
VERTEX
  5
208
  8
LAYER_1
  6
BYLAYER
 62
    7
 10
97.60917201641433
 20
107.6927571299386
 30
0
  0
VERTEX
  5
209
  8
LAYER_1
  6
BYLAYER
 62
    7
 10
98.59783706290489
 20
107.6327122604142
 30
0
  0
VERTEX
  5
20A
  8
LAYER_1
  6
BYLAYER
 62
    7
 10
99.61487287909098
 20
107.5972632268806
 30
0
  0
VERTEX
  5
20B
  8
LAYER_1
  6
BYLAYER
 62
    7
 10
100.659851
 20
107.585622
 30
0
  0
SEQEND
  5
20C
  8
LAYER_1
  6
BYLAYER
 62
    7
  0
POLYLINE
  5
20D
  8
LAYER_1
  6
BYLAYER
 62
    7
 66
    1
 10
0
 20
0
 30
0
 70
    0
  0
VERTEX
  5
20E
  8
LAYER_1
  6
BYLAYER
 62
    7
 10
94.360651
 20
121.797322
 30
0
  0
VERTEX
  5
20F
  8
LAYER_1
  6
BYLAYER
 62
    7
 10
94.36797791450439
 20
121.4121004770233
 30
0
  0
VERTEX
  5
210
  8
LAYER_1
  6
BYLAYER
 62
    7
 10
94.38985571457825
 20
121.043698355208
 30
0
  0
VERTEX
  5
211
  8
LAYER_1
  6
BYLAYER
 62
    7
 10
94.4261299850626
 20
120.691831595549
 30
0
  0
VERTEX
  5
212
  8
LAYER_1
  6
BYLAYER
 62
    7
 10
94.47664631079857
 20
120.3562161590413
 30
0
  0
VERTEX
  5
213
  8
LAYER_1
  6
BYLAYER
 62
    7
 10
94.54125027662718
 20
120.0365680066799
 30
0
  0
VERTEX
  5
214
  8
LAYER_1
  6
BYLAYER
 62
    7
 10
94.6197874673895
 20
119.7326030994596
 30
0
  0
VERTEX
  5
215
  8
LAYER_1
  6
BYLAYER
 62
    7
 10
94.71210346792657
 20
119.4440373983754
 30
0
  0
VERTEX
  5
216
  8
LAYER_1
  6
BYLAYER
 62
    7
 10
94.81804386307945
 20
119.1705868644221
 30
0
  0
VERTEX
  5
217
  8
LAYER_1
  6
BYLAYER
 62
    7
 10
94.93745423768922
 20
118.9119674585949
 30
0
  0
VERTEX
  5
218
  8
LAYER_1
  6
BYLAYER
 62
    7
 10
95.07018017659695
 20
118.6678951418885
 30
0
  0
VERTEX
  5
219
  8
LAYER_1
  6
BYLAYER
 62
    7
 10
95.21606726464368
 20
118.4380858752979
 30
0
  0
VERTEX
  5
21A
  8
LAYER_1
  6
BYLAYER
 62
    7
 10
95.37496108667047
 20
118.2222556198181
 30
0
  0
VERTEX
  5
21B
  8
LAYER_1
  6
BYLAYER
 62
    7
 10
95.54670722751837
 20
118.0201203364439
 30
0
  0
VERTEX
  5
21C
  8
LAYER_1
  6
BYLAYER
 62
    7
 10
95.73115127202847
 20
117.8313959861703
 30
0
  0
VERTEX
  5
21D
  8
LAYER_1
  6
BYLAYER
 62
    7
 10
95.9281388050418
 20
117.6557985299923
 30
0
  0
VERTEX
  5
21E
  8
LAYER_1
  6
BYLAYER
 62
    7
 10
96.13751541139942
 20
117.4930439289047
 30
0
  0
VERTEX
  5
21F
  8
LAYER_1
  6
BYLAYER
 62
    7
 10
96.35912667594239
 20
117.3428481439025
 30
0
  0
VERTEX
  5
220
  8
LAYER_1
  6
BYLAYER
 62
    7
 10
96.5928181835118
 20
117.2049271359807
 30
0
  0
VERTEX
  5
221
  8
LAYER_1
  6
BYLAYER
 62
    7
 10
96.83843551894869
 20
117.0789968661341
 30
0
  0
VERTEX
  5
222
  8
LAYER_1
  6
BYLAYER
 62
    7
 10
97.09582426709409
 20
116.9647732953576
 30
0
  0
VERTEX
  5
223
  8
LAYER_1
  6
BYLAYER
 62
    7
 10
97.3648300127891
 20
116.8619723846464
 30
0
  0
VERTEX
  5
224
  8
LAYER_1
  6
BYLAYER
 62
    7
 10
97.64529834087477
 20
116.7703100949951
 30
0
  0
VERTEX
  5
225
  8
LAYER_1
  6
BYLAYER
 62
    7
 10
97.93707483619215
 20
116.6895023873989
 30
0
  0
VERTEX
  5
226
  8
LAYER_1
  6
BYLAYER
 62
    7
 10
98.2400050835823
 20
116.6192652228525
 30
0
  0
VERTEX
  5
227
  8
LAYER_1
  6
BYLAYER
 62
    7
 10
98.55393466788627
 20
116.559314562351
 30
0
  0
VERTEX
  5
228
  8
LAYER_1
  6
BYLAYER
 62
    7
 10
98.87870917394514
 20
116.5093663668893
 30
0
  0
VERTEX
  5
229
  8
LAYER_1
  6
BYLAYER
 62
    7
 10
99.21417418659998
 20
116.4691365974623
 30
0
  0
VERTEX
  5
22A
  8
LAYER_1
  6
BYLAYER
 62
    7
 10
99.56017529069182
 20
116.438341215065
 30
0
  0
VERTEX
  5
22B
  8
LAYER_1
  6
BYLAYER
 62
    7
 10
99.91655807106171
 20
116.4166961806922
 30
0
  0
VERTEX
  5
22C
  8
LAYER_1
  6
BYLAYER
 62
    7
 10
100.2831681125508
 20
116.4039174553389
 30
0
  0
VERTEX
  5
22D
  8
LAYER_1
  6
BYLAYER
 62
    7
 10
100.659851
 20
116.399721
 30
0
  0
SEQEND
  5
22E
  8
LAYER_1
  6
BYLAYER
 62
    7
  0
POLYLINE
  5
22F
  8
LAYER_1
  6
BYLAYER
 62
    7
 66
    1
 10
0
 20
0
 30
0
 70
    0
  0
VERTEX
  5
230
  8
LAYER_1
  6
BYLAYER
 62
    7
 10
95.88465100000001
 20
121.797322
 30
0
  0
VERTEX
  5
231
  8
LAYER_1
  6
BYLAYER
 62
    7
 10
95.89020537179015
 20
121.5052980797221
 30
0
  0
VERTEX
  5
232
  8
LAYER_1
  6
BYLAYER
 62
    7
 10
95.90679043633985
 20
121.226024693968
 30
0
  0
VERTEX
  5
233
  8
LAYER_1
  6
BYLAYER
 62
    7
 10
95.934289117418
 20
120.9592865021315
 30
0
  0
VERTEX
  5
234
  8
LAYER_1
  6
BYLAYER
 62
    7
 10
95.9725843387936
 20
120.7048681636065
 30
0
  0
VERTEX
  5
235
  8
LAYER_1
  6
BYLAYER
 62
    7
 10
96.02155902423551
 20
120.4625543377866
 30
0
  0
VERTEX
  5
236
  8
LAYER_1
  6
BYLAYER
 62
    7
 10
96.08109609751268
 20
120.2321296840657
 30
0
  0
VERTEX
  5
237
  8
LAYER_1
  6
BYLAYER
 62
    7
 10
96.15107848239401
 20
120.0133788618375
 30
0
  0
VERTEX
  5
238
  8
LAYER_1
  6
BYLAYER
 62
    7
 10
96.23138910264846
 20
119.8060865304958
 30
0
  0
VERTEX
  5
239
  8
LAYER_1
  6
BYLAYER
 62
    7
 10
96.3219108820449
 20
119.6100373494344
 30
0
  0
VERTEX
  5
23A
  8
LAYER_1
  6
BYLAYER
 62
    7
 10
96.42252674435233
 20
119.4250159780471
 30
0
  0
VERTEX
  5
23B
  8
LAYER_1
  6
BYLAYER
 62
    7
 10
96.53311961333959
 20
119.2508070757276
 30
0
  0
VERTEX
  5
23C
  8
LAYER_1
  6
BYLAYER
 62
    7
 10
96.65357241277567
 20
119.0871953018697
 30
0
  0
VERTEX
  5
23D
  8
LAYER_1
  6
BYLAYER
 62
    7
 10
96.78376806642946
 20
118.9339653158672
 30
0
  0
VERTEX
  5
23E
  8
LAYER_1
  6
BYLAYER
 62
    7
 10
96.92358949806989
 20
118.7909017771139
 30
0
  0
VERTEX
  5
23F
  8
LAYER_1
  6
BYLAYER
 62
    7
 10
97.07291963146589
 20
118.6577893450035
 30
0
  0
VERTEX
  5
240
  8
LAYER_1
  6
BYLAYER
 62
    7
 10
97.23164139038636
 20
118.5344126789299
 30
0
  0
VERTEX
  5
241
  8
LAYER_1
  6
BYLAYER
 62
    7
 10
97.39963769860024
 20
118.4205564382867
 30
0
  0
VERTEX
  5
242
  8
LAYER_1
  6
BYLAYER
 62
    7
 10
97.57679147987648
 20
118.3160052824679
 30
0
  0
VERTEX
  5
243
  8
LAYER_1
  6
BYLAYER
 62
    7
 10
97.76298565798396
 20
118.220543870867
 30
0
  0
VERTEX
  5
244
  8
LAYER_1
  6
BYLAYER
 62
    7
 10
97.95810315669162
 20
118.1339568628781
 30
0
  0
VERTEX
  5
245
  8
LAYER_1
  6
BYLAYER
 62
    7
 10
98.16202689976839
 20
118.0560289178947
 30
0
  0
VERTEX
  5
246
  8
LAYER_1
  6
BYLAYER
 62
    7
 10
98.37463981098318
 20
117.9865446953107
 30
0
  0
VERTEX
  5
247
  8
LAYER_1
  6
BYLAYER
 62
    7
 10
98.59582481410493
 20
117.9252888545198
 30
0
  0
VERTEX
  5
248
  8
LAYER_1
  6
BYLAYER
 62
    7
 10
98.82546483290255
 20
117.8720460549159
 30
0
  0
VERTEX
  5
249
  8
LAYER_1
  6
BYLAYER
 62
    7
 10
99.06344279114498
 20
117.8266009558927
 30
0
  0
VERTEX
  5
24A
  8
LAYER_1
  6
BYLAYER
 62
    7
 10
99.30964161260113
 20
117.788738216844
 30
0
  0
VERTEX
  5
24B
  8
LAYER_1
  6
BYLAYER
 62
    7
 10
99.56394422103992
 20
117.7582424971636
 30
0
  0
VERTEX
  5
24C
  8
LAYER_1
  6
BYLAYER
 62
    7
 10
99.82623354023028
 20
117.7348984562452
 30
0
  0
VERTEX
  5
24D
  8
LAYER_1
  6
BYLAYER
 62
    7
 10
100.0963924939411
 20
117.7184907534826
 30
0
  0
VERTEX
  5
24E
  8
LAYER_1
  6
BYLAYER
 62
    7
 10
100.3743040059414
 20
117.7088040482696
 30
0
  0
VERTEX
  5
24F
  8
LAYER_1
  6
BYLAYER
 62
    7
 10
100.659851
 20
117.705623
 30
0
  0
SEQEND
  5
250
  8
LAYER_1
  6
BYLAYER
 62
    7
  0
ENDSEC
  0
EOF
