  0
SECTION
  2
HEADER
  9
$ACADVER
  1
AC1012
  9
$DWGCODEPAGE
  3
ansi_1252
  9
$INSBASE
 10
0.0
 20
0.0
 30
0.0
  9
$EXTMIN
 10
1.000000000000000E+20
 20
1.000000000000000E+20
 30
1.000000000000000E+20
  9
$EXTMAX
 10
-1.000000000000000E+20
 20
-1.000000000000000E+20
 30
-1.000000000000000E+20
  9
$LIMMIN
 10
0.0
 20
0.0
  9
$LIMMAX
 10
12.0
 20
9.0
  9
$ORTHOMODE
 70
     0
  9
$REGENMODE
 70
     1
  9
$FILLMODE
 70
     1
  9
$QTEXTMODE
 70
     0
  9
$MIRRTEXT
 70
     1
  9
$DRAGMODE
 70
     2
  9
$LTSCALE
 40
1.0
  9
$OSMODE
 70
    37
  9
$ATTMODE
 70
     1
  9
$TEXTSIZE
 40
0.2
  9
$TRACEWID
 40
0.05
  9
$TEXTSTYLE
  7
STANDARD
  9
$CLAYER
  8
0
  9
$CELTYPE
  6
BYLAYER
  9
$CECOLOR
 62
   256
  9
$CELTSCALE
 40
1.0
  9
$DELOBJ
 70
     1
  9
$DISPSILH
 70
     0
  9
$DIMSCALE
 40
1.0
  9
$DIMASZ
 40
0.18
  9
$DIMEXO
 40
0.0625
  9
$DIMDLI
 40
0.38
  9
$DIMRND
 40
0.0
  9
$DIMDLE
 40
0.0
  9
$DIMEXE
 40
0.18
  9
$DIMTP
 40
0.0
  9
$DIMTM
 40
0.0
  9
$DIMTXT
 40
0.18
  9
$DIMCEN
 40
0.09
  9
$DIMTSZ
 40
0.0
  9
$DIMTOL
 70
     0
  9
$DIMLIM
 70
     0
  9
$DIMTIH
 70
     1
  9
$DIMTOH
 70
     1
  9
$DIMSE1
 70
     0
  9
$DIMSE2
 70
     0
  9
$DIMTAD
 70
     0
  9
$DIMZIN
 70
     0
  9
$DIMBLK
  1

  9
$DIMASO
 70
     1
  9
$DIMSHO
 70
     1
  9
$DIMPOST
  1

  9
$DIMAPOST
  1

  9
$DIMALT
 70
     0
  9
$DIMALTD
 70
     2
  9
$DIMALTF
 40
25.4
  9
$DIMLFAC
 40
1.0
  9
$DIMTOFL
 70
     0
  9
$DIMTVP
 40
0.0
  9
$DIMTIX
 70
     0
  9
$DIMSOXD
 70
     0
  9
$DIMSAH
 70
     0
  9
$DIMBLK1
  1

  9
$DIMBLK2
  1

  9
$DIMSTYLE
  2
STANDARD
  9
$DIMCLRD
 70
     0
  9
$DIMCLRE
 70
     0
  9
$DIMCLRT
 70
     0
  9
$DIMTFAC
 40
1.0
  9
$DIMGAP
 40
0.09
  9
$DIMJUST
 70
     0
  9
$DIMSD1
 70
     0
  9
$DIMSD2
 70
     0
  9
$DIMTOLJ
 70
     1
  9
$DIMTZIN
 70
     0
  9
$DIMALTZ
 70
     0
  9
$DIMALTTZ
 70
     0
  9
$DIMFIT
 70
     3
  9
$DIMUPT
 70
     0
  9
$DIMUNIT
 70
     2
  9
$DIMDEC
 70
     4
  9
$DIMTDEC
 70
     4
  9
$DIMALTU
 70
     2
  9
$DIMALTTD
 70
     2
  9
$DIMTXSTY
  7
STANDARD
  9
$DIMAUNIT
 70
     0
  9
$LUNITS
 70
     2
  9
$LUPREC
 70
     4
  9
$SKETCHINC
 40
0.1
  9
$FILLETRAD
 40
0.5
  9
$AUNITS
 70
     0
  9
$AUPREC
 70
     0
  9
$MENU
  1
.
  9
$ELEVATION
 40
0.0
  9
$PELEVATION
 40
0.0
  9
$THICKNESS
 40
0.0
  9
$LIMCHECK
 70
     0
  9
$CHAMFERA
 40
0.5
  9
$CHAMFERB
 40
0.5
  9
$CHAMFERC
 40
1.0
  9
$CHAMFERD
 40
0.0
  9
$SKPOLY
 70
     0
  9
$TDCREATE
 40
2459176.976237199
  9
$TDUPDATE
 40
2459176.976237222
  9
$TDINDWG
 40
0.0000000116
  9
$TDUSRTIMER
 40
0.0000000116
  9
$USRTIMER
 70
     1
  9
$ANGBASE
 50
0.0
  9
$ANGDIR
 70
     0
  9
$PDMODE
 70
     0
  9
$PDSIZE
 40
0.0
  9
$PLINEWID
 40
0.0
  9
$COORDS
 70
     1
  9
$SPLFRAME
 70
     0
  9
$SPLINETYPE
 70
     6
  9
$SPLINESEGS
 70
     8
  9
$ATTDIA
 70
     0
  9
$ATTREQ
 70
     1
  9
$HANDLING
 70
     1
  9
$HANDSEED
  5
4D
  9
$SURFTAB1
 70
     6
  9
$SURFTAB2
 70
     6
  9
$SURFTYPE
 70
     6
  9
$SURFU
 70
     6
  9
$SURFV
 70
     6
  9
$UCSNAME
  2

  9
$UCSORG
 10
0.0
 20
0.0
 30
0.0
  9
$UCSXDIR
 10
1.0
 20
0.0
 30
0.0
  9
$UCSYDIR
 10
0.0
 20
1.0
 30
0.0
  9
$PUCSNAME
  2

  9
$PUCSORG
 10
0.0
 20
0.0
 30
0.0
  9
$PUCSXDIR
 10
1.0
 20
0.0
 30
0.0
  9
$PUCSYDIR
 10
0.0
 20
1.0
 30
0.0
  9
$USERI1
 70
     0
  9
$USERI2
 70
     0
  9
$USERI3
 70
     0
  9
$USERI4
 70
     0
  9
$USERI5
 70
     0
  9
$USERR1
 40
0.0
  9
$USERR2
 40
0.0
  9
$USERR3
 40
0.0
  9
$USERR4
 40
0.0
  9
$USERR5
 40
0.0
  9
$WORLDVIEW
 70
     1
  9
$SHADEDGE
 70
     3
  9
$SHADEDIF
 70
    70
  9
$TILEMODE
 70
     1
  9
$MAXACTVP
 70
    64
  9
$PINSBASE
 10
0.0
 20
0.0
 30
0.0
  9
$PLIMCHECK
 70
     0
  9
$PEXTMIN
 10
1.000000000000000E+20
 20
1.000000000000000E+20
 30
1.000000000000000E+20
  9
$PEXTMAX
 10
-1.000000000000000E+20
 20
-1.000000000000000E+20
 30
-1.000000000000000E+20
  9
$PLIMMIN
 10
0.0
 20
0.0
  9
$PLIMMAX
 10
12.0
 20
9.0
  9
$UNITMODE
 70
     0
  9
$VISRETAIN
 70
     1
  9
$PLINEGEN
 70
     0
  9
$PSLTSCALE
 70
     1
  9
$TREEDEPTH
 70
  3020
  9
$PICKSTYLE
 70
     1
  9
$CMLSTYLE
  2
STANDARD
  9
$CMLJUST
 70
     0
  9
$CMLSCALE
 40
1.0
  9
$SAVEIMAGES
 70
     1
  0
ENDSEC
  0
SECTION
  2
CLASSES
  0
CLASS
  1
ACDBDICTIONARYWDFLT
  2
AcDbDictionaryWithDefault
  3
ObjectDBX Classes
 90
    32768
280
     0
281
     0
  0
CLASS
  1
VISUALSTYLE
  2
AcDbVisualStyle
  3
ObjectDBX Classes
 90
     4095
280
     0
281
     0
  0
CLASS
  1
MATERIAL
  2
AcDbMaterial
  3
ObjectDBX Classes
 90
     1153
280
     0
281
     0
  0
CLASS
  1
SUN
  2
AcDbSun
  3
SCENEOE
 90
     1024
280
     0
281
     0
  0
CLASS
  1
DICTIONARYVAR
  2
AcDbDictionaryVar
  3
ObjectDBX Classes
 90
        0
280
     0
281
     0
  0
CLASS
  1
XRECORD
  2
AcDbXrecord
  3
AutoCAD 2000
 90
    32768
280
     0
281
     0
  0
CLASS
  1
LWPOLYLINE
  2
AcDbPolyline
  3
AutoCAD 2000
 90
    32768
280
     0
281
     1
  0
CLASS
  1
HATCH
  2
AcDbHatch
  3
AutoCAD 2000
 90
    32768
280
     0
281
     1
  0
CLASS
  1
ACDBPLACEHOLDER
  2
AcDbPlaceHolder
  3
ObjectDBX Classes
 90
        0
280
     0
281
     0
  0
CLASS
  1
LAYOUT
  2
AcDbLayout
  3
ObjectDBX Classes
 90
        0
280
     0
281
     0
  0
ENDSEC
  0
SECTION
  2
TABLES
  0
TABLE
  2
VPORT
  5
8
330
0
100
AcDbSymbolTable
 70
     1
  0
VPORT
  5
29
330
8
100
AcDbSymbolTableRecord
100
AcDbViewportTableRecord
  2
*ACTIVE
 70
     0
 10
0.0
 20
0.0
 11
1.0
 21
1.0
 12
0.0
 22
0.0
 13
0.0
 23
0.0
 14
0.5
 24
0.5
 15
0.5
 25
0.5
 16
0.0
 26
0.0
 36
1.0
 17
4.25
 27
-5.5
 37
0.0
 40
11.0
 41
0.7727272727272727
 42
50.0
 43
0.0
 44
0.0
 50
0.0
 51
0.0
 71
     0
 72
   100
 73
     1
 74
     3
 75
     0
 76
     0
 77
     0
 78
     0
  0
ENDTAB
  0
TABLE
  2
LTYPE
  5
5
330
0
100
AcDbSymbolTable
 70
     1
  0
LTYPE
  5
14
330
5
100
AcDbSymbolTableRecord
100
AcDbLinetypeTableRecord
  2
BYBLOCK
 70
     0
  3

 72
    65
 73
     0
 40
0.0
  0
LTYPE
  5
15
330
5
100
AcDbSymbolTableRecord
100
AcDbLinetypeTableRecord
  2
BYLAYER
 70
     0
  3

 72
    65
 73
     0
 40
0.0
  0
LTYPE
  5
16
330
5
100
AcDbSymbolTableRecord
100
AcDbLinetypeTableRecord
  2
CONTINUOUS
 70
     0
  3
Solid line
 72
    65
 73
     0
 40
0.0
  0
ENDTAB
  0
TABLE
  2
LAYER
  5
2
330
0
100
AcDbSymbolTable
 70
     2
  0
LAYER
  5
10
330
2
100
AcDbSymbolTableRecord
100
AcDbLayerTableRecord
  2
0
 70
     0
 62
     7
  6
CONTINUOUS
  0
LAYER
  5
40
330
2
100
AcDbSymbolTableRecord
100
AcDbLayerTableRecord
  2
LAYER_1
 70
     0
 62
     7
  6
CONTINUOUS
  0
ENDTAB
  0
TABLE
  2
STYLE
  5
3
330
0
100
AcDbSymbolTable
 70
     1
  0
STYLE
  5
11
330
3
100
AcDbSymbolTableRecord
100
AcDbTextStyleTableRecord
  2
STANDARD
 70
     0
 40
0.0
 41
1.0
 50
0.0
 71
     0
 42
0.2
  3
txt
  4

  0
ENDTAB
  0
TABLE
  2
VIEW
  5
6
330
0
100
AcDbSymbolTable
 70
     0
  0
ENDTAB
  0
TABLE
  2
UCS
  5
7
330
0
100
AcDbSymbolTable
 70
     0
  0
ENDTAB
  0
TABLE
  2
APPID
  5
9
330
0
100
AcDbSymbolTable
 70
     1
  0
APPID
  5
12
330
9
100
AcDbSymbolTableRecord
100
AcDbRegAppTableRecord
  2
ACAD
 70
     0
  0
ENDTAB
  0
TABLE
  2
DIMSTYLE
  5
A
330
0
100
AcDbSymbolTable
 70
     1
  0
DIMSTYLE
105
27
330
A
100
AcDbSymbolTableRecord
100
AcDbDimStyleTableRecord
  2
STANDARD
 70
     0
  3

  4

  5

  6

  7

 40
1.0
 41
0.18
 42
0.0625
 43
0.38
 44
0.18
 45
0.0
 46
0.0
 47
0.0
 48
0.0
140
0.18
141
0.09
142
0.0
143
25.4
144
1.0
145
0.0
146
1.0
147
0.09
 71
     0
 72
     0
 73
     1
 74
     1
 75
     0
 76
     0
 77
     0
 78
     0
170
     0
171
     2
172
     0
173
     0
174
     0
175
     0
176
     0
177
     0
178
     0
270
     2
271
     4
272
     4
273
     2
274
     2
340
11
275
     0
280
     0
281
     0
282
     0
283
     1
284
     0
285
     0
286
     0
287
     3
288
     0
  0
ENDTAB
  0
TABLE
  2
BLOCK_RECORD
  5
1
330
0
100
AcDbSymbolTable
 70
     1
  0
BLOCK_RECORD
  5
1F
330
1
100
AcDbSymbolTableRecord
100
AcDbBlockTableRecord
  2
*MODEL_SPACE
  0
BLOCK_RECORD
  5
1B
330
1
100
AcDbSymbolTableRecord
100
AcDbBlockTableRecord
  2
*PAPER_SPACE
  0
ENDTAB
  0
ENDSEC
  0
SECTION
  2
BLOCKS
  0
BLOCK
  5
20
330
1F
100
AcDbEntity
  8
0
100
AcDbBlockBegin
  2
*MODEL_SPACE
 70
     0
 10
0.0
 20
0.0
 30
0.0
  3
*MODEL_SPACE
  1

  0
ENDBLK
  5
21
330
1F
100
AcDbEntity
  8
0
100
AcDbBlockEnd
  0
BLOCK
  5
1C
330
1B
100
AcDbEntity
 67
     1
  8
0
100
AcDbBlockBegin
  2
*PAPER_SPACE
 70
     0
 10
0.0
 20
0.0
 30
0.0
  3
*PAPER_SPACE
  1

  0
ENDBLK
  5
1D
330
1B
100
AcDbEntity
 67
     1
  8
0
100
AcDbBlockEnd
  0
ENDSEC
  0
SECTION
  2
ENTITIES
  0
SPLINE
  5
41
330
1F
100
AcDbEntity
  8
LAYER_1
 62
   178
100
AcDbSpline
210
0.0
220
0.0
230
1.0
 70
    11
 71
     3
 72
   887
 73
   883
 74
     0
 42
0.0000000001
 43
0.0000000001
 12
1.0
 22
0.0
 32
0.0
 13
1.0
 23
0.0
 33
0.0
 40
0.0
 40
0.0
 40
0.0
 40
0.0
 40
1.0
 40
1.0
 40
1.0
 40
2.0
 40
2.0
 40
2.0
 40
3.0
 40
3.0
 40
3.0
 40
4.0
 40
4.0
 40
4.0
 40
5.0
 40
5.0
 40
5.0
 40
6.0
 40
6.0
 40
6.0
 40
7.0
 40
7.0
 40
7.0
 40
8.0
 40
8.0
 40
8.0
 40
9.0
 40
9.0
 40
9.0
 40
10.0
 40
10.0
 40
10.0
 40
11.0
 40
11.0
 40
11.0
 40
12.0
 40
12.0
 40
12.0
 40
13.0
 40
13.0
 40
13.0
 40
14.0
 40
14.0
 40
14.0
 40
15.0
 40
15.0
 40
15.0
 40
16.0
 40
16.0
 40
16.0
 40
17.0
 40
17.0
 40
17.0
 40
18.0
 40
18.0
 40
18.0
 40
19.0
 40
19.0
 40
19.0
 40
20.0
 40
20.0
 40
20.0
 40
21.0
 40
21.0
 40
21.0
 40
22.0
 40
22.0
 40
22.0
 40
23.0
 40
23.0
 40
23.0
 40
24.0
 40
24.0
 40
24.0
 40
25.0
 40
25.0
 40
25.0
 40
26.0
 40
26.0
 40
26.0
 40
27.0
 40
27.0
 40
27.0
 40
28.0
 40
28.0
 40
28.0
 40
29.0
 40
29.0
 40
29.0
 40
30.0
 40
30.0
 40
30.0
 40
31.0
 40
31.0
 40
31.0
 40
32.0
 40
32.0
 40
32.0
 40
33.0
 40
33.0
 40
33.0
 40
34.0
 40
34.0
 40
34.0
 40
35.0
 40
35.0
 40
35.0
 40
36.0
 40
36.0
 40
36.0
 40
37.0
 40
37.0
 40
37.0
 40
38.0
 40
38.0
 40
38.0
 40
39.0
 40
39.0
 40
39.0
 40
40.0
 40
40.0
 40
40.0
 40
41.0
 40
41.0
 40
41.0
 40
42.0
 40
42.0
 40
42.0
 40
43.0
 40
43.0
 40
43.0
 40
44.0
 40
44.0
 40
44.0
 40
45.0
 40
45.0
 40
45.0
 40
46.0
 40
46.0
 40
46.0
 40
47.0
 40
47.0
 40
47.0
 40
48.0
 40
48.0
 40
48.0
 40
49.0
 40
49.0
 40
49.0
 40
50.0
 40
50.0
 40
50.0
 40
51.0
 40
51.0
 40
51.0
 40
52.0
 40
52.0
 40
52.0
 40
53.0
 40
53.0
 40
53.0
 40
54.0
 40
54.0
 40
54.0
 40
55.0
 40
55.0
 40
55.0
 40
56.0
 40
56.0
 40
56.0
 40
57.0
 40
57.0
 40
57.0
 40
58.0
 40
58.0
 40
58.0
 40
59.0
 40
59.0
 40
59.0
 40
60.0
 40
60.0
 40
60.0
 40
61.0
 40
61.0
 40
61.0
 40
62.0
 40
62.0
 40
62.0
 40
63.0
 40
63.0
 40
63.0
 40
64.0
 40
64.0
 40
64.0
 40
65.0
 40
65.0
 40
65.0
 40
66.0
 40
66.0
 40
66.0
 40
67.0
 40
67.0
 40
67.0
 40
68.0
 40
68.0
 40
68.0
 40
69.0
 40
69.0
 40
69.0
 40
70.0
 40
70.0
 40
70.0
 40
71.0
 40
71.0
 40
71.0
 40
72.0
 40
72.0
 40
72.0
 40
73.0
 40
73.0
 40
73.0
 40
74.0
 40
74.0
 40
74.0
 40
75.0
 40
75.0
 40
75.0
 40
76.0
 40
76.0
 40
76.0
 40
77.0
 40
77.0
 40
77.0
 40
78.0
 40
78.0
 40
78.0
 40
79.0
 40
79.0
 40
79.0
 40
80.0
 40
80.0
 40
80.0
 40
81.0
 40
81.0
 40
81.0
 40
82.0
 40
82.0
 40
82.0
 40
83.0
 40
83.0
 40
83.0
 40
84.0
 40
84.0
 40
84.0
 40
85.0
 40
85.0
 40
85.0
 40
86.0
 40
86.0
 40
86.0
 40
87.0
 40
87.0
 40
87.0
 40
88.0
 40
88.0
 40
88.0
 40
89.0
 40
89.0
 40
89.0
 40
90.0
 40
90.0
 40
90.0
 40
91.0
 40
91.0
 40
91.0
 40
92.0
 40
92.0
 40
92.0
 40
93.0
 40
93.0
 40
93.0
 40
94.0
 40
94.0
 40
94.0
 40
95.0
 40
95.0
 40
95.0
 40
96.0
 40
96.0
 40
96.0
 40
97.0
 40
97.0
 40
97.0
 40
98.0
 40
98.0
 40
98.0
 40
99.0
 40
99.0
 40
99.0
 40
100.0
 40
100.0
 40
100.0
 40
101.0
 40
101.0
 40
101.0
 40
102.0
 40
102.0
 40
102.0
 40
103.0
 40
103.0
 40
103.0
 40
104.0
 40
104.0
 40
104.0
 40
105.0
 40
105.0
 40
105.0
 40
106.0
 40
106.0
 40
106.0
 40
107.0
 40
107.0
 40
107.0
 40
108.0
 40
108.0
 40
108.0
 40
109.0
 40
109.0
 40
109.0
 40
110.0
 40
110.0
 40
110.0
 40
111.0
 40
111.0
 40
111.0
 40
112.0
 40
112.0
 40
112.0
 40
113.0
 40
113.0
 40
113.0
 40
114.0
 40
114.0
 40
114.0
 40
115.0
 40
115.0
 40
115.0
 40
116.0
 40
116.0
 40
116.0
 40
117.0
 40
117.0
 40
117.0
 40
118.0
 40
118.0
 40
118.0
 40
119.0
 40
119.0
 40
119.0
 40
120.0
 40
120.0
 40
120.0
 40
121.0
 40
121.0
 40
121.0
 40
122.0
 40
122.0
 40
122.0
 40
123.0
 40
123.0
 40
123.0
 40
124.0
 40
124.0
 40
124.0
 40
125.0
 40
125.0
 40
125.0
 40
126.0
 40
126.0
 40
126.0
 40
127.0
 40
127.0
 40
127.0
 40
128.0
 40
128.0
 40
128.0
 40
129.0
 40
129.0
 40
129.0
 40
130.0
 40
130.0
 40
130.0
 40
131.0
 40
131.0
 40
131.0
 40
132.0
 40
132.0
 40
132.0
 40
133.0
 40
133.0
 40
133.0
 40
134.0
 40
134.0
 40
134.0
 40
135.0
 40
135.0
 40
135.0
 40
136.0
 40
136.0
 40
136.0
 40
137.0
 40
137.0
 40
137.0
 40
138.0
 40
138.0
 40
138.0
 40
139.0
 40
139.0
 40
139.0
 40
140.0
 40
140.0
 40
140.0
 40
141.0
 40
141.0
 40
141.0
 40
142.0
 40
142.0
 40
142.0
 40
143.0
 40
143.0
 40
143.0
 40
144.0
 40
144.0
 40
144.0
 40
145.0
 40
145.0
 40
145.0
 40
146.0
 40
146.0
 40
146.0
 40
147.0
 40
147.0
 40
147.0
 40
148.0
 40
148.0
 40
148.0
 40
149.0
 40
149.0
 40
149.0
 40
150.0
 40
150.0
 40
150.0
 40
151.0
 40
151.0
 40
151.0
 40
152.0
 40
152.0
 40
152.0
 40
153.0
 40
153.0
 40
153.0
 40
154.0
 40
154.0
 40
154.0
 40
155.0
 40
155.0
 40
155.0
 40
156.0
 40
156.0
 40
156.0
 40
157.0
 40
157.0
 40
157.0
 40
158.0
 40
158.0
 40
158.0
 40
159.0
 40
159.0
 40
159.0
 40
160.0
 40
160.0
 40
160.0
 40
161.0
 40
161.0
 40
161.0
 40
162.0
 40
162.0
 40
162.0
 40
163.0
 40
163.0
 40
163.0
 40
164.0
 40
164.0
 40
164.0
 40
165.0
 40
165.0
 40
165.0
 40
166.0
 40
166.0
 40
166.0
 40
167.0
 40
167.0
 40
167.0
 40
168.0
 40
168.0
 40
168.0
 40
169.0
 40
169.0
 40
169.0
 40
170.0
 40
170.0
 40
170.0
 40
171.0
 40
171.0
 40
171.0
 40
172.0
 40
172.0
 40
172.0
 40
173.0
 40
173.0
 40
173.0
 40
174.0
 40
174.0
 40
174.0
 40
175.0
 40
175.0
 40
175.0
 40
176.0
 40
176.0
 40
176.0
 40
177.0
 40
177.0
 40
177.0
 40
178.0
 40
178.0
 40
178.0
 40
179.0
 40
179.0
 40
179.0
 40
180.0
 40
180.0
 40
180.0
 40
181.0
 40
181.0
 40
181.0
 40
182.0
 40
182.0
 40
182.0
 40
183.0
 40
183.0
 40
183.0
 40
184.0
 40
184.0
 40
184.0
 40
185.0
 40
185.0
 40
185.0
 40
186.0
 40
186.0
 40
186.0
 40
187.0
 40
187.0
 40
187.0
 40
188.0
 40
188.0
 40
188.0
 40
189.0
 40
189.0
 40
189.0
 40
190.0
 40
190.0
 40
190.0
 40
191.0
 40
191.0
 40
191.0
 40
192.0
 40
192.0
 40
192.0
 40
193.0
 40
193.0
 40
193.0
 40
194.0
 40
194.0
 40
194.0
 40
195.0
 40
195.0
 40
195.0
 40
196.0
 40
196.0
 40
196.0
 40
197.0
 40
197.0
 40
197.0
 40
198.0
 40
198.0
 40
198.0
 40
199.0
 40
199.0
 40
199.0
 40
200.0
 40
200.0
 40
200.0
 40
201.0
 40
201.0
 40
201.0
 40
202.0
 40
202.0
 40
202.0
 40
203.0
 40
203.0
 40
203.0
 40
204.0
 40
204.0
 40
204.0
 40
205.0
 40
205.0
 40
205.0
 40
206.0
 40
206.0
 40
206.0
 40
207.0
 40
207.0
 40
207.0
 40
208.0
 40
208.0
 40
208.0
 40
209.0
 40
209.0
 40
209.0
 40
210.0
 40
210.0
 40
210.0
 40
211.0
 40
211.0
 40
211.0
 40
212.0
 40
212.0
 40
212.0
 40
213.0
 40
213.0
 40
213.0
 40
214.0
 40
214.0
 40
214.0
 40
215.0
 40
215.0
 40
215.0
 40
216.0
 40
216.0
 40
216.0
 40
217.0
 40
217.0
 40
217.0
 40
218.0
 40
218.0
 40
218.0
 40
219.0
 40
219.0
 40
219.0
 40
220.0
 40
220.0
 40
220.0
 40
221.0
 40
221.0
 40
221.0
 40
222.0
 40
222.0
 40
222.0
 40
223.0
 40
223.0
 40
223.0
 40
224.0
 40
224.0
 40
224.0
 40
225.0
 40
225.0
 40
225.0
 40
226.0
 40
226.0
 40
226.0
 40
227.0
 40
227.0
 40
227.0
 40
228.0
 40
228.0
 40
228.0
 40
229.0
 40
229.0
 40
229.0
 40
230.0
 40
230.0
 40
230.0
 40
231.0
 40
231.0
 40
231.0
 40
232.0
 40
232.0
 40
232.0
 40
233.0
 40
233.0
 40
233.0
 40
234.0
 40
234.0
 40
234.0
 40
235.0
 40
235.0
 40
235.0
 40
236.0
 40
236.0
 40
236.0
 40
237.0
 40
237.0
 40
237.0
 40
238.0
 40
238.0
 40
238.0
 40
239.0
 40
239.0
 40
239.0
 40
240.0
 40
240.0
 40
240.0
 40
241.0
 40
241.0
 40
241.0
 40
242.0
 40
242.0
 40
242.0
 40
243.0
 40
243.0
 40
243.0
 40
244.0
 40
244.0
 40
244.0
 40
245.0
 40
245.0
 40
245.0
 40
246.0
 40
246.0
 40
246.0
 40
247.0
 40
247.0
 40
247.0
 40
248.0
 40
248.0
 40
248.0
 40
249.0
 40
249.0
 40
249.0
 40
250.0
 40
250.0
 40
250.0
 40
251.0
 40
251.0
 40
251.0
 40
252.0
 40
252.0
 40
252.0
 40
253.0
 40
253.0
 40
253.0
 40
254.0
 40
254.0
 40
254.0
 40
255.0
 40
255.0
 40
255.0
 40
256.0
 40
256.0
 40
256.0
 40
257.0
 40
257.0
 40
257.0
 40
258.0
 40
258.0
 40
258.0
 40
259.0
 40
259.0
 40
259.0
 40
260.0
 40
260.0
 40
260.0
 40
261.0
 40
261.0
 40
261.0
 40
262.0
 40
262.0
 40
262.0
 40
263.0
 40
263.0
 40
263.0
 40
264.0
 40
264.0
 40
264.0
 40
265.0
 40
265.0
 40
265.0
 40
266.0
 40
266.0
 40
266.0
 40
267.0
 40
267.0
 40
267.0
 40
268.0
 40
268.0
 40
268.0
 40
269.0
 40
269.0
 40
269.0
 40
270.0
 40
270.0
 40
270.0
 40
271.0
 40
271.0
 40
271.0
 40
272.0
 40
272.0
 40
272.0
 40
273.0
 40
273.0
 40
273.0
 40
274.0
 40
274.0
 40
274.0
 40
275.0
 40
275.0
 40
275.0
 40
276.0
 40
276.0
 40
276.0
 40
277.0
 40
277.0
 40
277.0
 40
278.0
 40
278.0
 40
278.0
 40
279.0
 40
279.0
 40
279.0
 40
280.0
 40
280.0
 40
280.0
 40
281.0
 40
281.0
 40
281.0
 40
282.0
 40
282.0
 40
282.0
 40
283.0
 40
283.0
 40
283.0
 40
284.0
 40
284.0
 40
284.0
 40
285.0
 40
285.0
 40
285.0
 40
286.0
 40
286.0
 40
286.0
 40
287.0
 40
287.0
 40
287.0
 40
288.0
 40
288.0
 40
288.0
 40
289.0
 40
289.0
 40
289.0
 40
290.0
 40
290.0
 40
290.0
 40
291.0
 40
291.0
 40
291.0
 40
292.0
 40
292.0
 40
292.0
 40
293.0
 40
293.0
 40
293.0
 40
294.0
 40
294.0
 40
294.0
 40
294.0
 10
6.16443734427321
 20
-3.468012499999999
 30
0.0
 10
6.155987344486675
 20
-3.468012499999999
 30
0.0
 10
6.149137344659721
 20
-3.474862499999997
 30
0.0
 10
6.149137344659721
 20
-3.483311111111107
 30
0.0
 10
6.149137344659721
 20
-3.483311111111107
 30
0.0
 10
6.149137344659721
 20
-3.776043055555558
 30
0.0
 10
6.149137344659721
 20
-3.776043055555558
 30
0.0
 10
6.149137344659721
 20
-3.776043055555558
 30
0.0
 10
6.149137344659721
 20
-4.159491666666668
 30
0.0
 10
6.149137344659721
 20
-4.159491666666668
 30
0.0
 10
6.149137344659721
 20
-4.167849999999993
 30
0.0
 10
6.142362344830872
 20
-4.174626388888884
 30
0.0
 10
6.134004011708687
 20
-4.174626388888884
 30
0.0
 10
6.134004011708687
 20
-4.174626388888884
 30
0.0
 10
6.066866513404723
 20
-4.174547222222221
 30
0.0
 10
6.066866513404723
 20
-4.174547222222221
 30
0.0
 10
6.059345680261382
 20
-4.174547222222221
 30
0.0
 10
6.053248458193189
 20
-4.180645833333339
 30
0.0
 10
6.053248458193189
 20
-4.188165277777772
 30
0.0
 10
6.053248458193189
 20
-4.218886111111108
 30
0.0
 10
6.0492165138506
 20
-4.214012500000004
 30
0.0
 10
6.057622069193813
 20
-4.243531944444448
 30
0.0
 10
6.069913735549966
 20
-4.28669305555555
 30
0.0
 10
6.063197069052976
 20
-4.284456944444451
 30
0.0
 10
6.054692902601143
 20
-4.325720833333333
 30
0.0
 10
6.047538736115206
 20
-4.360444444444448
 30
0.0
 10
6.054042902617564
 20
-4.359220833333337
 30
0.0
 10
6.054042902617564
 20
-4.394684722222223
 30
0.0
 10
6.054042902617564
 20
-4.442854166666671
 30
0.0
 10
6.125008178602608
 20
-4.452602777777782
 30
0.0
 10
6.125008178602608
 20
-4.508295833333338
 30
0.0
 10
6.125008178602608
 20
-4.508295833333338
 30
0.0
 10
6.125008178602608
 20
-4.536240277777779
 30
0.0
 10
6.125008178602608
 20
-4.536240277777779
 30
0.0
 10
6.125008178602608
 20
-5.565113888888896
 30
0.0
 10
5.528622082557477
 20
-5.901216666666667
 30
0.0
 10
4.531267941086096
 20
-5.901216666666667
 30
0.0
 10
4.46054294287276
 20
-5.901216666666667
 30
0.0
 10
4.46054294287276
 20
-5.687004166666662
 30
0.0
 10
4.531259607752973
 20
-5.687004166666662
 30
0.0
 10
5.372094308733923
 20
-5.687004166666662
 30
0.0
 10
5.874999851585017
 20
-5.403645833333333
 30
0.0
 10
5.874999851585017
 20
-4.536240277777779
 30
0.0
 10
5.874999851585017
 20
-4.536240277777779
 30
0.0
 10
5.874999851585017
 20
-4.508295833333338
 30
0.0
 10
5.874999851585017
 20
-4.508295833333338
 30
0.0
 10
5.874999851585017
 20
-4.452602777777782
 30
0.0
 10
5.945963738681207
 20
-4.442854166666671
 30
0.0
 10
5.945963738681207
 20
-4.394684722222223
 30
0.0
 10
5.945963738681207
 20
-4.359220833333337
 30
0.0
 10
5.952467905183564
 20
-4.360444444444448
 30
0.0
 10
5.945315127586481
 20
-4.325720833333333
 30
0.0
 10
5.936810961134648
 20
-4.284456944444451
 30
0.0
 10
5.930094294637658
 20
-4.28669305555555
 30
0.0
 10
5.942385960993811
 20
-4.243531944444448
 30
0.0
 10
5.950791516337024
 20
-4.214012500000004
 30
0.0
 10
5.946759571994435
 20
-4.218886111111108
 30
0.0
 10
5.946759571994435
 20
-4.188165277777772
 30
0.0
 10
5.946759571994435
 20
-4.180645833333339
 30
0.0
 10
5.940660961037389
 20
-4.174547222222221
 30
0.0
 10
5.933141516782901
 20
-4.174547222222221
 30
0.0
 10
5.933141516782901
 20
-4.174547222222221
 30
0.0
 10
5.866004018478937
 20
-4.174626388888884
 30
0.0
 10
5.866004018478937
 20
-4.174626388888884
 30
0.0
 10
5.857645685356752
 20
-4.174626388888884
 30
0.0
 10
5.85086929663905
 20
-4.167849999999993
 30
0.0
 10
5.85086929663905
 20
-4.159491666666668
 30
0.0
 10
5.85086929663905
 20
-4.159491666666668
 30
0.0
 10
5.85086929663905
 20
-3.776043055555558
 30
0.0
 10
5.85086929663905
 20
-3.776043055555558
 30
0.0
 10
5.85086929663905
 20
-3.776043055555558
 30
0.0
 10
5.85086929663905
 20
-3.513311111111117
 30
0.0
 10
5.85086929663905
 20
-3.513311111111117
 30
0.0
 10
5.85086929663905
 20
-3.504862499999995
 30
0.0
 10
5.844019296812095
 20
-3.498012499999997
 30
0.0
 10
5.835570685914414
 20
-3.498012499999997
 30
0.0
 10
5.820227630746457
 20
-3.498012499999997
 30
0.0
 10
5.818897075224513
 20
-3.487165277777775
 30
0.0
 10
5.833192908196704
 20
-3.472963888888886
 30
0.0
 10
5.884149851353868
 20
-3.422326388888892
 30
0.0
 10
5.87644012932641
 20
-3.305980555555556
 30
0.0
 10
5.814795686439235
 20
-3.264461111111106
 30
0.0
 10
5.771083187543505
 20
-3.235019444444447
 30
0.0
 10
5.744460965993818
 20
-3.121330555555561
 30
0.0
 10
5.730035966358224
 20
-3.111236111111111
 30
0.0
 10
5.715609577833775
 20
-3.101141666666662
 30
0.0
 10
5.744066521559337
 20
-3.152397222222223
 30
0.0
 10
5.67085402340884
 20
-3.257373611111107
 30
0.0
 10
5.614660969272841
 20
-3.337944444444449
 30
0.0
 10
5.62924846890433
 20
-3.440437500000005
 30
0.0
 10
5.676574856597654
 20
-3.472551388888885
 30
0.0
 10
5.689495689604579
 20
-3.480952777777778
 30
0.0
 10
5.683779023082328
 20
-3.498012499999997
 30
0.0
 10
5.66442902357115
 20
-3.498012499999997
 30
0.0
 10
5.655980412673468
 20
-3.498012499999997
 30
0.0
 10
5.649130412846514
 20
-3.504862499999995
 30
0.0
 10
5.649130412846514
 20
-3.513311111111117
 30
0.0
 10
5.649130412846514
 20
-3.513311111111117
 30
0.0
 10
5.649130412846514
 20
-3.776043055555558
 30
0.0
 10
5.649130412846514
 20
-3.776043055555558
 30
0.0
 10
5.649130412846514
 20
-3.776043055555558
 30
0.0
 10
5.649130412846514
 20
-4.159491666666668
 30
0.0
 10
5.649130412846514
 20
-4.159491666666668
 30
0.0
 10
5.649130412846514
 20
-4.167849999999993
 30
0.0
 10
5.642354024128811
 20
-4.174626388888884
 30
0.0
 10
5.633995691006627
 20
-4.174626388888884
 30
0.0
 10
5.633995691006627
 20
-4.174626388888884
 30
0.0
 10
5.566858192702663
 20
-4.174547222222221
 30
0.0
 10
5.566858192702663
 20
-4.174547222222221
 30
0.0
 10
5.559338748448176
 20
-4.174547222222221
 30
0.0
 10
5.553240137491128
 20
-4.180645833333339
 30
0.0
 10
5.553240137491128
 20
-4.188165277777772
 30
0.0
 10
5.553240137491128
 20
-4.218886111111108
 30
0.0
 10
5.549208193148539
 20
-4.214012500000004
 30
0.0
 10
5.557613748491753
 20
-4.243531944444448
 30
0.0
 10
5.569905414847906
 20
-4.28669305555555
 30
0.0
 10
5.563188748350917
 20
-4.284456944444451
 30
0.0
 10
5.554684581899083
 20
-4.325720833333333
 30
0.0
 10
5.547531804301999
 20
-4.360444444444448
 30
0.0
 10
5.554035970804358
 20
-4.359220833333337
 30
0.0
 10
5.554035970804358
 20
-4.394684722222223
 30
0.0
 10
5.554035970804358
 20
-4.442854166666671
 30
0.0
 10
5.624999857900548
 20
-4.452602777777782
 30
0.0
 10
5.624999857900548
 20
-4.508295833333338
 30
0.0
 10
5.624999857900548
 20
-4.508295833333338
 30
0.0
 10
5.624999857900548
 20
-4.536240277777779
 30
0.0
 10
5.624999857900548
 20
-4.536240277777779
 30
0.0
 10
5.624999857900548
 20
-5.242177777777783
 30
0.0
 10
5.216310979336009
 20
-5.472783333333331
 30
0.0
 10
4.53199988551205
 20
-5.472783333333331
 30
0.0
 10
4.46054294287276
 20
-5.472783333333331
 30
0.0
 10
4.46054294287276
 20
-5.258570833333338
 30
0.0
 10
4.532008218845172
 20
-5.258570833333338
 30
0.0
 10
5.059798483289847
 20
-5.258570833333338
 30
0.0
 10
5.375008197549201
 20
-5.080708333333328
 30
0.0
 10
5.375008197549201
 20
-4.536240277777779
 30
0.0
 10
5.375008197549201
 20
-4.536240277777779
 30
0.0
 10
5.375008197549201
 20
-4.508295833333338
 30
0.0
 10
5.375008197549201
 20
-4.508295833333338
 30
0.0
 10
5.375008197549201
 20
-4.452602777777782
 30
0.0
 10
5.445972084645391
 20
-4.442854166666671
 30
0.0
 10
5.445972084645391
 20
-4.394684722222223
 30
0.0
 10
5.445972084645391
 20
-4.359220833333337
 30
0.0
 10
5.45247625114775
 20
-4.360444444444448
 30
0.0
 10
5.445322084661812
 20
-4.325720833333333
 30
0.0
 10
5.436819307098832
 20
-4.284456944444451
 30
0.0
 10
5.430102640601843
 20
-4.28669305555555
 30
0.0
 10
5.442392918069142
 20
-4.243531944444448
 30
0.0
 10
5.450798473412356
 20
-4.214012500000004
 30
0.0
 10
5.446767917958621
 20
-4.218886111111108
 30
0.0
 10
5.446767917958621
 20
-4.188165277777772
 30
0.0
 10
5.446767917958621
 20
-4.180645833333339
 30
0.0
 10
5.440669307001573
 20
-4.174547222222221
 30
0.0
 10
5.433149862747086
 20
-4.174547222222221
 30
0.0
 10
5.433149862747086
 20
-4.174547222222221
 30
0.0
 10
5.366012364443122
 20
-4.174626388888884
 30
0.0
 10
5.366012364443122
 20
-4.174626388888884
 30
0.0
 10
5.357654031320938
 20
-4.174626388888884
 30
0.0
 10
5.350877642603235
 20
-4.167849999999993
 30
0.0
 10
5.350877642603235
 20
-4.159491666666668
 30
0.0
 10
5.350877642603235
 20
-4.159491666666668
 30
0.0
 10
5.350877642603235
 20
-3.776043055555558
 30
0.0
 10
5.350877642603235
 20
-3.776043055555558
 30
0.0
 10
5.350877642603235
 20
-3.776043055555558
 30
0.0
 10
5.350877642603235
 20
-3.503311111111113
 30
0.0
 10
5.350877642603235
 20
-3.503311111111113
 30
0.0
 10
5.350877642603235
 20
-3.494862500000004
 30
0.0
 10
5.344027642776281
 20
-3.488012500000006
 30
0.0
 10
5.335579031878599
 20
-3.488012500000006
 30
0.0
 10
5.320235976710642
 20
-3.488012500000006
 30
0.0
 10
5.31890958785526
 20
-3.477165277777784
 30
0.0
 10
5.33320125416089
 20
-3.462963888888895
 30
0.0
 10
5.384156808429199
 20
-3.412330555555551
 30
0.0
 10
5.36367764227988
 20
-3.277165277777776
 30
0.0
 10
5.32001236560518
 20
-3.237963888888885
 30
0.0
 10
5.249654034049247
 20
-3.174798611111113
 30
0.0
 10
5.310440143624772
 20
-3.070751388888892
 30
0.0
 10
5.302094310502272
 20
-3.069987499999999
 30
0.0
 10
5.293748477379773
 20
-3.069224999999998
 30
0.0
 10
5.244074867523523
 20
-3.131109722222226
 30
0.0
 10
5.170862369373026
 20
-3.236086111111111
 30
0.0
 10
5.114669315237026
 20
-3.31665694444444
 30
0.0
 10
5.129255425979661
 20
-3.430437500000001
 30
0.0
 10
5.176583202561838
 20
-3.462551388888894
 30
0.0
 10
5.189504035568764
 20
-3.470952777777774
 30
0.0
 10
5.183787369046513
 20
-3.488012500000006
 30
0.0
 10
5.164437369535335
 20
-3.488012500000006
 30
0.0
 10
5.1559873697488
 20
-3.488012500000006
 30
0.0
 10
5.149137369921846
 20
-3.494862500000004
 30
0.0
 10
5.149137369921846
 20
-3.503311111111113
 30
0.0
 10
5.149137369921846
 20
-3.503311111111113
 30
0.0
 10
5.149137369921846
 20
-3.776043055555558
 30
0.0
 10
5.149137369921846
 20
-3.776043055555558
 30
0.0
 10
5.149137369921846
 20
-3.776043055555558
 30
0.0
 10
5.149137369921846
 20
-4.159491666666668
 30
0.0
 10
5.149137369921846
 20
-4.159491666666668
 30
0.0
 10
5.149137369921846
 20
-4.167849999999993
 30
0.0
 10
5.142362370092997
 20
-4.174626388888884
 30
0.0
 10
5.134004036970812
 20
-4.174626388888884
 30
0.0
 10
5.134004036970812
 20
-4.174626388888884
 30
0.0
 10
5.066866538666848
 20
-4.174547222222221
 30
0.0
 10
5.066866538666848
 20
-4.174547222222221
 30
0.0
 10
5.059345705523507
 20
-4.174547222222221
 30
0.0
 10
5.053248483455314
 20
-4.180645833333339
 30
0.0
 10
5.053248483455314
 20
-4.188165277777772
 30
0.0
 10
5.053248483455314
 20
-4.218886111111108
 30
0.0
 10
5.049216539112725
 20
-4.214012500000004
 30
0.0
 10
5.057622094455938
 20
-4.243531944444448
 30
0.0
 10
5.069913760812091
 20
-4.28669305555555
 30
0.0
 10
5.063197094315101
 20
-4.284456944444451
 30
0.0
 10
5.054692927863268
 20
-4.325720833333333
 30
0.0
 10
5.047538761377331
 20
-4.360444444444448
 30
0.0
 10
5.054042927879689
 20
-4.359220833333337
 30
0.0
 10
5.054042927879689
 20
-4.394684722222223
 30
0.0
 10
5.054042927879689
 20
-4.442854166666671
 30
0.0
 10
5.125008203864732
 20
-4.452602777777782
 30
0.0
 10
5.125008203864732
 20
-4.508295833333338
 30
0.0
 10
5.125008203864732
 20
-4.508295833333338
 30
0.0
 10
5.125008203864732
 20
-4.566240277777776
 30
0.0
 10
5.125008203864732
 20
-4.566240277777776
 30
0.0
 10
5.125008203864732
 20
-4.94924444444444
 30
0.0
 10
4.903274876132855
 20
-5.074358333333331
 30
0.0
 10
4.532008218845172
 20
-5.074358333333331
 30
0.0
 10
4.46054294287276
 20
-5.074358333333331
 30
0.0
 10
4.46054294287276
 20
-4.860145833333338
 30
0.0
 10
4.532008218845172
 20
-4.860145833333338
 30
0.0
 10
4.746755435642424
 20
-4.860145833333338
 30
0.0
 10
4.875008210180264
 20
-4.787774999999997
 30
0.0
 10
4.875008210180264
 20
-4.566240277777776
 30
0.0
 10
4.875008210180264
 20
-4.566240277777776
 30
0.0
 10
4.875008210180264
 20
-4.508295833333338
 30
0.0
 10
4.875008210180264
 20
-4.508295833333338
 30
0.0
 10
4.875008210180264
 20
-4.452602777777782
 30
0.0
 10
4.945972097276454
 20
-4.442854166666671
 30
0.0
 10
4.945972097276454
 20
-4.394684722222223
 30
0.0
 10
4.945972097276454
 20
-4.359220833333337
 30
0.0
 10
4.952476263778812
 20
-4.360444444444448
 30
0.0
 10
4.945322097292874
 20
-4.325720833333333
 30
0.0
 10
4.936819319729895
 20
-4.284456944444451
 30
0.0
 10
4.930102653232906
 20
-4.28669305555555
 30
0.0
 10
4.942392930700205
 20
-4.243531944444448
 30
0.0
 10
4.950798486043419
 20
-4.214012500000004
 30
0.0
 10
4.946767930589683
 20
-4.218886111111108
 30
0.0
 10
4.946767930589683
 20
-4.188165277777772
 30
0.0
 10
4.946767930589683
 20
-4.180645833333339
 30
0.0
 10
4.940669319632636
 20
-4.174547222222221
 30
0.0
 10
4.933149875378149
 20
-4.174547222222221
 30
0.0
 10
4.933149875378149
 20
-4.174547222222221
 30
0.0
 10
4.866012377074185
 20
-4.174626388888884
 30
0.0
 10
4.866012377074185
 20
-4.174626388888884
 30
0.0
 10
4.857654043952
 20
-4.174626388888884
 30
0.0
 10
4.850877655234298
 20
-4.167849999999993
 30
0.0
 10
4.850877655234298
 20
-4.159491666666668
 30
0.0
 10
4.850877655234298
 20
-4.159491666666668
 30
0.0
 10
4.850877655234298
 20
-3.776043055555558
 30
0.0
 10
4.850877655234298
 20
-3.776043055555558
 30
0.0
 10
4.850877655234298
 20
-3.776043055555558
 30
0.0
 10
4.850877655234298
 20
-3.543311111111115
 30
0.0
 10
4.850877655234298
 20
-3.543311111111115
 30
0.0
 10
4.850877655234298
 20
-3.534862500000006
 30
0.0
 10
4.844027655407343
 20
-3.528012499999995
 30
0.0
 10
4.835579044509662
 20
-3.528012499999995
 30
0.0
 10
4.820235989341705
 20
-3.528012499999995
 30
0.0
 10
4.815267933911652
 20
-3.51215694444444
 30
0.0
 10
4.833201266791952
 20
-3.502963888888884
 30
0.0
 10
4.883724876626729
 20
-3.477066666666663
 30
0.0
 10
4.874984599069749
 20
-3.338075000000003
 30
0.0
 10
4.814802656145629
 20
-3.294461111111117
 30
0.0
 10
4.759806824201607
 20
-3.254602777777778
 30
0.0
 10
4.740126269143224
 20
-3.132231944444445
 30
0.0
 10
4.728306824997364
 20
-3.125609722222217
 30
0.0
 10
4.716487380851504
 20
-3.118987500000003
 30
0.0
 10
4.731051269372478
 20
-3.179791666666663
 30
0.0
 10
4.657838771221981
 20
-3.28476805555556
 30
0.0
 10
4.601645717085981
 20
-3.365338888888889
 30
0.0
 10
4.629255438610723
 20
-3.470437500000003
 30
0.0
 10
4.676583215192901
 20
-3.502551388888883
 30
0.0
 10
4.689504048199827
 20
-3.510952777777776
 30
0.0
 10
4.683787381677575
 20
-3.528012499999995
 30
0.0
 10
4.664437382166398
 20
-3.528012499999995
 30
0.0
 10
4.655987382379863
 20
-3.528012499999995
 30
0.0
 10
4.649137382552908
 20
-3.534862500000006
 30
0.0
 10
4.649137382552908
 20
-3.543311111111115
 30
0.0
 10
4.649137382552908
 20
-3.543311111111115
 30
0.0
 10
4.649137382552908
 20
-3.776043055555558
 30
0.0
 10
4.649137382552908
 20
-3.776043055555558
 30
0.0
 10
4.649137382552908
 20
-3.776043055555558
 30
0.0
 10
4.649137382552908
 20
-4.159491666666668
 30
0.0
 10
4.649137382552908
 20
-4.159491666666668
 30
0.0
 10
4.649137382552908
 20
-4.167849999999993
 30
0.0
 10
4.642362382724059
 20
-4.174626388888884
 30
0.0
 10
4.634004049601875
 20
-4.174626388888884
 30
0.0
 10
4.634004049601875
 20
-4.174626388888884
 30
0.0
 10
4.566866551297911
 20
-4.174547222222221
 30
0.0
 10
4.566866551297911
 20
-4.174547222222221
 30
0.0
 10
4.559345718154569
 20
-4.174547222222221
 30
0.0
 10
4.553248496086376
 20
-4.180645833333339
 30
0.0
 10
4.553248496086376
 20
-4.188165277777772
 30
0.0
 10
4.553248496086376
 20
-4.218886111111108
 30
0.0
 10
4.549216551743787
 20
-4.214012500000004
 30
0.0
 10
4.557622107087
 20
-4.243531944444448
 30
0.0
 10
4.569913773443154
 20
-4.28669305555555
 30
0.0
 10
4.563197106946164
 20
-4.284456944444451
 30
0.0
 10
4.554692940494331
 20
-4.325720833333333
 30
0.0
 10
4.547538774008394
 20
-4.360444444444448
 30
0.0
 10
4.554042940510751
 20
-4.359220833333337
 30
0.0
 10
4.554042940510751
 20
-4.394684722222223
 30
0.0
 10
4.554042940510751
 20
-4.442854166666671
 30
0.0
 10
4.625008216495795
 20
-4.452602777777782
 30
0.0
 10
4.625008216495795
 20
-4.508295833333338
 30
0.0
 10
4.625008216495795
 20
-4.508295833333338
 30
0.0
 10
4.625008216495795
 20
-4.566240277777776
 30
0.0
 10
4.625008216495795
 20
-4.566240277777776
 30
0.0
 10
4.625008216495795
 20
-4.626302777777773
 30
0.0
 10
4.590231828485432
 20
-4.645924999999996
 30
0.0
 10
4.532008218845172
 20
-4.645924999999996
 30
0.0
 10
4.532008218845172
 20
-4.645924999999996
 30
0.0
 10
4.453772109710472
 20
-4.645924999999996
 30
0.0
 10
4.453772109710472
 20
-4.645924999999996
 30
0.0
 10
4.411759610771798
 20
-4.645924999999996
 30
0.0
 10
4.374999889478204
 20
-4.616369444444445
 30
0.0
 10
4.374999889478204
 20
-4.398444444444445
 30
0.0
 10
4.374999889478204
 20
-4.398444444444445
 30
0.0
 10
4.374999889478204
 20
-4.340499999999994
 30
0.0
 10
4.374999889478204
 20
-4.340499999999994
 30
0.0
 10
4.374999889478204
 20
-4.284806944444439
 30
0.0
 10
4.445963776574394
 20
-4.275059722222219
 30
0.0
 10
4.445963776574394
 20
-4.226890277777784
 30
0.0
 10
4.445963776574394
 20
-4.191425000000006
 30
0.0
 10
4.452467943076751
 20
-4.192649999999995
 30
0.0
 10
4.445315165479668
 20
-4.157925000000002
 30
0.0
 10
4.436810999027835
 20
-4.116661111111108
 30
0.0
 10
4.430094332530845
 20
-4.118897222222219
 30
0.0
 10
4.442385998886999
 20
-4.075736111111117
 30
0.0
 10
4.450791554230212
 20
-4.046216666666661
 30
0.0
 10
4.446759609887622
 20
-4.051090277777777
 30
0.0
 10
4.446759609887622
 20
-4.020369444444441
 30
0.0
 10
4.446759609887622
 20
-4.012849999999995
 30
0.0
 10
4.440660998930576
 20
-4.006751388888889
 30
0.0
 10
4.433141554676088
 20
-4.006751388888889
 30
0.0
 10
4.433141554676088
 20
-4.006751388888889
 30
0.0
 10
4.366004056372124
 20
-4.006830555555553
 30
0.0
 10
4.366004056372124
 20
-4.006830555555553
 30
0.0
 10
4.35764572324994
 20
-4.006830555555553
 30
0.0
 10
4.350869334532237
 20
-4.000055555555554
 30
0.0
 10
4.350869334532237
 20
-3.991697222222228
 30
0.0
 10
4.350869334532237
 20
-3.991697222222228
 30
0.0
 10
4.350869334532237
 20
-3.719575000000001
 30
0.0
 10
4.350869334532237
 20
-3.719575000000001
 30
0.0
 10
4.350869334532237
 20
-3.719575000000001
 30
0.0
 10
4.350869334532237
 20
-3.345515277777773
 30
0.0
 10
4.350869334532237
 20
-3.345515277777773
 30
0.0
 10
4.350869334532237
 20
-3.337066666666664
 30
0.0
 10
4.344019334705282
 20
-3.330216666666665
 30
0.0
 10
4.335570723807601
 20
-3.330216666666665
 30
0.0
 10
4.320227668639644
 20
-3.330216666666665
 30
0.0
 10
4.318901279784263
 20
-3.319369444444444
 30
0.0
 10
4.333192946089891
 20
-3.305169444444446
 30
0.0
 10
4.384149889247055
 20
-3.254536111111115
 30
0.0
 10
4.356322112172267
 20
-3.123858333333335
 30
0.0
 10
4.313495724365263
 20
-3.08928333333333
 30
0.0
 10
4.273349892046099
 20
-3.056873611111112
 30
0.0
 10
4.258349892425031
 20
-2.93530277777778
 30
0.0
 10
4.249999892635969
 20
-2.934759722222225
 30
0.0
 10
4.241649892846908
 20
-2.93421666666667
 30
0.0
 10
4.246673503831112
 20
-2.978956944444449
 30
0.0
 10
4.173461005680616
 20
-3.083933333333334
 30
0.0
 10
4.117267951544616
 20
-3.164504166666663
 30
0.0
 10
4.129248506797517
 20
-3.272641666666661
 30
0.0
 10
4.176574894490841
 20
-3.304755555555554
 30
0.0
 10
4.189495727497766
 20
-3.313156944444447
 30
0.0
 10
4.183779060975515
 20
-3.330216666666665
 30
0.0
 10
4.164429061464337
 20
-3.330216666666665
 30
0.0
 10
4.155980450566656
 20
-3.330216666666665
 30
0.0
 10
4.149130450739701
 20
-3.337066666666664
 30
0.0
 10
4.149130450739701
 20
-3.345515277777773
 30
0.0
 10
4.149130450739701
 20
-3.345515277777773
 30
0.0
 10
4.149130450739701
 20
-3.719575000000001
 30
0.0
 10
4.149130450739701
 20
-3.719575000000001
 30
0.0
 10
4.149130450739701
 20
-3.719575000000001
 30
0.0
 10
4.149130450739701
 20
-3.991697222222228
 30
0.0
 10
4.149130450739701
 20
-3.991697222222228
 30
0.0
 10
4.149130450739701
 20
-4.000055555555554
 30
0.0
 10
4.142354062021998
 20
-4.006830555555553
 30
0.0
 10
4.133995728899814
 20
-4.006830555555553
 30
0.0
 10
4.133995728899814
 20
-4.006830555555553
 30
0.0
 10
4.06685823059585
 20
-4.006751388888889
 30
0.0
 10
4.06685823059585
 20
-4.006751388888889
 30
0.0
 10
4.059338786341363
 20
-4.006751388888889
 30
0.0
 10
4.053240175384316
 20
-4.012849999999995
 30
0.0
 10
4.053240175384316
 20
-4.020369444444441
 30
0.0
 10
4.053240175384316
 20
-4.051090277777777
 30
0.0
 10
4.049208231041726
 20
-4.046216666666661
 30
0.0
 10
4.05761378638494
 20
-4.075736111111117
 30
0.0
 10
4.069905452741093
 20
-4.118897222222219
 30
0.0
 10
4.063188786244104
 20
-4.116661111111108
 30
0.0
 10
4.054684619792271
 20
-4.157925000000002
 30
0.0
 10
4.047531842195187
 20
-4.192649999999995
 30
0.0
 10
4.054036008697545
 20
-4.191425000000006
 30
0.0
 10
4.054036008697545
 20
-4.226890277777784
 30
0.0
 10
4.054036008697545
 20
-4.275059722222219
 30
0.0
 10
4.124999895793735
 20
-4.284806944444439
 30
0.0
 10
4.124999895793735
 20
-4.340499999999994
 30
0.0
 10
4.124999895793735
 20
-4.340499999999994
 30
0.0
 10
4.124999895793735
 20
-4.398444444444445
 30
0.0
 10
4.124999895793735
 20
-4.398444444444445
 30
0.0
 10
4.124999895793735
 20
-4.616369444444445
 30
0.0
 10
4.088240174500141
 20
-4.645924999999996
 30
0.0
 10
4.046227675561466
 20
-4.645924999999996
 30
0.0
 10
4.046227675561466
 20
-4.645924999999996
 30
0.0
 10
3.967991566426766
 20
-4.645924999999996
 30
0.0
 10
3.967991566426766
 20
-4.645924999999996
 30
0.0
 10
3.956461011162496
 20
-4.645924999999996
 30
0.0
 10
3.945845733652883
 20
-4.645149999999995
 30
0.0
 10
3.936244345006546
 20
-4.643452777777775
 30
0.0
 10
3.897362401544342
 20
-4.636566666666668
 30
0.0
 10
3.874991568776143
 20
-4.61440555555555
 30
0.0
 10
3.874991568776143
 20
-4.566240277777776
 30
0.0
 10
3.874991568776143
 20
-4.566240277777776
 30
0.0
 10
3.874991568776143
 20
-4.508295833333338
 30
0.0
 10
3.874991568776143
 20
-4.508295833333338
 30
0.0
 10
3.874991568776143
 20
-4.452602777777782
 30
0.0
 10
3.945956844761187
 20
-4.442854166666671
 30
0.0
 10
3.945956844761187
 20
-4.394684722222223
 30
0.0
 10
3.945956844761187
 20
-4.359220833333337
 30
0.0
 10
3.952461011263545
 20
-4.360444444444448
 30
0.0
 10
3.945306844777608
 20
-4.325720833333333
 30
0.0
 10
3.936802678325774
 20
-4.284456944444451
 30
0.0
 10
3.930086011828785
 20
-4.28669305555555
 30
0.0
 10
3.942377678184938
 20
-4.243531944444448
 30
0.0
 10
3.950783233528151
 20
-4.214012500000004
 30
0.0
 10
3.946751289185563
 20
-4.218886111111108
 30
0.0
 10
3.946751289185563
 20
-4.188165277777772
 30
0.0
 10
3.946751289185563
 20
-4.180645833333339
 30
0.0
 10
3.940654067117369
 20
-4.174547222222221
 30
0.0
 10
3.933133233974028
 20
-4.174547222222221
 30
0.0
 10
3.933133233974028
 20
-4.174547222222221
 30
0.0
 10
3.900429068133538
 20
-4.174586111111113
 30
0.0
 10
3.900429068133538
 20
-4.174586111111113
 30
0.0
 10
3.900429068133538
 20
-4.174586111111113
 30
0.0
 10
3.865995735670064
 20
-4.174626388888884
 30
0.0
 10
3.865995735670064
 20
-4.174626388888884
 30
0.0
 10
3.85763740254788
 20
-4.174626388888884
 30
0.0
 10
3.850862402719031
 20
-4.167849999999993
 30
0.0
 10
3.850862402719031
 20
-4.159491666666668
 30
0.0
 10
3.850862402719031
 20
-4.159491666666668
 30
0.0
 10
3.850862402719031
 20
-4.074397222222223
 30
0.0
 10
3.850862402719031
 20
-4.074397222222223
 30
0.0
 10
3.850862402719031
 20
-4.074397222222223
 30
0.0
 10
3.850862402719031
 20
-3.857090277777779
 30
0.0
 10
3.850862402719031
 20
-3.857090277777779
 30
0.0
 10
3.850862402719031
 20
-3.857090277777779
 30
0.0
 10
3.850862402719031
 20
-3.776043055555558
 30
0.0
 10
3.850862402719031
 20
-3.776043055555558
 30
0.0
 10
3.850862402719031
 20
-3.776043055555558
 30
0.0
 10
3.850862402719031
 20
-3.513311111111117
 30
0.0
 10
3.850862402719031
 20
-3.513311111111117
 30
0.0
 10
3.850862402719031
 20
-3.504862499999995
 30
0.0
 10
3.844012402892076
 20
-3.498012499999997
 30
0.0
 10
3.835562403105541
 20
-3.498012499999997
 30
0.0
 10
3.820220736826438
 20
-3.498012499999997
 30
0.0
 10
3.81868045908757
 20
-3.482212499999996
 30
0.0
 10
3.832967958726638
 20
-3.468012499999999
 30
0.0
 10
3.883924901883802
 20
-3.417381944444438
 30
0.0
 10
3.877523513156625
 20
-3.325795833333334
 30
0.0
 10
3.818259625764868
 20
-3.280952777777783
 30
0.0
 10
3.766736015955353
 20
-3.241963888888891
 30
0.0
 10
3.730562405758064
 20
-3.142161111111111
 30
0.0
 10
3.700512406517191
 20
-3.128594444444439
 30
0.0
 10
3.670461018387464
 20
-3.11502777777778
 30
0.0
 10
3.732772127924464
 20
-3.181043055555556
 30
0.0
 10
3.659559629773967
 20
-3.286019444444441
 30
0.0
 10
3.603366575637968
 20
-3.366590277777782
 30
0.0
 10
3.629240186095457
 20
-3.440437500000005
 30
0.0
 10
3.67656657378878
 20
-3.472551388888885
 30
0.0
 10
3.689487406795706
 20
-3.480952777777778
 30
0.0
 10
3.683772129162308
 20
-3.498012499999997
 30
0.0
 10
3.664420740762277
 20
-3.498012499999997
 30
0.0
 10
3.655972129864595
 20
-3.498012499999997
 30
0.0
 10
3.649122130037641
 20
-3.504862499999995
 30
0.0
 10
3.649122130037641
 20
-3.513311111111117
 30
0.0
 10
3.649122130037641
 20
-3.513311111111117
 30
0.0
 10
3.649122130037641
 20
-3.776043055555558
 30
0.0
 10
3.649122130037641
 20
-3.776043055555558
 30
0.0
 10
3.649122130037641
 20
-3.776043055555558
 30
0.0
 10
3.649122130037641
 20
-4.159491666666668
 30
0.0
 10
3.649122130037641
 20
-4.159491666666668
 30
0.0
 10
3.649122130037641
 20
-4.167849999999993
 30
0.0
 10
3.642345741319938
 20
-4.174626388888884
 30
0.0
 10
3.633987408197754
 20
-4.174626388888884
 30
0.0
 10
3.633987408197754
 20
-4.174626388888884
 30
0.0
 10
3.56684990989379
 20
-4.174547222222221
 30
0.0
 10
3.56684990989379
 20
-4.174547222222221
 30
0.0
 10
3.559330465639302
 20
-4.174547222222221
 30
0.0
 10
3.553231854682255
 20
-4.180645833333339
 30
0.0
 10
3.553231854682255
 20
-4.188165277777772
 30
0.0
 10
3.553231854682255
 20
-4.218886111111108
 30
0.0
 10
3.54920129922852
 20
-4.214012500000004
 30
0.0
 10
3.557606854571734
 20
-4.243531944444448
 30
0.0
 10
3.569897132039033
 20
-4.28669305555555
 30
0.0
 10
3.563180465542043
 20
-4.284456944444451
 30
0.0
 10
3.554677687979064
 20
-4.325720833333333
 30
0.0
 10
3.547523521493126
 20
-4.360444444444448
 30
0.0
 10
3.554027687995484
 20
-4.359220833333337
 30
0.0
 10
3.554027687995484
 20
-4.394684722222223
 30
0.0
 10
3.554027687995484
 20
-4.442854166666671
 30
0.0
 10
3.624991575091674
 20
-4.452602777777782
 30
0.0
 10
3.624991575091674
 20
-4.508295833333338
 30
0.0
 10
3.624991575091674
 20
-4.508295833333338
 30
0.0
 10
3.624991575091674
 20
-4.566240277777776
 30
0.0
 10
3.624991575091674
 20
-4.566240277777776
 30
0.0
 10
3.624991575091674
 20
-4.787774999999997
 30
0.0
 10
3.753244349629515
 20
-4.860145833333338
 30
0.0
 10
3.967991566426766
 20
-4.860145833333338
 30
0.0
 10
4.039456842399178
 20
-4.860145833333338
 30
0.0
 10
4.039456842399178
 20
-5.074358333333331
 30
0.0
 10
3.967991566426766
 20
-5.074358333333331
 30
0.0
 10
3.596724909139084
 20
-5.074358333333331
 30
0.0
 10
3.374991581407206
 20
-4.94924444444444
 30
0.0
 10
3.374991581407206
 20
-4.566240277777776
 30
0.0
 10
3.374991581407206
 20
-4.566240277777776
 30
0.0
 10
3.374991581407206
 20
-4.508295833333338
 30
0.0
 10
3.374991581407206
 20
-4.508295833333338
 30
0.0
 10
3.374991581407206
 20
-4.452602777777782
 30
0.0
 10
3.44595685739225
 20
-4.442854166666671
 30
0.0
 10
3.44595685739225
 20
-4.394684722222223
 30
0.0
 10
3.44595685739225
 20
-4.359220833333337
 30
0.0
 10
3.452461023894607
 20
-4.360444444444448
 30
0.0
 10
3.44530685740867
 20
-4.325720833333333
 30
0.0
 10
3.436802690956837
 20
-4.284456944444451
 30
0.0
 10
3.430086024459847
 20
-4.28669305555555
 30
0.0
 10
3.442377690816
 20
-4.243531944444448
 30
0.0
 10
3.450783246159214
 20
-4.214012500000004
 30
0.0
 10
3.446751301816625
 20
-4.218886111111108
 30
0.0
 10
3.446751301816625
 20
-4.188165277777772
 30
0.0
 10
3.446751301816625
 20
-4.180645833333339
 30
0.0
 10
3.440654079748431
 20
-4.174547222222221
 30
0.0
 10
3.43313324660509
 20
-4.174547222222221
 30
0.0
 10
3.43313324660509
 20
-4.174547222222221
 30
0.0
 10
3.365995748301126
 20
-4.174626388888884
 30
0.0
 10
3.365995748301126
 20
-4.174626388888884
 30
0.0
 10
3.357637415178942
 20
-4.174626388888884
 30
0.0
 10
3.350862415350093
 20
-4.167849999999993
 30
0.0
 10
3.350862415350093
 20
-4.159491666666668
 30
0.0
 10
3.350862415350093
 20
-4.159491666666668
 30
0.0
 10
3.350862415350093
 20
-3.776043055555558
 30
0.0
 10
3.350862415350093
 20
-3.776043055555558
 30
0.0
 10
3.350862415350093
 20
-3.776043055555558
 30
0.0
 10
3.350862415350093
 20
-3.483311111111107
 30
0.0
 10
3.350862415350093
 20
-3.483311111111107
 30
0.0
 10
3.350862415350093
 20
-3.474862499999997
 30
0.0
 10
3.344012415523139
 20
-3.468012499999999
 30
0.0
 10
3.335562415736604
 20
-3.468012499999999
 30
0.0
 10
3.3202207494575
 20
-3.468012499999999
 30
0.0
 10
3.318791582826937
 20
-3.453802777777772
 30
0.0
 10
3.333079082466004
 20
-3.439602777777774
 30
0.0
 10
3.384036025623168
 20
-3.388972222222226
 30
0.0
 10
3.352169359761521
 20
-3.283586111111112
 30
0.0
 10
3.321731860530437
 20
-3.253122222222221
 30
0.0
 10
3.254905473329725
 20
-3.186224999999998
 30
0.0
 10
3.230759640606367
 20
-3.105287500000006
 30
0.0
 10
3.207890196739653
 20
-3.082538888888886
 30
0.0
 10
3.185019363984086
 20
-3.05979166666667
 30
0.0
 10
3.221724918612381
 20
-3.146015277777779
 30
0.0
 10
3.17084575323103
 20
-3.216086111111117
 30
0.0
 10
3.113126310244701
 20
-3.29557916666666
 30
0.0
 10
3.129240198726519
 20
-3.410437499999994
 30
0.0
 10
3.176566586419843
 20
-3.442551388888887
 30
0.0
 10
3.189487419426769
 20
-3.45095277777778
 30
0.0
 10
3.183772141793371
 20
-3.468012499999999
 30
0.0
 10
3.164420753393339
 20
-3.468012499999999
 30
0.0
 10
3.155972142495658
 20
-3.468012499999999
 30
0.0
 10
3.149122142668703
 20
-3.474862499999997
 30
0.0
 10
3.149122142668703
 20
-3.483311111111107
 30
0.0
 10
3.149122142668703
 20
-3.483311111111107
 30
0.0
 10
3.149122142668703
 20
-3.776043055555558
 30
0.0
 10
3.149122142668703
 20
-3.776043055555558
 30
0.0
 10
3.149122142668703
 20
-3.776043055555558
 30
0.0
 10
3.149122142668703
 20
-4.159491666666668
 30
0.0
 10
3.149122142668703
 20
-4.159491666666668
 30
0.0
 10
3.149122142668703
 20
-4.167849999999993
 30
0.0
 10
3.142345753951
 20
-4.174626388888884
 30
0.0
 10
3.133987420828817
 20
-4.174626388888884
 30
0.0
 10
3.133987420828817
 20
-4.174626388888884
 30
0.0
 10
3.066849922524852
 20
-4.174547222222221
 30
0.0
 10
3.066849922524852
 20
-4.174547222222221
 30
0.0
 10
3.059330478270365
 20
-4.174547222222221
 30
0.0
 10
3.053231867313318
 20
-4.180645833333339
 30
0.0
 10
3.053231867313318
 20
-4.188165277777772
 30
0.0
 10
3.053231867313318
 20
-4.218886111111108
 30
0.0
 10
3.049201311859583
 20
-4.214012500000004
 30
0.0
 10
3.057606867202796
 20
-4.243531944444448
 30
0.0
 10
3.069897144670095
 20
-4.28669305555555
 30
0.0
 10
3.063180478173106
 20
-4.284456944444451
 30
0.0
 10
3.054677700610126
 20
-4.325720833333333
 30
0.0
 10
3.047523534124189
 20
-4.360444444444448
 30
0.0
 10
3.054027700626547
 20
-4.359220833333337
 30
0.0
 10
3.054027700626547
 20
-4.394684722222223
 30
0.0
 10
3.054027700626547
 20
-4.442854166666671
 30
0.0
 10
3.124991587722737
 20
-4.452602777777782
 30
0.0
 10
3.124991587722737
 20
-4.508295833333338
 30
0.0
 10
3.124991587722737
 20
-4.508295833333338
 30
0.0
 10
3.124991587722737
 20
-4.536240277777779
 30
0.0
 10
3.124991587722737
 20
-4.536240277777779
 30
0.0
 10
3.124991587722737
 20
-5.080708333333328
 30
0.0
 10
3.440201301982092
 20
-5.258570833333338
 30
0.0
 10
3.967991566426766
 20
-5.258570833333338
 30
0.0
 10
4.039456842399178
 20
-5.258570833333338
 30
0.0
 10
4.039456842399178
 20
-5.472783333333331
 30
0.0
 10
3.967999899759889
 20
-5.472783333333331
 30
0.0
 10
3.28368880593593
 20
-5.472783333333331
 30
0.0
 10
2.874999927371391
 20
-5.242177777777783
 30
0.0
 10
2.874999927371391
 20
-4.536240277777779
 30
0.0
 10
2.874999927371391
 20
-4.536240277777779
 30
0.0
 10
2.874999927371391
 20
-4.508295833333338
 30
0.0
 10
2.874999927371391
 20
-4.508295833333338
 30
0.0
 10
2.874999927371391
 20
-4.452602777777782
 30
0.0
 10
2.945963814467581
 20
-4.442854166666671
 30
0.0
 10
2.945963814467581
 20
-4.394684722222223
 30
0.0
 10
2.945963814467581
 20
-4.359220833333337
 30
0.0
 10
2.952467980969939
 20
-4.360444444444448
 30
0.0
 10
2.945315203372855
 20
-4.325720833333333
 30
0.0
 10
2.936811036921022
 20
-4.284456944444451
 30
0.0
 10
2.930094370424033
 20
-4.28669305555555
 30
0.0
 10
2.942386036780186
 20
-4.243531944444448
 30
0.0
 10
2.950791592123399
 20
-4.214012500000004
 30
0.0
 10
2.94675964778081
 20
-4.218886111111108
 30
0.0
 10
2.94675964778081
 20
-4.188165277777772
 30
0.0
 10
2.94675964778081
 20
-4.180645833333339
 30
0.0
 10
2.940661036823763
 20
-4.174547222222221
 30
0.0
 10
2.933141592569275
 20
-4.174547222222221
 30
0.0
 10
2.933141592569275
 20
-4.174547222222221
 30
0.0
 10
2.866004094265311
 20
-4.174626388888884
 30
0.0
 10
2.866004094265311
 20
-4.174626388888884
 30
0.0
 10
2.857645761143127
 20
-4.174626388888884
 30
0.0
 10
2.850869372425425
 20
-4.167849999999993
 30
0.0
 10
2.850869372425425
 20
-4.159491666666668
 30
0.0
 10
2.850869372425425
 20
-4.159491666666668
 30
0.0
 10
2.850869372425425
 20
-3.776043055555558
 30
0.0
 10
2.850869372425425
 20
-3.776043055555558
 30
0.0
 10
2.850869372425425
 20
-3.776043055555558
 30
0.0
 10
2.850869372425425
 20
-3.543311111111115
 30
0.0
 10
2.850869372425425
 20
-3.543311111111115
 30
0.0
 10
2.850869372425425
 20
-3.534862500000006
 30
0.0
 10
2.84401937259847
 20
-3.528012499999995
 30
0.0
 10
2.835570761700789
 20
-3.528012499999995
 30
0.0
 10
2.820227706532831
 20
-3.528012499999995
 30
0.0
 10
2.81890131767745
 20
-3.517165277777773
 30
0.0
 10
2.833192983983079
 20
-3.502963888888884
 30
0.0
 10
2.884149927140243
 20
-3.452330555555553
 30
0.0
 10
2.87409020517215
 20
-3.352768055555556
 30
0.0
 10
2.816531873292863
 20
-3.305744444444447
 30
0.0
 10
2.743298541809559
 20
-3.245920833333331
 30
0.0
 10
2.783090207471004
 20
-3.116822222222229
 30
0.0
 10
2.764538819050762
 20
-3.143188888888883
 30
0.0
 10
2.745987430630521
 20
-3.16955555555555
 30
0.0
 10
2.7392957641329
 20
-3.172843055555556
 30
0.0
 10
2.666079099315842
 20
-3.277822222222223
 30
0.0
 10
2.609881878513281
 20
-3.358397222222227
 30
0.0
 10
2.629248544690704
 20
-3.470437500000003
 30
0.0
 10
2.676574932384028
 20
-3.502551388888883
 30
0.0
 10
2.689495765390954
 20
-3.510952777777776
 30
0.0
 10
2.683779098868702
 20
-3.528012499999995
 30
0.0
 10
2.664429099357524
 20
-3.528012499999995
 30
0.0
 10
2.655980488459843
 20
-3.528012499999995
 30
0.0
 10
2.649130488632889
 20
-3.534862500000006
 30
0.0
 10
2.649130488632889
 20
-3.543311111111115
 30
0.0
 10
2.649130488632889
 20
-3.543311111111115
 30
0.0
 10
2.649130488632889
 20
-3.776043055555558
 30
0.0
 10
2.649130488632889
 20
-3.776043055555558
 30
0.0
 10
2.649130488632889
 20
-3.776043055555558
 30
0.0
 10
2.649130488632889
 20
-4.159491666666668
 30
0.0
 10
2.649130488632889
 20
-4.159491666666668
 30
0.0
 10
2.649130488632889
 20
-4.167849999999993
 30
0.0
 10
2.642354099915186
 20
-4.174626388888884
 30
0.0
 10
2.633995766793002
 20
-4.174626388888884
 30
0.0
 10
2.633995766793002
 20
-4.174626388888884
 30
0.0
 10
2.566858268489038
 20
-4.174547222222221
 30
0.0
 10
2.566858268489038
 20
-4.174547222222221
 30
0.0
 10
2.55933882423455
 20
-4.174547222222221
 30
0.0
 10
2.553240213277503
 20
-4.180645833333339
 30
0.0
 10
2.553240213277503
 20
-4.188165277777772
 30
0.0
 10
2.553240213277503
 20
-4.218886111111108
 30
0.0
 10
2.549208268934914
 20
-4.214012500000004
 30
0.0
 10
2.557613824278127
 20
-4.243531944444448
 30
0.0
 10
2.569905490634281
 20
-4.28669305555555
 30
0.0
 10
2.563188824137291
 20
-4.284456944444451
 30
0.0
 10
2.554684657685458
 20
-4.325720833333333
 30
0.0
 10
2.547531880088374
 20
-4.360444444444448
 30
0.0
 10
2.554036046590732
 20
-4.359220833333337
 30
0.0
 10
2.554036046590732
 20
-4.394684722222223
 30
0.0
 10
2.554036046590732
 20
-4.442854166666671
 30
0.0
 10
2.624999933686922
 20
-4.452602777777782
 30
0.0
 10
2.624999933686922
 20
-4.508295833333338
 30
0.0
 10
2.624999933686922
 20
-4.508295833333338
 30
0.0
 10
2.624999933686922
 20
-4.536240277777779
 30
0.0
 10
2.624999933686922
 20
-4.536240277777779
 30
0.0
 10
2.624999933686922
 20
-5.403645833333333
 30
0.0
 10
3.127905476538015
 20
-5.687004166666662
 30
0.0
 10
3.968740177518965
 20
-5.687004166666662
 30
0.0
 10
4.039456842399178
 20
-5.687004166666662
 30
0.0
 10
4.039456842399178
 20
-5.901216666666667
 30
0.0
 10
3.968731844185843
 20
-5.901216666666667
 30
0.0
 10
2.971377702714461
 20
-5.901216666666667
 30
0.0
 10
2.37499160666933
 20
-5.565113888888896
 30
0.0
 10
2.37499160666933
 20
-4.536240277777779
 30
0.0
 10
2.37499160666933
 20
-4.536240277777779
 30
0.0
 10
2.37499160666933
 20
-4.508295833333338
 30
0.0
 10
2.37499160666933
 20
-4.508295833333338
 30
0.0
 10
2.37499160666933
 20
-4.452602777777782
 30
0.0
 10
2.445956882654375
 20
-4.442854166666671
 30
0.0
 10
2.445956882654375
 20
-4.394684722222223
 30
0.0
 10
2.445956882654375
 20
-4.359220833333337
 30
0.0
 10
2.452461049156732
 20
-4.360444444444448
 30
0.0
 10
2.445306882670795
 20
-4.325720833333333
 30
0.0
 10
2.436802716218962
 20
-4.284456944444451
 30
0.0
 10
2.430086049721972
 20
-4.28669305555555
 30
0.0
 10
2.442377716078125
 20
-4.243531944444448
 30
0.0
 10
2.450783271421339
 20
-4.214012500000004
 30
0.0
 10
2.44675132707875
 20
-4.218886111111108
 30
0.0
 10
2.44675132707875
 20
-4.188165277777772
 30
0.0
 10
2.44675132707875
 20
-4.180645833333339
 30
0.0
 10
2.440654105010556
 20
-4.174547222222221
 30
0.0
 10
2.433133271867215
 20
-4.174547222222221
 30
0.0
 10
2.433133271867215
 20
-4.174547222222221
 30
0.0
 10
2.365995773563251
 20
-4.174626388888884
 30
0.0
 10
2.365995773563251
 20
-4.174626388888884
 30
0.0
 10
2.357637440441067
 20
-4.174626388888884
 30
0.0
 10
2.350862440612218
 20
-4.167849999999993
 30
0.0
 10
2.350862440612218
 20
-4.159491666666668
 30
0.0
 10
2.350862440612218
 20
-4.159491666666668
 30
0.0
 10
2.350862440612218
 20
-3.776043055555558
 30
0.0
 10
2.350862440612218
 20
-3.776043055555558
 30
0.0
 10
2.350862440612218
 20
-3.776043055555558
 30
0.0
 10
2.350862440612218
 20
-3.513311111111117
 30
0.0
 10
2.350862440612218
 20
-3.513311111111117
 30
0.0
 10
2.350862440612218
 20
-3.504862499999995
 30
0.0
 10
2.344012440785264
 20
-3.498012499999997
 30
0.0
 10
2.335562440998729
 20
-3.498012499999997
 30
0.0
 10
2.320220774719625
 20
-3.498012499999997
 30
0.0
 10
2.318890219197682
 20
-3.487165277777775
 30
0.0
 10
2.333184663281018
 20
-3.472963888888886
 30
0.0
 10
2.384141606438182
 20
-3.422326388888892
 30
0.0
 10
2.372345773402837
 20
-3.311484722222227
 30
0.0
 10
2.314787441523549
 20
-3.264461111111106
 30
0.0
 10
2.241555498929099
 20
-3.204637500000002
 30
0.0
 10
2.261165220655938
 20
-3.08183055555556
 30
0.0
 10
2.24651938769259
 20
-3.100819444444444
 30
0.0
 10
2.231873554729241
 20
-3.11980694444445
 30
0.0
 10
2.244062443310213
 20
-3.141106944444446
 30
0.0
 10
2.170845778493155
 20
-3.246086111111115
 30
0.0
 10
2.114649946579448
 20
-3.326661111111106
 30
0.0
 10
2.129240223988644
 20
-3.440437500000005
 30
0.0
 10
2.176566611681968
 20
-3.472551388888885
 30
0.0
 10
2.189487444688893
 20
-3.480952777777778
 30
0.0
 10
2.183772167055495
 20
-3.498012499999997
 30
0.0
 10
2.164420778655464
 20
-3.498012499999997
 30
0.0
 10
2.155972167757783
 20
-3.498012499999997
 30
0.0
 10
2.149122167930828
 20
-3.504862499999995
 30
0.0
 10
2.149122167930828
 20
-3.513311111111117
 30
0.0
 10
2.149122167930828
 20
-3.513311111111117
 30
0.0
 10
2.149122167930828
 20
-3.776043055555558
 30
0.0
 10
2.149122167930828
 20
-3.776043055555558
 30
0.0
 10
2.149122167930828
 20
-3.776043055555558
 30
0.0
 10
2.149122167930828
 20
-4.159491666666668
 30
0.0
 10
2.149122167930828
 20
-4.159491666666668
 30
0.0
 10
2.149122167930828
 20
-4.167849999999993
 30
0.0
 10
2.142345779213125
 20
-4.174626388888884
 30
0.0
 10
2.133987446090941
 20
-4.174626388888884
 30
0.0
 10
2.133987446090941
 20
-4.174626388888884
 30
0.0
 10
2.066849947786977
 20
-4.174547222222221
 30
0.0
 10
2.066849947786977
 20
-4.174547222222221
 30
0.0
 10
2.05933050353249
 20
-4.174547222222221
 30
0.0
 10
2.053231892575443
 20
-4.180645833333339
 30
0.0
 10
2.053231892575443
 20
-4.188165277777772
 30
0.0
 10
2.053231892575443
 20
-4.218886111111108
 30
0.0
 10
2.049201337121707
 20
-4.214012500000004
 30
0.0
 10
2.057606892464921
 20
-4.243531944444448
 30
0.0
 10
2.06989716993222
 20
-4.28669305555555
 30
0.0
 10
2.063180503435231
 20
-4.284456944444451
 30
0.0
 10
2.054677725872251
 20
-4.325720833333333
 30
0.0
 10
2.047523559386314
 20
-4.360444444444448
 30
0.0
 10
2.054027725888671
 20
-4.359220833333337
 30
0.0
 10
2.054027725888671
 20
-4.394684722222223
 30
0.0
 10
2.054027725888671
 20
-4.442854166666671
 30
0.0
 10
2.124991612984862
 20
-4.452602777777782
 30
0.0
 10
2.124991612984862
 20
-4.508295833333338
 30
0.0
 10
2.124991612984862
 20
-4.508295833333338
 30
0.0
 10
2.124991612984862
 20
-4.566240277777776
 30
0.0
 10
2.124991612984862
 20
-4.566240277777776
 30
0.0
 10
2.124991612984862
 20
-5.762527777777778
 30
0.0
 10
2.836366595014018
 20
-6.145015277777778
 30
0.0
 10
3.936626289441342
 20
-6.145015277777778
 30
0.0
 10
3.936626289441342
 20
-6.145015277777778
 30
0.0
 10
3.936122122787411
 20
-6.145015277777778
 30
0.0
 10
3.936122122787411
 20
-6.145015277777778
 30
0.0
 10
3.953559622346903
 20
-6.145015277777778
 30
0.0
 10
3.967697121989759
 20
-6.159008333333329
 30
0.0
 10
3.967697121989759
 20
-6.176268055555561
 30
0.0
 10
3.967697121989759
 20
-6.176268055555561
 30
0.0
 10
3.967622121991654
 20
-6.482424999999997
 30
0.0
 10
3.967622121991654
 20
-6.482424999999997
 30
0.0
 10
3.967622121991654
 20
-6.891543055555555
 30
0.0
 10
3.770704071410667
 20
-7.535413888888898
 30
0.0
 10
3.50781518916291
 20
-7.653393055555549
 30
0.0
 10
3.020999923683121
 20
-7.871862500000007
 30
0.0
 10
2.902086037798249
 20
-8.065500000000004
 30
0.0
 10
3.156240198044442
 20
-8.065500000000004
 30
0.0
 10
3.156240198044442
 20
-8.065500000000004
 30
0.0
 10
4.249999892635969
 20
-8.065500000000004
 30
0.0
 10
4.249999892635969
 20
-8.065500000000004
 30
0.0
 10
4.249999892635969
 20
-8.065500000000004
 30
0.0
 10
5.343759587227496
 20
-8.065500000000004
 30
0.0
 10
5.343759587227496
 20
-8.065500000000004
 30
0.0
 10
5.597913747473689
 20
-8.065500000000004
 30
0.0
 10
5.478999861588818
 20
-7.871862500000007
 30
0.0
 10
4.992184596109028
 20
-7.653393055555549
 30
0.0
 10
4.729295713861271
 20
-7.535413888888898
 30
0.0
 10
4.532377663280284
 20
-6.891543055555555
 30
0.0
 10
4.532377663280284
 20
-6.482424999999997
 30
0.0
 10
4.532377663280284
 20
-6.482424999999997
 30
0.0
 10
4.532302663282179
 20
-6.176268055555561
 30
0.0
 10
4.532302663282179
 20
-6.176268055555561
 30
0.0
 10
4.532302663282179
 20
-6.159008333333329
 30
0.0
 10
4.546440162925036
 20
-6.145015277777778
 30
0.0
 10
4.563877662484527
 20
-6.145015277777778
 30
0.0
 10
4.563877662484527
 20
-6.145015277777778
 30
0.0
 10
4.563373495830597
 20
-6.145015277777778
 30
0.0
 10
4.563373495830597
 20
-6.145015277777778
 30
0.0
 10
5.66363319025792
 20
-6.145015277777778
 30
0.0
 10
6.375008172287076
 20
-5.762527777777778
 30
0.0
 10
6.375008172287076
 20
-4.566240277777776
 30
0.0
 10
6.375008172287076
 20
-4.566240277777776
 30
0.0
 10
6.375008172287076
 20
-4.508295833333338
 30
0.0
 10
6.375008172287076
 20
-4.508295833333338
 30
0.0
 10
6.375008172287076
 20
-4.452602777777782
 30
0.0
 10
6.445972059383267
 20
-4.442854166666671
 30
0.0
 10
6.445972059383267
 20
-4.394684722222223
 30
0.0
 10
6.445972059383267
 20
-4.359220833333337
 30
0.0
 10
6.452476225885625
 20
-4.360444444444448
 30
0.0
 10
6.445322059399687
 20
-4.325720833333333
 30
0.0
 10
6.436819281836708
 20
-4.284456944444451
 30
0.0
 10
6.430102615339718
 20
-4.28669305555555
 30
0.0
 10
6.442392892807018
 20
-4.243531944444448
 30
0.0
 10
6.450798448150231
 20
-4.214012500000004
 30
0.0
 10
6.446767892696496
 20
-4.218886111111108
 30
0.0
 10
6.446767892696496
 20
-4.188165277777772
 30
0.0
 10
6.446767892696496
 20
-4.180645833333339
 30
0.0
 10
6.440669281739448
 20
-4.174547222222221
 30
0.0
 10
6.433149837484962
 20
-4.174547222222221
 30
0.0
 10
6.433149837484962
 20
-4.174547222222221
 30
0.0
 10
6.366012339180998
 20
-4.174626388888884
 30
0.0
 10
6.366012339180998
 20
-4.174626388888884
 30
0.0
 10
6.357654006058813
 20
-4.174626388888884
 30
0.0
 10
6.35087761734111
 20
-4.167849999999993
 30
0.0
 10
6.35087761734111
 20
-4.159491666666668
 30
0.0
 10
6.35087761734111
 20
-4.159491666666668
 30
0.0
 10
6.35087761734111
 20
-3.776043055555558
 30
0.0
 10
6.35087761734111
 20
-3.776043055555558
 30
0.0
 10
6.35087761734111
 20
-3.776043055555558
 30
0.0
 10
6.35087761734111
 20
-3.483311111111107
 30
0.0
 10
6.35087761734111
 20
-3.483311111111107
 30
0.0
 10
6.35087761734111
 20
-3.474862499999997
 30
0.0
 10
6.344027617514156
 20
-3.468012499999999
 30
0.0
 10
6.335579006616475
 20
-3.468012499999999
 30
0.0
 10
6.320235951448517
 20
-3.468012499999999
 30
0.0
 10
6.315437340458629
 20
-3.45247638888889
 30
0.0
 10
6.333201228898765
 20
-3.442963888888888
 30
0.0
 10
6.378731783304121
 20
-3.418586111111115
 30
0.0
 10
6.374767894515369
 20
-3.278373611111116
 30
0.0
 10
6.314802618252441
 20
-3.234461111111108
 30
0.0
 10
6.242008175646939
 20
-3.181150000000002
 30
0.0
 10
6.25879150855629
 20
-3.068755555555552
 30
0.0
 10
6.253480397579349
 20
-3.076677777777781
 30
0.0
 10
6.248169286602407
 20
-3.084598611111106
 30
0.0
 10
6.202197065541541
 20
-3.185701388888889
 30
0.0
 10
6.165654010909141
 20
-3.226940277777784
 30
0.0
 10
6.104806790224049
 20
-3.295606944444444
 30
0.0
 10
6.129255400717536
 20
-3.410437499999994
 30
0.0
 10
6.176583177299714
 20
-3.442551388888887
 30
0.0
 10
6.189504010306639
 20
-3.45095277777778
 30
0.0
 10
6.183787343784388
 20
-3.468012499999999
 30
0.0
 10
6.16443734427321
 20
-3.468012499999999
 30
0.0
  0
ENDSEC
  0
SECTION
  2
OBJECTS
  0
DICTIONARY
  5
C
330
0
100
AcDbDictionary
  3
ACAD_GROUP
350
D
  3
ACAD_LAYOUT
350
1A
  3
ACAD_MATERIAL
350
3B
  3
ACAD_MLEADERSTYLE
350
44
  3
ACAD_MLINESTYLE
350
17
  3
ACAD_PLOTSETTINGS
350
19
  3
ACAD_VISUALSTYLE
350
2A
  3
ACDBVARIABLEDICTIONARY
350
42
1001
ACAD
1000
TREAT_AS_HARD
1070
     0
  0
DICTIONARY
  5
D
102
{ACAD_REACTORS
330
C
102
}
330
C
100
AcDbDictionary
1001
ACAD
1000
TREAT_AS_HARD
1070
     0
  0
DICTIONARY
  5
1A
102
{ACAD_REACTORS
330
C
102
}
330
C
100
AcDbDictionary
1001
ACAD
1000
TREAT_AS_HARD
1070
     0
  0
DICTIONARY
  5
3B
102
{ACAD_REACTORS
330
C
102
}
330
C
100
AcDbDictionary
  3
BYBLOCK
350
3D
  3
BYLAYER
350
3C
  3
GLOBAL
350
3E
1001
ACAD
1000
TREAT_AS_HARD
1070
     0
  0
DICTIONARY
  5
44
102
{ACAD_REACTORS
330
C
102
}
330
C
100
AcDbDictionary
1001
ACAD
1000
TREAT_AS_HARD
1070
     0
  0
DICTIONARY
  5
17
102
{ACAD_REACTORS
330
C
102
}
330
C
100
AcDbDictionary
  3
STANDARD
350
18
1001
ACAD
1000
TREAT_AS_HARD
1070
     0
  0
DICTIONARY
  5
19
102
{ACAD_REACTORS
330
C
102
}
330
C
100
AcDbDictionary
1001
ACAD
1000
TREAT_AS_HARD
1070
     0
  0
DICTIONARY
  5
2A
102
{ACAD_REACTORS
330
C
102
}
330
C
100
AcDbDictionary
  3
2DWIREFRAME
350
2F
  3
3D_HIDDEN
350
31
  3
3DWIREFRAME
350
30
  3
BASIC
350
32
  3
BRIGHTEN
350
36
  3
COLORCHANGE
350
3A
  3
CONCEPTUAL
350
34
  3
DIM
350
35
  3
FACEPATTERN
350
39
  3
FLAT
350
2B
  3
FLATWITHEDGES
350
2C
  3
GOURAUD
350
2D
  3
GOURAUDWITHEDGES
350
2E
  3
LINEPATTERN
350
38
  3
REALISTIC
350
33
  3
THICKEN
350
37
1001
ACAD
1000
TREAT_AS_HARD
1070
     0
  0
DICTIONARY
  5
42
102
{ACAD_REACTORS
330
C
102
}
330
C
100
AcDbDictionary
  3
DIMASSOC
350
45
  3
HIDETEXT
350
46
1001
ACAD
1000
TREAT_AS_HARD
1070
     0
  0
MATERIAL
  5
3D
102
{ACAD_REACTORS
330
3B
102
}
102
{ACAD_XDICTIONARY
360
49
102
}
330
3B
100
AcDbMaterial
  1
ByBlock
  0
MATERIAL
  5
3C
102
{ACAD_REACTORS
330
3B
102
}
102
{ACAD_XDICTIONARY
360
47
102
}
330
3B
100
AcDbMaterial
  1
ByLayer
  0
MATERIAL
  5
3E
102
{ACAD_REACTORS
330
3B
102
}
102
{ACAD_XDICTIONARY
360
4B
102
}
330
3B
100
AcDbMaterial
  1
Global
  0
MLINESTYLE
  5
18
102
{ACAD_REACTORS
330
17
102
}
330
17
100
AcDbMlineStyle
  2
Standard
 70
     0
  3

 62
   256
 51
90.0
 52
90.0
 71
     2
 49
0.5
 62
   256
  6
BYLAYER
 49
-0.5
 62
   256
  6
BYLAYER
  0
ACAD_PROXY_OBJECT
  5
2F
102
{ACAD_REACTORS
330
2A
102
}
330
2A
100
AcDbZombieObject
 90
      499
 91
      501
 93
      436
310
42CC9915DA5C99599C985B595049028333333333333E3BF0000000000000FB0107901411070040501600405405064090741402480A0340
1001
ACAD
1000
AcDbSavedByObjectVersion
1070
     0
  0
ACAD_PROXY_OBJECT
  5
31
102
{ACAD_REACTORS
330
2A
102
}
330
2A
100
AcDbZombieObject
 90
      499
 91
      501
 93
      500
310
424CD108121A5919195B90640502408333333333333E3BF0000000000000FB01079024090700405020000000000001110200405405064090740C02480A0340
1001
ACAD
1000
AcDbSavedByObjectVersion
1070
     0
  0
ACAD_PROXY_OBJECT
  5
30
102
{ACAD_REACTORS
330
2A
102
}
330
2A
100
AcDbZombieObject
 90
      499
 91
      501
 93
      436
310
42CCD915DA5C99599C985B595059028333333333333E3BF0000000000000FB0107901411070040501600405405064090741402480A0340
1001
ACAD
1000
AcDbSavedByObjectVersion
1070
     0
  0
ACAD_PROXY_OBJECT
  5
32
102
{ACAD_REACTORS
330
2A
102
}
330
2A
100
AcDbZombieObject
 90
      499
 91
      501
 93
      388
310
4150985CDA58D07406404333333333333E3BF0000000000000FB0107A41107004050150841D405064090741402480A0350
1001
ACAD
1000
AcDbSavedByObjectVersion
1070
     0
  0
ACAD_PROXY_OBJECT
  5
36
102
{ACAD_REACTORS
330
2A
102
}
330
2A
100
AcDbZombieObject
 90
      499
 91
      501
 93
      428
310
42109C9A59DA1D195B90C409028333333333333E3BF0000000000000FB010790141107004050150841D405064090741402480A029950
1001
ACAD
1000
AcDbSavedByObjectVersion
1070
     0
  0
ACAD_PROXY_OBJECT
  5
3A
102
{ACAD_REACTORS
330
2A
102
}
330
2A
100
AcDbZombieObject
 90
      499
 91
      501
 93
      452
310
42D0DBDB1BDC90DA185B99D95104090240C333333333333E3BF0000000000000FB0108901411070040501508421405064090741402480A0350
1001
ACAD
1000
AcDbSavedByObjectVersion
1070
     0
  0
ACAD_PROXY_OBJECT
  5
34
102
{ACAD_REACTORS
330
2A
102
}
330
2A
100
AcDbZombieObject
 90
      499
 91
      501
 93
      500
310
4290DBDB98D95C1D1D585B10940D028333333333333E3BF0000000000000FB0107902409070040501000000000000111010841D405064090740C02480A0340
1001
ACAD
1000
AcDbSavedByObjectVersion
1070
     0
  0
ACAD_PROXY_OBJECT
  5
35
102
{ACAD_REACTORS
330
2A
102
}
330
2A
100
AcDbZombieObject
 90
      499
 91
      501
 93
      412
310
40D11A5B50B409028333333333333E3BF0000000000000FB010790141107004050150841D405064090741402480A02677FFFFFD0
1001
ACAD
1000
AcDbSavedByObjectVersion
1070
     0
  0
ACAD_PROXY_OBJECT
  5
39
102
{ACAD_REACTORS
330
2A
102
}
330
2A
100
AcDbZombieObject
 90
      499
 91
      501
 93
      444
310
42D19858D95C185D1D195C9B90F409028333333333333E3BF0000000000000FB010790141107004050150841D405064090741402480A0350
1001
ACAD
1000
AcDbSavedByObjectVersion
1070
     0
  0
ACAD_PROXY_OBJECT
  5
2B
102
{ACAD_REACTORS
330
2A
102
}
330
2A
100
AcDbZombieObject
 90
      499
 91
      501
 93
      388
310
41119B185D240901404333333333333E3BF0000000000000F9010740A41107004050150841D405064090741402480A1B50
1001
ACAD
1000
AcDbSavedByObjectVersion
1070
     0
  0
ACAD_PROXY_OBJECT
  5
2C
102
{ACAD_REACTORS
330
2A
102
}
330
2A
100
AcDbZombieObject
 90
      499
 91
      501
 93
      476
310
43519B185D15DA5D1A115919D95CD0140901404333333333333E3BF0000000000000F9010740901411070040501600405405064090741402480A1B50
1001
ACAD
1000
AcDbSavedByObjectVersion
1070
     0
  0
ACAD_PROXY_OBJECT
  5
2D
102
{ACAD_REACTORS
330
2A
102
}
330
2A
100
AcDbZombieObject
 90
      499
 91
      501
 93
      412
310
41D1DBDD5C985D5910240902404333333333333E3BF0000000000000F9010740A411070040501641D405064090741402480A1B50
1001
ACAD
1000
AcDbSavedByObjectVersion
1070
     0
  0
ACAD_PROXY_OBJECT
  5
2E
102
{ACAD_REACTORS
330
2A
102
}
330
2A
100
AcDbZombieObject
 90
      499
 91
      501
 93
      500
310
4411DBDD5C985D5915DA5D1A115919D95CD0340902404333333333333E3BF0000000000000F9010740901411070040501600405405064090741402480A1B50
1001
ACAD
1000
AcDbSavedByObjectVersion
1070
     0
  0
ACAD_PROXY_OBJECT
  5
38
102
{ACAD_REACTORS
330
2A
102
}
330
2A
100
AcDbZombieObject
 90
      499
 91
      501
 93
      444
310
42D31A5B995C185D1D195C9B90E409028333333333333E3BF0000000000000FB010790141107004050750841D405064090741402483A0350
1001
ACAD
1000
AcDbSavedByObjectVersion
1070
     0
  0
ACAD_PROXY_OBJECT
  5
33
102
{ACAD_REACTORS
330
2A
102
}
330
2A
100
AcDbZombieObject
 90
      499
 91
      501
 93
      420
310
425499585B1A5CDD1A58D08409028333333333333E3BF0000000000000FB01079019070040501508421405064090741402480A1B40
1001
ACAD
1000
AcDbSavedByObjectVersion
1070
     0
  0
ACAD_PROXY_OBJECT
  5
37
102
{ACAD_REACTORS
330
2A
102
}
330
2A
100
AcDbZombieObject
 90
      499
 91
      501
 93
      412
310
41D51A1A58DAD95B90D409028333333333333E3BF0000000000000FB010790141107004050150C41D405064090741402480A0350
1001
ACAD
1000
AcDbSavedByObjectVersion
1070
     0
  0
DICTIONARYVAR
  5
45
102
{ACAD_REACTORS
330
42
102
}
330
42
100
DictionaryVariables
280
     0
  1
2
  0
DICTIONARYVAR
  5
46
102
{ACAD_REACTORS
330
42
102
}
330
42
100
DictionaryVariables
280
     0
  1
1
  0
DICTIONARY
  5
49
330
3D
100
AcDbDictionary
  3
ACAD_XREC_ROUNDTRIP
360
4A
1001
ACAD
1000
TREAT_AS_HARD
1070
     1
  0
DICTIONARY
  5
47
330
3C
100
AcDbDictionary
  3
ACAD_XREC_ROUNDTRIP
360
48
1001
ACAD
1000
TREAT_AS_HARD
1070
     1
  0
DICTIONARY
  5
4B
330
3E
100
AcDbDictionary
  3
ACAD_XREC_ROUNDTRIP
360
4C
1001
ACAD
1000
TREAT_AS_HARD
1070
     1
  0
XRECORD
  5
4A
102
{ACAD_REACTORS
330
49
102
}
330
49
100
AcDbXrecord
102
MATERIAL
148
0.0
149
0.0
149
0.0
 93
        0
 94
      127
282
     0
 72
     1
 77
     1
171
     1
175
     1
179
     1
273
     0
  0
XRECORD
  5
48
102
{ACAD_REACTORS
330
47
102
}
330
47
100
AcDbXrecord
102
MATERIAL
148
0.0
149
0.0
149
0.0
 93
        0
 94
      127
282
     0
 72
     1
 77
     1
171
     1
175
     1
179
     1
273
     0
  0
XRECORD
  5
4C
102
{ACAD_REACTORS
330
4B
102
}
330
4B
100
AcDbXrecord
102
MATERIAL
148
0.0
149
0.0
149
0.0
 93
        0
 94
      127
282
     0
 72
     1
 77
     1
171
     1
175
     1
179
     1
273
     0
  0
ENDSEC
  0
EOF
