  0
SECTION
  2
HEADER
  9
$ACADVER
  1
AC1009
  9
$DWGCODEPAGE
  3
ansi_1252
  9
$INSBASE
 10
0.0
 20
0.0
 30
0.0
  9
$EXTMIN
 10
-55.8845
 20
-65.2018
 30
0.0
  9
$EXTMAX
 10
55.8845
 20
65.1951
 30
0.0
  9
$LIMMIN
 10
0.0
 20
0.0
  9
$LIMMAX
 10
12.0
 20
9.0
  9
$ORTHOMODE
 70
     0
  9
$REGENMODE
 70
     1
  9
$FILLMODE
 70
     1
  9
$QTEXTMODE
 70
     0
  9
$MIRRTEXT
 70
     1
  9
$DRAGMODE
 70
     2
  9
$LTSCALE
 40
1.0
  9
$OSMODE
 70
    37
  9
$ATTMODE
 70
     1
  9
$TEXTSIZE
 40
0.2
  9
$TRACEWID
 40
0.05
  9
$TEXTSTYLE
  7
STANDARD
  9
$CLAYER
  8
0
  9
$CELTYPE
  6
BYLAYER
  9
$CECOLOR
 62
   256
  9
$DIMSCALE
 40
1.0
  9
$DIMASZ
 40
0.18
  9
$DIMEXO
 40
0.0625
  9
$DIMDLI
 40
0.38
  9
$DIMRND
 40
0.0
  9
$DIMDLE
 40
0.0
  9
$DIMEXE
 40
0.18
  9
$DIMTP
 40
0.0
  9
$DIMTM
 40
0.0
  9
$DIMTXT
 40
0.18
  9
$DIMCEN
 40
0.09
  9
$DIMTSZ
 40
0.0
  9
$DIMTOL
 70
     0
  9
$DIMLIM
 70
     0
  9
$DIMTIH
 70
     1
  9
$DIMTOH
 70
     1
  9
$DIMSE1
 70
     0
  9
$DIMSE2
 70
     0
  9
$DIMTAD
 70
     0
  9
$DIMZIN
 70
     0
  9
$DIMBLK
  1

  9
$DIMASO
 70
     1
  9
$DIMSHO
 70
     1
  9
$DIMPOST
  1

  9
$DIMAPOST
  1

  9
$DIMALT
 70
     0
  9
$DIMALTD
 70
     2
  9
$DIMALTF
 40
25.4
  9
$DIMLFAC
 40
1.0
  9
$DIMTOFL
 70
     0
  9
$DIMTVP
 40
0.0
  9
$DIMTIX
 70
     0
  9
$DIMSOXD
 70
     0
  9
$DIMSAH
 70
     0
  9
$DIMBLK1
  1

  9
$DIMBLK2
  1

  9
$DIMSTYLE
  2
STANDARD
  9
$DIMCLRD
 70
     0
  9
$DIMCLRE
 70
     0
  9
$DIMCLRT
 70
     0
  9
$DIMTFAC
 40
1.0
  9
$DIMGAP
 40
0.09
  9
$LUNITS
 70
     2
  9
$LUPREC
 70
     4
  9
$SKETCHINC
 40
0.1
  9
$FILLETRAD
 40
0.5
  9
$AUNITS
 70
     0
  9
$AUPREC
 70
     0
  9
$MENU
  1
.
  9
$ELEVATION
 40
0.0
  9
$PELEVATION
 40
0.0
  9
$THICKNESS
 40
0.0
  9
$LIMCHECK
 70
     0
  9
$CHAMFERA
 40
0.0
  9
$CHAMFERB
 40
0.0
  9
$SKPOLY
 70
     0
  9
$TDCREATE
 40
2459174.910716412
  9
$TDUPDATE
 40
2459174.910716424
  9
$TDINDWG
 40
0.0000000116
  9
$TDUSRTIMER
 40
0.0000000116
  9
$USRTIMER
 70
     1
  9
$ANGBASE
 50
0.0
  9
$ANGDIR
 70
     0
  9
$PDMODE
 70
     0
  9
$PDSIZE
 40
0.0
  9
$PLINEWID
 40
0.0
  9
$COORDS
 70
     1
  9
$SPLFRAME
 70
     0
  9
$SPLINETYPE
 70
     6
  9
$SPLINESEGS
 70
     8
  9
$ATTDIA
 70
     0
  9
$ATTREQ
 70
     1
  9
$HANDLING
 70
     1
  9
$HANDSEED
  5
6F2
  9
$SURFTAB1
 70
     6
  9
$SURFTAB2
 70
     6
  9
$SURFTYPE
 70
     6
  9
$SURFU
 70
     6
  9
$SURFV
 70
     6
  9
$UCSNAME
  2

  9
$UCSORG
 10
0.0
 20
0.0
 30
0.0
  9
$UCSXDIR
 10
1.0
 20
0.0
 30
0.0
  9
$UCSYDIR
 10
0.0
 20
1.0
 30
0.0
  9
$PUCSNAME
  2

  9
$PUCSORG
 10
0.0
 20
0.0
 30
0.0
  9
$PUCSXDIR
 10
1.0
 20
0.0
 30
0.0
  9
$PUCSYDIR
 10
0.0
 20
1.0
 30
0.0
  9
$USERI1
 70
     0
  9
$USERI2
 70
     0
  9
$USERI3
 70
     0
  9
$USERI4
 70
     0
  9
$USERI5
 70
     0
  9
$USERR1
 40
0.0
  9
$USERR2
 40
0.0
  9
$USERR3
 40
0.0
  9
$USERR4
 40
0.0
  9
$USERR5
 40
0.0
  9
$WORLDVIEW
 70
     1
  9
$SHADEDGE
 70
     3
  9
$SHADEDIF
 70
    70
  9
$TILEMODE
 70
     1
  9
$MAXACTVP
 70
    64
  9
$PLIMCHECK
 70
     0
  9
$PEXTMIN
 10
1.000000000000000E+20
 20
1.000000000000000E+20
 30
1.000000000000000E+20
  9
$PEXTMAX
 10
-1.000000000000000E+20
 20
-1.000000000000000E+20
 30
-1.000000000000000E+20
  9
$PLIMMIN
 10
0.0
 20
0.0
  9
$PLIMMAX
 10
12.0
 20
9.0
  9
$UNITMODE
 70
     0
  9
$VISRETAIN
 70
     1
  9
$PLINEGEN
 70
     0
  9
$PSLTSCALE
 70
     1
  0
ENDSEC
  0
SECTION
  2
TABLES
  0
TABLE
  2
VPORT
 70
     1
  0
VPORT
  2
*ACTIVE
 70
     0
 10
0.0
 20
0.0
 11
1.0
 21
1.0
 12
10.42990654205607
 22
4.5
 13
0.0
 23
0.0
 14
0.5
 24
0.5
 15
0.5
 25
0.5
 16
0.0
 26
0.0
 36
1.0
 17
0.0
 27
0.0
 37
0.0
 40
9.0
 41
1.972972972850329
 42
50.0
 43
0.0
 44
0.0
 50
0.0
 51
0.0
 71
     0
 72
   100
 73
     1
 74
     3
 75
     0
 76
     0
 77
     0
 78
     0
  0
ENDTAB
  0
TABLE
  2
LTYPE
 70
     1
  0
LTYPE
  2
CONTINUOUS
 70
     0
  3
Solid line
 72
    65
 73
     0
 40
0.0
  0
ENDTAB
  0
TABLE
  2
LAYER
 70
     2
  0
LAYER
  2
0
 70
     0
 62
     7
  6
CONTINUOUS
  0
LAYER
  2
LAYER_1
 70
     0
 62
     7
  6
CONTINUOUS
  0
ENDTAB
  0
TABLE
  2
STYLE
 70
     1
  0
STYLE
  2
STANDARD
 70
     0
 40
0.0
 41
1.0
 50
0.0
 71
     0
 42
0.2
  3
txt
  4

  0
ENDTAB
  0
TABLE
  2
VIEW
 70
     0
  0
ENDTAB
  0
TABLE
  2
UCS
 70
     0
  0
ENDTAB
  0
TABLE
  2
APPID
 70
     2
  0
APPID
  2
ACAD
 70
     0
  0
APPID
  2
ODA
 70
     0
  0
ENDTAB
  0
TABLE
  2
DIMSTYLE
 70
     1
  0
DIMSTYLE
  2
STANDARD
 70
     0
  3

  4

  5

  6

  7

 40
1.0
 41
0.18
 42
0.0625
 43
0.38
 44
0.18
 45
0.0
 46
0.0
 47
0.0
 48
0.0
140
0.18
141
0.09
142
0.0
143
25.4
144
1.0
145
0.0
146
1.0
147
0.09
 71
     0
 72
     0
 73
     1
 74
     1
 75
     0
 76
     0
 77
     0
 78
     0
170
     0
171
     2
172
     0
173
     0
174
     0
175
     0
176
     0
177
     0
178
     0
  0
ENDTAB
  0
ENDSEC
  0
SECTION
  2
BLOCKS
  0
BLOCK
  8
0
  2
$MODEL_SPACE
 70
     0
 10
0.0
 20
0.0
 30
0.0
  3
$MODEL_SPACE
  1

  0
ENDBLK
  5
21
  8
0
  0
BLOCK
 67
     1
  8
0
  2
$PAPER_SPACE
 70
     0
 10
0.0
 20
0.0
 30
0.0
  3
$PAPER_SPACE
  1

  0
ENDBLK
  5
1D
 67
     1
  8
0
  0
ENDSEC
  0
SECTION
  2
ENTITIES
  0
POLYLINE
  5
70
  8
LAYER_1
 66
     1
 10
0.0
 20
0.0
 30
0.0
 70
     1
  0
VERTEX
  5
78
  8
LAYER_1
 10
48.6267
 20
51.6125
 30
0.0
  0
VERTEX
  5
79
  8
LAYER_1
 10
48.5484
 20
51.6046
 30
0.0
  0
VERTEX
  5
7A
  8
LAYER_1
 10
48.4754
 20
51.582
 30
0.0
  0
VERTEX
  5
7B
  8
LAYER_1
 10
48.4094
 20
51.5461
 30
0.0
  0
VERTEX
  5
7C
  8
LAYER_1
 10
48.3519
 20
51.4987
 30
0.0
  0
VERTEX
  5
7D
  8
LAYER_1
 10
48.3045
 20
51.4412
 30
0.0
  0
VERTEX
  5
7E
  8
LAYER_1
 10
48.2686
 20
51.3752
 30
0.0
  0
VERTEX
  5
7F
  8
LAYER_1
 10
48.246
 20
51.3022
 30
0.0
  0
VERTEX
  5
80
  8
LAYER_1
 10
48.2381
 20
51.2239
 30
0.0
  0
VERTEX
  5
81
  8
LAYER_1
 10
48.2381
 20
43.7885
 30
0.0
  0
VERTEX
  5
82
  8
LAYER_1
 10
48.2381
 20
34.0489
 30
0.0
  0
VERTEX
  5
83
  8
LAYER_1
 10
48.2303
 20
33.9714
 30
0.0
  0
VERTEX
  5
84
  8
LAYER_1
 10
48.2079
 20
33.8993
 30
0.0
  0
VERTEX
  5
85
  8
LAYER_1
 10
48.1725
 20
33.834
 30
0.0
  0
VERTEX
  5
86
  8
LAYER_1
 10
48.1255
 20
33.7771
 30
0.0
  0
VERTEX
  5
87
  8
LAYER_1
 10
48.0686
 20
33.7301
 30
0.0
  0
VERTEX
  5
88
  8
LAYER_1
 10
48.0033
 20
33.6947
 30
0.0
  0
VERTEX
  5
89
  8
LAYER_1
 10
47.9312
 20
33.6723
 30
0.0
  0
VERTEX
  5
8A
  8
LAYER_1
 10
47.8537
 20
33.6645
 30
0.0
  0
VERTEX
  5
8B
  8
LAYER_1
 10
46.1484
 20
33.6665
 30
0.0
  0
VERTEX
  5
8C
  8
LAYER_1
 10
46.0787
 20
33.6595
 30
0.0
  0
VERTEX
  5
8D
  8
LAYER_1
 10
46.0138
 20
33.6393
 30
0.0
  0
VERTEX
  5
8E
  8
LAYER_1
 10
45.955
 20
33.6074
 30
0.0
  0
VERTEX
  5
8F
  8
LAYER_1
 10
45.9038
 20
33.5652
 30
0.0
  0
VERTEX
  5
90
  8
LAYER_1
 10
45.8616
 20
33.514
 30
0.0
  0
VERTEX
  5
91
  8
LAYER_1
 10
45.8297
 20
33.4552
 30
0.0
  0
VERTEX
  5
92
  8
LAYER_1
 10
45.8095
 20
33.3903
 30
0.0
  0
VERTEX
  5
93
  8
LAYER_1
 10
45.8025
 20
33.3206
 30
0.0
  0
VERTEX
  5
94
  8
LAYER_1
 10
45.7898
 20
32.8771
 30
0.0
  0
VERTEX
  5
95
  8
LAYER_1
 10
45.778
 20
32.606
 30
0.0
  0
VERTEX
  5
96
  8
LAYER_1
 10
45.7846
 20
32.483
 30
0.0
  0
VERTEX
  5
97
  8
LAYER_1
 10
45.8062
 20
32.3406
 30
0.0
  0
VERTEX
  5
98
  8
LAYER_1
 10
45.8475
 20
32.158
 30
0.0
  0
VERTEX
  5
99
  8
LAYER_1
 10
45.9136
 20
31.9143
 30
0.0
  0
VERTEX
  5
9A
  8
LAYER_1
 10
46.0089
 20
31.5528
 30
0.0
  0
VERTEX
  5
9B
  8
LAYER_1
 10
46.0641
 20
31.273
 30
0.0
  0
VERTEX
  5
9C
  8
LAYER_1
 10
46.0842
 20
31.0484
 30
0.0
  0
VERTEX
  5
9D
  8
LAYER_1
 10
46.0745
 20
30.8524
 30
0.0
  0
VERTEX
  5
9E
  8
LAYER_1
 10
45.9859
 20
30.4409
 30
0.0
  0
VERTEX
  5
9F
  8
LAYER_1
 10
45.8392
 20
29.8267
 30
0.0
  0
VERTEX
  5
A0
  8
LAYER_1
 10
45.7863
 20
29.5351
 30
0.0
  0
VERTEX
  5
A1
  8
LAYER_1
 10
45.76
 20
29.3076
 30
0.0
  0
VERTEX
  5
A2
  8
LAYER_1
 10
45.7541
 20
29.1224
 30
0.0
  0
VERTEX
  5
A3
  8
LAYER_1
 10
45.7628
 20
28.9579
 30
0.0
  0
VERTEX
  5
A4
  8
LAYER_1
 10
45.7997
 20
28.6047
 30
0.0
  0
VERTEX
  5
A5
  8
LAYER_1
 10
45.8227
 20
28.075
 30
0.0
  0
VERTEX
  5
A6
  8
LAYER_1
 10
45.9002
 20
27.6577
 30
0.0
  0
VERTEX
  5
A7
  8
LAYER_1
 10
46.1043
 20
27.3069
 30
0.0
  0
VERTEX
  5
A8
  8
LAYER_1
 10
46.393
 20
26.9973
 30
0.0
  0
VERTEX
  5
A9
  8
LAYER_1
 10
46.724
 20
26.7038
 30
0.0
  0
VERTEX
  5
AA
  8
LAYER_1
 10
47.0549
 20
26.4014
 30
0.0
  0
VERTEX
  5
AB
  8
LAYER_1
 10
47.3436
 20
26.0649
 30
0.0
  0
VERTEX
  5
AC
  8
LAYER_1
 10
47.5477
 20
25.6693
 30
0.0
  0
VERTEX
  5
AD
  8
LAYER_1
 10
47.6252
 20
25.1893
 30
0.0
  0
VERTEX
  5
AE
  8
LAYER_1
 10
47.6252
 20
24.4795
 30
0.0
  0
VERTEX
  5
AF
  8
LAYER_1
 10
46.9248
 20
15.4866
 30
0.0
  0
VERTEX
  5
B0
  8
LAYER_1
 10
44.8625
 20
8.0372
 30
0.0
  0
VERTEX
  5
B1
  8
LAYER_1
 10
41.4963
 20
2.0252
 30
0.0
  0
VERTEX
  5
B2
  8
LAYER_1
 10
36.8845
 20
-2.6557
 30
0.0
  0
VERTEX
  5
B3
  8
LAYER_1
 10
31.0852
 20
-6.1116
 30
0.0
  0
VERTEX
  5
B4
  8
LAYER_1
 10
24.1566
 20
-8.4487
 30
0.0
  0
VERTEX
  5
B5
  8
LAYER_1
 10
16.1569
 20
-9.773
 30
0.0
  0
VERTEX
  5
B6
  8
LAYER_1
 10
7.1442
 20
-10.1909
 30
0.0
  0
VERTEX
  5
B7
  8
LAYER_1
 10
6.5548
 20
-9.9571
 30
0.0
  0
VERTEX
  5
B8
  8
LAYER_1
 10
6.1337
 20
-9.3407
 30
0.0
  0
VERTEX
  5
B9
  8
LAYER_1
 10
5.8811
 20
-8.4693
 30
0.0
  0
VERTEX
  5
BA
  8
LAYER_1
 10
5.7969
 20
-7.4704
 30
0.0
  0
VERTEX
  5
BB
  8
LAYER_1
 10
5.8811
 20
-6.4715
 30
0.0
  0
VERTEX
  5
BC
  8
LAYER_1
 10
6.1336
 20
-5.6001
 30
0.0
  0
VERTEX
  5
BD
  8
LAYER_1
 10
6.5546
 20
-4.9837
 30
0.0
  0
VERTEX
  5
BE
  8
LAYER_1
 10
7.144
 20
-4.7499
 30
0.0
  0
VERTEX
  5
BF
  8
LAYER_1
 10
14.7424
 20
-4.3976
 30
0.0
  0
VERTEX
  5
C0
  8
LAYER_1
 10
21.487
 20
-3.2811
 30
0.0
  0
VERTEX
  5
C1
  8
LAYER_1
 10
27.3288
 20
-1.3108
 30
0.0
  0
VERTEX
  5
C2
  8
LAYER_1
 10
32.2185
 20
1.6028
 30
0.0
  0
VERTEX
  5
C3
  8
LAYER_1
 10
36.107
 20
5.5491
 30
0.0
  0
VERTEX
  5
C4
  8
LAYER_1
 10
38.9454
 20
10.6176
 30
0.0
  0
VERTEX
  5
C5
  8
LAYER_1
 10
40.6844
 20
16.8979
 30
0.0
  0
VERTEX
  5
C6
  8
LAYER_1
 10
41.275
 20
24.4795
 30
0.0
  0
VERTEX
  5
C7
  8
LAYER_1
 10
41.275
 20
25.1893
 30
0.0
  0
VERTEX
  5
C8
  8
LAYER_1
 10
41.3525
 20
25.6693
 30
0.0
  0
VERTEX
  5
C9
  8
LAYER_1
 10
41.5566
 20
26.0649
 30
0.0
  0
VERTEX
  5
CA
  8
LAYER_1
 10
41.8453
 20
26.4014
 30
0.0
  0
VERTEX
  5
CB
  8
LAYER_1
 10
42.1763
 20
26.7038
 30
0.0
  0
VERTEX
  5
CC
  8
LAYER_1
 10
42.5072
 20
26.9973
 30
0.0
  0
VERTEX
  5
CD
  8
LAYER_1
 10
42.7959
 20
27.3069
 30
0.0
  0
VERTEX
  5
CE
  8
LAYER_1
 10
43.0
 20
27.6577
 30
0.0
  0
VERTEX
  5
CF
  8
LAYER_1
 10
43.0775
 20
28.075
 30
0.0
  0
VERTEX
  5
D0
  8
LAYER_1
 10
43.1005
 20
28.6047
 30
0.0
  0
VERTEX
  5
D1
  8
LAYER_1
 10
43.1374
 20
28.9579
 30
0.0
  0
VERTEX
  5
D2
  8
LAYER_1
 10
43.1461
 20
29.1224
 30
0.0
  0
VERTEX
  5
D3
  8
LAYER_1
 10
43.1402
 20
29.3076
 30
0.0
  0
VERTEX
  5
D4
  8
LAYER_1
 10
43.1139
 20
29.5351
 30
0.0
  0
VERTEX
  5
D5
  8
LAYER_1
 10
43.061
 20
29.8267
 30
0.0
  0
VERTEX
  5
D6
  8
LAYER_1
 10
42.9143
 20
30.4409
 30
0.0
  0
VERTEX
  5
D7
  8
LAYER_1
 10
42.8257
 20
30.8524
 30
0.0
  0
VERTEX
  5
D8
  8
LAYER_1
 10
42.816
 20
31.0484
 30
0.0
  0
VERTEX
  5
D9
  8
LAYER_1
 10
42.8361
 20
31.273
 30
0.0
  0
VERTEX
  5
DA
  8
LAYER_1
 10
42.8913
 20
31.5528
 30
0.0
  0
VERTEX
  5
DB
  8
LAYER_1
 10
42.9866
 20
31.9143
 30
0.0
  0
VERTEX
  5
DC
  8
LAYER_1
 10
43.0527
 20
32.158
 30
0.0
  0
VERTEX
  5
DD
  8
LAYER_1
 10
43.094
 20
32.3406
 30
0.0
  0
VERTEX
  5
DE
  8
LAYER_1
 10
43.1156
 20
32.483
 30
0.0
  0
VERTEX
  5
DF
  8
LAYER_1
 10
43.1222
 20
32.606
 30
0.0
  0
VERTEX
  5
E0
  8
LAYER_1
 10
43.1104
 20
32.8771
 30
0.0
  0
VERTEX
  5
E1
  8
LAYER_1
 10
43.0977
 20
33.3206
 30
0.0
  0
VERTEX
  5
E2
  8
LAYER_1
 10
43.0907
 20
33.3903
 30
0.0
  0
VERTEX
  5
E3
  8
LAYER_1
 10
43.0705
 20
33.4552
 30
0.0
  0
VERTEX
  5
E4
  8
LAYER_1
 10
43.0386
 20
33.514
 30
0.0
  0
VERTEX
  5
E5
  8
LAYER_1
 10
42.9964
 20
33.5652
 30
0.0
  0
VERTEX
  5
E6
  8
LAYER_1
 10
42.9452
 20
33.6074
 30
0.0
  0
VERTEX
  5
E7
  8
LAYER_1
 10
42.8864
 20
33.6393
 30
0.0
  0
VERTEX
  5
E8
  8
LAYER_1
 10
42.8215
 20
33.6595
 30
0.0
  0
VERTEX
  5
E9
  8
LAYER_1
 10
42.7518
 20
33.6665
 30
0.0
  0
VERTEX
  5
EA
  8
LAYER_1
 10
41.0465
 20
33.6645
 30
0.0
  0
VERTEX
  5
EB
  8
LAYER_1
 10
40.969
 20
33.6723
 30
0.0
  0
VERTEX
  5
EC
  8
LAYER_1
 10
40.8969
 20
33.6947
 30
0.0
  0
VERTEX
  5
ED
  8
LAYER_1
 10
40.8316
 20
33.7301
 30
0.0
  0
VERTEX
  5
EE
  8
LAYER_1
 10
40.7747
 20
33.7771
 30
0.0
  0
VERTEX
  5
EF
  8
LAYER_1
 10
40.7277
 20
33.834
 30
0.0
  0
VERTEX
  5
F0
  8
LAYER_1
 10
40.6923
 20
33.8993
 30
0.0
  0
VERTEX
  5
F1
  8
LAYER_1
 10
40.6699
 20
33.9714
 30
0.0
  0
VERTEX
  5
F2
  8
LAYER_1
 10
40.6621
 20
34.0489
 30
0.0
  0
VERTEX
  5
F3
  8
LAYER_1
 10
40.6621
 20
43.7885
 30
0.0
  0
VERTEX
  5
F4
  8
LAYER_1
 10
40.6621
 20
50.4619
 30
0.0
  0
VERTEX
  5
F5
  8
LAYER_1
 10
40.6542
 20
50.5402
 30
0.0
  0
VERTEX
  5
F6
  8
LAYER_1
 10
40.6316
 20
50.6132
 30
0.0
  0
VERTEX
  5
F7
  8
LAYER_1
 10
40.5957
 20
50.6792
 30
0.0
  0
VERTEX
  5
F8
  8
LAYER_1
 10
40.5483
 20
50.7367
 30
0.0
  0
VERTEX
  5
F9
  8
LAYER_1
 10
40.4908
 20
50.7841
 30
0.0
  0
VERTEX
  5
FA
  8
LAYER_1
 10
40.4248
 20
50.82
 30
0.0
  0
VERTEX
  5
FB
  8
LAYER_1
 10
40.3518
 20
50.8426
 30
0.0
  0
VERTEX
  5
FC
  8
LAYER_1
 10
40.2735
 20
50.8505
 30
0.0
  0
VERTEX
  5
FD
  8
LAYER_1
 10
40.1441
 20
50.863
 30
0.0
  0
VERTEX
  5
FE
  8
LAYER_1
 10
40.0486
 20
50.8992
 30
0.0
  0
VERTEX
  5
FF
  8
LAYER_1
 10
39.9874
 20
50.9567
 30
0.0
  0
VERTEX
  5
100
  8
LAYER_1
 10
39.961
 20
51.0333
 30
0.0
  0
VERTEX
  5
101
  8
LAYER_1
 10
39.9699
 20
51.1269
 30
0.0
  0
VERTEX
  5
102
  8
LAYER_1
 10
40.0146
 20
51.2351
 30
0.0
  0
VERTEX
  5
103
  8
LAYER_1
 10
40.0955
 20
51.3558
 30
0.0
  0
VERTEX
  5
104
  8
LAYER_1
 10
40.2131
 20
51.4867
 30
0.0
  0
VERTEX
  5
105
  8
LAYER_1
 10
40.6288
 20
52.0403
 30
0.0
  0
VERTEX
  5
106
  8
LAYER_1
 10
40.9063
 20
52.7085
 30
0.0
  0
VERTEX
  5
107
  8
LAYER_1
 10
41.0469
 20
53.4495
 30
0.0
  0
VERTEX
  5
108
  8
LAYER_1
 10
41.052
 20
54.2216
 30
0.0
  0
VERTEX
  5
109
  8
LAYER_1
 10
40.923
 20
54.9827
 30
0.0
  0
VERTEX
  5
10A
  8
LAYER_1
 10
40.6614
 20
55.6912
 30
0.0
  0
VERTEX
  5
10B
  8
LAYER_1
 10
40.2685
 20
56.3051
 30
0.0
  0
VERTEX
  5
10C
  8
LAYER_1
 10
39.7458
 20
56.7827
 30
0.0
  0
VERTEX
  5
10D
  8
LAYER_1
 10
39.3495
 20
57.1541
 30
0.0
  0
VERTEX
  5
10E
  8
LAYER_1
 10
38.9925
 20
57.6702
 30
0.0
  0
VERTEX
  5
10F
  8
LAYER_1
 10
38.6733
 20
58.2751
 30
0.0
  0
VERTEX
  5
110
  8
LAYER_1
 10
38.3904
 20
58.9129
 30
0.0
  0
VERTEX
  5
111
  8
LAYER_1
 10
38.1424
 20
59.5277
 30
0.0
  0
VERTEX
  5
112
  8
LAYER_1
 10
37.9277
 20
60.0635
 30
0.0
  0
VERTEX
  5
113
  8
LAYER_1
 10
37.7451
 20
60.4644
 30
0.0
  0
VERTEX
  5
114
  8
LAYER_1
 10
37.5929
 20
60.6746
 30
0.0
  0
VERTEX
  5
115
  8
LAYER_1
 10
37.4994
 20
60.6981
 30
0.0
  0
VERTEX
  5
116
  8
LAYER_1
 10
37.465
 20
60.5777
 30
0.0
  0
VERTEX
  5
117
  8
LAYER_1
 10
37.4466
 20
60.3159
 30
0.0
  0
VERTEX
  5
118
  8
LAYER_1
 10
37.4013
 20
59.9147
 30
0.0
  0
VERTEX
  5
119
  8
LAYER_1
 10
37.2859
 20
59.3765
 30
0.0
  0
VERTEX
  5
11A
  8
LAYER_1
 10
37.0576
 20
58.7036
 30
0.0
  0
VERTEX
  5
11B
  8
LAYER_1
 10
36.6732
 20
57.8983
 30
0.0
  0
VERTEX
  5
11C
  8
LAYER_1
 10
36.0897
 20
56.9627
 30
0.0
  0
VERTEX
  5
11D
  8
LAYER_1
 10
35.6368
 20
56.1737
 30
0.0
  0
VERTEX
  5
11E
  8
LAYER_1
 10
35.3412
 20
55.3601
 30
0.0
  0
VERTEX
  5
11F
  8
LAYER_1
 10
35.1915
 20
54.5491
 30
0.0
  0
VERTEX
  5
120
  8
LAYER_1
 10
35.1763
 20
53.7684
 30
0.0
  0
VERTEX
  5
121
  8
LAYER_1
 10
35.2844
 20
53.0454
 30
0.0
  0
VERTEX
  5
122
  8
LAYER_1
 10
35.5044
 20
52.4075
 30
0.0
  0
VERTEX
  5
123
  8
LAYER_1
 10
35.8251
 20
51.8823
 30
0.0
  0
VERTEX
  5
124
  8
LAYER_1
 10
36.235
 20
51.4972
 30
0.0
  0
VERTEX
  5
125
  8
LAYER_1
 10
36.3361
 20
51.4081
 30
0.0
  0
VERTEX
  5
126
  8
LAYER_1
 10
36.3944
 20
51.3061
 30
0.0
  0
VERTEX
  5
127
  8
LAYER_1
 10
36.4112
 20
51.1988
 30
0.0
  0
VERTEX
  5
128
  8
LAYER_1
 10
36.3881
 20
51.0938
 30
0.0
  0
VERTEX
  5
129
  8
LAYER_1
 10
36.3266
 20
50.9989
 30
0.0
  0
VERTEX
  5
12A
  8
LAYER_1
 10
36.2282
 20
50.9215
 30
0.0
  0
VERTEX
  5
12B
  8
LAYER_1
 10
36.0943
 20
50.8695
 30
0.0
  0
VERTEX
  5
12C
  8
LAYER_1
 10
35.9265
 20
50.8505
 30
0.0
  0
VERTEX
  5
12D
  8
LAYER_1
 10
35.8482
 20
50.8426
 30
0.0
  0
VERTEX
  5
12E
  8
LAYER_1
 10
35.7752
 20
50.82
 30
0.0
  0
VERTEX
  5
12F
  8
LAYER_1
 10
35.7092
 20
50.7841
 30
0.0
  0
VERTEX
  5
130
  8
LAYER_1
 10
35.6517
 20
50.7367
 30
0.0
  0
VERTEX
  5
131
  8
LAYER_1
 10
35.6043
 20
50.6792
 30
0.0
  0
VERTEX
  5
132
  8
LAYER_1
 10
35.5684
 20
50.6132
 30
0.0
  0
VERTEX
  5
133
  8
LAYER_1
 10
35.5458
 20
50.5402
 30
0.0
  0
VERTEX
  5
134
  8
LAYER_1
 10
35.5379
 20
50.4619
 30
0.0
  0
VERTEX
  5
135
  8
LAYER_1
 10
35.5379
 20
43.7885
 30
0.0
  0
VERTEX
  5
136
  8
LAYER_1
 10
35.5379
 20
34.0489
 30
0.0
  0
VERTEX
  5
137
  8
LAYER_1
 10
35.5301
 20
33.9714
 30
0.0
  0
VERTEX
  5
138
  8
LAYER_1
 10
35.5077
 20
33.8993
 30
0.0
  0
VERTEX
  5
139
  8
LAYER_1
 10
35.4723
 20
33.834
 30
0.0
  0
VERTEX
  5
13A
  8
LAYER_1
 10
35.4253
 20
33.7771
 30
0.0
  0
VERTEX
  5
13B
  8
LAYER_1
 10
35.3684
 20
33.7301
 30
0.0
  0
VERTEX
  5
13C
  8
LAYER_1
 10
35.3031
 20
33.6947
 30
0.0
  0
VERTEX
  5
13D
  8
LAYER_1
 10
35.231
 20
33.6723
 30
0.0
  0
VERTEX
  5
13E
  8
LAYER_1
 10
35.1535
 20
33.6645
 30
0.0
  0
VERTEX
  5
13F
  8
LAYER_1
 10
33.4482
 20
33.6665
 30
0.0
  0
VERTEX
  5
140
  8
LAYER_1
 10
33.3785
 20
33.6595
 30
0.0
  0
VERTEX
  5
141
  8
LAYER_1
 10
33.3136
 20
33.6393
 30
0.0
  0
VERTEX
  5
142
  8
LAYER_1
 10
33.2548
 20
33.6074
 30
0.0
  0
VERTEX
  5
143
  8
LAYER_1
 10
33.2036
 20
33.5652
 30
0.0
  0
VERTEX
  5
144
  8
LAYER_1
 10
33.1614
 20
33.514
 30
0.0
  0
VERTEX
  5
145
  8
LAYER_1
 10
33.1295
 20
33.4552
 30
0.0
  0
VERTEX
  5
146
  8
LAYER_1
 10
33.1093
 20
33.3903
 30
0.0
  0
VERTEX
  5
147
  8
LAYER_1
 10
33.1023
 20
33.3206
 30
0.0
  0
VERTEX
  5
148
  8
LAYER_1
 10
33.0896
 20
32.8771
 30
0.0
  0
VERTEX
  5
149
  8
LAYER_1
 10
33.0778
 20
32.606
 30
0.0
  0
VERTEX
  5
14A
  8
LAYER_1
 10
33.0844
 20
32.483
 30
0.0
  0
VERTEX
  5
14B
  8
LAYER_1
 10
33.106
 20
32.3406
 30
0.0
  0
VERTEX
  5
14C
  8
LAYER_1
 10
33.1473
 20
32.158
 30
0.0
  0
VERTEX
  5
14D
  8
LAYER_1
 10
33.2134
 20
31.9143
 30
0.0
  0
VERTEX
  5
14E
  8
LAYER_1
 10
33.3087
 20
31.5528
 30
0.0
  0
VERTEX
  5
14F
  8
LAYER_1
 10
33.3639
 20
31.273
 30
0.0
  0
VERTEX
  5
150
  8
LAYER_1
 10
33.384
 20
31.0484
 30
0.0
  0
VERTEX
  5
151
  8
LAYER_1
 10
33.3743
 20
30.8524
 30
0.0
  0
VERTEX
  5
152
  8
LAYER_1
 10
33.2857
 20
30.4409
 30
0.0
  0
VERTEX
  5
153
  8
LAYER_1
 10
33.139
 20
29.8267
 30
0.0
  0
VERTEX
  5
154
  8
LAYER_1
 10
33.0861
 20
29.5351
 30
0.0
  0
VERTEX
  5
155
  8
LAYER_1
 10
33.0598
 20
29.3076
 30
0.0
  0
VERTEX
  5
156
  8
LAYER_1
 10
33.0539
 20
29.1224
 30
0.0
  0
VERTEX
  5
157
  8
LAYER_1
 10
33.0626
 20
28.9579
 30
0.0
  0
VERTEX
  5
158
  8
LAYER_1
 10
33.0995
 20
28.6047
 30
0.0
  0
VERTEX
  5
159
  8
LAYER_1
 10
33.1225
 20
28.075
 30
0.0
  0
VERTEX
  5
15A
  8
LAYER_1
 10
33.2
 20
27.6577
 30
0.0
  0
VERTEX
  5
15B
  8
LAYER_1
 10
33.4041
 20
27.3069
 30
0.0
  0
VERTEX
  5
15C
  8
LAYER_1
 10
33.6928
 20
26.9973
 30
0.0
  0
VERTEX
  5
15D
  8
LAYER_1
 10
34.0238
 20
26.7038
 30
0.0
  0
VERTEX
  5
15E
  8
LAYER_1
 10
34.3547
 20
26.4014
 30
0.0
  0
VERTEX
  5
15F
  8
LAYER_1
 10
34.6434
 20
26.0649
 30
0.0
  0
VERTEX
  5
160
  8
LAYER_1
 10
34.8475
 20
25.6693
 30
0.0
  0
VERTEX
  5
161
  8
LAYER_1
 10
34.925
 20
25.1893
 30
0.0
  0
VERTEX
  5
162
  8
LAYER_1
 10
34.925
 20
24.4795
 30
0.0
  0
VERTEX
  5
163
  8
LAYER_1
 10
34.445
 20
18.3093
 30
0.0
  0
VERTEX
  5
164
  8
LAYER_1
 10
33.0314
 20
13.198
 30
0.0
  0
VERTEX
  5
165
  8
LAYER_1
 10
30.7239
 20
9.073
 30
0.0
  0
VERTEX
  5
166
  8
LAYER_1
 10
27.562
 20
5.8614
 30
0.0
  0
VERTEX
  5
167
  8
LAYER_1
 10
23.5853
 20
3.4902
 30
0.0
  0
VERTEX
  5
168
  8
LAYER_1
 10
18.8335
 20
1.8867
 30
0.0
  0
VERTEX
  5
169
  8
LAYER_1
 10
13.3461
 20
0.978
 30
0.0
  0
VERTEX
  5
16A
  8
LAYER_1
 10
7.1628
 20
0.6913
 30
0.0
  0
VERTEX
  5
16B
  8
LAYER_1
 10
6.5673
 20
0.9251
 30
0.0
  0
VERTEX
  5
16C
  8
LAYER_1
 10
6.1419
 20
1.5415
 30
0.0
  0
VERTEX
  5
16D
  8
LAYER_1
 10
5.8866
 20
2.4129
 30
0.0
  0
VERTEX
  5
16E
  8
LAYER_1
 10
5.8016
 20
3.4118
 30
0.0
  0
VERTEX
  5
16F
  8
LAYER_1
 10
5.8867
 20
4.4107
 30
0.0
  0
VERTEX
  5
170
  8
LAYER_1
 10
6.1419
 20
5.2821
 30
0.0
  0
VERTEX
  5
171
  8
LAYER_1
 10
6.5674
 20
5.8985
 30
0.0
  0
VERTEX
  5
172
  8
LAYER_1
 10
7.163
 20
6.1323
 30
0.0
  0
VERTEX
  5
173
  8
LAYER_1
 10
11.932
 20
6.3534
 30
0.0
  0
VERTEX
  5
174
  8
LAYER_1
 10
16.1643
 20
7.0543
 30
0.0
  0
VERTEX
  5
175
  8
LAYER_1
 10
19.8292
 20
8.291
 30
0.0
  0
VERTEX
  5
176
  8
LAYER_1
 10
22.8963
 20
10.1198
 30
0.0
  0
VERTEX
  5
177
  8
LAYER_1
 10
25.335
 20
12.5969
 30
0.0
  0
VERTEX
  5
178
  8
LAYER_1
 10
27.1147
 20
15.7784
 30
0.0
  0
VERTEX
  5
179
  8
LAYER_1
 10
28.205
 20
19.7206
 30
0.0
  0
VERTEX
  5
17A
  8
LAYER_1
 10
28.5752
 20
24.4795
 30
0.0
  0
VERTEX
  5
17B
  8
LAYER_1
 10
28.5752
 20
25.1893
 30
0.0
  0
VERTEX
  5
17C
  8
LAYER_1
 10
28.6527
 20
25.6693
 30
0.0
  0
VERTEX
  5
17D
  8
LAYER_1
 10
28.8568
 20
26.0649
 30
0.0
  0
VERTEX
  5
17E
  8
LAYER_1
 10
29.1455
 20
26.4014
 30
0.0
  0
VERTEX
  5
17F
  8
LAYER_1
 10
29.4765
 20
26.7038
 30
0.0
  0
VERTEX
  5
180
  8
LAYER_1
 10
29.8074
 20
26.9973
 30
0.0
  0
VERTEX
  5
181
  8
LAYER_1
 10
30.0961
 20
27.3069
 30
0.0
  0
VERTEX
  5
182
  8
LAYER_1
 10
30.3002
 20
27.6577
 30
0.0
  0
VERTEX
  5
183
  8
LAYER_1
 10
30.3777
 20
28.075
 30
0.0
  0
VERTEX
  5
184
  8
LAYER_1
 10
30.4007
 20
28.6047
 30
0.0
  0
VERTEX
  5
185
  8
LAYER_1
 10
30.4376
 20
28.9579
 30
0.0
  0
VERTEX
  5
186
  8
LAYER_1
 10
30.4463
 20
29.1224
 30
0.0
  0
VERTEX
  5
187
  8
LAYER_1
 10
30.4404
 20
29.3076
 30
0.0
  0
VERTEX
  5
188
  8
LAYER_1
 10
30.4141
 20
29.5351
 30
0.0
  0
VERTEX
  5
189
  8
LAYER_1
 10
30.3612
 20
29.8267
 30
0.0
  0
VERTEX
  5
18A
  8
LAYER_1
 10
30.2145
 20
30.4409
 30
0.0
  0
VERTEX
  5
18B
  8
LAYER_1
 10
30.1259
 20
30.8524
 30
0.0
  0
VERTEX
  5
18C
  8
LAYER_1
 10
30.1162
 20
31.0484
 30
0.0
  0
VERTEX
  5
18D
  8
LAYER_1
 10
30.1363
 20
31.273
 30
0.0
  0
VERTEX
  5
18E
  8
LAYER_1
 10
30.1915
 20
31.5528
 30
0.0
  0
VERTEX
  5
18F
  8
LAYER_1
 10
30.2868
 20
31.9143
 30
0.0
  0
VERTEX
  5
190
  8
LAYER_1
 10
30.3529
 20
32.158
 30
0.0
  0
VERTEX
  5
191
  8
LAYER_1
 10
30.3942
 20
32.3406
 30
0.0
  0
VERTEX
  5
192
  8
LAYER_1
 10
30.4158
 20
32.483
 30
0.0
  0
VERTEX
  5
193
  8
LAYER_1
 10
30.4224
 20
32.606
 30
0.0
  0
VERTEX
  5
194
  8
LAYER_1
 10
30.4106
 20
32.8771
 30
0.0
  0
VERTEX
  5
195
  8
LAYER_1
 10
30.3979
 20
33.3206
 30
0.0
  0
VERTEX
  5
196
  8
LAYER_1
 10
30.3909
 20
33.3903
 30
0.0
  0
VERTEX
  5
197
  8
LAYER_1
 10
30.3707
 20
33.4552
 30
0.0
  0
VERTEX
  5
198
  8
LAYER_1
 10
30.3388
 20
33.514
 30
0.0
  0
VERTEX
  5
199
  8
LAYER_1
 10
30.2966
 20
33.5652
 30
0.0
  0
VERTEX
  5
19A
  8
LAYER_1
 10
30.2454
 20
33.6074
 30
0.0
  0
VERTEX
  5
19B
  8
LAYER_1
 10
30.1866
 20
33.6393
 30
0.0
  0
VERTEX
  5
19C
  8
LAYER_1
 10
30.1217
 20
33.6595
 30
0.0
  0
VERTEX
  5
19D
  8
LAYER_1
 10
30.052
 20
33.6665
 30
0.0
  0
VERTEX
  5
19E
  8
LAYER_1
 10
28.3467
 20
33.6645
 30
0.0
  0
VERTEX
  5
19F
  8
LAYER_1
 10
28.2692
 20
33.6723
 30
0.0
  0
VERTEX
  5
1A0
  8
LAYER_1
 10
28.1971
 20
33.6947
 30
0.0
  0
VERTEX
  5
1A1
  8
LAYER_1
 10
28.1318
 20
33.7301
 30
0.0
  0
VERTEX
  5
1A2
  8
LAYER_1
 10
28.0749
 20
33.7771
 30
0.0
  0
VERTEX
  5
1A3
  8
LAYER_1
 10
28.0279
 20
33.834
 30
0.0
  0
VERTEX
  5
1A4
  8
LAYER_1
 10
27.9925
 20
33.8993
 30
0.0
  0
VERTEX
  5
1A5
  8
LAYER_1
 10
27.9701
 20
33.9714
 30
0.0
  0
VERTEX
  5
1A6
  8
LAYER_1
 10
27.9623
 20
34.0489
 30
0.0
  0
VERTEX
  5
1A7
  8
LAYER_1
 10
27.9623
 20
43.7885
 30
0.0
  0
VERTEX
  5
1A8
  8
LAYER_1
 10
27.9623
 20
50.7159
 30
0.0
  0
VERTEX
  5
1A9
  8
LAYER_1
 10
27.9544
 20
50.7942
 30
0.0
  0
VERTEX
  5
1AA
  8
LAYER_1
 10
27.9318
 20
50.8672
 30
0.0
  0
VERTEX
  5
1AB
  8
LAYER_1
 10
27.8959
 20
50.9332
 30
0.0
  0
VERTEX
  5
1AC
  8
LAYER_1
 10
27.8485
 20
50.9907
 30
0.0
  0
VERTEX
  5
1AD
  8
LAYER_1
 10
27.791
 20
51.0381
 30
0.0
  0
VERTEX
  5
1AE
  8
LAYER_1
 10
27.725
 20
51.074
 30
0.0
  0
VERTEX
  5
1AF
  8
LAYER_1
 10
27.652
 20
51.0966
 30
0.0
  0
VERTEX
  5
1B0
  8
LAYER_1
 10
27.5737
 20
51.1045
 30
0.0
  0
VERTEX
  5
1B1
  8
LAYER_1
 10
27.4443
 20
51.117
 30
0.0
  0
VERTEX
  5
1B2
  8
LAYER_1
 10
27.3488
 20
51.1532
 30
0.0
  0
VERTEX
  5
1B3
  8
LAYER_1
 10
27.2876
 20
51.2107
 30
0.0
  0
VERTEX
  5
1B4
  8
LAYER_1
 10
27.2612
 20
51.2873
 30
0.0
  0
VERTEX
  5
1B5
  8
LAYER_1
 10
27.2701
 20
51.3809
 30
0.0
  0
VERTEX
  5
1B6
  8
LAYER_1
 10
27.3148
 20
51.4891
 30
0.0
  0
VERTEX
  5
1B7
  8
LAYER_1
 10
27.3957
 20
51.6098
 30
0.0
  0
VERTEX
  5
1B8
  8
LAYER_1
 10
27.5133
 20
51.7407
 30
0.0
  0
VERTEX
  5
1B9
  8
LAYER_1
 10
27.916
 20
52.3147
 30
0.0
  0
VERTEX
  5
1BA
  8
LAYER_1
 10
28.163
 20
53.0362
 30
0.0
  0
VERTEX
  5
1BB
  8
LAYER_1
 10
28.2685
 20
53.8516
 30
0.0
  0
VERTEX
  5
1BC
  8
LAYER_1
 10
28.2471
 20
54.7071
 30
0.0
  0
VERTEX
  5
1BD
  8
LAYER_1
 10
28.113
 20
55.549
 30
0.0
  0
VERTEX
  5
1BE
  8
LAYER_1
 10
27.8806
 20
56.3235
 30
0.0
  0
VERTEX
  5
1BF
  8
LAYER_1
 10
27.5642
 20
56.977
 30
0.0
  0
VERTEX
  5
1C0
  8
LAYER_1
 10
27.1783
 20
57.4557
 30
0.0
  0
VERTEX
  5
1C1
  8
LAYER_1
 10
26.6543
 20
58.0989
 30
0.0
  0
VERTEX
  5
1C2
  8
LAYER_1
 10
26.3831
 20
58.7965
 30
0.0
  0
VERTEX
  5
1C3
  8
LAYER_1
 10
26.3049
 20
59.5056
 30
0.0
  0
VERTEX
  5
1C4
  8
LAYER_1
 10
26.3601
 20
60.1834
 30
0.0
  0
VERTEX
  5
1C5
  8
LAYER_1
 10
26.4892
 20
60.7868
 30
0.0
  0
VERTEX
  5
1C6
  8
LAYER_1
 10
26.6324
 20
61.2731
 30
0.0
  0
VERTEX
  5
1C7
  8
LAYER_1
 10
26.7303
 20
61.5992
 30
0.0
  0
VERTEX
  5
1C8
  8
LAYER_1
 10
26.7232
 20
61.7223
 30
0.0
  0
VERTEX
  5
1C9
  8
LAYER_1
 10
26.5954
 20
61.656
 30
0.0
  0
VERTEX
  5
1CA
  8
LAYER_1
 10
26.3744
 20
61.4462
 30
0.0
  0
VERTEX
  5
1CB
  8
LAYER_1
 10
26.0657
 20
61.099
 30
0.0
  0
VERTEX
  5
1CC
  8
LAYER_1
 10
25.6744
 20
60.62
 30
0.0
  0
VERTEX
  5
1CD
  8
LAYER_1
 10
25.2059
 20
60.0152
 30
0.0
  0
VERTEX
  5
1CE
  8
LAYER_1
 10
24.6654
 20
59.2902
 30
0.0
  0
VERTEX
  5
1CF
  8
LAYER_1
 10
24.0583
 20
58.451
 30
0.0
  0
VERTEX
  5
1D0
  8
LAYER_1
 10
23.3899
 20
57.5034
 30
0.0
  0
VERTEX
  5
1D1
  8
LAYER_1
 10
22.937
 20
56.7021
 30
0.0
  0
VERTEX
  5
1D2
  8
LAYER_1
 10
22.6414
 20
55.856
 30
0.0
  0
VERTEX
  5
1D3
  8
LAYER_1
 10
22.4917
 20
54.9991
 30
0.0
  0
VERTEX
  5
1D4
  8
LAYER_1
 10
22.4765
 20
54.1658
 30
0.0
  0
VERTEX
  5
1D5
  8
LAYER_1
 10
22.5846
 20
53.3901
 30
0.0
  0
VERTEX
  5
1D6
  8
LAYER_1
 10
22.8046
 20
52.7063
 30
0.0
  0
VERTEX
  5
1D7
  8
LAYER_1
 10
23.1253
 20
52.1486
 30
0.0
  0
VERTEX
  5
1D8
  8
LAYER_1
 10
23.5352
 20
51.7512
 30
0.0
  0
VERTEX
  5
1D9
  8
LAYER_1
 10
23.6363
 20
51.6621
 30
0.0
  0
VERTEX
  5
1DA
  8
LAYER_1
 10
23.6946
 20
51.5601
 30
0.0
  0
VERTEX
  5
1DB
  8
LAYER_1
 10
23.7114
 20
51.4528
 30
0.0
  0
VERTEX
  5
1DC
  8
LAYER_1
 10
23.6883
 20
51.3478
 30
0.0
  0
VERTEX
  5
1DD
  8
LAYER_1
 10
23.6268
 20
51.2529
 30
0.0
  0
VERTEX
  5
1DE
  8
LAYER_1
 10
23.5284
 20
51.1755
 30
0.0
  0
VERTEX
  5
1DF
  8
LAYER_1
 10
23.3945
 20
51.1235
 30
0.0
  0
VERTEX
  5
1E0
  8
LAYER_1
 10
23.2267
 20
51.1045
 30
0.0
  0
VERTEX
  5
1E1
  8
LAYER_1
 10
23.1484
 20
51.0966
 30
0.0
  0
VERTEX
  5
1E2
  8
LAYER_1
 10
23.0754
 20
51.074
 30
0.0
  0
VERTEX
  5
1E3
  8
LAYER_1
 10
23.0094
 20
51.0381
 30
0.0
  0
VERTEX
  5
1E4
  8
LAYER_1
 10
22.9519
 20
50.9907
 30
0.0
  0
VERTEX
  5
1E5
  8
LAYER_1
 10
22.9045
 20
50.9332
 30
0.0
  0
VERTEX
  5
1E6
  8
LAYER_1
 10
22.8686
 20
50.8672
 30
0.0
  0
VERTEX
  5
1E7
  8
LAYER_1
 10
22.846
 20
50.7942
 30
0.0
  0
VERTEX
  5
1E8
  8
LAYER_1
 10
22.8381
 20
50.7159
 30
0.0
  0
VERTEX
  5
1E9
  8
LAYER_1
 10
22.8381
 20
43.7885
 30
0.0
  0
VERTEX
  5
1EA
  8
LAYER_1
 10
22.8381
 20
34.0489
 30
0.0
  0
VERTEX
  5
1EB
  8
LAYER_1
 10
22.8303
 20
33.9714
 30
0.0
  0
VERTEX
  5
1EC
  8
LAYER_1
 10
22.8079
 20
33.8993
 30
0.0
  0
VERTEX
  5
1ED
  8
LAYER_1
 10
22.7725
 20
33.834
 30
0.0
  0
VERTEX
  5
1EE
  8
LAYER_1
 10
22.7255
 20
33.7771
 30
0.0
  0
VERTEX
  5
1EF
  8
LAYER_1
 10
22.6686
 20
33.7301
 30
0.0
  0
VERTEX
  5
1F0
  8
LAYER_1
 10
22.6033
 20
33.6947
 30
0.0
  0
VERTEX
  5
1F1
  8
LAYER_1
 10
22.5312
 20
33.6723
 30
0.0
  0
VERTEX
  5
1F2
  8
LAYER_1
 10
22.4537
 20
33.6645
 30
0.0
  0
VERTEX
  5
1F3
  8
LAYER_1
 10
20.7484
 20
33.6665
 30
0.0
  0
VERTEX
  5
1F4
  8
LAYER_1
 10
20.6787
 20
33.6595
 30
0.0
  0
VERTEX
  5
1F5
  8
LAYER_1
 10
20.6138
 20
33.6393
 30
0.0
  0
VERTEX
  5
1F6
  8
LAYER_1
 10
20.555
 20
33.6074
 30
0.0
  0
VERTEX
  5
1F7
  8
LAYER_1
 10
20.5038
 20
33.5652
 30
0.0
  0
VERTEX
  5
1F8
  8
LAYER_1
 10
20.4616
 20
33.514
 30
0.0
  0
VERTEX
  5
1F9
  8
LAYER_1
 10
20.4297
 20
33.4552
 30
0.0
  0
VERTEX
  5
1FA
  8
LAYER_1
 10
20.4095
 20
33.3903
 30
0.0
  0
VERTEX
  5
1FB
  8
LAYER_1
 10
20.4025
 20
33.3206
 30
0.0
  0
VERTEX
  5
1FC
  8
LAYER_1
 10
20.3898
 20
32.8771
 30
0.0
  0
VERTEX
  5
1FD
  8
LAYER_1
 10
20.378
 20
32.606
 30
0.0
  0
VERTEX
  5
1FE
  8
LAYER_1
 10
20.3846
 20
32.483
 30
0.0
  0
VERTEX
  5
1FF
  8
LAYER_1
 10
20.4062
 20
32.3406
 30
0.0
  0
VERTEX
  5
200
  8
LAYER_1
 10
20.4475
 20
32.158
 30
0.0
  0
VERTEX
  5
201
  8
LAYER_1
 10
20.5136
 20
31.9143
 30
0.0
  0
VERTEX
  5
202
  8
LAYER_1
 10
20.6089
 20
31.5528
 30
0.0
  0
VERTEX
  5
203
  8
LAYER_1
 10
20.6641
 20
31.273
 30
0.0
  0
VERTEX
  5
204
  8
LAYER_1
 10
20.6842
 20
31.0484
 30
0.0
  0
VERTEX
  5
205
  8
LAYER_1
 10
20.6745
 20
30.8524
 30
0.0
  0
VERTEX
  5
206
  8
LAYER_1
 10
20.5859
 20
30.4409
 30
0.0
  0
VERTEX
  5
207
  8
LAYER_1
 10
20.4392
 20
29.8267
 30
0.0
  0
VERTEX
  5
208
  8
LAYER_1
 10
20.3863
 20
29.5351
 30
0.0
  0
VERTEX
  5
209
  8
LAYER_1
 10
20.36
 20
29.3076
 30
0.0
  0
VERTEX
  5
20A
  8
LAYER_1
 10
20.3541
 20
29.1224
 30
0.0
  0
VERTEX
  5
20B
  8
LAYER_1
 10
20.3628
 20
28.9579
 30
0.0
  0
VERTEX
  5
20C
  8
LAYER_1
 10
20.3997
 20
28.6047
 30
0.0
  0
VERTEX
  5
20D
  8
LAYER_1
 10
20.4227
 20
28.075
 30
0.0
  0
VERTEX
  5
20E
  8
LAYER_1
 10
20.5002
 20
27.6577
 30
0.0
  0
VERTEX
  5
20F
  8
LAYER_1
 10
20.7043
 20
27.3069
 30
0.0
  0
VERTEX
  5
210
  8
LAYER_1
 10
20.993
 20
26.9973
 30
0.0
  0
VERTEX
  5
211
  8
LAYER_1
 10
21.324
 20
26.7038
 30
0.0
  0
VERTEX
  5
212
  8
LAYER_1
 10
21.6549
 20
26.4014
 30
0.0
  0
VERTEX
  5
213
  8
LAYER_1
 10
21.9436
 20
26.0649
 30
0.0
  0
VERTEX
  5
214
  8
LAYER_1
 10
22.1477
 20
25.6693
 30
0.0
  0
VERTEX
  5
215
  8
LAYER_1
 10
22.2252
 20
25.1893
 30
0.0
  0
VERTEX
  5
216
  8
LAYER_1
 10
22.2252
 20
23.7175
 30
0.0
  0
VERTEX
  5
217
  8
LAYER_1
 10
21.9648
 20
20.3699
 30
0.0
  0
VERTEX
  5
218
  8
LAYER_1
 10
21.1979
 20
17.5968
 30
0.0
  0
VERTEX
  5
219
  8
LAYER_1
 10
19.9459
 20
15.3588
 30
0.0
  0
VERTEX
  5
21A
  8
LAYER_1
 10
18.2304
 20
13.6163
 30
0.0
  0
VERTEX
  5
21B
  8
LAYER_1
 10
16.0729
 20
12.3298
 30
0.0
  0
VERTEX
  5
21C
  8
LAYER_1
 10
13.4948
 20
11.4599
 30
0.0
  0
VERTEX
  5
21D
  8
LAYER_1
 10
10.5177
 20
10.9669
 30
0.0
  0
VERTEX
  5
21E
  8
LAYER_1
 10
7.163
 20
10.8113
 30
0.0
  0
VERTEX
  5
21F
  8
LAYER_1
 10
6.5674
 20
11.0451
 30
0.0
  0
VERTEX
  5
220
  8
LAYER_1
 10
6.142
 20
11.6615
 30
0.0
  0
VERTEX
  5
221
  8
LAYER_1
 10
5.8867
 20
12.5329
 30
0.0
  0
VERTEX
  5
222
  8
LAYER_1
 10
5.8016
 20
13.5318
 30
0.0
  0
VERTEX
  5
223
  8
LAYER_1
 10
5.8867
 20
14.5307
 30
0.0
  0
VERTEX
  5
224
  8
LAYER_1
 10
6.142
 20
15.4021
 30
0.0
  0
VERTEX
  5
225
  8
LAYER_1
 10
6.5674
 20
16.0185
 30
0.0
  0
VERTEX
  5
226
  8
LAYER_1
 10
7.163
 20
16.2523
 30
0.0
  0
VERTEX
  5
227
  8
LAYER_1
 10
9.1034
 20
16.3423
 30
0.0
  0
VERTEX
  5
228
  8
LAYER_1
 10
10.8254
 20
16.6274
 30
0.0
  0
VERTEX
  5
229
  8
LAYER_1
 10
12.3166
 20
17.1307
 30
0.0
  0
VERTEX
  5
22A
  8
LAYER_1
 10
13.5646
 20
17.8748
 30
0.0
  0
VERTEX
  5
22B
  8
LAYER_1
 10
14.5568
 20
18.8827
 30
0.0
  0
VERTEX
  5
22C
  8
LAYER_1
 10
15.281
 20
20.1772
 30
0.0
  0
VERTEX
  5
22D
  8
LAYER_1
 10
15.7246
 20
21.7812
 30
0.0
  0
VERTEX
  5
22E
  8
LAYER_1
 10
15.8752
 20
23.7175
 30
0.0
  0
VERTEX
  5
22F
  8
LAYER_1
 10
15.8752
 20
25.1893
 30
0.0
  0
VERTEX
  5
230
  8
LAYER_1
 10
15.9527
 20
25.6693
 30
0.0
  0
VERTEX
  5
231
  8
LAYER_1
 10
16.1568
 20
26.0649
 30
0.0
  0
VERTEX
  5
232
  8
LAYER_1
 10
16.4455
 20
26.4014
 30
0.0
  0
VERTEX
  5
233
  8
LAYER_1
 10
16.7765
 20
26.7038
 30
0.0
  0
VERTEX
  5
234
  8
LAYER_1
 10
17.1074
 20
26.9973
 30
0.0
  0
VERTEX
  5
235
  8
LAYER_1
 10
17.3961
 20
27.3069
 30
0.0
  0
VERTEX
  5
236
  8
LAYER_1
 10
17.6002
 20
27.6577
 30
0.0
  0
VERTEX
  5
237
  8
LAYER_1
 10
17.6777
 20
28.075
 30
0.0
  0
VERTEX
  5
238
  8
LAYER_1
 10
17.7007
 20
28.6047
 30
0.0
  0
VERTEX
  5
239
  8
LAYER_1
 10
17.7376
 20
28.9579
 30
0.0
  0
VERTEX
  5
23A
  8
LAYER_1
 10
17.7463
 20
29.1224
 30
0.0
  0
VERTEX
  5
23B
  8
LAYER_1
 10
17.7404
 20
29.3076
 30
0.0
  0
VERTEX
  5
23C
  8
LAYER_1
 10
17.7141
 20
29.5351
 30
0.0
  0
VERTEX
  5
23D
  8
LAYER_1
 10
17.6612
 20
29.8267
 30
0.0
  0
VERTEX
  5
23E
  8
LAYER_1
 10
17.5145
 20
30.4409
 30
0.0
  0
VERTEX
  5
23F
  8
LAYER_1
 10
17.4259
 20
30.8524
 30
0.0
  0
VERTEX
  5
240
  8
LAYER_1
 10
17.4162
 20
31.0484
 30
0.0
  0
VERTEX
  5
241
  8
LAYER_1
 10
17.4363
 20
31.273
 30
0.0
  0
VERTEX
  5
242
  8
LAYER_1
 10
17.4915
 20
31.5528
 30
0.0
  0
VERTEX
  5
243
  8
LAYER_1
 10
17.5868
 20
31.9143
 30
0.0
  0
VERTEX
  5
244
  8
LAYER_1
 10
17.6529
 20
32.158
 30
0.0
  0
VERTEX
  5
245
  8
LAYER_1
 10
17.6942
 20
32.3406
 30
0.0
  0
VERTEX
  5
246
  8
LAYER_1
 10
17.7158
 20
32.483
 30
0.0
  0
VERTEX
  5
247
  8
LAYER_1
 10
17.7224
 20
32.606
 30
0.0
  0
VERTEX
  5
248
  8
LAYER_1
 10
17.7106
 20
32.8771
 30
0.0
  0
VERTEX
  5
249
  8
LAYER_1
 10
17.6979
 20
33.3206
 30
0.0
  0
VERTEX
  5
24A
  8
LAYER_1
 10
17.6909
 20
33.3903
 30
0.0
  0
VERTEX
  5
24B
  8
LAYER_1
 10
17.6707
 20
33.4552
 30
0.0
  0
VERTEX
  5
24C
  8
LAYER_1
 10
17.6388
 20
33.514
 30
0.0
  0
VERTEX
  5
24D
  8
LAYER_1
 10
17.5966
 20
33.5652
 30
0.0
  0
VERTEX
  5
24E
  8
LAYER_1
 10
17.5454
 20
33.6074
 30
0.0
  0
VERTEX
  5
24F
  8
LAYER_1
 10
17.4866
 20
33.6393
 30
0.0
  0
VERTEX
  5
250
  8
LAYER_1
 10
17.4217
 20
33.6595
 30
0.0
  0
VERTEX
  5
251
  8
LAYER_1
 10
17.352
 20
33.6665
 30
0.0
  0
VERTEX
  5
252
  8
LAYER_1
 10
15.6467
 20
33.6645
 30
0.0
  0
VERTEX
  5
253
  8
LAYER_1
 10
15.5692
 20
33.6723
 30
0.0
  0
VERTEX
  5
254
  8
LAYER_1
 10
15.4971
 20
33.6947
 30
0.0
  0
VERTEX
  5
255
  8
LAYER_1
 10
15.4318
 20
33.7301
 30
0.0
  0
VERTEX
  5
256
  8
LAYER_1
 10
15.3749
 20
33.7771
 30
0.0
  0
VERTEX
  5
257
  8
LAYER_1
 10
15.3279
 20
33.834
 30
0.0
  0
VERTEX
  5
258
  8
LAYER_1
 10
15.2925
 20
33.8993
 30
0.0
  0
VERTEX
  5
259
  8
LAYER_1
 10
15.2701
 20
33.9714
 30
0.0
  0
VERTEX
  5
25A
  8
LAYER_1
 10
15.2623
 20
34.0489
 30
0.0
  0
VERTEX
  5
25B
  8
LAYER_1
 10
15.2623
 20
43.7885
 30
0.0
  0
VERTEX
  5
25C
  8
LAYER_1
 10
15.2623
 20
49.6999
 30
0.0
  0
VERTEX
  5
25D
  8
LAYER_1
 10
15.2544
 20
49.7782
 30
0.0
  0
VERTEX
  5
25E
  8
LAYER_1
 10
15.2318
 20
49.8512
 30
0.0
  0
VERTEX
  5
25F
  8
LAYER_1
 10
15.1959
 20
49.9172
 30
0.0
  0
VERTEX
  5
260
  8
LAYER_1
 10
15.1485
 20
49.9747
 30
0.0
  0
VERTEX
  5
261
  8
LAYER_1
 10
15.091
 20
50.0221
 30
0.0
  0
VERTEX
  5
262
  8
LAYER_1
 10
15.025
 20
50.058
 30
0.0
  0
VERTEX
  5
263
  8
LAYER_1
 10
14.952
 20
50.0806
 30
0.0
  0
VERTEX
  5
264
  8
LAYER_1
 10
14.8737
 20
50.0885
 30
0.0
  0
VERTEX
  5
265
  8
LAYER_1
 10
14.7405
 20
50.1063
 30
0.0
  0
VERTEX
  5
266
  8
LAYER_1
 10
14.6358
 20
50.1551
 30
0.0
  0
VERTEX
  5
267
  8
LAYER_1
 10
14.5632
 20
50.2282
 30
0.0
  0
VERTEX
  5
268
  8
LAYER_1
 10
14.5266
 20
50.319
 30
0.0
  0
VERTEX
  5
269
  8
LAYER_1
 10
14.5295
 20
50.4208
 30
0.0
  0
VERTEX
  5
26A
  8
LAYER_1
 10
14.5758
 20
50.5268
 30
0.0
  0
VERTEX
  5
26B
  8
LAYER_1
 10
14.6691
 20
50.6303
 30
0.0
  0
VERTEX
  5
26C
  8
LAYER_1
 10
14.8133
 20
50.7247
 30
0.0
  0
VERTEX
  5
26D
  8
LAYER_1
 10
15.2244
 20
51.0957
 30
0.0
  0
VERTEX
  5
26E
  8
LAYER_1
 10
15.4966
 20
51.6739
 30
0.0
  0
VERTEX
  5
26F
  8
LAYER_1
 10
15.6324
 20
52.3974
 30
0.0
  0
VERTEX
  5
270
  8
LAYER_1
 10
15.6341
 20
53.204
 30
0.0
  0
VERTEX
  5
271
  8
LAYER_1
 10
15.504
 20
54.0316
 30
0.0
  0
VERTEX
  5
272
  8
LAYER_1
 10
15.2444
 20
54.8184
 30
0.0
  0
VERTEX
  5
273
  8
LAYER_1
 10
14.8576
 20
55.5021
 30
0.0
  0
VERTEX
  5
274
  8
LAYER_1
 10
14.346
 20
56.0207
 30
0.0
  0
VERTEX
  5
275
  8
LAYER_1
 10
13.8628
 20
56.4888
 30
0.0
  0
VERTEX
  5
276
  8
LAYER_1
 10
13.4556
 20
57.0943
 30
0.0
  0
VERTEX
  5
277
  8
LAYER_1
 10
13.1161
 20
57.7783
 30
0.0
  0
VERTEX
  5
278
  8
LAYER_1
 10
12.8362
 20
58.4817
 30
0.0
  0
VERTEX
  5
279
  8
LAYER_1
 10
12.6077
 20
59.1455
 30
0.0
  0
VERTEX
  5
27A
  8
LAYER_1
 10
12.4225
 20
59.7108
 30
0.0
  0
VERTEX
  5
27B
  8
LAYER_1
 10
12.2723
 20
60.1184
 30
0.0
  0
VERTEX
  5
27C
  8
LAYER_1
 10
12.149
 20
60.3095
 30
0.0
  0
VERTEX
  5
27D
  8
LAYER_1
 10
12.0622
 20
60.2935
 30
0.0
  0
VERTEX
  5
27E
  8
LAYER_1
 10
12.0042
 20
60.1238
 30
0.0
  0
VERTEX
  5
27F
  8
LAYER_1
 10
11.9411
 20
59.8074
 30
0.0
  0
VERTEX
  5
280
  8
LAYER_1
 10
11.8388
 20
59.3512
 30
0.0
  0
VERTEX
  5
281
  8
LAYER_1
 10
11.6635
 20
58.7621
 30
0.0
  0
VERTEX
  5
282
  8
LAYER_1
 10
11.3811
 20
58.0471
 30
0.0
  0
VERTEX
  5
283
  8
LAYER_1
 10
10.9576
 20
57.2131
 30
0.0
  0
VERTEX
  5
284
  8
LAYER_1
 10
10.3591
 20
56.2669
 30
0.0
  0
VERTEX
  5
285
  8
LAYER_1
 10
9.9205
 20
55.4751
 30
0.0
  0
VERTEX
  5
286
  8
LAYER_1
 10
9.6623
 20
54.6539
 30
0.0
  0
VERTEX
  5
287
  8
LAYER_1
 10
9.5655
 20
53.8324
 30
0.0
  0
VERTEX
  5
288
  8
LAYER_1
 10
9.6111
 20
53.0395
 30
0.0
  0
VERTEX
  5
289
  8
LAYER_1
 10
9.78
 20
52.3043
 30
0.0
  0
VERTEX
  5
28A
  8
LAYER_1
 10
10.053
 20
51.6559
 30
0.0
  0
VERTEX
  5
28B
  8
LAYER_1
 10
10.4111
 20
51.1231
 30
0.0
  0
VERTEX
  5
28C
  8
LAYER_1
 10
10.8352
 20
50.7352
 30
0.0
  0
VERTEX
  5
28D
  8
LAYER_1
 10
10.9363
 20
50.6461
 30
0.0
  0
VERTEX
  5
28E
  8
LAYER_1
 10
10.9946
 20
50.5441
 30
0.0
  0
VERTEX
  5
28F
  8
LAYER_1
 10
11.0114
 20
50.4368
 30
0.0
  0
VERTEX
  5
290
  8
LAYER_1
 10
10.9883
 20
50.3318
 30
0.0
  0
VERTEX
  5
291
  8
LAYER_1
 10
10.9268
 20
50.2369
 30
0.0
  0
VERTEX
  5
292
  8
LAYER_1
 10
10.8284
 20
50.1595
 30
0.0
  0
VERTEX
  5
293
  8
LAYER_1
 10
10.6945
 20
50.1075
 30
0.0
  0
VERTEX
  5
294
  8
LAYER_1
 10
10.5267
 20
50.0885
 30
0.0
  0
VERTEX
  5
295
  8
LAYER_1
 10
10.4484
 20
50.0806
 30
0.0
  0
VERTEX
  5
296
  8
LAYER_1
 10
10.3754
 20
50.058
 30
0.0
  0
VERTEX
  5
297
  8
LAYER_1
 10
10.3094
 20
50.0221
 30
0.0
  0
VERTEX
  5
298
  8
LAYER_1
 10
10.2519
 20
49.9747
 30
0.0
  0
VERTEX
  5
299
  8
LAYER_1
 10
10.2045
 20
49.9172
 30
0.0
  0
VERTEX
  5
29A
  8
LAYER_1
 10
10.1686
 20
49.8512
 30
0.0
  0
VERTEX
  5
29B
  8
LAYER_1
 10
10.146
 20
49.7782
 30
0.0
  0
VERTEX
  5
29C
  8
LAYER_1
 10
10.1381
 20
49.6999
 30
0.0
  0
VERTEX
  5
29D
  8
LAYER_1
 10
10.1381
 20
43.7885
 30
0.0
  0
VERTEX
  5
29E
  8
LAYER_1
 10
10.1381
 20
34.0489
 30
0.0
  0
VERTEX
  5
29F
  8
LAYER_1
 10
10.1303
 20
33.9714
 30
0.0
  0
VERTEX
  5
2A0
  8
LAYER_1
 10
10.1079
 20
33.8993
 30
0.0
  0
VERTEX
  5
2A1
  8
LAYER_1
 10
10.0725
 20
33.834
 30
0.0
  0
VERTEX
  5
2A2
  8
LAYER_1
 10
10.0255
 20
33.7771
 30
0.0
  0
VERTEX
  5
2A3
  8
LAYER_1
 10
9.9686
 20
33.7301
 30
0.0
  0
VERTEX
  5
2A4
  8
LAYER_1
 10
9.9033
 20
33.6947
 30
0.0
  0
VERTEX
  5
2A5
  8
LAYER_1
 10
9.8312
 20
33.6723
 30
0.0
  0
VERTEX
  5
2A6
  8
LAYER_1
 10
9.7537
 20
33.6645
 30
0.0
  0
VERTEX
  5
2A7
  8
LAYER_1
 10
8.0484
 20
33.6665
 30
0.0
  0
VERTEX
  5
2A8
  8
LAYER_1
 10
7.9787
 20
33.6595
 30
0.0
  0
VERTEX
  5
2A9
  8
LAYER_1
 10
7.9138
 20
33.6393
 30
0.0
  0
VERTEX
  5
2AA
  8
LAYER_1
 10
7.855
 20
33.6074
 30
0.0
  0
VERTEX
  5
2AB
  8
LAYER_1
 10
7.8038
 20
33.5652
 30
0.0
  0
VERTEX
  5
2AC
  8
LAYER_1
 10
7.7616
 20
33.514
 30
0.0
  0
VERTEX
  5
2AD
  8
LAYER_1
 10
7.7297
 20
33.4552
 30
0.0
  0
VERTEX
  5
2AE
  8
LAYER_1
 10
7.7095
 20
33.3903
 30
0.0
  0
VERTEX
  5
2AF
  8
LAYER_1
 10
7.7025
 20
33.3206
 30
0.0
  0
VERTEX
  5
2B0
  8
LAYER_1
 10
7.6898
 20
32.8771
 30
0.0
  0
VERTEX
  5
2B1
  8
LAYER_1
 10
7.678
 20
32.606
 30
0.0
  0
VERTEX
  5
2B2
  8
LAYER_1
 10
7.6846
 20
32.483
 30
0.0
  0
VERTEX
  5
2B3
  8
LAYER_1
 10
7.7062
 20
32.3406
 30
0.0
  0
VERTEX
  5
2B4
  8
LAYER_1
 10
7.7475
 20
32.158
 30
0.0
  0
VERTEX
  5
2B5
  8
LAYER_1
 10
7.8136
 20
31.9143
 30
0.0
  0
VERTEX
  5
2B6
  8
LAYER_1
 10
7.9089
 20
31.5528
 30
0.0
  0
VERTEX
  5
2B7
  8
LAYER_1
 10
7.9641
 20
31.273
 30
0.0
  0
VERTEX
  5
2B8
  8
LAYER_1
 10
7.9842
 20
31.0484
 30
0.0
  0
VERTEX
  5
2B9
  8
LAYER_1
 10
7.9745
 20
30.8524
 30
0.0
  0
VERTEX
  5
2BA
  8
LAYER_1
 10
7.8859
 20
30.4409
 30
0.0
  0
VERTEX
  5
2BB
  8
LAYER_1
 10
7.7392
 20
29.8267
 30
0.0
  0
VERTEX
  5
2BC
  8
LAYER_1
 10
7.6863
 20
29.5351
 30
0.0
  0
VERTEX
  5
2BD
  8
LAYER_1
 10
7.66
 20
29.3076
 30
0.0
  0
VERTEX
  5
2BE
  8
LAYER_1
 10
7.6541
 20
29.1224
 30
0.0
  0
VERTEX
  5
2BF
  8
LAYER_1
 10
7.6628
 20
28.9579
 30
0.0
  0
VERTEX
  5
2C0
  8
LAYER_1
 10
7.6997
 20
28.6047
 30
0.0
  0
VERTEX
  5
2C1
  8
LAYER_1
 10
7.7227
 20
28.075
 30
0.0
  0
VERTEX
  5
2C2
  8
LAYER_1
 10
7.8002
 20
27.6577
 30
0.0
  0
VERTEX
  5
2C3
  8
LAYER_1
 10
8.0043
 20
27.3069
 30
0.0
  0
VERTEX
  5
2C4
  8
LAYER_1
 10
8.293
 20
26.9973
 30
0.0
  0
VERTEX
  5
2C5
  8
LAYER_1
 10
8.624
 20
26.7038
 30
0.0
  0
VERTEX
  5
2C6
  8
LAYER_1
 10
8.9549
 20
26.4014
 30
0.0
  0
VERTEX
  5
2C7
  8
LAYER_1
 10
9.2436
 20
26.0649
 30
0.0
  0
VERTEX
  5
2C8
  8
LAYER_1
 10
9.4477
 20
25.6693
 30
0.0
  0
VERTEX
  5
2C9
  8
LAYER_1
 10
9.5252
 20
25.1893
 30
0.0
  0
VERTEX
  5
2CA
  8
LAYER_1
 10
9.5252
 20
23.7175
 30
0.0
  0
VERTEX
  5
2CB
  8
LAYER_1
 10
9.4844
 20
23.1925
 30
0.0
  0
VERTEX
  5
2CC
  8
LAYER_1
 10
9.3641
 20
22.7576
 30
0.0
  0
VERTEX
  5
2CD
  8
LAYER_1
 10
9.1677
 20
22.4067
 30
0.0
  0
VERTEX
  5
2CE
  8
LAYER_1
 10
8.8987
 20
22.1334
 30
0.0
  0
VERTEX
  5
2CF
  8
LAYER_1
 10
8.5603
 20
21.9316
 30
0.0
  0
VERTEX
  5
2D0
  8
LAYER_1
 10
8.156
 20
21.7952
 30
0.0
  0
VERTEX
  5
2D1
  8
LAYER_1
 10
7.6891
 20
21.7179
 30
0.0
  0
VERTEX
  5
2D2
  8
LAYER_1
 10
7.163
 20
21.6935
 30
0.0
  0
VERTEX
  5
2D3
  8
LAYER_1
 10
5.1758
 20
21.6935
 30
0.0
  0
VERTEX
  5
2D4
  8
LAYER_1
 10
4.7835
 20
21.7366
 30
0.0
  0
VERTEX
  5
2D5
  8
LAYER_1
 10
4.413
 20
21.8973
 30
0.0
  0
VERTEX
  5
2D6
  8
LAYER_1
 10
4.0738
 20
22.2229
 30
0.0
  0
VERTEX
  5
2D7
  8
LAYER_1
 10
3.7752
 20
22.7608
 30
0.0
  0
VERTEX
  5
2D8
  8
LAYER_1
 10
3.5267
 20
23.5581
 30
0.0
  0
VERTEX
  5
2D9
  8
LAYER_1
 10
3.3376
 20
24.6621
 30
0.0
  0
VERTEX
  5
2DA
  8
LAYER_1
 10
3.2172
 20
26.1202
 30
0.0
  0
VERTEX
  5
2DB
  8
LAYER_1
 10
3.175
 20
27.9795
 30
0.0
  0
VERTEX
  5
2DC
  8
LAYER_1
 10
3.175
 20
29.4513
 30
0.0
  0
VERTEX
  5
2DD
  8
LAYER_1
 10
3.2525
 20
29.9313
 30
0.0
  0
VERTEX
  5
2DE
  8
LAYER_1
 10
3.4566
 20
30.3269
 30
0.0
  0
VERTEX
  5
2DF
  8
LAYER_1
 10
3.7453
 20
30.6634
 30
0.0
  0
VERTEX
  5
2E0
  8
LAYER_1
 10
4.0763
 20
30.9658
 30
0.0
  0
VERTEX
  5
2E1
  8
LAYER_1
 10
4.4072
 20
31.2593
 30
0.0
  0
VERTEX
  5
2E2
  8
LAYER_1
 10
4.6959
 20
31.5689
 30
0.0
  0
VERTEX
  5
2E3
  8
LAYER_1
 10
4.9
 20
31.9197
 30
0.0
  0
VERTEX
  5
2E4
  8
LAYER_1
 10
4.9775
 20
32.337
 30
0.0
  0
VERTEX
  5
2E5
  8
LAYER_1
 10
5.0005
 20
32.8667
 30
0.0
  0
VERTEX
  5
2E6
  8
LAYER_1
 10
5.0374
 20
33.2199
 30
0.0
  0
VERTEX
  5
2E7
  8
LAYER_1
 10
5.0461
 20
33.3844
 30
0.0
  0
VERTEX
  5
2E8
  8
LAYER_1
 10
5.0402
 20
33.5696
 30
0.0
  0
VERTEX
  5
2E9
  8
LAYER_1
 10
5.0139
 20
33.7971
 30
0.0
  0
VERTEX
  5
2EA
  8
LAYER_1
 10
4.961
 20
34.0887
 30
0.0
  0
VERTEX
  5
2EB
  8
LAYER_1
 10
4.8143
 20
34.7029
 30
0.0
  0
VERTEX
  5
2EC
  8
LAYER_1
 10
4.7257
 20
35.1144
 30
0.0
  0
VERTEX
  5
2ED
  8
LAYER_1
 10
4.716
 20
35.3104
 30
0.0
  0
VERTEX
  5
2EE
  8
LAYER_1
 10
4.7361
 20
35.535
 30
0.0
  0
VERTEX
  5
2EF
  8
LAYER_1
 10
4.7913
 20
35.8148
 30
0.0
  0
VERTEX
  5
2F0
  8
LAYER_1
 10
4.8866
 20
36.1763
 30
0.0
  0
VERTEX
  5
2F1
  8
LAYER_1
 10
4.9527
 20
36.42
 30
0.0
  0
VERTEX
  5
2F2
  8
LAYER_1
 10
4.994
 20
36.6026
 30
0.0
  0
VERTEX
  5
2F3
  8
LAYER_1
 10
5.0156
 20
36.745
 30
0.0
  0
VERTEX
  5
2F4
  8
LAYER_1
 10
5.0222
 20
36.868
 30
0.0
  0
VERTEX
  5
2F5
  8
LAYER_1
 10
5.0104
 20
37.1391
 30
0.0
  0
VERTEX
  5
2F6
  8
LAYER_1
 10
4.9977
 20
37.5826
 30
0.0
  0
VERTEX
  5
2F7
  8
LAYER_1
 10
4.9907
 20
37.6523
 30
0.0
  0
VERTEX
  5
2F8
  8
LAYER_1
 10
4.9705
 20
37.7172
 30
0.0
  0
VERTEX
  5
2F9
  8
LAYER_1
 10
4.9386
 20
37.776
 30
0.0
  0
VERTEX
  5
2FA
  8
LAYER_1
 10
4.8964
 20
37.8272
 30
0.0
  0
VERTEX
  5
2FB
  8
LAYER_1
 10
4.8452
 20
37.8694
 30
0.0
  0
VERTEX
  5
2FC
  8
LAYER_1
 10
4.7864
 20
37.9013
 30
0.0
  0
VERTEX
  5
2FD
  8
LAYER_1
 10
4.7215
 20
37.9215
 30
0.0
  0
VERTEX
  5
2FE
  8
LAYER_1
 10
4.6518
 20
37.9285
 30
0.0
  0
VERTEX
  5
2FF
  8
LAYER_1
 10
2.9465
 20
37.9265
 30
0.0
  0
VERTEX
  5
300
  8
LAYER_1
 10
2.869
 20
37.9343
 30
0.0
  0
VERTEX
  5
301
  8
LAYER_1
 10
2.7969
 20
37.9567
 30
0.0
  0
VERTEX
  5
302
  8
LAYER_1
 10
2.7316
 20
37.9921
 30
0.0
  0
VERTEX
  5
303
  8
LAYER_1
 10
2.6747
 20
38.0391
 30
0.0
  0
VERTEX
  5
304
  8
LAYER_1
 10
2.6277
 20
38.096
 30
0.0
  0
VERTEX
  5
305
  8
LAYER_1
 10
2.5923
 20
38.1613
 30
0.0
  0
VERTEX
  5
306
  8
LAYER_1
 10
2.5699
 20
38.2334
 30
0.0
  0
VERTEX
  5
307
  8
LAYER_1
 10
2.5621
 20
38.3109
 30
0.0
  0
VERTEX
  5
308
  8
LAYER_1
 10
2.5621
 20
45.2228
 30
0.0
  0
VERTEX
  5
309
  8
LAYER_1
 10
2.5621
 20
54.7239
 30
0.0
  0
VERTEX
  5
30A
  8
LAYER_1
 10
2.5542
 20
54.8022
 30
0.0
  0
VERTEX
  5
30B
  8
LAYER_1
 10
2.5316
 20
54.8752
 30
0.0
  0
VERTEX
  5
30C
  8
LAYER_1
 10
2.4957
 20
54.9412
 30
0.0
  0
VERTEX
  5
30D
  8
LAYER_1
 10
2.4483
 20
54.9987
 30
0.0
  0
VERTEX
  5
30E
  8
LAYER_1
 10
2.3908
 20
55.0461
 30
0.0
  0
VERTEX
  5
30F
  8
LAYER_1
 10
2.3248
 20
55.082
 30
0.0
  0
VERTEX
  5
310
  8
LAYER_1
 10
2.2518
 20
55.1046
 30
0.0
  0
VERTEX
  5
311
  8
LAYER_1
 10
2.1735
 20
55.1125
 30
0.0
  0
VERTEX
  5
312
  8
LAYER_1
 10
2.0441
 20
55.125
 30
0.0
  0
VERTEX
  5
313
  8
LAYER_1
 10
1.9486
 20
55.1612
 30
0.0
  0
VERTEX
  5
314
  8
LAYER_1
 10
1.8874
 20
55.2187
 30
0.0
  0
VERTEX
  5
315
  8
LAYER_1
 10
1.861
 20
55.2953
 30
0.0
  0
VERTEX
  5
316
  8
LAYER_1
 10
1.8699
 20
55.3889
 30
0.0
  0
VERTEX
  5
317
  8
LAYER_1
 10
1.9146
 20
55.4971
 30
0.0
  0
VERTEX
  5
318
  8
LAYER_1
 10
1.9955
 20
55.6178
 30
0.0
  0
VERTEX
  5
319
  8
LAYER_1
 10
2.1131
 20
55.7487
 30
0.0
  0
VERTEX
  5
31A
  8
LAYER_1
 10
2.5078
 20
56.3176
 30
0.0
  0
VERTEX
  5
31B
  8
LAYER_1
 10
2.7339
 20
57.0246
 30
0.0
  0
VERTEX
  5
31C
  8
LAYER_1
 10
2.8104
 20
57.8173
 30
0.0
  0
VERTEX
  5
31D
  8
LAYER_1
 10
2.7562
 20
58.6434
 30
0.0
  0
VERTEX
  5
31E
  8
LAYER_1
 10
2.5904
 20
59.4504
 30
0.0
  0
VERTEX
  5
31F
  8
LAYER_1
 10
2.3319
 20
60.1858
 30
0.0
  0
VERTEX
  5
320
  8
LAYER_1
 10
1.9997
 20
60.7972
 30
0.0
  0
VERTEX
  5
321
  8
LAYER_1
 10
1.6128
 20
61.2322
 30
0.0
  0
VERTEX
  5
322
  8
LAYER_1
 10
1.2594
 20
61.6366
 30
0.0
  0
VERTEX
  5
323
  8
LAYER_1
 10
0.9604
 20
62.1908
 30
0.0
  0
VERTEX
  5
324
  8
LAYER_1
 10
0.7103
 20
62.8322
 30
0.0
  0
VERTEX
  5
325
  8
LAYER_1
 10
0.5036
 20
63.4982
 30
0.0
  0
VERTEX
  5
326
  8
LAYER_1
 10
0.3346
 20
64.1262
 30
0.0
  0
VERTEX
  5
327
  8
LAYER_1
 10
0.1981
 20
64.6538
 30
0.0
  0
VERTEX
  5
328
  8
LAYER_1
 10
0.0884
 20
65.0183
 30
0.0
  0
VERTEX
  5
329
  8
LAYER_1
 10
0.0
 20
65.1571
 30
0.0
  0
VERTEX
  5
32A
  8
LAYER_1
 10
-0.0682
 20
65.1076
 30
0.0
  0
VERTEX
  5
32B
  8
LAYER_1
 10
-0.1317
 20
64.9459
 30
0.0
  0
VERTEX
  5
32C
  8
LAYER_1
 10
-0.218
 20
64.6674
 30
0.0
  0
VERTEX
  5
32D
  8
LAYER_1
 10
-0.3542
 20
64.2677
 30
0.0
  0
VERTEX
  5
32E
  8
LAYER_1
 10
-0.5677
 20
63.7424
 30
0.0
  0
VERTEX
  5
32F
  8
LAYER_1
 10
-0.8856
 20
63.087
 30
0.0
  0
VERTEX
  5
330
  8
LAYER_1
 10
-1.3354
 20
62.297
 30
0.0
  0
VERTEX
  5
331
  8
LAYER_1
 10
-1.9441
 20
61.3681
 30
0.0
  0
VERTEX
  5
332
  8
LAYER_1
 10
-2.3998
 20
60.573
 30
0.0
  0
VERTEX
  5
333
  8
LAYER_1
 10
-2.7029
 20
59.7431
 30
0.0
  0
VERTEX
  5
334
  8
LAYER_1
 10
-2.8633
 20
58.9091
 30
0.0
  0
VERTEX
  5
335
  8
LAYER_1
 10
-2.8906
 20
58.1021
 30
0.0
  0
VERTEX
  5
336
  8
LAYER_1
 10
-2.7946
 20
57.3527
 30
0.0
  0
VERTEX
  5
337
  8
LAYER_1
 10
-2.5852
 20
56.6919
 30
0.0
  0
VERTEX
  5
338
  8
LAYER_1
 10
-2.2721
 20
56.1505
 30
0.0
  0
VERTEX
  5
339
  8
LAYER_1
 10
-1.865
 20
55.7592
 30
0.0
  0
VERTEX
  5
33A
  8
LAYER_1
 10
-1.7639
 20
55.6701
 30
0.0
  0
VERTEX
  5
33B
  8
LAYER_1
 10
-1.7056
 20
55.5681
 30
0.0
  0
VERTEX
  5
33C
  8
LAYER_1
 10
-1.6888
 20
55.4608
 30
0.0
  0
VERTEX
  5
33D
  8
LAYER_1
 10
-1.7119
 20
55.3558
 30
0.0
  0
VERTEX
  5
33E
  8
LAYER_1
 10
-1.7734
 20
55.2609
 30
0.0
  0
VERTEX
  5
33F
  8
LAYER_1
 10
-1.8718
 20
55.1835
 30
0.0
  0
VERTEX
  5
340
  8
LAYER_1
 10
-2.0057
 20
55.1315
 30
0.0
  0
VERTEX
  5
341
  8
LAYER_1
 10
-2.1735
 20
55.1125
 30
0.0
  0
VERTEX
  5
342
  8
LAYER_1
 10
-2.2518
 20
55.1046
 30
0.0
  0
VERTEX
  5
343
  8
LAYER_1
 10
-2.3248
 20
55.082
 30
0.0
  0
VERTEX
  5
344
  8
LAYER_1
 10
-2.3908
 20
55.0461
 30
0.0
  0
VERTEX
  5
345
  8
LAYER_1
 10
-2.4483
 20
54.9987
 30
0.0
  0
VERTEX
  5
346
  8
LAYER_1
 10
-2.4957
 20
54.9412
 30
0.0
  0
VERTEX
  5
347
  8
LAYER_1
 10
-2.5316
 20
54.8752
 30
0.0
  0
VERTEX
  5
348
  8
LAYER_1
 10
-2.5542
 20
54.8022
 30
0.0
  0
VERTEX
  5
349
  8
LAYER_1
 10
-2.5621
 20
54.7239
 30
0.0
  0
VERTEX
  5
34A
  8
LAYER_1
 10
-2.5621
 20
45.2228
 30
0.0
  0
VERTEX
  5
34B
  8
LAYER_1
 10
-2.5621
 20
38.3109
 30
0.0
  0
VERTEX
  5
34C
  8
LAYER_1
 10
-2.5699
 20
38.2334
 30
0.0
  0
VERTEX
  5
34D
  8
LAYER_1
 10
-2.5923
 20
38.1613
 30
0.0
  0
VERTEX
  5
34E
  8
LAYER_1
 10
-2.6277
 20
38.096
 30
0.0
  0
VERTEX
  5
34F
  8
LAYER_1
 10
-2.6747
 20
38.0391
 30
0.0
  0
VERTEX
  5
350
  8
LAYER_1
 10
-2.7316
 20
37.9921
 30
0.0
  0
VERTEX
  5
351
  8
LAYER_1
 10
-2.7969
 20
37.9567
 30
0.0
  0
VERTEX
  5
352
  8
LAYER_1
 10
-2.869
 20
37.9343
 30
0.0
  0
VERTEX
  5
353
  8
LAYER_1
 10
-2.9465
 20
37.9265
 30
0.0
  0
VERTEX
  5
354
  8
LAYER_1
 10
-4.6518
 20
37.9285
 30
0.0
  0
VERTEX
  5
355
  8
LAYER_1
 10
-4.7215
 20
37.9215
 30
0.0
  0
VERTEX
  5
356
  8
LAYER_1
 10
-4.7864
 20
37.9013
 30
0.0
  0
VERTEX
  5
357
  8
LAYER_1
 10
-4.8452
 20
37.8694
 30
0.0
  0
VERTEX
  5
358
  8
LAYER_1
 10
-4.8964
 20
37.8272
 30
0.0
  0
VERTEX
  5
359
  8
LAYER_1
 10
-4.9386
 20
37.776
 30
0.0
  0
VERTEX
  5
35A
  8
LAYER_1
 10
-4.9705
 20
37.7172
 30
0.0
  0
VERTEX
  5
35B
  8
LAYER_1
 10
-4.9907
 20
37.6523
 30
0.0
  0
VERTEX
  5
35C
  8
LAYER_1
 10
-4.9977
 20
37.5826
 30
0.0
  0
VERTEX
  5
35D
  8
LAYER_1
 10
-5.0104
 20
37.1391
 30
0.0
  0
VERTEX
  5
35E
  8
LAYER_1
 10
-5.0222
 20
36.868
 30
0.0
  0
VERTEX
  5
35F
  8
LAYER_1
 10
-5.0156
 20
36.745
 30
0.0
  0
VERTEX
  5
360
  8
LAYER_1
 10
-4.994
 20
36.6026
 30
0.0
  0
VERTEX
  5
361
  8
LAYER_1
 10
-4.9527
 20
36.42
 30
0.0
  0
VERTEX
  5
362
  8
LAYER_1
 10
-4.8866
 20
36.1763
 30
0.0
  0
VERTEX
  5
363
  8
LAYER_1
 10
-4.7913
 20
35.8148
 30
0.0
  0
VERTEX
  5
364
  8
LAYER_1
 10
-4.7361
 20
35.535
 30
0.0
  0
VERTEX
  5
365
  8
LAYER_1
 10
-4.716
 20
35.3104
 30
0.0
  0
VERTEX
  5
366
  8
LAYER_1
 10
-4.7257
 20
35.1144
 30
0.0
  0
VERTEX
  5
367
  8
LAYER_1
 10
-4.8143
 20
34.7029
 30
0.0
  0
VERTEX
  5
368
  8
LAYER_1
 10
-4.961
 20
34.0887
 30
0.0
  0
VERTEX
  5
369
  8
LAYER_1
 10
-5.0139
 20
33.7971
 30
0.0
  0
VERTEX
  5
36A
  8
LAYER_1
 10
-5.0402
 20
33.5696
 30
0.0
  0
VERTEX
  5
36B
  8
LAYER_1
 10
-5.0461
 20
33.3844
 30
0.0
  0
VERTEX
  5
36C
  8
LAYER_1
 10
-5.0374
 20
33.2199
 30
0.0
  0
VERTEX
  5
36D
  8
LAYER_1
 10
-5.0005
 20
32.8667
 30
0.0
  0
VERTEX
  5
36E
  8
LAYER_1
 10
-4.9775
 20
32.337
 30
0.0
  0
VERTEX
  5
36F
  8
LAYER_1
 10
-4.9
 20
31.9197
 30
0.0
  0
VERTEX
  5
370
  8
LAYER_1
 10
-4.6959
 20
31.5689
 30
0.0
  0
VERTEX
  5
371
  8
LAYER_1
 10
-4.4072
 20
31.2593
 30
0.0
  0
VERTEX
  5
372
  8
LAYER_1
 10
-4.0763
 20
30.9658
 30
0.0
  0
VERTEX
  5
373
  8
LAYER_1
 10
-3.7453
 20
30.6634
 30
0.0
  0
VERTEX
  5
374
  8
LAYER_1
 10
-3.4566
 20
30.3269
 30
0.0
  0
VERTEX
  5
375
  8
LAYER_1
 10
-3.2525
 20
29.9313
 30
0.0
  0
VERTEX
  5
376
  8
LAYER_1
 10
-3.175
 20
29.4513
 30
0.0
  0
VERTEX
  5
377
  8
LAYER_1
 10
-3.175
 20
27.9795
 30
0.0
  0
VERTEX
  5
378
  8
LAYER_1
 10
-3.2172
 20
26.1202
 30
0.0
  0
VERTEX
  5
379
  8
LAYER_1
 10
-3.3376
 20
24.6621
 30
0.0
  0
VERTEX
  5
37A
  8
LAYER_1
 10
-3.5267
 20
23.5581
 30
0.0
  0
VERTEX
  5
37B
  8
LAYER_1
 10
-3.7752
 20
22.7608
 30
0.0
  0
VERTEX
  5
37C
  8
LAYER_1
 10
-4.0738
 20
22.2229
 30
0.0
  0
VERTEX
  5
37D
  8
LAYER_1
 10
-4.413
 20
21.8973
 30
0.0
  0
VERTEX
  5
37E
  8
LAYER_1
 10
-4.7835
 20
21.7366
 30
0.0
  0
VERTEX
  5
37F
  8
LAYER_1
 10
-5.1758
 20
21.6935
 30
0.0
  0
VERTEX
  5
380
  8
LAYER_1
 10
-7.163
 20
21.6935
 30
0.0
  0
VERTEX
  5
381
  8
LAYER_1
 10
-7.9694
 20
21.7563
 30
0.0
  0
VERTEX
  5
382
  8
LAYER_1
 10
-8.3198
 20
21.8406
 30
0.0
  0
VERTEX
  5
383
  8
LAYER_1
 10
-8.6291
 20
21.9645
 30
0.0
  0
VERTEX
  5
384
  8
LAYER_1
 10
-8.8957
 20
22.1311
 30
0.0
  0
VERTEX
  5
385
  8
LAYER_1
 10
-9.1177
 20
22.3437
 30
0.0
  0
VERTEX
  5
386
  8
LAYER_1
 10
-9.2933
 20
22.6055
 30
0.0
  0
VERTEX
  5
387
  8
LAYER_1
 10
-9.421
 20
22.9195
 30
0.0
  0
VERTEX
  5
388
  8
LAYER_1
 10
-9.4989
 20
23.2892
 30
0.0
  0
VERTEX
  5
389
  8
LAYER_1
 10
-9.5252
 20
23.7175
 30
0.0
  0
VERTEX
  5
38A
  8
LAYER_1
 10
-9.5252
 20
25.1893
 30
0.0
  0
VERTEX
  5
38B
  8
LAYER_1
 10
-9.4477
 20
25.6693
 30
0.0
  0
VERTEX
  5
38C
  8
LAYER_1
 10
-9.2436
 20
26.0649
 30
0.0
  0
VERTEX
  5
38D
  8
LAYER_1
 10
-8.9549
 20
26.4014
 30
0.0
  0
VERTEX
  5
38E
  8
LAYER_1
 10
-8.624
 20
26.7038
 30
0.0
  0
VERTEX
  5
38F
  8
LAYER_1
 10
-8.293
 20
26.9973
 30
0.0
  0
VERTEX
  5
390
  8
LAYER_1
 10
-8.0043
 20
27.3069
 30
0.0
  0
VERTEX
  5
391
  8
LAYER_1
 10
-7.8002
 20
27.6577
 30
0.0
  0
VERTEX
  5
392
  8
LAYER_1
 10
-7.7227
 20
28.075
 30
0.0
  0
VERTEX
  5
393
  8
LAYER_1
 10
-7.6997
 20
28.6047
 30
0.0
  0
VERTEX
  5
394
  8
LAYER_1
 10
-7.6628
 20
28.9579
 30
0.0
  0
VERTEX
  5
395
  8
LAYER_1
 10
-7.6541
 20
29.1224
 30
0.0
  0
VERTEX
  5
396
  8
LAYER_1
 10
-7.66
 20
29.3076
 30
0.0
  0
VERTEX
  5
397
  8
LAYER_1
 10
-7.6863
 20
29.5351
 30
0.0
  0
VERTEX
  5
398
  8
LAYER_1
 10
-7.7392
 20
29.8267
 30
0.0
  0
VERTEX
  5
399
  8
LAYER_1
 10
-7.8859
 20
30.4409
 30
0.0
  0
VERTEX
  5
39A
  8
LAYER_1
 10
-7.9745
 20
30.8524
 30
0.0
  0
VERTEX
  5
39B
  8
LAYER_1
 10
-7.9842
 20
31.0484
 30
0.0
  0
VERTEX
  5
39C
  8
LAYER_1
 10
-7.9641
 20
31.273
 30
0.0
  0
VERTEX
  5
39D
  8
LAYER_1
 10
-7.9089
 20
31.5528
 30
0.0
  0
VERTEX
  5
39E
  8
LAYER_1
 10
-7.8136
 20
31.9143
 30
0.0
  0
VERTEX
  5
39F
  8
LAYER_1
 10
-7.7475
 20
32.158
 30
0.0
  0
VERTEX
  5
3A0
  8
LAYER_1
 10
-7.7062
 20
32.3406
 30
0.0
  0
VERTEX
  5
3A1
  8
LAYER_1
 10
-7.6846
 20
32.483
 30
0.0
  0
VERTEX
  5
3A2
  8
LAYER_1
 10
-7.678
 20
32.606
 30
0.0
  0
VERTEX
  5
3A3
  8
LAYER_1
 10
-7.6898
 20
32.8771
 30
0.0
  0
VERTEX
  5
3A4
  8
LAYER_1
 10
-7.7025
 20
33.3206
 30
0.0
  0
VERTEX
  5
3A5
  8
LAYER_1
 10
-7.7095
 20
33.3903
 30
0.0
  0
VERTEX
  5
3A6
  8
LAYER_1
 10
-7.7297
 20
33.4552
 30
0.0
  0
VERTEX
  5
3A7
  8
LAYER_1
 10
-7.7616
 20
33.514
 30
0.0
  0
VERTEX
  5
3A8
  8
LAYER_1
 10
-7.8038
 20
33.5652
 30
0.0
  0
VERTEX
  5
3A9
  8
LAYER_1
 10
-7.855
 20
33.6074
 30
0.0
  0
VERTEX
  5
3AA
  8
LAYER_1
 10
-7.9138
 20
33.6393
 30
0.0
  0
VERTEX
  5
3AB
  8
LAYER_1
 10
-7.9787
 20
33.6595
 30
0.0
  0
VERTEX
  5
3AC
  8
LAYER_1
 10
-8.0484
 20
33.6665
 30
0.0
  0
VERTEX
  5
3AD
  8
LAYER_1
 10
-8.8791
 20
33.6655
 30
0.0
  0
VERTEX
  5
3AE
  8
LAYER_1
 10
-9.7537
 20
33.6645
 30
0.0
  0
VERTEX
  5
3AF
  8
LAYER_1
 10
-9.8312
 20
33.6723
 30
0.0
  0
VERTEX
  5
3B0
  8
LAYER_1
 10
-9.9033
 20
33.6947
 30
0.0
  0
VERTEX
  5
3B1
  8
LAYER_1
 10
-9.9686
 20
33.7301
 30
0.0
  0
VERTEX
  5
3B2
  8
LAYER_1
 10
-10.0255
 20
33.7771
 30
0.0
  0
VERTEX
  5
3B3
  8
LAYER_1
 10
-10.0725
 20
33.834
 30
0.0
  0
VERTEX
  5
3B4
  8
LAYER_1
 10
-10.1079
 20
33.8993
 30
0.0
  0
VERTEX
  5
3B5
  8
LAYER_1
 10
-10.1303
 20
33.9714
 30
0.0
  0
VERTEX
  5
3B6
  8
LAYER_1
 10
-10.1381
 20
34.0489
 30
0.0
  0
VERTEX
  5
3B7
  8
LAYER_1
 10
-10.1381
 20
36.2103
 30
0.0
  0
VERTEX
  5
3B8
  8
LAYER_1
 10
-10.1381
 20
41.7299
 30
0.0
  0
VERTEX
  5
3B9
  8
LAYER_1
 10
-10.1381
 20
43.7885
 30
0.0
  0
VERTEX
  5
3BA
  8
LAYER_1
 10
-10.1381
 20
50.4619
 30
0.0
  0
VERTEX
  5
3BB
  8
LAYER_1
 10
-10.146
 20
50.5402
 30
0.0
  0
VERTEX
  5
3BC
  8
LAYER_1
 10
-10.1686
 20
50.6132
 30
0.0
  0
VERTEX
  5
3BD
  8
LAYER_1
 10
-10.2045
 20
50.6792
 30
0.0
  0
VERTEX
  5
3BE
  8
LAYER_1
 10
-10.2519
 20
50.7367
 30
0.0
  0
VERTEX
  5
3BF
  8
LAYER_1
 10
-10.3094
 20
50.7841
 30
0.0
  0
VERTEX
  5
3C0
  8
LAYER_1
 10
-10.3754
 20
50.82
 30
0.0
  0
VERTEX
  5
3C1
  8
LAYER_1
 10
-10.4484
 20
50.8426
 30
0.0
  0
VERTEX
  5
3C2
  8
LAYER_1
 10
-10.5267
 20
50.8505
 30
0.0
  0
VERTEX
  5
3C3
  8
LAYER_1
 10
-10.6563
 20
50.8684
 30
0.0
  0
VERTEX
  5
3C4
  8
LAYER_1
 10
-10.7524
 20
50.9188
 30
0.0
  0
VERTEX
  5
3C5
  8
LAYER_1
 10
-10.8145
 20
50.9965
 30
0.0
  0
VERTEX
  5
3C6
  8
LAYER_1
 10
-10.8419
 20
51.0962
 30
0.0
  0
VERTEX
  5
3C7
  8
LAYER_1
 10
-10.834
 20
51.2129
 30
0.0
  0
VERTEX
  5
3C8
  8
LAYER_1
 10
-10.7902
 20
51.3413
 30
0.0
  0
VERTEX
  5
3C9
  8
LAYER_1
 10
-10.7099
 20
51.4762
 30
0.0
  0
VERTEX
  5
3CA
  8
LAYER_1
 10
-10.5926
 20
51.6125
 30
0.0
  0
VERTEX
  5
3CB
  8
LAYER_1
 10
-10.1753
 20
52.1392
 30
0.0
  0
VERTEX
  5
3CC
  8
LAYER_1
 10
-9.8933
 20
52.7373
 30
0.0
  0
VERTEX
  5
3CD
  8
LAYER_1
 10
-9.7451
 20
53.3807
 30
0.0
  0
VERTEX
  5
3CE
  8
LAYER_1
 10
-9.7296
 20
54.0433
 30
0.0
  0
VERTEX
  5
3CF
  8
LAYER_1
 10
-9.8452
 20
54.699
 30
0.0
  0
VERTEX
  5
3D0
  8
LAYER_1
 10
-10.0908
 20
55.3217
 30
0.0
  0
VERTEX
  5
3D1
  8
LAYER_1
 10
-10.4649
 20
55.8854
 30
0.0
  0
VERTEX
  5
3D2
  8
LAYER_1
 10
-10.9662
 20
56.3638
 30
0.0
  0
VERTEX
  5
3D3
  8
LAYER_1
 10
-11.4391
 20
56.8003
 30
0.0
  0
VERTEX
  5
3D4
  8
LAYER_1
 10
-11.8783
 20
57.3378
 30
0.0
  0
VERTEX
  5
3D5
  8
LAYER_1
 10
-12.2864
 20
57.9326
 30
0.0
  0
VERTEX
  5
3D6
  8
LAYER_1
 10
-12.6661
 20
58.5409
 30
0.0
  0
VERTEX
  5
3D7
  8
LAYER_1
 10
-13.0203
 20
59.1189
 30
0.0
  0
VERTEX
  5
3D8
  8
LAYER_1
 10
-13.3517
 20
59.6229
 30
0.0
  0
VERTEX
  5
3D9
  8
LAYER_1
 10
-13.663
 20
60.0091
 30
0.0
  0
VERTEX
  5
3DA
  8
LAYER_1
 10
-13.957
 20
60.2337
 30
0.0
  0
VERTEX
  5
3DB
  8
LAYER_1
 10
-14.1446
 20
60.2702
 30
0.0
  0
VERTEX
  5
3DC
  8
LAYER_1
 10
-14.18
 20
60.1293
 30
0.0
  0
VERTEX
  5
3DD
  8
LAYER_1
 10
-14.1312
 20
59.823
 30
0.0
  0
VERTEX
  5
3DE
  8
LAYER_1
 10
-14.066
 20
59.3635
 30
0.0
  0
VERTEX
  5
3DF
  8
LAYER_1
 10
-14.0521
 20
58.7629
 30
0.0
  0
VERTEX
  5
3E0
  8
LAYER_1
 10
-14.1575
 20
58.0332
 30
0.0
  0
VERTEX
  5
3E1
  8
LAYER_1
 10
-14.4499
 20
57.1866
 30
0.0
  0
VERTEX
  5
3E2
  8
LAYER_1
 10
-14.9972
 20
56.2351
 30
0.0
  0
VERTEX
  5
3E3
  8
LAYER_1
 10
-15.4377
 20
55.4774
 30
0.0
  0
VERTEX
  5
3E4
  8
LAYER_1
 10
-15.7009
 20
54.7461
 30
0.0
  0
VERTEX
  5
3E5
  8
LAYER_1
 10
-15.8047
 20
54.0517
 30
0.0
  0
VERTEX
  5
3E6
  8
LAYER_1
 10
-15.7672
 20
53.4046
 30
0.0
  0
VERTEX
  5
3E7
  8
LAYER_1
 10
-15.6065
 20
52.8152
 30
0.0
  0
VERTEX
  5
3E8
  8
LAYER_1
 10
-15.3406
 20
52.2938
 30
0.0
  0
VERTEX
  5
3E9
  8
LAYER_1
 10
-14.9874
 20
51.851
 30
0.0
  0
VERTEX
  5
3EA
  8
LAYER_1
 10
-14.5652
 20
51.4972
 30
0.0
  0
VERTEX
  5
3EB
  8
LAYER_1
 10
-14.4641
 20
51.4081
 30
0.0
  0
VERTEX
  5
3EC
  8
LAYER_1
 10
-14.4058
 20
51.3061
 30
0.0
  0
VERTEX
  5
3ED
  8
LAYER_1
 10
-14.389
 20
51.1988
 30
0.0
  0
VERTEX
  5
3EE
  8
LAYER_1
 10
-14.4121
 20
51.0938
 30
0.0
  0
VERTEX
  5
3EF
  8
LAYER_1
 10
-14.4736
 20
50.9989
 30
0.0
  0
VERTEX
  5
3F0
  8
LAYER_1
 10
-14.572
 20
50.9215
 30
0.0
  0
VERTEX
  5
3F1
  8
LAYER_1
 10
-14.7059
 20
50.8695
 30
0.0
  0
VERTEX
  5
3F2
  8
LAYER_1
 10
-14.8737
 20
50.8505
 30
0.0
  0
VERTEX
  5
3F3
  8
LAYER_1
 10
-14.952
 20
50.8426
 30
0.0
  0
VERTEX
  5
3F4
  8
LAYER_1
 10
-15.025
 20
50.82
 30
0.0
  0
VERTEX
  5
3F5
  8
LAYER_1
 10
-15.091
 20
50.7841
 30
0.0
  0
VERTEX
  5
3F6
  8
LAYER_1
 10
-15.1485
 20
50.7367
 30
0.0
  0
VERTEX
  5
3F7
  8
LAYER_1
 10
-15.1959
 20
50.6792
 30
0.0
  0
VERTEX
  5
3F8
  8
LAYER_1
 10
-15.2318
 20
50.6132
 30
0.0
  0
VERTEX
  5
3F9
  8
LAYER_1
 10
-15.2544
 20
50.5402
 30
0.0
  0
VERTEX
  5
3FA
  8
LAYER_1
 10
-15.2623
 20
50.4619
 30
0.0
  0
VERTEX
  5
3FB
  8
LAYER_1
 10
-15.2623
 20
43.7885
 30
0.0
  0
VERTEX
  5
3FC
  8
LAYER_1
 10
-15.2623
 20
34.0489
 30
0.0
  0
VERTEX
  5
3FD
  8
LAYER_1
 10
-15.2701
 20
33.9714
 30
0.0
  0
VERTEX
  5
3FE
  8
LAYER_1
 10
-15.2925
 20
33.8993
 30
0.0
  0
VERTEX
  5
3FF
  8
LAYER_1
 10
-15.3279
 20
33.834
 30
0.0
  0
VERTEX
  5
400
  8
LAYER_1
 10
-15.3749
 20
33.7771
 30
0.0
  0
VERTEX
  5
401
  8
LAYER_1
 10
-15.4318
 20
33.7301
 30
0.0
  0
VERTEX
  5
402
  8
LAYER_1
 10
-15.4971
 20
33.6947
 30
0.0
  0
VERTEX
  5
403
  8
LAYER_1
 10
-15.5692
 20
33.6723
 30
0.0
  0
VERTEX
  5
404
  8
LAYER_1
 10
-15.6467
 20
33.6645
 30
0.0
  0
VERTEX
  5
405
  8
LAYER_1
 10
-17.352
 20
33.6665
 30
0.0
  0
VERTEX
  5
406
  8
LAYER_1
 10
-17.4217
 20
33.6595
 30
0.0
  0
VERTEX
  5
407
  8
LAYER_1
 10
-17.4866
 20
33.6393
 30
0.0
  0
VERTEX
  5
408
  8
LAYER_1
 10
-17.5454
 20
33.6074
 30
0.0
  0
VERTEX
  5
409
  8
LAYER_1
 10
-17.5966
 20
33.5652
 30
0.0
  0
VERTEX
  5
40A
  8
LAYER_1
 10
-17.6388
 20
33.514
 30
0.0
  0
VERTEX
  5
40B
  8
LAYER_1
 10
-17.6707
 20
33.4552
 30
0.0
  0
VERTEX
  5
40C
  8
LAYER_1
 10
-17.6909
 20
33.3903
 30
0.0
  0
VERTEX
  5
40D
  8
LAYER_1
 10
-17.6979
 20
33.3206
 30
0.0
  0
VERTEX
  5
40E
  8
LAYER_1
 10
-17.7106
 20
32.8771
 30
0.0
  0
VERTEX
  5
40F
  8
LAYER_1
 10
-17.7224
 20
32.606
 30
0.0
  0
VERTEX
  5
410
  8
LAYER_1
 10
-17.7158
 20
32.483
 30
0.0
  0
VERTEX
  5
411
  8
LAYER_1
 10
-17.6942
 20
32.3406
 30
0.0
  0
VERTEX
  5
412
  8
LAYER_1
 10
-17.6529
 20
32.158
 30
0.0
  0
VERTEX
  5
413
  8
LAYER_1
 10
-17.5868
 20
31.9143
 30
0.0
  0
VERTEX
  5
414
  8
LAYER_1
 10
-17.4915
 20
31.5528
 30
0.0
  0
VERTEX
  5
415
  8
LAYER_1
 10
-17.4363
 20
31.273
 30
0.0
  0
VERTEX
  5
416
  8
LAYER_1
 10
-17.4162
 20
31.0484
 30
0.0
  0
VERTEX
  5
417
  8
LAYER_1
 10
-17.4259
 20
30.8524
 30
0.0
  0
VERTEX
  5
418
  8
LAYER_1
 10
-17.5145
 20
30.4409
 30
0.0
  0
VERTEX
  5
419
  8
LAYER_1
 10
-17.6612
 20
29.8267
 30
0.0
  0
VERTEX
  5
41A
  8
LAYER_1
 10
-17.7141
 20
29.5351
 30
0.0
  0
VERTEX
  5
41B
  8
LAYER_1
 10
-17.7404
 20
29.3076
 30
0.0
  0
VERTEX
  5
41C
  8
LAYER_1
 10
-17.7463
 20
29.1224
 30
0.0
  0
VERTEX
  5
41D
  8
LAYER_1
 10
-17.7376
 20
28.9579
 30
0.0
  0
VERTEX
  5
41E
  8
LAYER_1
 10
-17.7007
 20
28.6047
 30
0.0
  0
VERTEX
  5
41F
  8
LAYER_1
 10
-17.6777
 20
28.075
 30
0.0
  0
VERTEX
  5
420
  8
LAYER_1
 10
-17.6002
 20
27.6577
 30
0.0
  0
VERTEX
  5
421
  8
LAYER_1
 10
-17.3961
 20
27.3069
 30
0.0
  0
VERTEX
  5
422
  8
LAYER_1
 10
-17.1074
 20
26.9973
 30
0.0
  0
VERTEX
  5
423
  8
LAYER_1
 10
-16.7765
 20
26.7038
 30
0.0
  0
VERTEX
  5
424
  8
LAYER_1
 10
-16.4455
 20
26.4014
 30
0.0
  0
VERTEX
  5
425
  8
LAYER_1
 10
-16.1568
 20
26.0649
 30
0.0
  0
VERTEX
  5
426
  8
LAYER_1
 10
-15.9527
 20
25.6693
 30
0.0
  0
VERTEX
  5
427
  8
LAYER_1
 10
-15.8752
 20
25.1893
 30
0.0
  0
VERTEX
  5
428
  8
LAYER_1
 10
-15.8752
 20
23.7175
 30
0.0
  0
VERTEX
  5
429
  8
LAYER_1
 10
-15.7246
 20
21.7812
 30
0.0
  0
VERTEX
  5
42A
  8
LAYER_1
 10
-15.281
 20
20.1772
 30
0.0
  0
VERTEX
  5
42B
  8
LAYER_1
 10
-14.5568
 20
18.8827
 30
0.0
  0
VERTEX
  5
42C
  8
LAYER_1
 10
-13.5646
 20
17.8748
 30
0.0
  0
VERTEX
  5
42D
  8
LAYER_1
 10
-12.3166
 20
17.1307
 30
0.0
  0
VERTEX
  5
42E
  8
LAYER_1
 10
-10.8254
 20
16.6274
 30
0.0
  0
VERTEX
  5
42F
  8
LAYER_1
 10
-9.1034
 20
16.3423
 30
0.0
  0
VERTEX
  5
430
  8
LAYER_1
 10
-7.163
 20
16.2523
 30
0.0
  0
VERTEX
  5
431
  8
LAYER_1
 10
-6.5674
 20
16.0185
 30
0.0
  0
VERTEX
  5
432
  8
LAYER_1
 10
-6.142
 20
15.4021
 30
0.0
  0
VERTEX
  5
433
  8
LAYER_1
 10
-5.8867
 20
14.5307
 30
0.0
  0
VERTEX
  5
434
  8
LAYER_1
 10
-5.8016
 20
13.5318
 30
0.0
  0
VERTEX
  5
435
  8
LAYER_1
 10
-5.8867
 20
12.5329
 30
0.0
  0
VERTEX
  5
436
  8
LAYER_1
 10
-6.142
 20
11.6615
 30
0.0
  0
VERTEX
  5
437
  8
LAYER_1
 10
-6.5674
 20
11.0451
 30
0.0
  0
VERTEX
  5
438
  8
LAYER_1
 10
-7.163
 20
10.8113
 30
0.0
  0
VERTEX
  5
439
  8
LAYER_1
 10
-10.5177
 20
10.9669
 30
0.0
  0
VERTEX
  5
43A
  8
LAYER_1
 10
-13.4948
 20
11.4599
 30
0.0
  0
VERTEX
  5
43B
  8
LAYER_1
 10
-16.0729
 20
12.3298
 30
0.0
  0
VERTEX
  5
43C
  8
LAYER_1
 10
-18.2304
 20
13.6163
 30
0.0
  0
VERTEX
  5
43D
  8
LAYER_1
 10
-19.9459
 20
15.3588
 30
0.0
  0
VERTEX
  5
43E
  8
LAYER_1
 10
-21.1979
 20
17.5968
 30
0.0
  0
VERTEX
  5
43F
  8
LAYER_1
 10
-21.9648
 20
20.3699
 30
0.0
  0
VERTEX
  5
440
  8
LAYER_1
 10
-22.2252
 20
23.7175
 30
0.0
  0
VERTEX
  5
441
  8
LAYER_1
 10
-22.2252
 20
25.1893
 30
0.0
  0
VERTEX
  5
442
  8
LAYER_1
 10
-22.1477
 20
25.6693
 30
0.0
  0
VERTEX
  5
443
  8
LAYER_1
 10
-21.9436
 20
26.0649
 30
0.0
  0
VERTEX
  5
444
  8
LAYER_1
 10
-21.6549
 20
26.4014
 30
0.0
  0
VERTEX
  5
445
  8
LAYER_1
 10
-21.324
 20
26.7038
 30
0.0
  0
VERTEX
  5
446
  8
LAYER_1
 10
-20.993
 20
26.9973
 30
0.0
  0
VERTEX
  5
447
  8
LAYER_1
 10
-20.7043
 20
27.3069
 30
0.0
  0
VERTEX
  5
448
  8
LAYER_1
 10
-20.5002
 20
27.6577
 30
0.0
  0
VERTEX
  5
449
  8
LAYER_1
 10
-20.4227
 20
28.075
 30
0.0
  0
VERTEX
  5
44A
  8
LAYER_1
 10
-20.3997
 20
28.6047
 30
0.0
  0
VERTEX
  5
44B
  8
LAYER_1
 10
-20.3628
 20
28.9579
 30
0.0
  0
VERTEX
  5
44C
  8
LAYER_1
 10
-20.3541
 20
29.1224
 30
0.0
  0
VERTEX
  5
44D
  8
LAYER_1
 10
-20.36
 20
29.3076
 30
0.0
  0
VERTEX
  5
44E
  8
LAYER_1
 10
-20.3863
 20
29.5351
 30
0.0
  0
VERTEX
  5
44F
  8
LAYER_1
 10
-20.4392
 20
29.8267
 30
0.0
  0
VERTEX
  5
450
  8
LAYER_1
 10
-20.5859
 20
30.4409
 30
0.0
  0
VERTEX
  5
451
  8
LAYER_1
 10
-20.6745
 20
30.8524
 30
0.0
  0
VERTEX
  5
452
  8
LAYER_1
 10
-20.6842
 20
31.0484
 30
0.0
  0
VERTEX
  5
453
  8
LAYER_1
 10
-20.6641
 20
31.273
 30
0.0
  0
VERTEX
  5
454
  8
LAYER_1
 10
-20.6089
 20
31.5528
 30
0.0
  0
VERTEX
  5
455
  8
LAYER_1
 10
-20.5136
 20
31.9143
 30
0.0
  0
VERTEX
  5
456
  8
LAYER_1
 10
-20.4475
 20
32.158
 30
0.0
  0
VERTEX
  5
457
  8
LAYER_1
 10
-20.4062
 20
32.3406
 30
0.0
  0
VERTEX
  5
458
  8
LAYER_1
 10
-20.3846
 20
32.483
 30
0.0
  0
VERTEX
  5
459
  8
LAYER_1
 10
-20.378
 20
32.606
 30
0.0
  0
VERTEX
  5
45A
  8
LAYER_1
 10
-20.3898
 20
32.8771
 30
0.0
  0
VERTEX
  5
45B
  8
LAYER_1
 10
-20.4025
 20
33.3206
 30
0.0
  0
VERTEX
  5
45C
  8
LAYER_1
 10
-20.4095
 20
33.3903
 30
0.0
  0
VERTEX
  5
45D
  8
LAYER_1
 10
-20.4297
 20
33.4552
 30
0.0
  0
VERTEX
  5
45E
  8
LAYER_1
 10
-20.4616
 20
33.514
 30
0.0
  0
VERTEX
  5
45F
  8
LAYER_1
 10
-20.5038
 20
33.5652
 30
0.0
  0
VERTEX
  5
460
  8
LAYER_1
 10
-20.555
 20
33.6074
 30
0.0
  0
VERTEX
  5
461
  8
LAYER_1
 10
-20.6138
 20
33.6393
 30
0.0
  0
VERTEX
  5
462
  8
LAYER_1
 10
-20.6787
 20
33.6595
 30
0.0
  0
VERTEX
  5
463
  8
LAYER_1
 10
-20.7484
 20
33.6665
 30
0.0
  0
VERTEX
  5
464
  8
LAYER_1
 10
-22.4537
 20
33.6645
 30
0.0
  0
VERTEX
  5
465
  8
LAYER_1
 10
-22.5312
 20
33.6723
 30
0.0
  0
VERTEX
  5
466
  8
LAYER_1
 10
-22.6033
 20
33.6947
 30
0.0
  0
VERTEX
  5
467
  8
LAYER_1
 10
-22.6686
 20
33.7301
 30
0.0
  0
VERTEX
  5
468
  8
LAYER_1
 10
-22.7255
 20
33.7771
 30
0.0
  0
VERTEX
  5
469
  8
LAYER_1
 10
-22.7725
 20
33.834
 30
0.0
  0
VERTEX
  5
46A
  8
LAYER_1
 10
-22.8079
 20
33.8993
 30
0.0
  0
VERTEX
  5
46B
  8
LAYER_1
 10
-22.8303
 20
33.9714
 30
0.0
  0
VERTEX
  5
46C
  8
LAYER_1
 10
-22.8381
 20
34.0489
 30
0.0
  0
VERTEX
  5
46D
  8
LAYER_1
 10
-22.8381
 20
43.7885
 30
0.0
  0
VERTEX
  5
46E
  8
LAYER_1
 10
-22.8381
 20
51.2239
 30
0.0
  0
VERTEX
  5
46F
  8
LAYER_1
 10
-22.846
 20
51.3022
 30
0.0
  0
VERTEX
  5
470
  8
LAYER_1
 10
-22.8686
 20
51.3752
 30
0.0
  0
VERTEX
  5
471
  8
LAYER_1
 10
-22.9045
 20
51.4412
 30
0.0
  0
VERTEX
  5
472
  8
LAYER_1
 10
-22.9519
 20
51.4987
 30
0.0
  0
VERTEX
  5
473
  8
LAYER_1
 10
-23.0094
 20
51.5461
 30
0.0
  0
VERTEX
  5
474
  8
LAYER_1
 10
-23.0754
 20
51.582
 30
0.0
  0
VERTEX
  5
475
  8
LAYER_1
 10
-23.1484
 20
51.6046
 30
0.0
  0
VERTEX
  5
476
  8
LAYER_1
 10
-23.2267
 20
51.6125
 30
0.0
  0
VERTEX
  5
477
  8
LAYER_1
 10
-23.3562
 20
51.6287
 30
0.0
  0
VERTEX
  5
478
  8
LAYER_1
 10
-23.452
 20
51.6745
 30
0.0
  0
VERTEX
  5
479
  8
LAYER_1
 10
-23.5136
 20
51.7457
 30
0.0
  0
VERTEX
  5
47A
  8
LAYER_1
 10
-23.5405
 20
51.838
 30
0.0
  0
VERTEX
  5
47B
  8
LAYER_1
 10
-23.5321
 20
51.9473
 30
0.0
  0
VERTEX
  5
47C
  8
LAYER_1
 10
-23.4878
 20
52.0692
 30
0.0
  0
VERTEX
  5
47D
  8
LAYER_1
 10
-23.4073
 20
52.1995
 30
0.0
  0
VERTEX
  5
47E
  8
LAYER_1
 10
-23.2898
 20
52.3341
 30
0.0
  0
VERTEX
  5
47F
  8
LAYER_1
 10
-22.8989
 20
52.8751
 30
0.0
  0
VERTEX
  5
480
  8
LAYER_1
 10
-22.6801
 20
53.5079
 30
0.0
  0
VERTEX
  5
481
  8
LAYER_1
 10
-22.6084
 20
54.1939
 30
0.0
  0
VERTEX
  5
482
  8
LAYER_1
 10
-22.6586
 20
54.8945
 30
0.0
  0
VERTEX
  5
483
  8
LAYER_1
 10
-22.8058
 20
55.571
 30
0.0
  0
VERTEX
  5
484
  8
LAYER_1
 10
-23.0248
 20
56.185
 30
0.0
  0
VERTEX
  5
485
  8
LAYER_1
 10
-23.2906
 20
56.6978
 30
0.0
  0
VERTEX
  5
486
  8
LAYER_1
 10
-23.578
 20
57.0707
 30
0.0
  0
VERTEX
  5
487
  8
LAYER_1
 10
-24.1658
 20
57.721
 30
0.0
  0
VERTEX
  5
488
  8
LAYER_1
 10
-24.6642
 20
58.3833
 30
0.0
  0
VERTEX
  5
489
  8
LAYER_1
 10
-25.0857
 20
59.036
 30
0.0
  0
VERTEX
  5
48A
  8
LAYER_1
 10
-25.4425
 20
59.6576
 30
0.0
  0
VERTEX
  5
48B
  8
LAYER_1
 10
-25.747
 20
60.2267
 30
0.0
  0
VERTEX
  5
48C
  8
LAYER_1
 10
-26.0114
 20
60.7217
 30
0.0
  0
VERTEX
  5
48D
  8
LAYER_1
 10
-26.2482
 20
61.1211
 30
0.0
  0
VERTEX
  5
48E
  8
LAYER_1
 10
-26.4696
 20
61.4035
 30
0.0
  0
VERTEX
  5
48F
  8
LAYER_1
 10
-26.6238
 20
61.4966
 30
0.0
  0
VERTEX
  5
490
  8
LAYER_1
 10
-26.68
 20
61.3675
 30
0.0
  0
VERTEX
  5
491
  8
LAYER_1
 10
-26.6818
 20
61.0534
 30
0.0
  0
VERTEX
  5
492
  8
LAYER_1
 10
-26.6733
 20
60.5916
 30
0.0
  0
VERTEX
  5
493
  8
LAYER_1
 10
-26.6981
 20
60.0192
 30
0.0
  0
VERTEX
  5
494
  8
LAYER_1
 10
-26.8
 20
59.3735
 30
0.0
  0
VERTEX
  5
495
  8
LAYER_1
 10
-27.0229
 20
58.6919
 30
0.0
  0
VERTEX
  5
496
  8
LAYER_1
 10
-27.4105
 20
58.0114
 30
0.0
  0
VERTEX
  5
497
  8
LAYER_1
 10
-27.8745
 20
57.218
 30
0.0
  0
VERTEX
  5
498
  8
LAYER_1
 10
-28.1754
 20
56.3755
 30
0.0
  0
VERTEX
  5
499
  8
LAYER_1
 10
-28.3258
 20
55.5191
 30
0.0
  0
VERTEX
  5
49A
  8
LAYER_1
 10
-28.3384
 20
54.684
 30
0.0
  0
VERTEX
  5
49B
  8
LAYER_1
 10
-28.226
 20
53.9053
 30
0.0
  0
VERTEX
  5
49C
  8
LAYER_1
 10
-28.0012
 20
53.2182
 30
0.0
  0
VERTEX
  5
49D
  8
LAYER_1
 10
-27.6767
 20
52.6577
 30
0.0
  0
VERTEX
  5
49E
  8
LAYER_1
 10
-27.2652
 20
52.2592
 30
0.0
  0
VERTEX
  5
49F
  8
LAYER_1
 10
-27.1641
 20
52.1701
 30
0.0
  0
VERTEX
  5
4A0
  8
LAYER_1
 10
-27.1058
 20
52.0681
 30
0.0
  0
VERTEX
  5
4A1
  8
LAYER_1
 10
-27.089
 20
51.9608
 30
0.0
  0
VERTEX
  5
4A2
  8
LAYER_1
 10
-27.1121
 20
51.8558
 30
0.0
  0
VERTEX
  5
4A3
  8
LAYER_1
 10
-27.1736
 20
51.7609
 30
0.0
  0
VERTEX
  5
4A4
  8
LAYER_1
 10
-27.272
 20
51.6835
 30
0.0
  0
VERTEX
  5
4A5
  8
LAYER_1
 10
-27.4059
 20
51.6315
 30
0.0
  0
VERTEX
  5
4A6
  8
LAYER_1
 10
-27.5737
 20
51.6125
 30
0.0
  0
VERTEX
  5
4A7
  8
LAYER_1
 10
-27.652
 20
51.6046
 30
0.0
  0
VERTEX
  5
4A8
  8
LAYER_1
 10
-27.725
 20
51.582
 30
0.0
  0
VERTEX
  5
4A9
  8
LAYER_1
 10
-27.791
 20
51.5461
 30
0.0
  0
VERTEX
  5
4AA
  8
LAYER_1
 10
-27.8485
 20
51.4987
 30
0.0
  0
VERTEX
  5
4AB
  8
LAYER_1
 10
-27.8959
 20
51.4412
 30
0.0
  0
VERTEX
  5
4AC
  8
LAYER_1
 10
-27.9318
 20
51.3752
 30
0.0
  0
VERTEX
  5
4AD
  8
LAYER_1
 10
-27.9544
 20
51.3022
 30
0.0
  0
VERTEX
  5
4AE
  8
LAYER_1
 10
-27.9623
 20
51.2239
 30
0.0
  0
VERTEX
  5
4AF
  8
LAYER_1
 10
-27.9623
 20
43.7885
 30
0.0
  0
VERTEX
  5
4B0
  8
LAYER_1
 10
-27.9623
 20
34.0489
 30
0.0
  0
VERTEX
  5
4B1
  8
LAYER_1
 10
-27.9701
 20
33.9714
 30
0.0
  0
VERTEX
  5
4B2
  8
LAYER_1
 10
-27.9925
 20
33.8993
 30
0.0
  0
VERTEX
  5
4B3
  8
LAYER_1
 10
-28.0279
 20
33.834
 30
0.0
  0
VERTEX
  5
4B4
  8
LAYER_1
 10
-28.0749
 20
33.7771
 30
0.0
  0
VERTEX
  5
4B5
  8
LAYER_1
 10
-28.1318
 20
33.7301
 30
0.0
  0
VERTEX
  5
4B6
  8
LAYER_1
 10
-28.1971
 20
33.6947
 30
0.0
  0
VERTEX
  5
4B7
  8
LAYER_1
 10
-28.2692
 20
33.6723
 30
0.0
  0
VERTEX
  5
4B8
  8
LAYER_1
 10
-28.3467
 20
33.6645
 30
0.0
  0
VERTEX
  5
4B9
  8
LAYER_1
 10
-30.052
 20
33.6665
 30
0.0
  0
VERTEX
  5
4BA
  8
LAYER_1
 10
-30.1217
 20
33.6595
 30
0.0
  0
VERTEX
  5
4BB
  8
LAYER_1
 10
-30.1866
 20
33.6393
 30
0.0
  0
VERTEX
  5
4BC
  8
LAYER_1
 10
-30.2454
 20
33.6074
 30
0.0
  0
VERTEX
  5
4BD
  8
LAYER_1
 10
-30.2966
 20
33.5652
 30
0.0
  0
VERTEX
  5
4BE
  8
LAYER_1
 10
-30.3388
 20
33.514
 30
0.0
  0
VERTEX
  5
4BF
  8
LAYER_1
 10
-30.3707
 20
33.4552
 30
0.0
  0
VERTEX
  5
4C0
  8
LAYER_1
 10
-30.3909
 20
33.3903
 30
0.0
  0
VERTEX
  5
4C1
  8
LAYER_1
 10
-30.3979
 20
33.3206
 30
0.0
  0
VERTEX
  5
4C2
  8
LAYER_1
 10
-30.4106
 20
32.8771
 30
0.0
  0
VERTEX
  5
4C3
  8
LAYER_1
 10
-30.4224
 20
32.606
 30
0.0
  0
VERTEX
  5
4C4
  8
LAYER_1
 10
-30.4158
 20
32.483
 30
0.0
  0
VERTEX
  5
4C5
  8
LAYER_1
 10
-30.3942
 20
32.3406
 30
0.0
  0
VERTEX
  5
4C6
  8
LAYER_1
 10
-30.3529
 20
32.158
 30
0.0
  0
VERTEX
  5
4C7
  8
LAYER_1
 10
-30.2868
 20
31.9143
 30
0.0
  0
VERTEX
  5
4C8
  8
LAYER_1
 10
-30.1915
 20
31.5528
 30
0.0
  0
VERTEX
  5
4C9
  8
LAYER_1
 10
-30.1363
 20
31.273
 30
0.0
  0
VERTEX
  5
4CA
  8
LAYER_1
 10
-30.1162
 20
31.0484
 30
0.0
  0
VERTEX
  5
4CB
  8
LAYER_1
 10
-30.1259
 20
30.8524
 30
0.0
  0
VERTEX
  5
4CC
  8
LAYER_1
 10
-30.2145
 20
30.4409
 30
0.0
  0
VERTEX
  5
4CD
  8
LAYER_1
 10
-30.3612
 20
29.8267
 30
0.0
  0
VERTEX
  5
4CE
  8
LAYER_1
 10
-30.4141
 20
29.5351
 30
0.0
  0
VERTEX
  5
4CF
  8
LAYER_1
 10
-30.4404
 20
29.3076
 30
0.0
  0
VERTEX
  5
4D0
  8
LAYER_1
 10
-30.4463
 20
29.1224
 30
0.0
  0
VERTEX
  5
4D1
  8
LAYER_1
 10
-30.4376
 20
28.9579
 30
0.0
  0
VERTEX
  5
4D2
  8
LAYER_1
 10
-30.4007
 20
28.6047
 30
0.0
  0
VERTEX
  5
4D3
  8
LAYER_1
 10
-30.3777
 20
28.075
 30
0.0
  0
VERTEX
  5
4D4
  8
LAYER_1
 10
-30.3002
 20
27.6577
 30
0.0
  0
VERTEX
  5
4D5
  8
LAYER_1
 10
-30.0961
 20
27.3069
 30
0.0
  0
VERTEX
  5
4D6
  8
LAYER_1
 10
-29.8074
 20
26.9973
 30
0.0
  0
VERTEX
  5
4D7
  8
LAYER_1
 10
-29.4765
 20
26.7038
 30
0.0
  0
VERTEX
  5
4D8
  8
LAYER_1
 10
-29.1455
 20
26.4014
 30
0.0
  0
VERTEX
  5
4D9
  8
LAYER_1
 10
-28.8568
 20
26.0649
 30
0.0
  0
VERTEX
  5
4DA
  8
LAYER_1
 10
-28.6527
 20
25.6693
 30
0.0
  0
VERTEX
  5
4DB
  8
LAYER_1
 10
-28.5752
 20
25.1893
 30
0.0
  0
VERTEX
  5
4DC
  8
LAYER_1
 10
-28.5752
 20
24.4795
 30
0.0
  0
VERTEX
  5
4DD
  8
LAYER_1
 10
-28.205
 20
19.7206
 30
0.0
  0
VERTEX
  5
4DE
  8
LAYER_1
 10
-27.1147
 20
15.7784
 30
0.0
  0
VERTEX
  5
4DF
  8
LAYER_1
 10
-25.335
 20
12.5969
 30
0.0
  0
VERTEX
  5
4E0
  8
LAYER_1
 10
-22.8963
 20
10.1198
 30
0.0
  0
VERTEX
  5
4E1
  8
LAYER_1
 10
-19.8292
 20
8.291
 30
0.0
  0
VERTEX
  5
4E2
  8
LAYER_1
 10
-16.1643
 20
7.0543
 30
0.0
  0
VERTEX
  5
4E3
  8
LAYER_1
 10
-11.932
 20
6.3534
 30
0.0
  0
VERTEX
  5
4E4
  8
LAYER_1
 10
-7.163
 20
6.1323
 30
0.0
  0
VERTEX
  5
4E5
  8
LAYER_1
 10
-6.5674
 20
5.8985
 30
0.0
  0
VERTEX
  5
4E6
  8
LAYER_1
 10
-6.1419
 20
5.2821
 30
0.0
  0
VERTEX
  5
4E7
  8
LAYER_1
 10
-5.8867
 20
4.4107
 30
0.0
  0
VERTEX
  5
4E8
  8
LAYER_1
 10
-5.8016
 20
3.4118
 30
0.0
  0
VERTEX
  5
4E9
  8
LAYER_1
 10
-5.8866
 20
2.4129
 30
0.0
  0
VERTEX
  5
4EA
  8
LAYER_1
 10
-6.1419
 20
1.5415
 30
0.0
  0
VERTEX
  5
4EB
  8
LAYER_1
 10
-6.5673
 20
0.9251
 30
0.0
  0
VERTEX
  5
4EC
  8
LAYER_1
 10
-7.1628
 20
0.6913
 30
0.0
  0
VERTEX
  5
4ED
  8
LAYER_1
 10
-13.3461
 20
0.978
 30
0.0
  0
VERTEX
  5
4EE
  8
LAYER_1
 10
-18.8335
 20
1.8867
 30
0.0
  0
VERTEX
  5
4EF
  8
LAYER_1
 10
-23.5853
 20
3.4902
 30
0.0
  0
VERTEX
  5
4F0
  8
LAYER_1
 10
-27.562
 20
5.8614
 30
0.0
  0
VERTEX
  5
4F1
  8
LAYER_1
 10
-30.7239
 20
9.073
 30
0.0
  0
VERTEX
  5
4F2
  8
LAYER_1
 10
-33.0314
 20
13.198
 30
0.0
  0
VERTEX
  5
4F3
  8
LAYER_1
 10
-34.445
 20
18.3093
 30
0.0
  0
VERTEX
  5
4F4
  8
LAYER_1
 10
-34.925
 20
24.4795
 30
0.0
  0
VERTEX
  5
4F5
  8
LAYER_1
 10
-34.925
 20
25.1893
 30
0.0
  0
VERTEX
  5
4F6
  8
LAYER_1
 10
-34.8475
 20
25.6693
 30
0.0
  0
VERTEX
  5
4F7
  8
LAYER_1
 10
-34.6434
 20
26.0649
 30
0.0
  0
VERTEX
  5
4F8
  8
LAYER_1
 10
-34.3547
 20
26.4014
 30
0.0
  0
VERTEX
  5
4F9
  8
LAYER_1
 10
-34.0238
 20
26.7038
 30
0.0
  0
VERTEX
  5
4FA
  8
LAYER_1
 10
-33.6928
 20
26.9973
 30
0.0
  0
VERTEX
  5
4FB
  8
LAYER_1
 10
-33.4041
 20
27.3069
 30
0.0
  0
VERTEX
  5
4FC
  8
LAYER_1
 10
-33.2
 20
27.6577
 30
0.0
  0
VERTEX
  5
4FD
  8
LAYER_1
 10
-33.1225
 20
28.075
 30
0.0
  0
VERTEX
  5
4FE
  8
LAYER_1
 10
-33.0995
 20
28.6047
 30
0.0
  0
VERTEX
  5
4FF
  8
LAYER_1
 10
-33.0626
 20
28.9579
 30
0.0
  0
VERTEX
  5
500
  8
LAYER_1
 10
-33.0539
 20
29.1224
 30
0.0
  0
VERTEX
  5
501
  8
LAYER_1
 10
-33.0598
 20
29.3076
 30
0.0
  0
VERTEX
  5
502
  8
LAYER_1
 10
-33.0861
 20
29.5351
 30
0.0
  0
VERTEX
  5
503
  8
LAYER_1
 10
-33.139
 20
29.8267
 30
0.0
  0
VERTEX
  5
504
  8
LAYER_1
 10
-33.2857
 20
30.4409
 30
0.0
  0
VERTEX
  5
505
  8
LAYER_1
 10
-33.3743
 20
30.8524
 30
0.0
  0
VERTEX
  5
506
  8
LAYER_1
 10
-33.384
 20
31.0484
 30
0.0
  0
VERTEX
  5
507
  8
LAYER_1
 10
-33.3639
 20
31.273
 30
0.0
  0
VERTEX
  5
508
  8
LAYER_1
 10
-33.3087
 20
31.5528
 30
0.0
  0
VERTEX
  5
509
  8
LAYER_1
 10
-33.2134
 20
31.9143
 30
0.0
  0
VERTEX
  5
50A
  8
LAYER_1
 10
-33.1473
 20
32.158
 30
0.0
  0
VERTEX
  5
50B
  8
LAYER_1
 10
-33.106
 20
32.3406
 30
0.0
  0
VERTEX
  5
50C
  8
LAYER_1
 10
-33.0844
 20
32.483
 30
0.0
  0
VERTEX
  5
50D
  8
LAYER_1
 10
-33.0778
 20
32.606
 30
0.0
  0
VERTEX
  5
50E
  8
LAYER_1
 10
-33.0896
 20
32.8771
 30
0.0
  0
VERTEX
  5
50F
  8
LAYER_1
 10
-33.1023
 20
33.3206
 30
0.0
  0
VERTEX
  5
510
  8
LAYER_1
 10
-33.1093
 20
33.3903
 30
0.0
  0
VERTEX
  5
511
  8
LAYER_1
 10
-33.1295
 20
33.4552
 30
0.0
  0
VERTEX
  5
512
  8
LAYER_1
 10
-33.1614
 20
33.514
 30
0.0
  0
VERTEX
  5
513
  8
LAYER_1
 10
-33.2036
 20
33.5652
 30
0.0
  0
VERTEX
  5
514
  8
LAYER_1
 10
-33.2548
 20
33.6074
 30
0.0
  0
VERTEX
  5
515
  8
LAYER_1
 10
-33.3136
 20
33.6393
 30
0.0
  0
VERTEX
  5
516
  8
LAYER_1
 10
-33.3785
 20
33.6595
 30
0.0
  0
VERTEX
  5
517
  8
LAYER_1
 10
-33.4482
 20
33.6665
 30
0.0
  0
VERTEX
  5
518
  8
LAYER_1
 10
-35.1535
 20
33.6645
 30
0.0
  0
VERTEX
  5
519
  8
LAYER_1
 10
-35.231
 20
33.6723
 30
0.0
  0
VERTEX
  5
51A
  8
LAYER_1
 10
-35.3031
 20
33.6947
 30
0.0
  0
VERTEX
  5
51B
  8
LAYER_1
 10
-35.3684
 20
33.7301
 30
0.0
  0
VERTEX
  5
51C
  8
LAYER_1
 10
-35.4253
 20
33.7771
 30
0.0
  0
VERTEX
  5
51D
  8
LAYER_1
 10
-35.4723
 20
33.834
 30
0.0
  0
VERTEX
  5
51E
  8
LAYER_1
 10
-35.5077
 20
33.8993
 30
0.0
  0
VERTEX
  5
51F
  8
LAYER_1
 10
-35.5301
 20
33.9714
 30
0.0
  0
VERTEX
  5
520
  8
LAYER_1
 10
-35.5379
 20
34.0489
 30
0.0
  0
VERTEX
  5
521
  8
LAYER_1
 10
-35.5379
 20
43.7885
 30
0.0
  0
VERTEX
  5
522
  8
LAYER_1
 10
-35.5379
 20
49.6999
 30
0.0
  0
VERTEX
  5
523
  8
LAYER_1
 10
-35.5458
 20
49.7782
 30
0.0
  0
VERTEX
  5
524
  8
LAYER_1
 10
-35.5684
 20
49.8512
 30
0.0
  0
VERTEX
  5
525
  8
LAYER_1
 10
-35.6043
 20
49.9172
 30
0.0
  0
VERTEX
  5
526
  8
LAYER_1
 10
-35.6517
 20
49.9747
 30
0.0
  0
VERTEX
  5
527
  8
LAYER_1
 10
-35.7092
 20
50.0221
 30
0.0
  0
VERTEX
  5
528
  8
LAYER_1
 10
-35.7752
 20
50.058
 30
0.0
  0
VERTEX
  5
529
  8
LAYER_1
 10
-35.8482
 20
50.0806
 30
0.0
  0
VERTEX
  5
52A
  8
LAYER_1
 10
-35.9265
 20
50.0885
 30
0.0
  0
VERTEX
  5
52B
  8
LAYER_1
 10
-36.0559
 20
50.101
 30
0.0
  0
VERTEX
  5
52C
  8
LAYER_1
 10
-36.1514
 20
50.1372
 30
0.0
  0
VERTEX
  5
52D
  8
LAYER_1
 10
-36.2126
 20
50.1947
 30
0.0
  0
VERTEX
  5
52E
  8
LAYER_1
 10
-36.239
 20
50.2713
 30
0.0
  0
VERTEX
  5
52F
  8
LAYER_1
 10
-36.2301
 20
50.3649
 30
0.0
  0
VERTEX
  5
530
  8
LAYER_1
 10
-36.1854
 20
50.4731
 30
0.0
  0
VERTEX
  5
531
  8
LAYER_1
 10
-36.1045
 20
50.5938
 30
0.0
  0
VERTEX
  5
532
  8
LAYER_1
 10
-35.9869
 20
50.7247
 30
0.0
  0
VERTEX
  5
533
  8
LAYER_1
 10
-35.5735
 20
51.2602
 30
0.0
  0
VERTEX
  5
534
  8
LAYER_1
 10
-35.3014
 20
51.882
 30
0.0
  0
VERTEX
  5
535
  8
LAYER_1
 10
-35.1665
 20
52.56
 30
0.0
  0
VERTEX
  5
536
  8
LAYER_1
 10
-35.1649
 20
53.2638
 30
0.0
  0
VERTEX
  5
537
  8
LAYER_1
 10
-35.2924
 20
53.9633
 30
0.0
  0
VERTEX
  5
538
  8
LAYER_1
 10
-35.5452
 20
54.6284
 30
0.0
  0
VERTEX
  5
539
  8
LAYER_1
 10
-35.9191
 20
55.2287
 30
0.0
  0
VERTEX
  5
53A
  8
LAYER_1
 10
-36.4101
 20
55.7341
 30
0.0
  0
VERTEX
  5
53B
  8
LAYER_1
 10
-36.9816
 20
56.3752
 30
0.0
  0
VERTEX
  5
53C
  8
LAYER_1
 10
-37.3349
 20
57.1145
 30
0.0
  0
VERTEX
  5
53D
  8
LAYER_1
 10
-37.5211
 20
57.8848
 30
0.0
  0
VERTEX
  5
53E
  8
LAYER_1
 10
-37.5912
 20
58.6195
 30
0.0
  0
VERTEX
  5
53F
  8
LAYER_1
 10
-37.5962
 20
59.2515
 30
0.0
  0
VERTEX
  5
540
  8
LAYER_1
 10
-37.5871
 20
59.7141
 30
0.0
  0
VERTEX
  5
541
  8
LAYER_1
 10
-37.615
 20
59.9402
 30
0.0
  0
VERTEX
  5
542
  8
LAYER_1
 10
-37.7307
 20
59.863
 30
0.0
  0
VERTEX
  5
543
  8
LAYER_1
 10
-37.8972
 20
59.6332
 30
0.0
  0
VERTEX
  5
544
  8
LAYER_1
 10
-38.0587
 20
59.4211
 30
0.0
  0
VERTEX
  5
545
  8
LAYER_1
 10
-38.2387
 20
59.1898
 30
0.0
  0
VERTEX
  5
546
  8
LAYER_1
 10
-38.4605
 20
58.902
 30
0.0
  0
VERTEX
  5
547
  8
LAYER_1
 10
-38.7473
 20
58.5205
 30
0.0
  0
VERTEX
  5
548
  8
LAYER_1
 10
-39.1225
 20
58.0084
 30
0.0
  0
VERTEX
  5
549
  8
LAYER_1
 10
-39.6095
 20
57.3283
 30
0.0
  0
VERTEX
  5
54A
  8
LAYER_1
 10
-40.2316
 20
56.4433
 30
0.0
  0
VERTEX
  5
54B
  8
LAYER_1
 10
-40.6793
 20
55.6439
 30
0.0
  0
VERTEX
  5
54C
  8
LAYER_1
 10
-40.9612
 20
54.8027
 30
0.0
  0
VERTEX
  5
54D
  8
LAYER_1
 10
-41.0915
 20
53.9529
 30
0.0
  0
VERTEX
  5
54E
  8
LAYER_1
 10
-41.0844
 20
53.1277
 30
0.0
  0
VERTEX
  5
54F
  8
LAYER_1
 10
-40.954
 20
52.3601
 30
0.0
  0
VERTEX
  5
550
  8
LAYER_1
 10
-40.7145
 20
51.6834
 30
0.0
  0
VERTEX
  5
551
  8
LAYER_1
 10
-40.3801
 20
51.1307
 30
0.0
  0
VERTEX
  5
552
  8
LAYER_1
 10
-39.965
 20
50.7352
 30
0.0
  0
VERTEX
  5
553
  8
LAYER_1
 10
-39.8639
 20
50.6461
 30
0.0
  0
VERTEX
  5
554
  8
LAYER_1
 10
-39.8056
 20
50.5441
 30
0.0
  0
VERTEX
  5
555
  8
LAYER_1
 10
-39.7888
 20
50.4368
 30
0.0
  0
VERTEX
  5
556
  8
LAYER_1
 10
-39.8119
 20
50.3318
 30
0.0
  0
VERTEX
  5
557
  8
LAYER_1
 10
-39.8734
 20
50.2369
 30
0.0
  0
VERTEX
  5
558
  8
LAYER_1
 10
-39.9718
 20
50.1595
 30
0.0
  0
VERTEX
  5
559
  8
LAYER_1
 10
-40.1057
 20
50.1075
 30
0.0
  0
VERTEX
  5
55A
  8
LAYER_1
 10
-40.2735
 20
50.0885
 30
0.0
  0
VERTEX
  5
55B
  8
LAYER_1
 10
-40.3518
 20
50.0806
 30
0.0
  0
VERTEX
  5
55C
  8
LAYER_1
 10
-40.4248
 20
50.058
 30
0.0
  0
VERTEX
  5
55D
  8
LAYER_1
 10
-40.4908
 20
50.0221
 30
0.0
  0
VERTEX
  5
55E
  8
LAYER_1
 10
-40.5483
 20
49.9747
 30
0.0
  0
VERTEX
  5
55F
  8
LAYER_1
 10
-40.5957
 20
49.9172
 30
0.0
  0
VERTEX
  5
560
  8
LAYER_1
 10
-40.6316
 20
49.8512
 30
0.0
  0
VERTEX
  5
561
  8
LAYER_1
 10
-40.6542
 20
49.7782
 30
0.0
  0
VERTEX
  5
562
  8
LAYER_1
 10
-40.6621
 20
49.6999
 30
0.0
  0
VERTEX
  5
563
  8
LAYER_1
 10
-40.6621
 20
43.7885
 30
0.0
  0
VERTEX
  5
564
  8
LAYER_1
 10
-40.6621
 20
34.0489
 30
0.0
  0
VERTEX
  5
565
  8
LAYER_1
 10
-40.6699
 20
33.9714
 30
0.0
  0
VERTEX
  5
566
  8
LAYER_1
 10
-40.6923
 20
33.8993
 30
0.0
  0
VERTEX
  5
567
  8
LAYER_1
 10
-40.7277
 20
33.834
 30
0.0
  0
VERTEX
  5
568
  8
LAYER_1
 10
-40.7747
 20
33.7771
 30
0.0
  0
VERTEX
  5
569
  8
LAYER_1
 10
-40.8316
 20
33.7301
 30
0.0
  0
VERTEX
  5
56A
  8
LAYER_1
 10
-40.8969
 20
33.6947
 30
0.0
  0
VERTEX
  5
56B
  8
LAYER_1
 10
-40.969
 20
33.6723
 30
0.0
  0
VERTEX
  5
56C
  8
LAYER_1
 10
-41.0465
 20
33.6645
 30
0.0
  0
VERTEX
  5
56D
  8
LAYER_1
 10
-42.7518
 20
33.6665
 30
0.0
  0
VERTEX
  5
56E
  8
LAYER_1
 10
-42.8215
 20
33.6595
 30
0.0
  0
VERTEX
  5
56F
  8
LAYER_1
 10
-42.8864
 20
33.6393
 30
0.0
  0
VERTEX
  5
570
  8
LAYER_1
 10
-42.9452
 20
33.6074
 30
0.0
  0
VERTEX
  5
571
  8
LAYER_1
 10
-42.9964
 20
33.5652
 30
0.0
  0
VERTEX
  5
572
  8
LAYER_1
 10
-43.0386
 20
33.514
 30
0.0
  0
VERTEX
  5
573
  8
LAYER_1
 10
-43.0705
 20
33.4552
 30
0.0
  0
VERTEX
  5
574
  8
LAYER_1
 10
-43.0907
 20
33.3903
 30
0.0
  0
VERTEX
  5
575
  8
LAYER_1
 10
-43.0977
 20
33.3206
 30
0.0
  0
VERTEX
  5
576
  8
LAYER_1
 10
-43.1104
 20
32.8771
 30
0.0
  0
VERTEX
  5
577
  8
LAYER_1
 10
-43.1222
 20
32.606
 30
0.0
  0
VERTEX
  5
578
  8
LAYER_1
 10
-43.1156
 20
32.483
 30
0.0
  0
VERTEX
  5
579
  8
LAYER_1
 10
-43.094
 20
32.3406
 30
0.0
  0
VERTEX
  5
57A
  8
LAYER_1
 10
-43.0527
 20
32.158
 30
0.0
  0
VERTEX
  5
57B
  8
LAYER_1
 10
-42.9866
 20
31.9143
 30
0.0
  0
VERTEX
  5
57C
  8
LAYER_1
 10
-42.8913
 20
31.5528
 30
0.0
  0
VERTEX
  5
57D
  8
LAYER_1
 10
-42.8361
 20
31.273
 30
0.0
  0
VERTEX
  5
57E
  8
LAYER_1
 10
-42.816
 20
31.0484
 30
0.0
  0
VERTEX
  5
57F
  8
LAYER_1
 10
-42.8257
 20
30.8524
 30
0.0
  0
VERTEX
  5
580
  8
LAYER_1
 10
-42.9143
 20
30.4409
 30
0.0
  0
VERTEX
  5
581
  8
LAYER_1
 10
-43.061
 20
29.8267
 30
0.0
  0
VERTEX
  5
582
  8
LAYER_1
 10
-43.1139
 20
29.5351
 30
0.0
  0
VERTEX
  5
583
  8
LAYER_1
 10
-43.1402
 20
29.3076
 30
0.0
  0
VERTEX
  5
584
  8
LAYER_1
 10
-43.1461
 20
29.1224
 30
0.0
  0
VERTEX
  5
585
  8
LAYER_1
 10
-43.1374
 20
28.9579
 30
0.0
  0
VERTEX
  5
586
  8
LAYER_1
 10
-43.1005
 20
28.6047
 30
0.0
  0
VERTEX
  5
587
  8
LAYER_1
 10
-43.0775
 20
28.075
 30
0.0
  0
VERTEX
  5
588
  8
LAYER_1
 10
-43.0
 20
27.6577
 30
0.0
  0
VERTEX
  5
589
  8
LAYER_1
 10
-42.7959
 20
27.3069
 30
0.0
  0
VERTEX
  5
58A
  8
LAYER_1
 10
-42.5072
 20
26.9973
 30
0.0
  0
VERTEX
  5
58B
  8
LAYER_1
 10
-42.1763
 20
26.7038
 30
0.0
  0
VERTEX
  5
58C
  8
LAYER_1
 10
-41.8453
 20
26.4014
 30
0.0
  0
VERTEX
  5
58D
  8
LAYER_1
 10
-41.5566
 20
26.0649
 30
0.0
  0
VERTEX
  5
58E
  8
LAYER_1
 10
-41.3525
 20
25.6693
 30
0.0
  0
VERTEX
  5
58F
  8
LAYER_1
 10
-41.275
 20
25.1893
 30
0.0
  0
VERTEX
  5
590
  8
LAYER_1
 10
-41.275
 20
24.4795
 30
0.0
  0
VERTEX
  5
591
  8
LAYER_1
 10
-40.6844
 20
16.8979
 30
0.0
  0
VERTEX
  5
592
  8
LAYER_1
 10
-38.9454
 20
10.6176
 30
0.0
  0
VERTEX
  5
593
  8
LAYER_1
 10
-36.107
 20
5.5491
 30
0.0
  0
VERTEX
  5
594
  8
LAYER_1
 10
-32.2185
 20
1.6028
 30
0.0
  0
VERTEX
  5
595
  8
LAYER_1
 10
-27.3288
 20
-1.3108
 30
0.0
  0
VERTEX
  5
596
  8
LAYER_1
 10
-21.487
 20
-3.2811
 30
0.0
  0
VERTEX
  5
597
  8
LAYER_1
 10
-14.7424
 20
-4.3976
 30
0.0
  0
VERTEX
  5
598
  8
LAYER_1
 10
-7.144
 20
-4.7499
 30
0.0
  0
VERTEX
  5
599
  8
LAYER_1
 10
-6.5546
 20
-4.9837
 30
0.0
  0
VERTEX
  5
59A
  8
LAYER_1
 10
-6.1336
 20
-5.6001
 30
0.0
  0
VERTEX
  5
59B
  8
LAYER_1
 10
-5.8811
 20
-6.4715
 30
0.0
  0
VERTEX
  5
59C
  8
LAYER_1
 10
-5.7969
 20
-7.4704
 30
0.0
  0
VERTEX
  5
59D
  8
LAYER_1
 10
-5.8811
 20
-8.4693
 30
0.0
  0
VERTEX
  5
59E
  8
LAYER_1
 10
-6.1337
 20
-9.3407
 30
0.0
  0
VERTEX
  5
59F
  8
LAYER_1
 10
-6.5548
 20
-9.9571
 30
0.0
  0
VERTEX
  5
5A0
  8
LAYER_1
 10
-7.1442
 20
-10.1909
 30
0.0
  0
VERTEX
  5
5A1
  8
LAYER_1
 10
-16.1569
 20
-9.773
 30
0.0
  0
VERTEX
  5
5A2
  8
LAYER_1
 10
-24.1566
 20
-8.4487
 30
0.0
  0
VERTEX
  5
5A3
  8
LAYER_1
 10
-31.0852
 20
-6.1116
 30
0.0
  0
VERTEX
  5
5A4
  8
LAYER_1
 10
-36.8845
 20
-2.6557
 30
0.0
  0
VERTEX
  5
5A5
  8
LAYER_1
 10
-41.4963
 20
2.0252
 30
0.0
  0
VERTEX
  5
5A6
  8
LAYER_1
 10
-44.8625
 20
8.0372
 30
0.0
  0
VERTEX
  5
5A7
  8
LAYER_1
 10
-46.9248
 20
15.4866
 30
0.0
  0
VERTEX
  5
5A8
  8
LAYER_1
 10
-47.6252
 20
24.4795
 30
0.0
  0
VERTEX
  5
5A9
  8
LAYER_1
 10
-47.6252
 20
25.1893
 30
0.0
  0
VERTEX
  5
5AA
  8
LAYER_1
 10
-47.5477
 20
25.6693
 30
0.0
  0
VERTEX
  5
5AB
  8
LAYER_1
 10
-47.3436
 20
26.0649
 30
0.0
  0
VERTEX
  5
5AC
  8
LAYER_1
 10
-47.0549
 20
26.4014
 30
0.0
  0
VERTEX
  5
5AD
  8
LAYER_1
 10
-46.724
 20
26.7038
 30
0.0
  0
VERTEX
  5
5AE
  8
LAYER_1
 10
-46.393
 20
26.9973
 30
0.0
  0
VERTEX
  5
5AF
  8
LAYER_1
 10
-46.1043
 20
27.3069
 30
0.0
  0
VERTEX
  5
5B0
  8
LAYER_1
 10
-45.9002
 20
27.6577
 30
0.0
  0
VERTEX
  5
5B1
  8
LAYER_1
 10
-45.8227
 20
28.075
 30
0.0
  0
VERTEX
  5
5B2
  8
LAYER_1
 10
-45.7997
 20
28.6047
 30
0.0
  0
VERTEX
  5
5B3
  8
LAYER_1
 10
-45.7628
 20
28.9579
 30
0.0
  0
VERTEX
  5
5B4
  8
LAYER_1
 10
-45.7541
 20
29.1224
 30
0.0
  0
VERTEX
  5
5B5
  8
LAYER_1
 10
-45.76
 20
29.3076
 30
0.0
  0
VERTEX
  5
5B6
  8
LAYER_1
 10
-45.7863
 20
29.5351
 30
0.0
  0
VERTEX
  5
5B7
  8
LAYER_1
 10
-45.8392
 20
29.8267
 30
0.0
  0
VERTEX
  5
5B8
  8
LAYER_1
 10
-45.9859
 20
30.4409
 30
0.0
  0
VERTEX
  5
5B9
  8
LAYER_1
 10
-46.0745
 20
30.8524
 30
0.0
  0
VERTEX
  5
5BA
  8
LAYER_1
 10
-46.0842
 20
31.0484
 30
0.0
  0
VERTEX
  5
5BB
  8
LAYER_1
 10
-46.0641
 20
31.273
 30
0.0
  0
VERTEX
  5
5BC
  8
LAYER_1
 10
-46.0089
 20
31.5528
 30
0.0
  0
VERTEX
  5
5BD
  8
LAYER_1
 10
-45.9136
 20
31.9143
 30
0.0
  0
VERTEX
  5
5BE
  8
LAYER_1
 10
-45.8475
 20
32.158
 30
0.0
  0
VERTEX
  5
5BF
  8
LAYER_1
 10
-45.8062
 20
32.3406
 30
0.0
  0
VERTEX
  5
5C0
  8
LAYER_1
 10
-45.7846
 20
32.483
 30
0.0
  0
VERTEX
  5
5C1
  8
LAYER_1
 10
-45.778
 20
32.606
 30
0.0
  0
VERTEX
  5
5C2
  8
LAYER_1
 10
-45.7898
 20
32.8771
 30
0.0
  0
VERTEX
  5
5C3
  8
LAYER_1
 10
-45.8025
 20
33.3206
 30
0.0
  0
VERTEX
  5
5C4
  8
LAYER_1
 10
-45.8095
 20
33.3903
 30
0.0
  0
VERTEX
  5
5C5
  8
LAYER_1
 10
-45.8297
 20
33.4552
 30
0.0
  0
VERTEX
  5
5C6
  8
LAYER_1
 10
-45.8616
 20
33.514
 30
0.0
  0
VERTEX
  5
5C7
  8
LAYER_1
 10
-45.9038
 20
33.5652
 30
0.0
  0
VERTEX
  5
5C8
  8
LAYER_1
 10
-45.955
 20
33.6074
 30
0.0
  0
VERTEX
  5
5C9
  8
LAYER_1
 10
-46.0138
 20
33.6393
 30
0.0
  0
VERTEX
  5
5CA
  8
LAYER_1
 10
-46.0787
 20
33.6595
 30
0.0
  0
VERTEX
  5
5CB
  8
LAYER_1
 10
-46.1484
 20
33.6665
 30
0.0
  0
VERTEX
  5
5CC
  8
LAYER_1
 10
-47.8537
 20
33.6645
 30
0.0
  0
VERTEX
  5
5CD
  8
LAYER_1
 10
-47.9312
 20
33.6723
 30
0.0
  0
VERTEX
  5
5CE
  8
LAYER_1
 10
-48.0033
 20
33.6947
 30
0.0
  0
VERTEX
  5
5CF
  8
LAYER_1
 10
-48.0686
 20
33.7301
 30
0.0
  0
VERTEX
  5
5D0
  8
LAYER_1
 10
-48.1255
 20
33.7771
 30
0.0
  0
VERTEX
  5
5D1
  8
LAYER_1
 10
-48.1725
 20
33.834
 30
0.0
  0
VERTEX
  5
5D2
  8
LAYER_1
 10
-48.2079
 20
33.8993
 30
0.0
  0
VERTEX
  5
5D3
  8
LAYER_1
 10
-48.2303
 20
33.9714
 30
0.0
  0
VERTEX
  5
5D4
  8
LAYER_1
 10
-48.2381
 20
34.0489
 30
0.0
  0
VERTEX
  5
5D5
  8
LAYER_1
 10
-48.2381
 20
43.7885
 30
0.0
  0
VERTEX
  5
5D6
  8
LAYER_1
 10
-48.2381
 20
50.4619
 30
0.0
  0
VERTEX
  5
5D7
  8
LAYER_1
 10
-48.246
 20
50.5402
 30
0.0
  0
VERTEX
  5
5D8
  8
LAYER_1
 10
-48.2686
 20
50.6132
 30
0.0
  0
VERTEX
  5
5D9
  8
LAYER_1
 10
-48.3045
 20
50.6792
 30
0.0
  0
VERTEX
  5
5DA
  8
LAYER_1
 10
-48.3519
 20
50.7367
 30
0.0
  0
VERTEX
  5
5DB
  8
LAYER_1
 10
-48.4094
 20
50.7841
 30
0.0
  0
VERTEX
  5
5DC
  8
LAYER_1
 10
-48.4754
 20
50.82
 30
0.0
  0
VERTEX
  5
5DD
  8
LAYER_1
 10
-48.5484
 20
50.8426
 30
0.0
  0
VERTEX
  5
5DE
  8
LAYER_1
 10
-48.6267
 20
50.8505
 30
0.0
  0
VERTEX
  5
5DF
  8
LAYER_1
 10
-48.7561
 20
50.863
 30
0.0
  0
VERTEX
  5
5E0
  8
LAYER_1
 10
-48.8516
 20
50.8992
 30
0.0
  0
VERTEX
  5
5E1
  8
LAYER_1
 10
-48.9128
 20
50.9567
 30
0.0
  0
VERTEX
  5
5E2
  8
LAYER_1
 10
-48.9392
 20
51.0333
 30
0.0
  0
VERTEX
  5
5E3
  8
LAYER_1
 10
-48.9303
 20
51.1269
 30
0.0
  0
VERTEX
  5
5E4
  8
LAYER_1
 10
-48.8856
 20
51.2351
 30
0.0
  0
VERTEX
  5
5E5
  8
LAYER_1
 10
-48.8047
 20
51.3558
 30
0.0
  0
VERTEX
  5
5E6
  8
LAYER_1
 10
-48.6871
 20
51.4867
 30
0.0
  0
VERTEX
  5
5E7
  8
LAYER_1
 10
-48.2756
 20
52.0346
 30
0.0
  0
VERTEX
  5
5E8
  8
LAYER_1
 10
-48.0085
 20
52.6889
 30
0.0
  0
VERTEX
  5
5E9
  8
LAYER_1
 10
-47.8807
 20
53.4127
 30
0.0
  0
VERTEX
  5
5EA
  8
LAYER_1
 10
-47.8871
 20
54.1691
 30
0.0
  0
VERTEX
  5
5EB
  8
LAYER_1
 10
-48.0228
 20
54.9213
 30
0.0
  0
VERTEX
  5
5EC
  8
LAYER_1
 10
-48.2826
 20
55.6322
 30
0.0
  0
VERTEX
  5
5ED
  8
LAYER_1
 10
-48.6615
 20
56.265
 30
0.0
  0
VERTEX
  5
5EE
  8
LAYER_1
 10
-49.1544
 20
56.7827
 30
0.0
  0
VERTEX
  5
5EF
  8
LAYER_1
 10
-49.7477
 20
57.4173
 30
0.0
  0
VERTEX
  5
5F0
  8
LAYER_1
 10
-50.1578
 20
58.141
 30
0.0
  0
VERTEX
  5
5F1
  8
LAYER_1
 10
-50.4224
 20
58.8928
 30
0.0
  0
VERTEX
  5
5F2
  8
LAYER_1
 10
-50.5794
 20
59.6116
 30
0.0
  0
VERTEX
  5
5F3
  8
LAYER_1
 10
-50.6667
 20
60.2367
 30
0.0
  0
VERTEX
  5
5F4
  8
LAYER_1
 10
-50.7221
 20
60.7069
 30
0.0
  0
VERTEX
  5
5F5
  8
LAYER_1
 10
-50.7834
 20
60.9614
 30
0.0
  0
VERTEX
  5
5F6
  8
LAYER_1
 10
-50.8884
 20
60.9392
 30
0.0
  0
VERTEX
  5
5F7
  8
LAYER_1
 10
-51.0015
 20
60.7515
 30
0.0
  0
VERTEX
  5
5F8
  8
LAYER_1
 10
-51.0841
 20
60.5342
 30
0.0
  0
VERTEX
  5
5F9
  8
LAYER_1
 10
-51.1697
 20
60.2629
 30
0.0
  0
VERTEX
  5
5FA
  8
LAYER_1
 10
-51.2916
 20
59.9134
 30
0.0
  0
VERTEX
  5
5FB
  8
LAYER_1
 10
-51.4832
 20
59.4615
 30
0.0
  0
VERTEX
  5
5FC
  8
LAYER_1
 10
-51.7779
 20
58.883
 30
0.0
  0
VERTEX
  5
5FD
  8
LAYER_1
 10
-52.2092
 20
58.1537
 30
0.0
  0
VERTEX
  5
5FE
  8
LAYER_1
 10
-52.8105
 20
57.2494
 30
0.0
  0
VERTEX
  5
5FF
  8
LAYER_1
 10
-53.2634
 20
56.4481
 30
0.0
  0
VERTEX
  5
600
  8
LAYER_1
 10
-53.559
 20
55.6019
 30
0.0
  0
VERTEX
  5
601
  8
LAYER_1
 10
-53.7088
 20
54.7451
 30
0.0
  0
VERTEX
  5
602
  8
LAYER_1
 10
-53.7239
 20
53.9117
 30
0.0
  0
VERTEX
  5
603
  8
LAYER_1
 10
-53.6158
 20
53.1361
 30
0.0
  0
VERTEX
  5
604
  8
LAYER_1
 10
-53.3958
 20
52.4523
 30
0.0
  0
VERTEX
  5
605
  8
LAYER_1
 10
-53.0751
 20
51.8946
 30
0.0
  0
VERTEX
  5
606
  8
LAYER_1
 10
-52.6652
 20
51.4972
 30
0.0
  0
VERTEX
  5
607
  8
LAYER_1
 10
-52.5641
 20
51.4081
 30
0.0
  0
VERTEX
  5
608
  8
LAYER_1
 10
-52.5058
 20
51.3061
 30
0.0
  0
VERTEX
  5
609
  8
LAYER_1
 10
-52.489
 20
51.1988
 30
0.0
  0
VERTEX
  5
60A
  8
LAYER_1
 10
-52.5121
 20
51.0938
 30
0.0
  0
VERTEX
  5
60B
  8
LAYER_1
 10
-52.5736
 20
50.9989
 30
0.0
  0
VERTEX
  5
60C
  8
LAYER_1
 10
-52.672
 20
50.9215
 30
0.0
  0
VERTEX
  5
60D
  8
LAYER_1
 10
-52.8059
 20
50.8695
 30
0.0
  0
VERTEX
  5
60E
  8
LAYER_1
 10
-52.9737
 20
50.8505
 30
0.0
  0
VERTEX
  5
60F
  8
LAYER_1
 10
-53.052
 20
50.8426
 30
0.0
  0
VERTEX
  5
610
  8
LAYER_1
 10
-53.125
 20
50.82
 30
0.0
  0
VERTEX
  5
611
  8
LAYER_1
 10
-53.191
 20
50.7841
 30
0.0
  0
VERTEX
  5
612
  8
LAYER_1
 10
-53.2485
 20
50.7367
 30
0.0
  0
VERTEX
  5
613
  8
LAYER_1
 10
-53.2959
 20
50.6792
 30
0.0
  0
VERTEX
  5
614
  8
LAYER_1
 10
-53.3318
 20
50.6132
 30
0.0
  0
VERTEX
  5
615
  8
LAYER_1
 10
-53.3544
 20
50.5402
 30
0.0
  0
VERTEX
  5
616
  8
LAYER_1
 10
-53.3623
 20
50.4619
 30
0.0
  0
VERTEX
  5
617
  8
LAYER_1
 10
-53.3623
 20
43.7885
 30
0.0
  0
VERTEX
  5
618
  8
LAYER_1
 10
-53.3623
 20
34.0489
 30
0.0
  0
VERTEX
  5
619
  8
LAYER_1
 10
-53.3701
 20
33.9714
 30
0.0
  0
VERTEX
  5
61A
  8
LAYER_1
 10
-53.3925
 20
33.8993
 30
0.0
  0
VERTEX
  5
61B
  8
LAYER_1
 10
-53.4279
 20
33.834
 30
0.0
  0
VERTEX
  5
61C
  8
LAYER_1
 10
-53.4749
 20
33.7771
 30
0.0
  0
VERTEX
  5
61D
  8
LAYER_1
 10
-53.5318
 20
33.7301
 30
0.0
  0
VERTEX
  5
61E
  8
LAYER_1
 10
-53.5971
 20
33.6947
 30
0.0
  0
VERTEX
  5
61F
  8
LAYER_1
 10
-53.6692
 20
33.6723
 30
0.0
  0
VERTEX
  5
620
  8
LAYER_1
 10
-53.7467
 20
33.6645
 30
0.0
  0
VERTEX
  5
621
  8
LAYER_1
 10
-55.452
 20
33.6665
 30
0.0
  0
VERTEX
  5
622
  8
LAYER_1
 10
-55.5217
 20
33.6595
 30
0.0
  0
VERTEX
  5
623
  8
LAYER_1
 10
-55.5866
 20
33.6393
 30
0.0
  0
VERTEX
  5
624
  8
LAYER_1
 10
-55.6454
 20
33.6074
 30
0.0
  0
VERTEX
  5
625
  8
LAYER_1
 10
-55.6966
 20
33.5652
 30
0.0
  0
VERTEX
  5
626
  8
LAYER_1
 10
-55.7388
 20
33.514
 30
0.0
  0
VERTEX
  5
627
  8
LAYER_1
 10
-55.7707
 20
33.4552
 30
0.0
  0
VERTEX
  5
628
  8
LAYER_1
 10
-55.7909
 20
33.3903
 30
0.0
  0
VERTEX
  5
629
  8
LAYER_1
 10
-55.7979
 20
33.3206
 30
0.0
  0
VERTEX
  5
62A
  8
LAYER_1
 10
-55.8106
 20
32.8771
 30
0.0
  0
VERTEX
  5
62B
  8
LAYER_1
 10
-55.8224
 20
32.606
 30
0.0
  0
VERTEX
  5
62C
  8
LAYER_1
 10
-55.8158
 20
32.483
 30
0.0
  0
VERTEX
  5
62D
  8
LAYER_1
 10
-55.7942
 20
32.3406
 30
0.0
  0
VERTEX
  5
62E
  8
LAYER_1
 10
-55.7529
 20
32.158
 30
0.0
  0
VERTEX
  5
62F
  8
LAYER_1
 10
-55.6868
 20
31.9143
 30
0.0
  0
VERTEX
  5
630
  8
LAYER_1
 10
-55.5915
 20
31.5528
 30
0.0
  0
VERTEX
  5
631
  8
LAYER_1
 10
-55.5363
 20
31.273
 30
0.0
  0
VERTEX
  5
632
  8
LAYER_1
 10
-55.5162
 20
31.0484
 30
0.0
  0
VERTEX
  5
633
  8
LAYER_1
 10
-55.5259
 20
30.8524
 30
0.0
  0
VERTEX
  5
634
  8
LAYER_1
 10
-55.6145
 20
30.4409
 30
0.0
  0
VERTEX
  5
635
  8
LAYER_1
 10
-55.7612
 20
29.8267
 30
0.0
  0
VERTEX
  5
636
  8
LAYER_1
 10
-55.8141
 20
29.5351
 30
0.0
  0
VERTEX
  5
637
  8
LAYER_1
 10
-55.8404
 20
29.3076
 30
0.0
  0
VERTEX
  5
638
  8
LAYER_1
 10
-55.8463
 20
29.1224
 30
0.0
  0
VERTEX
  5
639
  8
LAYER_1
 10
-55.8376
 20
28.9579
 30
0.0
  0
VERTEX
  5
63A
  8
LAYER_1
 10
-55.8007
 20
28.6047
 30
0.0
  0
VERTEX
  5
63B
  8
LAYER_1
 10
-55.7777
 20
28.075
 30
0.0
  0
VERTEX
  5
63C
  8
LAYER_1
 10
-55.7002
 20
27.6577
 30
0.0
  0
VERTEX
  5
63D
  8
LAYER_1
 10
-55.4961
 20
27.3069
 30
0.0
  0
VERTEX
  5
63E
  8
LAYER_1
 10
-55.2074
 20
26.9973
 30
0.0
  0
VERTEX
  5
63F
  8
LAYER_1
 10
-54.8765
 20
26.7038
 30
0.0
  0
VERTEX
  5
640
  8
LAYER_1
 10
-54.5455
 20
26.4014
 30
0.0
  0
VERTEX
  5
641
  8
LAYER_1
 10
-54.2568
 20
26.0649
 30
0.0
  0
VERTEX
  5
642
  8
LAYER_1
 10
-54.0527
 20
25.6693
 30
0.0
  0
VERTEX
  5
643
  8
LAYER_1
 10
-53.9752
 20
25.1893
 30
0.0
  0
VERTEX
  5
644
  8
LAYER_1
 10
-53.9752
 20
23.7175
 30
0.0
  0
VERTEX
  5
645
  8
LAYER_1
 10
-53.1442
 20
13.2704
 30
0.0
  0
VERTEX
  5
646
  8
LAYER_1
 10
-50.7153
 20
4.6328
 30
0.0
  0
VERTEX
  5
647
  8
LAYER_1
 10
-46.7843
 20
-2.3238
 30
0.0
  0
VERTEX
  5
648
  8
LAYER_1
 10
-41.4474
 20
-7.7276
 30
0.0
  0
VERTEX
  5
649
  8
LAYER_1
 10
-34.8005
 20
-11.7071
 30
0.0
  0
VERTEX
  5
64A
  8
LAYER_1
 10
-26.9396
 20
-14.3906
 30
0.0
  0
VERTEX
  5
64B
  8
LAYER_1
 10
-17.9607
 20
-15.9066
 30
0.0
  0
VERTEX
  5
64C
  8
LAYER_1
 10
-7.9597
 20
-16.3834
 30
0.0
  0
VERTEX
  5
64D
  8
LAYER_1
 10
-7.9725
 20
-16.3834
 30
0.0
  0
VERTEX
  5
64E
  8
LAYER_1
 10
-7.8109
 20
-16.3995
 30
0.0
  0
VERTEX
  5
64F
  8
LAYER_1
 10
-7.6603
 20
-16.4458
 30
0.0
  0
VERTEX
  5
650
  8
LAYER_1
 10
-7.5241
 20
-16.519
 30
0.0
  0
VERTEX
  5
651
  8
LAYER_1
 10
-7.4054
 20
-16.6159
 30
0.0
  0
VERTEX
  5
652
  8
LAYER_1
 10
-7.3075
 20
-16.7334
 30
0.0
  0
VERTEX
  5
653
  8
LAYER_1
 10
-7.2335
 20
-16.8682
 30
0.0
  0
VERTEX
  5
654
  8
LAYER_1
 10
-7.1868
 20
-17.0172
 30
0.0
  0
VERTEX
  5
655
  8
LAYER_1
 10
-7.1705
 20
-17.1772
 30
0.0
  0
VERTEX
  5
656
  8
LAYER_1
 10
-7.1724
 20
-24.9536
 30
0.0
  0
VERTEX
  5
657
  8
LAYER_1
 10
-7.4004
 20
-29.0922
 30
0.0
  0
VERTEX
  5
658
  8
LAYER_1
 10
-8.0583
 20
-33.5634
 30
0.0
  0
VERTEX
  5
659
  8
LAYER_1
 10
-9.1071
 20
-38.1408
 30
0.0
  0
VERTEX
  5
65A
  8
LAYER_1
 10
-10.5079
 20
-42.598
 30
0.0
  0
VERTEX
  5
65B
  8
LAYER_1
 10
-12.2218
 20
-46.7085
 30
0.0
  0
VERTEX
  5
65C
  8
LAYER_1
 10
-14.2096
 20
-50.246
 30
0.0
  0
VERTEX
  5
65D
  8
LAYER_1
 10
-16.4325
 20
-52.984
 30
0.0
  0
VERTEX
  5
65E
  8
LAYER_1
 10
-18.8515
 20
-54.6962
 30
0.0
  0
VERTEX
  5
65F
  8
LAYER_1
 10
-23.0501
 20
-56.7392
 30
0.0
  0
VERTEX
  5
660
  8
LAYER_1
 10
-26.3711
 20
-58.6728
 30
0.0
  0
VERTEX
  5
661
  8
LAYER_1
 10
-28.813
 20
-60.4468
 30
0.0
  0
VERTEX
  5
662
  8
LAYER_1
 10
-30.3742
 20
-62.0109
 30
0.0
  0
VERTEX
  5
663
  8
LAYER_1
 10
-31.0532
 20
-63.3149
 30
0.0
  0
VERTEX
  5
664
  8
LAYER_1
 10
-30.8484
 20
-64.3085
 30
0.0
  0
VERTEX
  5
665
  8
LAYER_1
 10
-29.7584
 20
-64.9415
 30
0.0
  0
VERTEX
  5
666
  8
LAYER_1
 10
-27.7815
 20
-65.1637
 30
0.0
  0
VERTEX
  5
667
  8
LAYER_1
 10
0.0
 20
-65.1637
 30
0.0
  0
VERTEX
  5
668
  8
LAYER_1
 10
27.7815
 20
-65.1637
 30
0.0
  0
VERTEX
  5
669
  8
LAYER_1
 10
29.7584
 20
-64.9415
 30
0.0
  0
VERTEX
  5
66A
  8
LAYER_1
 10
30.8484
 20
-64.3085
 30
0.0
  0
VERTEX
  5
66B
  8
LAYER_1
 10
31.0532
 20
-63.3149
 30
0.0
  0
VERTEX
  5
66C
  8
LAYER_1
 10
30.3742
 20
-62.0109
 30
0.0
  0
VERTEX
  5
66D
  8
LAYER_1
 10
28.813
 20
-60.4468
 30
0.0
  0
VERTEX
  5
66E
  8
LAYER_1
 10
26.3711
 20
-58.6728
 30
0.0
  0
VERTEX
  5
66F
  8
LAYER_1
 10
23.0501
 20
-56.7392
 30
0.0
  0
VERTEX
  5
670
  8
LAYER_1
 10
18.8515
 20
-54.6962
 30
0.0
  0
VERTEX
  5
671
  8
LAYER_1
 10
16.4325
 20
-52.984
 30
0.0
  0
VERTEX
  5
672
  8
LAYER_1
 10
14.2096
 20
-50.246
 30
0.0
  0
VERTEX
  5
673
  8
LAYER_1
 10
12.2218
 20
-46.7085
 30
0.0
  0
VERTEX
  5
674
  8
LAYER_1
 10
10.5079
 20
-42.598
 30
0.0
  0
VERTEX
  5
675
  8
LAYER_1
 10
9.1071
 20
-38.1408
 30
0.0
  0
VERTEX
  5
676
  8
LAYER_1
 10
8.0583
 20
-33.5634
 30
0.0
  0
VERTEX
  5
677
  8
LAYER_1
 10
7.4004
 20
-29.0922
 30
0.0
  0
VERTEX
  5
678
  8
LAYER_1
 10
7.1724
 20
-24.9536
 30
0.0
  0
VERTEX
  5
679
  8
LAYER_1
 10
7.1705
 20
-17.1772
 30
0.0
  0
VERTEX
  5
67A
  8
LAYER_1
 10
7.1868
 20
-17.0172
 30
0.0
  0
VERTEX
  5
67B
  8
LAYER_1
 10
7.2335
 20
-16.8682
 30
0.0
  0
VERTEX
  5
67C
  8
LAYER_1
 10
7.3075
 20
-16.7334
 30
0.0
  0
VERTEX
  5
67D
  8
LAYER_1
 10
7.4054
 20
-16.6159
 30
0.0
  0
VERTEX
  5
67E
  8
LAYER_1
 10
7.5241
 20
-16.519
 30
0.0
  0
VERTEX
  5
67F
  8
LAYER_1
 10
7.6603
 20
-16.4458
 30
0.0
  0
VERTEX
  5
680
  8
LAYER_1
 10
7.8109
 20
-16.3995
 30
0.0
  0
VERTEX
  5
681
  8
LAYER_1
 10
7.9725
 20
-16.3834
 30
0.0
  0
VERTEX
  5
682
  8
LAYER_1
 10
7.9597
 20
-16.3834
 30
0.0
  0
VERTEX
  5
683
  8
LAYER_1
 10
17.9607
 20
-15.9066
 30
0.0
  0
VERTEX
  5
684
  8
LAYER_1
 10
26.9396
 20
-14.3906
 30
0.0
  0
VERTEX
  5
685
  8
LAYER_1
 10
34.8005
 20
-11.7071
 30
0.0
  0
VERTEX
  5
686
  8
LAYER_1
 10
41.4474
 20
-7.7276
 30
0.0
  0
VERTEX
  5
687
  8
LAYER_1
 10
46.7843
 20
-2.3238
 30
0.0
  0
VERTEX
  5
688
  8
LAYER_1
 10
50.7153
 20
4.6328
 30
0.0
  0
VERTEX
  5
689
  8
LAYER_1
 10
53.1442
 20
13.2704
 30
0.0
  0
VERTEX
  5
68A
  8
LAYER_1
 10
53.9752
 20
23.7175
 30
0.0
  0
VERTEX
  5
68B
  8
LAYER_1
 10
53.9752
 20
25.1893
 30
0.0
  0
VERTEX
  5
68C
  8
LAYER_1
 10
54.0527
 20
25.6693
 30
0.0
  0
VERTEX
  5
68D
  8
LAYER_1
 10
54.2568
 20
26.0649
 30
0.0
  0
VERTEX
  5
68E
  8
LAYER_1
 10
54.5455
 20
26.4014
 30
0.0
  0
VERTEX
  5
68F
  8
LAYER_1
 10
54.8765
 20
26.7038
 30
0.0
  0
VERTEX
  5
690
  8
LAYER_1
 10
55.2074
 20
26.9973
 30
0.0
  0
VERTEX
  5
691
  8
LAYER_1
 10
55.4961
 20
27.3069
 30
0.0
  0
VERTEX
  5
692
  8
LAYER_1
 10
55.7002
 20
27.6577
 30
0.0
  0
VERTEX
  5
693
  8
LAYER_1
 10
55.7777
 20
28.075
 30
0.0
  0
VERTEX
  5
694
  8
LAYER_1
 10
55.8007
 20
28.6047
 30
0.0
  0
VERTEX
  5
695
  8
LAYER_1
 10
55.8376
 20
28.9579
 30
0.0
  0
VERTEX
  5
696
  8
LAYER_1
 10
55.8463
 20
29.1224
 30
0.0
  0
VERTEX
  5
697
  8
LAYER_1
 10
55.8404
 20
29.3076
 30
0.0
  0
VERTEX
  5
698
  8
LAYER_1
 10
55.8141
 20
29.5351
 30
0.0
  0
VERTEX
  5
699
  8
LAYER_1
 10
55.7612
 20
29.8267
 30
0.0
  0
VERTEX
  5
69A
  8
LAYER_1
 10
55.6145
 20
30.4409
 30
0.0
  0
VERTEX
  5
69B
  8
LAYER_1
 10
55.5259
 20
30.8524
 30
0.0
  0
VERTEX
  5
69C
  8
LAYER_1
 10
55.5162
 20
31.0484
 30
0.0
  0
VERTEX
  5
69D
  8
LAYER_1
 10
55.5363
 20
31.273
 30
0.0
  0
VERTEX
  5
69E
  8
LAYER_1
 10
55.5915
 20
31.5528
 30
0.0
  0
VERTEX
  5
69F
  8
LAYER_1
 10
55.6868
 20
31.9143
 30
0.0
  0
VERTEX
  5
6A0
  8
LAYER_1
 10
55.7529
 20
32.158
 30
0.0
  0
VERTEX
  5
6A1
  8
LAYER_1
 10
55.7942
 20
32.3406
 30
0.0
  0
VERTEX
  5
6A2
  8
LAYER_1
 10
55.8158
 20
32.483
 30
0.0
  0
VERTEX
  5
6A3
  8
LAYER_1
 10
55.8224
 20
32.606
 30
0.0
  0
VERTEX
  5
6A4
  8
LAYER_1
 10
55.8106
 20
32.8771
 30
0.0
  0
VERTEX
  5
6A5
  8
LAYER_1
 10
55.7979
 20
33.3206
 30
0.0
  0
VERTEX
  5
6A6
  8
LAYER_1
 10
55.7909
 20
33.3903
 30
0.0
  0
VERTEX
  5
6A7
  8
LAYER_1
 10
55.7707
 20
33.4552
 30
0.0
  0
VERTEX
  5
6A8
  8
LAYER_1
 10
55.7388
 20
33.514
 30
0.0
  0
VERTEX
  5
6A9
  8
LAYER_1
 10
55.6966
 20
33.5652
 30
0.0
  0
VERTEX
  5
6AA
  8
LAYER_1
 10
55.6454
 20
33.6074
 30
0.0
  0
VERTEX
  5
6AB
  8
LAYER_1
 10
55.5866
 20
33.6393
 30
0.0
  0
VERTEX
  5
6AC
  8
LAYER_1
 10
55.5217
 20
33.6595
 30
0.0
  0
VERTEX
  5
6AD
  8
LAYER_1
 10
55.452
 20
33.6665
 30
0.0
  0
VERTEX
  5
6AE
  8
LAYER_1
 10
53.7467
 20
33.6645
 30
0.0
  0
VERTEX
  5
6AF
  8
LAYER_1
 10
53.6692
 20
33.6723
 30
0.0
  0
VERTEX
  5
6B0
  8
LAYER_1
 10
53.5971
 20
33.6947
 30
0.0
  0
VERTEX
  5
6B1
  8
LAYER_1
 10
53.5318
 20
33.7301
 30
0.0
  0
VERTEX
  5
6B2
  8
LAYER_1
 10
53.4749
 20
33.7771
 30
0.0
  0
VERTEX
  5
6B3
  8
LAYER_1
 10
53.4279
 20
33.834
 30
0.0
  0
VERTEX
  5
6B4
  8
LAYER_1
 10
53.3925
 20
33.8993
 30
0.0
  0
VERTEX
  5
6B5
  8
LAYER_1
 10
53.3701
 20
33.9714
 30
0.0
  0
VERTEX
  5
6B6
  8
LAYER_1
 10
53.3623
 20
34.0489
 30
0.0
  0
VERTEX
  5
6B7
  8
LAYER_1
 10
53.3623
 20
43.7885
 30
0.0
  0
VERTEX
  5
6B8
  8
LAYER_1
 10
53.3623
 20
51.2239
 30
0.0
  0
VERTEX
  5
6B9
  8
LAYER_1
 10
53.3544
 20
51.3022
 30
0.0
  0
VERTEX
  5
6BA
  8
LAYER_1
 10
53.3318
 20
51.3752
 30
0.0
  0
VERTEX
  5
6BB
  8
LAYER_1
 10
53.2959
 20
51.4412
 30
0.0
  0
VERTEX
  5
6BC
  8
LAYER_1
 10
53.2485
 20
51.4987
 30
0.0
  0
VERTEX
  5
6BD
  8
LAYER_1
 10
53.191
 20
51.5461
 30
0.0
  0
VERTEX
  5
6BE
  8
LAYER_1
 10
53.125
 20
51.582
 30
0.0
  0
VERTEX
  5
6BF
  8
LAYER_1
 10
53.052
 20
51.6046
 30
0.0
  0
VERTEX
  5
6C0
  8
LAYER_1
 10
52.9737
 20
51.6125
 30
0.0
  0
VERTEX
  5
6C1
  8
LAYER_1
 10
52.8407
 20
51.6299
 30
0.0
  0
VERTEX
  5
6C2
  8
LAYER_1
 10
52.7364
 20
51.6779
 30
0.0
  0
VERTEX
  5
6C3
  8
LAYER_1
 10
52.6644
 20
51.7501
 30
0.0
  0
VERTEX
  5
6C4
  8
LAYER_1
 10
52.6282
 20
51.84
 30
0.0
  0
VERTEX
  5
6C5
  8
LAYER_1
 10
52.6314
 20
51.9412
 30
0.0
  0
VERTEX
  5
6C6
  8
LAYER_1
 10
52.6776
 20
52.0474
 30
0.0
  0
VERTEX
  5
6C7
  8
LAYER_1
 10
52.7704
 20
52.152
 30
0.0
  0
VERTEX
  5
6C8
  8
LAYER_1
 10
52.9133
 20
52.2487
 30
0.0
  0
VERTEX
  5
6C9
  8
LAYER_1
 10
53.2877
 20
52.6083
 30
0.0
  0
VERTEX
  5
6CA
  8
LAYER_1
 10
53.5424
 20
53.1806
 30
0.0
  0
VERTEX
  5
6CB
  8
LAYER_1
 10
53.6753
 20
53.9024
 30
0.0
  0
VERTEX
  5
6CC
  8
LAYER_1
 10
53.6845
 20
54.7106
 30
0.0
  0
VERTEX
  5
6CD
  8
LAYER_1
 10
53.5681
 20
55.5421
 30
0.0
  0
VERTEX
  5
6CE
  8
LAYER_1
 10
53.3242
 20
56.3337
 30
0.0
  0
VERTEX
  5
6CF
  8
LAYER_1
 10
52.9508
 20
57.0223
 30
0.0
  0
VERTEX
  5
6D0
  8
LAYER_1
 10
52.446
 20
57.5447
 30
0.0
  0
VERTEX
  5
6D1
  8
LAYER_1
 10
51.8537
 20
58.1139
 30
0.0
  0
VERTEX
  5
6D2
  8
LAYER_1
 10
51.4415
 20
58.7705
 30
0.0
  0
VERTEX
  5
6D3
  8
LAYER_1
 10
51.1762
 20
59.4609
 30
0.0
  0
VERTEX
  5
6D4
  8
LAYER_1
 10
51.0244
 20
60.1318
 30
0.0
  0
VERTEX
  5
6D5
  8
LAYER_1
 10
50.953
 20
60.7298
 30
0.0
  0
VERTEX
  5
6D6
  8
LAYER_1
 10
50.9287
 20
61.2015
 30
0.0
  0
VERTEX
  5
6D7
  8
LAYER_1
 10
50.9182
 20
61.4935
 30
0.0
  0
VERTEX
  5
6D8
  8
LAYER_1
 10
50.8884
 20
61.5524
 30
0.0
  0
VERTEX
  5
6D9
  8
LAYER_1
 10
50.7919
 20
61.3736
 30
0.0
  0
VERTEX
  5
6DA
  8
LAYER_1
 10
50.6135
 20
61.0185
 30
0.0
  0
VERTEX
  5
6DB
  8
LAYER_1
 10
50.368
 20
60.5326
 30
0.0
  0
VERTEX
  5
6DC
  8
LAYER_1
 10
50.0705
 20
59.9614
 30
0.0
  0
VERTEX
  5
6DD
  8
LAYER_1
 10
49.7358
 20
59.3506
 30
0.0
  0
VERTEX
  5
6DE
  8
LAYER_1
 10
49.3788
 20
58.7457
 30
0.0
  0
VERTEX
  5
6DF
  8
LAYER_1
 10
49.0144
 20
58.1922
 30
0.0
  0
VERTEX
  5
6E0
  8
LAYER_1
 10
48.6576
 20
57.7357
 30
0.0
  0
VERTEX
  5
6E1
  8
LAYER_1
 10
48.1765
 20
57.0331
 30
0.0
  0
VERTEX
  5
6E2
  8
LAYER_1
 10
47.8799
 20
56.2589
 30
0.0
  0
VERTEX
  5
6E3
  8
LAYER_1
 10
47.7493
 20
55.4515
 30
0.0
  0
VERTEX
  5
6E4
  8
LAYER_1
 10
47.7661
 20
54.6493
 30
0.0
  0
VERTEX
  5
6E5
  8
LAYER_1
 10
47.9116
 20
53.8906
 30
0.0
  0
VERTEX
  5
6E6
  8
LAYER_1
 10
48.1674
 20
53.2138
 30
0.0
  0
VERTEX
  5
6E7
  8
LAYER_1
 10
48.5147
 20
52.6572
 30
0.0
  0
VERTEX
  5
6E8
  8
LAYER_1
 10
48.9352
 20
52.2592
 30
0.0
  0
VERTEX
  5
6E9
  8
LAYER_1
 10
49.0363
 20
52.1701
 30
0.0
  0
VERTEX
  5
6EA
  8
LAYER_1
 10
49.0946
 20
52.0681
 30
0.0
  0
VERTEX
  5
6EB
  8
LAYER_1
 10
49.1114
 20
51.9608
 30
0.0
  0
VERTEX
  5
6EC
  8
LAYER_1
 10
49.0883
 20
51.8558
 30
0.0
  0
VERTEX
  5
6ED
  8
LAYER_1
 10
49.0268
 20
51.7609
 30
0.0
  0
VERTEX
  5
6EE
  8
LAYER_1
 10
48.9284
 20
51.6835
 30
0.0
  0
VERTEX
  5
6EF
  8
LAYER_1
 10
48.7945
 20
51.6315
 30
0.0
  0
VERTEX
  5
6F0
  8
LAYER_1
 10
48.6267
 20
51.6125
 30
0.0
  0
SEQEND
  5
6F1
  8
LAYER_1
  0
ENDSEC
  0
EOF
